<?xml version="1.0" encoding="UTF-8"?>
<svg xmlns="http://www.w3.org/2000/svg" xmlns:xlink="http://www.w3.org/1999/xlink" width="600" height="600" viewBox="-300 -300 600 600"  fill="#e72c21">
  <defs>
    <g id="s" transform="scale(15.809868)">
      <g id="B">
        <path id="A" d="M0 0V1H.5z" transform="translate(0-1) rotate(18)"/>
        <use xlink:href="#A" transform="scale(-1,1)"/>
      </g>
      <g id="C">
        <use xlink:href="#B" transform="rotate(72)"/>
        <use xlink:href="#B" transform="rotate(216)"/>
      </g>
      <use xlink:href="#C" transform="rotate(72)"/>
    </g>
  </defs>
  <circle r="297" stroke="#e72c21" stroke-width="6" fill="#fff"/>
  <circle r="234"/>
  <g id="p">
    <path d="M43.545941-174.653231A27.917245 27.917245,0 0 0 28.498569-132.913608 45.171052 45.171052,0 0 1 7.977665-66.780598 38.650583 38.650583,0 0 0-3.063233-2.505725 68.374981 68.374981,0 0 1-19.803145-96.478320 15.809868 15.809868,0 0 1-20.908589-97.529962 69.880683 69.880683,0 0 0-4.488638-1.678916 90.342104 90.342104,0 0 1 43.545941-174.653231" fill="#fff"/>
    <use xlink:href="#s" transform="rotate(-4.991495) translate(0-108.858163) rotate(53.628334)"/>
  </g>
  <g id="q">
    <use xlink:href="#p" transform="rotate(72)"/>
    <use xlink:href="#p" transform="rotate(216)"/>
  </g>
  <use xlink:href="#q" transform="rotate(72)"/>
  <use xlink:href="#s" transform="rotate(55) translate(0,264)"/>
  <use xlink:href="#s" transform="rotate(-55) translate(0,264)"/>
  <path id="H" d="M-8-1.24H8v-9.86q0-2.64-.33-3.47-.26-.64-1.07-1.1-1.09-.6-2.3-.6H3.06v-.94H17.8v.93h-1.22q-1.22 0-2.31.59-.81.4-1.12 1.24-.28.82-.28 3.35v22.22q0 2.62.33 3.45.26.64 1.04 1.1 1.12.6 2.34.6h1.22v.94H3.07v-.93H4.3q2.1 0 3.07-1.25.64-.81.64-3.9V.62H-8v10.5q0 2.6.33 3.44.26.64 1.07 1.1 1.09.6 2.3.6h1.25v.94H-17.8v-.93h1.22q2.13 0 3.1-1.25.6-.81.6-3.9V-11.1q0-2.64-.32-3.47-.26-.64-1.04-1.1-1.12-.6-2.34-.6h-1.22v-.94h14.75v.93h-1.24q-1.22 0-2.31.59-.79.4-1.1 1.24-.3.82-.3 3.35z" transform="rotate(36) translate(0,264)"/>
  <path id="O" d="M.33-18q6.7 0 11.6 5.1 4.93 5.08 4.93 12.7 0 7.84-4.95 13.02T-.08 18q-7.1 0-11.96-5.05-4.82-5.05-4.82-13.08 0-8.2 5.59-13.38Q-6.42-18 .33-18zm-.48 1.85q-4.62 0-7.42 3.43-3.47 4.26-3.47 12.5 0 8.42 3.6 12.97 2.77 3.45 7.31 3.45 4.85 0 8-3.78Q11.04 8.63 11.04.48q0-8.83-3.47-13.18-2.8-3.45-7.72-3.45z" transform="rotate(26.5) translate(0,264)"/>
  <path id="N" d="M-18.75-17.5h9.34L11.64 8.34v-19.86q0-3.17-.7-3.96-.95-1.06-2.98-1.06h-1.2v-.94h12v.94h-1.23q-2.18 0-3.1 1.32-.55.8-.55 3.7V17.5h-.92l-22.7-27.72v21.2q0 3.17.69 3.96Q-8.1 16-6.08 16h1.22v.94h-11.99V16h1.2q2.2 0 3.12-1.32.56-.82.56-3.71v-23.94q-1.5-1.76-2.29-2.32-.76-.55-2.26-1.04-.73-.22-2.23-.22z" transform="rotate(17) translate(0,264)"/>
  <path id="G" d="M12.6-18l.88 10.87h-.89q-1.34-4.07-3.47-6.12-3.08-2.97-7.9-2.97-6.58 0-10 5.2-2.87 4.4-2.87 10.46 0 4.93 1.9 8.99t4.98 5.97q3.1 1.88 6.34 1.88 1.9 0 3.69-.49 1.77-.48 3.42-1.42V4.42q0-2.6-.4-3.38Q7.9.23 7.06-.18 6.25-.6 4.16-.6v-.96H17.5v.96h-.63q-1.98 0-2.72 1.32-.5.94-.5 3.7v10.55q-2.93 1.57-5.77 2.3-2.84.74-6.32.74-9.98 0-15.16-6.4-3.88-4.8-3.88-11.07 0-4.54 2.18-8.7 2.59-4.96 7.1-7.62Q-4.4-18 .75-18q1.88 0 3.4.3 1.55.3 4.37 1.35 1.42.53 1.9.53t.81-.43q.36-.46.43-1.75z" transform="rotate(7.5) translate(0,264)"/>
  <path id="K" d="M-3.88-1.88l12.7 12.62q3.11 3.12 5.32 4.27 2.21 1.11 4.42 1.27v.93H2.18v-.93q1.48 0 2.11-.49.66-.5.66-1.11 0-.61-.25-1.1-.23-.48-1.58-1.8L-8.76.03v11.1q0 2.6.33 3.44.25.64 1.07 1.1 1.09.6 2.3.6h1.18v.94h-14.68v-.93h1.22q2.13 0 3.1-1.25.6-.81.6-3.9v-22.25q0-2.62-.32-3.48-.26-.6-1.05-1.07-1.11-.6-2.33-.6h-1.22v-.94h14.68v.93h-1.17q-1.2 0-2.31.59-.79.4-1.1 1.22-.3.81-.3 3.35V-.58q.5-.49 3.48-3.23 7.54-6.9 9.11-9.22.69-1.01.69-1.77 0-.59-.53-1.02-.54-.46-1.8-.46h-.8v-.93h12.65v.93q-1.12.03-2.03.3-.91.29-2.23 1.1-1.32.79-3.25 2.57-.56.5-5.16 5.2z" transform="rotate(-7.5) translate(0,264)"/>
  <use xlink:href="#O" transform="rotate(-43.5)"/>
  <use xlink:href="#N" transform="rotate(-43.5)"/>
  <use xlink:href="#G" transform="rotate(-43.5)"/>
  <path id="中" d="M-3.11 20.45c.59 0 1.47-.2 2.62-.61 1.42-.5 1.9-.84 2.05-1.04.2-.28.3-.67.27-1.16l-.13-5.7V3.65h8.34V6.27c0 .42.13.98 1.26.98.63 0 1.58-.29 2.82-.85 1.19-.54 1.76-1.18 1.71-1.92l-.22-5.53v-4.93c0-1 .5-1.82 1.49-2.47.18-.1.26-.22.25-.41 0-.22-.1-.41-.34-.6l-3.77-3.14c-.18-.16-.35-.24-.5-.24-.16 0-.3.09-.46.27L9.45-9.53l-.06.07h-7.7l-.01-.2v-5.66c0-1.04.53-1.75 1.56-2.12.17-.06.23-.16.23-.35 0-.2-.08-.31-.27-.38l-7.36-2.28c.17 1.15.3 2.59.4 4.33v6.67h-7.11l-.04-.01-6.44-2.86c.25 1.76.4 3.62.4 5.54v8.54l-.17 5.98c0 .24.04.41.15.51.1.1.26.16.48.16.48 0 1.33-.23 2.51-.67 1.47-.55 1.97-.88 2.14-1.05.22-.23.33-.65.34-1.21V3.67h7.75V12.4l-.2 7.23c-.02.28.05.49.17.62.14.13.36.2.67.2m4.79-28.8v-.2H10.04v11.1l.01.2H1.7zM-11.3 2.76h-.2l-.01-11.1v-.2h7.55l.2-.01V2.76h-7.54" transform="rotate(-106.363636) translate(0-264)"/>
  <path id="華" d="M20.49-.82a.73.73 0 0 0-.18-.43l-3.95-3.29a.73.73 0 0 0-.52-.19c-.18 0-.35.11-.51.34l-2.28 2.92-.06.08h-2.02v-5.49h.2l6.95-.02c.4 0 .4-.14.4-.2 0-.1-.06-.2-.17-.31l-3.81-3.41a.9.9 0 0 0-.61-.21c-.19 0-.32.05-.41.18L11-7.8l-.06.08h-.1l-28.57.04 1.34 1.28c1-.33 1.94-.49 2.8-.45h2.01v.2l.01 5.1v.2h-.2l-8.72.01.96 1.32c1.4-.31 2.69-.49 3.82-.49h4.14v.2l.02 5.26v.21h-6.08l1.24 1.38A18.6 18.6 0 0 1-12.33 6l9.19-.02h.2v4.51h-.2l-16.03.03 1.27 1.34c1.38-.33 2.58-.5 3.54-.51l11.23-.01h.2v.2l.01 4.5-.08 3.72c-.02.72.06.97.11 1.06.07.12.3.18.63.18.7 0 1.73-.2 3.05-.6.85-.27 1.87-.72 1.87-1.36l-.14-3.56v-4.15h.2l17.4-.03c.28 0 .28-.1.28-.19 0-.14-.07-.27-.22-.4l-3.97-3.4c-.18-.16-.35-.24-.5-.24-.15 0-.3.1-.46.3l-2.64 3.03-.07.07h-.1l-9.72.02H2.5V5.98h.2l15.39-.03c.17 0 .3-.03.35-.1.05-.04.08-.11.08-.22a.53.53 0 0 0-.2-.39l-3.69-3.26c-.23-.22-.46-.32-.65-.32-.17 0-.33.1-.5.29l-2 2.63-.07.09h-.44V-.54h.2l8.92-.02c.39 0 .39-.15.39-.26zm-.61-12.76c0-.13-.07-.27-.2-.42l-4.11-3.2a.73.73 0 0 0-.42-.17c-.17 0-.35.1-.53.33l-2.45 2.83-.06.07H8.13V-17.14l.08-.07 1.2-.86c.17-.1.25-.24.25-.4 0-.18-.1-.33-.27-.45L2.61-21l.23 3.88v2.99h-.2l-5.44.01h-.21V-17.1l.1-.06a4.75 4.75 0 0 0,1.23-.77c.04-.1.07-.2.07-.32 0-.26-.09-.44-.27-.56l-6.53-1.83.24 3.36v3.17h-.2l-10.7.02 1.14 1.35a11.5 11.5 0 0 1,2.96-.5l6.6-.01h.2l.01.2v1.86l-.13 2.01c0 .15.04.22.08.26.09.1.3.2.84.2.55 0 1.35-.15 2.4-.43 1.38-.38 1.69-.61 1.75-.7A1 1 0 0 0-3-10.5v-2.75h.2l5.44-.01h.2v.2l.01 3.87c0 .42.2.6.65.6A9.2 9.2 0 0 0,5.88-9c.9-.25 1.52-.5 1.83-.75.28-.22.42-.52.42-.91V-13.27l.2-.01 11.19-.02c.14 0 .25-.02.3-.08.01-.01.06-.06.06-.2zM5.83 4.92v.21h-.2l-2.92.01H2.5v-.2L2.49-.34v-.2h.2l2.92-.01h.21v.2zm-.01-6.5v.2H2.49v-5.49H5.8v.2zm-8.76 6.73h-3.45v-.2l-.02-5.27v-.2h3.46v5.46zm-.01-6.72v.2h-.2l-3.05.01h-.21v-.2l-.01-5.1v-.2h3.46v.2z" transform="rotate(-90) translate(0-264)"/>
  <path id="人" d="M.41-4.14H.6l.02.18A43.5 43.5 0 0 0,4.29 9.8c1.85 3.96 5 7.5 9.34 10.55 1.65-2.75 3.6-4.16 5.8-4.16.34 0 .7.05 1.05.12l.46-.8c-2.84-1.4-5-2.55-6.38-3.41a23.6 23.6 0 0 1-4.88-4.39 29.11 29.11 0 0 1-4.4-6.43 35 35 0 0 1-2.68-7.6c-.66-2.81-1-5.3-1-7.42 0-1.06.46-1.87 1.37-2.4 1.02-.59 1.17-.97 1.17-1.15 0-.23-.1-.43-.26-.6l-8.02-2.46c.03.77.06 1.54.06 2.25 0 3.32-.38 7.59-1.13 12.7a37 37 0 0 1-5.22 14.32 30.25 30.25 0 0 1-10.5 10.25l.37.7c6.51-2.31 11.46-5.32 14.69-8.93C-2.62 7.29-.6 2.28.12-3.96l.02-.18h.28" transform="rotate(-73.636364) translate(0-264)"/>
  <path id="民" d="M18.38 18.85c.3-.36.44-.72.44-1.11 0-.33-.14-.78-.41-1.33-1.05-2.1-1.58-4.75-1.58-7.88 0-1.07.08-2.18.23-3.31l-.84-.26c-.58 2.46-1.6 4.9-3.04 7.25l-.06.1h-.48c-.99.03-2.32-.64-4.08-2.06A15.45 15.45 0 0 1,4.58 5.6 17.61 17.61 0 0 1,2.72.4L2.67.15h14.87c.52 0 .52-.19.52-.27 0-.1-.04-.3-.22-.63l-3.95-3.79a.75.75 0 0 0-.55-.23c-.22 0-.36.09-.46.27v.02l-.02.01-3 3.64-.06.08H2.18L2.13-.9A27.36 27.36 0 0 1 .88-7.55l-.01-.22h5.87l.01.21v2.02c0 .38.11.82 1 .82.57 0 1.52-.2 2.82-.61 1.23-.4 1.84-.96 1.84-1.71l-.27-4.33v-2.61c0-.76.44-1.5 1.29-2.22v-.01h.02c.16-.1.23-.22.23-.38 0-.22-.1-.4-.29-.58l-3.25-2.48a1.2 1.2 0 0 0-.77-.26.74.74 0 0 0-.56.2l-3.07 2.83-.06.06h-15.86l-.04-.02-6.38-2.66c.2 1.52.3 3.62.29 6.32v24.84c0 .7-.52 1.17-1.52 1.37-.44.1-.74.25-.89.47-.1.16-.13.37-.08.62l2.5 5.43c.12.25.31.37.63.36a.8.8 0 0 0 .72-.38c.62-1.05 2.63-2.88 6.15-5.58l6.02-4.56-.39-.76c-2.22.84-4.75 1.6-7.52 2.29l-.25.06V.15h8.14l.03.16a29.2 29.2 0 0 0,4.7 10.84 18.3 18.3 0 0 0,10.23 7.2c2.2.63 3.55.96 4.05.96l.78.04c.64 0 1.1-.17 1.39-.5m-29.32-27.5V-15.92H6.75V-8.65h-17.48zm7.53 7.9l-7.32-.01h-.2l-.01-.2v-6.81h6.79v.2c.1 2.01.4 4.22.94 6.56l.06.25h-.26" transform="rotate(-57.272727) translate(0-264)"/>
  <path id="共" d="M10.06-18.22a.46.46 0 0 0-.2-.16l-7.31-2.19c.13.73.26 2.24.4 4.7l.01 7.13v.2h-.2l-5.17.01h-.21V-15.05c-.01-1.03.56-1.82 1.68-2.36.13-.06.3-.18.3-.53 0-.28-.12-.45-.4-.55l-7.16-2.07.29 4.34v7.7h-.2l-9.85.01 1.47 1.37c1.39-.34 2.57-.51 3.49-.52h5.09v.2l.01 11.3h-.2l-12.2.02 1.41 1.4a10.4 10.4 0 0 1,3.51-.57l35.47-.04c.09 0 .2-.01.26-.07.04-.04.06-.11.06-.2a.89.89 0 0 0-.2-.52L16.29-.1c-.04-.05-.16-.13-.52-.13-.33 0-.55.09-.67.25l-2.74 3.73-.06.08H8.27v-.2l-.02-11.1v-.2h.2l10.5-.01c.25 0 .35-.06.38-.1.02 0 .04-.04.04-.11 0-.13-.07-.35-.38-.7l-3.9-3.73c-.12-.1-.31-.16-.57-.16-.21 0-.35.08-.45.26v.02l-.02.01-2.69 3.58-.06.08H8.25V-15c-.01-.96.34-1.64 1.04-2.04.56-.31.84-.63.84-.93 0-.1-.03-.17-.07-.24zM2.96-7.68v.21l.02 11.1v.2H-2.6l-.01-.2-.01-11.1v-.2h5.38zm10.59 18.85c-.27-.24-.55-.48-.86-.72-2.43-1.9-6.2-3.37-11.2-4.4l-.34.76a25.1 25.1 0 0 1,10.36 11.8c.6 1.32 1.4 1.96 2.44 1.96.72 0 1.28-.36 1.73-1.08.46-.75.7-1.63.69-2.62 0-2.07-.95-3.98-2.82-5.7zM-.63 9.32l-5.03-3.8c-3.09 4.9-8.05 9.45-14.75 13.54l.43.72c7.7-2.35 13.57-5.47 17.44-9.26l.05-.05h.08l1.66-.19c.27-.03.39-.16.39-.47 0-.17-.1-.34-.27-.5z" transform="rotate(-40.909091) translate(0-264)"/>
  <path id="和" d="M18.64 12.73l-.18-6.89-.02-14.22c0-.63.3-1.15.87-1.55.45-.3.69-.6.68-.85 0-.21-.12-.44-.36-.67l-2.87-2.39c-.36-.28-.66-.43-.9-.43-.3 0-.54.14-.73.44l-.02.02-2.39 2.52-.06.07H8.19l-.04-.01-5.68-2.55c.11 1.17.18 2.43.18 3.79v3.59l-.35-.38-2.35-2.48a1.9 1.9 0 0 0-.48-.43c-.06 0-.2.05-.46.38l-2.43 2.96-.06.08h-1.07l-.01-7.24v-.18l.17-.03c2.43-.4 3.91-.69 4.39-.85a4.2 4.2 0 0 1,1.3-.25c.38 0 .8.07 1.25.22.36.11.63.1.85-.04.2-.15.3-.32.3-.55a.62.62 0 0 0-.17-.4l-4.2-4.85a64.92 64.92 0 0 1-17.66 7.91l.17.59c3.27-.18 6.05-.48 8.24-.9l.25-.04v6.62H-19.16l1.17 1.37a19.6 19.6 0 0 1,3.78-.53h2.63l-.06.25C-13.01.69-15.83 6.89-20 13.24l.53.42a34.44 34.44 0 0 0,9.29-10.09l.06-.1h.45v.2l.02 10.17-.18 5.2-.06.6c0 .38.11.8.93.8.65 0 1.52-.23 2.6-.69 1.42-.59 1.78-.91 1.86-1.05.16-.25.25-.58.25-.96l-.1-1.13-.2-6.64V-.6l.2-.01h.27l.06.1c.09.16.44.66 1.04 1.5a8.18 8.18 0 0 1,1.34 3.19c.23 1.13.78 1.67 1.7 1.67.35 0 .75-.17 1.19-.53.45-.35.72-.8.84-1.39l.04-.16h.52v.2l.01 6.43-.19 6.16c0 .47.08.8.26.98.12.13.3.19.52.2.46-.01 1.17-.2 2.13-.58a8.44 8.44 0 0 0,2.13-1.11c.41-.33.6-.77.57-1.34l-.08-4.05-.01-.21h5.18v.2l-.14 4.63c0 .28.05.48.16.6.1.12.28.17.52.17.68 0 1.7-.33 3.05-.99 1.31-.64 1.92-1.4 1.87-2.33M2.6.76l-.09.1-.26.26-.08-.37c-.4-1.78-2.6-2.93-6.54-3.43l-.18-.02V-5.43l7.2-.01v.2L2.67.63V.7zm10.37 8.85H7.96v-.2l-.02-19.58v-.2h.2l5.01-.01v.2l.02 19.58v.2h-.2" transform="rotate(-24.545455) translate(0-264)"/>
  <path id="國" d="M16.23 12.96v-27.64l.09-.06 1.4-1.08c.26-.19.38-.42.38-.7 0-.27-.1-.46-.3-.59l-3.6-2.88a.98.98 0 0 0-.6-.25c-.23 0-.4.07-.53.24l-2.7 2.87-.07.06H-11.79l-.04-.02-6.2-2.86c.11 2 .18 3.57.17 4.64v28.58l-.24 6.18c-.01.27.05.47.18.6s.34.2.64.2c.5 0 1.32-.2 2.42-.59 1.37-.47 1.82-.75 1.96-.9.19-.22.28-.48.28-.82l-.15-2.74-.01-.22h23.72l.2.01v1.47L11 19.2c0 .18.1.35.28.52.18.18.4.26.68.27.2 0 .8-.13 2.56-.73 1.34-.46 1.97-1.1 1.92-1.95l-.2-4.35M11.15-8.71V-5l-.3-.15-4.71-2.32a43.02 43.02 0 0 1-1.56 6.2l-.05.13H4.1l-.04-.16c-.22-1.06-.35-3.42-.4-7.21v-.21h7.27zm-4.26-7.5h4.25l.01.21V-10.55l-.34-.27-1.1-.9-.13-.11.09-.15c.21-.38.32-.76.32-1.13 0-.62-.3-1.17-.9-1.66a4.85 4.85 0 0 0-2.24-.99l-.17-.02V-16.2zm-5.07.07l.08-.05.05-.02h3.73l-.36.35-.19.2a3.6 3.6 0 0 1,1.4 2.63c.13 1.13.43 1.78.88 1.94l.3.1-.22.24-1.07 1.12-.06.06H3.77v-3.71l.08-.06c.8-.55.97-.9.97-1.1 0-.27-.12-.34-.24-.38l-2.74-.94-.46-.16zm-14.58 6.36V-16.2H-1.08v.2l.14 2.42v4.01H-12.76zm23.7 23.93h-23.7l-.01-.2v-6.2h.47l.04.14c.15.43.43 1.04.84 1.83.43.81.7 1.39.84 1.71.13.35.28.35.34.36.36 0 .7-.26 1-.77a5.38 5.38 0 0 1,1.92-1.7L-.8 5.48l-.1-.43c-4.03.8-7.95 1.33-11.65 1.59l-.22.02V-9.28l.34.28.93.8c1.34-.35 2.24-.51 2.73-.51h7.83v.2l.14 3 .02.51-.37-.35-2.02-1.93a2.9 2.9 0 0 0-.44-.08.5.5 0 0 0-.47.26v.01l-.02.01-1.55 1.72-.07.06H-7.3l-.03-.01-4.06-1.75c.08.92.13 1.95.13 3.11V.46l-.04 3.64c-.01.43.07.73.23.9.11.1.27.16.48.16.13 0 .51-.07 1.68-.53a6.1 6.1 0 0 0,1.56-.75.56.56 0 0 0 .2-.43l.06-1.12.01-.19H-5.74v1.65c0 .18.05.3.13.39.12.12.32.17.61.17.33 0 1.02-.17 2.06-.51.98-.33 1.46-.86 1.46-1.61l-.15-2V-3.8l.07-.06.59-.54.33-.3.01.44C-.48-.8-.03 2.19.7 4.59l.03.1-.07.09a36 36 0 0 1-8.83 7.77l.27.38A27.5 27.5 0 0 0,2.26 8.06l.2-.15.1.2c.92 1.61 2.03 2.9 3.3 3.82 1.24.93 2.25 1.39 3 1.39 1.05 0 1.54-.41 1.54-1.3 0-.45-.12-1.08-.36-1.87-.25-.84-.38-1.84-.38-2.98 0-1.07.11-2.92.33-5.48l-.35-.08C8.5 6 8.4 6.28 8.35 6.36a.68.68 0 0 1-.66.42c-.3 0-.55-.09-.75-.27-.11-.1-.36-.41-1.18-1.9L5.7 4.5l.08-.1a36.38 36.38 0 0 0,4-7.29l.01-.04.04-.03c.3-.26.64-.5 1.02-.7l.3-.17V14.15zM-5.73 1.3h-1.43V-4.5h1.42V1.3" transform="rotate(-8.181818) translate(0-264)"/>
  <path id="香" d="M5.12-7.5l-.42-.36h.56l13.59-.03c.38 0 .52-.08.57-.13.02-.03.06-.07.05-.16 0-.16-.12-.36-.35-.58l-3.86-3.76c-.12-.11-.28-.16-.5-.16a.66.66 0 0 0-.56.28L11.1-8.93l-.06.07h-.1l-8.26.01h-.2v-.2l-.01-4.54v-.2h.19c.95-.08 2.53-.31 4.68-.7 2.2-.38 3.62-.57 4.32-.58.38 0 .72.04 1 .1.22.06.43.03.64-.1.19-.1.28-.24.28-.43a.77.77 0 0 0-.16-.44l-4.38-4.15c-4.93 2.15-13.34 4.29-25 6.35l.05.6c3.52 0 7.91-.14 13.1-.39h.2v.21l.02 4.27v.21l-17.66.03L-19-7.4c.82-.27 2.28-.41 4.5-.42l6.19-.01h.35l-.17.3C-10.9-2.6-15.2 1.95-20.91 5.99l.56.7c4.73-1.93 7.83-3.45 9.23-4.52l.32-.24.02.4.2 4.67s.02 8.62.01 8.63l-.23 3.81c0 .15.03.27.12.36.13.14.46.3 1.25.3.9 0 1.84-.19 2.82-.56 1.25-.47 1.38-.82 1.38-.94l-.13-2.56-.01-.22h.21l10.59-.02h.2v.2l.01 3.23c0 .1 0 .43.96.42.84 0 1.8-.2 2.83-.63 1.31-.54 1.46-.91 1.45-1.04l-.18-3.91-.01-8.9c0-.38.2-.7.6-.97.4-.27.42-.4.42-.4l.04-.3.27.15c1.65.93 2.82 1.52 3.53 1.8.72-1.6 1.4-2.67 2.04-3.2.66-.57 1.5-.86 2.48-.86.18 0 .38.02.58.04L20.9.6A38.19 38.19 0 0 1,5.12-7.5m.51 17.1v5.32l-10.79.02h-.2v-.2l-.01-5.11v-.21h.2l10.8-.02zm-.01-6.15v5.12h-.2l-10.8.01V3.48l-.01-.21h.21L5.4 3.25h.22zM8.57.8l-.09.1-.12.16L8.2.95c-.59-.4-.85-.47-.96-.47-.06 0-.07.02-.09.04v.02l-.02.02-1.88 1.8-.07.06H5.1l-10.06.01h-.05l-.05-.03L-8.32.52l-.25-.15.23-.19A20.56 20.56 0 0 0-3.1-6.05l.06-.11h.46v2.87l-.2 4.98s.08.13.69.13c.85 0 1.88-.2 3.06-.59C2.51.73 2.63.34 2.63.25L2.5-3.71v-3.62H2.93l.05.14A17.15 17.15 0 0 0,8.54.5l.16.12-.13.17" transform="rotate(8.181818) translate(0-264)"/>
  <path id="港" d="M-17.97-5.55c.9 2.6 1.35 3.43 1.57 3.67.32.34.66.5 1.06.5.72 0 1.34-.4 1.89-1.22.56-.82.84-1.73.84-2.7 0-.86-.42-1.7-1.24-2.54-.83-.83-2.94-1.7-6.27-2.58l-.47.49c1.03.88 1.91 2.33 2.62 4.38m3.8-7.45c.49 1.7 1.22 2.52 2.25 2.52.78 0 1.44-.38 2.02-1.15.59-.77.89-1.54.89-2.26 0-1.93-2.8-3.63-8.32-5.06l-.47.5 1.64 1.56c.82.77 1.48 2.08 2 3.89m28.87-1.3c-.33-.3-.5-.34-.58-.34-.19 0-.38.1-.57.32l-2.2 2.6-.05.08h-1.12v-4.24c0-.3.27-.66.84-1.1.65-.52.68-.69.68-.7 0 0-.02-.23-.99-.47l-5.67-1.47c.01.83.08 3.4.07 3.41V-11.65l-.2.01H1.8v-4.53c0-.29.26-.62.81-1.05.64-.48.66-.65.66-.65 0-.02-.02-.26-1.15-.55l-5.55-1.55.16 3.67v4.66h-5.11l1.2 1.31c1.02-.3 2-.48 2.89-.47h1.02V-4.29h-5.86l.08-.27 1.46-4.62-.55-.26a92.66 92.66 0 0 1-4.61 9.16c-1.63 2.79-2.8 4.32-3.6 4.7a6.1 6.1 0 0 1-2.63.54c-.48 0-1.01-.06-1.56-.14l-.12.82c1.68.43 2.74.92 3.21 1.47.48.57.73 1.26.73 2.05 0 .71-.18 1.79-.56 3.3a15.13 15.13 0 0 0-.56 2.86c0 .97.48 2 1.41 3.05.93 1.06 1.85 1.6 2.75 1.59 1.41 0 2.1-1.04 2.1-3.17 0-1.4-.14-2.72-.4-3.94a18.61 18.61 0 0 1-.46-2.8V9.9l.14-.05c2.81-1.01 5.23-2.5 7.2-4.45l.35-.35v9.53c0 .84.42 1.77 1.25 2.76.82.99 2.08 1.56 3.75 1.7 1.72.15 3.47.22 5.2.22 4.08 0 7.03-.28 8.75-.85 1.64-.54 2.79-1.95 3.43-4.17-1.58-.77-2.6-1.65-2.97-2.6-.36-.93-.57-1.97-.64-3.1l-.6-.13-.32 2.08a5.74 5.74 0 0 1-.8 2.54c-.38.5-1.1.85-2.18 1.04a27.2 27.2 0 0 1-4.44.28c-2.38 0-3.82-.14-4.41-.43-.63-.3-.95-.92-.95-1.82V8.38h5.62l-.01.21-.04 1.51c-.01.13.02.22.08.29.12.12.37.18.72.18.8 0 1.78-.28 2.89-.83 1.38-.7 1.6-1.14 1.59-1.35V5.43l.35.3c1.14 1 2.65 1.84 4.47 2.5.97-2.22 2.46-3.52 4.44-3.87l.23-.57c-5.63-1.1-9.72-3.41-12.14-6.9l-.23-.33h10.68c.14 0 .34-.01.44-.12.07-.06.1-.15.1-.28 0-.1-.05-.21-.15-.32l-3.7-3.07c-.33-.28-.48-.3-.53-.3-.24 0-.31.1-.35.21l-.02.03-.02.03-2.43 2.91-.06.08h-2.06v-6.53h6.76c.43 0 .62-.1.7-.17.06-.06.08-.13.08-.24a.86.86 0 0 0-.21-.5l-2.8-2.6M-11.97 7.85l-.43.38.09-.57A65.93 65.93 0 0 1-9.33-3.52l.1-.3.24.22.55.53a6.07 6.07 0 0 1,2.26-.33l1.62-.04h.28l-.08.26c-1.11 3.8-3.68 7.52-7.6 11.02m17.93-5.2v4.88H.33l-.01-.2V2.43h5.65zm.5-5.92C6.8-1.98 7.2-.83 7.68.1l.08.17-.17.1-2.06 1.2-.05.03H.48l-.05-.02L-.92.85l-.24-.12.18-.2c.14-.16.68-.97 2.45-3.87l.06-.1h4.9zm-1.35-7.31V-4.28H1.8l-.01-.2v-6.32h3.33v.2" transform="rotate(24.545455) translate(0-264)"/>
  <path id="特" d="M1.55 12.91c.8 0 1.45-.31 1.98-.96.52-.65.79-1.4.8-2.23 0-.9-.36-1.75-1.04-2.51-.69-.76-2.28-1.7-4.73-2.78l-.48.57C-.9 6.27-.35 8.1-.35 10.49c0 1.63.62 2.42 1.9 2.42M-7.01 1.58l.1-.05 4.78-3-.3-.87-4.3 1.56-.28.1v-5.85h4.96c.5 0 .5-.18.5-.26-.01-.11-.07-.24-.22-.38l-2.63-2.91a.6.6 0 0 0-.46-.22c-.22 0-.35.08-.42.28v.02L-6.5-7.7l-.05.1h-.46v-9.04l.11-.05 1.39-.64c.13-.06.29-.17.29-.51 0-.25-.13-.43-.4-.59l-6.85-2.15.25 4.16v2.5l-.29-.11-4.47-1.9c-.05 5.42-1.2 11.43-3.45 17.88l.55.3a39.12 39.12 0 0 0,5.52-8.65l.06-.12h2.08V1.41l-.13.05-8.1 2.85 2.2 5.23c.12.28.3.42.6.42.14 0 .4-.12.8-.67.37-.52.83-1.02 1.4-1.5l2.91-2.07.33-.23v8l-.17 5.05c-.02.41.06.71.23.89.15.15.36.22.66.22.63 0 1.61-.24 2.93-.7 1.26-.45 1.85-1.1 1.82-2l-.27-4.93V1.7zm-6.82-8.94h-.32l.14-.3c.05-.11.23-.76.83-3.83l.03-.1.09-.05.55-.26.3-.14v4.67H-13.83m27.86-7.34a.6.6 0 0 0-.44-.18c-.2 0-.36.1-.48.31l-.01.02-2.11 2.7-.07.08H8.11v-5.13l.1-.05 1.34-.77c.08-.05.2-.15.2-.41 0-.27-.17-.49-.5-.67l-6.55-2 .2 5.23V-11.78h-7.73l1.38 1.33a9.54 9.54 0 0 1,2.6-.49H2.9v6.62h-8.58l1.22 1.4a9.36 9.36 0 0 1,3-.56h8.58l.02.18.3 3.11v2.7l.01.2h-13.2L-4.56 4a9.02 9.02 0 0 1,2.9-.41h9.1v10.75c0 .25-.08.46-.25.63-.26.26-.7.38-1.35.38-.81 0-2.43-.24-4.94-.73l-.08.78c.93.25 1.86.6 2.76 1.09 1 .52 1.6.99 1.87 1.42.25.4.45 1.37.64 2.92l2.74-.99c.32-.12 1.04-.54 2.12-1.23a3.22 3.22 0 0 0,1.56-2.94V3.58h.2l7.13-.01c.05 0 .13 0 .17-.05.03-.03.04-.1.04-.16 0-.15-.05-.32-.15-.5l-3.47-3.3c-.2-.18-.38-.27-.54-.27-.25 0-.44.12-.59.36l-1.6 2.96-.05.1H12.52V.02l.1-.06c1.26-.8 1.32-1.09 1.32-1.14 0-.13-.05-.23-.28-.28L7.59-2.99l-.16-.04v-.45H20.17c.12 0 .2-.03.24-.07.03-.02.04-.08.04-.15 0-.1-.04-.22-.13-.35L16.57-7.5a.65.65 0 0 0-.45-.15c-.18 0-.34.1-.5.32L13.28-4.4l-.06.08H8.1v-6.61h.2l8.84-.01c.45 0 .45-.16.45-.23a.61.61 0 0 0-.15-.38l-3.4-3.16" transform="rotate(40.909091) translate(0-264)"/>
  <path id="別" d="M11.12-13.15c0-.23-.1-.38-.34-.49l-6.36-2.04c.09.67.15 1.43.16 2.3.01 1 .04 1.74.07 2.21l.02 15.3L4.5 9.5c0 .27.05.48.17.61.13.14.36.2.65.2.05 0 .4-.1 2.44-.8C9.23 9 9.94 8.34 9.88 7.55l-.19-4.41-.02-13.92c0-.87.41-1.52 1.23-1.94l-.03.01a.52.52 0 0 0 .25-.44M2.29 3.77V3.7l.06-.06 1.38-1.25c.16-.15.24-.3.24-.44 0-.16-.08-.3-.23-.43L.3-1.27a1.02 1.02 0 0 0-.64-.17c-.31 0-.55.08-.71.24l-2.48 2.44-.06.06h-3.08l-.23.01.02-.23.21-2.69.01-.12.1-.05 1.36-.72c.21-.12.3-.26.3-.46 0-.27-.13-.44-.44-.54l-4.96-1.53-.14-.04V-6.2l7.04-.01h.21V-3.31c0 .18.05.3.12.38.1.1.26.14.5.13.36 0 1.15-.18 2.34-.54a7.62 7.62 0 0 0,2.13-.83c.2-.16.28-.35.24-.58v-.03l-.13-3.38L2-12.7c0-1.2.41-1.99 1.22-2.35a.74.74 0 0 0 .22-.54c0-.2-.06-.37-.2-.52l-3.65-2.8c-.13-.1-.35-.16-.64-.16-.3 0-.53.1-.7.3l-2.42 2.45-.05.07h-5.39l-.04-.02-6.17-2.68c.05.99.1 2.44.16 4.39l.02 6.9-.17 5.01c0 .23.03.4.12.49.08.07.2.1.35.11.64 0 1.66-.18 3.04-.55l.26-.06V.72c0 3.1-.65 6.3-1.96 9.5-1.29 3.13-3.21 6-5.7 8.51l.49.65C-12.57 14.74-8.51 9-7.14 2.3l.04-.16h4.2l.22-.01-.02.22c-.14 2.44-.39 5.01-.73 7.64-.53 4.01-.72 4.32-.8 4.44-.2.31-.57.48-1.11.48-.78 0-2.5-.39-5.2-1.18l-.29.56c1.8.91 2.89 1.74 3.3 2.53.4.76.58 1.75.54 2.94 1.13-.12 2.15-.27 3.04-.45.94-.2 1.82-.51 2.62-.95a4.22 4.22 0 0 0,1.72-1.66c.37-.69.73-2.29 1.06-4.75.34-2.5.62-5.25.84-8.19M-10.44-7.25l-.02-7.93v-.2h.2l6.85-.02h.2l.02 8.15v.2h-.2l-6.85.01h-.2v-.2m23-13.1c.22.99.4 2.5.52 4.58l.04 28.78c0 .85-.46 1.33-1.32 1.33-.98 0-2.78-.25-5.33-.73l-.2.74c1.7.51 2.97 1.06 3.75 1.63.82.6 1.28 2.05 1.43 4.36 4.44-1.08 6.7-3.1 6.7-6l-.04-29.72c0-.87.43-1.48 1.29-1.84l-.05.02c.24-.17.35-.35.36-.58 0-.2-.1-.33-.3-.41l-6.85-2.16" transform="rotate(57.272727) translate(0-264)"/>
  <path id="行" d="M15.8-7.84L12.87-4.7l-.06.07H-5.51l1.08 1.5A10.8 10.8 0 0 1-.61-3.8h7.48v16.74c0 .54-.13.95-.4 1.22-.22.23-.54.34-.94.34a77 77 0 0 1-6.03-.83l-.17.63c3.82 1.32 5.86 3.42 6.07 6.25 4.36-.95 6.59-2.7 6.58-5.22V-3.8h8.06c.37 0 .5-.08.56-.13.02-.02.04-.05.04-.12 0-.1-.05-.26-.29-.51l-3.33-3.36c-.22-.22-.42-.33-.58-.33-.17 0-.39.14-.64.42m-3-10.5c-.22 0-.43.1-.63.33l-2.65 3.27-.06.08H-3.75l1.23 1.4a8.84 8.84 0 0 1,3.44-.54h15.13c.71 0 .95-.14 1.03-.22a.16.16 0 0 0 .05-.13c0-.08-.05-.28-.37-.66l-3.3-3.18c-.23-.23-.45-.36-.66-.35M-7.46.95c0-1.03.51-1.75 1.54-2.17.45-.15.46-.35.45-.42 0-.14-.1-.28-.3-.41L-7.8-3.12-8-3.24l.16-.2c1-1.28 1.6-2.11 1.82-2.45l.01-.02.01-.01c.92-1.02 1.83-1.54 2.7-1.54.37 0 .46-.16.46-.4 0-.21-.13-.4-.39-.57l-5.83-3.6-.22-.14.17-.18c2.18-2.32 3.8-3.52 5-3.66.4-.01.43-.18.43-.34 0-.21-.18-.43-.54-.66l-5.46-3.55C-12.47-14-15.7-9.19-19.29-6.2l.59.63A48.94 48.94 0 0 0-10-11.6l.15-.13.13.14.1.08.08.1-.04.12A51.7 51.7 0 0 1-20.64 7.08l.5.7c3.01-1.78 5.38-3.5 7.04-5.14l.35-.35V14.7l-.17 5.18c-.01.16.03.3.13.4.17.18.56.28 1.1.28.9 0 1.88-.23 2.94-.69 1.32-.56 1.51-.96 1.51-1.14l-.22-4.8V.94" transform="rotate(73.636364) translate(0-264)"/>
  <path id="政" d="M-.47-3.64l-.1.38-.26-.3-1.62-1.93c-.15-.17-.3-.25-.48-.25-.14 0-.25.04-.32.12L-4.9-3.07l-.38.58v-.7l-.01-9.38v-.2h.2l5.31-.01c.12 0 .2-.02.24-.06.02-.02.04-.07.04-.13a.6.6 0 0 0-.14-.33l-3.85-4.06c-.06-.07-.2-.11-.4-.11s-.34.06-.45.23l-2.82 3.55-.06.08h-.1l-12.97.01 1.1 1.4c1.37-.37 2.32-.56 2.88-.56l5.83-.01h.21v.2l.02 21.47v.16l-.16.04-1.38.31-.25.05V9.2l-.02-12.56c0-.6.21-1.08.62-1.43.31-.25.48-.5.48-.7 0-.15-.07-.17-.1-.19l-6.14-2.1.16 4.3.02 13.42v.17l-.18.03-3.72.55 2.4 5.4c.4.9.64.96.7.96.08 0 .3-.05.71-.57.35-.44.62-.75.82-.92.14-.12.54-.38 2.5-1.3a132.8 132.8 0 0 1,5.65-2.42L2.54 7.6l-.22-.9-7.34 1.58-.25.06v-.26l-.01-9.93v-.2h.2l4-.01h.27l-.08.26a70.42 70.42 0 0 1-2.76 7.33l.44.3A33.35 33.35 0 0 0,2.21-.82l.05-.1h.4l.01.2c.4 4.24.96 7.31 1.67 9.12l.04.11-.07.1a37.37 37.37 0 0 1-15.1 11.54l.24.5c8.02-1.9 14-4.75 17.73-8.49l.17-.17.14.2a42.74 42.74 0 0 0,6.59 7.15 8.28 8.28 0 0 1,6.7-3.84l.14-.66c-5.06-1.68-8.71-3.76-10.84-6.17l-.1-.1.08-.14c1.8-3.19 3.07-7.28 3.77-12.16v-.01l.01-.02c.27-.81.92-1.5 1.94-2.05l.04-.02h.04c.4-.05.45-.21.45-.4 0-.08-.03-.21-.24-.34l-1.91-.75-.13-.05v-.52h.2l5.42-.01c.3 0 .32-.12.32-.26 0-.11-.06-.22-.18-.33l-4.4-4.03a.79.79 0 0 0-.55-.23c-.23 0-.38.09-.47.27l-.01.01-.01.02-2.74 3.64-.06.08H6.11l.1-.27c.09-.24.38-1.39.88-3.42.51-2.08.82-3.27.95-3.63.14-.41.5-.75 1.07-1.02.42-.2.65-.4.65-.57 0-.16-.1-.3-.31-.46l-6.92-2.54a116.46 116.46 0 0 1-3 17m9.52-4.04c-.17 5.1-.68 9.06-1.5 11.74l-.1.35-.25-.27C6.05 2.79 4.92.33 3.85-3.18l-.03-.08.04-.07a65.28 65.28 0 0 0,1.96-4.44l.05-.13h3.18v.21" transform="rotate(90) translate(0-264)"/>
  <path id="區" d="M9.91-.01l-.06.08H8L7.94.05 3.2-2.3l.1 1.86.03.42L3-.27-.43-2.61a.78.78 0 0 0-.43-.14c-.17 0-.27.06-.35.2l-.01.01v.01L-3.08 0l-.06.08h-2.13l-.05-.03-5.25-2.87.12 4.12v7.33l-.17 5.35c0 .2.03.35.11.43.08.08.2.12.36.12.5 0 1.44-.16 2.77-.47 1.24-.28 1.87-.71 1.87-1.26V9.9h2.43v1.51l-.09 2.17c0 .17.03.3.11.38.1.1.29.15.54.15.23 0 .8-.1 2.24-.6 1.55-.52 1.88-.76 1.94-.84a.65.65 0 0 0 .16-.56v-.02l-.18-3.91V1.92l.08-.06L3.02.83l.33-.27v8.07l-.17 4.75c-.01.17 0 .38.1.5.07.06.17.1.32.1.48 0 1.11-.12 1.89-.35a7.79 7.79 0 0 0,1.73-.7c.32-.2.48-.43.48-.72V9.9h2.38v1.72c0 .41.17.58.59.59.23 0 .8-.1 2.16-.57 1.43-.5 1.82-.74 1.92-.85.16-.15.22-.35.18-.63l-.13-2.92V1.9l.09-.05 1.2-.81c.15-.1.22-.23.22-.4 0-.11-.06-.26-.17-.42-.2-.14-3.65-2.84-3.65-2.84a.7.7 0 0 0-.42-.13c-.09 0-.22.02-.36.22zM-3.07 8.85v.22h-.2l-2.02-.01h-.2l-.01-.2V1.04h2.43v.2zM7.9 1.05h2.18v8.01H7.7V1.04h.2m.06-15.26c-.28 0-.49.07-.64.22l-2.36 2.52-.06.07h-6.43l-.03-.02-5.84-2.43.16 3.88v3.83l-.17 3.8c-.02.22.02.38.1.46.06.07.16.1.3.1.35 0 1.25-.16 2.68-.48.91-.21 2-.6 2-1.29V-4.37h8.06l.01.2v1.65c0 .19.04.34.13.42.1.1.24.14.45.13.22.01.78-.09 2.22-.55 1.5-.46 1.9-.7 2-.8a.9.9 0 0 0 .24-.66l-.13-1.98v-3.48l.07-.06 1.23-1.03c.14-.12.21-.26.21-.41 0-.13-.06-.27-.18-.4l-3.3-2.6a1.16 1.16 0 0 0-.72-.28m-2.22 3.64v5.34h-7.86l-.2.01V-10.57h8.05m-23.16-2.98v26.53c0 1-.6 1.79-1.78 2.33-.21.1-.3.23-.3.43 0 .24.1.32.2.36l.03.01.03.02 3.68 3.43c.14.12.34.18.61.18.36 0 .65-.15.89-.47l.02-.02 2.37-2.21.06-.06h30.75c.32 0 .38-.13.38-.35a.4.4 0 0 0-.12-.3l-3.88-3.57a.59.59 0 0 0-.46-.2c-.15 0-.3.1-.43.28l-2.66 3.22-.06.08H-12.3l-.01-.2v-31.01H17.1c.36 0 .36-.13.36-.22 0-.05-.03-.16-.21-.38l-4.11-3.85c-.16-.15-.32-.23-.45-.22-.18 0-.34.09-.5.3l-2.87 3.46-.06.07H-11.22l-.03-.01-6.35-2.7.17 5.07" transform="rotate(106.363636) translate(0-264)"/>
</svg>