<svg width="48" height="48" fill="none" xmlns="http://www.w3.org/2000/svg">
  <mask id="a" style="mask-type:alpha" maskUnits="userSpaceOnUse" x="0" y="0" width="48" height="48">
    <path fill="#D9D9D9" d="M0 0h48v48H0z"/>
  </mask>
  <g mask="url(#a)">
    <path d="M28.203 24.996c.388-.141.67-.4.845-.777.176-.376.193-.758.052-1.146-.141-.388-.4-.67-.777-.845a1.445 1.445 0 0 0-1.146-.052c-.387.142-.669.4-.845.777a1.445 1.445 0 0 0-.051 1.146c.14.388.4.67.776.845.377.175.759.193 1.146.052Zm2.566 7.047c-2.477-.92-4.434-1.901-5.87-2.941-1.436-1.04-2.368-2.148-2.796-3.323-.64-1.762-.585-3.372.168-4.83.753-1.458 1.875-2.458 3.367-3.001 1.492-.543 2.995-.498 4.509.135 1.514.633 2.591 1.83 3.233 3.592.427 1.174.425 2.622-.006 4.342-.432 1.72-1.3 3.729-2.606 6.026Z" fill="#fff"/>
    <path d="m7.95 39.6-1.7-.7c-1.033-.434-1.725-1.184-2.075-2.25-.35-1.067-.292-2.117.175-3.15l3.6-7.8v13.9Zm8 4.4c-1.1 0-2.042-.392-2.825-1.175-.783-.784-1.175-1.726-1.175-2.826V28l5.3 14.7c.1.234.2.459.3.675.1.217.233.425.4.625h-2Zm10.3-.2c-1.067.4-2.1.35-3.1-.15s-1.7-1.284-2.1-2.35l-8.9-24.4c-.4-1.067-.367-2.109.1-3.125.467-1.017 1.233-1.709 2.3-2.075l15.1-5.5c1.067-.4 2.1-.35 3.1.15s1.7 1.283 2.1 2.35l8.9 24.4c.4 1.066.367 2.108-.1 3.124-.467 1.017-1.233 1.709-2.3 2.076l-15.1 5.5Zm-1.4-3.8 15.1-5.5-8.9-24.5-15.1 5.5 8.9 24.5Z" fill="#B3B5EE"/>
  </g>
</svg>
