<?xml version="1.0" encoding="UTF-8" standalone="no"?>
<svg xmlns:dc="http://purl.org/dc/elements/1.1/" xmlns:cc="http://creativecommons.org/ns#" xmlns:rdf="http://www.w3.org/1999/02/22-rdf-syntax-ns#" xmlns:svg="http://www.w3.org/2000/svg" xmlns="http://www.w3.org/2000/svg" xmlns:xlink="http://www.w3.org/1999/xlink" xmlns:sodipodi="http://sodipodi.sourceforge.net/DTD/sodipodi-0.dtd" xmlns:inkscape="http://www.inkscape.org/namespaces/inkscape" width="1024" height="1024" version="1.1" id="svg2559" sodipodi:version="0.32" inkscape:version="0.46" sodipodi:docname="Map_of_Japan_with_highlight_on_01_Hokkaido_prefecture.svg" inkscape:output_extension="org.inkscape.output.svg.inkscape">
  <metadata id="metadata2691">
    <rdf:RDF>
      <cc:Work rdf:about="">
        <dc:format>image/svg+xml</dc:format>
        <dc:type rdf:resource="http://purl.org/dc/dcmitype/StillImage"/>
      </cc:Work>
    </rdf:RDF>
  </metadata>
  <sodipodi:namedview inkscape:window-height="968" inkscape:window-width="1280" inkscape:pageshadow="2" inkscape:pageopacity="0.0" guidetolerance="10.0" gridtolerance="10.0" objecttolerance="10.0" borderopacity="1.0" bordercolor="#666666" pagecolor="#ffffff" id="base" showgrid="false" inkscape:zoom="1" inkscape:cx="870.28106" inkscape:cy="887.78228" inkscape:window-x="-4" inkscape:window-y="-4" inkscape:current-layer="svg2559"/>
  <title id="title2561">日本全図 北海道</title>
  <desc id="desc2563">Author: Lincun</desc>
  <rect fill="powderblue" x="0" y="0" width="1024" height="1024" id="rect2565"/>
  <defs id="defs2567">
    <inkscape:perspective sodipodi:type="inkscape:persp3d" inkscape:vp_x="0 : 512 : 1" inkscape:vp_y="0 : 1000 : 0" inkscape:vp_z="1024 : 512 : 1" inkscape:persp3d-origin="512 : 341.33333 : 1" id="perspective2693"/>
    <g id="ground">
      <path fill="none" stroke="dodgerblue" stroke-width="0.5" d="M-192,-301A3584,863 -78 0,0 -517,1520M-115,-286A3584,768 -80 0,0 -405,1541M-37,-274A3584,673 -81 0,0 -291,1559M40,-263A3584,577 -82 0,0 -176,1575M119,-253A3584,480 -83 0,0 -61,1589M199,-246A3584,383 -85 0,0 54,1600M279,-240A3584,285 -86 0,0 171,1608M359,-236A3584,187 -87 0,0 288,1614M439,-233A3584,88 -88 0,0 406,1618M520,-233A3584,9 -90 0,1 523,1619M600,-234A3584,108 -91 0,1 641,1617M680,-236A3584,206 -92 0,1 758,1613M760,-241A3584,305 -93 0,1 875,1607M840,-247A3584,402 -95 0,1 992,1598M919,-255A3584,500 -96 0,1 1108,1586M998,-265A3584,596 -97 0,1 1223,1572M-517,1520A3367,2073 -180 0,0 1223,1572M-503,1401A3323,2045 -180 0,0 1214,1453M-488,1282A3274,2015 -180 0,0 1203,1333M-472,1162A3221,1983 -180 0,0 1192,1212M-455,1041A3164,1948 -180 0,0 1180,1090M-436,919A3103,1910 -180 0,0 1167,967M-417,797A3039,1871 -180 0,0 1154,844M-396,674A2971,1829 -180 0,0 1139,720M-374,551A2899,1785 -180 0,0 1124,596M-351,428A2824,1738 -180 0,0 1108,472M-327,306A2745,1690 -180 0,0 1092,348M-302,183A2663,1639 -180 0,0 1074,224M-276,61A2578,1587 -180 0,0 1056,101M-249,-60A2489,1532 -180 0,0 1038,-21M-221,-181A2398,1476 -180 0,0 1018,-143M-192,-301A2303,1418 -180 0,0 998,-265" id="path2570"/>
      <g fill="limegreen" stroke="gray" stroke-width="0.5" stroke-linejoin="round" id="g2572">
        <path d="M591 250l-1 6h-3v-9l6 -2zM620 271l-1 -11 -4 -7 -5 -1 -2 -5 -4 -1 -2 -5 4 -8 -1 -11 2 -3 8 -2 6 -9 3 4 2 -1 4 -9 6 -5 -9 -13v-7l7 -3 14 11 10 -3v3l7 2 6 -2 5 -10 -5 -24 2 -5 8 -4 4 -5 -1 -23 4 -8 1 -11 -3 -17 -8 -19 3 -10 -1 -6 2 3h5l6 -8 26 28 8 13 16 17 29 18 28 6 1 4 6 5h19l22 -27 2 5 -11 24v9l4 6 9 3 -2 2 2 -3h-6l4 13 6 6 5 1 6 -8 8 -1 -11 8 -1 7 -17 3 -2 6 -5 5h-5l-2 -2 1 -2 -2 -1 -4 6 3 2 -15 1 -8 -3 -15 8 -14 16 -8 14 -3 8v16l-2 8 -14 -12 -23 -8 -28 -18 -13 -2 4 -2 -16 8 -15 15 -4 -2 4 -1 -5 -1 -2 -6 -8 -7h-10l-6 8 -3 9 1 5 12 8 10 -1 10 12 8 4 2 3 -6 5 -4 1 -9 -4 -3 3v-5h-3l-2 5 -7 4v9l-8 3 -3 6 -8 -3 -2 -7 1 -9zM659 58l2 -2 4 1 2 5 -4 4 -4 -4zM653 45v-1l2 2 -1 9 -4 -10zM957 29l-2 -5h-2l-2 4 2 7 -1 3 -5 1 -2 8 -7 -2 1 7 -10 10 -1 4 -5 -1v3l4 1v4l-4 4 -4 -1 1 5 -3 -4 1 5 -3 7 4 1 4 -9 6 -1 4 -9 10 -9 3 -10 5 2 6 -1 15 -18 13 -9 9 -1 1 -4 -2 -3 2 -4 -5 -2 -6 2 -12 17 -11 3zM878 110l5 -6 8 -2 5 -6 3 1 3 -7 -11 3 -7 -5 -4 2 -3 11 -10 14v3l-13 15 2 7 5 -1v5l1 -14 8 -4 1 -6h3v-7zM910 136l11 -9 -4 -3 -4 3 1 2 -7 1v4l2 -1zM888 154l3 -5 -6 1zM878 157l2 -2h-4z" fill="red" id="path2574"/>
        <path d="M613 358v-7l-4 -4 7 -8h5l7 -4 2 -16 -3 -5 3 -1 1 -7 6 5 4 -3 4 2 2 15 3 7 6 -3 -1 -4 2 -4 11 8 3 -2 4 -16 -4 -7 -6 6 -14 3 6 -26 17 12 9 -5 -3 31 3 14 4 11 4 -1 5 5 -6 7 -5 -1 -4 2 -2 -2 -14 10 -3 -2 1 -11 -5 1v-6l-11 7 -3 -2 -2 2 -7 -5 -3 3 -13 -1 -2 3z" id="path2576"/>
        <path d="M698 447l-7 -1 -2 13 -7 -2 -3 5 -7 -5 2 -3h-7l-11 -5 2 -6 -3 -5 2 -3 -8 -13 4 -11 4 -5 -2 -5 3 -4 -3 -5h4l-1 -19 4 -5 3 2 14 -10 2 2 4 -2 5 1 6 -7 7 12 -1 4 4 3 -2 5 7 5 2 14 -2 11 4 -5v5l2 2 -5 5 1 2 4 -3 -1 4h-3l-1 4 -2 1 4 -1 -5 3 2 3 -2 1h4l-6 7 4 2h-5l3 3h-3l2 2 -6 1v-3l1 4h-2v4l-1 -4z" id="path2578"/>
        <path d="M666 515l-4 1 1 5h-5l1 2 -5 -1 -1 -6h-9l-4 -5h-6l-1 -5 7 -1 3 -7v-5l7 -12 -5 -11 3 -1 2 -8 -5 -7h5l6 -5 11 5h7l-2 3 7 5 3 -5 7 2 2 -13 7 1 2 7 -5 -3 2 5 -4 4 2 5 -2 -2 -4 3 5 2 -4 6h4v3l-3 -2 2 5h-3l1 3h4l-3 1 3 3 -1 4 -4 -3 1 -2h-2l2 -1 -2 -2 -17 2 -2 4 3 1 -4 2h2l-5 10zM676 487l1 1h-2z" id="path2580"/>
        <path d="M656 449l-6 5h-5l-4 -2 -2 -4 -13 -4 -5 -5 -9 1 2 -9 5 -9 1 -23 -7 -7 -8 2 -3 -8 6 2 6 -8 4 -8v-8l-5 -6 4 1 2 -3 13 1 3 -3 7 5 2 -2 3 2 11 -7v6l5 -1 -1 11 -4 5 1 19h-4l3 5 -3 4 2 5 -4 5 -4 11 8 13 -2 3 3 5z" id="path2582"/>
        <path d="M612 440l9 -1 5 5 13 4 2 4 4 2 5 7 -2 8 -3 1 5 11 -7 12v5l-3 7 -7 1 1 5 -1 9 2 2 -3 4 -6 1 -3 -3 -3 1 -3 -4 -6 2 -7 -3 -2 -4 3 -9 -1 -7 9 -4 2 -4 -10 -6 1 -7 -9 -3 13 -22z" id="path2584"/>
        <path d="M661 580l-10 -5v5l-6 5 -10 -8 -1 -6 -6 -5 -12 -3 -25 16 -8 -2 1 -14 -5 -4 4 -7 -2 -4 1 -3h9l1 -4h8l-2 -8 9 -11 -3 -2 7 3 6 -2 3 4 3 -1 3 3 6 -1 3 -4 -2 -2 1 -9h6l4 5h9l1 6 5 1 -1 -2h5l-1 -5 4 -1 6 15v26l-2 17z" id="path2586"/>
        <path d="M611 630v0h-2l-2 -7 6 -3 2 -4 3 1 3 -5 11 -2 3 -7 -2 -11 3 -2 -2 -3 1 -10 10 8 6 -5v-5l10 5 -8 24 1 7 -3 6 2 11 5 8 -2 3 2 3 1 -5 7 13 -17 -13 -1 3 -17 5 -11 -6z" id="path2588"/>
        <path d="M607 623h-1l-2 -4h-9l-5 -7 6 -13 -8 -2 1 -9 3 -4 -3 -1 2 -4 25 -16 12 3 6 5 1 6 -1 10 2 3 -3 2 2 11 -3 7 -11 2 -3 5 -3 -1 -2 4z" id="path2590"/>
        <path d="M606 623l-11 1 -5 -4 -11 -2 -5 10 -16 9 -4 -2v-6l-3 -3h3l-2 -7 3 -2 -1 -6h-9l-3 -5 1 -7 5 -4 -1 -2 9 -3 12 -6v-3l3 -1 -1 -5 4 -1 2 -4 7 7 8 2 -2 4 3 1 -3 4 -1 9 8 2 -6 13 5 7h9z" id="path2592"/>
        <path d="M606 623h1l2 7h2v0l7 13v6l-7 -2 -1 2 -4 -1 -6 3v-3l-8 3 -4 -5 -15 -3 -4 2 -10 -3 -1 -5 16 -9 5 -10 11 2 5 4z" id="path2594"/>
        <path d="M617 658l2 -4 -1 -5v-6l-7 -13 9 9 11 6 17 -5 1 -3 17 13 1 3 -10 1 -11 10 -3 22 -13 4 -11 14 -7 -4 5 -2 -3 -2 2 -3 -1 -6 2 -4 -4 -5 3 -4 3 1v-4l6 -2 5 -7 -7 -7 -5 4z" id="path2596"/>
        <path d="M756 1183l2 4h-2zM618 815v5l-5 -6zM603 756l-2 2 -3 -2 3 -3zM581 746l2 2 -3 1zM588 740l-2 -2 2 -4zM592 717v-6l4 2v5zM618 649l1 5 -2 4 -6 -1 2 5h-4h4v3l-14 -7 -4 2 3 2h-1l-1 5 -3 -5 -14 -5 -5 -3 -5 -9 4 -2 15 3 4 5 8 -3v3l6 -3 4 1 1 -2z" id="path2598"/>
        <path d="M579 657l14 5 3 5 1 -5h1l-3 -2 4 -2 14 7 -4 4h-4l3 4 -3 -1v8l6 2 -5 5 2 2h-4l1 -4 -3 -5 -7 -2 -12 3 -3 3 1 6h-2l-7 -4 1 -12h-5l10 -9z" id="path2600"/>
        <path d="M510 589l-3 -11 -4 -3 14 -5 9 -7h7l15 -12 10 -15 5 -13 19 -13 1 3 -1 -2 7 -6 8 -29 9 3 -1 7 10 6 -2 4 -9 4 1 7 -3 9 2 4 3 2 -9 11 2 8h-8l-1 4h-9l-1 3 2 4 -4 7 5 4 -1 14 -7 -7 -2 4 -4 1 1 5 -3 1v3l-12 6v-7l-5 -4v-4l-3 -3 -7 2 -5 6v4l-4 -2 -8 5 -2 -2v-5l-7 -1v3zM539 522l-8 1 7 -9 -2 -3 -3 2v-5l4 -9 10 -8 -4 15 7 1 -4 9z" id="path2602"/>
        <path d="M501 612l-10 -4 -4 2v-2l-5 2 -3 -2 -9 11 -1 -4 -4 -2 -4 5 -1 -9 2 -7 -2 -4 3 -4 -2 -3 3 -2 2 -10 8 -3 -3 7 12 7 8 -4 2 -8 10 -3 4 3 3 11 -1 11 -3 1 1 3z" id="path2604"/>
        <path d="M470 567l-3 -3h7zM461 618l3 3 -5 10 -5 1 -5 -5 -10 -1 -6 -9 14 -14 12 -18 1 -11 -2 -4v-5l-3 -1 5 -13 25 -10 4 1 1 4 -6 1 -1 9 -4 -1 -7 7 -2 -3 -3 1 -2 9 6 2 3 -4v9l-8 3 -2 10 -3 2 2 3 -3 4 2 4 -2 7z" id="path2606"/>
        <path d="M433 617l6 9 10 1 5 5 5 -1 -2 6 5 8 -2 4h-13l-1 3 -7 -3 -5 8 -6 -2 1 8 -3 -1 -1 3 -5 3 -3 -2 -3 7 -4 -1 -2 4 -12 -2 -4 -6 2 -5 2 4 7 -3 -4 3 6 1 3 -3h-2l-1 -3 6 3 -1 -3 3 -1 -2 -3 8 1 -1 -6 3 -3v6l3 1 1 -7 -7 -13 9 -13v-4z" id="path2608"/>
        <path d="M533 659l-2 -5 3 -2 -3 -3 9 -11 6 5 6 -2 4 4 3 -3 10 3 5 9 5 3 -1 8 -10 9 -12 3 -5 -6 -3 8 1 7 -5 2 -4 -9 -6 -1 1 -11z" id="path2610"/>
        <path d="M556 590l-9 3 1 2 -5 4 -1 7 3 5h9l1 6 -3 2 2 7h-3l3 3v6l4 2 1 5 -3 3 -4 -4 -6 2 -6 -5 -9 11 3 3 -3 2 2 5 -4 5v12l-16 10 -8 -2 -5 3 -1 -6 2 -3 -1 -4h3l-2 -3 2 -4 -6 -6 2 -3 -5 -7 -7 -3 3 -5h5l6 -7 1 -4 -3 -4 5 -10 -3 -6 6 -8 -1 -3 3 -1 1 -11 5 -7v-3l7 1v5l2 2 8 -5 4 2v-4l5 -6 7 -2 3 3v4l5 4z" id="path2612"/>
        <path d="M501 612l3 6 -5 10 3 4 -1 4 -6 7h-5l-3 5 7 3 5 7 -2 3 6 6 -2 4 2 3h-3l1 4 -2 3 -6 4 -7 -4 -6 2 -5 -2 -6 -8 -10 3 -5 8v6l-7 -7 -6 2 -2 -2 3 -9v-3l-3 -7h-3l-2 -7 5 -8 7 3 1 -3h13l2 -4 -5 -8 2 -6 5 -10 -3 -3 4 -5 4 2 1 4 9 -11 3 2 5 -2v2l4 -2z" id="path2614"/>
        <path d="M568 674h5l-1 12 7 4 -3 5 5 6 -1 4 -7 10v5l-8 4 -5 -6 2 -14 -1 -3 1 -4 6 -1 -11 -6 -7 3 -3 4 1 3 -8 4 -3 9 -5 7 1 4 -13 -4 -25 -1v-8l8 -5 10 -20 16 -10v-12l4 -5 2 8 -1 11 6 1 4 9 5 -2 -1 -7 3 -8 5 6z" id="path2616"/>
        <path d="M495 719l-24 6 3 -5 2 2 9 -6 1 3 3 -3 -1 -3 -6 -3 -2 4 -8 -1 -4 -3 2 -8 -4 11 3 4h-2l-5 -3 2 -5 -3 -3v-5l4 -7 -6 3 -5 -7v-6l5 -8 10 -3 6 8 5 2 6 -2 7 4 6 -4 1 6 5 -3 8 2 -10 20 -8 5z" id="path2618"/>
        <path d="M418 778l-5 -3 -2 -7 1 1v-3h1l6 -3 -1 -3 6 -1v-3l-1 -7 2 -4 -2 -3 2 -1 -3 -5 9 -6 -10 -6 2 -3 -2 -2h2l-1 -4 -2 -4 4 -1 1 -6 7 3 6 -3 4 -10 -1 -9 6 -2 7 7 5 7 -6 2v4l-7 12v8l16 7 2 5 2 -2v5h-5h5l-1 6h-3l1 -1 -3 -2v2h-6l2 -3h-3l-3 5 -1 -2 -2 2 -2 -1v3l-2 -2 -8 3 -2 3 1 4h-3l1 -2 -3 3 4 3 -2 1 1 3 -3 -2 1 3 -7 4z" id="path2620"/>
        <path d="M434 657l2 7h3l3 7v3l-3 9 2 2 1 9 -4 10 -6 3 -7 -3 -1 6 -4 1 -4 -6h-4l-2 -10 2 -15 -4 -4 2 -4 4 1 3 -7 3 2 5 -3 1 -3 3 1 -1 -8z" id="path2622"/>
        <path d="M405 712l-2 -8 -4 -2v-2l-3 3 -9 -8 1 -6 -9 -2 -2 -6 -5 1 -7 -5v-6l6 1v-7v-2l-6 2 -3 -5 1 -4 2 3 -1 -3 17 -7 4 7 -8 6 2 2 3 -4 -1 4 5 1 -1 4 2 -2 2 1 -3 -5 7 -3 1 3 -2 5 4 6 12 2 4 4 -2 15 2 10h4l4 6 2 4 -2 1 -5 -3 -4 3z" id="path2624"/>
        <path d="M387 695l9 8 3 -3v2l4 2 2 8 -4 10 2 10 -2 4 -26 6 -3 -2 6 -2 7 -6 3 -10 3 3 -3 -9 3 -2 -2 -11 3 -1 -6 -2 -1 -5z" id="path2626"/>
        <path d="M360 744l-7 3 -1 -4 -3 1v-4l19 -19 1 3 -7 9 2 9zM333 713l1 -3 -4 -5 2 -3 -2 -7 8 -9v-5l6 -2v-5l-7 -17 9 -3 17 2 -1 4 3 5 6 -2v2v7l-6 -1v6l7 5 5 -1 2 6 9 2 -1 6h-2l1 5 6 2 -3 1 2 11 -3 2 -5 -1 -13 5 -15 -9h-14l-1 -3 -2 5 -3 -2z" id="path2628"/>
        <path d="M418 760l-4 2 -1 4h-1v3l-1 -1 -14 -2 2 -5 -4 -7 5 -7 4 -1 -3 -10 2 -4 -2 -10 4 -10 6 4 4 -3 5 3 2 -1 1 4h-2l2 2 -2 3 10 6 -9 6 3 5 -2 1 2 3 -2 4 1 7v3z" id="path2630"/>
        <path d="M411 768l2 7 5 3 -4 5 2 4 -9 5 -1 3h-1v-2l-16 -5 -6 -8 4 -3 -9 -4 -5 -6h-4l3 -5 -2 -1 5 -3 -4 -3 3 -2 -1 -2 5 -1 -8 -7 2 -3 3 2 26 -6 3 10 -4 1 -5 7 4 7 -2 5zM418 760l1 3 -6 3 1 -4z" id="path2632"/>
        <path d="M280 690l-7 -2 3 -5 -2 -4 8 -2 1 -9 -6 -8 3 -1 2 4 6 2 8 -4 11 2 21 -1 9 -5 7 17v5l-6 2 -12 4 -1 -7 -7 -2 1 -3 -10 6 -4 -4 -8 -2 -2 6 -3 1 1 3 -6 -1v4l-6 1z" id="path2634"/>
        <path d="M269 624l5 -2 -3 5 -3 -2 1 3 -3 -3zM275 626l-3 2v-4l3 -1 2 3zM279 615l5 -6 5 5 -1 4 -3 1 2 2h-5zM198 709l8 -2 14 -14 11 -6 6 -8 11 -5 2 -6 -2 -3 18 -5 6 -5 3 3h8l-3 1 -3 1 6 8 -1 9 -8 2 2 4 -3 5 -13 -2 -7 9 -6 3 3 4 -8 2 -6 -2 -2 3 -8 -2 -6 5 2 2 -2 6 -5 5 1 2 -3 2v4l-3 4 -2 -2 -5 2 -3 -4 2 -5h-5l-1 -4 3 -5z" id="path2636"/>
        <path d="M338 681v5l-8 9 2 7 -2 3 4 5 -1 3 -7 -1 3 2 -7 7 -9 -1 5 2 -2 4 -2 -1 -2 4 -5 -2 -2 3 -3 -6v4l-3 -5 -4 4 -6 -3 2 4 -4 -2 -4 -16 2 -4 -4 -6 1 -7 -2 -3 1 -3 6 -1v-4l6 1 -1 -3 3 -1 2 -6 8 2 4 4 10 -6 -1 3 7 2 1 7z" id="path2638"/>
        <path d="M287 726v2l-3 -2 3 3h-2l-2 4 -6 -2v-3l-9 2 -2 5h-13l-2 4 -6 3 -2 -2 -3 2 1 -3 -3 -6 1 -2h-8l-7 6 1 3 -6 -2v-6l-3 -2v-7l-1 -2 5 -5 2 -6 -2 -2 6 -5 8 2 2 -3 6 2 8 -2 -3 -4 6 -3 7 -9 13 2 7 2 2 3 -1 7 4 6 -2 4zM260 740l-3 2 -2 -2 5 -3zM236 740l-1 -4 3 1 -1 8h-3l1 -3 -4 -5zM229 734l1 2 -4 3zM249 744l-2 -2h4zM239 744h2l-2 3h3l-2 2 -5 -1 3 -6h2zM273 735l1 3 -3 -3zM271 736l-4 3 1 -3zM275 730l1 1 -3 2z" id="path2640"/>
        <path d="M198 709l1 6 -3 5 1 4h5l-2 5 3 4 5 -2 2 2 3 -4v-4l3 -2v7l3 2v6l6 2 -1 5h-2v8l-5 3 1 7 -4 -6h-5l-5 -6 -4 2 2 -3 -4 -3 -10 4 -4 -3 -2 3v-2l-2 2v-4l-2 5 -5 2 -2 -2 -2 2 -2 -5 -5 -4 -7 7v-7l-2 -4 4 -6 -3 -5 2 -4h7l-5 -2 2 -3 8 2 1 3h8l6 -2 -1 -3 11 -11 3 1zM217 763l-5 2 2 -4zM228 759l7 -2 -5 2v3l-4 -3 -5 3 -1 -5 2 -2zM171 724l-1 -2 5 1zM204 755h-3l3 -3z" id="path2642"/>
        <path d="M346 745l2 -1 -1 3zM338 745l7 -1v2l3 1 -4 9 7 7 -4 5 6 1 -19 11 -5 6 -5 -1 -3 -4 2 -3 -6 -1 -1 -9 -6 2 -13 -6 1 -8 10 -5 6 2 10 -6 12 2z" id="path2644"/>
        <path d="M298 756l-4 -2 3 -9 -5 -5 6 3 14 -10 7 3 4 -3 1 4 2 -2 3 2v3l9 5 -2 4 -12 -2 -10 6 -6 -2zM319 728l-1 -1h3zM333 723h2l-2 8 -3 -1 1 -2 -4 4 1 -4 -4 -2z" id="path2646"/>
        <path d="M243 757l-2 -1 4 -3zM264 742h-4l4 -6 3 3zM269 741l2 1 -2 1 -3 -1zM267 746l-3 2 1 -5 4 1zM242 821l-8 -2 1 3h-3l1 -5 4 1 -6 -5 2 -1 -2 -4h4l-4 -1 2 -2 -3 -2 4 3 4 -4 -1 -3h-3l2 -3h-8l3 -2 -2 -2 2 -5 -6 -1 -8 6 -7 1 34 -20 7 -18 8 -4 -1 -4 2 -1 9 14 10 -4 10 2 5 -4 4 2 -1 8 -25 4 -6 9 -4 10 -11 1 5 9 -6 3 -5 8 -4 -3 3 13z" id="path2648"/>
        <path d="M297 764l13 6 6 -2 1 9 6 1 -2 3 3 4 5 1 -7 19 -12 -16 -10 -3 -9 2 -1 -3 1 3 -12 4h6l-6 1 -1 3 -2 -3 -3 5 1 4 -2 6h-3l-4 8 -5 1v8l-3 3 3 7 -4 -5 -7 3 -5 -4 -4 2 2 -6 3 -1v-3h-3l2 -3 -3 -13 4 3 5 -8 6 -3 -5 -9 11 -1 4 -10 6 -9zM237 833l-2 2v-4z" id="path2650"/>
        <path d="M148 804l-8 -5 -2 4 -4 -1 -4 4v3l-5 -1v-5l-2 -3 1 -7 9 -5v-6l-6 2 -7 -6h-12l6 -4 -3 -3 6 -5 3 6 7 -1 2 -5 -4 2 -3 -3 5 1 4 -3 1 -8 10 -1 1 -3 6 1 -3 3 3 1 1 -3 4 2 7 -4 -4 8 2 2 -1 1 5 10 5 1 -1 7 -8 -1 -7 4 -4 6 2 5 -2 1 3 4z" id="path2652"/>
        <path d="M108 778h12l7 6 6 -2v6l-9 5 -1 7 -6 -5 -5 5 2 10 -7 -2 -7 -7 1 -5 -6 -2 -3 -6 2 -3 4 4 -2 -4 3 -4 -5 -3 2 -2 2 2v-6l1 2h5v4z" id="path2654"/>
        <path d="M81 700l3 -2 2 3 -4 3 2 4 -6 6 -1 4 3 -2 -3 4 3 -1 -3 4v-5l-2 3v-4l-2 3 -3 -1 3 -1v-4l2 -1 -2 -1 4 -3 -2 -3 2 -5 4 1zM75 727l-3 6 -6 1 3 -14 1 3 3 1 -1 -3 2 3 2 -1zM95 758l1 2 -4 2 -3 -5 2 1 -2 -3 3 -3 4 1 -2 3 3 1zM56 809l-3 5 2 -6 -4 -2 3 -1v-4h2l2 -9 -2 11 5 1 -2 3 -2 -2zM52 810h-3v-2l2 1 -1 -3zM47 812l1 -3v5l-4 -4zM35 817l3 -2 1 2 2 -3 3 10 -6 -1v4l-9 -3 1 -2 1 3 1 -2h-1l2 -2 -1 -7zM94 778l-3 2 2 -4zM96 781l2 2 -3 1zM58 786l2 -2 1 2zM83 775h-3l3 -2zM94 785l-2 3 3 6 6 2 -1 5 7 7 7 2 -7 6 13 1 2 5 -2 6 -10 5 -1 -6 4 -4 -1 -3h-5l-7 1 -3 6 -9 5 4 -5 -1 -2h3l2 -3 -3 1 -2 -6 -4 -1 -3 -6 3 -11 4 4 -1 3 1 -2 3 3 -2 7 11 3 -3 -6 1 -5 -4 -4 -3 2v-7l-4 1v-3l-3 4 2 -2 -4 -2 1 -4 -1 2 -4 -2 4 -5 -3 -1 1 -4 5 -1 1 3h5zM78 786l-1 5 -6 1 4 -2 -1 -2 2 -6 5 1 1 -4 1 4zM43 814l1 -3 2 3 -3 2zM92 799v4l-2 -4 2 -2z" id="path2656"/>
        <path d="M108 836h4v11l-8 9 -4 1v-6l4 -1 -5 -2 5 -9 -2 -3zM119 846h-6l-1 -4 6 -4h8l-4 8zM123 832l3 1 -1 4 -2 -1zM137 866l-5 -6 -9 4 -4 -4 12 -16 -2 -5 2 1 -1 -2 6 -6 -10 1 8 -6 1 -5 -9 -8 -1 -6 5 1v-3l4 -4 4 1 2 -4 8 5 7 5 2 -4 -1 -6 6 1 7 13v6l3 3 -3 1 -9 14 -5 2 -1 7 5 7 -4 5 3 5z" id="path2658"/>
        <path d="M148 804l3 -5 -3 -4 2 -1 -2 -5 4 -6 7 -4 8 1 1 -7 12 4 5 -7 9 4 2 6 -2 8 -4 -1 1 3 -8 2v4l4 2 17 -1 -6 9h5l-3 2 3 2 5 -2 1 3h-5l-2 4 10 4h-6l2 2 -4 3 4 1 -7 1v4h-2l1 -5 -5 -1 -3 4h-8l-4 -5 -6 1 -2 -2 -3 -3v-6l-7 -13 -6 -1 1 6 -2 4z" id="path2660"/>
        <path d="M172 822l2 2 6 -1 4 5h8l3 -4 5 1 -1 5h2l-11 10 -1 4 3 1 -4 1 -1 2 2 1 -5 8 -6 17 -3 23 -5 5 -2 12 -5 -2 -5 -5 2 -3v-7l-7 -1 -3 -9 -5 -2 2 -5 -6 -5 -5 -7 1 -2 21 -3 -3 -5 4 -5 -5 -7 1 -7 5 -2 9 -14z" id="path2662"/>
        <path d="M4 1148l-4 2v-5l9 -1zM21 1126v-8l4 -1v5l3 3 -1 3 -5 3 -2 -4zM82 1097l-2 2 -1 -3 6 -3zM64 1089l-13 9 3 2 -4 4 -3 -2 1 4 -5 -5 1 -2 -8 -3h7l2 -1 -5 -2 14 -5 2 2 3 -5h4l-2 3 2 -2 2 2 2 -6 1 6zM43 1107l-1 -2 -3 2 -1 -7 5 2 -2 3 6 1 -2 3v-2zM103 965l3 2h-3zM113 976l-1 -6 7 -4 9 6 -1 5 -6 4 -6 -1zM144 969v5l-6 1v-8l3 -3 2 -9 7 -10 1 9zM119 860l4 4 9 -4 5 6 -1 2 5 7 6 5 -2 5 5 2 3 9 7 1v7l-2 3 -3 -1 -5 6 5 3 -2 3h3l-6 3 -4 5 -16 8v-5l5 -3 4 -13 -5 -8v-6l-6 -2 5 -2 1 4h3l4 -6 -7 -5 -4 2 -6 13 2 11 5 3 -2 5 -6 1 -3 -6 -13 -1 1 -3 -3 -2 2 -1 -5 -5 9 1 4 -11 -3 -8 -5 -5 3 -7 -2 -11 4 -2 3 2zM112 853l2 -1 -1 2zM107 863l-2 -5 4 -3 2 5zM85 884l2 -3 1 2 -6 8 -2 -1zM93 880l-4 -3h6zM75 1012l-3 4v-3zM81 1001l2 -2 2 4z" id="path2664"/>
        <path d="M-321 1283l3 1 -2 1 -5 -1zM-276 1295l6 3 -4 6 -11 -5 2 -2 3 2 1 -7zM-198 1281l-1 -4 3 2zM-192 1287l-3 -2h2l-1 -3 2 -2 -1 -5 3 8 7 6zM-100 1198v5l-5 -5 3 -2zM143 1255l-1 -3h2zM-45 1183v-2l3 2zM-31 1187v2l-2 -2zM-252 1292l5 -6 1 2 -6 6v7h-6l-2 -2 2 -2 -3 -3 8 1zM-37 1195l3 -3 -5 -2v-6l6 1 1 4 6 -1 -1 -2 10 -10 3 4 -1 5 -5 6 -5 -1 -1 5 -5 -1 1 2 -7 5 -6 -1 4 9 -4 -2 -5 7 4 3 -10 4 -1 -8 7 -6 -2 -8 5 1z" id="path2666"/>
      </g>
    </g>
  </defs>
  <g id="g2668">
    <clipPath id="main">
      <path d="M512 0L1024 0L1024 1024L0 1024L0 512A512 512 0 0 0 512 0z" id="path2671"/>
    </clipPath>
    <use clip-path="url(#main)" x="0" y="0" xlink:href="#ground" id="use2673"/>
    <clipPath id="sub">
      <path d="M-384 1024L128 1024A512 512 0 0 1 -384 1536z" id="path2676"/>
    </clipPath>
    <use clip-path="url(#sub)" x="384" y="-1024" xlink:href="#ground" id="use2678"/>
  </g>
  <path d="M512 0A512 512 0 0 1 0 512" fill="none" stroke="white" stroke-width="16" id="path2680"/>
  <g id="g2682">
    <rect x="438" y="936" width="578" height="80" fill="white" opacity="0.5" id="rect2684"/>
    <rect x="446" y="992" width="562" height="16" fill="gray" id="rect2686"/>
    <text x="723" y="976" font-family="Helvetica" font-size="40" fill="gray" text-anchor="middle" id="text2688">1000km</text>
  </g>
  <path style="fill:#90ee90;fill-opacity:1" d="M 917.13772,89.245004 C 916.22318,89.013798 915.46054,88.810257 915.44297,88.792686 C 915.42539,88.775105 915.94888,87.508111 916.60628,85.977137 C 917.26368,84.446162 917.9111,82.923706 918.04499,82.593898 L 918.28844,81.994248 L 917.94618,80.295799 C 917.75795,79.361655 917.61468,78.540243 917.62782,78.470439 C 917.64096,78.400638 918.12895,78.985307 918.71225,79.769709 C 919.29555,80.55411 919.82957,81.219249 919.89897,81.247794 C 919.96837,81.276337 920.08681,81.238034 920.16217,81.162669 C 920.28595,81.038897 920.25536,80.80567 919.84584,78.75084 C 919.59649,77.4997 919.4071,76.4608 919.42498,76.44218 C 919.44286,76.423558 920.26426,76.610327 921.25032,76.857217 L 923.04316,77.306111 L 925.14238,75.214138 L 927.24161,73.122165 L 927.24161,70.974411 C 927.24161,68.831198 927.24119,68.826473 927.04273,68.741717 C 926.93335,68.695004 926.18758,68.494929 925.38545,68.297112 C 924.58333,68.099293 923.77789,67.898186 923.59559,67.850206 L 923.26413,67.762968 L 923.26413,66.573136 C 923.26413,65.680213 923.2917,65.383286 923.37462,65.383253 C 923.43538,65.383228 924.51156,65.588369 925.76612,65.839121 C 927.71812,66.229272 928.06386,66.277087 928.16309,66.170621 C 928.22687,66.102197 928.48804,65.191052 928.74347,64.14586 L 929.20788,62.245511 L 934.23515,57.205579 C 937.48429,53.948254 939.26251,52.103752 939.26266,51.990664 C 939.26278,51.894423 939.05926,50.391767 938.81037,48.651422 C 938.56148,46.911076 938.37282,45.472178 938.39113,45.453869 C 938.40943,45.435563 939.89978,45.841785 941.70301,46.356591 C 943.50623,46.871394 945.04139,47.269659 945.11446,47.241617 C 945.20714,47.206055 945.5477,45.988613 946.24036,43.216813 L 947.23339,39.242994 L 949.54557,38.786839 C 950.81728,38.535955 951.94286,38.295067 952.04687,38.251532 C 952.19607,38.189079 952.34788,37.8372 952.76634,36.583845 L 953.29672,34.995314 L 952.30198,31.517267 L 951.30724,28.03922 L 952.24542,26.158203 L 953.18359,24.277186 L 954.01051,24.302048 L 954.83744,24.326909 L 955.80826,26.755922 L 956.77909,29.184937 L 958.81259,31.727767 C 959.93101,33.126325 960.89907,34.270599 960.96383,34.270599 C 961.23311,34.270599 972.09952,31.258259 972.2028,31.154977 C 972.26476,31.093006 974.98247,27.264177 978.24213,22.646469 L 984.16879,14.250638 L 987.01574,13.300463 C 988.58156,12.777867 989.92417,12.350288 989.99931,12.350288 C 990.12651,12.350288 994.48361,14.067064 994.56632,14.149777 C 994.58698,14.170439 994.18393,15.02655 993.67063,16.052245 C 993.15734,17.077941 992.73737,17.958153 992.73737,18.008272 C 992.73737,18.058389 993.17852,18.759364 993.7177,19.56599 L 994.69803,21.032585 L 994.23869,22.873648 C 993.7967,24.645192 993.77053,24.716419 993.54562,24.759879 C 993.41707,24.784719 991.4226,25.011482 989.11345,25.263797 L 984.915,25.722552 L 978.38135,30.239642 L 971.84771,34.756734 L 964.35617,43.741806 C 958.35565,50.938615 956.81498,52.737105 956.61511,52.778274 C 956.47786,52.806545 955.16923,53.028357 953.70704,53.271191 L 951.04852,53.712712 L 948.62471,52.739593 C 947.27216,52.196564 946.10402,51.777349 945.98169,51.79108 C 945.77163,51.814657 945.69958,52.025314 944.25811,56.830022 L 942.75376,61.844359 L 937.75755,66.340712 L 932.76134,70.837069 L 930.7811,75.29643 L 928.80084,79.755796 L 925.922,80.228407 C 924.33864,80.488344 922.97902,80.733295 922.90064,80.772742 C 922.82225,80.812191 921.89149,82.8049 920.83228,85.20099 C 919.77308,87.597074 918.88262,89.581782 918.85349,89.611445 C 918.82436,89.641108 918.05226,89.47621 917.13772,89.245004 z" id="path2743"/>
  <path style="fill:#90ee90;fill-opacity:1" d="M 856.18123,139.56322 C 856.06321,139.3618 854.34572,133.1481 854.38196,133.05365 C 854.4058,132.99153 857.3127,129.60939 860.84174,125.53778 L 867.25818,118.13485 L 867.25818,116.62735 L 867.25818,115.11985 L 872.09175,108.34909 C 874.75021,104.62517 876.99992,101.47576 877.09111,101.35041 C 877.18533,101.22088 877.9,98.766062 878.74648,95.664337 C 879.56574,92.662357 880.24941,90.193958 880.26575,90.179009 C 880.44488,90.01515 883.92767,88.36549 884.01982,88.400854 C 884.08812,88.427065 885.65205,89.52564 887.4952,90.84213 C 889.33835,92.15862 890.91858,93.240021 891.00681,93.245245 C 891.09504,93.25047 893.4659,92.626734 896.2754,91.859168 C 899.08487,91.091604 901.40102,90.481057 901.42236,90.5024 C 901.45886,90.538912 898.93713,96.489537 898.84691,96.579755 C 898.82378,96.602883 898.1708,96.411834 897.39583,96.1552 C 896.62085,95.898565 895.94403,95.715017 895.89177,95.747312 C 895.82576,95.788114 891.30089,101.17497 890.89323,101.69809 C 890.87977,101.71535 889.20573,102.14484 887.17311,102.65251 C 885.1405,103.16019 883.33456,103.61327 883.15992,103.65935 C 882.88488,103.73194 882.50638,104.14711 880.33149,106.76186 L 877.82059,109.78056 L 875.87605,111.23698 C 874.80655,112.038 873.88178,112.75563 873.82102,112.8317 C 873.73696,112.93693 873.71053,113.77992 873.71053,116.35607 L 873.71053,119.74213 L 872.26158,119.74213 C 871.01537,119.74213 870.80504,119.7619 870.7584,119.88344 C 870.72858,119.96117 870.505,121.22402 870.26157,122.68977 C 870.01814,124.15554 869.79573,125.46756 869.76733,125.60539 C 869.71979,125.83614 869.40662,126.00969 865.81319,127.79655 C 863.66682,128.86386 861.8657,129.78523 861.81071,129.84405 C 861.74866,129.91042 861.60583,131.47664 861.43419,133.97265 C 861.28208,136.18457 861.13702,138.15458 861.11183,138.35045 L 861.06602,138.70657 L 858.70412,139.17171 C 856.15577,139.67357 856.23838,139.66075 856.18123,139.56322 L 856.18123,139.56322 z" id="path2745"/>
  <path style="fill:#90ee90;fill-opacity:1" d="M 910.09946,135.40897 C 910.07884,135.37251 909.87335,134.773 909.64284,134.07673 C 909.39381,133.32455 909.16891,132.78977 909.08868,132.75898 C 909.01442,132.73048 908.58115,132.8922 908.12588,133.11836 L 907.2981,133.52955 L 907.2981,131.89663 C 907.2981,130.27527 907.29951,130.2634 907.49698,130.21945 C 907.60636,130.19511 909.12774,129.97301 910.87783,129.7259 C 913.01016,129.42482 914.1025,129.23478 914.1892,129.14979 C 914.30252,129.03873 914.25916,128.9025 913.84023,128.05345 C 913.57713,127.52022 913.37969,127.06886 913.40148,127.05045 C 913.42327,127.03203 914.24259,126.41648 915.22219,125.68256 L 917.00329,124.34817 L 918.77712,125.67734 L 920.55095,127.0065 L 915.37554,131.24088 C 912.52906,133.56979 910.18592,135.47526 910.16854,135.47526 C 910.15117,135.47526 910.12009,135.44543 910.09946,135.40897 z" id="path2747"/>
  <path style="fill:#90ee90;fill-opacity:1" d="M 877.33453,155.93722 L 876.67596,155.27425 L 877.97748,155.27425 C 878.69332,155.27425 879.279,155.28519 879.279,155.29856 C 879.279,155.31193 878.98967,155.61027 878.63603,155.96154 L 877.99307,156.60021 L 877.33453,155.93722 z" id="path2749"/>
  <path style="fill:#90ee90;fill-opacity:1" d="M 886.7525,151.86326 C 886.08068,150.96508 885.54626,150.21806 885.56489,150.20322 C 885.61051,150.16689 890.41593,149.37583 890.41593,149.40464 C 890.41593,149.41712 889.86649,150.34285 889.19496,151.46183 L 887.97399,153.49633 L 886.7525,151.86326 z" id="path2751"/>
</svg>