<?xml version="1.0" encoding="UTF-8" standalone="no"?>
<svg
   clip-rule="evenodd"
   fill-rule="evenodd"
   height="252.30768"
   image-rendering="optimizeQuality"
   shape-rendering="geometricPrecision"
   text-rendering="geometricPrecision"
   viewBox="0 0 44504.275 66756.399"
   width="168.20512"
   version="1.1"
   id="svg228"
   sodipodi:docname="Seal of Guam.svg"
   xml:space="preserve"
   inkscape:version="1.2-beta (1b65182c, 2022-04-05)"
   xmlns:inkscape="http://www.inkscape.org/namespaces/inkscape"
   xmlns:sodipodi="http://sodipodi.sourceforge.net/DTD/sodipodi-0.dtd"
   xmlns="http://www.w3.org/2000/svg"
   xmlns:svg="http://www.w3.org/2000/svg"><defs
     id="defs232" /><sodipodi:namedview
     id="namedview230"
     pagecolor="#ffffff"
     bordercolor="#666666"
     borderopacity="1.0"
     inkscape:pageshadow="2"
     inkscape:pageopacity="0.0"
     inkscape:pagecheckerboard="0"
     inkscape:deskcolor="#d1d1d1"
     showgrid="false"
     inkscape:zoom="0.96666671"
     inkscape:cx="190.86206"
     inkscape:cy="142.75861"
     inkscape:window-width="1920"
     inkscape:window-height="1080"
     inkscape:window-x="358"
     inkscape:window-y="174"
     inkscape:window-maximized="0"
     inkscape:current-layer="g5959"
     showguides="false" /><g
     id="g5959"
     transform="matrix(0.10950854,0,0,0.10950854,-86227.022,-22252.135)"><g
       id="g649"
       transform="matrix(10.627884,0,0,9.7321046,-162304.63,-58489.583)"
       style="stroke:#000000;stroke-width:118.784;stroke-dasharray:none;stroke-opacity:1"><g
         stroke-width="1"
         id="g208"
         transform="translate(0,0.005)"
         style="stroke:#000000;stroke-width:118.784;stroke-dasharray:none;stroke-opacity:1"><path
           d="m 108537.17,28617.296 c 0,0 -18122.533,14420.028 -18122.533,29399.058 0,14981.029 18122.543,29783.057 18122.543,29783.057 0,0 18006.53,-13724.025 18006.53,-29783.057 0,-16057.03 -18006.54,-29399.058 -18006.54,-29399.058 z"
           fill="#92dbfc"
           id="path186"
           style="display:inline;stroke:none;stroke-width:118.784;stroke-dasharray:none;stroke-opacity:1" /><path
           style="display:inline;fill:#008ce7;fill-opacity:1;stroke:#000000;stroke-width:52.9167;stroke-linecap:round;stroke-linejoin:round;stroke-miterlimit:33;stroke-dasharray:none;stroke-opacity:1;paint-order:markers fill stroke"
           d="m 89788.398,65170.105 37590.792,-1.059 -4952.7,8426.281 -7679.63,8443.912 -6200.26,5127.588 -7150.59,-6302.166 -9451.482,-11650.083 z"
           id="path6264"
           transform="matrix(0.85922217,0,0,0.9383082,15271.585,6009.9574)" /><path
           d="m 124781.68,63890.343 c -2794,1999.002 -18515.02,1039 -18515.02,1039 l -879,2238.004 18719.02,57.999 c 78,-306.998 265,-672 330,-982.002 z"
           fill="#9c8431"
           id="path190"
           style="fill:#cccccc;fill-opacity:1;stroke:#000000;stroke-width:47.5136;stroke-dasharray:none;stroke-opacity:1" /><path
           d="m 96651.642,73153.356 c 796.01,26.008 1589.01,193.997 2301.011,576 1272.997,668 2010.997,662.999 3382.997,683.999 1436.01,21.987 2563.01,1079.003 4115.01,1123.003 2859,80 4061,1500.001 1838,1499.001 -1050,-1.059 -3301,-706.001 -4389,-558.001 -1654.01,168 -2610,294.002 -3834.01,1267.003 -1165.997,-1400.001 -2331.998,-2940.004 -3414.008,-4591.005 z m 5656.008,7128.008 c 709.01,-485.002 1197.01,-864.002 1885.01,-885.002 1337,-41 1793,-868 3338,-867 1756,322 4136.01,-211 5529.01,-520.002 2473,-570 1300,-2300.004 -197,-2928.003 -1210,-518.001 -3478.01,-26.009 -4885.01,-540.001 -1065,-416 -187,-1079.001 386,-1220.001 578,-106 1198,85 1917,201.999 1284,113.001 2897.01,-7.011 4025.01,-182 2331,-356.998 2235,-1041 3360,-1057.002 821,-38 1446.01,-281.998 2006,-682.001 658.01,-439 1343.01,-1340.002 2139.01,-1304 l 468,20.003 c -4916.01,9510.012 -13745.02,15753.018 -13745.02,15753.018 0,0 -2853,-2184.001 -6226.01,-5790.005 z"
           fill="#ffde52"
           id="path192"
           style="stroke:#000000;stroke-width:47.5136;stroke-dasharray:none;stroke-opacity:1" /><path
           d="m 113608.67,73315.355 c 305,1180.003 628,1581.003 1868,1884.001 1224,303.001 3094,-887 1935,-2042.003 -1103,-1074 -2265,-1349 -3253,-2316.003 -1533,-1520 -3636.01,-4662.006 -4635.01,-7633.01 -1093,-3248.003 -903,-12392.016 -854,-17024.022 1.01,-54 133,-86 148,-108 71,-102 139,33 28,-646 -29,-174 -167,-354 -166,-530 1.01,-314.002 -1084,343 -1370,903 -65,128 208,493 208,565 37,4444.006 -441,13218.017 739,17190.024 730,2459.003 2062,4358.006 3268.01,6115.007 723,1126.001 1769,2341.003 2084,3642.006 z"
           fill="#8c4200"
           id="path194"
           style="stroke:#000000;stroke-width:47.5136;stroke-dasharray:none;stroke-opacity:1" /><g
           fill-rule="nonzero"
           id="g204"
           style="stroke:#000000;stroke-width:118.784;stroke-dasharray:none;stroke-opacity:1"><g
             fill="#bd0728"
             id="g202"
             style="stroke:#000000;stroke-width:118.784;stroke-dasharray:none;stroke-opacity:1"><path
               d="m 100058.65,60119.336 c -541.996,-62 -1029.996,-302.001 -1323.997,-652 -248,-294 -408,-682 -461,-1118.003 -17,-143.999 -16,-484 2.01,-621.998 62,-475.002 250,-918.002 519,-1223.003 459,-521 1411.997,-731.003 2185.997,-481 488,156.999 778,454.999 943,966 23,71 40,131 38,134 -6,3.996 -422,117.002 -453,123 -18,2.99 -27,-13.997 -54,-93.999 -77,-226.002 -194,-414.001 -324,-518.001 -284,-226 -684,-309 -1152.996,-238.001 -300,46 -598,200.002 -769,398 -257.001,297.003 -384.001,661 -400.001,1142.003 -15,476 71,839 270,1139 323,488 1074.997,706.002 1743.997,506 214,-64 447,-174.997 611,-292 l 76,-53.998 1.01,-385 v -386.002 l -604.01,-1.058 -605,-1.058 1.01,-236.001 v -236 l 864,2.116 864,1.059 -2.01,752.001 -1,752 -95,70 c -389,286.002 -779.01,459.003 -1196.01,533.001 -154,27.001 -522,37 -678,18.997 z m 4787.01,36.999 c -392,-43 -697,-169 -913,-379 -197,-191 -310,-428 -369,-772.998 -42,-248.003 -45,-376.003 -43,-1696.005 l 2.01,-1293.001 265,1.059 h 264 l 2.01,1379 c 2.01,1467.002 1,1443.002 57,1664.004 71,282 281,491 581,578 240,70 564,71 837,2.99 324,-81 498,-255 586,-585.001 68,-253 67,-229 74,-1690.002 l 7,-1345.001 265,1.058 h 264 l -3,1247 c -1,718 -7,1317.001 -14,1413.003 -45,632 -209,974 -592,1233 -151,103 -356,181 -582,223 -98,17.992 -576,31.001 -688,18.997 z m 4474,-113.998 c 13,-33.002 366,-948.002 785,-2034.004 l 763,-1974.002 286,-2.117 287,-2.99 822.01,2020.003 c 452,1111.002 825,2029.003 829,2040.004 7,18.998 -11,20.003 -292,20.003 l -300,-1.058 -52,-135.001 c -29,-74 -134,-351 -235,-614 l -183,-478.003 -862,-3.995 -862.01,-5 -224,616 -224,616.001 -281,-1.059 h -280 z m 2534,-1625.003 c -3,-11.007 -121,-326 -261,-700.001 -140,-374 -298,-808 -350,-966.002 -52,-157 -97,-288 -99,-291 -3,-2.99 -23,66 -44,153.001 -69,289 -135,487 -381,1137.003 -133,354.999 -246,654 -250,664.998 -8,18.997 30,20.003 691,21.008 660,1.06 699,0 694,-18.997 z m 3112.01,-354 4,-2039.001 400,3.995 399,3.995 540,1625.003 c 297,893 557,1680.002 577,1749.003 21.01,68 40,121.999 43,119.999 2.12,-2.99 69,-196.001 148,-430.001 80,-233 350,-1017.001 601,-1742.003 l 457,-1318.001 358,-2.116 358,-2.117 -3.99,2038.002 -3.99,2039.004 -253,-1.058 h -253 l 2.99,-1713.003 c 2.11,-942.002 -1.06,-1707.003 -7.02,-1701.002 -5,6.006 -256,718 -557,1582.003 -301,864 -568,1629 -593,1700 l -46,129.002 h -478 l -582,-1726.003 c -320,-949 -586,-1733.003 -591,-1743.002 -5,-8.996 -11,767.001 -13,1725.003 l -4,1741.001 h -253 l -253,-1.058 z"
               id="path200"
               style="display:none;stroke:none;stroke-width:118.784;stroke-dasharray:none;stroke-opacity:1"
               inkscape:label="GUAM" /></g></g><path
           d="m 97273.642,44871.316 c 77,106.001 66,563.001 66,563.001 63,38 1085.01,-870.001 1085.01,-829.001 1,191.001 24,585.001 24,585.001 0,0 1058.001,-1006.001 1102.001,-900.001 49,119 -4,702.001 -4,702.001 0,0 703.997,-776.001 832.997,-916.001 93,-100 78,126 87,491 2.01,65 1154,-850 1224,-866 149,-32 195,475 187,602 -6,94 1063,-610 1016,-517 l 79,541 c 298,-41 1008.01,-306 1435.01,-237 137,22 130,91 8,141 -2058.01,833.001 -3641.01,2089.002 -4563.006,3839.005 -314,596 -410,1116.001 -327,1247.001 0,0 370,-796 786.996,-921 56,-16 93,510 150,480 0,0 316,-798.002 544,-1092.002 61,-79 163,419.001 228,345.001 0,0 164,-534.001 485,-906.001 46,-53 129,505 180,458 333,-307 646,-1077 771,-1134 87,-68 102,640 185,579 0,0 475.01,-954.002 759.01,-1127.002 182,-112 175,521 175,521 362,-357 761,-949 950,-1206 87,-118 39,780 132,815 119,46 899,-688 987,-703 58,-10.002 126,209 -26,385 -12,13.999 -964,1112.001 -964,1112.001 185,35 257,-17 390,18 395,104 -740,755.001 -721,877.001 0,0 547,-10.002 364,96 -132,77 -855,1008 -855,975.002 0,-17 363,8 361,112 -3,193 -601,1188 -607,1182 -33,-33 321,-43 369,55 88,181.002 -614.01,986.002 -477.01,1123.002 19,19 401,6.001 571,44 82,18 312,1462.002 254,1404.002 -12.99,-13.999 246.01,-1354.001 403.01,-1762.002 96,-247 403,373 428,318 -13,0 -62,-881.001 -19,-1282.001 12,-112 233,117 230,10.002 -8,-243.002 -28,-503.002 22,-740.002 38,-179 226,323 299,188 0,0 -228,-872 -133,-1118 63,-162.002 215,392 315,414 0,0 -56,-678.002 49,-853.002 l 317,340.001 c 69,-109 56,-1165.001 120,-1264.001 53,-83 382,396 431,321 44,-68 -139,-852.002 -98,-914.002 58,-89 419,218 426,212.001 147,-148 142,-517.001 204,-654.001 166,-371 1118,-419 1230,-155 55,128 17,293 -5,492 9,8.001 477,42 481,6.001 0,0 -56,437 -23,918.002 5,64 475,-16 481,48 43,453 -61,495 -61,495 4,33 317,-48 322,-12.999 34,221 -37,490 -177,749 -21,37.002 448,-36 455,7.002 57,340 68,610.001 9,1090.001 -5,39 459,-339 466,-300 70,404 -10.99,840 31,1258.001 10.01,97.001 307,-289 334,-177 27,110 -66,910.001 -21,955.001 0,0 497.01,-25 541.01,17 394,370 319,1016.001 319,1016.001 108,-80 67,-858 -42,-1570.002 -12,-75 382,-46 370,-116 0,0 -432,-260 -574,-984.002 -30,-155 417,-123 417,-123 -124,-285 -342,-339 -527,-613 -60,-90 464,-131 464,-157 1,-273 -442,-403 -671,-687 -98,-121 478,-127.002 478,-127.002 -169,-235 -726,-338 -1010,-649 -155,-169 565,-335 556,-364 -79,-249 -756,-327 -1084.01,-608.002 -68,-58 428,-254 428,-254 -50,-106 -1131,-817 -581,-752 232,28 703,358 740,308 0,0 -20,-415 28,-465 181,-188.002 805.01,798 1017.01,758 0,0 78,-706 174,-725 228,-43 506,1028 731,1028 30,0 47,-619 163,-653 131,-38 278,694 444,856.001 154,149 156,-572.001 246,-435.001 153,221 190,682.001 399,885.002 136,132 161,-636.002 312,-533.002 175,119.001 134,517.002 331,713.002 94,93 157,-507 264,-419 95,77 159,811 261,927 130,148 280,-387 415,-302 97,62 74,697 164,833 184,282.002 280,-341 402,-245 85,65 269,795.002 346,853.002 171,130 265,-332 395,-267 94,46 284,986 362,962 51,-15.999 177,-2142.002 -641,-3039.004 -1333,-1462.002 -3720,-2306.002 -5668,-2327.002 0,0 979,-195 1005,-357 52,-323 538,-285 877,-211 60,12.999 28,-571.002 36,-574.002 303,-7 574,172 864,348 90,55 -183,-585 -87,-530 372,215 786,278 1037,539 66,69.002 -76,-493 -76,-493 186,-45 553,223 697,474 70,124.002 -4,-655 51,-517 0,0 648,220 718,493 0,0 53,-494 140,-468 260,68 488,507 691,570 0,0 -84,-440 -17.99,-423 488,123 1018,425 1017,423 -275,-688 -1318,-1409.001 -3153,-1602.002 -337,-34.999 -1704,-91 -2863.01,178.002 -950,220 -1700,345 -1546,195 628,-615.002 1643,-690.002 1922,-833.002 200,-102 -673,-439 -500,-487 172,-41 952,-106 952,-106 169,-132 -567,-390.001 -457,-582.002 220,-385 1521.01,-35 1632.01,-181 36,-49 -559,-401 -534,-453 95,-195 1253,144 1280,-26 0,0 -351,-262 -601,-477.001 -30,-26 1034,-312 1034,-312 -20,-20 -182,-134 -426,-229 -223,-87 934,-388 934,-388 -1466,-670.002 -5271.01,1236 -6026.01,3214.003 -196,472 -202,-41 -161,-441.001 39,-430 93,-807 47,-1202.002 -14,-117 -311,311.001 -331,197.001 -76,-420 149,-881.001 46,-1347.001 -34,-157 -428,463 -480,306 -144,-431 108,-1037.002 6,-1631.002 -40,-232 -413,497 -538,289 -146,-241 -82,-1134.002 -151,-1269.002 -56,-108 -388,428 -416,327 -450,-1637.002 148,-1841.002 -716,-918 -30,32 -222,-968.002 -255,-934.002 -354,758.002 -934,-540 -1132,-419 -148,92 404,594 410,820 3,109 -508,116 -508,116 11,187 972,711.002 1003,916.002 25,169 -680,127 -680,127 22,229 823,447 867,690.002 25,134 -375,164 -362,300 21,209 774,622 799,835.001 17,148 -481,209 -493,347 -15,167 1000,727.001 1001,884.001 1,222 -404,108 -588,220 -259,157.001 831,793.001 877,974.002 36,159 -436,19 -452,164 -20,190 534,477.001 661,803.001 127,322 -3,404 -185,276 -365,-257 -1837,-1821.002 -2228,-2238.003 -568,-606 -1731.01,-1285 -2891.01,-1325 -121,37 624,564 629,755 1.01,49 -335,122 -320,137 206,206 847,451 847,451 l -184,331.001 c 43,97 347,123 834,283 0,0 -365,226 -338,247 258,206 758.01,358 758.01,358 l -492,165 c -29,95 1107,550.002 1107,550.002 0,0 -355,306 -339,322 87,87 922,280 922,280 14,14 -590,202 -586,206 219,219 823,290.001 964,652.002 0,0 83,206 -156,167 -940,-341 -2396.01,-1047.001 -5219.01,-770.001 -2886.007,376.001 -5085.009,2885.003 -5047.009,3135.004 0,0 1032,-740.001 1141.001,-590 z"
           fill="#109421"
           id="path206"
           style="display:inline;stroke:#000000;stroke-width:47.5136;stroke-dasharray:none;stroke-opacity:1" /></g><g
         fill="#8c4200"
         transform="translate(201503.02,49556.3)"
         id="g216"
         style="stroke:#000000;stroke-width:118.784;stroke-dasharray:none;stroke-opacity:1" /><g
         stroke-width="1"
         id="g226"
         transform="translate(0,0.005)"
         style="stroke:#000000;stroke-width:118.784;stroke-dasharray:none;stroke-opacity:1"><path
           id="path218"
           style="fill:#8c4200;fill-opacity:1;stroke:#000000;stroke-width:47.5136;stroke-dasharray:none;stroke-opacity:1"
           d="m 103401.92,63123.946 -134.1,7118.095 c -160.01,5.861 -321.91,18.739 -480.42,22.79 -2734.82,69.891 -5183.876,-116.372 -5183.876,-116.372 0,0 -249.98,-51.137 -249.98,-44.125 0,82 97.154,312.038 300.154,528.039 818.998,757.997 2379.112,689.875 2422.102,757.873 44.01,69.001 129.99,540.983 11.99,577.982 -118.006,37.002 -571.005,0 -571.005,0 523.005,733 2996.155,681.167 3746.155,652.169 2285,-87 2371.93,-738.963 2371.93,-738.963 l -186.04,36.851 c -186,37.999 -565.11,56.174 -578.11,-117.827 -12,-174 137.2,-509.128 137.2,-509.128 621,-112.001 1751.76,-223.781 2198.76,-744.782 447,-521.998 135.87,-733.144 135.87,-733.144 -832.88,178.859 -1783.86,294.26 -2757.78,365.602 -279.88,20.503 -560.01,26.546 -841.41,40.246 l -141.19,-7095.306 c -66.77,-56.838 -133.48,-99.687 -200.25,0 z m -3078.8,8247.875 c 0,0 1922.64,224.873 4135.11,0 0,0 58.2,383.485 -43.07,529.493 -101.24,146.006 -2653.42,257.961 -3940.63,53.337 -207.17,-60.75 -214.26,-292.947 -151.41,-582.83 z" /><path
           d="m 98698.666,69655.469 c 0,0 1912.214,-2620.642 1299.052,-7153.139 2956.012,1796.474 5466.852,4503.156 6150.162,7018.138 -2681.47,-677.209 -5048.45,-209.621 -7449.214,135.001 z"
           fill="#fdf9ff"
           id="path222"
           sodipodi:nodetypes="cccc"
           style="stroke:#000000;stroke-width:47.5136;stroke-dasharray:none;stroke-opacity:1" /><path
           d="m 108540.72,26889.305 c 0,0 -19181.012,14279.009 -19181.012,31116.021 0,16839.012 19181.012,31522.022 19181.012,31522.022 0,0 19058.02,-13472.01 19058.02,-31522.022 0,-18049.013 -19058.02,-31116.021 -19058.02,-31116.021 z m -7,3456.003 c 0,0 -17064.012,12703.007 -17064.012,27682.018 0,14981.012 17064.012,28044.022 17064.012,28044.022 0,0 16955.02,-11985.01 16955.02,-28044.022 0,-16057.011 -16955.02,-27682.018 -16955.02,-27682.018 z"
           fill="#c62139"
           id="path224"
           style="stroke:none;stroke-width:118.784;stroke-dasharray:none;stroke-opacity:1" /></g></g><circle
       style="display:inline;fill:#8c4200;fill-opacity:1;stroke:#000000;stroke-width:396.875;stroke-linecap:round;stroke-linejoin:round;stroke-miterlimit:33;stroke-dasharray:none;stroke-opacity:1;paint-order:markers fill stroke"
       id="path4248-0"
       cx="981239.19"
       cy="377989.19"
       r="7253.2324" /><circle
       style="display:inline;fill:#8c4200;fill-opacity:1;stroke:#000000;stroke-width:396.875;stroke-linecap:round;stroke-linejoin:round;stroke-miterlimit:33;stroke-dasharray:none;stroke-opacity:1;paint-order:markers fill stroke"
       id="path4248"
       cx="980555"
       cy="389895.44"
       r="7253.2324" /><circle
       style="display:inline;fill:#8c4200;fill-opacity:1;stroke:#000000;stroke-width:396.875;stroke-linecap:round;stroke-linejoin:round;stroke-miterlimit:33;stroke-dasharray:none;stroke-opacity:1;paint-order:markers fill stroke"
       id="path4248-9"
       cx="990545.19"
       cy="375252.12"
       r="7253.2324" /><circle
       style="display:inline;fill:#8c4200;fill-opacity:1;stroke:#000000;stroke-width:396.875;stroke-linecap:round;stroke-linejoin:round;stroke-miterlimit:33;stroke-dasharray:none;stroke-opacity:1;paint-order:markers fill stroke"
       id="path4248-8"
       cx="991640"
       cy="385379.28"
       r="7253.2324" /><g
       aria-label="U"
       transform="scale(0.88564255,1.1291237)"
       id="text5545"
       style="font-weight:bold;font-size:66606.7px;font-family:Copperplate;-inkscape-font-specification:'Copperplate Bold';fill:#bd0728;stroke:#000000;stroke-width:483.22;stroke-linecap:round;stroke-linejoin:round;stroke-miterlimit:33;paint-order:markers fill stroke"><path
         d="m 1086560.7,433239.33 q 0,-466.25 -333,-732.68 -266.5,-333.03 -1532,-466.25 v -799.28 h 13721 v 799.28 q -1265.5,133.22 -1598.6,466.25 -266.4,266.43 -266.4,732.68 v 17850.59 q 0,4396.04 -1465.3,7393.35 -1398.8,2997.3 -3929.8,4795.68 -2464.5,1798.38 -5861.4,2531.05 -3330.4,666.07 -7126.9,666.07 -3796.6,0 -7193.6,-666.07 -3330.3,-732.67 -5861.4,-2531.05 -2464.4,-1798.38 -3929.8,-4795.68 -1398.7,-2997.31 -1398.7,-7393.35 v -17850.59 q 0,-466.25 -333,-732.68 -266.5,-333.03 -1532,-466.25 v -799.28 h 13721 v 799.28 q -1265.5,133.22 -1598.6,466.25 -266.4,266.43 -266.4,732.68 v 17850.59 q 0,3863.19 2198,5528.36 2198.1,1665.17 6194.5,1665.17 3996.4,0 6194.4,-1665.17 2198,-1665.17 2198,-5528.36 z"
         id="path6656" /></g><g
       aria-label="A"
       transform="scale(0.94214886,1.0614034)"
       id="text5599"
       style="font-weight:bold;font-size:71260.5px;font-family:Copperplate;-inkscape-font-specification:'Copperplate Bold';fill:#bd0728;stroke:#000000;stroke-width:483.22;stroke-linecap:round;stroke-linejoin:round;stroke-miterlimit:33;paint-order:markers fill stroke"><path
         d="m 1071222.7,494670.74 q 0,356.3 213.8,570.08 285,142.52 1068.9,142.52 v 855.13 h -12613.1 v -855.13 q 783.9,-142.52 1140.2,-427.56 356.3,-356.3 712.6,-1211.43 142.5,-356.3 712.6,-1924.03 570.1,-1567.73 1496.5,-3919.33 926.3,-2422.86 2066.5,-5344.54 1140.2,-2921.68 2280.3,-5914.62 1140.2,-3064.2 2209.1,-5914.62 1140.2,-2921.68 1995.3,-5202.02 855.1,-2280.33 1354,-3705.54 570,-1425.21 570,-1496.47 0,-356.31 -498.8,-498.83 -427.5,-142.52 -926.4,-213.78 v -855.12 h 18599 v 855.12 q -570.1,71.26 -926.4,213.78 -356.3,142.52 -356.3,712.61 0,142.52 641.4,1852.77 712.6,1710.25 1781.5,4489.41 1068.9,2707.9 2422.9,6199.67 1425.2,3420.5 2921.6,7054.79 1496.5,3563.02 2850.5,6983.52 1425.2,3420.51 2565.3,6128.41 570.1,1282.69 926.4,1710.25 427.6,427.56 1068.9,427.56 v 855.13 h -14038.3 v -855.13 q 1354,-71.26 1354,-855.12 0,-71.26 -356.3,-926.39 -356.3,-926.39 -783.9,-1995.29 -427.6,-1140.17 -855.1,-2137.82 -356.3,-997.65 -427.6,-1353.95 h -16888.7 q -712.6,1924.04 -1140.2,3135.46 -427.6,1211.43 -712.6,1924.04 -213.8,712.6 -356.3,1068.9 -71.3,285.05 -71.3,427.57 z m 17316.3,-12256.81 -6912.2,-16960 -6342.2,16960 z"
         id="path6653" /></g><g
       aria-label="G"
       transform="scale(0.9177877,1.0895766)"
       id="text5135"
       style="font-weight:bold;font-size:68250.2px;font-family:'Adobe Gothic Std';-inkscape-font-specification:'Adobe Gothic Std Bold';fill:#bd0728;stroke:#000000;stroke-width:483.22;stroke-linecap:round;stroke-linejoin:round;stroke-miterlimit:33;paint-order:markers fill stroke"><path
         d="m 984970.27,470166.68 q -546,0 -750.75,409.5 -204.76,341.25 -273.01,955.5 h -819 v -9555.02 h 819 q 136.5,1228.5 1023.76,1228.5 h 20133.83 v 819 q -1092,68.25 -1092,1160.26 v 11329.53 q 0,477.75 136.5,819 136.5,341.25 682.5,341.25 h 341.2 v 819 q -9282,4914.02 -21976.54,4914.02 -4299.76,0 -8326.52,-1023.75 -3958.51,-1092.01 -7029.77,-3344.26 -3071.26,-2252.26 -4982.27,-5664.77 -1842.75,-3480.76 -1842.75,-8121.77 0,-4641.02 1842.75,-8053.53 1911.01,-3480.76 4982.27,-5733.02 3071.26,-2320.5 7029.77,-3412.51 4026.76,-1160.25 8326.52,-1160.25 1706.26,0 3003.01,68.25 1296.75,68.25 2525.26,273 1228.5,204.75 2525.26,546 1296.75,273 3071.26,750.76 1706.25,477.75 3139.5,1160.25 1433.26,614.25 1842.76,614.25 546,0 955.49,-546 l 819,273 -4436.25,9009.03 -819,-477.75 q 136.5,-409.51 136.5,-750.76 0,-477.75 -1160.25,-1023.75 -1160.26,-614.25 -2934.76,-1092 -1774.51,-477.75 -4026.76,-819.01 -2184.01,-341.25 -4299.77,-341.25 -2457,0 -4709.26,682.51 -2184.01,614.25 -3958.51,1979.25 -1706.26,1365.01 -2730.01,3412.51 -1023.75,1979.26 -1023.75,4777.52 0,2730 1228.5,4777.51 1228.5,1979.26 3071.26,3276.01 1911,1296.75 4231.51,1911.01 2320.51,614.25 4572.77,614.25 2866.5,0 5118.76,-341.25 2320.51,-341.25 4436.26,-955.51 v -4504.51 z"
         style="font-family:Copperplate;-inkscape-font-specification:'Copperplate Bold'"
         id="path6647" /></g><g
       aria-label="M"
       transform="scale(0.92413276,1.0820956)"
       id="text5607"
       style="font-weight:bold;font-size:69897.9px;font-family:Copperplate;-inkscape-font-specification:'Copperplate Bold';fill:#bd0728;stroke:#000000;stroke-width:483.22;stroke-linecap:round;stroke-linejoin:round;stroke-miterlimit:33;paint-order:markers fill stroke"><path
         d="m 1177220,486183.29 q 1328,-139.8 1607.6,-419.39 349.5,-349.49 349.5,-838.77 V 459202.7 l -139.8,-139.8 -12441.8,27120.39 -12302.1,-27399.98 h -139.7 v 26141.82 q 0,489.28 279.5,838.77 349.5,279.59 1677.6,419.39 v 838.77 h -12302 v -838.77 q 1328,-139.8 1607.6,-419.39 349.5,-349.49 349.5,-838.77 V 452352.7 q 0,-489.28 -349.5,-768.87 -279.6,-349.49 -1607.6,-489.29 v -838.77 h 18243.3 v 838.77 q -1677.5,69.9 -1677.5,1258.16 0,69.9 419.4,1118.37 419.3,1048.47 1048.4,2586.22 699,1537.76 1467.9,3355.1 838.8,1747.45 1537.7,3425 768.9,1607.65 1328.1,2865.81 559.2,1258.17 768.9,1677.55 1188.2,-2656.12 2446.4,-5172.44 1258.2,-2516.33 2236.7,-4613.26 1048.5,-2096.94 1677.6,-3494.9 629.1,-1397.96 629.1,-1747.45 0,-1188.26 -1677.6,-1258.16 v -838.77 h 18942.3 v 838.77 q -1328,139.8 -1677.5,489.29 -279.6,279.59 -279.6,768.87 v 32572.43 q 0,489.28 279.6,838.77 349.5,279.59 1677.5,419.39 v 838.77 H 1177220 Z"
         id="path6650" /></g></g></svg>
