<?xml version="1.0" encoding="UTF-8" standalone="no"?>
<!-- Created with Inkscape (http://www.inkscape.org/) -->

<svg
   xmlns:dc="http://purl.org/dc/elements/1.1/"
   xmlns:cc="http://creativecommons.org/ns#"
   xmlns:rdf="http://www.w3.org/1999/02/22-rdf-syntax-ns#"
   xmlns:svg="http://www.w3.org/2000/svg"
   xmlns="http://www.w3.org/2000/svg"
   xmlns:sodipodi="http://sodipodi.sourceforge.net/DTD/sodipodi-0.dtd"
   xmlns:inkscape="http://www.inkscape.org/namespaces/inkscape"
   width="400.332"
   height="573.72998"
   id="svg2"
   sodipodi:version="0.32"
   inkscape:version="0.92.3 (2405546, 2018-03-11)"
   version="1.0"
   sodipodi:docname="Coat_of_arms_of_Greenland.svg">
  <defs
     id="defs4" />
  <sodipodi:namedview
     id="base"
     pagecolor="#ffffff"
     bordercolor="#666666"
     borderopacity="1.0"
     gridtolerance="10000"
     guidetolerance="10"
     objecttolerance="10"
     inkscape:pageopacity="0.0"
     inkscape:pageshadow="2"
     inkscape:zoom="1"
     inkscape:cx="78.992533"
     inkscape:cy="376.49769"
     inkscape:document-units="px"
     inkscape:current-layer="layer1"
     inkscape:window-width="1920"
     inkscape:window-height="1017"
     inkscape:window-x="-4"
     inkscape:window-y="-4"
     showgrid="false"
     inkscape:window-maximized="1" />
  <metadata
     id="metadata7">
    <rdf:RDF>
      <cc:Work
         rdf:about="">
        <dc:format>image/svg+xml</dc:format>
        <dc:type
           rdf:resource="http://purl.org/dc/dcmitype/StillImage" />
      </cc:Work>
    </rdf:RDF>
  </metadata>
  <g
     inkscape:label="Layer 1"
     inkscape:groupmode="layer"
     id="layer1">
    <path
       style="fill:#005395"
       d="M 199.59961 0 C 161.53487 0.038138972 123.29968 2.0595906 91.5 5.9804688 C 62.19314 9.5939787 30.23493 16.194111 15.5 21.675781 C 10.72783 23.451111 10.490544 23.716556 10.277344 27.509766 C 10.154484 29.695626 7.7175012 118.78437 4.8632812 225.48438 C -1.0811487 447.70669 -1.4228675 426.73977 8.4765625 446.4707 C 11.515652 452.52803 16.698491 461.08438 19.994141 465.48438 C 55.046811 512.28292 127.98817 560.33685 181.77539 572.06641 C 193.93181 574.7174 211.82759 574.15301 225 570.70312 C 270.91534 558.67778 330.18727 521.83236 366.33789 482.8418 C 378.68837 469.52108 386.17821 459.11761 392.52344 446.4707 C 402.41891 426.74767 402.07704 447.6377 396.13281 225.98438 C 393.27874 119.55937 390.95726 30.781269 390.97266 28.699219 C 390.9987 25.175829 390.6995 24.784761 386.6543 23.050781 C 369.42516 15.665511 325.70573 7.2776281 285 3.5488281 C 258.70828 1.1404081 229.20552 -0.029663645 199.59961 0 z "
       id="path1884" />
    <path
       inkscape:connector-curvature="0"
       id="path1884-7"
       d="m 172.04536,534.42944 c 2.48119,-2.98965 4.46193,-3.38185 9.03174,-1.78836 5.18313,1.80735 11.73191,1.36345 22.92295,-1.55381 4.125,-1.07529 14.26591,-3.3243 22.53536,-4.99778 23.59813,-4.77555 28.5793,-7.12418 30.55297,-14.40574 1.44201,-5.32011 -0.0317,-16.71095 -3.48631,-26.94752 -1.34611,-3.98871 -2.07193,-7.64001 -1.61293,-8.11401 0.459,-0.47399 2.09301,1.10101 3.63113,3.5 1.53813,2.399 2.93246,4.55397 3.09852,4.78882 0.66849,0.94541 3.13879,-3.63462 4.78481,-8.87122 0.9605,-3.05568 2.15796,-6.64447 2.66103,-7.9751 l 0.91467,-2.41932 4.24823,4.16932 c 2.33652,2.29313 4.51527,4.16932 4.84166,4.16932 0.32638,0 1.0825,-1.94227 1.68025,-4.31615 0.59775,-2.37388 1.96374,-5.10974 3.03553,-6.0797 2.6517,-2.39976 5.15124,-0.95647 9.48286,5.47562 l 3.37677,5.01421 0.47799,-5.29699 c 0.26289,-2.91335 1.14708,-6.87199 1.96487,-8.79699 l 1.48688,-3.5 2.14016,4 c 2.23879,4.18432 5.58767,8.5 6.59584,8.5 0.32434,0 0.59411,-1.0125 0.59948,-2.25 0.0168,-3.87259 4.46578,-12.03599 9.95404,-18.26461 16.10907,-18.28221 24.46297,-35.09173 27.57481,-55.48539 1.95624,-12.82035 1.90938,-46.57136 -0.0888,-64 -3.84291,-33.51793 -12.89021,-64.83517 -29.49874,-102.1099 -4.86774,-10.92473 -4.90779,-11.09606 -2.44984,-10.47916 3.10428,0.77913 3.09964,0.39559 -0.10403,-8.60134 -4.57991,-12.86186 -14.22442,-31.37254 -23.88732,-45.8469 -5.616,-8.41238 -8.91395,-14.2324 -8.20148,-14.47348 0.6554,-0.22178 2.45724,-0.53508 4.00409,-0.69622 l 2.81244,-0.293 -4.72741,-5.5 C 267.74944,123.94202 255.75165,99.7124 246.9929,69.484043 c -1.753,-6.05 -4.34761,-13.3749 -5.7658,-16.27756 -6.95163,-14.2282 -25.88634,-23.31894 -51.85288,-24.89509 -8.46164,-0.51361 -10.51156,-0.34449 -12.47251,1.02901 -1.76893,1.23901 -4.6921,1.65132 -11.87412,1.67483 -13.06436,0.0428 -32.98969,2.50244 -34.78074,4.29348 -1.23923,1.23924 -1.02314,2.60812 1.62403,10.28809 1.6794,4.87227 3.65175,9.3151 4.38299,9.87296 0.73125,0.55785 2.13551,3.15178 3.12059,5.76428 0.98508,2.6125 2.09134,4.74542 2.45835,4.73983 0.36701,-0.006 1.44816,-1.86833 2.40257,-4.13941 l 1.73527,-4.12924 5.58874,0.65684 c 19.10554,2.24548 24.01034,18.401177 7.71379,25.408077 -8.754,3.76389 -9.59534,3.74983 -13.07965,-0.21857 -1.72278,-1.96214 -3.31998,-3.56753 -3.54933,-3.56753 -0.22936,0 -0.72068,2.025 -1.09183,4.5 -0.37115,2.475 -1.09724,4.5 -1.61354,4.5 -1.62301,0 -1.01965,4.61967 0.81127,6.21157 1.06934,0.92974 4.80609,1.76649 9.60729,2.15131 10.92362,0.87552 14.89468,3.24912 18.56961,11.09953 1.55447,3.32067 3.12809,7.3256 3.49693,8.89984 0.65907,2.81296 0.7058,2.83041 2.71371,1.01327 1.98977,-1.80071 2.08042,-1.79792 3.47323,0.10686 2.66936,3.65056 3.61938,9.87702 3.17498,20.80896 l -0.43869,10.79134 2.95515,-0.64906 2.95515,-0.64906 -0.70771,5.85772 c -0.38925,3.22175 -1.7597,8.91718 -3.04544,12.65651 l -2.33773,6.79879 4.4144,-0.66198 4.4144,-0.66198 -0.63884,3.36319 c -0.64572,3.39948 -3.50436,12.92625 -4.82243,16.07132 -0.53389,1.27395 -0.10469,1.86152 1.68858,2.3116 3.33872,0.83796 14.08022,-3.38321 26.79588,-10.53019 9.15556,-5.14599 20.6322,-9.53362 21.8982,-8.37189 0.52638,0.48303 2.10185,-0.56571 -16.00793,10.65601 -16.98586,10.52528 -27.13296,15.72432 -30.69198,15.72555 -6.6419,0.002 -18.32056,-9.2167 -34.85736,-27.516 -25.60861,-28.33797 -24.20998,-26.43834 -27.78243,-37.73428 -5.4665,-17.28482 -12.54429,-29.16113 -19.49086,-32.705 -2.16738,-1.10571 -4.2295,-2.92036 -4.5825,-4.03256 -0.92499,-2.91437 -5.43738,-8.01137 -7.0925,-8.01137 -1.75994,0 -1.75782,0.0642 0.20026,6.05069 2.47935,7.58017 -0.29337,11.14338 -3.90873,5.02307 -2.01304,-3.40781 -8.83801,-9.07376 -10.92988,-9.07376 -2.79641,0 -2.52809,1.2073 1.84449,8.29942 l 4.41783,7.16551 -2.26754,1.71253 c -2.17286,1.64101 -2.37193,1.61469 -4.76754,-0.63051 -5.34866,-5.01284 -13,-8.26926 -13,-5.53282 0,0.55777 2.06043,3.54377 4.57872,6.63556 4.06241,4.98754 4.41021,5.78996 3.08428,7.11588 -1.32592,1.32592 -1.9906,1.25425 -5.89444,-0.63556 -8.1137,-3.92778 -10.15829,-2.34695 -4.12074,3.18605 l 3.64781,3.34297 -1.7631,4.61662 c -1.71138,4.48117 -1.7043,4.74287 0.24117,8.92048 8.48969,18.23035 9.39892,19.78584 13.86137,23.71385 2.55558,2.24951 5.03315,4.09002 5.50572,4.09002 1.539,0 0.9092,4.21728 -1.55633,10.42154 -2.37889,5.98623 -4.36698,15.57846 -3.2288,15.57846 0.32052,0 2.28474,-0.88713 4.36495,-1.97139 6.14461,-3.20275 10.87512,-0.68769 6.37186,3.38771 -1.04914,0.94946 -2.81026,3.8317 -3.9136,6.40498 -2.04412,4.76746 -3.80851,12.1787 -2.89936,12.1787 0.27614,0 2.46372,-0.89012 4.86129,-1.97804 5.12634,-2.32613 13.08448,-2.66037 14.77731,-0.62063 0.91404,1.10135 0.52175,2.41246 -1.83258,6.12486 -3.29642,5.19791 -5.61109,14.24366 -4.63743,18.12306 0.61703,2.45842 0.68464,2.43012 6.16847,-2.58179 3.46389,-3.1658 6.45253,-5.06746 7.96402,-5.06746 2.32527,0 2.41941,0.26826 2.41941,6.89466 0,6.49993 3.02969,19.38762 4.81747,20.49253 0.41977,0.25943 1.52472,-1.67239 2.45546,-4.29294 0.93074,-2.62055 2.9286,-6.07629 4.43969,-7.67944 l 2.74745,-2.91481 0.6973,6.13985 c 0.39157,3.44785 1.87681,8.4675 3.3875,11.4487 l 2.6902,5.30886 1.98627,-2.7267 c 2.04769,-2.81103 6.62163,-5.67071 9.07007,-5.67071 2.12445,0 6.72061,9.30587 7.39074,14.96408 0.32804,2.76975 0.93139,5.03592 1.34078,5.03592 1.18181,0 7.70418,-7.5716 9.47916,-11.00404 0.88838,-1.71794 2.15134,-2.94846 2.80657,-2.73449 0.65524,0.21397 2.2138,2.83017 3.46348,5.81378 1.76872,4.22282 2.2046,6.92031 1.96731,12.17475 -0.16765,3.7125 0.0924,6.75 0.57786,6.75 2.31012,0 7.58438,-7.01235 9.25106,-12.29967 0.99533,-3.15754 2.2781,-5.58484 2.8506,-5.39401 0.5725,0.19084 2.19843,3.75912 3.61317,7.92953 2.55587,7.53426 4.38994,10.76415 6.11233,10.76415 1.47053,0 6.48886,-8.61874 7.85094,-13.48362 0.69548,-2.48401 1.80259,-4.51638 2.46024,-4.51638 3.42957,0 8.54435,9.36366 8.54435,15.6422 v 3.70643 l 2.63192,-2.42432 c 3.01591,-2.77801 6.31381,-9.3645 6.34612,-12.67431 0.0156,-1.59485 0.61917,-2.25 2.07299,-2.25 2.36175,0 4.51733,4.3273 5.55528,11.15215 1.20757,7.9402 1.95178,7.5929 5.91882,-2.76212 7.0663,-18.44492 10.01024,-22.39713 16.67521,-22.38629 2.09288,0.003 2.0118,0.17926 -0.90179,1.95578 -3.99268,2.43448 -5.12665,4.68361 -9.62421,19.08882 -3.74026,11.97965 -7.7647,19.32646 -11.81782,21.57403 -4.31482,2.39269 -4.98569,1.8321 -4.2694,-3.5676 0.36081,-2.71988 0.34497,-6.60322 -0.0352,-8.62966 l -0.6912,-3.68442 -2.46682,3.63025 c -2.67989,3.94381 -11.56145,9.60461 -15.09288,9.61968 -2.12148,0.009 -2.14791,-0.11284 -0.75,-3.4585 1.71908,-4.11435 1.89766,-11.82522 0.34121,-14.73347 -1.00542,-1.87865 -1.27155,-1.58603 -2.88083,3.16765 -2.11635,6.25153 -4.73641,9.99742 -8.41696,12.0337 -2.57533,1.42481 -2.83133,1.36202 -5.10705,-1.25253 l -2.39582,-2.75253 -0.66349,3.75253 c -0.36491,2.06389 -3.08552,11.28085 -6.04579,20.48213 -4.77101,14.82957 -6.57246,23.7704 -4.78938,23.7704 0.3261,0 4.9386,-0.86833 10.25,-1.92961 5.31139,-1.06129 14.83208,-2.43722 21.15708,-3.05761 14.65969,-1.43792 20.0446,-3.16061 24.01503,-7.68267 3.4103,-3.88413 4.5489,-3.94357 3.11132,-0.16243 -1.3528,3.55813 -5.9173,8.67286 -9.30174,10.42302 -1.61544,0.83537 -10.67434,2.81688 -20.13088,4.40335 -25.06913,4.2057 -33.15309,7.44423 -41.88535,16.77972 -5.46388,5.84134 -7.78036,10.11989 -10.95734,20.23833 -2.071,6.596 -2.35081,9.45324 -2.34908,23.9879 0.002,16.0011 0.0992,16.77852 3.21804,25.7115 1.76884,5.06632 4.87309,12.49132 6.89832,16.5 l 3.68225,7.2885 1.11986,-3.29484 1.11985,-3.29483 4.69908,9.79483 c 2.58449,5.38716 6.34779,12.0088 8.36288,14.71476 l 3.66381,4.91992 1.45632,-2.77949 1.45632,-2.77949 3.5299,3.35957 c 11.28167,10.7373 5.54683,18.97001 -16.35384,23.4769 -4.32011,0.88902 -9.48564,2.44408 -11.47896,3.45569 -3.56599,1.80973 -8.87579,7.19606 -8.87579,9.00371 0,1.1259 -0.19456,1.12625 3.7566,-0.007 3.49544,-1.00248 4.60412,0.36354 1.17769,1.45104 -4.1157,1.30628 -11.93429,9.77685 -11.93429,12.92949 0,1.16514 2.3163,0.46063 5.17267,-1.5733 2.13407,-1.51959 3.28824,-1.81613 4.06097,-1.0434 0.77272,0.77272 1.81662,0.56075 3.67295,-0.74585 1.42638,-1.00397 3.71841,-2.1734 5.09341,-2.59873 2.21796,-0.68609 2.0301,-0.26253 -1.66518,3.75444 -5.25031,5.70738 -7.8868,10.60452 -6.47125,12.02007 0.71168,0.71168 2.15887,0.0459 4.64497,-2.13692 1.98616,-1.74387 4.02629,-2.91414 4.53363,-2.60059 0.50734,0.31355 2.60986,-0.57654 4.67227,-1.97798 5.12653,-3.48357 7.41635,-3.37171 4.13354,0.20192 -3.42631,3.72984 -6.43988,8.2807 -7.28417,11 -0.55935,1.80156 -0.31094,2.25 1.24636,2.25 1.06972,0 2.52553,-0.69957 3.23514,-1.5546 z m 52.3237,-465.926147 c -0.34336,-0.8948 0.63258,-2.49115 2.46631,-4.03413 3.35846,-2.82596 4.18604,-5.61406 2.87444,-9.68397 -1.00225,-3.11002 -5.82703,-5.14764 -10.96123,-4.62919 -5.12528,0.51755 -4.65975,-1.57759 0.56254,-2.53167 9.74329,-1.78006 15.68893,1.79343 15.68893,9.42947 0,4.68062 -1.28547,8.21571 -3.96007,10.89031 -2.38625,2.38625 -5.85813,2.67727 -6.67092,0.55918 z m -42.00442,-25.10331 c -1.27433,-2.15983 -4.04968,-5.20634 -4.88048,-4.88754 -1.47582,0.56633 -1.03138,-0.0721 0.35974,-0.93189 1.26807,-0.78371 10.17799,0.67655 12.17392,2.45076 2.89834,2.57637 0.47735,5.95273 -3.0515,5.95273 -2.41625,0 -2.93046,0.24843 -4.60168,-2.58406 z M 290.22057,509.98854 c 4.8016,-1.3967 6.77948,-4.32742 6.77948,-10.04551 0,-6.65465 -2.33246,-13.47543 -7.36877,-21.54835 -2.43249,-3.89914 -4.61485,-7.94914 -4.84969,-9 -0.66545,-2.97778 -2.76939,5.23749 -2.77596,10.83936 -0.003,2.6125 -0.27361,4.75 -0.60121,4.75 -0.88492,0 -6.53316,-3.98171 -9.48783,-6.68842 l -2.58346,-2.36666 -1.16356,3.8836 c -0.63995,2.13597 -2.31497,5.5803 -3.72226,7.65406 -2.36237,3.48115 -2.47771,4.14822 -1.50299,8.69317 0.58065,2.70748 1.05573,7.44241 1.05573,10.52208 v 5.59938 l 11.25,-0.60524 c 6.1875,-0.33288 12.92423,-1.09224 14.97052,-1.68747 z M 130.46416,319.13049 c 1.73441,-7.07743 4.7449,-13.14645 6.52119,-13.14645 0.55809,0 1.0147,0.73529 1.0147,1.63398 0,3.96496 2.66047,9.83478 6.36518,14.04355 l 4.01314,4.55917 1.25728,-6.16365 c 1.20637,-5.91412 4.66507,-13.07305 6.316,-13.07305 0.43366,0 1.34902,2.00206 2.03413,4.44902 1.29986,4.64265 6.67786,10.96824 10.08202,11.85845 1.651,0.43174 1.93225,-0.03 1.93225,-3.1725 0,-2.83221 1.14951,-5.25454 4.99966,-10.53568 5.33428,-7.31688 7.44201,-12.85067 8.47248,-22.24433 l 0.64228,-5.85496 -1.78539,2.74434 c -2.37175,3.64562 -7.07787,5.75566 -12.83715,5.75566 -4.09321,0 -4.61082,-0.22783 -3.97582,-1.75 1.43438,-3.43843 2.45577,-10.52003 1.89123,-13.11251 -1.17374,-5.39011 -1.39204,-5.45862 -4.35604,-1.36693 -2.74853,3.79423 -6.31124,6.9124 -12.05476,10.55061 l -2.50351,1.58583 0.34618,-4.35262 c 0.37133,-4.66877 -1.39101,-17.93117 -2.69154,-20.25508 -1.31262,-2.34553 -4.88664,1.44244 -7.52931,7.98005 l -2.33617,5.77934 -2.70305,-3.54388 c -1.48667,-1.94914 -3.85105,-6.05145 -5.25416,-9.11625 -1.41957,-3.10075 -2.93174,-5.19175 -3.40925,-4.71424 -0.47197,0.47197 -1.4674,3.5408 -2.21206,6.81962 l -1.35392,5.96149 -3.13967,-4.33419 c -1.72682,-2.3838 -3.41082,-5.18852 -3.74224,-6.23271 -0.49049,-1.54541 -1.57386,-1.89853 -5.82466,-1.89853 -3.24465,0 -10.31918,-1.5456 -18.68261,-4.08165 -17.1803,-5.20961 -27.70499,-6.22272 -31.96044,-3.07653 -2.34239,1.73181 -3.73557,2.01911 -7.37318,1.52052 -2.4668,-0.33811 -5.64199,-0.32438 -7.05599,0.0305 -2.8838,0.72378 -3.53329,3.59507 -0.82091,3.62911 2.89912,0.0364 10.25,3.78397 10.25,5.2256 0,0.88218 -2.36384,1.75069 -6.86617,2.52276 -8.64608,1.48264 -12.13383,2.79809 -12.13383,4.57644 0,1.0401 2.04107,1.51442 8.00137,1.85946 4.40076,0.25476 8.20791,0.66973 8.46034,0.92216 0.25243,0.25243 0.21508,1.39159 -0.083,2.53146 -0.35852,1.37101 -1.95287,2.49343 -4.71033,3.31608 -6.22676,1.85768 -9.66837,3.88236 -9.66837,5.68786 0,1.38614 0.91214,1.51896 6.5,0.94647 6.36469,-0.65209 6.5,-0.61644 6.5,1.71242 0,1.77296 -1.27275,3.16956 -5,5.48655 -2.75,1.70949 -5,3.80176 -5,4.64948 0,1.83948 -0.0534,1.83533 5.5299,0.42945 4.1089,-1.03463 4.62896,-0.93227 7.4886,1.47396 6.9769,5.87068 30.60934,10.07829 41.4815,7.38554 3.3,-0.81733 6.72963,-1.79585 7.62139,-2.17449 1.35347,-0.57467 1.69557,0.20605 2.07029,4.72469 0.29274,3.53006 1.44707,7.11578 3.31827,10.30764 l 2.86938,4.89451 1.64362,-5.5 c 2.80128,-9.37378 6.02099,-14 9.74358,-14 0.49391,0 0.69695,2.42457 0.45121,5.38794 -0.52379,6.31618 0.92346,11.39336 4.28011,15.01524 1.32366,1.42825 2.60467,2.59682 2.84668,2.59682 0.24202,0 1.19583,-3.0841 2.11958,-6.85355 z M 142.00005,76.26164 c 7.61746,-2.61201 12.2158,-3.60476 16.75,-3.61624 3.4375,-0.009 6.25,-0.14951 6.25,-0.31291 0,-0.1634 -1.32765,-0.98365 -2.95034,-1.822767 -3.79289,-1.96138 -11.73116,-1.93583 -24.40135,0.0785 -12.28022,1.952357 -20.63725,1.527537 -24.41175,-1.24096 -1.50511,-1.10395 -4.19564,-4.15803 -5.97895,-6.78683 -3.6679,-5.40691 -4.98532,-4.52872 -3.85069,2.56686 0.86696,5.4217 2.9621,9.271247 6.36453,11.693987 7.13393,5.0798 16.24337,4.92161 32.22855,-0.55966 z"
       style="fill:#fdfdfd;fill-opacity:1"
       sodipodi:nodetypes="cssssssssscccsssccccccsssssssssscccsssssssssscccsssssssssssccccccccccsssssssssssssscccssssscccssssssssssssssssssccccccsssssssssssssscccssssssssscccssssscccssssssssssssccccccccccsssssssssssssssssscccssssscccssscccsssscccsscccccsscccssssscccsssscccscccsscccsssssssssssssssssssssssscccssssccscsssssscscc" />
  </g>
</svg>
