<?xml version="1.0" encoding="UTF-8"?>
<svg xmlns="http://www.w3.org/2000/svg" xmlns:xlink="http://www.w3.org/1999/xlink" width="600" height="600" viewBox="-400 -400 800 800" fill="#0f7562">
<defs>
<clipPath id="a">
<path d="M-110 0H110V180H-110z"/>
</clipPath>
<clipPath id="o1">
<circle cx="-104" cy="-30" r="160"/>
</clipPath>
<clipPath id="o2">
<circle cx="-98" cy="-39" r="160"/>
</clipPath>
<clipPath id="o3">
<circle cx="-78" cy="-54" r="160"/>
</clipPath>
<clipPath id="o5">
<circle cx="-90" cy="-28" r="160"/>
</clipPath>
<clipPath id="o6">
<circle cx="-106" cy="-26" r="160"/>
</clipPath>
<clipPath id="o7">
<circle cx="-116" cy="-12" r="160"/>
</clipPath>
<g id="s">
<g id="q">
<path id="p" d="M0-1V0H.5z" fill="#ffde23" transform="rotate(18 0-1)"/>
<use xlink:href="#p" transform="scale(-1,1)"/>
</g>
<g id="r">
<use xlink:href="#q" transform="rotate(72)"/>
<use xlink:href="#q" transform="rotate(216)"/>
</g>
<use xlink:href="#r" transform="rotate(72)"/>
</g>
</defs>
<circle r="400"/>
<g clip-path="url(#a)" fill="#fff">
<circle cx="-103" cy="16" r="160"/>
<circle cx="103" cy="16" r="160"/>
</g>
<circle cx="-110" r="160"/>
<circle cx="110" r="160"/>
<circle cx="78" cy="-54" r="160" clip-path="url(#o3)" fill="#fff"/>
<circle cx="98" cy="-39" r="160" clip-path="url(#o2)"/>
<circle cy="-152" r="64"/>
<circle cx="104" cy="-30" r="160" clip-path="url(#o1)" fill="#fff"/>
<g id="h">
<circle cx="-187" cy="171" r="188" clip-path="url(#o7)" fill="#fff"/>
<circle cx="-182" cy="188" r="188" clip-path="url(#o6)"/>
<circle cx="-240" cy="30" r="64"/>
<g clip-path="url(#o7)" fill="#fff">
<circle cx="-168" cy="204" r="188" clip-path="url(#o5)"/>
<path d="M-45 45L0 85h10V140H0z"/>
</g>
<use xlink:href="#s" transform="rotate(-35) translate(0-224) scale(36)"/>
<use xlink:href="#s" transform="rotate(-65) translate(0-224) scale(36)"/>
</g>
<use xlink:href="#h" transform="scale(-1 1)"/>
<path d="M-300 160H-103v16H-300zm403 0H300v16H103zM-250 192H250v8H-250zm0 24H250v12H-250zm0 24H250v16H-250zm0 24H200v20H-200z" fill="#fff"/>
<circle r="340" stroke="#fff" stroke-width="88" fill="none"/>
<use xlink:href="#s" transform="translate(0-224) scale(52)"/>
<g stroke="#0f7562" stroke-width=".7">
<path id="中" transform="rotate(253.636364) translate(0-340) scale(1.088 1)" d="M26.347-15.833V10.72h-7.08V6.571H3.46v21.077h-6.701V6.57h-17.45v4.149h-6.701v-26.553h24.15v-11.673l6.196.72q3.604.553.506 2.489v8.464zm-47.037 5.09V1.315h17.45v-12.06Zm24.151 0V1.315h15.805v-12.06Z"/>
<path id="華" transform="rotate(-90) translate(0-340) scale(1.088 1)" d="M17.716-2.822h12.2V1.66h-12.2v5.92h9.988v4.425H3.87v4.038h20.8v4.315H3.87v7.192h-5.88v-7.026h-21.432v-4.48H-2.01v-4.039h-24.91V7.58h10.876V1.66h-13.277v-4.48h13.402v-5.92h-7.65v-4.425h49.125v4.425h-7.84zm-27.376 0h7.65V-8.74h-7.65Zm13.53 0h7.902V-8.74H3.87Zm-13.53 10.4h7.65V1.66h-7.65Zm13.53 0h7.902V1.66H3.87Zm4.804-25.17h-15.11v3.873h-5.942v-3.873h-15.869v-4.647h15.742v-5.31l5.753.719q3.098.72.316 2.213v2.378h15.11v-5.144l5.311.719q3.414.553.38 2.213v2.212h15.741v4.647H14.364v3.873h-5.69z"/>
<path id="人" transform="rotate(-73.636364) translate(0-340) scale(1.088 1)" d="M3.341-26.322q3.667.774 0 2.434-.379 15.046 5.88 26.332 8.472 11.616 21.685 18.808.57.332-.126.94-2.656 1.439-5.185 3.43-.695.609-1.58 0Q14.089 19.04 6.186 9.248 2.772 4.269.306-1.097q-2.402 7.579-8.281 14.77-9.42 8.52-16.69 11.783h-.95q-2.78-2.378-5.626-3.54-.316-.498.19-.83 11.76-4.315 21.369-15.71Q-3.55-5.135-3.107-27.263Z"/>
<path id="民" transform="rotate(-57.272727) translate(0-340) scale(1.088 1)" d="M19.04-14.27v-8.076h-35.847v8.077zM1.211-.44.2-9.346h-17.007v8.907Zm-18.018 16.929 19.915-4.868-.632 5.256-28.45 7.689q-1.96 3.043-3.161.166l-1.834-4.979 7.397-1.715v-45.085h49.44v17.702H6.711L7.786-.438h19.852v5.09H8.798q1.58 5.254 3.793 8.85 4.236 4.536 7.397 5.975 3.667.774 6.638-7.856.443-.166 1.012.166 1.644 1.881 3.603 3.54.317.443.317.775-1.897 5.256-4.932 8.132-3.477 2.268-9.04.498-6.006-2.766-10.685-8.796-2.529-4.757-4.552-11.285h-19.156Z"/>
<path id="共" transform="rotate(-40.909091) translate(0-340) scale(1.088 1)" d="M8.91-15.522v-12.115l6.891.94q3.604.498 0 2.6v8.575h12.96v5.09h-12.96V3.562h15.616v5.034h-60.503V3.563h16.248v-13.996h-13.214v-5.089h13.214v-12.115l6.828.94q3.35.498 0 2.6v8.575zm-14.92 5.09V3.562H8.91v-13.995zm18.65 20.19Q24.4 17.227 29.9 23.257l-4.616 4.26q-7.397-7.69-17.006-13.499Zm-18.46 3.154q2.275 1.494-.633 2.268-7.776 7.8-16.058 12.17l-4.931-4.093q9.798-4.537 16.816-13.498Z"/>
<path id="和" transform="rotate(-24.545454) translate(0-340) scale(1.088 1)" d="M23.566 23.535V18.39h-12.58v6.638H4.789v-46.136h25.163v44.643zm0-39.609h-12.58v29.651h12.58Zm-52.41 10.51v-4.866h14.16v-8.243q-5.374.72-10.81.94-1.328-2.102-2.972-4.314l.316-.443q14.478-.72 26.174-4.868l3.667 4.315q1.2 1.494-2.782 1.162-5.564 1.493-7.397 2.046v9.405H2.07v4.868H-7.981q4.299 7.8 10.178 11.174l-3.793 4.15q-3.983-2.048-6.891-6.03v23.4h-6.197V1.904q-3.983 6.14-11.38 12.613h-.758q-1.454-1.55-4.236-2.822-.127-.22-.127-.608 8.221-6.914 13.721-16.65z"/>
<path id="國" transform="rotate(-8.181818) translate(0-340) scale(1.088 1)" d="M-21.804 26.47h-6.195v-52.94H27.32v52.775h-5.88v-1.936h-43.243Zm43.244-6.637v-41.711h-43.243v41.71ZM-18.706 5.118V-7.716h17.26V5.118Zm12.265-3.983v-5.256h-7.08v5.256Zm6.007 10.234-15.363 3.041q-2.213 3.375-3.414 0l-.696-3.983 19.978-2.6Zm19.156-22.736H6.076q.633 8.519 2.466 15.71 2.719-5.808 4.615-12.06l4.679 1.494q3.097 1.55-.19 2.268-2.213 7.136-6.385 13.996.379 1.162 1.896 2.655 1.454.554 3.477-4.868h.57q1.517 1.494 3.224 3.209 0 .332.19.166-1.392 3.374-3.415 6.196-1.896 1.66-4.804.94-2.972-1.549-4.805-4.536-3.351 3.43-7.27 5.421l-.38-.166q-1.897-1.825-3.793-2.987 0-.221.126-.553Q.45 13.416 4.622 9.654 1.273-.36.577-11.367h-20.99v-4.15H.451v-5.255l4.488.387q3.414.388.885 2.435v2.434h5.69q-.885-1.881-2.781-3.54l3.35-1.882q3.54 2.434 4.552 5.422h2.087z"/>
<path id="澳" transform="rotate(8.181818) translate(0-340) scale(1.088 1)" d="M13-6.544q1.011-1.272 1.96-3.983l4.299.94q-1.328 3.043-2.213 3.984zm-6.512-5.089-6.512.553-2.339-3.54q8.851-.775 15.805-2.268H-2.932v11.45h9.42zm-5.184.94q2.782 2.38 4.11 3.762L1.999-5.437Q.672-6.71-1.731-8.812zM20.46-5.437v-11.451h-3.098l2.403 2.6-8.156 1.715v7.136zM4.97 11.988l.949-3.761 4.11.553q5.373.553 1.58 2.047l-.38 1.161h19.094v4.592H13.569q8.914 4.702 16.627 6.361.127.443-.19.609-2.212 1.88-3.097 3.209-.443.165-.822.165-10.558-2.987-18.145-8.297-8.977 6.638-17.196 8.685-.696 0-1.012-.388-1.2-1.66-2.402-2.987-.127-.166.316-.553 9.23-3.043 13.656-6.804h-14.668v-4.592Zm-20.545-26.276q-5.121-4.481-10.369-6.528l-.758-.332 3.287-3.817q7.018 3.043 11.317 6.97zm-3.226 12.612q-4.804-3.153-9.546-5.642l-1.328-.996 2.972-3.319q7.902 3.32 11.38 6.362zm6.323 7.8q-4.806 9.35-10.242 18.754 0 2.766-2.213.94l-4.11-3.983q5.311-6.528 10.749-15.545l2.718-4.812Zm9.546-1.106q5.943-2.6 8.851-6.196h-8.851Zm15.173-6.196q3.414 3.596 8.219 5.588v-5.588ZM-9.064 11.988v-33.136h12.77l4.995-6.362 4.425 2.38q2.719 1.935-.442 2.101l-1.897 1.881h15.426v33.136H20.46v-6.03l-2.845 2.103q-3.098-1.77-6.006-4.205v4.37H6.488V4.245Q3.896 6.679-.15 8.615L-2.932 6.29v5.698z"/>
<path id="門" transform="rotate(24.545454) translate(0-340) scale(1.088 1)" d="M7.474-22.354v3.928H21.32v-3.928zm0 8.464v3.983H21.32v-3.983zm-36.478 40.328V-26.67h27.502v21.243h-21.054v31.864Zm6.449-48.792v3.928h14.666v-3.928zm0 8.464v3.983h14.666v-3.983ZM1.153-26.669h26.616v47.464q-.442 4.924-5.373 5.311h-5.88q-.316 0-.632-.387-.696-2.047-2.592-4.924 0-.166.19-.553l6.005.221q2.023 0 2.023-2.102V-5.426H1.152v-20.523Z"/>
<path id="特" transform="rotate(40.909091) translate(0-340) scale(1.088 1)" d="M-20.836-22.292q2.845.72.126 2.213-.316 3.762-.695 6.196h4.109v-13.498l6.891.94q2.087.553-.885 1.881v10.677h7.08v4.646h-7.08V2.491L-5.726.223l-.443 4.868-5.12 2.434v18.587h-6.008V10.346l-7.903 3.596q-1.517 2.766-2.718.94l-2.087-4.702 12.709-5.089V-9.237h-4.742q-1.264 3.983-3.35 8.686l-6.006-1.55q4.235-10.455 4.804-21.131zm37.933 8.243v6.693h14.539v4.758h-35.15v-4.758h14.73v-6.693H-1.807v-4.315h13.024v-9.017l5.88.774q3.477.498 0 2.6v5.643h13.339v4.315zM3.125 10.015q4.235 3.927 7.27 7.302l-4.489 2.82q-3.793-4.535-7.017-7.301ZM17.223-1.16l5.88.774q2.908.609 0 2.324v1.88h7.84v4.316h-7.84v14.604q-.19 3.54-4.173 4.48h-7.713q-.695 0-.822-.331-.695-1.107-2.592-4.15-.126-.331.126-.774l7.84.277q1.644 0 1.454-2.102V8.3H-2.692V3.819h19.915z"/>
<path id="別" transform="rotate(57.272727) translate(0-340) scale(1.088 1)" d="M6.9 12.496v-33.69l6.006.664q3.161.775 0 2.268v30.758zm-27.312-31.864v8.85h15.996v-8.85zm47.353-6.75q3.288.499 0 2.214v45.25q-.19 4.537-5.184 5.256h-7.966q0 .166-.885-.332-.442-1.715-2.276-4.757-.316-.332.443-.553h7.144q2.213-.166 2.34-2.38v-45.472ZM-26.86-3.325V-24.07H1.78v20.302h-6.196v-2.047h-6.765q0 3.153-.316 6.251H2.285q0 10.345-1.77 19.804-1.454 5.809-6.891 6.362h-5.754q-.948-.166-.948-.72-.885-2.488-2.023-4.701 0-.387.506-.553l5.627.332q2.465-.166 3.35-2.656 1.202-4.813 1.454-13.276h-7.46q-2.782 10.344-13.592 21.242-.76.166-1.265-.387-2.086-1.715-3.983-2.987-.316-.222.127-.609 8.029-6.749 11.253-14.66 1.391-4.535 1.707-13.441h-3.035v2.49z"/>
<path id="行" transform="rotate(73.636364) translate(0-340) scale(1.088 1)" d="M-9.028-23.846q1.834 1.549-1.77 1.88-7.397 6.75-15.552 12.447l-4.995-3.208q9.8-6.97 16.944-14.328Zm9.23 5.09v-4.648h28.324v4.647zM20.561-3.877v25.502q-.38 5.255-5.31 5.643H6.273q-.695-.222-.885-.609-1.012-2.434-2.592-4.702-.19-.332.695-.553l8.282.221q2.087-.442 2.087-2.655V-3.876H-3.4v-5.09h34.772v5.09zM-13.39 26.66h-6.07V2.043q-3.097 2.987-6.89 5.255-.316.166-1.012-.165-1.707-1.715-3.414-3.209-.38-.387 0-.609 9.23-6.417 17.07-17.757l4.805 2.49q3.035 1.492-.506 2.432l-3.667 4.704q2.972 1.106-.316 2.268Z"/>
<path id="政" transform="rotate(90) translate(0-340) scale(1.088 1)" d="M-2.186-.864h-9.23v15.158l10.431-2.6-1.201 4.757-24.214 6.75q-1.897 2.986-3.098.774l-1.96-4.98 3.857-1.106V-7.336l5.247.608q3.288.72.506 2.324v21.021l4.805-1.106v-33.302h-12.708v-4.37h29.02v4.37h-10.56V-5.29h9.104zM8.688-12.48q-1.201 3.873-2.34 6.251l2.72-.332q2.023 8.132 4.488 13.443 3.54-5.31 5.564-19.362zm21.37-4.37v4.37h-5.059q-2.276 15.324-7.65 23.953 5.5 6.583 14.225 11.064 0 .332-.126.664-1.58.775-3.667 2.766-.569.609-1.075.387-6.701-3.817-13.466-10.621-6.575 5.864-16.185 9.349-.442.166-.758 0-1.58-1.604-3.478-3.485v-.553q11.001-3.486 17.07-9.958Q6.666 5.775 4.136-2.523l-.758 1.106-5.564-2.213q5.374-7.357 8.03-23.344l4.551.774q4.173.885.822 2.379-.822 4.757-1.517 6.97z"/>
<path id="區" transform="rotate(106.363636) translate(0-340) scale(1.088 1)" d="M18.123-4.238H-9.378v-14.549h27.501Zm-5.69-4.48v-5.588H-3.246v5.587zM-11.338 15.4h-5.943V-1.195h20.42V15.4h-5.942v-1.715h-8.535Zm23.329 0H6.236V-1.03H26.72V15.4h-6.004v-1.715h-8.724zm8.724-5.808v-5.92h-8.724v5.92zM-2.55 9.371V3.45h-8.788v5.92Zm32.18 8.85v4.758h-49.757v3.209h-5.88v-47.022h-3.287v-4.813h57.215v4.813h-47.857v39.056Z"/>
</g>
<path id="M" transform="rotate(25) translate(0 340) scale(1.05)" d="M-28-24h10.464L.394 14.1 16.853-24H28v48h-7.835v-41.4L2.287 24h-5.205l-19.14-41.4V24H-28Z" />
<path id="A" transform="rotate(12.5) translate(0 340) scale(1.05)" d="m-28 24 22.568-48h9.894L28 24h-8.988l-7.308-13.77h-25.93L-20.693 24Zm26.836-40.873-10.67 22.087H9.312z"/>
<path id="C" transform="translate(0 340) scale(1.05)" d="m19.117 8.128 8.883.51q-2.51 6.937-7.788 10.298-5.279 3.32-9.334 4-3.99.638-6.694.851Q1.544 24-1.223 24q-2.96 0-5.793-.596-2.768-.638-6.566-2.213-3.797-1.617-7.273-4.978-3.412-3.362-4.828-6.639-1.416-3.319-1.866-5.361Q-28 2.17-28-.085q0-2.17.45-4.213.451-2.085 1.417-4.34.965-2.256 2.188-4 1.223-1.788 3.927-4.34 2.767-2.596 6.951-4.214 4.184-1.617 7.21-2.212Q-2.832-24 .515-24H2.06q4.441 0 8.754 1.064 4.377 1.021 7.917 2.979Q22.271-18 24.46-15.32q2.253 2.638 2.703 5.83l-8.046 1.02q-1.158-3.616-3.733-5.829-2.51-2.213-5.407-3.234-2.832-1.021-4.634-1.277-1.803-.255-2.833-.34-.965-.085-1.995-.085-4.313 0-8.046 1.787-3.605 1.575-5.922 4.213-2.317 2.638-3.476 5.915-1.094 3.277-1.094 6.553 0 6.553 3.926 12.213 3.927 5.617 10.557 6.723l1.995.298 2.124.34 1.803.086q3.669 0 6.758-1.022 3.09-1.02 5.02-2.808 1.996-1.787 3.026-3.362 1.03-1.574 1.931-3.574z"/>
<use xlink:href="#A" transform="rotate(-25)"/>
<path id="U" transform="rotate(-25) translate(0 340) scale(1.05)" d="M17.654-24H25.5V9.765q0 3.385-2.164 6.032-2.097 2.604-5.614 4.384-3.518 1.78-7.103 2.56-3.517.738-5.952.999Q2.232 24-.068 24q-6.493 0-12.378-1.736-5.817-1.78-9.47-5.295Q-25.5 13.41-25.5 8.203V-24h9.199V8.203q0 4.904 5.005 7.681 5.073 2.778 11.972 2.778 4.262 0 8.117-1.128 3.856-1.129 6.358-3.43 2.503-2.343 2.503-5.337z"/>
</svg>