<?xml version="1.0" encoding="UTF-8" standalone="no"?>
<!-- Generator: Adobe Illustrator 14.0.0, SVG Export Plug-In . SVG Version: 6.00 Build 43363)  -->
<svg
   xmlns:dc="http://purl.org/dc/elements/1.1/"
   xmlns:cc="http://creativecommons.org/ns#"
   xmlns:rdf="http://www.w3.org/1999/02/22-rdf-syntax-ns#"
   xmlns:svg="http://www.w3.org/2000/svg"
   xmlns="http://www.w3.org/2000/svg"
   xmlns:sodipodi="http://sodipodi.sourceforge.net/DTD/sodipodi-0.dtd"
   xmlns:inkscape="http://www.inkscape.org/namespaces/inkscape"
   version="1.1"
   id="Layer_1"
   x="0px"
   y="0px"
   width="396px"
   height="512px"
   viewBox="0 0 396 512"
   enable-background="new 0 0 396 512"
   xml:space="preserve"
   sodipodi:version="0.32"
   inkscape:version="0.46"
   sodipodi:docname="Coats of arms of the United Arab Emirates.svg"
   inkscape:output_extension="org.inkscape.output.svg.inkscape"><metadata
   id="metadata3814"><rdf:RDF><cc:Work
       rdf:about=""><dc:format>image/svg+xml</dc:format><dc:type
         rdf:resource="http://purl.org/dc/dcmitype/StillImage" /></cc:Work></rdf:RDF></metadata><defs
   id="defs3812"><inkscape:perspective
     sodipodi:type="inkscape:persp3d"
     inkscape:vp_x="0 : 256 : 1"
     inkscape:vp_y="0 : 1000 : 0"
     inkscape:vp_z="396 : 256 : 1"
     inkscape:persp3d-origin="198 : 170.66667 : 1"
     id="perspective3816" /></defs><sodipodi:namedview
   inkscape:window-height="972"
   inkscape:window-width="1280"
   inkscape:pageshadow="2"
   inkscape:pageopacity="0.0"
   guidetolerance="10.0"
   gridtolerance="10.0"
   objecttolerance="10.0"
   borderopacity="1.0"
   bordercolor="#666666"
   pagecolor="#ffffff"
   id="base"
   showgrid="false"
   inkscape:zoom="1.8046875"
   inkscape:cx="271.93197"
   inkscape:cy="262.16595"
   inkscape:window-x="-8"
   inkscape:window-y="-8"
   inkscape:current-layer="Layer_1" />
<path
   fill="#FFFFFF"
   d="M96.12,392.649c-2.54-0.673-4.767-1.762-7.334-2.241c-0.102,0.176-0.292,0.306-0.544,0.261  c-0.136-0.024-0.27-0.062-0.404-0.097c-0.028,0.224-0.176,0.437-0.463,0.458c-0.148,0.011-0.296,0.014-0.444,0.021  c-0.425,0.103-0.893,0.106-1.281,0.064c-0.259-0.028-0.511-0.07-0.753-0.145c-0.508-0.078-1.011-0.195-1.494-0.416  c-0.159-0.072-0.226-0.19-0.244-0.316c-0.275-0.05-0.421-0.275-0.44-0.502c-1.608-0.139-3.218-0.252-4.833-0.293  c-0.062-0.085-0.143-0.156-0.254-0.177c-0.516-0.099-1.06-0.199-1.537-0.118c-0.193-0.23-0.623-0.308-0.861,0.014  c-0.46,0.622-0.747,1.141-0.967,1.87c-0.033,0.108-0.02,0.215,0.021,0.311c-0.829,2.148,0.15,5.518,0.211,7.406  c0.063,1.938,0.186,3.835-0.307,5.733c-0.375,1.441-0.938,2.789-1.194,4.266c-0.344,1.989-0.369,4.029,0.98,5.605  c2.439,2.85,7.241,2.727,8.802-0.745c1.906-4.24,0.268-9.282,0.073-13.688c3.133,0.672,2.466,4.405,2.166,6.74  c-0.078,0.608-0.084,1.269-0.09,1.939c-0.198,0.013-0.38,0.12-0.412,0.351c-0.189,1.38-0.799,2.667-0.853,4.051  c-0.369,1.546-0.617,3.098-0.126,4.406c0.19,0.507,0.616,0.819,1.13,1.039c0.799,1.433,1.744,1.53,3.167,0.819  c0.083-0.042,0.145-0.109,0.185-0.187c2.117,0.372,4.195,0.777,6.445,0.404c0.436-0.072,0.476-0.719,0.12-0.914  c-0.173-0.095-0.353-0.176-0.532-0.256c0.455-0.146,0.488-0.835-0.004-0.961c-0.23-0.059-0.46-0.102-0.691-0.143  c0.095-0.031,0.166-0.079,0.214-0.141c1.972-1.215,3.654-2.948,4.547-4.701c1.757-3.445,1.673-8.158,1.93-11.959  C100.286,396.903,99.861,393.641,96.12,392.649z"
   id="path3120" />
<path
   d="M392.161,235.775c1.43,0.5,2.87,0.98,4.34,1.4v-0.5c-4.67-6.5-4.4-15.03-4.28-22.69c0.32-12.68-0.2-25.399,0.83-38.06  c0.08-10.99,0.19-21.99,0.3-32.98c0.14-6.2-2.13-12.08-4.17-17.83c-6.02-14.18-14.68-27.29-25.65-38.13  c-7.15-6.62-15.94-12.76-26.09-12.64c-8.79,1.3-16.79,5.56-24.43,9.91c-4.51,2.5-9.38,4.239-13.99,6.55  c-8.43,2.84-17.68,4.5-26.32,1.52c-5.99-2.35-10.08-7.5-13.53-12.689c-2.02-3.13-3.98-6.3-5.79-9.57  c-2.43-4.77-4.36-9.78-6.75-14.58c-1.27-3.18-2.63-6.319-4.2-9.37c-8.68-17.99-21.31-35.89-40.44-43.64  c-17.31-6.18-36.2,0.32-50.93,9.92c-2.62,3.42-5.02,7.03-7.79,10.33c-2.63,2.35-6.24,3.63-8.08,6.81  c-3.26,4.18-3.88,9.84-2.37,14.83c0.78,2.24,1.9,4.33,3.5,6.09c0.31-1.89-0.51-4.3,1.3-5.64c4.82,0.91,9.74,1.32,14.58,0.271  c6.03,4.97,11.53,11.14,13.51,18.869c0.48,3.2-0.43,6.351-1.03,9.471c-1.84,3.68-3.59,7.5-6.41,10.55  c-4.59,5.32-11.39,7.77-18.02,9.35c-8.64,2.98-34.841-1.71-43.271-4.551c-4.609-2.31-9.479-4.05-13.989-6.55  c-7.641-4.35-15.641-8.609-24.43-9.91c-10.15-0.12-18.94,6.021-26.09,12.641c-10.971,10.84-19.631,23.95-25.65,38.13  c-2.041,5.75-4.311,11.63-4.17,17.83c0.109,10.99,0.22,21.99,0.3,32.979c1.03,12.66,0.51,25.38,0.829,38.061  c0.121,7.66,0.391,16.189-4.279,22.689v0.5c1.471-0.42,2.91-0.899,4.34-1.399c0.48,1.68,0.74,3.41,0.689,5.16  c-0.029,10.659,0.201,21.33,0.181,31.99c0.08,5.67-1.41,11.299-4.05,16.31c1.43-0.54,2.859-1.09,4.27-1.649  c1.211,6.699,0.33,13.549,0.65,20.319c-0.109,10.511,0.68,21.04-0.189,31.53c-0.891,3.21-1.791,6.43-3.021,9.529  c1.39-0.449,2.771-0.91,4.149-1.34c0.121,15.43,0.24,30.87,0.431,46.301c1.14,11.629,0.579,23.34,0.86,35  c0.26,4.949-0.86,9.779-2.271,14.479c1.25,0.351,2.399,1.58,3.75,1.2c8.94-3.311,17.71-9.25,21.26-18.46  c3.69-8.47,2.28-17.87,2.63-26.82c5.711-2,10.271-6.21,13.82-10.979c2.21-3.391,3.04-7.42,4.439-11.16  c9.721-4.15,17.16-13.471,18.08-24.12c4.53-3.49,9.25-7.03,12.16-12.07c2.75-4.05,3.41-8.989,4.29-13.69  c0.13-1.489,0.26-2.989,0.4-4.479c4.58-3.56,8.949-7.899,11.05-13.409c1.89-7.621,1.939-15.58,1.64-23.391  c1.66-2.189,3.74-4,5.9-5.67c1.39-1.73,2.74-3.48,4.05-5.25l0.6-0.381c0.389-0.238,0.779-0.465,1.17-0.698  c0.021,3.85-0.06,7.729-0.659,11.549c-1.333,15.473-4.062,30.804-7.119,46.021c-2.12,9.04-3.8,18.18-6.36,27.11  c1.13-0.101,2.26-0.28,3.38-0.46c0.72-0.07,2.15-0.221,2.86-0.29c-1.44,7.37-4.13,14.41-6.56,21.5c-1.8,4.2-3.31,8.54-5.78,12.42  c-0.61,0.08-1.84,0.229-2.45,0.31l-1.25,0.9c1.63,0.7,3.27,1.399,4.77,2.37c3.79,3.1,4.6,8.13,4.08,12.76  c-1.37-1.29-2.54-2.76-3.57-4.32c0.07,5.101,0.24,10.32-1.38,15.24c-0.33,0.561-0.97,1.7-1.29,2.26c-1.53-0.1-3.36,0.53-4.52-0.8  c-1.86-1.25-1.09-3.81-0.88-5.649c0.19-3.971,3.13-8.391,0.71-12.08c-0.9-0.66-1.81-1.301-2.73-1.931  c0.99,5.37,1.8,11.021-0.26,16.261c-2.47,1.229-5.72,1.63-7.51-0.931c-3.72-4.64,1.23-10.17,0.54-15.28  c-0.45-3.26-0.58-6.55,0.4-9.729c4.2-0.29,6.59,3.31,8.51,6.44c0.4,0.479,1.2,1.449,1.6,1.93c0.48-1.2,0.96-2.391,1.43-3.58  c-0.52-0.57-1.02-1.15-1.51-1.72c-1.31-1.71-2.4-3.721-4.27-4.87c-1.95-0.66-4.07-0.351-6.08-0.431c-1.62,1.62-3.15,3.391-3.65,5.7  c-8.7,5.74-17.82,10.84-26.58,16.5c-3.35,1.851-6.61,3.86-9.82,5.971c0.21,6.92-0.08,13.84,0.25,20.76  c0.94,9.1,0.26,18.27,0.51,27.41c45.89,26.949,98.71,41.659,151.86,43.31c3.87-0.4,6.35,3.06,8.96,5.3h1.1  c2.13-1.689,4.21-3.439,6.32-5.149c9.86-0.28,19.74-0.78,29.55-1.9c34.71-3.57,68.96-12.7,100.53-27.63  c1.09-0.47,2.18-0.94,3.25-1.43c6.13-2.96,12.2-6.021,18.2-9.2c1.73-1.021,4.12-2.26,3.75-4.65c0.2-15.25,0.26-30.49,0.38-45.74  c-11.87-7.649-23.83-15.17-35.88-22.529c-0.31-0.681-0.92-2.03-1.23-2.71c-0.84-2.49-3.55-3.4-5.96-3.08  c-3.5-0.271-5.22,3.27-6.94,5.67c-0.8-0.79-1.59-1.59-2.37-2.38c-1.15-0.41-2.29-0.811-3.43-1.21c-4.9-10.71-8.9-21.851-11.46-33.36  c2.1,0.35,4.19,0.76,6.29,1.12c-5.67-23.771-10.53-47.811-12.63-72.19c-0.6-3.819-0.68-7.699-0.66-11.549  c0.391,0.234,0.781,0.46,1.17,0.699l0.6,0.38c1.31,1.771,2.66,3.521,4.05,5.25c2.16,1.67,4.24,3.48,5.9,5.67  c-0.3,7.811-0.25,15.771,1.64,23.391c2.1,5.51,6.47,9.85,11.05,13.409c0.14,1.49,0.27,2.99,0.4,4.48c0.88,4.7,1.54,9.64,4.29,13.689  c2.91,5.04,7.63,8.58,12.16,12.07c0.92,10.65,8.36,19.97,18.08,24.12c1.4,3.74,2.23,7.77,4.44,11.16  c3.55,4.77,8.11,8.979,13.82,10.979c0.35,8.95-1.06,18.351,2.63,26.82c3.55,9.21,12.32,15.15,21.26,18.46  c1.35,0.38,2.5-0.85,3.75-1.2c-1.41-4.7-2.53-9.529-2.27-14.479c0.28-11.66-0.28-23.37,0.86-35c0.19-15.431,0.31-30.87,0.43-46.3  c1.38,0.43,2.76,0.89,4.15,1.34c-1.23-3.101-2.13-6.32-3.02-9.53c-0.87-10.49-0.08-21.02-0.19-31.53  c0.32-6.77-0.56-13.62,0.65-20.319c1.41,0.56,2.84,1.109,4.27,1.649c-2.64-5.01-4.13-10.64-4.05-16.31  c-0.02-10.66,0.21-21.33,0.18-31.99C391.42,239.186,391.681,237.455,392.161,235.775z M117,253c55,3,109,2,164,2  C226,255,172,256,117,253z"
   id="path3122" />
<path
   fill="#FFFFFF"
   stroke="#000000"
   d="M312.2,399.74c-0.96,4.63-1.3,9.38-0.76,14.09c-0.9-0.31-2.23-0.3-2.4-1.55  c-1.24-5.02-1.3-10.24-1.63-15.38c0.14-1.62-1.29-2.57-2.2-3.68c-2.62,1.35-5.13,3.13-6.07,6.08c-0.17,2.55-0.15,5.11-0.18,7.67  l0.58-0.69c0.46-1.6,1.27-2.99,2.92-3.51c0.09,3.59-0.05,7.18-0.16,10.78c0.24,2.67,1.38,5.12,3.1,7.17  c3.93,0.08,5.36-3.56,6.33-6.72c0.92,4.54,6.76,3.94,8.61,0.57c2.23-4.01-0.82-8.32-0.98-12.47c0.05-0.39,0.13-1.16,0.17-1.55  c0.1-3.36,0.07-6.72-0.24-10.07c-6.23-0.57-9.56,6.42-9.88,11.69C310.11,401.56,311.5,400.35,312.2,399.74z"
   id="path3124" />
<path
   fill="#FFFFFF"
   stroke="#000000"
   d="M141.23,338.28c-5.28,7.24-9.56,15.17-13.26,23.32c-1.94,3.71-2.84,7.82-3.69,11.89  c-0.74-1.34-1.1-2.97-2.34-3.95c-1.9,2.42-2.88,5.4-4.38,8.07c-2.7,5.36-6.59,10.31-7.71,16.33c0.29,7.81,3.74,15.52,9.39,20.94  c22.81,6.91,46.39,12.02,70.29,12.28c2.55,1.7,4.95,3.6,7.47,5.34c2.49-1.74,4.89-3.62,7.45-5.27c19.96-0.05,39.78-3.49,59.08-8.44  c3.76-1.15,7.45-2.56,11.26-3.54c3.15-3.6,6.05-7.54,7.52-12.14c1.12-3.82,2.46-8.03,0.59-11.83c-2.98-7.42-7.47-14.11-10.86-21.34  c-0.85,1.42-1.67,2.87-2.52,4.3c-0.45-6.03-2.94-11.62-5.67-16.93c-5.42-11.32-12.21-22.09-20.58-31.46  c2.3,12.47,7.17,24.31,9.94,36.67c4.67,13.04,5.76,27.97,15.03,38.9c-5.96,3.03-13.02,2.67-19.35,1.11  c1.52,2.96,0.19,6.15-1.77,8.53c-3.19,2.66-7.62,3.43-11.61,2.45c-2.27-0.81-3.84-2.72-5.58-4.28c-1.48,4.95-5.66,8.39-10.6,9.55  c-4.99-0.08-9.41-2.65-12.43-6.54c-1.76,4.88-5.92,7.89-9.99,10.74c-2.52-1.82-5.11-3.57-7.27-5.82c-1.19-1.58-2.2-3.29-3.29-4.93  c-3.07,4.79-9.4,7.41-14.9,5.62c-3.71-1.81-6.15-5.18-8.12-8.68c-1.33,1.2-2.62,2.46-4.05,3.56c-4.42,1.92-10,0.81-13.33-2.66  c-2.14-2.2-1.68-5.38-1.66-8.17c-6.02,1.82-12.66,1.33-18.6-0.6c5.55-7.6,8.9-16.49,11.13-25.57c3.35-11.06,6.31-22.23,9.95-33.19  c1.38-5.83,3.7-11.4,4.87-17.28C147.46,328.98,144.5,333.79,141.23,338.28z"
   id="path3126" />
<path
   fill="#FFFFFF"
   stroke="#000000"
   d="M321.44,401.78c0.52,3.43,1.92,6.72,2.11,10.2c-0.3,5.46-5.79,7.92-9.14,11.42  c-0.21,0.02-0.62,0.06-0.82,0.08c-0.27-1.27-0.54-2.53-0.81-3.79c-3.18,2.42-5.34,6.21-9.3,7.51c0.41-1.29,0.84-2.57,1.27-3.84  c-2.8-1.05-4.55,1.12-5.76,3.31c-1.05,1.43-2.73,2.11-4.27,2.87c-0.07-0.67-0.22-2.01-0.3-2.68c-3.88-1.67-5.42-5.63-5.13-9.65  c-0.57,0.22-1.71,0.65-2.28,0.86c-10.85,4.25-22.14,7.16-33.39,10.11c-15.35,3.26-30.92,5.5-46.6,6.17  c-4.19-0.39-6.3,3.96-9.81,5.28c-3.7-1.05-5.98-5.46-10.19-5.39c-11.62-0.7-23.24-1.79-34.66-4.11  c-16.24-3.17-32.31-7.53-47.62-13.84c-0.51,3.95-1.44,8.49-5.82,9.8c-0.15,0.76-0.47,2.29-0.62,3.06c-3.22-2.12-4.78-6.82-8.95-7.15  c0.06,1.53,0.12,3.06,0.18,4.59c-1.08-0.75-2.18-1.45-3.22-2.26c-1.85-1.94-3.68-3.89-5.66-5.69c-0.07,0.98-0.2,2.94-0.27,3.92  c-3.71-1.65-6.76-4.59-9.11-7.85c-2.55-4.11,0.08-8.73,1.11-12.85c-0.65-1.44-2.2-2.12-3.51-1.07c-6.6,4.47-13.26,8.86-19.88,13.29  c-2.33,1.66-4.89,3.02-6.97,5c-0.8,1.47-0.41,3.26-0.55,4.88c0.03,11.75,0.34,23.5,0.17,35.25c4.66,3.27,9.89,5.56,14.95,8.13  c13.84,6.83,28.21,12.62,42.95,17.21c15.79,4.72,31.88,8.54,48.19,10.97c8.72,1.09,17.44,2.17,26.2,2.88  c5.59,0.43,11.28-0.09,16.78,1.11c2.81,1.05,5.35,6.11,8.33,2.61c1.53-1.07,2.85-2.93,4.94-2.75c14.65-0.61,29.3-1.58,43.8-3.84  c18.73-2.63,37.18-7.22,55.1-13.25c10.98-3.61,21.69-8,32.12-12.98c1.91-0.88,3.81-1.75,5.7-2.66c3.64-1.76,7.18-3.69,10.77-5.54  c0.51-13.45,0.87-26.88,1.02-40.34c-9.09-6.74-18.68-12.78-27.81-19.47C323.6,401.45,322.52,401.61,321.44,401.78z"
   id="path3128" />
<g
   id="g3130">
	<radialGradient
   id="SVGID_1_"
   cx="195"
   cy="197.5"
   r="216.5023"
   gradientUnits="userSpaceOnUse">
		<stop
   offset="0.5294"
   style="stop-color:#C7BCBC"
   id="stop3133" />
		<stop
   offset="0.5374"
   style="stop-color:#C9BEBE"
   id="stop3135" />
		<stop
   offset="0.6537"
   style="stop-color:#E0DADA"
   id="stop3137" />
		<stop
   offset="0.7701"
   style="stop-color:#F1EFEF"
   id="stop3139" />
		<stop
   offset="0.8858"
   style="stop-color:#FCFBFB"
   id="stop3141" />
		<stop
   offset="1"
   style="stop-color:#FFFFFF"
   id="stop3143" />
	</radialGradient>
	<path
   fill="url(#SVGID_1_)"
   stroke="#000000"
   d="M165.66,329.54c-0.75,3.5-1.44,7.01-2.1,10.54c-0.11,0.5-0.34,1.5-0.45,2.01   l-0.23,0.94c-3.09,15-6.38,29.96-9.38,44.99c-0.95,5.03-2.52,9.92-3.79,14.88c0.22,0.67,0.67,2.01,0.9,2.68   c2.52,1.23,5.44,1.67,8.18,0.94c1.82-1.1,2.69-3.14,3.47-5.01c2.87-16.71,5.28-33.5,8.03-50.22c1.37-8.02,2.64-16.06,3.94-24.09   c0.76-4.33,1.48-8.66,2.44-12.95c-2.43-0.52-4.92-0.76-7.4-0.89C167.83,318.7,166.74,324.12,165.66,329.54z"
   id="path3145" />
	<radialGradient
   id="SVGID_2_"
   cx="195"
   cy="197.5"
   r="216.5023"
   gradientUnits="userSpaceOnUse">
		<stop
   offset="0.5294"
   style="stop-color:#C7BCBC"
   id="stop3148" />
		<stop
   offset="0.5374"
   style="stop-color:#C9BEBE"
   id="stop3150" />
		<stop
   offset="0.6537"
   style="stop-color:#E0DADA"
   id="stop3152" />
		<stop
   offset="0.7701"
   style="stop-color:#F1EFEF"
   id="stop3154" />
		<stop
   offset="0.8858"
   style="stop-color:#FCFBFB"
   id="stop3156" />
		<stop
   offset="1"
   style="stop-color:#FFFFFF"
   id="stop3158" />
	</radialGradient>
	<path
   fill="url(#SVGID_2_)"
   stroke="#000000"
   d="M150.15,342.15c-1.57,5.19-2.82,10.47-4.29,15.7c-2.08,7.3-4.01,14.64-6.05,21.95   c-1.61,6.3-2.84,12.86-6.45,18.4c2.52,0.1,5.04,0.33,7.56,0.08c3.69-0.64,6.8-3.63,7.53-7.32c2.83-12.48,5.55-24.98,8.31-37.47   c0.82-3.72,2.1-7.39,2.05-11.24l0.41,0.97c1.45-5.66,2.42-11.44,4.04-17.06c0.15-1.08,0.31-2.16,0.46-3.24l0.5-0.79   c0.46-2.72,1.15-5.4,1.68-8.11c-5.07,1.42-10.47,5.26-11.17,10.88c-0.56,2.34-1.25,4.64-1.96,6.94l0.11,0.41   c-0.18,0.72-0.54,2.16-0.72,2.88C151.41,337.44,150.72,339.78,150.15,342.15z"
   id="path3160" />
	<radialGradient
   id="SVGID_3_"
   cx="195"
   cy="197.5"
   r="216.5023"
   gradientUnits="userSpaceOnUse">
		<stop
   offset="0.5294"
   style="stop-color:#C7BCBC"
   id="stop3163" />
		<stop
   offset="0.5374"
   style="stop-color:#C9BEBE"
   id="stop3165" />
		<stop
   offset="0.6537"
   style="stop-color:#E0DADA"
   id="stop3167" />
		<stop
   offset="0.7701"
   style="stop-color:#F1EFEF"
   id="stop3169" />
		<stop
   offset="0.8858"
   style="stop-color:#FCFBFB"
   id="stop3171" />
		<stop
   offset="1"
   style="stop-color:#FFFFFF"
   id="stop3173" />
	</radialGradient>
	<path
   fill="url(#SVGID_3_)"
   stroke="#000000"
   d="M167.63,396.05c-0.71,4.06-0.48,8.42,1.99,11.88l0.17,0.32   c2.46,1.87,5.8,3.18,8.77,1.61c4.58-2.1,6.49-7.21,6.79-11.93c0.98-8.86,1.1-17.76,1.92-26.62c0.25-6.37,0.54-12.73,1.05-19.09   c0.29-9.33,1.24-18.62,1.39-27.95c0.02-1.82-0.01-3.63-0.03-5.44c-3.17-1.64-6.47-3.06-9.98-3.77c-0.33,2.32-0.71,4.63-1,6.95   c-1.02,7.1-2.12,14.19-3.12,21.29c-1.34,8.99-2.71,17.99-4.01,26.99C170.24,378.87,169.07,387.48,167.63,396.05z"
   id="path3175" />
	<radialGradient
   id="SVGID_4_"
   cx="195"
   cy="197.5"
   r="216.5023"
   gradientUnits="userSpaceOnUse">
		<stop
   offset="0.5294"
   style="stop-color:#C7BCBC"
   id="stop3178" />
		<stop
   offset="0.5374"
   style="stop-color:#C9BEBE"
   id="stop3180" />
		<stop
   offset="0.6537"
   style="stop-color:#E0DADA"
   id="stop3182" />
		<stop
   offset="0.7701"
   style="stop-color:#F1EFEF"
   id="stop3184" />
		<stop
   offset="0.8858"
   style="stop-color:#FCFBFB"
   id="stop3186" />
		<stop
   offset="1"
   style="stop-color:#FFFFFF"
   id="stop3188" />
	</radialGradient>
	<path
   fill="url(#SVGID_4_)"
   stroke="#000000"
   d="M203.12,400.08c0.31-11.15-0.53-22.29-0.58-33.44c0.09-15-0.22-30.01-0.97-44.99   c-2.02,1.69-3.36,3.96-4.47,6.31c-0.72-1.77-1.5-3.5-2.4-5.18c-0.7-0.23-1.39-0.46-2.08-0.7c-0.18,11.29-0.07,22.6-0.95,33.86   c-0.22,16.43-0.84,32.86-0.46,49.29c0.4,3.56,2.6,6.47,4.98,9C201.8,412,202.93,405.41,203.12,400.08z"
   id="path3190" />
	<radialGradient
   id="SVGID_5_"
   cx="195"
   cy="197.5"
   r="216.5023"
   gradientUnits="userSpaceOnUse">
		<stop
   offset="0.5294"
   style="stop-color:#C7BCBC"
   id="stop3193" />
		<stop
   offset="0.5374"
   style="stop-color:#C9BEBE"
   id="stop3195" />
		<stop
   offset="0.6537"
   style="stop-color:#E0DADA"
   id="stop3197" />
		<stop
   offset="0.7701"
   style="stop-color:#F1EFEF"
   id="stop3199" />
		<stop
   offset="0.8858"
   style="stop-color:#FCFBFB"
   id="stop3201" />
		<stop
   offset="1"
   style="stop-color:#FFFFFF"
   id="stop3203" />
	</radialGradient>
	<path
   fill="url(#SVGID_5_)"
   stroke="#000000"
   d="M218.2,314.4c1.06,7.46,2.57,14.85,3.37,22.35l0.62,0.05   c0.32,6.86,1.5,13.7,2.87,20.43c1.95,14.82,4.07,29.65,6.59,44.39c0.46,4.22,4.48,6.67,8.52,5.85c1.14-0.76,2.75-1,3.39-2.34   c0.62-3.45-0.69-6.8-1.81-9.99c-1.91-9.41-3.69-18.86-5.56-28.28c-0.73-3.07-1.27-6.18-1.84-9.29c-1.8-8.46-3.11-17.03-5.23-25.42   c-0.73-6.19-2.18-12.5-3.74-18.6C222.97,313.69,220.58,313.98,218.2,314.4z"
   id="path3205" />
	<radialGradient
   id="SVGID_6_"
   cx="195"
   cy="197.5"
   r="216.5023"
   gradientUnits="userSpaceOnUse">
		<stop
   offset="0.5294"
   style="stop-color:#C7BCBC"
   id="stop3208" />
		<stop
   offset="0.5374"
   style="stop-color:#C9BEBE"
   id="stop3210" />
		<stop
   offset="0.6537"
   style="stop-color:#E0DADA"
   id="stop3212" />
		<stop
   offset="0.7701"
   style="stop-color:#F1EFEF"
   id="stop3214" />
		<stop
   offset="0.8858"
   style="stop-color:#FCFBFB"
   id="stop3216" />
		<stop
   offset="1"
   style="stop-color:#FFFFFF"
   id="stop3218" />
	</radialGradient>
	<path
   fill="url(#SVGID_6_)"
   stroke="#000000"
   d="M239.58,363.21c0.98,5.32,2.17,10.62,3.3,15.91c0.4,1.63,0.7,3.27,1.03,4.92   c1.25,4.21,0.87,9.43,4.53,12.5c3.03,3.08,7.78,2.02,11.64,1.97c-3.12-5.48-4.39-11.68-5.84-17.73c-1.57-5.52-2.8-11.13-4.36-16.65   c-0.84-3.32-1.65-6.64-2.8-9.86c-0.54-4.41-2.25-8.76-3.18-13.16c-0.53-1.99-1.11-3.96-1.81-5.89c-0.66-4.68-2.18-9.54-3.56-14.16   c-2.72-2.94-5.87-6.18-10.03-6.81c2.83,10.53,4.8,21.28,7.28,31.9C236.99,351.85,238.19,357.55,239.58,363.21z"
   id="path3220" />
	<radialGradient
   id="SVGID_7_"
   cx="195"
   cy="197.5"
   r="216.5023"
   gradientUnits="userSpaceOnUse">
		<stop
   offset="0.5294"
   style="stop-color:#C7BCBC"
   id="stop3223" />
		<stop
   offset="0.5374"
   style="stop-color:#C9BEBE"
   id="stop3225" />
		<stop
   offset="0.6537"
   style="stop-color:#E0DADA"
   id="stop3227" />
		<stop
   offset="0.7701"
   style="stop-color:#F1EFEF"
   id="stop3229" />
		<stop
   offset="0.8858"
   style="stop-color:#FCFBFB"
   id="stop3231" />
		<stop
   offset="1"
   style="stop-color:#FFFFFF"
   id="stop3233" />
	</radialGradient>
	<path
   fill="url(#SVGID_7_)"
   stroke="#000000"
   d="M215.19,315.37c-3.43-0.05-6.36,1.96-9.49,3.07c-0.91,3.77-0.3,7.68-0.37,11.51   c0.37,8.07-0.26,16.22,1.14,24.2c-0.36,10.37,0.79,20.7,1.23,31.05c-0.23,4.66,0.82,9.26,0.94,13.91   c0.23,5.15,3.59,11.28,9.29,11.5c4.44,0.66,7.78-3.63,8.41-7.59c0.67-5.03-0.84-10-1.48-14.95c-0.39-4.74-1.47-9.39-1.75-14.14   c-0.47-2.08-0.72-4.2-1-6.3l0.15-0.59c-1.58-7.25-1.89-14.72-3.36-21.99c-0.22-1.77-0.4-3.54-0.66-5.3c0.09-2.03-0.72-4-0.76-6.04   C216.85,327.58,215.54,321.53,215.19,315.37z"
   id="path3235" />
</g>
<path
   fill="#FFFFFF"
   stroke="#000000"
   d="M100.48,422.58c2.03-6.31,0.68-13.21,3.1-19.48c0.38,0.09,1.14,0.27,1.51,0.36  c1.61,2.86,3.51,5.53,5.58,8.07c0.59,0.01,1.79,0.04,2.38,0.06c-4.08-5.38-5.78-12.23-10.4-17.2c-1.01-0.29-2.01-0.59-3-0.92  c-2.75,1.69-2.84,5.1-3.06,7.99c-0.1,4.73-2.45,8.97-3.74,13.44c-0.13,1.61-0.18,3.23-0.26,4.86  C94.45,422.41,97.49,422.8,100.48,422.58z"
   id="path3237" />
<g
   id="g3239">
	<radialGradient
   id="SVGID_8_"
   cx="365"
   cy="111"
   r="211.0095"
   gradientUnits="userSpaceOnUse">
		<stop
   offset="0.6878"
   style="stop-color:#9B7932"
   id="stop3242" />
		<stop
   offset="0.7225"
   style="stop-color:#A28240"
   id="stop3244" />
		<stop
   offset="0.7885"
   style="stop-color:#B49B66"
   id="stop3246" />
		<stop
   offset="0.879"
   style="stop-color:#D2C3A3"
   id="stop3248" />
		<stop
   offset="0.9896"
   style="stop-color:#FBFAF7"
   id="stop3250" />
		<stop
   offset="1"
   style="stop-color:#FFFFFF"
   id="stop3252" />
	</radialGradient>
	<path
   fill="url(#SVGID_8_)"
   d="M317.1,274.89c1.56,5.57,4.52,10.84,9.28,14.28c-0.07-0.98-0.14-1.94-0.21-2.91   c0.05-3.7,0.17-7.39,0.16-11.08c0.01-3.42,0.04-6.84,0.1-10.25c0.05-2.7,0.07-5.39,0.08-8.09c0-1.55,0-3.1,0.01-4.64   c-3.24-2.31-6.37-4.76-9.62-7.05c-0.13,2.79-0.22,5.58-0.23,8.37c-0.01,2.14-0.02,4.28-0.02,6.41c-0.01,2.62-0.06,5.23-0.06,7.85   c0.03,2.1,0.09,4.21,0.26,6.32C316.91,274.29,317.04,274.69,317.1,274.89z"
   id="path3254" />
	<radialGradient
   id="SVGID_9_"
   cx="365"
   cy="111"
   r="211.0095"
   gradientUnits="userSpaceOnUse">
		<stop
   offset="0.6878"
   style="stop-color:#9B7932"
   id="stop3257" />
		<stop
   offset="0.7225"
   style="stop-color:#A28240"
   id="stop3259" />
		<stop
   offset="0.7885"
   style="stop-color:#B49B66"
   id="stop3261" />
		<stop
   offset="0.879"
   style="stop-color:#D2C3A3"
   id="stop3263" />
		<stop
   offset="0.9896"
   style="stop-color:#FBFAF7"
   id="stop3265" />
		<stop
   offset="1"
   style="stop-color:#FFFFFF"
   id="stop3267" />
	</radialGradient>
	<path
   fill="url(#SVGID_9_)"
   d="M334.78,294.08c0.07,0.16,0.21,0.48,0.28,0.63c2.02,3.9,4.63,7.69,8.52,9.93   c0.25,0.15,0.75,0.46,1.01,0.62c0.07-7.1-0.1-14.19,0.11-21.29v-1.11c-0.01-1.58-0.03-3.15-0.01-4.72c0-1.51,0.01-3.01,0.02-4.51   c0.28-3.52,0.94-7.08,0.38-10.61c-3.44-3.43-7.74-6.36-12.61-7.29c0.17,3.39,0.24,6.78,0.25,10.17c0.01,3.12-0.06,6.23-0.13,9.35   C332.55,281.57,331.75,288.24,334.78,294.08z"
   id="path3269" />
	<radialGradient
   id="SVGID_10_"
   cx="365"
   cy="111"
   r="211.0095"
   gradientUnits="userSpaceOnUse">
		<stop
   offset="0.6878"
   style="stop-color:#9B7932"
   id="stop3272" />
		<stop
   offset="0.7225"
   style="stop-color:#A28240"
   id="stop3274" />
		<stop
   offset="0.7885"
   style="stop-color:#B49B66"
   id="stop3276" />
		<stop
   offset="0.879"
   style="stop-color:#D2C3A3"
   id="stop3278" />
		<stop
   offset="0.9896"
   style="stop-color:#FBFAF7"
   id="stop3280" />
		<stop
   offset="1"
   style="stop-color:#FFFFFF"
   id="stop3282" />
	</radialGradient>
	<path
   fill="url(#SVGID_10_)"
   d="M299.95,252.19c0.49,1.51,1.15,2.98,1.92,4.39c2.02,3.52,4.84,6.56,8.27,8.75   c0-0.7,0.01-2.11,0.01-2.81c0.1-3.77,0.17-7.53,0.22-11.3c0.06-3.36,0.09-6.72,0.13-10.08c-3.87-3.22-7.18-7.01-10.56-10.72   c-0.24,5.93-0.12,11.87,0.13,17.8C300.03,249.54,299.99,250.86,299.95,252.19z"
   id="path3284" />
	<radialGradient
   id="SVGID_11_"
   cx="365"
   cy="111"
   r="211.0095"
   gradientUnits="userSpaceOnUse">
		<stop
   offset="0.6878"
   style="stop-color:#9B7932"
   id="stop3287" />
		<stop
   offset="0.7225"
   style="stop-color:#A28240"
   id="stop3289" />
		<stop
   offset="0.7885"
   style="stop-color:#B49B66"
   id="stop3291" />
		<stop
   offset="0.879"
   style="stop-color:#D2C3A3"
   id="stop3293" />
		<stop
   offset="0.9896"
   style="stop-color:#FBFAF7"
   id="stop3295" />
		<stop
   offset="1"
   style="stop-color:#FFFFFF"
   id="stop3297" />
	</radialGradient>
	<path
   fill="url(#SVGID_11_)"
   d="M383.54,306.27c0.02-2.52,0-5.04,0.04-7.55c0.03-1.94,0.09-3.87,0.15-5.8   c0.05-2.59,0.03-5.17,0.02-7.76c-1.84-1.15-3.67-2.31-5.46-3.51c-1.9-1.31-3.67-2.78-5.39-4.31c-0.55,0.03-1.66,0.07-2.21,0.09   c-0.02,3.61,0.01,7.22,0.05,10.82c0.01,2.21,0,4.42-0.01,6.64c-0.01,2.8-0.01,5.6,0.01,8.4c0.01,3.57-0.05,7.14-0.06,10.72   c0,2.42,0.1,4.85,0.47,7.26c2.45,6.86,7.82,12.15,14.11,15.61c-0.75-2.52-1.41-5.06-1.94-7.62   C383.52,321.59,383.46,313.93,383.54,306.27z"
   id="path3299" />
	<radialGradient
   id="SVGID_12_"
   cx="365"
   cy="111"
   r="211.0095"
   gradientUnits="userSpaceOnUse">
		<stop
   offset="0.6878"
   style="stop-color:#9B7932"
   id="stop3302" />
		<stop
   offset="0.7225"
   style="stop-color:#A28240"
   id="stop3304" />
		<stop
   offset="0.7885"
   style="stop-color:#B49B66"
   id="stop3306" />
		<stop
   offset="0.879"
   style="stop-color:#D2C3A3"
   id="stop3308" />
		<stop
   offset="0.9896"
   style="stop-color:#FBFAF7"
   id="stop3310" />
		<stop
   offset="1"
   style="stop-color:#FFFFFF"
   id="stop3312" />
	</radialGradient>
	<path
   fill="url(#SVGID_12_)"
   d="M363.66,320.03c0.01-6.11-0.11-12.23-0.02-18.34l0.02-0.52c0.11-2.9,0.13-5.81,0.09-8.71   c0.21-1.31,0.42-2.63,0.62-3.94l0.11-0.84c0.1-2.18,0.18-4.36,0.18-6.54c-0.05-2.28-0.13-4.56-0.2-6.83   c-4.58-2.47-8.12-6.44-12.77-8.76c-0.06,1.92-0.09,3.85-0.09,5.77c0.02,0.91,0.05,2.73,0.06,3.63c0.06,3.05,0.01,6.11-0.04,9.16   c-0.03,2.13-0.06,4.27-0.09,6.41c-0.03,1.72-0.07,3.44-0.05,5.17c-0.22,5.23-0.21,10.58,1.59,15.58c0.58,1.19,1.18,2.38,1.73,3.6   c2.54,3.83,5.8,7.26,9.96,9.32c-0.14-2.15-0.33-4.31-0.42-6.46C364.12,318.5,363.89,319.26,363.66,320.03z"
   id="path3314" />
</g>
<g
   id="g3316">
	<radialGradient
   id="SVGID_13_"
   cx="387"
   cy="43"
   r="205.3412"
   gradientUnits="userSpaceOnUse">
		<stop
   offset="0.819"
   style="stop-color:#C7BCBC"
   id="stop3319" />
		<stop
   offset="0.8625"
   style="stop-color:#D0C7C7"
   id="stop3321" />
		<stop
   offset="0.9377"
   style="stop-color:#E7E3E3"
   id="stop3323" />
		<stop
   offset="1"
   style="stop-color:#FFFFFF"
   id="stop3325" />
	</radialGradient>
	<path
   fill="url(#SVGID_13_)"
   stroke="#000000"
   d="M377.6,270.3c2.54,2.74,5.65,4.85,8.87,6.72c-0.96-3.28-2.05-6.6-2.04-10.05   c-0.17-11.33,0.45-22.67,0.06-33.99c-4.84-1.67-7.72-6.7-12.71-7.8c0.09,5.1-0.04,10.21,0.01,15.32c-0.22,4-0.21,8-0.18,12   C371.16,258.96,373.7,265.25,377.6,270.3z"
   id="path3327" />
	<radialGradient
   id="SVGID_14_"
   cx="387"
   cy="43"
   r="205.3412"
   gradientUnits="userSpaceOnUse">
		<stop
   offset="0.819"
   style="stop-color:#C7BCBC"
   id="stop3330" />
		<stop
   offset="0.8625"
   style="stop-color:#D0C7C7"
   id="stop3332" />
		<stop
   offset="0.9377"
   style="stop-color:#E7E3E3"
   id="stop3334" />
		<stop
   offset="1"
   style="stop-color:#FFFFFF"
   id="stop3336" />
	</radialGradient>
	<path
   fill="url(#SVGID_14_)"
   stroke="#000000"
   d="M334.67,239.48c2.5,5.67,6.35,10.96,12,13.81c-0.54-3.09-1.14-6.19-1.13-9.34   c0-11.28,0.26-22.56-0.11-33.83l-0.19-0.3l-1.04-0.76c-0.88-0.58-1.78-1.13-2.66-1.67c-1.08-0.64-2.16-1.27-3.3-1.78   c-0.63-0.23-1.89-0.68-2.52-0.91c-0.48-0.12-1.46-0.36-1.95-0.48c-0.05,4.16-0.18,8.32-0.18,12.49c0.01,1.24,0.03,2.49,0.07,3.73   C333.57,226.8,333,233.26,334.67,239.48z"
   id="path3338" />
	<radialGradient
   id="SVGID_15_"
   cx="387"
   cy="43"
   r="205.3412"
   gradientUnits="userSpaceOnUse">
		<stop
   offset="0.819"
   style="stop-color:#C7BCBC"
   id="stop3341" />
		<stop
   offset="0.8625"
   style="stop-color:#D0C7C7"
   id="stop3343" />
		<stop
   offset="0.9377"
   style="stop-color:#E7E3E3"
   id="stop3345" />
		<stop
   offset="1"
   style="stop-color:#FFFFFF"
   id="stop3347" />
	</radialGradient>
	<path
   fill="url(#SVGID_15_)"
   stroke="#000000"
   d="M318.23,229.82c1.49,4.98,4.78,9.12,8.46,12.68c0.48,0.07,1.44,0.19,1.92,0.25   c-0.5-1.7-0.99-3.41-1.45-5.11c-0.18-12.28,0.64-24.6-0.09-36.85c-3.47-2.37-6.51-5.26-9.6-8.08c-0.16,6.75-0.04,13.52-0.48,20.26   c-0.27,4.12-0.28,8.28,0.4,12.36C317.58,226.84,317.86,228.34,318.23,229.82z"
   id="path3349" />
	<radialGradient
   id="SVGID_16_"
   cx="387"
   cy="43"
   r="205.3412"
   gradientUnits="userSpaceOnUse">
		<stop
   offset="0.819"
   style="stop-color:#C7BCBC"
   id="stop3352" />
		<stop
   offset="0.8625"
   style="stop-color:#D0C7C7"
   id="stop3354" />
		<stop
   offset="0.9377"
   style="stop-color:#E7E3E3"
   id="stop3356" />
		<stop
   offset="1"
   style="stop-color:#FFFFFF"
   id="stop3358" />
	</radialGradient>
	<path
   fill="url(#SVGID_16_)"
   stroke="#000000"
   d="M365.12,257.63c0.31-10.21,0.05-20.43,0.42-30.64c0.01-1.73,0.14-3.54-0.58-5.15   c-4.42-2.22-8.08-5.54-11.82-8.69c-0.15,0.06-0.47,0.17-0.63,0.23c0.22,6.66-0.29,13.32,0,19.98c-0.2,6.24-1.02,12.83,1.53,18.74   c2.27,5.67,6.66,10.53,12.3,12.99c-0.38-1.92-0.77-3.84-0.99-5.78C365.29,258.89,365.18,258.05,365.12,257.63z"
   id="path3360" />
	<radialGradient
   id="SVGID_17_"
   cx="387"
   cy="43"
   r="205.3412"
   gradientUnits="userSpaceOnUse">
		<stop
   offset="0.819"
   style="stop-color:#C7BCBC"
   id="stop3363" />
		<stop
   offset="0.8625"
   style="stop-color:#D0C7C7"
   id="stop3365" />
		<stop
   offset="0.9377"
   style="stop-color:#E7E3E3"
   id="stop3367" />
		<stop
   offset="1"
   style="stop-color:#FFFFFF"
   id="stop3369" />
	</radialGradient>
	<path
   fill="url(#SVGID_17_)"
   stroke="#000000"
   d="M300.54,218.6c1.47,6.02,6.32,10.45,10.96,14.21c-0.41-2.95-0.9-5.9-0.93-8.88   c0-11.77,0.27-23.55-0.06-35.33c-1.5-1.27-3-2.53-4.39-3.91c-2.01-2.2-3.81-4.57-5.67-6.88c0.03,5.92-0.3,11.86,0.07,17.78   C300.47,203.25,300.08,210.94,300.54,218.6z"
   id="path3371" />
</g>
<path
   fill="#FFFFFF"
   stroke="#000000"
   d="M285.13,409.74c1.45-2.1,2.76-4.3,4.15-6.44c3.96,5.59,1.23,12.71,3.41,18.82  c0.8,1.85,3.15,1.09,4.7,1.5c1.05-1.16,2.89-1.88,3.12-3.59c0.69-4.86-1.65-9.41-3.21-13.87c-1.1-3.21-0.7-6.69-1-10.02  c-0.53-0.44-1.58-1.31-2.11-1.74c-1.03,0.36-2.06,0.73-3.09,1.1c-0.84,0.84-1.66,1.71-2.44,2.61c-2.78,4.92-5.17,10.07-8.43,14.71  C282.38,412.75,284.04,411.55,285.13,409.74z"
   id="path3373" />
<g
   id="g3375">
	<radialGradient
   id="SVGID_18_"
   cx="503"
   cy="219"
   r="230.341"
   gradientUnits="userSpaceOnUse">
		<stop
   offset="0.8054"
   style="stop-color:#C7BCBC"
   id="stop3378" />
		<stop
   offset="0.8087"
   style="stop-color:#C9BEBE"
   id="stop3380" />
		<stop
   offset="0.8568"
   style="stop-color:#E0DADA"
   id="stop3382" />
		<stop
   offset="0.905"
   style="stop-color:#F1EFEF"
   id="stop3384" />
		<stop
   offset="0.9528"
   style="stop-color:#FCFBFB"
   id="stop3386" />
		<stop
   offset="1"
   style="stop-color:#FFFFFF"
   id="stop3388" />
	</radialGradient>
	<path
   fill="url(#SVGID_18_)"
   stroke="#000000"
   d="M316.55,329.1c1.06,4.76,4.01,8.78,7.16,12.41c0.41,0.09,1.25,0.29,1.67,0.39   c0.07-14.35,0.29-28.69,0.17-43.04c-3.4-2.29-6.54-4.94-9.18-8.09c-0.26,4.47-0.25,8.95-0.67,13.42   C316.15,312.48,314.7,320.93,316.55,329.1z"
   id="path3390" />
	<radialGradient
   id="SVGID_19_"
   cx="503"
   cy="219"
   r="230.341"
   gradientUnits="userSpaceOnUse">
		<stop
   offset="0.8054"
   style="stop-color:#C7BCBC"
   id="stop3393" />
		<stop
   offset="0.8087"
   style="stop-color:#C9BEBE"
   id="stop3395" />
		<stop
   offset="0.8568"
   style="stop-color:#E0DADA"
   id="stop3397" />
		<stop
   offset="0.905"
   style="stop-color:#F1EFEF"
   id="stop3399" />
		<stop
   offset="0.9528"
   style="stop-color:#FCFBFB"
   id="stop3401" />
		<stop
   offset="1"
   style="stop-color:#FFFFFF"
   id="stop3403" />
	</radialGradient>
	<path
   fill="url(#SVGID_19_)"
   stroke="#000000"
   d="M343.42,367.83c0.21-8.13,0.26-16.26,0.26-24.39c1.18-9.51,0.41-19.14,0.68-28.71   l-0.47,0.15c-3.82-2.29-7.42-4.98-10.39-8.31c-0.26-0.28-0.79-0.83-1.05-1.11c-0.17,10.19,0.16,20.4-0.66,30.57   c-0.09,5.17-0.36,10.37,0.36,15.51C333.69,358.19,337.7,364.08,343.42,367.83z"
   id="path3405" />
	<radialGradient
   id="SVGID_20_"
   cx="503"
   cy="219"
   r="230.341"
   gradientUnits="userSpaceOnUse">
		<stop
   offset="0.8054"
   style="stop-color:#C7BCBC"
   id="stop3408" />
		<stop
   offset="0.8087"
   style="stop-color:#C9BEBE"
   id="stop3410" />
		<stop
   offset="0.8568"
   style="stop-color:#E0DADA"
   id="stop3412" />
		<stop
   offset="0.905"
   style="stop-color:#F1EFEF"
   id="stop3414" />
		<stop
   offset="0.9528"
   style="stop-color:#FCFBFB"
   id="stop3416" />
		<stop
   offset="1"
   style="stop-color:#FFFFFF"
   id="stop3418" />
	</radialGradient>
	<path
   fill="url(#SVGID_20_)"
   stroke="#000000"
   d="M362.65,372.35c0.33-2.76,0.68-5.53,0.66-8.31c0-10.32,0.45-20.65,0.08-30.98   c-4.38-1.99-8.4-4.76-11.64-8.34c-0.33-0.23-0.98-0.7-1.3-0.94c0.05,10.72-0.08,21.44-0.16,32.16c0.09,6.1-1.33,12.31,0.53,18.28   l0.28,0.91c1.61,5.95,5.82,10.65,10.56,14.37c0.49,0.07,1.48,0.21,1.97,0.28C361.8,384.14,362.98,378.15,362.65,372.35z"
   id="path3420" />
	<radialGradient
   id="SVGID_21_"
   cx="503"
   cy="219"
   r="230.341"
   gradientUnits="userSpaceOnUse">
		<stop
   offset="0.8054"
   style="stop-color:#C7BCBC"
   id="stop3423" />
		<stop
   offset="0.8087"
   style="stop-color:#C9BEBE"
   id="stop3425" />
		<stop
   offset="0.8568"
   style="stop-color:#E0DADA"
   id="stop3427" />
		<stop
   offset="0.905"
   style="stop-color:#F1EFEF"
   id="stop3429" />
		<stop
   offset="0.9528"
   style="stop-color:#FCFBFB"
   id="stop3431" />
		<stop
   offset="1"
   style="stop-color:#FFFFFF"
   id="stop3433" />
	</radialGradient>
	<path
   fill="url(#SVGID_21_)"
   stroke="#000000"
   d="M381.47,424c0.2-13.36,0.03-26.75,0.77-40.09l-0.53-0.79   c0.15-0.51,0.44-1.55,0.59-2.06c0.31-10.1,0.17-20.21,0.36-30.31c0-1.95-0.03-3.89-0.05-5.83c-3.97-1.93-7.41-4.69-10.68-7.61   c-0.34-0.48-1.02-1.45-1.36-1.93c-0.26,2.83-0.21,5.7-0.71,8.51c-0.22,4.57-0.32,9.15-0.05,13.72   c-0.73,18.78-0.19,37.62-0.62,56.42c-0.78,9.23,6.82,16.36,14.15,20.61C382.45,431.14,381.23,427.67,381.47,424z"
   id="path3435" />
	<radialGradient
   id="SVGID_22_"
   cx="503"
   cy="219"
   r="230.341"
   gradientUnits="userSpaceOnUse">
		<stop
   offset="0.8054"
   style="stop-color:#C7BCBC"
   id="stop3438" />
		<stop
   offset="0.8087"
   style="stop-color:#C9BEBE"
   id="stop3440" />
		<stop
   offset="0.8568"
   style="stop-color:#E0DADA"
   id="stop3442" />
		<stop
   offset="0.905"
   style="stop-color:#F1EFEF"
   id="stop3444" />
		<stop
   offset="0.9528"
   style="stop-color:#FCFBFB"
   id="stop3446" />
		<stop
   offset="1"
   style="stop-color:#FFFFFF"
   id="stop3448" />
	</radialGradient>
	<path
   fill="url(#SVGID_22_)"
   stroke="#000000"
   d="M299.67,302.24c1.22,3.47,3.59,6.37,6.09,9.01c0.61,0.51,1.23,1.02,1.86,1.53   l0.45,0.35c0.33,0.25,1.01,0.76,1.35,1.01c0-13.33,0.54-26.71-0.14-40.01c-3.79-3.21-7.17-6.88-9.84-11.07   c0.02,2.82,0.04,5.64-0.13,8.46C299.61,281.75,298.5,292.07,299.67,302.24z"
   id="path3450" />
</g>
<path
   fill="#FFFFFF"
   stroke="#000000"
   d="M151.95,41.84c1.63-0.15,3.34-0.55,4.86,0.34c0.72,0.09,1.45,0.18,2.18,0.27  c-3.51-0.98-6.3-3.84-10-4.18c-2.95,0.79-5.4,2.8-8.05,4.27C144.61,43.05,148.37,42.76,151.95,41.84z"
   id="path3452" />
<path
   fill="#FFFFFF"
   stroke="#000000"
   d="M104.7,393.69c0.53,0.47,1.04,0.95,1.54,1.45c0.22-2.08,0.93-4.02,2.06-5.77  c1.51-2.31,1.12-5.3,2.45-7.69c2.04-2.46,5.23-4.3,5.68-7.76c0.94-4.61,3.75-8.65,3.91-13.45c-2.78,1.85-4.98,4.37-7.44,6.59  c-0.53-4.79-0.91-9.58-1.31-14.38c-1.71,1.67-3.38,3.4-4.84,5.31c-3.27,3.75-2.2,9.21-4.92,13.23c-1.5,2.3-1.37,5.14-2.16,7.69  c-0.91,2.11-3.1,3.48-3.65,5.79c-0.72,2.76-1.4,5.54-1.9,8.35c1.92-0.66,3.66-1.82,5.64-2.26  C101.73,391.06,103.33,392.34,104.7,393.69z"
   id="path3454" />
<path
   fill="#FFFFFF"
   stroke="#000000"
   d="M274.15,360.73c-0.08,2.89,0.42,5.75,1.76,8.34c1.61,3.22,1.19,7.43,4.04,9.99  c1.45,1.63,3.61,2.96,3.9,5.32c0.44,2.64,1.06,5.26,2.62,7.5c0.38,0.79,1.14,2.38,1.52,3.17c0.33-0.25,1.01-0.75,1.35-1  c1.45-1.08,3.02-2.33,4.92-2.41c1.94,0.42,3.59,1.67,5.48,2.28c-0.68-3.31-1.74-6.54-2.39-9.86c-1.24-1.57-3.02-2.92-3.38-4.99  c-0.49-2.43-0.58-5.01-1.96-7.15c-2-3.1-1.83-6.93-3.01-10.31c-1.5-3.23-4.06-5.79-6.57-8.25c0.02,4.88-0.76,9.71-1.3,14.56  C278.66,365.66,276.38,363.22,274.15,360.73z"
   id="path3456" />
<g
   id="g3458">
	<radialGradient
   id="SVGID_23_"
   cx="-136"
   cy="190"
   r="280.2427"
   gradientUnits="userSpaceOnUse">
		<stop
   offset="0.8054"
   style="stop-color:#C7BCBC"
   id="stop3461" />
		<stop
   offset="0.8087"
   style="stop-color:#C9BEBE"
   id="stop3463" />
		<stop
   offset="0.8568"
   style="stop-color:#E0DADA"
   id="stop3465" />
		<stop
   offset="0.905"
   style="stop-color:#F1EFEF"
   id="stop3467" />
		<stop
   offset="0.9528"
   style="stop-color:#FCFBFB"
   id="stop3469" />
		<stop
   offset="1"
   style="stop-color:#FFFFFF"
   id="stop3471" />
	</radialGradient>
	<path
   fill="url(#SVGID_23_)"
   stroke="#000000"
   d="M85.719,272.099c3.79-3.21,7.17-6.88,9.84-11.069   c-0.02,2.819-0.04,5.64,0.13,8.459c-0.3,10.23,0.811,20.551-0.359,30.721c-1.221,3.47-3.59,6.369-6.09,9.01   c-0.61,0.51-1.23,1.02-1.86,1.529l-0.45,0.351c-0.33,0.25-1.01,0.761-1.35,1.011C85.579,298.78,85.039,285.399,85.719,272.099z"
   id="path3473" />
	<radialGradient
   id="SVGID_24_"
   cx="-136"
   cy="190"
   r="280.2427"
   gradientUnits="userSpaceOnUse">
		<stop
   offset="0.8054"
   style="stop-color:#C7BCBC"
   id="stop3476" />
		<stop
   offset="0.8087"
   style="stop-color:#C9BEBE"
   id="stop3478" />
		<stop
   offset="0.8568"
   style="stop-color:#E0DADA"
   id="stop3480" />
		<stop
   offset="0.905"
   style="stop-color:#F1EFEF"
   id="stop3482" />
		<stop
   offset="0.9528"
   style="stop-color:#FCFBFB"
   id="stop3484" />
		<stop
   offset="1"
   style="stop-color:#FFFFFF"
   id="stop3486" />
	</radialGradient>
	<path
   fill="url(#SVGID_24_)"
   stroke="#000000"
   d="M69.449,296.829c3.399-2.289,6.54-4.939,9.18-8.09   c0.26,4.471,0.25,8.951,0.67,13.42c-0.45,8.291,1,16.74-0.85,24.91c-1.061,4.76-4.011,8.78-7.16,12.41   c-0.41,0.09-1.25,0.29-1.67,0.391C69.549,325.519,69.329,311.179,69.449,296.829z"
   id="path3488" />
	<radialGradient
   id="SVGID_25_"
   cx="-136"
   cy="190"
   r="280.2427"
   gradientUnits="userSpaceOnUse">
		<stop
   offset="0.8054"
   style="stop-color:#C7BCBC"
   id="stop3491" />
		<stop
   offset="0.8087"
   style="stop-color:#C9BEBE"
   id="stop3493" />
		<stop
   offset="0.8568"
   style="stop-color:#E0DADA"
   id="stop3495" />
		<stop
   offset="0.905"
   style="stop-color:#F1EFEF"
   id="stop3497" />
		<stop
   offset="0.9528"
   style="stop-color:#FCFBFB"
   id="stop3499" />
		<stop
   offset="1"
   style="stop-color:#FFFFFF"
   id="stop3501" />
	</radialGradient>
	<path
   fill="url(#SVGID_25_)"
   stroke="#000000"
   d="M50.64,312.7l0.469,0.149c3.82-2.29,7.42-4.979,10.391-8.31   c0.26-0.28,0.79-0.83,1.05-1.11c0.171,10.19-0.159,20.399,0.66,30.569c0.09,5.171,0.36,10.371-0.36,15.511   c-1.539,6.649-5.55,12.54-11.27,16.29c-0.21-8.13-0.26-16.26-0.26-24.391C50.14,331.899,50.909,322.269,50.64,312.7z"
   id="path3503" />
	<radialGradient
   id="SVGID_26_"
   cx="-136"
   cy="190"
   r="280.2427"
   gradientUnits="userSpaceOnUse">
		<stop
   offset="0.8054"
   style="stop-color:#C7BCBC"
   id="stop3506" />
		<stop
   offset="0.8087"
   style="stop-color:#C9BEBE"
   id="stop3508" />
		<stop
   offset="0.8568"
   style="stop-color:#E0DADA"
   id="stop3510" />
		<stop
   offset="0.905"
   style="stop-color:#F1EFEF"
   id="stop3512" />
		<stop
   offset="0.9528"
   style="stop-color:#FCFBFB"
   id="stop3514" />
		<stop
   offset="1"
   style="stop-color:#FFFFFF"
   id="stop3516" />
	</radialGradient>
	<path
   fill="url(#SVGID_26_)"
   stroke="#000000"
   d="M31.369,387.749c1.83-5.639,0.649-11.629,0.979-17.43   c-0.33-2.76-0.68-5.529-0.66-8.31c0-10.319-0.449-20.649-0.08-30.979c4.381-1.99,8.4-4.761,11.641-8.34   c0.33-0.23,0.98-0.701,1.3-0.941c-0.05,10.721,0.08,21.441,0.16,32.16c-0.09,6.101,1.33,12.311-0.53,18.281l-0.279,0.909   c-1.61,5.95-5.82,10.649-10.561,14.37C32.849,387.54,31.858,387.679,31.369,387.749z"
   id="path3518" />
	<radialGradient
   id="SVGID_27_"
   cx="-136"
   cy="190"
   r="280.2427"
   gradientUnits="userSpaceOnUse">
		<stop
   offset="0.8054"
   style="stop-color:#C7BCBC"
   id="stop3521" />
		<stop
   offset="0.8087"
   style="stop-color:#C9BEBE"
   id="stop3523" />
		<stop
   offset="0.8568"
   style="stop-color:#E0DADA"
   id="stop3525" />
		<stop
   offset="0.905"
   style="stop-color:#F1EFEF"
   id="stop3527" />
		<stop
   offset="0.9528"
   style="stop-color:#FCFBFB"
   id="stop3529" />
		<stop
   offset="1"
   style="stop-color:#FFFFFF"
   id="stop3531" />
	</radialGradient>
	<path
   fill="url(#SVGID_27_)"
   stroke="#000000"
   d="M11.659,432.61c0.89-3.5,2.109-6.971,1.869-10.641   c-0.199-13.359-0.029-26.75-0.77-40.09l0.53-0.79c-0.149-0.511-0.44-1.55-0.59-2.06c-0.31-10.101-0.171-20.211-0.36-30.311   c0-1.95,0.03-3.891,0.051-5.83c3.969-1.93,7.409-4.689,10.68-7.609c0.34-0.48,1.02-1.451,1.359-1.931   c0.26,2.83,0.211,5.7,0.711,8.511c0.219,4.569,0.319,9.149,0.049,13.719c0.73,18.781,0.19,37.621,0.621,56.42   C26.589,421.229,18.989,428.36,11.659,432.61z"
   id="path3533" />
</g>
<g
   id="g3535">
	<radialGradient
   id="SVGID_28_"
   cx="11"
   cy="68"
   r="266.1203"
   gradientUnits="userSpaceOnUse">
		<stop
   offset="0.6878"
   style="stop-color:#9B7932"
   id="stop3538" />
		<stop
   offset="0.7225"
   style="stop-color:#A28240"
   id="stop3540" />
		<stop
   offset="0.7885"
   style="stop-color:#B49B66"
   id="stop3542" />
		<stop
   offset="0.879"
   style="stop-color:#D2C3A3"
   id="stop3544" />
		<stop
   offset="0.9896"
   style="stop-color:#FBFAF7"
   id="stop3546" />
		<stop
   offset="1"
   style="stop-color:#FFFFFF"
   id="stop3548" />
	</radialGradient>
	<path
   fill="url(#SVGID_28_)"
   d="M84.499,239.109c3.87-3.22,7.18-7.01,10.56-10.72c0.24,5.93,0.12,11.87-0.13,17.8   c0.04,1.32,0.08,2.64,0.12,3.97c-0.49,1.51-1.15,2.98-1.92,4.39c-2.021,3.52-4.84,6.561-8.271,8.75c0-0.7-0.01-2.109-0.01-2.811   c-0.1-3.77-0.17-7.529-0.22-11.299C84.568,245.829,84.539,242.469,84.499,239.109z"
   id="path3550" />
	<radialGradient
   id="SVGID_29_"
   cx="11"
   cy="68"
   r="266.1203"
   gradientUnits="userSpaceOnUse">
		<stop
   offset="0.6878"
   style="stop-color:#9B7932"
   id="stop3553" />
		<stop
   offset="0.7225"
   style="stop-color:#A28240"
   id="stop3555" />
		<stop
   offset="0.7885"
   style="stop-color:#B49B66"
   id="stop3557" />
		<stop
   offset="0.879"
   style="stop-color:#D2C3A3"
   id="stop3559" />
		<stop
   offset="0.9896"
   style="stop-color:#FBFAF7"
   id="stop3561" />
		<stop
   offset="1"
   style="stop-color:#FFFFFF"
   id="stop3563" />
	</radialGradient>
	<path
   fill="url(#SVGID_29_)"
   d="M68.479,250.169c3.24-2.31,6.37-4.76,9.62-7.05c0.13,2.79,0.22,5.58,0.23,8.37   c0.01,2.14,0.02,4.28,0.02,6.41c0.01,2.62,0.061,5.23,0.061,7.849c-0.03,2.101-0.091,4.211-0.261,6.32   c-0.06,0.19-0.189,0.59-0.25,0.791c-1.56,5.569-4.52,10.84-9.279,14.279c0.069-0.98,0.14-1.939,0.21-2.91   c-0.051-3.699-0.17-7.39-0.16-11.08c-0.01-3.42-0.04-6.84-0.101-10.25c-0.05-2.699-0.069-5.39-0.079-8.09   C68.489,253.259,68.489,251.709,68.479,250.169z"
   id="path3565" />
	<radialGradient
   id="SVGID_30_"
   cx="11"
   cy="68"
   r="266.1203"
   gradientUnits="userSpaceOnUse">
		<stop
   offset="0.6878"
   style="stop-color:#9B7932"
   id="stop3568" />
		<stop
   offset="0.7225"
   style="stop-color:#A28240"
   id="stop3570" />
		<stop
   offset="0.7885"
   style="stop-color:#B49B66"
   id="stop3572" />
		<stop
   offset="0.879"
   style="stop-color:#D2C3A3"
   id="stop3574" />
		<stop
   offset="0.9896"
   style="stop-color:#FBFAF7"
   id="stop3576" />
		<stop
   offset="1"
   style="stop-color:#FFFFFF"
   id="stop3578" />
	</radialGradient>
	<path
   fill="url(#SVGID_30_)"
   d="M49.909,260.989c3.439-3.43,7.74-6.359,12.609-7.29c-0.17,3.39-0.24,6.78-0.25,10.17   c-0.01,3.119,0.061,6.229,0.131,9.35c0.05,6.32,0.85,12.99-2.18,18.83c-0.07,0.16-0.211,0.48-0.281,0.63   c-2.02,3.899-4.629,7.69-8.52,9.931c-0.25,0.149-0.75,0.459-1.01,0.619c-0.07-7.1,0.1-14.189-0.11-21.289v-1.111   c0.011-1.58,0.03-3.149,0.011-4.719c0-1.511-0.011-3.011-0.021-4.511C50.009,268.079,49.349,264.519,49.909,260.989z"
   id="path3580" />
	<radialGradient
   id="SVGID_31_"
   cx="11"
   cy="68"
   r="266.1203"
   gradientUnits="userSpaceOnUse">
		<stop
   offset="0.6878"
   style="stop-color:#9B7932"
   id="stop3583" />
		<stop
   offset="0.7225"
   style="stop-color:#A28240"
   id="stop3585" />
		<stop
   offset="0.7885"
   style="stop-color:#B49B66"
   id="stop3587" />
		<stop
   offset="0.879"
   style="stop-color:#D2C3A3"
   id="stop3589" />
		<stop
   offset="0.9896"
   style="stop-color:#FBFAF7"
   id="stop3591" />
		<stop
   offset="1"
   style="stop-color:#FFFFFF"
   id="stop3593" />
	</radialGradient>
	<path
   fill="url(#SVGID_31_)"
   d="M30.239,322.159c0.14-2.149,0.33-4.31,0.42-6.459c0.22,0.77,0.449,1.529,0.68,2.299   c-0.01-6.109,0.11-12.229,0.02-18.34l-0.02-0.52c-0.109-2.9-0.13-5.811-0.09-8.71c-0.21-1.31-0.42-2.63-0.62-3.94l-0.11-0.84   c-0.1-2.18-0.18-4.359-0.18-6.539c0.051-2.281,0.131-4.561,0.2-6.83c4.58-2.471,8.12-6.44,12.771-8.761   c0.06,1.921,0.09,3.851,0.09,5.771c-0.021,0.91-0.051,2.729-0.061,3.63c-0.061,3.05-0.01,6.11,0.04,9.159   c0.03,2.131,0.06,4.271,0.091,6.41c0.029,1.721,0.069,3.44,0.049,5.17c0.221,5.23,0.211,10.58-1.59,15.58   c-0.58,1.19-1.18,2.381-1.729,3.601C37.659,316.669,34.399,320.099,30.239,322.159z"
   id="path3595" />
	<radialGradient
   id="SVGID_32_"
   cx="11"
   cy="68"
   r="266.1203"
   gradientUnits="userSpaceOnUse">
		<stop
   offset="0.6878"
   style="stop-color:#9B7932"
   id="stop3598" />
		<stop
   offset="0.7225"
   style="stop-color:#A28240"
   id="stop3600" />
		<stop
   offset="0.7885"
   style="stop-color:#B49B66"
   id="stop3602" />
		<stop
   offset="0.879"
   style="stop-color:#D2C3A3"
   id="stop3604" />
		<stop
   offset="0.9896"
   style="stop-color:#FBFAF7"
   id="stop3606" />
		<stop
   offset="1"
   style="stop-color:#FFFFFF"
   id="stop3608" />
	</radialGradient>
	<path
   fill="url(#SVGID_32_)"
   d="M9.739,334.849c0.75-2.521,1.41-5.06,1.939-7.62c-0.199-7.67-0.14-15.33-0.22-22.99   c-0.021-2.52,0-5.039-0.04-7.549c-0.029-1.941-0.09-3.871-0.15-5.801c-0.049-2.59-0.029-5.17-0.02-7.76   c1.84-1.15,3.67-2.311,5.46-3.51c1.899-1.311,3.67-2.78,5.39-4.311c0.551,0.03,1.66,0.07,2.211,0.09   c0.02,3.61-0.011,7.221-0.051,10.82c-0.01,2.21,0,4.42,0.01,6.641c0.01,2.799,0.01,5.6-0.01,8.399   c-0.01,3.569,0.051,7.14,0.061,10.72c0,2.42-0.1,4.85-0.471,7.26C21.399,326.099,16.028,331.389,9.739,334.849z"
   id="path3610" />
</g>
<g
   id="g3612">
	<radialGradient
   id="SVGID_33_"
   cx="0.667"
   cy="54"
   r="198.0808"
   gradientUnits="userSpaceOnUse">
		<stop
   offset="0.819"
   style="stop-color:#C7BCBC"
   id="stop3615" />
		<stop
   offset="0.8625"
   style="stop-color:#D0C7C7"
   id="stop3617" />
		<stop
   offset="0.9377"
   style="stop-color:#E7E3E3"
   id="stop3619" />
		<stop
   offset="1"
   style="stop-color:#FFFFFF"
   id="stop3621" />
	</radialGradient>
	<path
   fill="url(#SVGID_33_)"
   stroke="#000000"
   d="M83.499,230.779c0.41-2.95,0.899-5.9,0.93-8.88c0-11.77-0.27-23.55,0.061-35.33   c1.5-1.27,3-2.53,4.39-3.91c2.01-2.2,3.81-4.57,5.67-6.88c-0.03,5.92,0.3,11.86-0.07,17.78c0.05,7.66,0.44,15.35-0.02,23.01   C92.989,222.589,88.139,227.019,83.499,230.779z"
   id="path3623" />
	<radialGradient
   id="SVGID_34_"
   cx="0.667"
   cy="54"
   r="198.0808"
   gradientUnits="userSpaceOnUse">
		<stop
   offset="0.819"
   style="stop-color:#C7BCBC"
   id="stop3626" />
		<stop
   offset="0.8625"
   style="stop-color:#D0C7C7"
   id="stop3628" />
		<stop
   offset="0.9377"
   style="stop-color:#E7E3E3"
   id="stop3630" />
		<stop
   offset="1"
   style="stop-color:#FFFFFF"
   id="stop3632" />
	</radialGradient>
	<path
   fill="url(#SVGID_34_)"
   stroke="#000000"
   d="M66.39,240.719c0.5-1.7,0.989-3.41,1.449-5.11c0.18-12.28-0.64-24.6,0.09-36.85   c3.47-2.37,6.51-5.26,9.6-8.08c0.16,6.75,0.04,13.52,0.48,20.26c0.27,4.12,0.28,8.28-0.4,12.36c-0.189,1.51-0.47,3.01-0.84,4.49   c-1.49,4.98-4.779,9.12-8.46,12.68C67.829,240.539,66.869,240.659,66.39,240.719z"
   id="path3634" />
	<radialGradient
   id="SVGID_35_"
   cx="0.667"
   cy="54"
   r="198.0808"
   gradientUnits="userSpaceOnUse">
		<stop
   offset="0.819"
   style="stop-color:#C7BCBC"
   id="stop3637" />
		<stop
   offset="0.8625"
   style="stop-color:#D0C7C7"
   id="stop3639" />
		<stop
   offset="0.9377"
   style="stop-color:#E7E3E3"
   id="stop3641" />
		<stop
   offset="1"
   style="stop-color:#FFFFFF"
   id="stop3643" />
	</radialGradient>
	<path
   fill="url(#SVGID_35_)"
   stroke="#000000"
   d="M48.329,251.259c0.54-3.09,1.141-6.19,1.13-9.34c0-11.28-0.26-22.56,0.11-33.83   l0.189-0.3l1.04-0.76c0.88-0.58,1.78-1.13,2.66-1.67c1.08-0.64,2.16-1.27,3.3-1.78c0.631-0.23,1.891-0.68,2.52-0.91   c0.48-0.12,1.461-0.36,1.951-0.48c0.049,4.16,0.18,8.32,0.18,12.49c-0.01,1.24-0.03,2.49-0.07,3.73   c0.09,6.36,0.66,12.82-1.01,19.04C57.829,243.119,53.979,248.409,48.329,251.259z"
   id="path3645" />
	<radialGradient
   id="SVGID_36_"
   cx="0.667"
   cy="54"
   r="198.0808"
   gradientUnits="userSpaceOnUse">
		<stop
   offset="0.819"
   style="stop-color:#C7BCBC"
   id="stop3648" />
		<stop
   offset="0.8625"
   style="stop-color:#D0C7C7"
   id="stop3650" />
		<stop
   offset="0.9377"
   style="stop-color:#E7E3E3"
   id="stop3652" />
		<stop
   offset="1"
   style="stop-color:#FFFFFF"
   id="stop3654" />
	</radialGradient>
	<path
   fill="url(#SVGID_36_)"
   stroke="#000000"
   d="M28.659,263.059c0.38-1.92,0.77-3.84,0.99-5.78c0.06-0.42,0.17-1.26,0.229-1.68   c-0.31-10.21-0.05-20.43-0.42-30.64c-0.01-1.73-0.14-3.54,0.58-5.15c4.42-2.22,8.08-5.54,11.819-8.69   c0.15,0.06,0.471,0.17,0.631,0.23c-0.221,6.66,0.289,13.32,0,19.98c0.199,6.24,1.02,12.83-1.53,18.74   C38.688,255.739,34.299,260.599,28.659,263.059z"
   id="path3656" />
	<radialGradient
   id="SVGID_37_"
   cx="0.667"
   cy="54"
   r="198.0808"
   gradientUnits="userSpaceOnUse">
		<stop
   offset="0.819"
   style="stop-color:#C7BCBC"
   id="stop3659" />
		<stop
   offset="0.8625"
   style="stop-color:#D0C7C7"
   id="stop3661" />
		<stop
   offset="0.9377"
   style="stop-color:#E7E3E3"
   id="stop3663" />
		<stop
   offset="1"
   style="stop-color:#FFFFFF"
   id="stop3665" />
	</radialGradient>
	<path
   fill="url(#SVGID_37_)"
   stroke="#000000"
   d="M8.528,274.989c0.961-3.279,2.051-6.6,2.041-10.049   c0.17-11.331-0.45-22.671-0.061-33.991c4.84-1.67,7.721-6.7,12.711-7.8c-0.091,5.1,0.039,10.21-0.011,15.32c0.22,4,0.21,8,0.181,12   c0.449,6.46-2.091,12.75-5.99,17.8C14.858,271.009,11.749,273.12,8.528,274.989z"
   id="path3667" />
</g>
<linearGradient
   id="SVGID_38_"
   gradientUnits="userSpaceOnUse"
   x1="230.6372"
   y1="261.2227"
   x2="-5.9352"
   y2="115.7158">
	<stop
   offset="0.6983"
   style="stop-color:#BC9C22"
   id="stop3670" />
	<stop
   offset="0.7313"
   style="stop-color:#C3A638"
   id="stop3672" />
	<stop
   offset="0.8002"
   style="stop-color:#D4BF70"
   id="stop3674" />
	<stop
   offset="0.898"
   style="stop-color:#EFE7C9"
   id="stop3676" />
	<stop
   offset="0.9538"
   style="stop-color:#FFFFFF"
   id="stop3678" />
</linearGradient>
<path
   fill="url(#SVGID_38_)"
   d="M 97.379,95.654 L 96.589,95.454 C 90.038,93.724 83.839,90.904 78.078,87.364 C 71.858,83.914 65.818,79.304 58.488,78.744 C 50.598,78.504 44.228,84.164 39.268,89.664 C 29.619,101.174 18.968,112.224 12.359,125.884 C 10.298,130.344 8.419,135.024 8.058,139.974 C 7.738,164.974 9.468,189.944 8.988,214.944 C 8.898,217.674 7.908,220.254 7.029,222.804 C 12.268,220.114 16.978,216.074 19.449,210.624 C 24.928,197.944 19.449,183.744 23.068,170.674 C 24.298,167.814 25.988,165.184 28.228,163.014 C 28.119,165.464 27.949,167.914 27.888,170.374 C 28.048,183.814 29.859,197.324 27.618,210.694 C 27.907,210.624 28.497,210.494 28.788,210.424 C 35.968,206.234 40.368,198.624 41.608,190.534 C 41.628,182.254 41.788,173.914 43.737,165.814 C 44.438,162.904 45.387,160.044 46.727,157.374 C 47.028,157.364 47.627,157.364 47.927,157.354 C 47.496,170.094 48.807,182.884 47.627,195.584 C 47.438,196.774 47.217,197.944 47.007,199.134 C 48.707,198.194 50.347,197.114 51.757,195.774 C 56.608,190.794 58.717,184.034 60.746,177.574 C 62.486,169.794 63.347,161.834 65.267,154.094 C 65.467,153.124 66.177,152.404 66.746,151.644 C 66.996,160.834 66.856,170.024 66.847,179.214 C 66.807,180.684 66.567,182.134 66.337,183.594 C 66.047,185.414 65.787,187.244 65.557,189.084 C 66.127,188.624 67.277,187.714 67.857,187.264 C 70.327,185.074 72.407,182.504 74.418,179.904 C 76.897,175.534 78.737,170.824 79.787,165.904 C 81.258,160.214 81.128,154.264 82.517,148.554 C 84.367,154.854 84.317,161.464 84.137,167.964 C 84.007,171.394 83.337,174.774 82.627,178.124 L 83.656,177.624 C 86.547,174.824 88.946,171.574 90.896,168.064 C 93.086,164.024 94.596,159.634 95.586,155.154 C 96.025,151.674 96.136,148.164 96.296,144.664 C 96.626,144.684 97.306,144.714 97.646,144.734 C 98.466,150.864 99.796,157.244 98.036,163.344 C 97.057,166.894 96.616,170.564 96.877,174.244 C 97.007,177.244 97.066,180.254 97.116,183.264 C 96.766,197.954 98.457,212.614 97.746,227.304 C 98.236,242.844 98.007,258.394 98.347,273.934 C 106.447,267.744 109.996,256.814 108.727,246.884 C 108.017,241.774 107.167,236.674 106.567,231.554 C 105.007,215.924 104.217,200.104 105.838,184.454 C 106.128,181.434 106.317,178.404 106.628,175.384 C 107.787,169.204 108.378,162.904 110.197,156.864 C 111.187,153.544 120.905,150.209 121.636,146.829 L 137.843,100.114 C 130.52,99.941 107.783,98.17 97.379,95.654 z"
   id="path3680"
   sodipodi:nodetypes="ccccccccccccccccscccccccccsccccccccccccccccccccccccc" />
<radialGradient
   id="SVGID_39_"
   cx="194"
   cy="158.0996"
   r="202.0056"
   gradientUnits="userSpaceOnUse">
	<stop
   offset="0.5611"
   style="stop-color:#BC9C22"
   id="stop3683" />
	<stop
   offset="0.6128"
   style="stop-color:#BD9E27"
   id="stop3685" />
	<stop
   offset="0.6716"
   style="stop-color:#C2A434"
   id="stop3687" />
	<stop
   offset="0.734"
   style="stop-color:#C9AE4B"
   id="stop3689" />
	<stop
   offset="0.7988"
   style="stop-color:#D2BD6B"
   id="stop3691" />
	<stop
   offset="0.8655"
   style="stop-color:#DFCF94"
   id="stop3693" />
	<stop
   offset="0.9328"
   style="stop-color:#EEE5C6"
   id="stop3695" />
	<stop
   offset="1"
   style="stop-color:#FFFFFF"
   id="stop3697" />
</radialGradient>
<path
   fill="url(#SVGID_39_)"
   d="M118.198,252.66c1.314,6.366,1.057,12.931,1.021,19.399c-0.93,6.55-1.42,13.16-2.311,19.72  c-0.229,1.399-0.43,2.81-0.649,4.22c-1.58,9-3.71,17.881-5.54,26.83c-0.05,0.23-0.16,0.67-0.22,0.891  c-1.45,5.709-1.109,3.26-2.519,8.98c-0.1,0.35-0.31,1.06-0.42,1.41c1.64,2.03,1.43,4.47,0.98,6.86c1.17,0.93,2.5,1.61,3.8,2.34  c1.71-1.01,3.36-2.1,4.99-3.23c-0.31,1.59-0.58,3.19-0.78,4.81c1.44,1.13,2.78,2.37,4.06,3.69c1.83-2.44,3.52-4.98,5.04-7.62  c0.18,0.28,0.37,0.57,0.57,0.85c-1.4,5.2-1.28,10.63-0.98,15.96c0.2-0.32,0.58-0.95,0.78-1.26c0.72-1.38,1.34-2.8,1.89-4.25  c5.08-12.68,10.6-25.48,19.51-36c6.52-7.52,16.21-12.75,26.34-12.25c8.83,0.42,17.98,4.02,23.43,11.24  c8.42-10.53,24.27-13.94,36.48-8.46c9.01,3.73,15.32,11.69,20.13,19.87c4.7,7.41,7.77,15.63,11.33,23.59  c0.9,2.81,1.88,5.59,2.98,8.33c0.87-2.8,1.02-5.74,0.58-8.63c-0.1-1.3-0.23-2.59-0.35-3.88c-0.08-1.57-0.12-3.13-0.07-4.68  c0.77,1.52,1.62,3.02,2.6,4.44c2.42,3.35,4.77,6.76,7.35,10c-0.1-4.18-0.79-8.31-1.2-12.46c0.42-0.26,1.25-0.77,1.67-1.02  c0.26,0.13,0.76,0.39,1.02,0.52c0.43,0.26,1.28,0.76,1.71,1.01c3.05,1.85,6.08,3.74,9.11,5.63c-0.56-2.25-1.22-4.47-1.95-6.66  c-1.41-5.72-3.03-11.39-4.48-17.1c-0.06-0.22-0.17-0.66-0.22-0.89c-1.83-8.95-3.96-17.83-5.54-26.83c-0.22-1.41-0.42-2.82-0.65-4.22  c-0.89-6.56-1.38-13.17-2.31-19.72c-0.037-6.498-0.295-13.092,1.04-19.485C223.4,254.654,171.256,255.499,118.198,252.66z"
   id="path3699" />
<path
   fill="#FFFFFF"
   d="M149.859,17.064c-0.646,0.643-1.264,1.315-1.819,2.055c-0.59,0.83-1.15,1.69-1.74,2.52  c-3.58,3.27-8.62,5.55-10.2,10.49c-1.06,2.26-0.07,4.68,0.27,6.99c3.62-0.3,7.02-1.59,10.47-2.62c3.66-0.236,7.111,0.976,10.5,2.278  C151.973,33.647,149.768,25.16,149.859,17.064z"
   id="path3701" />
<linearGradient
   id="SVGID_40_"
   gradientUnits="userSpaceOnUse"
   x1="183.647"
   y1="267.4302"
   x2="323.1773"
   y2="26.2931"
   gradientTransform="translate(2,0)">
	<stop
   offset="0.6005"
   style="stop-color:#BC9C22"
   id="stop3704" />
	<stop
   offset="0.623"
   style="stop-color:#BE9F2A"
   id="stop3706" />
	<stop
   offset="0.6572"
   style="stop-color:#C5A93F"
   id="stop3708" />
	<stop
   offset="0.699"
   style="stop-color:#CFB861"
   id="stop3710" />
	<stop
   offset="0.7467"
   style="stop-color:#DECE91"
   id="stop3712" />
	<stop
   offset="0.7986"
   style="stop-color:#F0E9CE"
   id="stop3714" />
	<stop
   offset="0.8366"
   style="stop-color:#FFFFFF"
   id="stop3716" />
</linearGradient>
<path
   d="M 387.08,217.17 C 386.6,192.17 388.33,167.2 388.01,142.2 C 387.65,137.25 385.77,132.57 383.71,128.11 C 377.1,114.45 366.45,103.4 356.8,91.89 C 351.84,86.39 345.47,80.73 337.58,80.97 C 330.25,81.53 324.21,86.14 317.99,89.59 C 312.23,93.13 306.03,95.95 299.48,97.68 L 298.69,97.88 C 288.52,100.34 277.33,100.49 267.76,95.79 C 261.21,92.66 256.8,86.69 252.05,81.44 C 249.92,78.89 248.32,75.95 246.97,72.93 C 244.55,67.64 242.01,62.41 239.45,57.19 C 237.77,53.86 236.02,50.55 234.4,47.19 C 227.87,35.03 217.94,24.25 205.28,18.43 C 204.74,18.19 203.66,17.71 203.12,17.47 L 203.19,16.73 C 202.25,16.5 201.31,16.25 200.38,15.99 C 206.32,16.35 212.16,17.96 217.56,20.45 C 207.02,7.03 188.06,2.56 171.96,6.84 C 168.32,7.82 164.79,9.18 161.39,10.79 C 157.875,12.402 154.407,14.329 151.659,17.064 C 151.568,25.159 153.773,33.647 159.14,38.778 C 160.335,39.237 161.523,39.708 162.709,40.13 C 168.289,43 172.569,47.86 174.319,53.93 C 175.549,59.23 175.579,64.82 174.549,70.16 C 173.899,72.36 173.039,74.5 172.079,76.59 C 169.729,81.44 165.879,85.34 161.799,88.77 C 156.499,92.9 150.919,97.08 144.209,98.51 L 143.929,98.515 C 140.882,100.011 128.636,100.375 123.443,100.314 L 107.236,147.029 C 107.066,153.249 113.508,159.379 113.287,165.589 C 112.178,177.579 111.627,189.679 112.897,201.669 C 113.277,205.319 113.437,208.979 113.897,212.619 C 114.187,215.479 114.477,218.339 114.847,221.199 C 115.277,224.279 115.637,227.369 116.067,230.449 C 117.227,237.409 118.457,244.369 119.567,251.339 C 119.734,251.976 119.864,252.618 119.997,253.26 C 173.055,256.099 225.199,255.255 278.218,255.205 C 278.346,254.592 278.469,253.979 278.628,253.37 C 279.738,246.4 280.968,239.44 282.128,232.48 C 282.558,229.4 282.918,226.31 283.348,223.23 C 283.718,220.37 284.008,217.51 284.298,214.65 C 284.758,211.01 284.918,207.35 285.298,203.7 C 286.568,191.71 286.018,179.61 284.908,167.62 C 284.688,161.41 283.398,155.28 283.228,149.06 C 283.958,152.44 284.878,155.77 285.868,159.09 C 287.688,165.13 288.278,171.43 289.438,177.61 C 289.748,180.63 289.938,183.66 290.228,186.68 C 291.848,202.33 291.058,218.15 289.498,233.78 C 288.898,238.9 288.048,244 287.338,249.11 C 286.068,259.04 289.618,269.97 297.718,276.16 C 298.058,260.62 297.828,245.07 298.318,229.53 C 297.608,214.84 299.298,200.18 298.948,185.49 C 298.998,182.48 299.058,179.47 299.188,176.47 C 299.448,172.79 299.008,169.12 298.028,165.57 C 296.268,159.47 297.598,153.09 298.418,146.96 C 298.758,146.94 299.438,146.91 299.768,146.89 C 299.928,150.39 300.038,153.9 300.478,157.38 C 301.468,161.86 302.978,166.25 305.168,170.29 C 307.118,173.8 309.518,177.05 312.408,179.85 L 313.438,180.35 C 312.728,177 312.058,173.62 311.928,170.19 C 311.748,163.69 311.698,157.08 313.548,150.78 C 314.938,156.49 314.808,162.44 316.278,168.13 C 317.328,173.05 319.168,177.76 321.648,182.13 C 323.658,184.73 325.738,187.3 328.208,189.49 C 328.788,189.94 329.938,190.85 330.508,191.31 C 330.278,189.47 330.018,187.64 329.728,185.82 C 329.498,184.36 329.258,182.91 329.218,181.44 C 329.208,172.25 329.068,163.06 329.318,153.87 C 329.888,154.63 330.598,155.35 330.798,156.32 C 332.718,164.06 333.578,172.02 335.318,179.8 C 337.348,186.26 339.458,193.02 344.308,198 C 345.718,199.34 347.358,200.42 349.058,201.36 C 348.848,200.17 348.628,199 348.438,197.81 C 347.258,185.11 348.568,172.32 348.138,159.58 C 348.438,159.59 349.038,159.59 349.338,159.6 C 350.678,162.27 351.628,165.13 352.328,168.04 C 354.278,176.14 354.438,184.48 354.458,192.76 C 355.698,200.85 360.098,208.46 367.278,212.65 C 367.568,212.72 368.158,212.85 368.448,212.92 C 366.208,199.55 368.018,186.04 368.178,172.6 C 368.118,170.14 367.948,167.69 367.838,165.24 C 370.078,167.41 371.768,170.04 372.998,172.9 C 376.618,185.97 371.138,200.17 376.618,212.85 C 379.088,218.3 383.798,222.34 389.038,225.03 C 388.16,222.48 387.169,219.9 387.08,217.17 z"
   id="path3718"
   style="fill:url(#SVGID_40_)"
   sodipodi:nodetypes="ccccccccccccccccccccccccccccccccccccccccccccccccccccccccccccccccccccscccccccccsccccccccc" />
<g
   id="g3720">
	<path
   fill="#29141C"
   d="M159.65,15.18c-2.34,0.34-3.55,2.28-3.58,4.53c2.03-0.93,4.22-1.38,6.46-1.3   c-0.13,3.59,0.53,7.25,3.05,9.97c1,0.4,1.99,0.82,3.01,1.16c0.47-0.52,1.4-1.57,1.86-2.1c-1.3-0.18-2.59-0.39-3.88-0.6   c3.51-0.02,7.55,0.27,9.71-3.1l0.05-1.23c-0.04-2,0.43-3.94,1.1-5.81c1.64-0.77,3.26-1.56,4.88-2.38   C174.76,13.3,167.07,13.3,159.65,15.18z"
   id="path3722" />
	<path
   fill="#29141C"
   d="M143.35,29.81c1.5-0.34,2.86-1.05,4.25-1.68c0.02-0.48,0.08-1.44,0.1-1.92c-1.42,0.06-2.84,0.15-4.26,0.26   C143.4,27.58,143.37,28.69,143.35,29.81z"
   id="path3724" />
	<path
   fill="#FFFFFF"
   d="M171.627,18.037c-0.404-0.289-0.814-0.432-1.235-0.514c-0.041-0.026-0.08-0.053-0.134-0.067   c-0.423-0.115-0.845-0.128-1.271-0.123c-0.003-0.001-0.007-0.002-0.01-0.002c-0.039-0.01-0.068,0.003-0.103,0.003   c-0.176,0.003-0.352,0.008-0.53,0.01c-0.008,0-0.013,0.004-0.021,0.004c-0.834,0.026-1.604,0.262-2.067,0.931   c-0.143,0.206-0.098,0.405,0.029,0.543c0.046,0.342,0.51,0.629,0.861,0.323c1.198-1.043,2.509-0.74,3.852-0.172   c0.144,0.061,0.282,0.053,0.401,0.007C171.847,19.005,172.011,18.312,171.627,18.037z"
   id="path3726" />
</g>
<g
   id="g3728">
	<path
   fill="#C52C1D"
   d="M313.19,456.76c0.56-1.2,1.14-2.39,1.73-3.57c0.58,0.17,1.75,0.53,2.33,0.7c0.14,0.42,0.42,1.27,0.56,1.69   C316.31,456.1,314.77,456.52,313.19,456.76z"
   id="path3730" />
	<path
   fill="#C01C13"
   d="M330.79,446.52c0.97,0.21,1.95,0.43,2.93,0.65c-0.07,0.53-0.21,1.59-0.28,2.12   c-1.16,0.19-2.31,0.38-3.47,0.58C330.24,448.75,330.51,447.63,330.79,446.52z"
   id="path3732" />
	<path
   fill="#DA2B1C"
   d="M212.59,472.25c-0.25-1.84-0.38-3.73,1.21-4.99c0.44,0.39,1.32,1.19,1.76,1.59   c-0.07,1.35-0.38,2.66-0.76,3.97C214.25,472.67,213.14,472.39,212.59,472.25z"
   id="path3734" />
	<g
   id="g3736">
		<path
   fill="#C0251E"
   d="M54.66,440.8c1.65-0.01,3.29-0.03,4.94-0.07c-1.11,1.04-1.17,2.64-1.94,3.9c-1.06-0.02-2.1-0.14-3.14-0.37    C54.56,443.1,54.61,441.94,54.66,440.8z"
   id="path3738" />
	</g>
	<g
   id="g3740">
		<path
   fill="#D2231D"
   d="M127.04,468.94c1.19-0.95,2.57-1.52,4.12-1.42c0.18,1.02,0.37,2.05,0.56,3.08    C130.05,470.36,128.15,470.45,127.04,468.94z"
   id="path3742" />
	</g>
	<g
   id="g3744">
		<path
   fill="#EB160B"
   d="M164.61,472.57c1.3-0.03,2.59-0.07,3.89-0.09c-0.26,0.86-0.77,2.59-1.03,3.45    c-1.1-0.15-2.2-0.29-3.31-0.43C164.31,474.52,164.46,473.54,164.61,472.57z"
   id="path3746" />
	</g>
	<g
   id="g3748">
		<path
   fill="#C9231D"
   d="M324.68,401.29c-1.08,0.16-2.16,0.32-3.24,0.49c0.52,3.43,1.92,6.72,2.11,10.2    c-0.3,5.46-5.79,7.92-9.14,11.42c-0.21,0.02-0.62,0.06-0.82,0.08c-0.27-1.27-0.54-2.53-0.81-3.79c-3.18,2.42-5.34,6.21-9.3,7.51    c0.41-1.29,0.84-2.57,1.27-3.84c-2.8-1.05-4.55,1.12-5.76,3.31c-1.05,1.43-2.73,2.11-4.27,2.87c-0.07-0.67-0.22-2.01-0.3-2.68    c-3.88-1.67-5.42-5.63-5.13-9.65c-0.57,0.22-1.71,0.65-2.28,0.86c-10.85,4.25-22.14,7.16-33.39,10.11    c-15.35,3.26-30.92,5.5-46.6,6.17c-4.19-0.39-6.3,3.96-9.81,5.28c-3.7-1.05-5.98-5.46-10.19-5.39    c-11.62-0.7-23.24-1.79-34.66-4.11c-16.24-3.17-32.31-7.53-47.62-13.84c-0.51,3.95-1.44,8.49-5.82,9.8    c-0.15,0.76-0.47,2.29-0.62,3.06c-3.22-2.12-4.78-6.82-8.95-7.15c0.06,1.53,0.12,3.06,0.18,4.59c-1.08-0.75-2.18-1.45-3.22-2.26    c-1.85-1.94-3.68-3.89-5.66-5.69c-0.07,0.98-0.2,2.94-0.27,3.92c-3.71-1.65-6.76-4.59-9.11-7.85c-2.55-4.11,0.08-8.73,1.11-12.85    c-0.65-1.44-2.2-2.12-3.51-1.07c-6.6,4.47-13.26,8.86-19.88,13.29c-2.33,1.66-4.89,3.02-6.97,5c-0.8,1.47-0.41,3.26-0.55,4.88    c0.03,11.75,0.34,23.5,0.17,35.25c4.66,3.27,9.89,5.56,14.95,8.13c13.84,6.83,28.21,12.62,42.95,17.21    c15.79,4.72,31.88,8.54,48.19,10.97c8.72,1.09,17.44,2.17,26.2,2.88c5.59,0.43,11.28-0.09,16.78,1.11    c2.81,1.05,5.35,6.11,8.33,2.61c1.53-1.07,2.85-2.93,4.94-2.75c14.65-0.61,29.3-1.58,43.8-3.84c18.73-2.63,37.18-7.22,55.1-13.25    c10.98-3.61,21.69-8,32.12-12.98c1.91-0.88,3.81-1.75,5.7-2.66c3.64-1.76,7.18-3.69,10.77-5.54c0.51-13.45,0.87-26.88,1.02-40.34    C343.4,414.02,333.81,407.98,324.68,401.29z M264.39,455.68c0.38-0.4,1.12-1.19,1.49-1.58c0.72,0.08,2.17,0.24,2.9,0.32    c-0.05,0.63-0.16,1.88-0.21,2.5c-1.07,1.27-2.91,0.37-4.31,0.57c-1.35,1.28-3.15,1.21-4.85,0.92    C258.71,454.95,262.03,454.86,264.39,455.68z M239.77,450.82l-1.22,1.24c0.42,8.86,2.05,17.7,3.2,26.52    c-1.65,0.4-4.14,1.95-5.05-0.32c-0.67-10.79-2.78-21.47-3.29-32.28C235.57,447.53,237.93,448.86,239.77,450.82z M168.38,467.1    c1.13-5.29,1.71-10.77,0.82-16.14c1.79-1.34,3.57-2.7,5.37-4.03c-0.13,9.86-1.6,19.65-2.25,29.48c2.07,0.32,4.14,0.65,6.22,0.99    c0.31-1.87,0.63-3.74,0.94-5.61c-0.69-0.84-1.38-1.66-2.08-2.49c2.14-1.45,4.22-2.99,6.27-4.56c0.12,4.21-0.06,8.43-0.27,12.64    c1.33,0.07,2.66,0.15,3.99,0.23c0.07-1.88,0.15-3.76,0.24-5.63c-0.55-0.71-1.11-1.42-1.66-2.12c2.03-1.73,4.11-3.38,6.24-4.96    c0.04,0.61,0.11,1.82,0.14,2.43c-0.16,4.65,0.32,9.37-0.71,13.95c-11.13,0.7-22.35-1.41-33.5-2c0.43-2.04,0.84-4.08,1.3-6.11    C160.69,469.29,165.09,468.49,168.38,467.1z M152.75,445.26c0.42,0.06,1.25,0.17,1.67,0.23c1.26,1.6,2.55,3.19,3.86,4.76    c-0.46,0.34-1.38,1-1.83,1.33c-0.57,3.08-1.13,6.17-1.56,9.28c-0.77,5.91-1.63,11.8-2.63,17.68c-1.43-0.39-2.85-0.77-4.28-1.14    C149.17,466.63,151.53,456.02,152.75,445.26z M62.6,419.34c-0.06-1.25-0.11-2.5-0.15-3.75c0.52-0.03,1.54-0.08,2.06-0.11    c0.54,0.33,1.62,0.99,2.16,1.32c-0.25,1.71-0.83,3.24-3.03,2.96c0.74,1.1,0.9,2.25,0.47,3.44c-0.85,0.09-2.56,0.29-3.41,0.39    C59.96,421.79,59.84,419.02,62.6,419.34z M46.29,444.19c2.38-1.31,3.33-3.95,5.08-5.86c2.54-2.29,6.16-1.56,9.2-0.94    c2.96-4.07,4.76-8.8,6.9-13.32c-0.28-0.39-0.82-1.16-1.09-1.55c2.51-1.01,5.11-1.75,7.76-2.28c-4.18,10.38-9.75,20.15-14.05,30.47    C55.31,448.93,50.89,446.36,46.29,444.19z M144.09,476.73c-5.79-0.5-11.42-2.02-17.12-3.07c-5.61-1-10.97-3.25-16.7-3.57    c-2.98-1.57-6.18-2.69-9.46-3.46l-0.67,0.46c-2.62,2.22-5.94,3.18-9.15,4.17c-1.39-2.5-2.83-4.98-4.35-7.4    c0.02-0.52,0.05-1.54,0.06-2.06c-7.5-2.81-15.12-5.47-22.28-9.07c0.01-1.2,0.07-2.38,0.18-3.56c1.66,0.38,3.32,0.84,4.89,1.53    c7.59,3.37,15.35,6.37,23.24,8.99c-0.75,2.09-1.55,4.4,0.09,6.3c0.61-0.18,1.83-0.53,2.44-0.71c0.69-2.23,2.13-4.39,2.08-6.75    c-1.47-1.53-3.67-1.97-5.57-2.75c-8.37-2.88-16.51-6.35-24.68-9.73c1.55-4.85,4.17-9.26,5.96-14.02c1.3,2.29,2.52,4.62,3.62,7.01    c-1.78,1.17-3.67,2.62-3.52,5c8.57,4.35,17.94,6.88,26.74,10.71c1.8,2.26,2.05,5.1,1.68,7.87c1.64,0.49,3.3,0.96,4.95,1.43    c0.29-3.96,1.85-8.28-0.3-11.98c-1.01-2.43-3.33-3.82-5.31-5.38c1.98-0.71,3.99-1.33,6.06-1.67c1.42,2.54,3.37,5,3.58,8.02    c0.43,4.05-0.8,8.01-1.16,12.01c1.68,0.51,3.35,1.05,5.03,1.58c1.06-2.56,1.45-5.32,0.91-8.06c2.1-1.12,4.21-2.22,6.32-3.3    c-0.1,4.39-1.99,8.48-2.33,12.86c0.97,0.1,2.9,0.31,3.87,0.42c0.13-0.67,0.38-2.01,0.5-2.68c2.55-1.49,5.16-2.91,7.93-3.94    c1.9,2.98,5.24,5.54,4.79,9.45c1.02,0.39,2.04,0.79,3.07,1.19c1.79-5.61,2.35-11.49,3.65-17.22c0.59-2.54,0.76-5.16,0.06-7.69    c2.03-1.45,4.14-2.77,6.33-3.95C148.08,454.78,145.32,465.64,144.09,476.73z M183.91,488.75c-0.99-0.67-1.31-1.87-1.85-2.85    c0.84-0.41,2.52-1.23,3.35-1.64c0.64,1.14,1.26,2.3,1.88,3.47C186.18,488.13,185.05,488.47,183.91,488.75z M200.67,481.67    c-0.06,1.36-0.11,2.73-0.16,4.1c-3.02,3.76-8.38,3.79-12.18,1.2l0.59-0.43c2.24-0.28,5.47,1,6.59-1.7    c1.25-3.49,0.68-7.28,0.81-10.91c-0.52-0.5-1.56-1.49-2.08-1.99c0.58-0.48,1.73-1.43,2.3-1.91c1.36-1.13,2.69-2.28,4.04-3.41    c0.06,3.65,0.07,7.3,0.01,10.96c3.54,0.01,7.08,0,10.62-0.08c-1.83-4.09-5.33-7.38-6.14-11.9c1.41,0,2.83,0,4.26,0.01    c1.5-1.28,3.23-4.08,5.51-2.7c2.4,1.69,5.07,2.76,8.06,2.59c-1.99,3.92-3.97,7.87-5.72,11.92c3.57-0.35,7.15-0.74,10.73-0.96    c-0.31-6.84-1.11-13.64-1.56-20.47c0.07-1.65-1.19-2.85-1.99-4.15c1.64-1.74,3.27-3.5,4.88-5.27c0.49,1.82,0.97,3.66,1.18,5.54    c0.3,9.4,2.29,18.68,2.31,28.1c-1.66,0.06-3.32,0.11-4.97,0.2C218.76,481.3,209.72,481.55,200.67,481.67z M254.97,476.79    c-4.12-0.57-7.32-3.84-10.78-5.95c2.86-1.04,5.75-2.46,7.67-4.91c1.71-2.39,2.39-5.29,3.41-8c1.25,4.74-1.18,9.02-3.4,13    c1.05,0.61,2.11,1.24,3.16,1.87c7.23-1.15,14.44-2.56,21.51-4.47c-1.06-3.22-0.93-7.34-4.26-9.21c1.63-2.04,3.21-4.11,4.85-6.14    c1.59,6.05,3.25,12.08,4.68,18.17C272.91,473.23,264.01,475.5,254.97,476.79z M277.17,437.92c2.25,0.7,4.41,1.66,6.54,2.69    c-0.36,2.1-0.57,4.29,0.3,6.32c2.37,7.09,3.83,14.49,6.61,21.43c-1.43,1-3.18,1.2-4.84,1.51    C283.05,459.18,279.9,448.6,277.17,437.92z M291.56,475.99c-1.5-0.89-3.08-1.61-4.67-2.29c2.01,0.03,4.07,0.24,6.06-0.24    c1.84-1.11,2.04-3.39,1.39-5.24c-1.01-3.35-1.54-7.14-4.32-9.57c1.21-2.38,2.68-4.6,4.07-6.87c1.55,6.18,4.38,12.02,5.36,18.34    C298.75,473.77,294.96,475.64,291.56,475.99z M314.23,461.12c-3.84,1.3-7.67,2.63-11.53,3.87c-2.16-5.64-3.87-11.43-5.92-17.11    c-1.36-4.99-3.42-9.77-4.62-14.8c0.71,0.25,1.42,0.51,2.13,0.79c1.65,0.64,3.31,1.29,4.97,1.92c-0.33,1.36-1.04,2.78-0.41,4.18    c2.21,6.57,4.55,13.1,6.82,19.66c1.27-0.2,2.55-0.38,3.83-0.55c-0.26-1.09-0.56-2.18-0.85-3.24c1.35-2.55,2.66-5.12,4.07-7.63    c2.79,0.84,5.56,1.77,8.33,2.7c0.91,2.1,1.82,4.2,2.72,6.31C320.61,458.57,317.44,459.89,314.23,461.12z M327.92,455.71    c-0.83-1.43-1.64-2.87-2.59-4.21c0.03-0.86,0.1-2.57,0.13-3.43c0.5-0.86,1.01-1.71,1.51-2.56c-1.36-0.44-2.71-0.87-4.06-1.29    c-1.88-3.58-3.19-7.41-4.94-11.04c-0.54-1.47-2.21-1.68-3.44-2.26c1.2-2.39,2.26-4.84,3.25-7.32c0.29,0.03,0.88,0.07,1.17,0.09    c1.48,4.24,3.48,8.27,5.19,12.42c0.92,2.02,1.64,4.43,3.8,5.5c2.12-0.4,1.84-3.04,1.04-4.46c-2.55-5.24-4.84-10.61-7.53-15.79    c2.73,0.74,5.45,1.54,8.16,2.37c-1.05,5.63,3.51,9.98,5.04,15.07c-0.65,1.39-1.13,2.86-1.39,4.37c1.27,0.19,2.55,0.38,3.83,0.58    c1,2.12,2.01,4.24,3.02,6.36C336.12,452.13,332.02,453.92,327.92,455.71z M344.61,447.8c-0.16,0.23-0.47,0.7-0.62,0.93    c-3.41-7.65-7.53-14.97-11.03-22.58c-1.2-2.88-3.44-5.37-3.64-8.59c2.28,1.03,4.68,1.82,7.18,2.11c0.01,1.4-0.61,2.96,0.27,4.24    c3.68,7.52,7.93,14.79,11.21,22.49C346.86,446.87,345.73,447.33,344.61,447.8z"
   id="path3750" />
		<g
   id="g3752">
			<path
   fill="#F5FCF4"
   d="M168.29,484.75c0.68-0.32,2.06-0.97,2.74-1.29c0.52,0.56,1.55,1.69,2.06,2.25     c1.23-0.87,2.6-1.45,4.09-1.69c0.4,1.05,1.87,2.61,0.45,3.54c-1,1.39-2.65,0.44-3.81-0.12c-1.76-0.19-3.53,0.07-5.29,0.02     C168.44,486.55,168.36,485.65,168.29,484.75z"
   id="path3754" />
		</g>
	</g>
	<ellipse
   fill="#FFFFFF"
   cx="164.715"
   cy="452.667"
   rx="1.951"
   ry="1.938"
   id="ellipse3756" />
	<ellipse
   fill="#FFFFFF"
   cx="164.094"
   cy="457.201"
   rx="1.951"
   ry="1.938"
   id="ellipse3758" />
	<ellipse
   fill="#FFFFFF"
   cx="122.333"
   cy="452.333"
   rx="1.951"
   ry="1.938"
   id="ellipse3760" />
	<ellipse
   fill="#FFFFFF"
   cx="117.384"
   cy="450.983"
   rx="1.951"
   ry="1.938"
   id="ellipse3762" />
</g>
<linearGradient
   id="SVGID_41_"
   gradientUnits="userSpaceOnUse"
   x1="184.2754"
   y1="223.6714"
   x2="233.7732"
   y2="134.1184">
	<stop
   offset="0.7142"
   style="stop-color:#7AA35E"
   id="stop3765" />
	<stop
   offset="1"
   style="stop-color:#FFFFFF"
   id="stop3767" />
</linearGradient>
<path
   fill="url(#SVGID_41_)"
   stroke="#7AA35D"
   stroke-width="4"
   d="M264.3,177.313c-9.864-29.449-34.546-49.004-67.156-49.004  c-7.214,0-9.191-0.141-16.031,1.973l-1.641,0.547l-0.182,2.712c-0.428,6.106-0.914,12.338-1.385,18.365  c-0.433,5.552-0.867,11.11-1.265,16.67l-0.203,2.839l2.842-0.166c4.366-0.254,3.773-0.215,8.261-0.215  c21.97,0,45.032,1.167,74.604,7.653l2.788,0.593L264.3,177.313z"
   id="path3769" />
<linearGradient
   id="SVGID_42_"
   gradientUnits="userSpaceOnUse"
   x1="184.2754"
   y1="278.8145"
   x2="233.7732"
   y2="189.2614"
   gradientTransform="matrix(1 0 0 -1 0 451.5117)">
	<stop
   offset="0.7142"
   style="stop-color:#000000"
   id="stop3772" />
	<stop
   offset="0.7294"
   style="stop-color:#0E0E0E"
   id="stop3774" />
	<stop
   offset="1"
   style="stop-color:#FFFFFF"
   id="stop3776" />
</linearGradient>
<path
   fill="url(#SVGID_42_)"
   stroke="#000000"
   stroke-width="4"
   d="M264.3,219.057c-9.864,29.449-34.546,49.004-67.156,49.004  c-7.214,0-9.191,0.141-16.031-1.973l-1.641-0.547l-0.182-2.712c-0.428-6.106-0.914-12.338-1.385-18.365  c-0.433-5.552-0.867-11.11-1.265-16.67l-0.203-2.839l2.842,0.166c4.366,0.254,3.773,0.215,8.261,0.215  c21.97,0,45.032-1.167,74.604-7.653l2.788-0.593L264.3,219.057z"
   id="path3778" />
<path
   fill="#FBF7F5"
   d="M265.75,179.416c-29.234-6.412-61.943-10.401-92.099-8.646c-1.413,19.763-2.347,34.142-1.161,53.732  c30.219,3.784,63.983,3.94,93.26-2.752c1.929-5.653,1.854-12.51,1.854-23.55C267.604,190.517,268.063,186.321,265.75,179.416z"
   id="path3780" />
<linearGradient
   id="SVGID_43_"
   gradientUnits="userSpaceOnUse"
   x1="126.5596"
   y1="295.604"
   x2="185.6418"
   y2="143.9074">
	<stop
   offset="0.7738"
   style="stop-color:#F03924"
   id="stop3783" />
	<stop
   offset="0.8123"
   style="stop-color:#F25644"
   id="stop3785" />
	<stop
   offset="0.8971"
   style="stop-color:#F89F95"
   id="stop3787" />
	<stop
   offset="1"
   style="stop-color:#FFFFFF"
   id="stop3789" />
</linearGradient>
<path
   fill="url(#SVGID_43_)"
   stroke="#F03924"
   stroke-width="4"
   d="M173.792,226.091c-1.186-19.59-0.252-39.375,1.161-59.138  c0.837-11.703,1.834-23.397,2.649-35.039c-28.216,8.718-48.718,35.007-48.718,66.086c0,31.735,21.383,58.459,50.521,66.598  C176.275,251.89,174.575,239.032,173.792,226.091z"
   id="path3791" />
<circle
   fill="none"
   stroke="#E4E4E4"
   stroke-width="12"
   cx="198.044"
   cy="198"
   r="75.6"
   id="circle3793" />
<circle
   fill="none"
   stroke="#000000"
   stroke-width="5"
   cx="198"
   cy="198"
   r="80"
   id="circle3795" />
<polygon
   fill="#FFFFFF"
   stroke="#000000"
   stroke-width="2"
   points="199.044,107.09 201.217,113.775 208.247,113.775   202.559,117.908 204.732,124.593 199.044,120.461 193.357,124.593 195.53,117.908 189.842,113.775 196.872,113.775 "
   id="polygon3797" />
<polygon
   fill="#FFFFFF"
   stroke="#000000"
   stroke-width="2"
   points="128.629,139.894 135.073,142.704 139.736,137.443   139.056,144.44 145.499,147.25 138.635,148.764 137.954,155.761 134.393,149.701 127.528,151.215 132.191,145.955 "
   id="polygon3799" />
<polygon
   fill="#FFFFFF"
   stroke="#000000"
   stroke-width="2"
   points="108.873,215.732 115.041,212.359 113.737,205.451   118.852,210.273 125.019,206.899 122.013,213.253 127.127,218.077 120.156,217.181 117.149,223.535 115.846,216.628 "
   id="polygon3801" />
<polygon
   fill="#FFFFFF"
   stroke="#000000"
   stroke-width="2"
   points="157.604,279.238 158.635,272.284 152.34,269.155   159.272,267.987 160.304,261.033 163.556,267.265 170.489,266.097 165.567,271.115 168.82,277.348 162.525,274.219 "
   id="polygon3803" />
<polygon
   fill="#FFFFFF"
   stroke="#000000"
   stroke-width="2"
   points="235.372,280.792 230.818,275.436 224.318,278.112   228.004,272.127 223.45,266.772 230.281,268.427 233.968,262.441 234.503,269.45 241.336,271.106 234.836,273.782 "
   id="polygon3805" />
<polygon
   fill="#FFFFFF"
   stroke="#000000"
   stroke-width="2"
   points="285.194,218.768 278.168,219.001 276.219,225.756   273.826,219.146 266.8,219.38 272.346,215.062 269.953,208.451 275.773,212.392 281.32,208.072 279.372,214.827 "
   id="polygon3807" />
<polygon
   fill="#FFFFFF"
   stroke="#000000"
   stroke-width="2"
   points="268.259,142.074 264.36,147.924 268.72,153.439 261.952,151.54   258.054,157.39 257.769,150.367 251,148.467 257.592,146.026 257.306,139.002 261.666,144.516 "
   id="polygon3809" />
</svg>