<?xml version="1.0" encoding="utf-8"?>
<!-- Generator: Adobe Illustrator 16.0.0, SVG Export Plug-In . SVG Version: 6.00 Build 0)  -->
<!DOCTYPE svg PUBLIC "-//W3C//DTD SVG 1.1//EN" "http://www.w3.org/Graphics/SVG/1.1/DTD/svg11.dtd">
<svg version="1.1" id="Layer_1" xmlns="http://www.w3.org/2000/svg" xmlns:xlink="http://www.w3.org/1999/xlink" x="0px" y="0px"
	 width="250.5px" height="383.071px" viewBox="0 0 250.5 383.071" enable-background="new 0 0 250.5 383.071" xml:space="preserve">
<g>
	<path fill-rule="evenodd" clip-rule="evenodd" fill="#FFD700" d="M125.25,382.821c21.431-6.866,42.425-15.86,62.132-26.709
		c7.82-4.308,16.437-9.294,23.665-14.606c18.689-14.815,33.713-31.079,37.685-55.311c1.816-11.098,1.497-22.774,1.497-33.996V0.25
		H0.271v251.949c0,11.222-0.32,22.898,1.498,33.996c3.97,24.231,18.995,40.495,37.685,55.311
		c7.229,5.313,15.844,10.299,23.665,14.606C82.825,366.96,103.819,375.955,125.25,382.821z"/>
	<path fill-rule="evenodd" clip-rule="evenodd" fill="#FF0000" d="M246.826,251.223V3.653H3.674v247.57
		c0,31.963-1.584,55.543,38.604,87.368c0,0,32.372,23.842,82.972,39.72c50.6-15.877,82.971-39.72,82.971-39.72
		C248.408,306.766,246.826,283.187,246.826,251.223z"/>
	<g>
		<path fill-rule="evenodd" clip-rule="evenodd" d="M163.575,109.871c3.071,0,5.016,0.959,5.016,2.24
			c0,1.304-1.944,2.459-5.016,2.459c-3.082,0-4.99-1.058-4.99-2.361C158.585,110.928,160.493,109.871,163.575,109.871
			L163.575,109.871L163.575,109.871z M86.925,109.871c3.082,0,4.991,1.056,4.991,2.338c0,1.304-1.909,2.361-4.992,2.361
			c-3.069,0-5.015-1.155-5.015-2.459C81.909,110.83,83.855,109.871,86.925,109.871L86.925,109.871L86.925,109.871z M86.365,103.078
			c-3.789-0.064-10.076,1.208-9.936,4.115c-10.551-1.808-11.65,2.55-11.03,6.428c1.004-1.539,2.226-2.375,3.166-2.532
			c1.407-0.233,2.88,0.221,4.383,1.145c1.504,0.923,3.16,2.414,3.895,3.336c-3.723,0.891-6.6,0.315-9.519-0.195
			c-1.44-0.251-3.455-1.061-4.652-1.899c-1.198-0.838-1.574-1.627-3.457-3.555c-2.221-2.273-4.584-1.633-3.847,1.899
			c1.703,3.282,4.547,4.744,8.132,5.333c1.725,0.284,4.295,0.898,7.208,0.9c2.913,0.003,6.182-0.42,7.962-0.049
			c-1.069,0.671-2.279,1.829-4.674,2.289c-2.438,0.469-6.143-1.449-8.402-1.973c0.287,1.901,2.684,3.677,7.402,4.602
			c7.754,1.689,14.198,2.973,18.457,5.285s6.944,5.207,8.864,7.475c3.816,4.514,4.018,7.979,4.261,8.741
			c0.785,7.212-1.729,11.269-6.404,12.517c-2.337,0.623-6.49-0.551-8.011-2.339c-1.522-1.786-3.003-4.857-2.581-9.666
			c0.41-1.886,2.567-6.801,0.73-7.816c-8.463-4.679-18.739-9.408-26.175-12.224c-2.032-0.77-3.707,1.992-4.358,3.069
			c-12.632-1.539-24.02-10.087-29.146-19.188c-3.492-6.199-9.247,0.013-8.278,5.869c1.561,6.535,6.541,11.26,12.515,14.609
			c6.132,3.376,13.796,6.699,21.549,6.526c4.178,0.79,4.136,6.193-0.876,7.207c-9.803,0.062-17.624-0.182-25.007-7.305
			c-5.601-5.113-8.753,0.979-7.135,4.432c2.744,10.643,17.926,13.623,33.285,10.178c5.948-0.985,2.387,5.388,0.707,5.455
			c-6.417,4.601-17.907,9.104-28.026-0.049c-4.63-3.546-7.761-0.565-6.039,4.553c4.49,13.345,21.664,10.542,33.456,3.969
			c3.035-1.692,5.79,2.245,2.094,5.235c-14.664,10.247-21.996,10.363-28.61,6.428c-8.282-3.265-9.01,5.919-4.09,8.936
			c5.466,3.354,19.377,0.84,29.584-5.576c4.375-3.253,4.573,1.833,1.802,3.846c-12.113,10.469-16.886,13.224-29.512,11.519
			c-6.261-0.487-6.167,7.23-1.242,10.252c6.724,4.122,19.855-2.723,30.046-11.178c4.29-2.291,4.995,1.468,2.874,5.917
			c-6.227,7.856-12.072,12.488-17.703,14.634c-5.629,2.146-11.045,1.803-14.876,0.486c-4.675-1.605-5.262,3.254-2.678,7.671
			c1.557,2.662,8.009,3.516,14.975,1.046c6.965-2.469,14.442-8.262,19.577-15.048c4.466-3.909,3.911,1.343,1.875,5.04
			c-10.281,16.253-19.684,22.282-32.067,21.258c-5.491-0.933-6.739,3.337-3.239,7.28c6.146,5.097,13.829,4.938,20.55-0.098
			c5.975-5.761,17.406-18.165,23.4-24.812c4.224-3.369,5.574-0.048,4.334,6.794c-1.127,3.916-3.949,8.043-11.639,11.054
			c-5.253,2.998-1.309,7.13,2.629,7.207c2.167,0.042,6.568-2.491,9.936-6.282c4.429-4.986,4.692-8.335,7.134-16.094
			c2.307-3.783,6.428-2.019,6.428,1.948c-1.976,7.771-3.674,9.165-7.67,12.343c-3.822,3.591,2.662,4.785,4.845,3.313
			c6.32-4.259,8.626-9.77,10.738-14.779c1.524-3.617,5.946-1.863,3.896,4.042c-4.898,14.113-12.946,19.67-27.028,22.523
			c-1.427,0.254-2.297,1.097-1.802,2.751c1.891,1.96,3.783,3.741,5.674,5.697c-8.708,2.535-15.782,3.96-24.495,6.502
			c-4.275-2.803-7.729-5.181-12.004-7.986c-1.128-2.635-1.654-6.658-7.962-3.823c-4.276-1.976-6.248-1.251-8.62,0.73
			c3.424,0.127,4.915,1.045,6.258,2.606c1.752,4.616,5.795,5.063,9.934,3.749c2.693,2.268,4.126,4.008,6.818,6.281
			c-5.025-0.171-8.526-0.26-13.538-0.413c-4.786-5.138-8.604-4.856-12.03-0.828c-2.61,0.402-3.716,0.457-5.502,3.628
			c2.809-1.152,4.576-1.498,5.795-0.243c5.086,2.948,8.41,2.291,10.932,0c4.908,0.3,9.332,0.554,14.245,0.877
			c-1.806,1.535-4.282,2.349-6.087,3.896c-7.373-2.108-11.219,0.731-12.516,6.745c-0.987,2.427-1.451,4.927-1.021,7.524
			c0.712-2.376,1.86-4.417,3.968-5.698c6.571,1.668,9.041-1.014,9.399-4.944c3.167-2.584,7.942-3.152,11.103-5.771
			c3.696,1.184,5.482,1.916,9.204,3.092c1.324,4.021,4.318,5.613,9.18,4.578c5.787,0.182,4.766,2.557,5.235,4.456
			c1.538-2.728,1.495-5.381-2.07-7.791c-1.297-3.524-4.17-5.127-7.938-3.093c-3.546-1.007-4.478-2.455-8.011-3.458
			c8.936-2.849,15.274-3.489,24.204-6.33c2.235,2.108,4.006,3.622,6.258,5.502c1.187,0.708,2.323,0.887,3.019,0
			c5.596-8.097,8.094-15.234,13.295-20.574c1.987-2.21,4.497-5.191,7.281-5.918c1.392-0.362,3.099-0.143,4.188,1.048
			c1.091,1.188,1.946,3.379,1.583,6.646c-0.521,4.691-1.655,6.173-2.971,8.985c-1.316,2.812-2.924,4.543-4.577,6.695
			c-3.307,4.308-7.669,6.815-10.251,8.499c-5.165,3.367-7.348,1.894-11.347,1.679c-5.168,0.581-6.543,3.099-2.313,6.575
			c3.954,2.057,7.509,2.311,10.398,1.777c2.48-0.459,5.382-3.659,7.451-5.381c2.327-2.689,6.188,0.5,3.555,3.628
			c-4.784,5.685-9.564,9.432-15.462,9.35c-6.198,0.835-5.039,4.318-0.925,6.016c7.403,3.055,14.087-2.667,17.482-6.429
			c2.62-2.865,4.481-2.978,4.018,1.462c-2.6,8.035-6.154,11.14-11.955,11.542c-4.705-0.438-4.755,3.194-1.314,5.648
			c7.838,5.425,13.515-3.813,16.167-9.399c1.89-5.037,4.789-2.641,5.089,1.511c0.039,5.546-2.467,10.076-9.18,15.754
			c5.135,8.183,11.123,16.505,16.265,24.714c5.143-8.21,11.129-16.533,16.266-24.715c-6.712-5.678-9.22-10.207-9.18-15.755
			c0.3-4.149,3.199-6.548,5.089-1.509c2.653,5.586,8.329,14.824,16.169,9.399c3.44-2.454,3.389-6.088-1.315-5.65
			c-5.801-0.4-9.356-3.505-11.956-11.54c-0.463-4.439,1.397-4.329,4.019-1.462c3.395,3.76,10.08,9.483,17.482,6.429
			c4.113-1.697,5.273-5.181-0.925-6.015c-5.898,0.081-10.678-3.666-15.461-9.351c-2.633-3.127,1.225-6.317,3.554-3.628
			c2.068,1.722,4.971,4.922,7.451,5.382c2.889,0.534,6.442,0.278,10.397-1.778c4.229-3.477,2.855-5.994-2.313-6.575
			c-3.998,0.215-6.184,1.688-11.347-1.679c-2.583-1.684-6.944-4.191-10.252-8.497c-1.652-2.154-3.261-3.884-4.576-6.697
			c-1.318-2.813-2.449-4.292-2.971-8.985c-0.364-3.268,0.492-5.457,1.582-6.646c1.089-1.188,2.795-1.41,4.187-1.046
			c2.785,0.726,5.294,3.706,7.282,5.916c5.2,5.341,7.699,12.478,13.294,20.575c0.698,0.886,1.833,0.708,3.02,0
			c2.253-1.881,4.023-3.395,6.259-5.503c8.929,2.843,15.267,3.483,24.203,6.33c-3.532,1.005-4.466,2.451-8.012,3.459
			c-3.768-2.033-6.641-0.431-7.938,3.092c-3.565,2.411-3.608,5.063-2.07,7.792c0.47-1.9-0.552-4.275,5.235-4.457
			c4.863,1.035,7.855-0.557,9.18-4.576c3.722-1.176,5.51-1.908,9.204-3.092c3.16,2.616,7.936,3.187,11.104,5.771
			c0.358,3.93,2.829,6.612,9.398,4.942c2.108,1.281,3.255,3.322,3.97,5.697c0.428-2.597-0.035-5.095-1.021-7.523
			c-1.3-6.016-5.146-8.854-12.518-6.745c-1.805-1.547-4.281-2.36-6.087-3.896c4.914-0.323,9.336-0.577,14.244-0.877
			c2.522,2.291,5.847,2.948,10.932,0c1.219-1.253,2.986-0.909,5.796,0.243c-1.786-3.169-2.892-3.226-5.504-3.628
			c-3.425-4.028-7.243-4.31-12.027,0.828c-5.014,0.153-8.513,0.242-13.539,0.415c2.693-2.275,4.126-4.016,6.818-6.283
			c4.138,1.313,8.181,0.867,9.935-3.749c1.343-1.562,2.832-2.479,6.257-2.606c-2.371-1.981-4.346-2.706-8.619-0.73
			c-6.309-2.835-6.835,1.188-7.962,3.823c-4.275,2.806-7.729,5.184-12.005,7.986c-8.715-2.542-15.788-3.967-24.495-6.502
			c1.891-1.954,3.783-3.735,5.673-5.697c0.496-1.654-0.374-2.497-1.801-2.751c-14.082-2.854-22.131-8.41-27.028-22.523
			c-2.049-5.905,2.371-7.658,3.896-4.042c2.112,5.011,4.42,10.521,10.738,14.779c2.185,1.474,8.668,0.276,4.846-3.311
			c-3.996-3.18-5.693-4.574-7.669-12.345c0-3.965,4.121-5.731,6.429-1.949c2.441,7.762,2.705,11.108,7.133,16.095
			c3.367,3.791,7.768,6.324,9.935,6.282c3.939-0.077,7.884-4.209,2.63-7.207c-7.689-3.011-10.511-7.138-11.64-11.054
			c-1.239-6.843,0.11-10.163,4.335-6.794c5.994,6.646,17.425,19.051,23.4,24.812c6.722,5.033,14.405,5.194,20.55,0.098
			c3.501-3.943,2.254-8.213-3.237-7.282c-12.386,1.026-21.787-5.003-32.068-21.256c-2.037-3.697-2.592-8.951,1.875-5.04
			c5.135,6.786,12.611,12.579,19.577,15.048c6.965,2.47,13.417,1.615,14.974-1.047c2.585-4.418,1.997-9.277-2.677-7.67
			c-3.834,1.316-9.248,1.657-14.879-0.486c-5.63-2.146-11.474-6.778-17.702-14.635c-2.121-4.45-1.416-8.209,2.873-5.916
			c10.191,8.454,23.323,15.298,30.047,11.176c4.926-3.02,5.021-10.739-1.241-10.251c-12.626,1.706-17.399-1.051-29.51-11.518
			c-2.772-2.013-2.575-7.1,1.801-3.847c10.205,6.416,24.117,8.93,29.584,5.576c4.917-3.017,4.189-12.202-4.093-8.937
			c-6.613,3.935-13.943,3.818-28.609-6.428c-3.694-2.992-0.94-6.927,2.096-5.235c11.79,6.573,28.965,9.376,33.455-3.969
			c1.723-5.118-1.408-8.098-6.039-4.554c-10.118,9.153-21.607,4.651-28.025,0.049c-1.68-0.066-5.241-6.439,0.705-5.454
			c15.36,3.444,30.542,0.463,33.287-10.178c1.618-3.453-1.535-9.545-7.137-4.432c-7.382,7.123-15.202,7.367-25.007,7.305
			c-5.012-1.013-5.052-6.417-0.874-7.208c7.752,0.174,15.415-3.149,21.548-6.525c5.975-3.349,10.954-8.074,12.516-14.61
			c0.968-5.855-4.787-12.067-8.278-5.868c-5.127,9.1-16.516,17.648-29.146,19.187c-0.651-1.076-2.325-3.837-4.357-3.068
			c-7.437,2.815-17.714,7.545-26.176,12.224c-1.838,1.016,0.319,5.929,0.729,7.815c0.424,4.81-1.058,7.88-2.579,9.667
			c-1.523,1.787-5.675,2.961-8.012,2.338c-4.674-1.248-7.189-5.304-6.405-12.516c0.245-0.762,0.445-4.227,4.262-8.741
			c1.918-2.268,4.604-5.163,8.863-7.475c4.26-2.312,10.703-3.597,18.456-5.284c4.719-0.926,7.116-2.703,7.402-4.603
			c-2.259,0.524-5.964,2.44-8.401,1.973c-2.395-0.46-3.604-1.617-4.674-2.288c1.779-0.373,5.049,0.051,7.962,0.048
			s5.483-0.618,7.208-0.901c3.584-0.588,6.43-2.05,8.133-5.331c0.736-3.534-1.628-4.174-3.847-1.9
			c-1.884,1.928-2.26,2.717-3.459,3.554c-1.197,0.838-3.21,1.648-4.65,1.9c-2.919,0.51-5.797,1.085-9.52,0.195
			c0.735-0.922,2.393-2.412,3.896-3.335c1.504-0.924,2.976-1.378,4.383-1.146c0.938,0.159,2.162,0.994,3.167,2.533
			c0.619-3.878-0.48-8.237-11.031-6.428c0.141-2.908-6.146-4.179-9.937-4.115c-2.145,0.037-6.546,1.294-9.714,2.775
			c-5.013,1.519-9.994,2.63-15.828,3.044c3.37,2.83,4.031,2.99,7.427,5.405c-5.141,1.872-9.124,5.75-10.908,8.279
			c4.492,0.215,5.975-0.163,7.5,0.487c-6.259,1.812-9.089,2.874-12.394,6.185c1.169,0.213,2.909,0.526,3.652,0.804
			c0.769,0.287,0.449,0.683-0.074,1.241c-1.434,0.897-6.923,7.364-8.546,8.863c-1.623-1.5-7.112-7.966-8.546-8.863
			c-0.523-0.56-0.842-0.954-0.074-1.242c0.743-0.279,2.483-0.591,3.653-0.804c-3.305-3.311-6.137-4.373-12.394-6.185
			c1.525-0.65,3.009-0.271,7.5-0.487c-1.783-2.531-5.766-6.408-10.909-8.279c3.397-2.415,4.059-2.576,7.427-5.405
			c-5.833-0.414-10.814-1.524-15.827-3.044c-3.169-1.481-7.57-2.74-9.716-2.775L86.365,103.078z M86.365,103.078L86.365,103.078
			L86.365,103.078z"/>
	</g>
	<g>
		<path fill-rule="evenodd" clip-rule="evenodd" fill="#FFD700" d="M134.139,69.88c-0.798,0-1.463,0.687-1.463,1.483
			c0,0.835,0.665,1.499,1.463,1.499c0.771,0,1.459-0.663,1.459-1.499C135.598,70.566,134.911,69.88,134.139,69.88L134.139,69.88
			L134.139,69.88z M110.198,65.937c-0.03-1.552,1.059-2.258,2.419-1.517c1.5-0.582,2.305-0.327,2.247,1.41
			c0.771,1.053,0.712,2.022-0.671,2.667c-1.071,1.186-2.253,1.076-3.04,0.083C109.086,67.819,109.758,66.82,110.198,65.937
			L110.198,65.937L110.198,65.937z M108.542,68.526l0.243,0.395l0.301,0.348l0.353,0.297l0.377,0.238l0.411,0.231l0.111,0.031
			l0.219,0.208l0.279,0.235l0.317,0.196l0.341,0.151l0.354,0.116l0.358,0.075l0.4,0.03l0.376-0.03l0.364-0.075l0.377-0.116
			l0.336-0.151l0.347-0.19l0.312-0.235l0.29-0.244l0.092-0.098l0.075-0.047l0.319-0.184l0.306-0.231l0.284-0.268l0.244-0.286
			l0.213-0.342l0.151-0.366l0.122-0.389l0.046-0.395l-0.017-0.384l-0.046-0.371l-0.093-0.345l-0.115-0.331l-0.157-0.3l-0.075-0.131
			l-0.011-0.294l-0.076-0.402l-0.11-0.407l-0.146-0.39l-0.266-0.365l-0.313-0.335l-0.377-0.263l-0.412-0.169l-0.399-0.081
			l-0.388-0.03l-0.371,0.03l-0.341,0.035l-0.33,0.081l-0.11,0.03l-0.151-0.035l-0.394-0.104l-0.412-0.036l-0.404,0.006l-0.429,0.06
			l-0.393,0.148l-0.359,0.188l-0.371,0.268l-0.283,0.306l-0.272,0.345l-0.186,0.393l-0.133,0.386l-0.11,0.404l-0.041,0.407
			l-0.018,0.043l-0.116,0.213l-0.098,0.256l-0.087,0.292l-0.086,0.318l-0.063,0.366v0.407l0.093,0.444L108.542,68.526
			L108.542,68.526z M112.45,68.16c0.805,0,1.471-0.668,1.471-1.486c-0.002-0.813-0.658-1.471-1.471-1.477
			c-0.799,0-1.454,0.663-1.454,1.477C110.997,67.491,111.651,68.16,112.45,68.16L112.45,68.16z M143.59,37.546
			c-1.344,1.111-2.728,2.221-4.089,3.33c4.987-2.833,10.104-6.625,14.83-7.18c1.39,0.25,1.546,1.145,1.528,2.09
			c-0.481,0.501-0.96,1.005-1.437,1.511c-4.635,2.083-9.266,4.177-13.891,6.282c1.303-0.279,2.617-0.583,3.914-0.859
			c0.429-0.139,0.856,0.215,1.28,1.05c-0.348,0.657-0.684,1.326-1.024,2.004c-2.456,2.901-2.427,5.557-2.311,8.225
			c0.52,1.176,1.029,2.345,1.552,3.501c1.191,1.761,2.175,3.482,1.956,5.004c-0.457,0.703-1.026,0.831-1.702,0.336
			c-9.084-11.825-17.718-10.906-24.585-10.249c-0.208,0.032-0.422-0.348-0.631-0.333c3.347-2.711,9.582-2.673,12.605-3.856
			c-7.464-0.024-9.137,0.812-14.412,2.973c-0.846-0.05-1.708-0.111-2.553-0.178c-0.684,0.133-0.817,0.517-0.331,1.157
			c0.51,0.146,1.784,0.026,1.524,0.511c-0.423,0.823-1.651,0.817-2.467,1.231c-0.833-0.438-1.094-0.982-0.759-1.674
			c0.905-1.017,1.818-2.028,2.727-3.057c3.389-1.944,6.811-3.856,10.221-5.786c0.428-0.767,1.245-0.931,2.367-0.511
			c2.254,1.353,4.911,1.712,7.858,1.4c-1.015-0.908-1.848-1.814-1.447-2.727c-0.598,0.096-1.197,0.185-1.795,0.268
			c-1.361,0.559-2.618,0.449-3.256-0.08c-0.276-0.292-0.636-0.592-0.173-0.883c1.112-0.955,2.629-0.865,4.198-0.627
			c0.887-2.527,2.311-4.834,7.411-5.677c0.619-0.49,1.262-0.99,1.876-1.488c0.602-1.805,1.922-1.574,3.039-1.865
			c0.83-0.866,1.685-1.778,3.614-2.07c6.745-4.538,13.716-6.024,20.717-7.26C159.813,25.799,147.684,32.217,143.59,37.546
			L143.59,37.546L143.59,37.546z M145.876,66.376L145.876,66.376c0.422-1.023-1.041-2.33-2.768-3.684
			c-17.285-10.04-28.308-9.047-31.544-6.389c-0.782,0.755-1.569,1.528-2.183,2.426c-0.156,0.42,0.132,0.761,0.457,1.011
			c11.974,2.447,23.681,4.852,35.662,7.294C145.754,66.846,145.789,66.597,145.876,66.376L145.876,66.376z M145.938,69.708
			l-0.722,2.782c-0.273-0.341-0.625-0.542-0.984-0.542c-0.146,0-0.272,0.024-0.4,0.071l0.712-2.652
			c0.129-0.482,0.499-0.817,0.817-0.732l0.232,0.043C145.922,68.776,146.073,69.237,145.938,69.708L145.938,69.708L145.938,69.708z
			 M147.788,71.619L147.788,71.619c1.152,0.61-0.532-1.882-1.634-1.077c-0.74,2.058-1.481,4.127-2.235,6.193
			c0.795,0.778,1.581,1.332,2.358,0.467C145.541,76.574,146.641,71.004,147.788,71.619L147.788,71.619z M145.999,82.051
			c0.133,1.164,0.076,2.228-0.075,3.245h-43.363c0-1.407-0.18-2.09-0.556-4.147c-0.058-0.333,4.285,0.517,10.277,1.573
			c6.746,1.186,15.814,0.627,22.802,0.523h0.149C141.338,82.513,145.94,82.425,145.999,82.051L145.999,82.051L145.999,82.051z
			 M103.944,73.192L103.944,73.192c-0.729-0.232,0.086,3.085-0.052,4.424c0.984,1.591,2.369,3.071,6.485,3.77
			c7.423,1.127,19.201,1.296,30.959,0c0.818-0.134,1.102-0.542,0.898-1.272C128.169,78.537,115.739,76.893,103.944,73.192
			L103.944,73.192z M105.745,71.619c-0.331-0.359-0.574-0.729-1.315-1.077c0.202-0.324,0.388-0.651,0.585-0.945
			c0.573,0.14,0.972,0.597,1.181,1.267C106.816,71.788,106.364,71.777,105.745,71.619L105.745,71.619L105.745,71.619z
			 M105.415,63.733c0.753-0.546,0.875,0.006,0.92,0.732c-0.168,1.233-0.457,2.33-0.776,3.386c0,0.984-0.452,1.162-1.314,0.523
			C103.944,66.829,104.487,65.274,105.415,63.733L105.415,63.733L105.415,63.733z M116.208,74.713
			c-0.214-0.398-1.662-0.288-2.589-0.341c-0.197-0.325-0.625-0.702,0.115-0.86c0.84,0.151,1.807-0.431,2.698-0.273
			C117.058,73.495,116.433,75.103,116.208,74.713L116.208,74.713L116.208,74.713z M123.839,65.092l-2.531,9.164
			c-0.15,0.476-0.527,0.814-0.863,0.73l-0.242-0.063c-0.313-0.077-0.498-0.534-0.348-1.034l2.542-9.158
			c0.139-0.499,0.516-0.81,0.869-0.737l0.225,0.051C123.827,64.129,123.989,64.593,123.839,65.092L123.839,65.092L123.839,65.092z
			 M125.825,65.431l-2.559,9.178c-0.122,0.481-0.515,0.803-0.828,0.728l-0.267-0.053c-0.313-0.099-0.498-0.554-0.346-1.029
			l2.53-9.164c0.138-0.499,0.515-0.829,0.868-0.749l0.237,0.054C125.779,64.465,125.964,64.933,125.825,65.431L125.825,65.431
			L125.825,65.431z M127.776,65.773l-2.543,9.178c-0.121,0.49-0.497,0.821-0.851,0.733l-0.242-0.054
			c-0.313-0.085-0.498-0.541-0.359-1.022l2.553-9.178c0.146-0.5,0.521-0.809,0.87-0.749l0.231,0.079
			C127.76,64.831,127.933,65.274,127.776,65.773L127.776,65.773L127.776,65.773z M126.901,73.611l0.376,0.981l0.104,0.17
			l-0.225,0.814c-0.14,0.476-0.51,0.811-0.862,0.732l-0.231-0.061c-0.332-0.08-0.5-0.535-0.359-1.034l1.088-3.943l-0.059,0.457
			v0.908L126.901,73.611L126.901,73.611z M128.489,75.888l0.347,0.315l-0.029,0.161c-0.151,0.497-0.527,0.809-0.835,0.728
			l-0.254-0.053c-0.336-0.086-0.498-0.542-0.363-1.035l0.317-1.121l0.18,0.297L128.489,75.888L128.489,75.888z M140.821,73.855
			l-1.124,4.022c-0.133,0.5-0.516,0.817-0.846,0.755l-0.225-0.071c-0.348-0.075-0.516-0.524-0.365-1.017l0.209-0.842l0.092-0.06
			l0.546-0.396l0.514-0.493l0.505-0.592l0.422-0.68L140.821,73.855L140.821,73.855z M142.263,68.708l-1.111,4.02l0.083-0.69
			l-0.019-0.797l-0.11-0.731l-0.179-0.68l-0.227-0.593l-0.048-0.134l-0.044-0.127l0.196-0.619c0.122-0.477,0.515-0.806,0.852-0.732
			l0.225,0.06C142.235,67.776,142.379,68.221,142.263,68.708L142.263,68.708L142.263,68.708z M144.272,77.871l-0.395,1.231
			c-0.133,0.384-0.497,0.673-0.815,0.592l-0.227-0.057c-0.319-0.054-0.485-0.443-0.347-0.833l0.66-2.069
			C143.381,77.324,143.792,77.74,144.272,77.871L144.272,77.871L144.272,77.871z M141.579,78.324l2.542-9.187
			c0.151-0.489-0.018-0.953-0.346-1.023l-0.245-0.063c-0.328-0.087-0.711,0.255-0.85,0.731l-2.542,9.181
			c-0.151,0.47,0.016,0.946,0.353,1.029l0.242,0.044C141.082,79.132,141.452,78.804,141.579,78.324L141.579,78.324z M139.352,69.828
			l0.184,0.476l0.135,0.505l0.081,0.553l0.011,0.597l-0.081,0.609l-0.161,0.616l-0.255,0.549l-0.343,0.523l-0.357,0.446
			l-0.412,0.375l-0.405,0.319l-0.365,0.227l-0.328,0.295l-0.442,0.301l-0.457,0.28l-0.497,0.226l-0.516,0.17l-0.555,0.11
			l-0.569,0.035l-0.561-0.035l-0.557-0.116l-0.514-0.184l-0.5-0.224l-0.439-0.294l-0.423-0.321l-0.094-0.085l-0.409-0.209
			l-0.518-0.339l-0.501-0.416l-0.47-0.529l-0.378-0.651l-0.265-0.7l-0.128-0.707l-0.016-0.663l0.103-0.562l0.11-0.479l0.151-0.395
			l0.121-0.331l0.047-0.063l0.029-0.223l0.138-0.586l0.197-0.57l0.289-0.563l0.37-0.528l0.465-0.477l0.544-0.395l0.59-0.309
			l0.603-0.196l0.626-0.128l0.601-0.005l0.598,0.074l0.331,0.065l0.137-0.029l0.486-0.068l0.528-0.042l0.573,0.047l0.636,0.139
			l0.665,0.282l0.626,0.432l0.527,0.529l0.376,0.622l0.262,0.592l0.16,0.576l0.094,0.563v0.035L139.352,69.828L139.352,69.828z
			 M119.844,66.461l0.572-2.087c0.139-0.482,0.528-0.809,0.869-0.738l0.226,0.068c0.347,0.093,0.499,0.529,0.377,1.029l-2.559,9.158
			c-0.139,0.5-0.515,0.823-0.852,0.75l-0.237-0.054c-0.336-0.081-0.505-0.539-0.366-1.031l0.881-3.146l0.423-0.702l0.346-0.762
			l0.216-0.827l0.115-0.842v-0.791L119.844,66.461L119.844,66.461z M106.833,67.126L106.833,67.126v0.657l0.122,0.715l0.271,0.703
			l0.399,0.629l0.446,0.541l0.499,0.411l0.515,0.338l0.429,0.214l0.092,0.098l0.405,0.315l0.457,0.287l0.481,0.231l0.532,0.173
			l0.545,0.127l0.579,0.031l0.556-0.031l0.543-0.104l0.516-0.19l0.498-0.211l0.457-0.271l0.44-0.315l0.33-0.303l0.371-0.221
			l0.405-0.309l0.422-0.375l0.354-0.461l0.347-0.505l0.238-0.556l0.174-0.608l0.086-0.615l-0.028-0.597l-0.076-0.548l-0.138-0.518
			l-0.168-0.469l-0.133-0.262v-0.03l-0.093-0.553l-0.163-0.573l-0.26-0.609l-0.383-0.609l-0.527-0.542l-0.625-0.438l-0.649-0.282
			l-0.637-0.122l-0.59-0.053l-0.528,0.03l-0.468,0.074l-0.155,0.035l-0.313-0.08l-0.602-0.058l-0.614,0.004l-0.613,0.128
			l-0.608,0.196l-0.59,0.304l-0.539,0.395l-0.446,0.488l-0.382,0.529l-0.301,0.56l-0.197,0.562l-0.133,0.58l-0.035,0.235
			l-0.035,0.063l-0.116,0.309l-0.15,0.399l-0.133,0.49L106.833,67.126L106.833,67.126z M179.622,20.703
			c0.435,0-0.216,0.303-0.653,0.431c-2.952,0.83-6.375,1.615-9.936,2.625c-3.545,0.992-7.18,2.229-10.475,3.981
			c-0.017,0.202-0.017,0.427-0.017,0.651c7.995-1.502,12.535-1.297,15.297,0.817c0.069,0.06-0.168,0-0.255,0h-0.261
			c-1.807-0.051-3.532,0-5.211,0.122c-1.668,0.127-3.26,0.327-4.771,0.633c-3.011,0.592-5.729,1.522-8.061,2.813
			c0.324,0.085,0.973,0.335,1.274,0.425c0.927,0.336,1.163,1.311,0.532,2.444c-0.459,0.888-0.364,1.222-1.077,2.117
			c-2.908,1.353-5.803,2.724-8.691,4.079c0.04,1.927-0.336,3.85-1.574,5.798c-1.756,1.603-2.109,3.722-2.307,5.875
			c0.881,2.943,2.259,5.054,3.788,6.924c0.544,1.535-0.013,2.747-1.686,3.625c0.486,0.9,1.187,2.129,1.64,3.044
			c1.29,0.583,1.76,1.199,0.973,3.11c0.376,0.64,0.405,1.377,0.271,2.01c0.405,0.269,0.805,0.559,1.199,0.842
			c0.405,0.895,0.104,1.582-0.927,2.092c-1.122,0.518-1.441,1.512-1.651,2.552c-0.729,0.026-1,0.5-1.197,1.056
			c0.138,0.845-0.162,1.223-0.933,1.131c-0.041,0.323-0.069,0.646-0.098,0.957c0.758,0.243,1.546,0.499,2.322,0.761
			c0.04,1.569,0.115,3.155,0.179,4.751c-15.356-0.039-30.445-0.033-45.813-0.05c-0.099-1.743-0.474-3.532-0.561-5.266
			c0.363-0.235,0.732-0.46,1.105-0.678c-0.122-0.345-0.261-0.699-0.382-1.041c0.092-0.437,0.197-0.871,0.278-1.32
			c0.857-1.9,0.788-4.55,0.707-6.583c-1.447-0.604-1.302-2.091-0.516-3.375c-0.589-1.174-1.447-3.67,1.65-5.223
			c0.047-1.181,0.215-2.225,1.303-2.576c0.683-1.578,0.625-1.255,3.365-1.893c1.002-1.111,1.997-2.127,2.999-3.224
			c0-0.699-0.347-1.49-0.347-2.186c0.701-2.191,2.148-3.986,4.342-5.415c3.665-1.801,7.209-3.993,10.613-6.537
			c0.955-1.19,1.909-2.346,2.865-3.521c0.864-1.088,1.778-2.051,3.146-2.375c1.66-0.262,3.322-0.505,4.995-0.752
			c1.616-0.842,3.254-1.647,4.894-2.473c0.417-1.291,1.598-1.826,3.509-1.615C155.437,23.295,166.691,20.435,179.622,20.703
			L179.622,20.703z M135.884,73.192c-1.089,1.181-2.271,1.093-3.057,0.101c-2.053-0.761-1.396-1.778-0.939-2.652
			c-0.058-1.543,1.024-2.242,2.408-1.538c1.501-0.571,2.299-0.321,2.253,1.427C137.308,71.571,137.232,72.564,135.884,73.192
			L135.884,73.192L135.884,73.192z M138.141,70.771l0.089,0.348l0.063,0.377v0.372l-0.041,0.396l-0.11,0.384l-0.173,0.354
			l-0.203,0.353l-0.243,0.302l-0.289,0.263l-0.308,0.207l-0.329,0.226l-0.074,0.036l-0.095,0.068l-0.289,0.256l-0.296,0.238
			l-0.353,0.2l-0.33,0.15l-0.364,0.11l-0.395,0.086l-0.383,0.019l-0.376-0.019l-0.363-0.086l-0.378-0.109l-0.33-0.151l-0.306-0.2
			l-0.289-0.238l-0.216-0.203l-0.103-0.042l-0.424-0.214l-0.376-0.244l-0.336-0.291l-0.32-0.36l-0.23-0.401l-0.168-0.427
			l-0.069-0.438v-0.424l0.04-0.366l0.093-0.334l0.104-0.281l0.093-0.244l0.104-0.226l0.035-0.023l0.046-0.426l0.11-0.395
			l0.145-0.399l0.173-0.389l0.256-0.339l0.301-0.312l0.354-0.25l0.376-0.193l0.395-0.138l0.405-0.076l0.411-0.011l0.411,0.048
			l0.405,0.092l0.15,0.053l0.092-0.03l0.336-0.077l0.341-0.063l0.384-0.024l0.377,0.029l0.409,0.086l0.411,0.17l0.364,0.267
			l0.33,0.336l0.242,0.372l0.171,0.396l0.104,0.389l0.075,0.396l0.017,0.303l0.075,0.131l0.156,0.303L138.141,70.771z"/>
	</g>
</g>
</svg>
