<?xml version="1.0" encoding="UTF-8" standalone="no"?>
<!-- Created with Inkscape (http://www.inkscape.org/) -->

<svg
   version="1.1"
   id="svg2"
   xml:space="preserve"
   width="206.31288"
   height="271.97913"
   viewBox="0 0 206.31288 271.97913"
   sodipodi:docname="Coat_of_arms_of_South_Africa.svg"
   inkscape:version="1.1.1 (3bf5ae0d25, 2021-09-20)"
   xmlns:inkscape="http://www.inkscape.org/namespaces/inkscape"
   xmlns:sodipodi="http://sodipodi.sourceforge.net/DTD/sodipodi-0.dtd"
   xmlns="http://www.w3.org/2000/svg"
   xmlns:svg="http://www.w3.org/2000/svg"><defs
     id="defs6"><clipPath
       id="clip4"><path
         d="m 274,508 h 54 v 65 h -54 z m 0,0"
         id="path46719" /></clipPath><clipPath
       id="clip5"><path
         d="m 274.21875,530.17578 c 0,-5.97266 1.18359,-11.69531 3.34766,-16.99219 -0.008,0.0899 22.83203,-4.18359 22.83203,-4.23828 0.0976,-0.0391 23.70703,4.32813 23.54297,4.35547 2.13281,5.26563 3.29687,10.94922 3.29687,16.875 0,15.21875 -7.68359,28.83594 -19.77344,37.92578 0,0 -1.76562,1.51563 -3.36718,2.52344 -1.60547,1.00781 -3.36719,1.80469 -3.36719,1.80469 0,0 -1.79297,-0.88282 -3.86328,-2.19532 -2.06641,-1.3125 -2.8711,-2.13281 -2.8711,-2.13281 -12.09375,-9.08984 -19.77734,-22.70703 -19.77734,-37.92578"
         id="path46722" /></clipPath></defs><sodipodi:namedview
     id="namedview4"
     pagecolor="#ffffff"
     bordercolor="#ffffff"
     borderopacity="1"
     inkscape:pageshadow="0"
     inkscape:pageopacity="0"
     inkscape:pagecheckerboard="1"
     showgrid="false"
     inkscape:zoom="1.80646"
     inkscape:cx="117.3566"
     inkscape:cy="157.76712"
     inkscape:window-width="1366"
     inkscape:window-height="748"
     inkscape:window-x="0"
     inkscape:window-y="0"
     inkscape:window-maximized="1"
     inkscape:current-layer="g8" /><g
     id="g8"
     inkscape:groupmode="layer"
     inkscape:label="Coat of arms of South Africa"
     transform="matrix(1.3333333,0,0,-1.3333333,741.01641,614.54624)"><path
       style="fill:#ffffff;fill-opacity:1;fill-rule:nonzero;stroke:none"
       d="m -469.45553,333.09331 c -0.10547,0.0352 -0.21485,0.0664 -0.33203,0.0977 -1.03907,0.26172 -2.23438,0.29297 -2.38672,-0.17969 -0.1211,-0.38281 0.6914,-0.91016 1.73437,-1.17578 0.29297,-0.0742 0.57422,-0.12891 0.83594,-0.16016 0.0352,-0.008 0.0664,0.0117 0.0703,0.0508 0.0195,0.23438 0.10157,1.07032 0.12891,1.29297 0.008,0.0508 -0.0312,0.0664 -0.0508,0.0742 z m 7.05859,-0.4414 c 0.25391,0.0664 0.36328,0.10156 0.63672,0.23437 0.81641,0.39453 1.55078,1.03906 1.34766,1.37891 -0.20313,0.33593 -1.79688,0.23828 -2.08203,-1.53125 -0.0234,-0.0508 0.0312,-0.0977 0.0976,-0.082"
       id="path47922" /><path
       style="fill:#ffffff;fill-opacity:1;fill-rule:nonzero;stroke:none"
       d="m -487.33444,333.09331 c 0.10547,0.0352 0.21875,0.0664 0.33203,0.0977 1.04297,0.26172 2.23828,0.29297 2.38672,-0.17969 0.1211,-0.38281 -0.6914,-0.91016 -1.73047,-1.17578 -0.29297,-0.0742 -0.57422,-0.12891 -0.83593,-0.16016 -0.0352,-0.008 -0.0664,0.0117 -0.0703,0.0508 -0.0234,0.23438 -0.10156,1.07032 -0.1289,1.29297 -0.008,0.0508 0.0273,0.0664 0.0469,0.0742 z m -7.05469,-0.4414 c -0.2539,0.0664 -0.36718,0.10156 -0.63671,0.23437 -0.81641,0.39453 -1.55079,1.03906 -1.34766,1.37891 0.20312,0.33593 1.79687,0.23828 2.08203,-1.53125 0.0195,-0.0508 -0.0312,-0.0977 -0.0977,-0.082"
       id="path47924" /><path
       style="fill:#f8a10c;fill-opacity:1;fill-rule:nonzero;stroke:none"
       d="m -498.83053,427.24956 11.17187,4.02344 1.65625,4.32422 -34.07422,-0.29688 21.2461,-8.05078"
       id="path47926" /><path
       style="fill:#f37014;fill-opacity:1;fill-rule:nonzero;stroke:none"
       d="m -493.56881,429.85503 7.5664,5.74219 -34.07422,-0.29688 26.50782,-5.44531"
       id="path47928" /><path
       style="fill:#f8a10c;fill-opacity:1;fill-rule:nonzero;stroke:none"
       d="m -490.11959,430.74175 14.05078,1.11328 3.95312,1.71094 -22.45312,22.92187 4.44922,-25.74609"
       id="path47930" /><path
       style="fill:#f37014;fill-opacity:1;fill-rule:nonzero;stroke:none"
       d="m -482.04147,431.53081 9.92578,2.03516 -22.45312,22.92187 12.52734,-24.95703"
       id="path47932" /><path
       style="fill:#f8a10c;fill-opacity:1;fill-rule:nonzero;stroke:none"
       d="m -493.59616,429.31206 15.28907,3.41797 1.85937,1.34375 -34.07812,15.47656 16.92968,-20.23828"
       id="path47934" /><path
       style="fill:#f37014;fill-opacity:1;fill-rule:nonzero;stroke:none"
       d="m -485.45553,431.29644 9.17969,2.8125 -34.25,15.4414 25.07031,-18.2539"
       id="path47936" /><path
       style="fill:#f37014;fill-opacity:1;fill-rule:nonzero;stroke:none"
       d="m -458.06491,427.24956 -11.16797,4.02344 -1.65625,4.32422 34.17969,-0.29688 -21.35547,-8.05078"
       id="path47938" /><path
       style="fill:#f8a10c;fill-opacity:1;fill-rule:nonzero;stroke:none"
       d="m -463.32272,429.85503 -7.56641,5.74219 34.17969,-0.29688 -26.61328,-5.44531"
       id="path47940" /><path
       style="fill:#f37014;fill-opacity:1;fill-rule:nonzero;stroke:none"
       d="m -466.77194,430.74175 -14.05078,1.11328 -3.95312,1.71094 22.44921,22.92187 -4.44531,-25.74609"
       id="path47942" /><path
       style="fill:#f8a10c;fill-opacity:1;fill-rule:nonzero;stroke:none"
       d="m -474.71334,431.76128 -10.0625,1.80469 22.44921,22.92187 -12.38671,-24.72656"
       id="path47944" /><path
       style="fill:#f37014;fill-opacity:1;fill-rule:nonzero;stroke:none"
       d="m -462.94381,429.35112 -15.64453,3.37891 -1.75782,1.34375 33.98047,15.47656 -16.57812,-20.19922"
       id="path47946" /><path
       style="fill:#f8a10c;fill-opacity:1;fill-rule:nonzero;stroke:none"
       d="m -471.33834,431.35503 -9.27735,2.75391 34.25,15.4414 -24.97265,-18.19531"
       id="path47948" /><path
       style="fill:#f37014;fill-opacity:1;fill-rule:nonzero;stroke:none"
       d="m -469.53366,432.18706 -3.27343,0.625 -3.3711,0.32422 -2.9414,0.0195 -3.32813,-0.20703 -4.91016,-0.99219 8.95313,28.53125 8.87109,-28.30078"
       id="path47950" /><path
       style="fill:#f8a10c;fill-opacity:1;fill-rule:nonzero;stroke:none"
       d="m -478.45944,433.17534 -4.55078,-0.30468 -4.34766,-0.89844 8.95313,28.51562 -0.0547,-27.3125"
       id="path47952" /><path
       style="fill:#025e2b;fill-opacity:1;fill-rule:evenodd;stroke:none"
       d="m -464.94772,372.17925 -6.65625,-12.16797 -5.125,-5.20703 3.30078,4.54687 -1.59375,5.69141 10.07422,7.13672"
       id="path47954" /><path
       style="fill:#025e2b;fill-opacity:1;fill-rule:nonzero;stroke:#025e2b;stroke-width:0.12;stroke-linecap:butt;stroke-linejoin:miter;stroke-miterlimit:3.864;stroke-opacity:1"
       d="m -493.87741,379.8355 h 14.95704 l -7.34375,5.88281 z m 0,0"
       id="path47956" /><path
       style="fill:#025e2b;fill-opacity:1;fill-rule:nonzero;stroke:#025e2b;stroke-width:0.12;stroke-linecap:butt;stroke-linejoin:miter;stroke-miterlimit:3.864;stroke-opacity:1"
       d="m -478.99069,379.8355 h 14.95703 l -7.4375,5.89844 z m 0,0"
       id="path47958" /><path
       style="fill:#eb1923;fill-opacity:1;fill-rule:nonzero;stroke:none"
       d="m -486.28756,385.71831 14.91015,-0.0117 -7.46875,5.75 -7.4414,-5.73828"
       id="path47960" /><path
       style="fill:#025e2b;fill-opacity:1;fill-rule:nonzero;stroke:#025e2b;stroke-width:0.12;stroke-linecap:butt;stroke-linejoin:miter;stroke-miterlimit:3.864;stroke-opacity:1"
       d="m -501.63131,373.84722 h 15.10547 l -7.45313,5.89843 z m 0,0"
       id="path47962" /><path
       style="fill:#211e1e;fill-opacity:1;fill-rule:nonzero;stroke:#211e1e;stroke-width:0.12;stroke-linecap:butt;stroke-linejoin:miter;stroke-miterlimit:3.864;stroke-opacity:1"
       d="m -486.51412,373.84722 15.14453,-0.0117 -7.47657,6.07422 z m 0,0"
       id="path47964" /><path
       style="fill:#025e2b;fill-opacity:1;fill-rule:nonzero;stroke:#025e2b;stroke-width:0.12;stroke-linecap:butt;stroke-linejoin:miter;stroke-miterlimit:3.864;stroke-opacity:1"
       d="m -471.38131,373.8355 h 14.96093 l -7.6914,6.07031 z m 0,0"
       id="path47966" /><path
       style="fill:#6b1411;fill-opacity:1;fill-rule:evenodd;stroke:none"
       d="m -479.11959,415.26519 c 0,0 2.8125,-0.63672 3.96093,-0.66407 1.14844,-0.0273 3.17188,0.35938 4.73828,0.35938 3.4375,0 5.66797,-0.90234 5.66797,-0.90234 0,0 -2.14843,0.14062 -4.79297,-0.10938 -2.64843,-0.25 -2.92578,-0.35937 -2.89843,-0.60937 0.0273,-0.25 0.90234,-0.082 1.87109,-0.0274 0.96875,0.0547 1.63672,0.13672 3.75391,0.0547 2.12109,-0.082 4.43359,-0.83203 4.43359,-0.83203 0,0 -2.1875,0.32031 -6,-0.27735 -3.80859,-0.59375 -3.97266,-0.8164 -3.97266,-0.8164 0,0 3.60547,-0.0312 5.76172,-0.27735 4.12891,-0.46875 6.55469,-2.0625 6.55469,-2.0625 0,0 -3.28516,0.89844 -7.30078,0.84375 -4.01953,-0.0547 -5.86328,0.10938 -6.52734,0.30469 -0.16797,0.10938 -0.5,0.10938 -0.19532,-0.16797 0.19532,-0.16406 1.03907,-0.28906 1.76172,-0.35937 0.71875,-0.0703 2.05078,-0.15235 4.0586,-0.56641 2.00781,-0.41797 5.04296,-1.40234 6,-1.89844 0.95703,-0.5 3.68359,-2.20312 3.68359,-2.20312 0,0 -3.19922,1.45312 -7.03906,1.99609 -3.83594,0.53907 -5.62891,0.98438 -6.75782,1.10547 -2.32812,0.25 -4.21484,1.19141 -4.21484,1.19141 0,0 1.13672,1.05469 1.08203,2.42578 -0.0547,1.37109 -0.625,2.21484 -1.4414,2.6875 -0.81641,0.47266 -2.1875,0.80469 -2.1875,0.80469"
       id="path47968" /><path
       style="fill:#976b2b;fill-opacity:1;fill-rule:nonzero;stroke:none"
       d="m -446.84616,341.58159 c 0.55078,0.25391 0.63282,-0.14062 0.76172,-0.63672 0.125,-0.49609 1.46875,-3.99609 1.46875,-3.99609 0,0 1.63672,-1.69141 2.27344,-2.35547 0.63281,-0.66797 2.23047,-2.30469 2.10547,-2.89844 -0.12891,-0.58984 -0.53906,-1.09765 -1.13281,-1.09765 -0.59375,0 -1.42579,0.83203 -2.10157,1.80469 -0.67968,0.97656 -1.07422,1.89453 -1.35547,2.65625 -0.28515,0.76171 -2.27343,5.97265 -2.27343,5.97265 -0.0742,0.33203 0.2539,0.55078 0.2539,0.55078"
       id="path47970" /><path
       style="fill:#976b2b;fill-opacity:1;fill-rule:nonzero;stroke:none"
       d="m -439.60397,330.08941 c -0.37891,-0.4961 -0.80469,-0.97657 -0.16797,-1.8086 0.63281,-0.83594 0.91797,-1.21484 1.76172,-1.21484 0.84766,0 2.35938,1.55078 2.82422,3.87109 0.46875,2.3125 0.33984,2.32813 0.42578,3.28906 0.082,0.95704 0.29688,4.36329 0.29688,4.36329 0,0 -0.0859,0.50781 -0.46875,0.50781 -0.37891,0 -0.46485,-0.3125 -0.46485,-0.50781 0,-0.19922 -0.16797,-3.53125 -0.16797,-3.53125 0,0 0.16797,-0.24219 -0.29687,-0.79297 -0.46485,-0.55078 -3.74219,-4.17578 -3.74219,-4.17578"
       id="path47972" /><path
       style="fill:#976b2b;fill-opacity:1;fill-rule:nonzero;stroke:none"
       d="m -440.01803,322.77691 c -0.45313,-0.42969 -0.94922,-0.83594 -0.44922,-1.75782 0.49609,-0.92578 0.71484,-1.34375 1.55469,-1.47656 0.83593,-0.13281 2.57031,1.16406 3.39062,3.37891 0.82422,2.21484 0.69922,2.24609 0.9336,3.18359 0.23437,0.93359 0.97656,4.26172 0.97656,4.26172 0,0 -0.004,0.51562 -0.37891,0.57422 -0.3789,0.0625 -0.51172,-0.23047 -0.54297,-0.42578 -0.0312,-0.19922 -0.71875,-3.46094 -0.71875,-3.46094 0,0 0.12891,-0.26563 -0.41797,-0.73438 -0.54296,-0.47265 -4.34765,-3.54296 -4.34765,-3.54296"
       id="path47974" /><path
       style="fill:#976b2b;fill-opacity:1;fill-rule:nonzero;stroke:none"
       d="m -445.97116,335.02691 c 0.56641,0.22656 0.62891,-0.17188 0.73047,-0.67188 0.10156,-0.5 1.25781,-4.06641 1.25781,-4.06641 0,0 1.54688,-1.77734 2.14454,-2.47265 0.60156,-0.69922 2.10937,-2.41797 1.94921,-3.00391 -0.15625,-0.58594 -0.59375,-1.07031 -1.18359,-1.03906 -0.59375,0.0312 -1.38281,0.90625 -2.00781,1.91406 -0.625,1.00781 -0.97266,1.94531 -1.21485,2.72266 -0.24218,0.77344 -1.95703,6.08203 -1.95703,6.08203 -0.0508,0.30078 0.28125,0.53516 0.28125,0.53516"
       id="path47976" /><path
       style="fill:#976b2b;fill-opacity:1;fill-rule:nonzero;stroke:none"
       d="m -445.49459,328.80816 c 0.58593,0.15625 0.60156,-0.2461 0.64062,-0.75782 0.0391,-0.50781 0.75,-4.1914 0.75,-4.1914 0,0 1.32031,-1.94922 1.83203,-2.71485 0.50781,-0.76562 1.79688,-2.65625 1.57031,-3.21484 -0.23046,-0.5625 -0.72265,-0.99219 -1.30468,-0.89063 -0.58594,0.10547 -1.26172,1.07032 -1.75782,2.14454 -0.5,1.07812 -0.72656,2.05078 -0.875,2.85156 -0.14453,0.80078 -1.20312,6.27734 -1.20312,6.27734 -0.0508,0.36719 0.34766,0.4961 0.34766,0.4961"
       id="path47978" /><path
       style="fill:#976b2b;fill-opacity:1;fill-rule:nonzero;stroke:none"
       d="m -440.65084,315.89409 c -0.47657,-0.40625 -0.98829,-0.78515 -0.54297,-1.73437 0.44922,-0.94531 0.64843,-1.37891 1.47656,-1.55469 0.82812,-0.17578 2.62891,1.03125 3.56641,3.19922 0.93359,2.16797 0.8125,2.20703 1.09765,3.12891 0.28125,0.92187 1.19531,4.20703 1.19531,4.20703 0,0 0.0234,0.51562 -0.34765,0.59375 -0.375,0.0781 -0.51953,-0.20703 -0.5625,-0.40235 -0.043,-0.1914 -0.89844,-3.41797 -0.89844,-3.41797 0,0 0.11328,-0.26953 -0.45703,-0.71093 -0.57031,-0.44141 -4.52734,-3.3086 -4.52734,-3.3086"
       id="path47980" /><path
       style="fill:#976b2b;fill-opacity:1;fill-rule:nonzero;stroke:none"
       d="m -445.74459,321.40972 c 0.59375,0.11328 0.58203,-0.29297 0.58593,-0.80078 0.004,-0.51172 0.45703,-4.23438 0.45703,-4.23438 0,0 1.17969,-2.03906 1.63672,-2.83594 0.45313,-0.80078 1.60547,-2.77343 1.33985,-3.32031 -0.26563,-0.54297 -0.78907,-0.9375 -1.36328,-0.79297 -0.57422,0.14063 -1.17969,1.15235 -1.60157,2.26172 -0.42187,1.10938 -0.58203,2.09375 -0.67578,2.90235 -0.0898,0.80859 -0.75781,6.34765 -0.75781,6.34765 -0.0273,0.32422 0.37891,0.47266 0.37891,0.47266"
       id="path47982" /><path
       style="fill:#976b2b;fill-opacity:1;fill-rule:nonzero;stroke:none"
       d="m -444.06491,306.11284 c -0.043,-1.10156 1.07032,-1.35547 1.65235,-1.27343 0.57812,0.0859 1.625,0.625 2.72265,1.85156 1.10157,1.22656 4.125,7.625 4.125,7.625 0,0 0.50782,0.66406 0,0.875 -0.50781,0.21094 -0.50781,-0.0117 -0.63672,-0.21094 -0.125,-0.19922 -1.42578,-3.27734 -1.72265,-3.69922 -0.29688,-0.42578 -2.99219,-2.42969 -4.08203,-3.1914 -1.08594,-0.76563 -2.0586,-1.97657 -2.0586,-1.97657"
       id="path47984" /><path
       style="fill:#976b2b;fill-opacity:1;fill-rule:nonzero;stroke:none"
       d="m -447.21334,300.71831 c -0.043,-0.67969 0.44921,-1.80859 1.29687,-1.64062 0.84766,0.17187 2.24609,0.55468 3.62891,1.98047 1.38281,1.42578 2.34375,2.97656 2.9375,3.69921 0.59375,0.71875 1.51172,1.84766 1.51172,1.84766 0,0 0.21093,0.46875 -0.0859,0.63672 -0.29688,0.16797 -0.6211,0.125 -0.91797,-0.29688 -0.29688,-0.42187 -1.80859,-2.55468 -2.14453,-2.9375 -0.33985,-0.3789 -2.97266,-1.28515 -3.85938,-1.71093 -0.89062,-0.42188 -2.1914,-1.08985 -2.36718,-1.57813"
       id="path47986" /><path
       style="fill:#976b2b;fill-opacity:1;fill-rule:nonzero;stroke:none"
       d="m -451.63913,294.44487 c -0.16796,-0.71875 -0.14843,-1.89062 1.67188,-1.55078 1.82031,0.33985 3.28906,1.60938 4.09375,2.27344 0.80469,0.66406 2.20312,2.30469 2.82422,3.02344 0.62109,0.71875 1.29687,1.36719 1.55469,1.60937 0.2539,0.23828 0.21093,0.36719 0,0.53907 -0.21485,0.16796 -0.46875,0.15234 -0.80469,-0.17188 -0.33985,-0.32422 -1.73828,-2.13281 -2.52735,-2.72656 -0.79296,-0.59375 -3.5625,-1.19922 -4.61718,-1.60938 -1.0625,-0.41015 -1.92578,-0.91015 -2.19532,-1.38672"
       id="path47988" /><path
       style="fill:#976b2b;fill-opacity:1;fill-rule:nonzero;stroke:none"
       d="m -451.21725,297.95269 c 0.1875,-0.53125 0.44922,-0.77735 1.21094,-0.75 0.76172,0.0273 1.2539,0.19922 1.48828,0.71875 0.23828,0.51562 -0.39453,2.82422 -0.60547,4.03125 -0.21484,1.20703 -0.44531,1.78125 -0.25391,2.42187 0.1875,0.64453 0.54688,1.30469 0.57422,1.71485 0.0274,0.41406 -0.3125,0.6289 -0.64453,0.27734 -0.17578,-0.1875 -1.09766,-3.38672 -1.24219,-4.05859 -0.14843,-0.66797 -0.63281,-2.57813 -0.61718,-3.04297 0.0195,-0.46485 0.0898,-1.3125 0.0898,-1.3125"
       id="path47990" /><path
       style="fill:#976b2b;fill-opacity:1;fill-rule:nonzero;stroke:none"
       d="m -446.98288,302.90191 c 0.3125,-0.46875 0.62891,-0.64454 1.35938,-0.4336 0.73437,0.21094 1.16406,0.4961 1.26953,1.05469 0.10547,0.55859 -1.06641,2.64453 -1.5625,3.76562 -0.5,1.1211 -0.86328,1.6211 -0.83594,2.28907 0.0312,0.66797 0.21875,1.39843 0.14453,1.80468 -0.0703,0.40235 -0.49218,0.49219 -0.65234,0.23438 -0.13281,-0.21875 -0.28516,-3.67578 -0.26562,-4.36328 0.0195,-0.6836 0.0156,-2.65235 0.14062,-3.10156 0.12891,-0.44922 0.40234,-1.25 0.40234,-1.25"
       id="path47992" /><path
       style="fill:#976b2b;fill-opacity:1;fill-rule:nonzero;stroke:none"
       d="m -457.23288,288.81987 c -0.2539,-0.6914 -0.42578,-1.85156 1.42188,-1.73828 1.85156,0.11328 3.46094,1.19532 4.34375,1.75782 0.87891,0.55859 2.46484,2.01562 3.16797,2.65234 0.70703,0.64062 1.45703,1.19922 1.73828,1.41016 0.28125,0.20703 0.25781,0.33593 0.0664,0.53125 -0.1875,0.19531 -0.44141,0.21484 -0.82032,-0.0703 -0.375,-0.28125 -1.98047,-1.90625 -2.83984,-2.39843 -0.85547,-0.48829 -3.67969,-0.75391 -4.77734,-1.03125 -1.10157,-0.28125 -2.30079,-1.11329 -2.30079,-1.11329"
       id="path47994" /><path
       style="fill:#976b2b;fill-opacity:1;fill-rule:nonzero;stroke:none"
       d="m -456.47897,291.83941 c 0.082,-0.5586 0.29297,-0.84766 1.04688,-0.96875 0.7539,-0.11719 1.26562,-0.043 1.59375,0.41796 0.33203,0.46485 0.15234,2.85157 0.17578,4.07813 0.0234,1.22656 -0.0977,1.83203 0.21484,2.42578 0.30859,0.59375 0.78516,1.17578 0.89063,1.57031 0.10546,0.40235 -0.22266,0.58203 -0.47266,0.53516 -0.25,-0.0469 -1.83203,-3.25391 -2.10156,-3.88281 -0.27344,-0.62891 -1.11328,-2.41407 -1.1836,-2.875 -0.0742,-0.45703 -0.16406,-1.30078 -0.16406,-1.30078"
       id="path47996" /><path
       style="fill:#976b2b;fill-opacity:1;fill-rule:nonzero;stroke:none"
       d="m -461.17819,286.80816 c 0.0742,-0.5586 0.16797,-1.10938 0.91797,-1.24219 0.75,-0.13281 1.375,0.1914 1.71484,0.64844 0.33985,0.45703 0.19922,2.84375 0.2461,4.07031 0.043,1.22656 -0.0625,1.83594 0.2539,2.42187 0.32032,0.58985 0.8086,1.16016 0.91797,1.5586 0.11328,0.39453 -0.21093,0.58203 -0.46093,0.53906 -0.25391,-0.0391 -1.88672,-3.21875 -2.17188,-3.84375 -0.28125,-0.62891 -1.15234,-2.39453 -1.23047,-2.85156 -0.082,-0.46094 -0.1875,-1.30078 -0.1875,-1.30078"
       id="path47998" /><path
       style="fill:#976b2b;fill-opacity:1;fill-rule:nonzero;stroke:none"
       d="m -474.66256,278.70659 c 0,0 4.51562,-0.19922 12.1289,3.41407 5.50782,2.69921 5.84375,3.14843 5.84375,3.14843 0,0 0.17188,0.33985 0.0859,0.59375 -0.0859,0.25391 -0.38281,0.29688 -0.71875,0.0859 -0.33984,-0.21094 -1.44141,-1.04687 -2.31641,-1.30078 -0.875,-0.25391 -1.55468,-0.19141 -1.97656,0.28516 -0.75,0.84765 -0.66406,3.12109 -0.66406,3.12109 0,0 -2.19141,-2.65625 -5.30859,-4.84766 -3.1211,-2.1875 -7.07422,-4.5 -7.07422,-4.5"
       id="path48000" /><path
       style="fill:#976b2b;fill-opacity:1;fill-rule:nonzero;stroke:none"
       d="m -441.77194,346.90581 c 0.30078,-0.0195 0.36719,-0.21484 0.41016,-0.38672 0.043,-0.17578 1.95312,-12.53515 1.95312,-12.53515 0,0 -2.34375,1.35547 -2.55859,2.82422 -0.21484,1.46875 0.73437,3.34765 0.73437,3.83203 0,0.48437 -0.83984,5.91797 -0.83984,5.91797 0,0 0,0.32812 0.30078,0.34765"
       id="path48002" /><path
       style="fill:#976b2b;fill-opacity:1;fill-rule:nonzero;stroke:none"
       d="m -440.22897,346.648 c 0.30078,0.043 0.45313,-0.28125 0.49609,-0.54297 0.043,-0.25781 0.73438,-4.89453 0.73438,-4.89453 0,0 2.23047,-3.40625 2.33984,-4.09766 0.10938,-0.6914 -0.10937,-1.55468 -0.71093,-2.21093 -0.60547,-0.65625 -1.14844,-0.91797 -1.14844,-0.91797 l -1.97266,12.29687 c 0,0 0.0859,0.30078 0.26172,0.36719"
       id="path48004" /><path
       style="fill:#976b2b;fill-opacity:1;fill-rule:nonzero;stroke:none"
       d="m -510.00631,341.58159 c -0.55078,0.25391 -0.63672,-0.14062 -0.76172,-0.63672 -0.12891,-0.49609 -1.47266,-3.99609 -1.47266,-3.99609 0,0 -1.64062,-1.69141 -2.27344,-2.35547 -0.63671,-0.66797 -2.23437,-2.30469 -2.10546,-2.89844 0.125,-0.58984 0.53515,-1.09765 1.1289,-1.09765 0.59375,0 1.42969,0.83203 2.10547,1.80469 0.67969,0.97656 1.07422,1.89453 1.35547,2.65625 0.28516,0.76171 2.27734,5.97265 2.27734,5.97265 0.0703,0.33203 -0.2539,0.55078 -0.2539,0.55078"
       id="path48006" /><path
       style="fill:#976b2b;fill-opacity:1;fill-rule:nonzero;stroke:none"
       d="m -517.25631,330.08941 c 0.3789,-0.4961 0.80468,-0.97657 0.16797,-1.8086 -0.63672,-0.83594 -0.91797,-1.21484 -1.76563,-1.21484 -0.84766,0 -2.35937,1.55078 -2.82812,3.87109 -0.46485,2.3125 -0.33594,2.32813 -0.42188,3.28906 -0.0859,0.95704 -0.29687,4.36329 -0.29687,4.36329 0,0 0.0859,0.50781 0.46484,0.50781 0.38281,0 0.46875,-0.3125 0.46875,-0.50781 0,-0.19922 0.16797,-3.53125 0.16797,-3.53125 0,0 -0.16797,-0.24219 0.29687,-0.79297 0.46485,-0.55078 3.7461,-4.17578 3.7461,-4.17578"
       id="path48008" /><path
       style="fill:#976b2b;fill-opacity:1;fill-rule:nonzero;stroke:none"
       d="m -516.84225,322.77691 c 0.45312,-0.42969 0.94922,-0.83594 0.44922,-1.75782 -0.4961,-0.92578 -0.71485,-1.34375 -1.55469,-1.47656 -0.83594,-0.13281 -2.57422,1.16406 -3.39844,3.37891 -0.82031,2.21484 -0.69922,2.24609 -0.92968,3.18359 -0.23438,0.93359 -0.98047,4.26172 -0.98047,4.26172 0,0 0.008,0.51562 0.38281,0.57422 0.37891,0.0625 0.50781,-0.23047 0.53906,-0.42578 0.0312,-0.19922 0.72266,-3.46094 0.72266,-3.46094 0,0 -0.12891,-0.26563 0.41406,-0.73438 0.54688,-0.47265 4.35547,-3.54296 4.35547,-3.54296"
       id="path48010" /><path
       style="fill:#976b2b;fill-opacity:1;fill-rule:nonzero;stroke:none"
       d="m -510.88522,335.02691 c -0.5625,0.22656 -0.62891,-0.17188 -0.72656,-0.67188 -0.10547,-0.5 -1.26172,-4.06641 -1.26172,-4.06641 0,0 -1.54688,-1.77734 -2.14844,-2.47265 -0.59765,-0.69922 -2.10937,-2.41797 -1.95312,-3.00391 0.16015,-0.58594 0.59765,-1.07031 1.1914,-1.03906 0.58985,0.0312 1.37891,0.90625 2.00782,1.91406 0.625,1.00781 0.96875,1.94531 1.21484,2.72266 0.24219,0.77344 1.95703,6.08203 1.95703,6.08203 0.0508,0.30078 -0.28125,0.53516 -0.28125,0.53516"
       id="path48012" /><path
       style="fill:#976b2b;fill-opacity:1;fill-rule:nonzero;stroke:none"
       d="m -511.36178,328.80816 c -0.58594,0.15625 -0.60156,-0.2461 -0.64063,-0.75782 -0.0391,-0.50781 -0.7539,-4.1914 -0.7539,-4.1914 0,0 -1.31641,-1.94922 -1.82813,-2.71485 -0.51172,-0.76562 -1.80078,-2.65625 -1.57031,-3.21484 0.22656,-0.5625 0.71875,-0.99219 1.30469,-0.89063 0.58203,0.10547 1.26172,1.07032 1.75781,2.14454 0.5,1.07812 0.73047,2.05078 0.875,2.85156 0.14844,0.80078 1.20312,6.27734 1.20312,6.27734 0.0508,0.36719 -0.34765,0.4961 -0.34765,0.4961"
       id="path48014" /><path
       style="fill:#976b2b;fill-opacity:1;fill-rule:nonzero;stroke:none"
       d="m -516.20944,315.88628 c 0.47656,-0.40234 0.99219,-0.78516 0.54297,-1.73047 -0.44922,-0.94922 -0.64844,-1.3789 -1.47656,-1.55859 -0.82813,-0.17188 -2.63281,1.03125 -3.57031,3.19922 -0.9375,2.16797 -0.81641,2.20703 -1.09766,3.1289 -0.28516,0.92188 -1.19922,4.20703 -1.19922,4.20703 0,0 -0.0234,0.51563 0.35156,0.59375 0.3711,0.082 0.51953,-0.20703 0.5625,-0.39843 0.0391,-0.19532 0.89844,-3.41797 0.89844,-3.41797 0,0 -0.11328,-0.26953 0.45703,-0.71485 0.57031,-0.4375 4.53125,-3.30859 4.53125,-3.30859"
       id="path48016" /><path
       style="fill:#976b2b;fill-opacity:1;fill-rule:nonzero;stroke:none"
       d="m -511.10788,321.40972 c -0.59765,0.11328 -0.58593,-0.29297 -0.58593,-0.80078 -0.004,-0.51172 -0.46094,-4.23438 -0.46094,-4.23438 0,0 -1.17969,-2.03906 -1.63672,-2.83594 -0.45703,-0.80078 -1.60937,-2.77343 -1.34375,-3.32031 0.26953,-0.54297 0.78906,-0.9375 1.36719,-0.79297 0.57422,0.14063 1.17969,1.15235 1.60547,2.26172 0.42187,1.10938 0.58203,2.09375 0.67187,2.90235 0.0899,0.80859 0.76172,6.34765 0.76172,6.34765 0.0234,0.32422 -0.37891,0.47266 -0.37891,0.47266"
       id="path48018" /><path
       style="fill:#976b2b;fill-opacity:1;fill-rule:nonzero;stroke:none"
       d="m -512.79147,306.11284 c 0.043,-1.10156 -1.07031,-1.35547 -1.65234,-1.27343 -0.57813,0.0859 -1.625,0.625 -2.73047,1.85156 -1.10156,1.22656 -4.125,7.625 -4.125,7.625 0,0 -0.50781,0.66406 0,0.875 0.50781,0.21094 0.50781,-0.0117 0.63672,-0.21094 0.125,-0.19922 1.42578,-3.27734 1.72265,-3.69922 0.29688,-0.42578 2.9961,-2.42969 4.08594,-3.1914 1.08984,-0.76563 2.0625,-1.97657 2.0625,-1.97657"
       id="path48020" /><path
       style="fill:#976b2b;fill-opacity:1;fill-rule:nonzero;stroke:none"
       d="m -509.63913,300.71831 c 0.043,-0.67969 -0.45312,-1.80859 -1.30078,-1.64062 -0.84765,0.17187 -2.24609,0.55468 -3.6289,1.98047 -1.38672,1.42578 -2.35157,2.97656 -2.94141,3.69921 -0.59375,0.71875 -1.51172,1.84766 -1.51172,1.84766 0,0 -0.21484,0.46875 0.082,0.63672 0.29688,0.16797 0.625,0.125 0.92188,-0.29688 0.29297,-0.42187 1.80859,-2.55468 2.14844,-2.9375 0.33593,-0.3789 2.96875,-1.28515 3.85937,-1.71093 0.89063,-0.42188 2.19141,-1.08985 2.37109,-1.57813"
       id="path48022" /><path
       style="fill:#976b2b;fill-opacity:1;fill-rule:nonzero;stroke:none"
       d="m -505.20944,294.44487 c 0.16797,-0.71875 0.14844,-1.89062 -1.67578,-1.55078 -1.82031,0.33985 -3.29297,1.60938 -4.09766,2.27344 -0.80468,0.66406 -2.20312,2.30469 -2.82421,3.02344 -0.625,0.71875 -1.30079,1.36719 -1.55469,1.60937 -0.25391,0.23828 -0.21094,0.36719 0,0.53907 0.21094,0.16796 0.46484,0.15234 0.80469,-0.17188 0.33984,-0.32422 1.73828,-2.13281 2.52734,-2.72656 0.79297,-0.59375 3.5625,-1.19922 4.625,-1.60938 1.05859,-0.41015 1.92578,-0.91015 2.19531,-1.38672"
       id="path48024" /><path
       style="fill:#976b2b;fill-opacity:1;fill-rule:nonzero;stroke:none"
       d="m -505.63131,297.95269 c -0.1875,-0.53125 -0.45313,-0.77735 -1.21485,-0.75 -0.76172,0.0273 -1.2539,0.19922 -1.48828,0.71875 -0.23828,0.51562 0.39453,2.82422 0.60547,4.03125 0.21484,1.20703 0.44531,1.78125 0.25391,2.42187 -0.1875,0.64453 -0.54688,1.30469 -0.57422,1.71485 -0.0274,0.41406 0.3164,0.6289 0.64844,0.27734 0.17187,-0.1875 1.09375,-3.38672 1.24218,-4.05859 0.14453,-0.66797 0.62891,-2.57813 0.61328,-3.04297 -0.0156,-0.46485 -0.0859,-1.3125 -0.0859,-1.3125"
       id="path48026" /><path
       style="fill:#976b2b;fill-opacity:1;fill-rule:nonzero;stroke:none"
       d="m -509.8735,302.90191 c -0.3125,-0.46875 -0.625,-0.64454 -1.35938,-0.4336 -0.73437,0.21094 -1.16406,0.4961 -1.26953,1.05469 -0.10547,0.55859 1.06641,2.64453 1.56641,3.76562 0.49609,1.1211 0.85937,1.6211 0.83203,2.28907 -0.0273,0.66797 -0.21484,1.39843 -0.14453,1.80468 0.0742,0.40235 0.49609,0.49219 0.65625,0.23438 0.13281,-0.21875 0.28516,-3.67578 0.26562,-4.36328 -0.0234,-0.6836 -0.0156,-2.65235 -0.14453,-3.10156 -0.1289,-0.44922 -0.40234,-1.25 -0.40234,-1.25"
       id="path48028" /><path
       style="fill:#976b2b;fill-opacity:1;fill-rule:nonzero;stroke:none"
       d="m -499.61178,288.81987 c 0.25781,-0.6914 0.42578,-1.85156 -1.42188,-1.73828 -1.85156,0.11328 -3.46875,1.19532 -4.34765,1.75782 -0.87891,0.55859 -2.46875,2.01562 -3.17188,2.65234 -0.70703,0.64062 -1.46094,1.19922 -1.74219,1.41016 -0.28125,0.20703 -0.2539,0.33593 -0.0625,0.53125 0.1875,0.19531 0.44141,0.21484 0.82032,-0.0703 0.375,-0.28125 1.98047,-1.90625 2.83984,-2.39843 0.85938,-0.48829 3.68359,-0.75391 4.78516,-1.03125 1.10156,-0.28125 2.30078,-1.11329 2.30078,-1.11329"
       id="path48030" /><path
       style="fill:#976b2b;fill-opacity:1;fill-rule:nonzero;stroke:none"
       d="m -500.36569,291.83941 c -0.082,-0.5586 -0.29297,-0.84766 -1.04687,-0.96875 -0.75391,-0.11719 -1.26953,-0.043 -1.59766,0.41796 -0.33203,0.46485 -0.15234,2.85157 -0.17578,4.07813 -0.0234,1.22656 0.0977,1.83203 -0.21094,2.42578 -0.30859,0.59375 -0.78906,1.17578 -0.89453,1.57031 -0.10547,0.40235 0.22266,0.58203 0.47266,0.53516 0.2539,-0.0469 1.83593,-3.25391 2.10547,-3.88281 0.26953,-0.62891 1.11328,-2.41407 1.18359,-2.875 0.0742,-0.45703 0.16406,-1.30078 0.16406,-1.30078"
       id="path48032" /><path
       style="fill:#976b2b;fill-opacity:1;fill-rule:nonzero;stroke:none"
       d="m -495.66256,286.80816 c -0.0742,-0.5586 -0.16407,-1.10938 -0.91797,-1.24219 -0.75,-0.13281 -1.37891,0.1914 -1.71875,0.64844 -0.33594,0.45703 -0.19922,2.84375 -0.2461,4.07031 -0.043,1.22656 0.0664,1.83594 -0.2539,2.42187 -0.31641,0.58985 -0.80469,1.16016 -0.91797,1.5586 -0.11328,0.39453 0.21094,0.58203 0.46094,0.53906 0.2539,-0.0391 1.89062,-3.21875 2.17187,-3.84375 0.28516,-0.62891 1.15625,-2.39453 1.23438,-2.85156 0.082,-0.46094 0.1875,-1.30078 0.1875,-1.30078"
       id="path48034" /><path
       style="fill:#976b2b;fill-opacity:1;fill-rule:nonzero;stroke:none"
       d="m -482.16256,278.70659 c 0,0 -4.52344,-0.19922 -12.14063,3.41407 -5.51172,2.69921 -5.85156,3.14843 -5.85156,3.14843 0,0 -0.17188,0.33985 -0.0859,0.59375 0.0859,0.25391 0.38281,0.29688 0.72266,0.0859 0.33594,-0.21094 1.4414,-1.04687 2.3164,-1.30078 0.875,-0.25391 1.5586,-0.19141 1.97657,0.28516 0.75,0.84765 0.66797,3.12109 0.66797,3.12109 0,0 2.1914,-2.65625 5.3125,-4.84766 3.125,-2.1875 7.08203,-4.5 7.08203,-4.5"
       id="path48036" /><path
       style="fill:#976b2b;fill-opacity:1;fill-rule:nonzero;stroke:none"
       d="m -515.08834,346.90581 c -0.30079,-0.0195 -0.36719,-0.21484 -0.41016,-0.38672 -0.043,-0.17578 -1.95313,-12.53515 -1.95313,-12.53515 0,0 2.34375,1.35547 2.5586,2.82422 0.21484,1.46875 -0.73438,3.34765 -0.73438,3.83203 0,0.48437 0.84375,5.91797 0.84375,5.91797 0,0 0,0.32812 -0.30468,0.34765"
       id="path48038" /><path
       style="fill:#976b2b;fill-opacity:1;fill-rule:nonzero;stroke:none"
       d="m -516.63131,346.648 c -0.30078,0.043 -0.45313,-0.28125 -0.4961,-0.54297 -0.043,-0.25781 -0.73437,-4.89453 -0.73437,-4.89453 0,0 -2.23438,-3.40625 -2.34375,-4.09766 -0.10938,-0.6914 0.10937,-1.55468 0.71484,-2.21093 0.60547,-0.65625 1.14453,-0.91797 1.14453,-0.91797 l 1.97657,12.29687 c 0,0 -0.0859,0.30078 -0.26172,0.36719"
       id="path48040" /><path
       style="fill:#9c4c0a;fill-opacity:1;fill-rule:evenodd;stroke:#976b2b;stroke-width:0.12;stroke-linecap:butt;stroke-linejoin:miter;stroke-miterlimit:3.864;stroke-opacity:1"
       d="m -486.81491,387.50347 7.98828,6.24218 4.22657,-3.35546 c 0,0 1.20703,1.8789 1.54297,4.02734 0.33593,2.14453 0.40234,4.02344 0.40234,4.02344 0,0 -2.05859,0.043 -3.48828,0.74218 -2.61719,1.27344 -4.16016,4.35938 -4.16016,4.35938 0,0 0.26953,-1.8125 -0.46875,-4.69531 -0.74219,-2.88672 -2.01562,-4.83203 -3.15625,-6.10938 -1.14062,-1.27344 -2.88672,-5.23437 -2.88672,-5.23437 z m 0,0"
       id="path48042" /><path
       style="fill:#9c4c0a;fill-opacity:1;fill-rule:nonzero;stroke:#976b2b;stroke-width:0.12;stroke-linecap:butt;stroke-linejoin:miter;stroke-miterlimit:3.864;stroke-opacity:1"
       d="m -478.15475,406.83159 c 0,0 0.33203,-3.01953 1.80859,-4.69531 1.47657,-1.67969 3.625,-2.95313 3.625,-2.95313 0,0 -0.13281,3.21875 -0.9375,4.4961 -0.80859,1.27344 -4.49609,3.15234 -4.49609,3.15234 z m 0,0"
       id="path48044" /><path
       style="fill:#dcbf4f;fill-opacity:1;fill-rule:nonzero;stroke:none"
       d="m -471.23678,399.40581 c 0,0 0.043,-3.53906 -0.54297,-5.55859 -0.58984,-2.02344 -1.6875,-4.42188 -1.6875,-4.42188 l 4.08594,-3.24218 c 0,0 4.08593,0.46484 6.60937,0.96875 2.52735,0.5039 4.47266,1.01562 5.51953,2.0625 1.38672,1.39062 0.41797,3.07031 0.41797,3.07031 0,0 3.4336,1.53125 5.01172,2.66015 2.35938,1.67969 1.17969,3.32422 1.17969,3.32422 0,0 2.63672,0.625 4.29687,1.51563 2.98828,1.60156 1.67969,3.03125 1.67969,3.03125 0,0 3.73828,0.29687 6.74219,1.55859 2.10547,0.88281 1.79687,1.98438 1.67578,2.82422 -0.12109,0.83984 -0.71484,3.23828 -2.35156,5.38672 -1.64063,2.14844 -2.64844,3.36719 -3.57813,3.44922 -0.92578,0.0859 -2.57031,-3.27344 -2.94922,-3.95313 -0.3789,-0.67578 -5.30468,-8.42578 -11.36718,-13.6875 -6.06641,-5.26172 -10.3125,-6.96093 -11.53907,-6.82031 -1.09765,0.125 -1.51562,2.82422 -1.72656,3.49609 -0.21094,0.67188 -1.47656,4.33594 -1.47656,4.33594"
       id="path48046" /><path
       style="fill:#c27f07;fill-opacity:1;fill-rule:evenodd;stroke:none"
       d="m -493.05709,408.00737 c 0,0 0.44921,0.76172 0.9414,1.33985 0.33594,0.39844 0.63672,0.37109 1.24219,0.33594 0.60156,-0.0312 6.07422,-0.73829 7.14453,-1.00391 1.07422,-0.26953 1.81641,-0.50391 2.21484,-0.94141 0.40625,-0.43359 0.83985,-1.30859 1.10938,-1.91406 0.26953,-0.60156 1.27734,-3.10937 2.91797,-4.5625 2.61719,-2.3125 4.36328,-2.44922 4.36328,-2.44922 0,0 -1.20703,0.30078 -2.65234,1.57813 -1.44141,1.27343 -2.28125,2.95312 -2.61719,4.49609 -0.33594,1.54297 -0.48047,2.04688 -0.55078,2.71875 -0.0274,0.25 -0.0586,0.40234 0.008,0.46875 0.0664,0.0664 0.17578,0.10938 0.27734,0.0898 0.0977,-0.0156 0.48438,-0.34375 0.69532,-0.49218 0.20703,-0.15235 3.32812,-1.87891 3.63281,-2.09766 0.30078,-0.21875 2.41406,-1.92969 3.53906,-4.3125 1.125,-2.38281 1.27734,-3.32031 1.62891,-4.67969 0.38672,-1.46093 0.78906,-1.60937 0.78906,-1.60937 0,0 0.30078,1.54297 -0.0195,3.48828 -0.31641,1.94531 -1.07422,3.84375 -1.97656,5.08203 -0.90625,1.24219 -1.84766,2.18359 -1.84766,2.18359 0,0 1.50781,-0.63671 4.5625,-1.47656 3.05469,-0.83984 4.0625,-1.10937 5.73828,-1.71484 1.67969,-0.60156 4.29688,-1.71094 4.29688,-1.71094 0,0 -1,1.25781 -3.58985,2.58594 -2.68359,1.375 -4.73437,2.41406 -6.74609,3.05469 -2.01172,0.63671 -4.3125,1.35937 -5.30078,1.50781 -2.01563,0.30469 -3.25782,1.37109 -3.25782,1.37109 0,0 0.91797,0.7461 1.0625,2.08985 0.14063,1.34375 -0.42578,2.45703 -1.375,3.0039 -0.94531,0.54688 -1.6289,0.71485 -2.57812,0.89063 -0.94531,0.17187 -3.34766,0.40234 -4.06641,0.45703 -0.71484,0.0586 -1.51562,-0.0859 -2.14453,-0.51563 -0.63281,-0.42968 -1.09375,-1.14062 -1.23828,-1.54297 0,0 -2.91406,-0.66406 -3.91797,-1.17968 -1.00781,-0.51563 -1.80469,-0.94922 -2.26562,-2.4336 -0.45703,-1.48828 -0.0195,-2.10547 -0.0195,-2.10547"
       id="path48048" /><path
       style="fill:#025e2b;fill-opacity:1;fill-rule:nonzero;stroke:none"
       d="m -478.63913,372.14019 -3.6914,-13.08985 3.82422,-4.96484 3.22265,4.83203 -3.35547,13.22266"
       id="path48050" /><path
       style="fill:#025e2b;fill-opacity:1;fill-rule:evenodd;stroke:none"
       d="m -492.62741,372.17925 6.65235,-12.16797 5.1289,-5.20703 -3.30078,4.54687 1.59375,5.69141 -10.07422,7.13672"
       id="path48052" /><path
       style="fill:#025e2b;fill-opacity:1;fill-rule:nonzero;stroke:none"
       d="m -484.76022,356.50737 -2.20312,2.03516 -3.08594,5.50391 -15.96485,6.77343 14.09375,-10.96093 7.16016,-3.35157"
       id="path48054" /><path
       style="fill:#c27f07;fill-opacity:1;fill-rule:nonzero;stroke:none"
       d="m -504.63913,372.14019 13.16016,-5.5625 -3.07812,5.5625 h -10.08204"
       id="path48056" /><path
       style="fill:#c27f07;fill-opacity:1;fill-rule:nonzero;stroke:none"
       d="m -489.77194,372.14019 7.71485,-5.44922 1.53906,5.44922 h -9.25391"
       id="path48058" /><path
       style="fill:#025e2b;fill-opacity:1;fill-rule:nonzero;stroke:none"
       d="m -472.76022,356.50737 2.20313,2.03516 3.08984,5.50391 15.96484,6.77343 -14.09375,-10.96093 -7.16406,-3.35157"
       id="path48060" /><path
       style="fill:#c27f07;fill-opacity:1;fill-rule:nonzero;stroke:none"
       d="m -452.87741,372.14019 -13.16015,-5.5625 3.07812,5.5625 h 10.08203"
       id="path48062" /><path
       style="fill:#c27f07;fill-opacity:1;fill-rule:nonzero;stroke:none"
       d="m -467.74459,372.14019 -7.71485,-5.44922 -1.53906,5.44922 h 9.25391"
       id="path48064" /><path
       style="fill:#f8a10c;fill-opacity:1;fill-rule:nonzero;stroke:none"
       d="m -471.38913,385.74566 h -14.95703 l 7.45703,-5.98438 7.5,5.98438"
       id="path48066" /><path
       style="fill:#f8a10c;fill-opacity:1;fill-rule:nonzero;stroke:none"
       d="m -478.82272,379.81597 h -15.1875 l 7.45703,-5.98438 7.73047,5.98438"
       id="path48068" /><path
       style="fill:#f8a10c;fill-opacity:1;fill-rule:nonzero;stroke:none"
       d="m -463.97116,379.81987 -14.96875,-0.004 7.58203,-6.03906 7.38672,6.04296"
       id="path48070" /><path
       style="fill:#ffffff;fill-opacity:1;fill-rule:nonzero;stroke:none"
       d="m -463.13913,306.32769 c -0.008,0.0937 -0.0117,0.18359 -0.0156,0.26562 0,0.008 -0.004,0.0273 -0.0234,0.043 -0.0156,0.0117 -0.0508,0.008 -0.0508,0.008 l -1.99219,-0.29687 c 0,0 -0.0391,-0.004 -0.0664,-0.0274 -0.0312,-0.0195 -0.0391,-0.0547 -0.0391,-0.0547 l -0.11328,-0.29688 c 0,0 -0.0117,-0.0312 0.004,-0.0508 0.0156,-0.0156 0.0547,-0.0117 0.0547,-0.0117 l 2.1875,0.34375 c 0,0 0.0312,0.004 0.0469,0.0195 0.0117,0.0195 0.0117,0.0469 0.008,0.0586"
       id="path48072" /><path
       style="fill:#ffffff;fill-opacity:1;fill-rule:nonzero;stroke:none"
       d="m -468.69381,318.08159 c 0.0859,-0.0859 0.0976,-0.0703 0.13281,-0.0703 0.0352,0 0.0703,0.0273 0.0703,0.0273 l 3.25781,2.28125 c 0,0 0.0352,0.0274 0.043,0.0469 0.0117,0.0273 -0.0117,0.0508 -0.0195,0.0586 -0.0664,0.0781 -0.125,0.15235 -0.17187,0.21875 -0.008,0.008 -0.0234,0.0352 -0.0586,0.0352 -0.0391,-0.004 -0.14453,-0.0859 -0.14453,-0.0859 l -3.20703,-2.18359 c 0,0 -0.0625,-0.0234 -0.0586,-0.10938 0.004,-0.0625 0.0781,-0.125 0.15625,-0.21875"
       id="path48074" /><path
       style="fill:#ffffff;fill-opacity:1;fill-rule:nonzero;stroke:none"
       d="m -471.90084,305.85894 c -0.0391,-0.10157 -0.0586,-0.16797 -0.0977,-0.27735 -0.004,-0.008 -0.0234,-0.0508 -0.008,-0.0742 0.0156,-0.0234 0.0547,-0.0156 0.0547,-0.0156 l 2.52344,0.53516 c 0,0 0.0703,0.0117 0.0899,0.0352 0.0312,0.0391 0,0.0898 -0.0117,0.125 -0.0312,0.082 -0.0312,0.0977 -0.043,0.17578 0,0.0156 -0.008,0.0469 -0.0508,0.0664 -0.043,0.0156 -0.10157,0 -0.10157,0 l -2.24218,-0.48047 c 0,0 -0.0469,-0.004 -0.0742,-0.0273 -0.0274,-0.0195 -0.0352,-0.0508 -0.0391,-0.0625"
       id="path48076" /><path
       style="fill:#ffffff;fill-opacity:1;fill-rule:nonzero;stroke:none"
       d="m -493.58834,306.32769 c 0.008,0.0937 0.0156,0.18359 0.0195,0.26562 0,0.008 0.004,0.0273 0.0195,0.043 0.0195,0.0117 0.0547,0.008 0.0547,0.008 l 1.99218,-0.29687 c 0,0 0.0391,-0.004 0.0664,-0.0274 0.0312,-0.0195 0.0391,-0.0547 0.0391,-0.0547 l 0.10938,-0.29688 c 0,0 0.0117,-0.0312 -0.004,-0.0508 -0.0156,-0.0156 -0.0508,-0.0117 -0.0508,-0.0117 l -2.19141,0.34375 c 0,0 -0.0273,0.004 -0.043,0.0195 -0.0156,0.0195 -0.0117,0.0469 -0.0117,0.0586"
       id="path48078" /><path
       style="fill:#ffffff;fill-opacity:1;fill-rule:nonzero;stroke:none"
       d="m -488.02975,318.08159 c -0.0859,-0.0859 -0.10156,-0.0703 -0.13281,-0.0703 -0.0352,0 -0.0703,0.0273 -0.0703,0.0273 l -3.25781,2.28125 c 0,0 -0.0351,0.0274 -0.043,0.0469 -0.0117,0.0273 0.0117,0.0508 0.0195,0.0586 0.0664,0.0781 0.125,0.15235 0.16797,0.21875 0.008,0.008 0.0234,0.0352 0.0625,0.0352 0.0352,-0.004 0.14063,-0.0859 0.14063,-0.0859 l 3.21094,-2.18359 c 0,0 0.0625,-0.0234 0.0547,-0.10938 0,-0.0625 -0.0781,-0.125 -0.15234,-0.21875"
       id="path48080" /><path
       style="fill:#ffffff;fill-opacity:1;fill-rule:nonzero;stroke:none"
       d="m -484.82272,305.85894 c 0.0352,-0.10157 0.0586,-0.16797 0.0977,-0.27735 0.004,-0.008 0.0195,-0.0508 0.008,-0.0742 -0.0156,-0.0234 -0.0547,-0.0156 -0.0547,-0.0156 l -2.52734,0.53516 c 0,0 -0.0664,0.0117 -0.0899,0.0352 -0.0312,0.0391 0.004,0.0898 0.0117,0.125 0.0312,0.082 0.0312,0.0977 0.043,0.17578 0.004,0.0156 0.008,0.0469 0.0508,0.0664 0.043,0.0156 0.10157,0 0.10157,0 l 2.24218,-0.48047 c 0,0 0.0469,-0.004 0.0742,-0.0273 0.0312,-0.0195 0.0391,-0.0508 0.043,-0.0625"
       id="path48082" /><path
       style="fill:#ffffff;fill-opacity:1;fill-rule:nonzero;stroke:none"
       d="m -477.23288,333.17534 c 0.0352,-0.0625 0.0703,-0.125 0.10157,-0.17968 0.008,-0.0117 0.0234,-0.0391 0.0547,-0.043 0.0312,-0.004 0.0664,0.0195 0.0664,0.0195 l 1.30078,0.82422 c 0,0 0.043,0.0117 0.0469,0.0664 0.004,0.0391 -0.0312,0.0703 -0.0469,0.082 -0.0547,0.0547 -0.10937,0.11329 -0.16797,0.16797 -0.0117,0.0117 -0.043,0.0352 -0.0781,0.0352 -0.0352,0 -0.0703,-0.0273 -0.0703,-0.0273 l -1.17579,-0.84375 c 0,0 -0.0312,-0.0234 -0.0351,-0.0469 -0.008,-0.0234 0,-0.0469 0.004,-0.0547"
       id="path48084" /><path
       style="fill:#ffffff;fill-opacity:1;fill-rule:nonzero;stroke:none"
       d="m -477.51413,333.69487 c 0.0312,-0.0547 0.0352,-0.082 0.0742,-0.14453 0.008,-0.0117 0.0156,-0.0273 0.0508,-0.0312 0.0312,0 0.0625,0.0195 0.0625,0.0195 l 1.08594,0.85157 c 0,0 0.0352,0.0273 0.043,0.0469 0.0117,0.0273 -0.0117,0.0508 -0.0195,0.0586 -0.0664,0.0781 -0.125,0.15234 -0.17188,0.21875 -0.008,0.008 -0.0234,0.0391 -0.0586,0.0352 -0.0391,-0.004 -0.0703,-0.0352 -0.0703,-0.0352 l -0.97656,-0.91016 c 0,0 -0.0352,-0.0234 -0.0391,-0.0586 0,-0.0234 0.0117,-0.043 0.0195,-0.0508"
       id="path48086" /><path
       style="fill:#ffffff;fill-opacity:1;fill-rule:nonzero;stroke:none"
       d="m -479.49459,333.17534 c -0.0352,-0.0625 -0.0664,-0.125 -0.10157,-0.17968 -0.004,-0.0117 -0.0195,-0.0391 -0.0508,-0.043 -0.0351,-0.004 -0.0664,0.0195 -0.0664,0.0195 l -1.30079,0.82422 c 0,0 -0.043,0.0117 -0.0469,0.0664 -0.004,0.0391 0.0312,0.0703 0.0469,0.082 0.0508,0.0547 0.10938,0.11329 0.16797,0.16797 0.008,0.0117 0.0391,0.0352 0.0742,0.0352 0.0391,0 0.0742,-0.0273 0.0742,-0.0273 l 1.17578,-0.84375 c 0,0 0.0274,-0.0234 0.0352,-0.0469 0.008,-0.0234 0,-0.0469 -0.008,-0.0547"
       id="path48088" /><path
       style="fill:#ffffff;fill-opacity:1;fill-rule:nonzero;stroke:none"
       d="m -479.20944,333.69487 c -0.0351,-0.0547 -0.0391,-0.082 -0.0781,-0.14453 -0.004,-0.0117 -0.0156,-0.0273 -0.0469,-0.0312 -0.0351,0 -0.0625,0.0195 -0.0625,0.0195 l -1.08594,0.85157 c 0,0 -0.0351,0.0273 -0.043,0.0469 -0.0117,0.0273 0.0117,0.0508 0.0195,0.0586 0.0664,0.0781 0.125,0.15234 0.17187,0.21875 0.004,0.008 0.0195,0.0391 0.0586,0.0352 0.0351,-0.004 0.0664,-0.0352 0.0664,-0.0352 l 0.98047,-0.91016 c 0,0 0.0352,-0.0234 0.0352,-0.0586 0.004,-0.0234 -0.008,-0.043 -0.0156,-0.0508"
       id="path48090" /><path
       style="fill:#211e1e;fill-opacity:1;fill-rule:nonzero;stroke:none"
       d="m -455.59225,355.35112 -18.53906,-3.26171 20.32422,-3.4961 c 0,0 0.85546,-0.16015 0.69531,-1.0039 -0.16016,-0.85157 -1.00781,-0.64844 -1.00781,-0.64844 l -24.51563,4.35547 -24.17187,-4.25782 c 0,0 -0.87891,-0.20703 -1.05469,0.61719 -0.17188,0.82031 0.71875,1 0.71875,1 l 20.03515,3.4336 -16.44921,2.92578 0.33203,1.39062 20.60547,-3.54687 24.69921,4.23437 c 0.30469,0.0703 0.58204,0.12891 0.83594,0.17188 2.97266,0.83593 3.06641,1.61718 4.27344,3.65625 0.37891,0.48047 0.70312,0.98437 2.04297,0.96484 2.34375,-0.0391 4.95703,-0.99219 5.35547,-3.23828 0.39843,-2.26172 -1.46485,-3.90234 -3.92188,-4.88672 -1.24219,-0.5 -1.72656,-0.10937 -2.25,0.20703 -1.87109,1.53125 -2.14844,2.28906 -5.37109,1.82813 -0.20703,-0.0469 -0.50781,-0.0781 -0.74219,-0.1211 l -1.89453,-0.32422"
       id="path48092" /><path
       style="fill:#6b1411;fill-opacity:1;fill-rule:nonzero;stroke:none"
       d="m -478.78756,349.90581 c 0,0 25.57812,-4.625 25.55078,-4.64062 2.61719,-5.85157 4.05469,-12.32422 4.05469,-18.91407 0,-18.48828 -11.3125,-36.16796 -28.42969,-44.8789 l -0.78125,-0.39844 -0.78125,0.39844 c -17.1211,8.71094 -28.4336,26.39062 -28.4336,44.8789 0,6.65235 1.45704,13.1836 4.11719,19.07813 0.0664,-0.082 24.70313,4.47656 24.70313,4.47656"
       id="path48094" /><path
       style="fill:#dcbf4f;fill-opacity:1;fill-rule:nonzero;stroke:none"
       d="m -504.90475,326.36675 c 0,5.97266 1.18359,11.69531 3.34766,16.99219 -0.008,-0.0899 22.83203,4.18359 22.83203,4.23828 0.0976,0.0391 23.70703,-4.32813 23.54297,-4.35547 2.13281,-5.26563 3.29687,-10.94922 3.29687,-16.875 0,-15.21875 -7.68359,-28.83594 -19.77344,-37.92578 0,0 -1.76562,-1.51563 -3.36718,-2.52344 -1.60547,-1.00781 -3.36719,-1.80469 -3.36719,-1.80469 0,0 -1.79297,0.88282 -3.86328,2.19532 -2.06641,1.3125 -2.8711,2.13281 -2.8711,2.13281 -12.09375,9.08984 -19.77734,22.70703 -19.77734,37.92578"
       id="path48096" /><g
       clip-path="url(#clip4)"
       clip-rule="nonzero"
       id="g48102"
       transform="matrix(1,0,0,-1,-779.1235,856.54253)"><g
         clip-path="url(#clip5)"
         clip-rule="nonzero"
         id="g48100" /></g><path
       style="fill:none;stroke:#dcbf4f;stroke-width:0.162;stroke-linecap:butt;stroke-linejoin:miter;stroke-miterlimit:3.864;stroke-opacity:1"
       d="m -504.90475,326.36675 c 0,5.97265 1.18359,11.69531 3.34766,16.99219 -0.008,-0.0898 22.83203,4.18359 22.83203,4.23828 0.0977,0.0391 23.70703,-4.32813 23.54297,-4.35547 2.13281,-5.26563 3.29687,-10.94922 3.29687,-16.875 0,-15.21875 -7.68359,-28.83594 -19.77344,-37.92578 0,0 -1.76562,-1.51563 -3.36718,-2.52344 -1.60547,-1.00781 -3.36719,-1.80469 -3.36719,-1.80469 0,0 -1.79297,0.88281 -3.86328,2.19531 -2.06641,1.3125 -2.8711,2.13282 -2.8711,2.13282 -12.09375,9.08984 -19.77734,22.70703 -19.77734,37.92578 z m 0,0"
       id="path48104" /><path
       style="fill:#dcbf4f;fill-opacity:1;fill-rule:nonzero;stroke:#ffffff;stroke-width:1.011;stroke-linecap:round;stroke-linejoin:round;stroke-miterlimit:3.864;stroke-opacity:1"
       d="m -518.68991,296.88628 c -10.77734,17.44531 -13.29687,41.625 -5.98046,62.06641 1.85937,5.1875 3.90234,9.6875 6.54296,14.11718 0.375,0.72657 1.69141,2.53516 0.75782,2.87891 -0.41407,0.19531 -2.03907,-1.36719 -2.57813,-2.01953 -5.60156,-6.73438 -9.80469,-14.21485 -13,-23.14063 -6.64062,-18.55468 -5.92969,-37.93359 0.60156,-54.625 1.39844,-3.2539 13.75782,-0.38672 13.65625,0.72266 z m 0,0"
       id="path48106" /><path
       style="fill:#c7a854;fill-opacity:1;fill-rule:nonzero;stroke:#ffffff;stroke-width:1.011;stroke-linecap:round;stroke-linejoin:round;stroke-miterlimit:3.864;stroke-opacity:1"
       d="m -523.72506,296.41362 c -13.44922,20.57813 -18.26953,41.46875 -12.34766,65.58594 1.44531,5.89063 3.32813,11.51953 5.73047,16.79688 0.26562,0.53906 1.48828,2.91015 0.71875,3.20312 -0.73828,0.58984 -2.08984,-1.62891 -2.65625,-2.40234 -5.39453,-8.13282 -9.46484,-17.38282 -11.82031,-27.4961 -4.85157,-20.85547 -1.73438,-38.22656 7.65625,-55.30078 0.66406,-1.64844 15.34375,-3.76172 12.71875,-0.38672 z m 0,0"
       id="path48108" /><path
       style="fill:#211e1e;fill-opacity:1;fill-rule:nonzero;stroke:none"
       d="m -502.27584,355.0855 c 0,0 -3.48438,0.33594 -4.12891,-0.56641 -0.64453,-0.89843 -14.79297,4.82032 -14.79297,4.82032 0,0 14.08594,-2.35938 18.32422,-3.44141 4.29687,-1.08984 0.59766,-0.8125 0.59766,-0.8125"
       id="path48110" /><path
       style="fill:#211e1e;fill-opacity:1;fill-rule:nonzero;stroke:none"
       d="m -501.79538,357.23394 c 0,0 -3.52734,0.82422 -3.80468,1.8789 -0.28125,1.05469 -15.59766,0.22657 -15.59766,0.22657 0,0 14.23828,-2.33985 18.61328,-2.69141 4.4336,-0.35547 0.78906,0.58594 0.78906,0.58594"
       id="path48112" /><path
       style="fill:#c27f07;fill-opacity:1;fill-rule:nonzero;stroke:none"
       d="m -439.436,415.39019 c 0.54687,-0.53516 4.54687,-4.89844 4.30469,-10.125 4.9414,-0.92188 13.58984,0.0234 14.92578,0.28515 6.26953,1.21094 12.8789,3.21094 14.83984,4.30078 1.58985,0.87891 1.76563,1.82813 2.59375,4.17188 1.1875,3.35547 -4.30859,0.60156 -10.20703,-1.75 -3.83203,-1.52344 -6.34375,-2.50781 -7.80859,-2.97266 0.0351,0.30078 0.0664,0.60547 0.0898,0.91407 3.96875,1.80468 16.07031,6.82812 18.17969,8.40234 2.33984,1.74609 1.45703,5.36719 0.5,5.59375 -0.42188,0.10156 -10.58594,-5.76172 -18.59766,-10.36719 -0.0273,0.27344 -0.0547,0.5586 -0.0898,0.84766 3.86719,2.29297 8.16797,4.89844 11.3125,6.96094 9.0039,5.91015 8.32031,4.68359 7.60937,8.73828 -0.5625,3.20312 -3.19531,0.0859 -3.19531,0.0859 l -2.92969,-2.48437 c 0,0 -8.30078,-6.62891 -13.28125,-10.49609 -0.0586,0.26171 -0.12109,0.53125 -0.1914,0.80078 4.85937,4.0625 12.70312,10.8789 14.29297,12.53515 2.18359,2.27344 5.28125,3.58203 3.08593,7.61719 -0.97656,1.79297 -1.38281,2.875 -2.14843,2.58594 -0.69141,-1.13672 -1.63282,-1.96485 -2.20313,-2.71094 -4.39844,-5.75781 -9.75391,-11.73437 -14.20703,-16.45312 -0.12109,0.30468 -0.25391,0.60937 -0.39063,0.91406 2.76954,2.98828 5.46485,6.03515 7.17969,8.29297 8.29297,10.93359 9.29297,11.85156 8.14063,14.30078 -0.56641,1.20703 -2.91797,4.39453 -3.48438,4.125 0.0469,-1.57031 -2.02734,-5.44922 -5.10937,-10.03125 -4.32813,-6.4336 -6.94141,-10.30469 -8.76953,-12.98047 -0.25,0.38672 -0.51954,0.77344 -0.80079,1.15234 5.38672,8.58985 12.26563,19.96485 12.31641,22.52735 0.043,1.97265 -0.38281,3.38672 -3.34375,5.44922 -1.05469,0.73828 -3.13672,1.54687 -3.98437,1.24609 2.08593,-3.26172 -0.52735,-10.47266 -0.99219,-11.64453 -2.03906,-5.10938 -4.48828,-10.09375 -6.77735,-14.33985 -0.29296,0.29688 -0.60156,0.58985 -0.91796,0.87891 2.64843,5.57422 5.23437,11.72266 6.10546,15.55078 1.44532,6.33985 -0.1914,11.24219 -5.39843,13.59766 -2.25782,-16.49219 -6.83985,-31.26953 -13.06641,-43.05469 0.0703,-0.0625 0.13281,-0.125 0.19531,-0.1875 0.42969,-0.42969 1.14063,-0.97656 2.22266,-2.27734"
       id="path48114" /><path
       style="fill:#c27f07;fill-opacity:1;fill-rule:nonzero;stroke:none"
       d="m -517.35397,415.39019 c -0.54687,-0.53516 -4.54687,-4.89844 -4.30078,-10.125 -4.94531,-0.92188 -13.58984,0.0234 -14.92969,0.28515 -6.26562,1.21094 -12.875,3.21094 -14.83594,4.30078 -1.59375,0.87891 -1.76562,1.82813 -2.59375,4.17188 -1.1875,3.35547 4.3086,0.60156 10.20704,-1.75 3.83203,-1.52344 6.33984,-2.50781 7.80859,-2.97266 -0.0352,0.30078 -0.0664,0.60547 -0.0898,0.91407 -3.97266,1.80468 -16.07422,6.82812 -18.1836,8.40234 -2.33984,1.74609 -1.45703,5.36719 -0.5,5.59375 0.42188,0.10156 10.58985,-5.76172 18.60156,-10.36719 0.0234,0.27344 0.0547,0.5586 0.0898,0.84766 -3.8711,2.29297 -8.17188,4.89844 -11.31641,6.96094 -9,5.91015 -8.3164,4.68359 -7.60547,8.73828 0.5586,3.20312 3.19141,0.0859 3.19141,0.0859 l 2.93359,-2.48437 c 0,0 8.30078,-6.62891 13.27735,-10.49609 0.0625,0.26171 0.125,0.53125 0.1914,0.80078 -4.85547,4.0625 -12.69922,10.8789 -14.29297,12.53515 -2.18359,2.27344 -5.28125,3.58203 -3.08593,7.61719 0.97656,1.79297 1.38672,2.875 2.15234,2.58594 0.69141,-1.13672 1.62891,-1.96485 2.20313,-2.71094 4.39453,-5.75781 9.7539,-11.73437 14.20312,-16.45312 0.125,0.30468 0.25391,0.60937 0.39453,0.91406 -2.77344,2.98828 -5.46875,6.03515 -7.18359,8.29297 -8.28906,10.93359 -9.29297,11.85156 -8.14063,14.30078 0.56641,1.20703 2.92188,4.39453 3.48438,4.125 -0.0469,-1.57031 2.02734,-5.44922 5.11328,-10.03125 4.32812,-6.4336 6.94141,-10.30469 8.76562,-12.98047 0.25391,0.38672 0.51954,0.77344 0.80079,1.15234 -5.38672,8.58985 -12.26172,19.96485 -12.31641,22.52735 -0.0391,1.97265 0.38281,3.38672 3.34766,5.44922 1.05468,0.73828 3.13281,1.54687 3.98046,1.24609 -2.08203,-3.26172 0.53125,-10.47266 0.9961,-11.64453 2.03515,-5.10938 4.48828,-10.09375 6.77344,-14.33985 0.29687,0.29688 0.60156,0.58985 0.91796,0.87891 -2.64843,5.57422 -5.23437,11.72266 -6.10546,15.55078 -1.44141,6.33985 0.1914,11.24219 5.39843,13.59766 2.25782,-16.49219 6.83985,-31.26953 13.06641,-43.05469 -0.0664,-0.0625 -0.13281,-0.125 -0.19531,-0.1875 -0.42578,-0.42969 -1.13672,-0.97656 -2.22266,-2.27734"
       id="path48116" /><path
       style="fill:#025e2b;fill-opacity:1;fill-rule:nonzero;stroke:none"
       d="m -517.89694,294.50347 c 8.91797,-13.12891 23.3086,-21.62891 39.51172,-21.62891 16.15234,0 30.48438,8.46875 39.42188,21.53125 0.0508,0.082 0.0976,0.15625 0.15234,0.22266 l 0.33203,-0.14453 c 2.47266,-1.03907 5.69531,-1.61328 9.11328,-1.61328 2.6875,0 5.25391,0.35546 7.42969,1.01171 -10.67578,-21.97656 -31.94922,-36.95703 -56.44922,-36.95703 -24.53125,0 -45.82031,15.03125 -56.46875,37.05469 2.17188,-0.65234 4.73047,-1.00781 7.41016,-1.00781 3.41797,0 6.64453,0.57812 9.11328,1.61328 l 0.2539,0.10937 c 0.0586,-0.0586 0.1211,-0.12109 0.17969,-0.1914"
       id="path48118" /><path
       style="fill:#9c4c0a;fill-opacity:1;fill-rule:nonzero;stroke:none"
       d="m -489.29928,385.55816 c -4.3125,0.55078 -6.42578,1.0664 -7.53516,1.34375 -6.08594,1.52343 -4.34375,4.8164 -4.34375,4.8164 -7.74219,2.9961 -6.17578,5.87891 -6.17578,5.87891 -6.99219,1.9375 -6.05078,4.35937 -6.05078,4.35937 -3.41406,0.21485 -5.50391,1.07422 -6.75781,2.14844 -0.33985,0.20313 -0.48047,0.0977 -0.63672,0.10938 -0.11719,0.0117 -5.71485,-1.70313 -22.28125,1.10937 -3.28125,0.57031 -7.19531,1.35547 -8.14453,1.55469 0.30468,-1.0586 0.47656,-1.58985 1.05078,-2.50781 0.1914,-0.29688 0.3789,-0.76954 1.00781,-1.61719 0.51953,-0.83594 2.40625,-1.51953 3.67188,-1.83203 3.15234,-0.79297 9.08593,-0.26563 12.1875,-0.008 0.15625,-0.29687 0.3164,-0.58984 0.48437,-0.88281 -4.09375,-0.68359 -8.57031,-0.96875 -13.65234,-1.14062 0.82422,-1.21875 1.79687,-2.42578 3.24609,-3.35938 3.20703,-1.26172 8.53516,0.44922 12.27734,1.63672 0.19141,-0.25781 0.38672,-0.51562 0.58985,-0.77344 -2.90235,-1.09765 -9.8711,-2.64062 -11.37891,-2.88281 0.82031,-1.03906 1.90235,-2.54297 3.80469,-2.66016 2.12891,-0.46484 8.32422,1.87891 10.05859,2.71094 0.20313,-0.20703 0.41016,-0.41797 0.6211,-0.625 -1.95703,-1.26562 -9.07813,-3.50781 -9.86719,-3.69531 0.79297,-0.86328 2.37109,-2.36328 4.5,-2.36719 3.50391,0.54688 6.82422,2.48828 8.42187,3.35547 0.23829,-0.19141 0.48047,-0.38281 0.72657,-0.57031 -2.11328,-1.30078 -4.80469,-2.83985 -8.33203,-4.16406 0.70312,-0.64063 1.72656,-1.64844 3.30859,-2.00782 3.24609,-0.91406 6.37891,1.39453 9.26953,3.23438 0.26563,-0.16406 0.53516,-0.32813 0.80469,-0.48828 -1.25781,-1.08985 -3.51172,-2.58594 -7.25,-4.42969 0.5625,-0.66016 2.76562,-1.39844 3.85156,-1.68359 3.70313,-0.28907 6.49219,2.15234 8.39844,3.45312 l 0.75,-0.34766 c -2.05078,-1.64843 -3.42188,-2.40625 -6.66016,-4.4414 0.85547,-0.50391 1.97656,-1.27344 3.76172,-1.39063 3.07813,-0.32031 6.01172,1.97266 8.19531,3.66797 0.28907,-0.10547 0.58203,-0.20703 0.875,-0.30859 -0.80468,-0.66016 -4.16797,-3.16406 -6.46484,-4.48438 0.0664,0.0234 1.83984,-1.48828 4.82812,-1.35156 5.41016,-0.21484 10.66016,4.25391 10.66016,4.25391 l 8.17969,6.38672"
       id="path48120" /><path
       style="fill:#9c4c0a;fill-opacity:1;fill-rule:nonzero;stroke:none"
       d="m -459.29147,379.17144 c 0,0 5.24609,-4.46875 10.65234,-4.25391 2.98829,-0.13672 4.76563,1.375 4.83204,1.35156 -2.29688,1.32032 -5.66407,3.82422 -6.46875,4.48438 0.29296,0.10156 0.58593,0.20312 0.875,0.30859 2.18359,-1.69531 5.12109,-3.98828 8.19531,-3.66797 1.78515,0.11719 2.91015,0.88672 3.76562,1.39063 -3.23828,2.03515 -4.61328,2.79297 -6.66406,4.4414 l 0.75,0.34766 c 1.90625,-1.30078 4.69922,-3.74219 8.39844,-3.45312 1.08984,0.28515 3.28906,1.02343 3.85156,1.68359 -3.73437,1.84375 -5.98828,3.33984 -7.25,4.42969 0.26953,0.16015 0.53906,0.32422 0.80469,0.48828 2.89062,-1.83985 6.02344,-4.14844 9.27344,-3.23438 1.58203,0.35938 2.60546,1.36719 3.30859,2.00782 -3.53125,1.32421 -6.21875,2.86328 -8.33203,4.16406 0.24219,0.1875 0.48437,0.3789 0.72265,0.57031 1.59766,-0.86719 4.91797,-2.80859 8.42188,-3.35547 2.12891,0.004 3.71094,1.50391 4.5,2.36719 -0.78516,0.1875 -7.91016,2.42969 -9.86719,3.69531 0.21094,0.20703 0.41797,0.41797 0.6211,0.625 1.73828,-0.83203 7.92968,-3.17578 10.0625,-2.71094 1.90234,0.11719 2.98046,1.6211 3.80078,2.66016 -1.50782,0.24219 -8.47266,1.78516 -11.375,2.88281 0.19922,0.25782 0.39843,0.51563 0.58984,0.77344 3.73828,-1.1875 9.06641,-2.89844 12.27734,-1.63672 1.44922,0.9336 2.42188,2.14063 3.24219,3.35938 -5.07812,0.17187 -9.55859,0.45703 -13.64844,1.14062 0.16797,0.29297 0.32813,0.58594 0.48438,0.88281 3.10156,-0.25781 9.03516,-0.78515 12.1875,0.008 1.26172,0.3125 3.14844,0.99609 3.67187,1.83203 0.625,0.84765 0.81641,1.32031 1.00391,1.61719 0.57813,0.91796 0.75,1.44921 1.05078,2.50781 -0.94922,-0.19922 -4.85937,-0.98438 -8.14062,-1.55469 -16.56641,-2.8125 -22.16797,-1.09766 -22.28516,-1.10937 -0.15234,-0.0117 -0.29297,0.0937 -0.63281,-0.10938 -1.25781,-1.07422 -3.34375,-1.93359 -6.75781,-2.14844 0,0 0.9414,-2.42187 -6.05079,-4.35937 0,0 1.5625,-2.88281 -6.17578,-5.87891 0,0 1.74219,-3.29297 -4.34765,-4.8164 -1.08594,-0.26954 -4.16797,-0.9336 -8.35547,-1.47657 l 9.00781,-6.2539"
       id="path48122" /><path
       style="fill:#dcbf4f;fill-opacity:1;fill-rule:nonzero;stroke:none"
       d="m -488.57272,386.30816 c -2.01172,0.24609 -4.53125,0.63671 -7.04687,1.13671 -6.53125,1.30079 -4.32032,4.80079 -4.32032,4.80079 -8.6289,3.41796 -6.22265,6.01171 -6.22265,6.01171 -8.27735,2.21485 -5.94532,4.53125 -5.94532,4.53125 -5.1914,0.19532 -8.65234,2.28516 -8.57421,3.30079 0.0273,1.93359 0.70703,4.76953 3.57421,7.97265 2.23047,2.4961 2.71875,2.70703 3.89844,0.66406 6.08594,-10.47656 13.52735,-18.24609 21.78125,-22.29687 0.48828,-0.16797 1.22266,-0.4375 2.25391,-0.83203 0.99609,-0.33985 1.92578,-0.28906 2.74219,-0.0391 l -2.14063,-5.25"
       id="path48124" /><path
       style="fill:#ffffff;fill-opacity:1;fill-rule:evenodd;stroke:none"
       d="m -521.10397,282.28862 0.51563,-0.57421 4.19921,3.59375 -0.70312,0.78125 z m -1.3125,-0.99218 0.70313,-0.78125 0.73828,0.66406 -0.70313,0.78125 -0.73828,-0.66406"
       id="path48126" /><path
       style="fill:#ffffff;fill-opacity:1;fill-rule:nonzero;stroke:none"
       d="m -519.46725,278.05034 0.72656,-0.67968 2.44141,2.62109 0.0156,-0.0117 -1.29687,-3.69141 0.8125,-0.75781 1.28906,4 3.51172,1.32422 -0.72656,0.67578 -3.3711,-1.3164 -0.0156,0.0117 2.22656,2.38672 -0.72656,0.67578 -4.88672,-5.23828"
       id="path48128" /><path
       style="fill:#ffffff;fill-opacity:1;fill-rule:nonzero;stroke:none"
       d="m -514.561,273.72612 2.15625,-1.625 0.5,0.66797 -1.36328,1.02735 1.45703,1.92968 1.28516,-0.96484 0.5039,0.66406 -1.28515,0.96875 1.34765,1.78907 1.36328,-1.02735 0.50391,0.66797 -2.15625,1.625 -4.3125,-5.72266"
       id="path48130" /><path
       style="fill:#ffffff;fill-opacity:1;fill-rule:nonzero;stroke:none"
       d="m -506.60397,268.39019 2.38281,-1.26563 0.39063,0.73828 -1.50781,0.80078 1.13671,2.13672 1.42188,-0.7539 0.39062,0.73437 -1.42187,0.75391 1.05469,1.98437 1.50781,-0.80078 0.39062,0.73438 -2.38281,1.26562 -3.36328,-6.32812"
       id="path48132" /><path
       style="fill:#ffffff;fill-opacity:1;fill-rule:evenodd;stroke:none"
       d="m -501.561,265.92534 1.08594,-0.4375 0.4375,1.08594 -1.08594,0.4375 z m 2.25,5.61328 1.08594,-0.4375 0.4375,1.08594 -1.08594,0.4375 -0.4375,-1.08594"
       id="path48134" /><path
       style="fill:#ffffff;fill-opacity:1;fill-rule:nonzero;stroke:none"
       d="m -494.86569,263.48394 0.80469,-0.21485 3.95703,6.48047 -0.80469,0.21485 -3.95703,-6.48047"
       id="path48136" /><path
       style="fill:#ffffff;fill-opacity:1;fill-rule:nonzero;stroke:none"
       d="m -489.32663,262.21441 0.98438,-0.14063 1.40625,2.46094 0.59766,-2.74219 1.04296,-0.14453 -0.96093,3.79297 1.91015,3.30859 -0.98437,0.13672 -1.27344,-2.36328 -0.57422,2.625 -1.04297,0.14844 0.94532,-3.61328 -2.05079,-3.46875"
       id="path48138" /><path
       style="fill:#ffffff;fill-opacity:1;fill-rule:evenodd;stroke:none"
       d="m -482.44772,261.35894 0.99219,-0.0156 0.35937,1.82031 1.54688,-0.0273 0.29687,-1.83203 0.99219,-0.0195 -1.33203,7.1914 -1.15234,0.0195 z m 2.19922,6.07812 h 0.0195 l 0.55469,-3.46484 -1.25781,0.0234 0.68359,3.4414"
       id="path48140" /><path
       style="fill:#ffffff;fill-opacity:1;fill-rule:evenodd;stroke:none"
       d="m -475.27194,261.44097 0.98828,0.0859 -0.26953,3.10546 0.33594,0.0274 c 0.65234,0.0586 0.78516,-0.10938 0.84375,-0.78125 l 0.14062,-1.60938 c 0.0274,-0.28906 0.0625,-0.46484 0.17579,-0.63281 l 0.92968,0.0781 c -0.0859,0.29296 -0.11718,0.64843 -0.14062,0.90625 l -0.13281,1.55468 c -0.0586,0.67188 -0.31641,0.9961 -0.9961,1.00782 v 0.0195 c 0.78906,0.3164 0.87891,0.74218 0.79688,1.70312 -0.13672,1.5625 -0.32032,1.9336 -1.76172,1.8086 l -1.53516,-0.13282 z m 0.4375,6.39453 0.47266,0.043 c 0.61328,0.0547 0.68359,-0.0391 0.77344,-1.09766 0.0937,-1.07031 0,-1.22656 -0.78125,-1.29687 l -0.25782,-0.0195 -0.20703,2.37109"
       id="path48142" /><path
       style="fill:#ffffff;fill-opacity:1;fill-rule:evenodd;stroke:none"
       d="m -468.80709,262.19097 0.97265,0.20703 -0.64844,3.04687 0.33204,0.0703 c 0.64062,0.13672 0.79296,-0.0117 0.93359,-0.67188 l 0.33594,-1.58203 c 0.0586,-0.28516 0.11718,-0.45312 0.25,-0.60937 l 0.91406,0.19531 c -0.12109,0.28125 -0.19531,0.6289 -0.25,0.8789 l -0.32422,1.52735 c -0.14062,0.66015 -0.43359,0.94922 -1.10937,0.8789 l -0.004,0.0195 c 0.74609,0.41015 0.78516,0.84765 0.58594,1.78906 -0.32813,1.53125 -0.55469,1.8789 -1.97266,1.57812 l -1.50391,-0.32031 z m -0.34375,6.40234 0.46484,0.0977 c 0.60156,0.1289 0.67969,0.043 0.90234,-0.9961 0.22266,-1.04687 0.14844,-1.21484 -0.62109,-1.3789 l -0.25,-0.0547 -0.49609,2.33203"
       id="path48144" /><path
       style="fill:#ffffff;fill-opacity:1;fill-rule:evenodd;stroke:none"
       d="m -462.84616,263.64409 0.94532,0.30469 -0.25391,1.83984 1.47266,0.48047 0.875,-1.63672 0.94531,0.3086 -3.60547,6.36328 -1.09375,-0.35938 z m 0.10157,6.46094 0.0195,0.008 1.65234,-3.09375 -1.19922,-0.39062 -0.47265,3.47656"
       id="path48146" /><path
       style="fill:#ffffff;fill-opacity:1;fill-rule:nonzero;stroke:none"
       d="m -452.63522,267.70659 0.73047,0.40625 -1.66016,7.41016 -0.73047,-0.40625 1.66016,-7.41016"
       id="path48148" /><path
       style="fill:#ffffff;fill-opacity:1;fill-rule:nonzero;stroke:none"
       d="m -447.93209,270.44097 0.68359,0.48047 -2.42188,7.19531 -0.68359,-0.47656 2.42188,-7.19922"
       id="path48150" /><path
       style="fill:#ffffff;fill-opacity:1;fill-rule:nonzero;stroke:none"
       d="m -443.32663,273.85503 0.75782,0.64063 -2.30078,2.74218 0.0156,0.0117 3.50391,-1.73437 0.85156,0.71484 -3.8125,1.76172 -0.88672,3.65234 -0.76172,-0.64062 0.89844,-3.50781 -0.0117,-0.0156 -2.10156,2.50391 -0.76172,-0.64063 4.60937,-5.48828"
       id="path48152" /><path
       style="fill:#ffffff;fill-opacity:1;fill-rule:nonzero;stroke:none"
       d="m -438.38522,278.31987 1.84375,1.97657 -0.60937,0.5664 -1.16407,-1.24609 -1.77343,1.65234 1.09765,1.17578 -0.60937,0.56641 -1.09766,-1.17578 -1.64062,1.53125 1.16406,1.24609 -0.60938,0.57032 -1.84375,-1.97657 5.24219,-4.88672"
       id="path48154" /><path
       style="fill:#dcbf4f;fill-opacity:1;fill-rule:nonzero;stroke:#ffffff;stroke-width:1.011;stroke-linecap:round;stroke-linejoin:round;stroke-miterlimit:3.864;stroke-opacity:1"
       d="m -438.10006,296.88628 c 10.77734,17.44531 13.29687,41.625 5.98047,62.06641 -1.85547,5.1875 -3.89844,9.6875 -6.53907,14.11718 -0.375,0.72657 -1.6914,2.53516 -0.75781,2.87891 0.41406,0.19531 2.03906,-1.36719 2.57813,-2.01953 5.59765,-6.73438 9.80468,-14.21485 12.99609,-23.14063 6.64063,-18.55468 5.93359,-37.93359 -0.59766,-54.625 -1.39843,-3.2539 -13.75781,-0.38672 -13.66015,0.72266 z m 0,0"
       id="path48156" /><path
       style="fill:#c7a854;fill-opacity:1;fill-rule:nonzero;stroke:#ffffff;stroke-width:1.011;stroke-linecap:round;stroke-linejoin:round;stroke-miterlimit:3.864;stroke-opacity:1"
       d="m -433.061,296.41362 c 13.44922,20.57813 18.26953,41.46875 12.34766,65.58594 -1.44922,5.89063 -3.33204,11.51953 -5.73438,16.79688 -0.26172,0.53906 -1.48828,2.91015 -0.71484,3.20312 0.73437,0.58984 2.08593,-1.62891 2.65625,-2.40234 5.39453,-8.13282 9.46484,-17.38282 11.8164,-27.4961 4.85157,-20.85547 1.73828,-38.22656 -7.65234,-55.30078 -0.66797,-1.64844 -15.34375,-3.76172 -12.71875,-0.38672 z m 0,0"
       id="path48158" /><path
       style="fill:#6b1411;fill-opacity:1;fill-rule:nonzero;stroke:none"
       d="m -468.51413,297.90581 c -0.26562,-0.79687 -0.99609,-0.95703 -0.99609,-0.95703 -1.71875,-0.55469 -2.57031,-1.05078 -2.57031,-1.05078 -0.64453,-0.32813 -0.27735,-0.76172 -0.27735,-0.76172 0.24219,-0.28125 1.73047,-0.043 1.73047,-0.043 1.67188,0.17188 2.05078,0.4375 2.05078,0.4375 0.6875,0.41797 2.86329,3.29297 2.86329,3.29297 2.71875,3.33984 2.76562,6.33984 2.625,6.94922 -0.004,0.0273 -0.0117,0.0547 -0.0156,0.082 -0.004,0.0117 -0.008,0.0352 -0.0352,0.0508 -0.0312,0.0156 -0.0625,0.008 -0.0625,0.008 l -2.35546,-0.375 c 0,0 -0.0312,0 -0.0547,-0.0195 -0.0234,-0.0195 -0.0312,-0.043 -0.0352,-0.0547 -0.52734,-1.40625 -1.26562,-3.35938 -1.26562,-3.35938 l -1.60157,-4.19922"
       id="path48160" /><path
       style="fill:#6b1411;fill-opacity:1;fill-rule:nonzero;stroke:none"
       d="m -474.15866,298.79644 c -0.0156,0 -0.0273,0.004 -0.043,0 -0.14062,-0.004 -0.25,-0.11719 -0.24609,-0.25391 0,-0.0781 0.043,-0.14844 0.10156,-0.19141 0.0469,-0.0273 0.0508,-0.082 0.0391,-0.10546 -0.10157,-0.21094 -0.20313,-0.37891 -0.29688,-0.46875 -0.50391,-0.48047 -1.21484,-0.65235 -2.19141,-1.41016 0,0 -0.29687,-0.21094 -0.10546,-0.51563 0.19531,-0.30859 0.9375,0.0312 0.9375,0.0312 0,0 1.28906,0.64063 2.0664,0.6836 0,0 0.71094,0.0586 0.99219,0.58203 0,0 0.13672,0.33203 0.40234,0.79297 0.0117,0.0156 0.0352,0.0391 0.082,0.0273 0.13672,-0.0312 0.27735,0.0469 0.3086,0.17969 0.0234,0.0898 -0.004,0.17969 -0.0664,0.23828 -0.0117,0.008 -0.0234,0.0312 -0.0117,0.0586 0.0274,0.043 0.0586,0.0859 0.0859,0.12891 0.0117,0.0156 0.043,0.0156 0.0547,0.008 0.0195,-0.0117 0.0391,-0.0195 0.0625,-0.0234 0.13672,-0.0352 0.27734,0.0469 0.3125,0.17968 0.0234,0.0899 -0.0117,0.1836 -0.0781,0.24219 -0.0351,0.0234 -0.0117,0.0586 -0.0117,0.0586 l 0.0742,0.10547 c 0,0 0.0234,0.0352 0.0625,0.0156 0.0156,-0.008 0.0312,-0.0117 0.0508,-0.0156 0.13672,-0.0351 0.27735,0.0469 0.3086,0.17969 0.0234,0.0859 -0.004,0.17188 -0.0625,0.23047 -0.0117,0.0117 -0.0391,0.0391 -0.008,0.0859 1.05859,1.52343 2.85937,4.41406 2.27343,5.90625 0,0 -0.0195,0.0547 -0.0664,0.11718 -0.0508,0.0742 -0.17188,0.0469 -0.17188,0.0469 l -2.75781,-0.56641 c 0,0 -0.10547,-0.0156 -0.14063,-0.10547 -0.38281,-1.11328 -0.83203,-2.54687 -1.27734,-4.25781 0,0 -0.0586,-0.23047 -0.15234,-0.5664 -0.008,-0.0234 -0.0234,-0.0625 -0.0937,-0.0664 -0.14063,-0.008 -0.25391,-0.11719 -0.25,-0.25391 0.004,-0.0781 0.043,-0.14453 0.10547,-0.1914 0.0976,-0.0352 0.0586,-0.10938 0.0586,-0.10938 l -0.0195,-0.0625 c 0,0 -0.0195,-0.0625 -0.10156,-0.0547 -0.008,0.004 -0.0117,0.004 -0.0195,0 -0.14062,-0.004 -0.2539,-0.11718 -0.24609,-0.2539 0,-0.0859 0.0508,-0.16016 0.12109,-0.20313 0.0469,-0.0234 0.0469,-0.0781 0.0391,-0.10156 -0.008,-0.0234 -0.0156,-0.0469 -0.0234,-0.0664 -0.008,-0.0273 -0.0508,-0.0664 -0.0977,-0.0547"
       id="path48162" /><path
       style="fill:#6b1411;fill-opacity:1;fill-rule:nonzero;stroke:none"
       d="m -461.77584,335.65972 c -0.15235,0.11328 -0.48047,0.73828 -2.8086,0.97656 0,0 -0.60937,-0.0352 -0.46875,1.25 0,0 0.0117,0.48828 0.61719,0.84766 0,0 0.80859,0.34375 0.98047,0.94922 0,0 0.043,0.12109 0.0664,0.29687 0.043,0.26953 0.0781,1.01563 -0.73437,1.45703 -0.18359,0.0742 -0.18359,0.004 -0.29688,0.0625 -0.082,0.043 -0.0898,0.10938 -0.15625,0.13672 0,0 -0.10937,0.043 -0.18359,0 0,0 -0.0703,-0.0508 -0.17187,-0.0195 0,0 -0.10547,0.0273 -0.1211,0.125 -0.0156,0.0977 -0.16015,0.17578 -0.29297,0.0859 0,0 -0.0703,-0.0742 -0.17968,-0.0586 0,0 -0.10157,0.0117 -0.1211,0.1211 0,0 -0.0312,0.15625 -0.21484,0.15234 0,0 -0.11328,0.004 -0.17969,-0.0898 0,0 -0.0391,-0.0977 -0.13281,-0.10157 h -0.0312 c -0.0274,0.004 -0.0859,0.0274 -0.10156,0.11329 0,0 -0.0547,0.16015 -0.25391,0.14843 0,0 -0.19922,0 -0.25,-0.18359 0,0 0.004,-0.11719 -0.0742,-0.14453 0,0 -0.0977,-0.0469 -0.12891,0.0625 0,0 -0.0703,0.18359 -0.30859,0.17578 0,0 -0.28516,0 -0.30469,-0.27344 0,0 -0.043,-0.27344 0.0859,-0.89062 0.0352,-0.47657 -0.0742,-0.57422 -0.0742,-0.57422 -0.6289,-0.71485 -0.70312,-1.1875 -0.69922,-1.38281 0,-0.008 0,-0.0156 0,-0.0273 0,-0.0117 0.004,-0.0195 0.004,-0.0312 0.0156,-0.15234 0.10547,-0.8789 0.57422,-1.11328 0,0 0.22265,-0.125 0.5,-0.0117 l 0.2539,0.1211 c 0,0 0.26563,0.1289 0.28907,-0.0508 0.0234,-0.22656 0.0469,-0.65625 -0.082,-0.88671 0,0 -0.0508,-0.13282 -0.3711,-0.0977 0,0 -1.9375,0.29687 -3.32812,-1.65625 0,0 -0.35547,-0.45313 -0.52735,-0.72266 -0.0391,-0.0781 -0.0273,-0.13281 0.0625,-0.13672 0.19141,-0.0117 0.57422,-0.0351 0.83594,-0.0781 0.28906,-0.0469 0.58984,-0.11719 0.73438,-0.16016 0.0781,-0.0195 0.0625,-0.0859 0.0625,-0.0859 l -0.0391,-0.23047 c 0,0 0.008,-0.0781 -0.0703,-0.0508 -0.19141,0.0625 -0.80859,0.25 -1.75781,0.23828 0,0 -1.66016,0.004 -1.73047,-0.98047 0,0 -0.0352,-0.4336 0.54687,-0.88281 0,0 0.0625,-0.0586 0.1875,-0.14454 -0.0664,-0.0937 -0.13281,-0.24218 -0.1914,-0.39843 0,-0.004 -0.004,-0.0117 -0.008,-0.0156 -0.0899,-0.21875 -0.14844,-0.42969 -0.17969,-0.55078 -0.0547,-0.21875 -0.19141,-0.3125 -0.28516,-0.31641 -0.0937,-0.004 -0.15234,0.16407 -0.15234,0.16407 -0.35938,0.85937 -1.87891,2.30859 -2.3086,2.70703 -0.0234,0.0195 -0.0469,0.0547 -0.10546,0.0625 -0.0469,0.004 -0.11329,-0.0391 -0.11329,-0.0391 l -1.33203,-0.81641 c 0,0 -0.0742,-0.0469 -0.0898,-0.0898 -0.0156,-0.0586 0.008,-0.0898 0.0195,-0.10938 1.44922,-2.68359 2.07031,-3.02734 2.07031,-3.02734 0,0 0.89063,-0.97266 1.97266,-0.9375 0.64062,0.0234 1.54687,0.97265 2.19141,1.74218 0.24218,0.27735 0.53906,0.6211 0.70703,0.85547 0.0898,-0.0117 0.19531,-0.0234 0.3125,-0.0312 0.0351,0 0.0508,-0.0195 0.0508,-0.0469 -0.0586,-0.47656 -0.53125,-4.64063 -0.17578,-8.34375 0,0 0.15625,-3.29297 0.67968,-4.09766 0.0508,-0.0859 0.14844,-0.0156 0.14844,-0.0156 l 3.24219,2.26953 c 0,0 0.0312,0.0156 0.043,0.0547 0.0937,0.375 0.91406,3.61718 1.30859,5.8125 0,0 0.73828,3.40234 1.46875,5.17578 0,0.004 0.0156,0.0547 0.0547,0.0781 0.0352,0.0273 0.0937,0.0352 0.10156,0.0352 0.21875,0.0391 0.71875,0.14453 1.22656,0.39062 0,0 0.51172,0.22266 1.00782,0.66016 0,0 0.68359,0.55078 0.66406,1.11719 0,0 0.008,0.74609 -1.25,0.64843 -0.0234,0 -0.0664,0 -0.0977,0.043 -0.10937,0.15625 -0.46093,0.66797 -0.58593,0.76563"
       id="path48164" /><path
       style="fill:#6b1411;fill-opacity:1;fill-rule:nonzero;stroke:none"
       d="m -478.44772,334.36284 c 0,0 0.23438,-0.0937 0.49609,-0.28906 0,0 0.15625,-0.16797 0.33204,0 0.30078,0.28516 0.65234,0.64453 0.83593,0.83594 0.24219,0.26172 0.17578,0.59375 -0.13281,0.92187 0,0 -0.54687,0.54688 -0.93359,0.48438 0,0 -0.19922,-0.0781 -0.3086,-0.13672 0,0 -0.0742,-0.0352 -0.32422,-0.0273 0,0 -0.35937,0.0391 -0.77343,-0.35938 0,0 -0.45313,-0.50781 -0.16407,-0.96094 0,0 0.14063,-0.23828 0.5,-0.35547 0.23047,-0.0742 0.47266,-0.11328 0.47266,-0.11328"
       id="path48166" /><path
       style="fill:#6b1411;fill-opacity:1;fill-rule:nonzero;stroke:none"
       d="m -462.43209,331.78081 c -0.0781,-0.0156 -0.10157,-0.0469 -0.0937,-0.11719 0.0625,-0.47656 0.30078,-1.05078 0.30078,-1.05078 0.29687,-0.86328 1.67187,-2.52343 1.67187,-2.52343 0.53125,-0.6836 0.3711,-1.6211 0.3711,-1.6211 -0.0312,-0.78906 0.10156,-2.26172 0.10156,-2.26172 0.11328,-1.25 0.53906,-2.2539 0.67187,-2.53515 0.0391,-0.10547 0.17578,-0.0899 0.17578,-0.0899 l 1.21094,0.14844 c 0,0 0.0781,0.004 0.10938,0.0312 0.0312,0.0273 0.0469,0.0937 0.0469,0.10938 0.0742,0.69531 0.0937,2.63671 0.0937,2.63671 -0.043,1.21485 -0.9375,3.21875 -0.9375,3.21875 -0.26172,0.5586 -0.29687,1.20313 -0.29687,1.20313 0.008,0.375 -0.23047,1.94922 -0.23047,1.94922 -0.1836,1.125 -0.61719,1.77734 -0.78906,1.99609 -0.043,0.0586 -0.10157,0.0625 -0.15235,0.0117 -0.30469,-0.25391 -0.67578,-0.49609 -1.09765,-0.69922 -0.39063,-0.1914 -0.78516,-0.32422 -1.15625,-0.40625"
       id="path48168" /><path
       style="fill:#6b1411;fill-opacity:1;fill-rule:nonzero;stroke:none"
       d="m -458.96334,321.05034 c -0.0156,-0.0664 -0.0899,-0.0703 -0.0899,-0.0703 l -0.0898,-0.0117 c -0.10938,-0.0117 -0.15625,-0.0937 -0.16797,-0.33984 -0.008,-0.2461 0.0586,-1.5 0.64844,-1.86328 0,0 0.33203,-0.26563 0.71875,-0.25 0,0 0.48828,0.008 0.90625,0.54687 0,0 0.30468,0.26563 0.0156,0.75 0,0 -0.12109,0.22266 -0.35937,0.36719 -0.44141,0.26172 -0.34766,0.67969 -0.34766,0.67969 0,0 0.0273,0.16797 -0.32422,0.20703 -0.0859,0.0117 -0.11328,0.0508 -0.12109,0.10156 -0.0508,0.17578 -0.16406,0.28125 -0.36719,0.27734 -0.23047,-0.0117 -0.42578,-0.17968 -0.41797,-0.375 l -0.004,-0.0195"
       id="path48170" /><path
       style="fill:#6b1411;fill-opacity:1;fill-rule:nonzero;stroke:none"
       d="m -465.07272,320.11284 -3.19922,-2.23047 c -0.11719,-0.11328 -0.15625,-0.13671 -0.0859,-0.44921 0.0625,-0.28907 -0.0742,-1.22266 -0.41796,-1.91016 -0.33985,-0.6875 -0.94532,-1.75781 -1.60547,-3.75 -0.49219,-1.47266 -0.76172,-2.44922 -0.81641,-3.39453 0,0 -0.0469,-0.16016 0.0273,-0.375 0,0 0.0859,-0.0586 0,-0.2461 0,0 -0.21093,-0.46093 -0.5625,-1.38671 0,-0.008 -0.0312,-0.0664 -0.004,-0.0937 0.0234,-0.0234 0.0859,-0.008 0.0859,-0.008 l 2.14453,0.44532 c 0,0 0.0351,0.008 0.0664,0.0312 0.0312,0.0273 0.043,0.0586 0.0469,0.0742 0.043,0.16407 0.1289,0.32813 0.26562,0.49219 0,0 0.97657,1.07031 1.29297,1.54688 0,0 0.86328,0.96875 1.58203,3.2539 0,0 1.1211,2.9375 2.36719,3.3125 1.24609,0.3711 2.09375,1.1211 1.5,2.58594 0,0 -0.45312,1.42578 -1.73047,1.98438 0,0 -0.66406,0.32031 -0.95703,0.11718"
       id="path48172" /><path
       style="fill:#6b1411;fill-opacity:1;fill-rule:nonzero;stroke:none"
       d="m -463.19381,307.04644 c -0.0469,0.53125 0.28515,1.46093 0.28515,1.46093 0,0 0.29688,0.90625 0.29297,2.08204 -0.004,1.14843 -0.88672,3.83984 -1.125,4.52343 -0.004,0.0156 -0.0117,0.0352 -0.0391,0.0508 -0.0273,0.0117 -0.0586,0.008 -0.0781,0 -1.09375,-0.44921 -2.08203,-3.05859 -2.26171,-3.55078 -0.0312,-0.0859 -0.0195,-0.14062 -0.0117,-0.17187 0.24609,-1.22266 0.89062,-2.97656 0.89062,-2.97656 0.28125,-0.98829 0.10938,-1.59375 0.10938,-1.59375 -0.004,-0.0117 -0.0156,-0.0508 -0.0391,-0.11719 -0.008,-0.0234 0.0664,-0.0625 0.0664,-0.0625 l 1.84766,0.26953 c 0,0 0.0273,0.004 0.043,0.0234 0.0234,0.0195 0.0195,0.0508 0.0195,0.0625"
       id="path48174" /><path
       style="fill:#6b1411;fill-opacity:1;fill-rule:nonzero;stroke:none"
       d="m -488.27584,297.90581 c 0.26953,-0.79687 1,-0.95703 1,-0.95703 1.71875,-0.55469 2.5664,-1.05078 2.5664,-1.05078 0.64453,-0.32813 0.28125,-0.76172 0.28125,-0.76172 -0.24219,-0.28125 -1.73047,-0.043 -1.73047,-0.043 -1.67578,0.17188 -2.05078,0.4375 -2.05078,0.4375 -0.6875,0.41797 -2.86328,3.29297 -2.86328,3.29297 -2.72266,3.33984 -2.76562,6.33984 -2.62891,6.94922 0.008,0.0273 0.0117,0.0547 0.0195,0.082 0,0.0117 0.004,0.0352 0.0312,0.0508 0.0312,0.0156 0.0664,0.008 0.0664,0.008 l 2.35156,-0.375 c 0,0 0.0352,0 0.0586,-0.0195 0.0195,-0.0195 0.0312,-0.043 0.0351,-0.0547 0.52344,-1.40625 1.26172,-3.35938 1.26172,-3.35938 l 1.60157,-4.19922"
       id="path48176" /><path
       style="fill:#6b1411;fill-opacity:1;fill-rule:nonzero;stroke:none"
       d="m -482.62741,298.79644 c 0.0117,0 0.0274,0.004 0.043,0 0.14063,-0.004 0.25,-0.11719 0.2461,-0.25391 -0.004,-0.0781 -0.043,-0.14844 -0.10547,-0.19141 -0.0469,-0.0273 -0.0469,-0.082 -0.0352,-0.10546 0.0977,-0.21094 0.19922,-0.37891 0.29688,-0.46875 0.5039,-0.48047 1.21093,-0.65235 2.1875,-1.41016 0,0 0.30078,-0.21094 0.10546,-0.51563 -0.1914,-0.30859 -0.93359,0.0312 -0.93359,0.0312 0,0 -1.28906,0.64063 -2.07031,0.6836 0,0 -0.70703,0.0586 -0.98828,0.58203 0,0 -0.14063,0.33203 -0.40625,0.79297 -0.008,0.0156 -0.0352,0.0391 -0.0781,0.0273 -0.13672,-0.0312 -0.27734,0.0469 -0.3125,0.17969 -0.0234,0.0898 0.008,0.17969 0.0703,0.23828 0.008,0.008 0.0234,0.0312 0.008,0.0586 -0.0274,0.043 -0.0547,0.0859 -0.0859,0.12891 -0.008,0.0156 -0.0391,0.0156 -0.0508,0.008 -0.0195,-0.0117 -0.043,-0.0195 -0.0625,-0.0234 -0.14063,-0.0352 -0.27735,0.0469 -0.3125,0.17968 -0.0234,0.0899 0.008,0.1836 0.0781,0.24219 0.0312,0.0234 0.0117,0.0586 0.0117,0.0586 l -0.0781,0.10547 c 0,0 -0.0195,0.0352 -0.0625,0.0156 -0.0156,-0.008 -0.0312,-0.0117 -0.0469,-0.0156 -0.13672,-0.0351 -0.27734,0.0469 -0.3125,0.17969 -0.0234,0.0859 0.004,0.17188 0.0625,0.23047 0.0156,0.0117 0.043,0.0391 0.008,0.0859 -1.05468,1.52343 -2.85546,4.41406 -2.26953,5.90625 0,0 0.0195,0.0547 0.0664,0.11718 0.0508,0.0742 0.17187,0.0469 0.17187,0.0469 l 2.75391,-0.56641 c 0,0 0.10938,-0.0156 0.14063,-0.10547 0.38671,-1.11328 0.83203,-2.54687 1.28125,-4.25781 0,0 0.0547,-0.23047 0.14843,-0.5664 0.008,-0.0234 0.0274,-0.0625 0.0977,-0.0664 0.14062,-0.008 0.25,-0.11719 0.24609,-0.25391 -0.004,-0.0781 -0.043,-0.14453 -0.10156,-0.1914 -0.0977,-0.0352 -0.0586,-0.10938 -0.0586,-0.10938 l 0.0195,-0.0625 c 0,0 0.0156,-0.0625 0.0976,-0.0547 0.008,0.004 0.0156,0.004 0.0234,0 0.14063,-0.004 0.25,-0.11718 0.2461,-0.2539 -0.004,-0.0859 -0.0508,-0.16016 -0.125,-0.20313 -0.043,-0.0234 -0.0469,-0.0781 -0.0352,-0.10156 0.008,-0.0234 0.0156,-0.0469 0.0234,-0.0664 0.008,-0.0273 0.0508,-0.0664 0.0976,-0.0547"
       id="path48178" /><path
       style="fill:#6b1411;fill-opacity:1;fill-rule:nonzero;stroke:none"
       d="m -495.01022,335.65972 c 0.14844,0.11328 0.47656,0.73828 2.80859,0.97656 0,0 0.60547,-0.0352 0.46875,1.25 0,0 -0.0117,0.48828 -0.61718,0.84766 0,0 -0.8086,0.34375 -0.98047,0.94922 0,0 -0.043,0.12109 -0.0664,0.29687 -0.043,0.26953 -0.082,1.01563 0.73438,1.45703 0.17968,0.0742 0.18359,0.004 0.29687,0.0625 0.0781,0.043 0.0899,0.10938 0.15235,0.13672 0,0 0.10937,0.043 0.18359,0 0,0 0.0703,-0.0508 0.17187,-0.0195 0,0 0.10938,0.0273 0.125,0.125 0.0156,0.0977 0.15625,0.17578 0.29297,0.0859 0,0 0.0703,-0.0742 0.17578,-0.0586 0,0 0.10547,0.0117 0.1211,0.1211 0,0 0.0351,0.15625 0.21875,0.15234 0,0 0.11328,0.004 0.17969,-0.0898 0,0 0.0391,-0.0977 0.13281,-0.10157 h 0.0273 c 0.0312,0.004 0.0899,0.0274 0.10156,0.11329 0,0 0.0586,0.16015 0.25782,0.14843 0,0 0.19531,0 0.24609,-0.18359 0,0 0,-0.11719 0.0781,-0.14453 0,0 0.0937,-0.0469 0.1289,0.0625 0,0 0.0664,0.18359 0.30469,0.17578 0,0 0.28516,0 0.30859,-0.27344 0,0 0.043,-0.27344 -0.0859,-0.89062 -0.0352,-0.47657 0.0742,-0.57422 0.0742,-0.57422 0.625,-0.71485 0.69922,-1.1875 0.69532,-1.38281 0.004,-0.008 0,-0.0156 0,-0.0273 0,-0.0117 0,-0.0195 0,-0.0312 -0.0156,-0.15234 -0.10938,-0.8789 -0.57813,-1.11328 0,0 -0.22265,-0.125 -0.5,-0.0117 l -0.25,0.1211 c 0,0 -0.26953,0.1289 -0.28906,-0.0508 -0.0234,-0.22656 -0.0508,-0.65625 0.0781,-0.88671 0,0 0.0547,-0.13282 0.375,-0.0977 0,0 1.9336,0.29687 3.32813,-1.65625 0,0 0.35547,-0.45313 0.52734,-0.72266 0.0391,-0.0781 0.0274,-0.13281 -0.0625,-0.13672 -0.1914,-0.0117 -0.57812,-0.0351 -0.83984,-0.0781 -0.28516,-0.0469 -0.58984,-0.11719 -0.73047,-0.16016 -0.082,-0.0195 -0.0664,-0.0859 -0.0664,-0.0859 l 0.0391,-0.23047 c 0,0 -0.008,-0.0781 0.0742,-0.0508 0.1914,0.0625 0.80468,0.25 1.7539,0.23828 0,0 1.66406,0.004 1.73438,-0.98047 0,0 0.0312,-0.4336 -0.54688,-0.88281 0,0 -0.0625,-0.0586 -0.1875,-0.14454 0.0664,-0.0937 0.13281,-0.24218 0.1875,-0.39843 0.004,-0.004 0.008,-0.0117 0.008,-0.0156 0.0899,-0.21875 0.15235,-0.42969 0.17969,-0.55078 0.0547,-0.21875 0.19141,-0.3125 0.28906,-0.31641 0.0937,-0.004 0.14844,0.16407 0.14844,0.16407 0.35938,0.85937 1.88281,2.30859 2.3125,2.70703 0.0195,0.0195 0.043,0.0547 0.10156,0.0625 0.0469,0.004 0.11719,-0.0391 0.11719,-0.0391 l 1.33203,-0.81641 c 0,0 0.0742,-0.0469 0.0859,-0.0898 0.0195,-0.0586 -0.008,-0.0898 -0.0156,-0.10938 -1.45313,-2.68359 -2.07032,-3.02734 -2.07032,-3.02734 0,0 -0.89453,-0.97266 -1.97656,-0.9375 -0.63672,0.0234 -1.54297,0.97265 -2.1875,1.74218 -0.24609,0.27735 -0.53906,0.6211 -0.71094,0.85547 -0.0859,-0.0117 -0.1914,-0.0234 -0.3125,-0.0312 -0.0312,0 -0.0508,-0.0195 -0.0469,-0.0469 0.0586,-0.47656 0.52734,-4.64063 0.17187,-8.34375 0,0 -0.15625,-3.29297 -0.67968,-4.09766 -0.0469,-0.0859 -0.14454,-0.0156 -0.14454,-0.0156 l -3.24218,2.26953 c 0,0 -0.0352,0.0156 -0.043,0.0547 -0.0937,0.375 -0.91406,3.61718 -1.3125,5.8125 0,0 -0.73438,3.40234 -1.46485,5.17578 -0.004,0.004 -0.0156,0.0547 -0.0547,0.0781 -0.0352,0.0273 -0.0977,0.0352 -0.10547,0.0352 -0.21875,0.0391 -0.71875,0.14453 -1.22656,0.39062 0,0 -0.50782,0.22266 -1.00391,0.66016 0,0 -0.68359,0.55078 -0.66406,1.11719 0,0 -0.008,0.74609 1.25,0.64843 0.0195,0 0.0664,0 0.0937,0.043 0.10937,0.15625 0.46484,0.66797 0.58984,0.76563"
       id="path48180" /><path
       style="fill:#6b1411;fill-opacity:1;fill-rule:nonzero;stroke:none"
       d="m -478.34225,334.36284 c 0,0 -0.23047,-0.0937 -0.49219,-0.28906 0,0 -0.16015,-0.16797 -0.33594,0 -0.29687,0.28516 -0.65234,0.64453 -0.83203,0.83594 -0.24218,0.26172 -0.17578,0.59375 0.13282,0.92187 0,0 0.54296,0.54688 0.92968,0.48438 0,0 0.19922,-0.0781 0.3125,-0.13672 0,0 0.0703,-0.0352 0.32422,-0.0273 0,0 0.35547,0.0391 0.77344,-0.35938 0,0 0.45312,-0.50781 0.16016,-0.96094 0,0 -0.13672,-0.23828 -0.5,-0.35547 -0.22657,-0.0742 -0.47266,-0.11328 -0.47266,-0.11328"
       id="path48182" /><path
       style="fill:#6b1411;fill-opacity:1;fill-rule:nonzero;stroke:none"
       d="m -494.35397,331.78081 c 0.0742,-0.0156 0.10156,-0.0469 0.0898,-0.11719 -0.0586,-0.47656 -0.29687,-1.05078 -0.29687,-1.05078 -0.29688,-0.86328 -1.67188,-2.52343 -1.67188,-2.52343 -0.53515,-0.6836 -0.375,-1.6211 -0.375,-1.6211 0.0352,-0.78906 -0.0976,-2.26172 -0.0976,-2.26172 -0.11328,-1.25 -0.54297,-2.2539 -0.67188,-2.53515 -0.0391,-0.10547 -0.17968,-0.0899 -0.17968,-0.0899 l -1.21094,0.14844 c 0,0 -0.0742,0.004 -0.10938,0.0312 -0.0312,0.0273 -0.043,0.0937 -0.0469,0.10938 -0.0703,0.69531 -0.0899,2.63671 -0.0899,2.63671 0.043,1.21485 0.9336,3.21875 0.9336,3.21875 0.26562,0.5586 0.29687,1.20313 0.29687,1.20313 -0.004,0.375 0.23047,1.94922 0.23047,1.94922 0.1875,1.125 0.6211,1.77734 0.78906,1.99609 0.043,0.0586 0.10157,0.0625 0.15625,0.0117 0.30079,-0.25391 0.67188,-0.49609 1.09766,-0.69922 0.39063,-0.1914 0.78125,-0.32422 1.15625,-0.40625"
       id="path48184" /><path
       style="fill:#6b1411;fill-opacity:1;fill-rule:nonzero;stroke:none"
       d="m -497.82663,321.05034 c 0.0195,-0.0664 0.0899,-0.0703 0.0899,-0.0703 l 0.0937,-0.0117 c 0.10937,-0.0117 0.15625,-0.0937 0.16406,-0.33984 0.0117,-0.2461 -0.0586,-1.5 -0.64844,-1.86328 0,0 -0.33203,-0.26563 -0.71484,-0.25 0,0 -0.49219,0.008 -0.91016,0.54687 0,0 -0.30468,0.26563 -0.0156,0.75 0,0 0.125,0.22266 0.36328,0.36719 0.4375,0.26172 0.34375,0.67969 0.34375,0.67969 0,0 -0.0273,0.16797 0.32812,0.20703 0.082,0.0117 0.10938,0.0508 0.1211,0.10156 0.0469,0.17578 0.16015,0.28125 0.36719,0.27734 0.23046,-0.0117 0.42578,-0.17968 0.41796,-0.375 v -0.0195"
       id="path48186" /><path
       style="fill:#6b1411;fill-opacity:1;fill-rule:nonzero;stroke:none"
       d="m -491.71725,320.11284 3.19922,-2.23047 c 0.12109,-0.11328 0.16015,-0.13671 0.0859,-0.44921 -0.0625,-0.28907 0.0742,-1.22266 0.41796,-1.91016 0.34375,-0.6875 0.94532,-1.75781 1.60938,-3.75 0.49219,-1.47266 0.76172,-2.44922 0.8125,-3.39453 0,0 0.0469,-0.16016 -0.0273,-0.375 0,0 -0.082,-0.0586 0,-0.2461 0,0 0.21484,-0.46093 0.5625,-1.38671 0.004,-0.008 0.0312,-0.0664 0.004,-0.0937 -0.0195,-0.0234 -0.0859,-0.008 -0.0859,-0.008 l -2.14453,0.44532 c 0,0 -0.0312,0.008 -0.0625,0.0312 -0.0312,0.0273 -0.043,0.0586 -0.0469,0.0742 -0.0469,0.16407 -0.12891,0.32813 -0.26953,0.49219 0,0 -0.97657,1.07031 -1.29297,1.54688 0,0 -0.85938,0.96875 -1.58203,3.2539 0,0 -1.11719,2.9375 -2.36328,3.3125 -1.2461,0.3711 -2.09375,1.1211 -1.5,2.58594 0,0 0.44921,1.42578 1.72656,1.98438 0,0 0.66797,0.32031 0.95703,0.11718"
       id="path48188" /><path
       style="fill:#6b1411;fill-opacity:1;fill-rule:nonzero;stroke:none"
       d="m -493.59225,307.04644 c 0.0469,0.53125 -0.28516,1.46093 -0.28516,1.46093 0,0 -0.30078,0.90625 -0.29687,2.08204 0.004,1.14843 0.88672,3.83984 1.125,4.52343 0.004,0.0156 0.0156,0.0352 0.043,0.0508 0.0234,0.0117 0.0586,0.008 0.0742,0 1.09375,-0.44921 2.08593,-3.05859 2.26171,-3.55078 0.0352,-0.0859 0.0195,-0.14062 0.0156,-0.17187 -0.25,-1.22266 -0.89453,-2.97656 -0.89453,-2.97656 -0.28125,-0.98829 -0.10547,-1.59375 -0.10547,-1.59375 0.004,-0.0117 0.0156,-0.0508 0.0391,-0.11719 0.008,-0.0234 -0.0664,-0.0625 -0.0664,-0.0625 l -1.84766,0.26953 c 0,0 -0.0312,0.004 -0.0469,0.0234 -0.0195,0.0195 -0.0156,0.0508 -0.0156,0.0625"
       id="path48190" /><path
       style="fill:#ffffff;fill-opacity:1;fill-rule:nonzero;stroke:none"
       d="m -471.93209,305.82769 c -0.0391,-0.0977 -0.0586,-0.16407 -0.0977,-0.27344 -0.004,-0.008 -0.0234,-0.0508 -0.008,-0.0742 0.0156,-0.0273 0.0508,-0.0156 0.0508,-0.0156 l 2.52734,0.53515 c 0,0 0.0703,0.0117 0.0899,0.0352 0.0312,0.0351 0,0.0898 -0.0117,0.12109 -0.0312,0.082 -0.0312,0.10156 -0.043,0.17578 0,0.0156 -0.008,0.0508 -0.0508,0.0703 -0.043,0.0156 -0.10157,0 -0.10157,0 l -2.24218,-0.48047 c 0,0 -0.043,-0.008 -0.0742,-0.0274 -0.0274,-0.0234 -0.0352,-0.0508 -0.0391,-0.0664"
       id="path48192" /><path
       style="fill:#ffffff;fill-opacity:1;fill-rule:nonzero;stroke:none"
       d="m -463.17038,306.30034 c -0.008,0.0937 -0.0156,0.1836 -0.0195,0.26563 0,0.008 -0.004,0.0273 -0.0195,0.0391 -0.0195,0.0156 -0.0508,0.0117 -0.0508,0.0117 l -1.99609,-0.30078 c 0,0 -0.0352,-0.004 -0.0664,-0.0234 -0.0273,-0.0234 -0.0352,-0.0547 -0.0352,-0.0547 l -0.11328,-0.30078 c 0,0 -0.0117,-0.0312 0.004,-0.0469 0.0156,-0.0195 0.0547,-0.0117 0.0547,-0.0117 l 2.1875,0.33984 c 0,0 0.0312,0.004 0.043,0.0234 0.0156,0.0195 0.0117,0.0469 0.0117,0.0586"
       id="path48194" /><path
       style="fill:#ffffff;fill-opacity:1;fill-rule:nonzero;stroke:none"
       d="m -477.26413,333.14409 c 0.0352,-0.0625 0.0703,-0.12109 0.10157,-0.17968 0.008,-0.0117 0.0234,-0.0352 0.0547,-0.043 0.0312,-0.004 0.0664,0.0195 0.0664,0.0195 l 1.30078,0.82422 c 0,0 0.043,0.0117 0.0469,0.0664 0.004,0.0391 -0.0312,0.0703 -0.0469,0.082 -0.0547,0.0547 -0.10937,0.11329 -0.16797,0.17188 -0.0117,0.0117 -0.043,0.0312 -0.0781,0.0312 -0.0352,0 -0.0703,-0.0273 -0.0703,-0.0273 l -1.17579,-0.84375 c 0,0 -0.0312,-0.0234 -0.0391,-0.0469 -0.004,-0.0234 0.004,-0.0469 0.008,-0.0547"
       id="path48196" /><path
       style="fill:#ffffff;fill-opacity:1;fill-rule:nonzero;stroke:none"
       d="m -477.54928,333.66362 c 0.0351,-0.0547 0.0391,-0.082 0.0781,-0.14453 0.008,-0.008 0.0195,-0.0273 0.0508,-0.0312 0.0312,0 0.0586,0.0234 0.0586,0.0234 l 1.08984,0.84766 c 0,0 0.0352,0.0312 0.043,0.0508 0.0117,0.0234 -0.0117,0.0469 -0.0195,0.0547 -0.0664,0.0781 -0.125,0.15234 -0.17188,0.21875 -0.008,0.008 -0.0234,0.0391 -0.0586,0.0352 -0.0391,-0.004 -0.0703,-0.0352 -0.0703,-0.0352 l -0.97656,-0.91016 c 0,0 -0.0352,-0.0234 -0.0391,-0.0547 0,-0.0273 0.0117,-0.043 0.0156,-0.0547"
       id="path48198" /><path
       style="fill:#ffffff;fill-opacity:1;fill-rule:nonzero;stroke:none"
       d="m -468.72897,318.05034 c 0.0898,-0.0859 0.10156,-0.0703 0.13672,-0.0703 0.0352,0 0.0703,0.0273 0.0703,0.0273 l 3.25781,2.28125 c 0,0 0.0352,0.0274 0.043,0.0508 0.008,0.0234 -0.0117,0.0508 -0.0195,0.0547 -0.0664,0.0781 -0.125,0.15235 -0.17187,0.21875 -0.008,0.008 -0.0234,0.0391 -0.0586,0.0352 -0.0391,-0.004 -0.14453,-0.0859 -0.14453,-0.0859 l -3.20703,-2.17969 c 0,0 -0.0625,-0.0273 -0.0586,-0.11328 0.004,-0.0625 0.0781,-0.125 0.15234,-0.21875"
       id="path48200" /><path
       style="fill:#ffffff;fill-opacity:1;fill-rule:nonzero;stroke:none"
       d="m -484.85397,305.82769 c 0.0352,-0.0977 0.0586,-0.16407 0.0977,-0.27344 0.004,-0.008 0.0195,-0.0508 0.008,-0.0742 -0.0156,-0.0273 -0.0547,-0.0156 -0.0547,-0.0156 l -2.52734,0.53515 c 0,0 -0.0664,0.0117 -0.0899,0.0352 -0.0273,0.0351 0.004,0.0898 0.0117,0.12109 0.0312,0.082 0.0312,0.10156 0.043,0.17578 0.004,0.0156 0.008,0.0508 0.0508,0.0703 0.043,0.0156 0.10157,0 0.10157,0 l 2.24218,-0.48047 c 0,0 0.0469,-0.008 0.0781,-0.0274 0.0273,-0.0234 0.0351,-0.0508 0.0391,-0.0664"
       id="path48202" /><path
       style="fill:#ffffff;fill-opacity:1;fill-rule:nonzero;stroke:none"
       d="m -493.61959,306.30034 c 0.0117,0.0937 0.0156,0.1836 0.0195,0.26563 0,0.008 0.004,0.0273 0.0234,0.0391 0.0156,0.0156 0.0508,0.0117 0.0508,0.0117 l 1.99218,-0.30078 c 0,0 0.0391,-0.004 0.0664,-0.0234 0.0312,-0.0234 0.0391,-0.0547 0.0391,-0.0547 l 0.10938,-0.30078 c 0,0 0.0117,-0.0312 -0.004,-0.0469 -0.0156,-0.0195 -0.0508,-0.0117 -0.0508,-0.0117 l -2.1875,0.33984 c 0,0 -0.0312,0.004 -0.0469,0.0234 -0.0156,0.0195 -0.0117,0.0469 -0.0117,0.0586"
       id="path48204" /><path
       style="fill:#ffffff;fill-opacity:1;fill-rule:nonzero;stroke:none"
       d="m -479.52584,333.14409 c -0.0352,-0.0625 -0.0703,-0.12109 -0.10157,-0.17968 -0.004,-0.0117 -0.0195,-0.0352 -0.0508,-0.043 -0.0351,-0.004 -0.0664,0.0195 -0.0664,0.0195 l -1.30079,0.82422 c 0,0 -0.043,0.0117 -0.0469,0.0664 -0.004,0.0391 0.0312,0.0703 0.043,0.082 0.0547,0.0547 0.11328,0.11329 0.17187,0.17188 0.008,0.0117 0.0391,0.0312 0.0742,0.0312 0.0391,0 0.0742,-0.0273 0.0742,-0.0273 l 1.17578,-0.84375 c 0,0 0.0274,-0.0234 0.0352,-0.0469 0.008,-0.0234 0,-0.0469 -0.008,-0.0547"
       id="path48206" /><path
       style="fill:#ffffff;fill-opacity:1;fill-rule:nonzero;stroke:none"
       d="m -479.24069,333.66362 c -0.0351,-0.0547 -0.0391,-0.082 -0.0781,-0.14453 -0.004,-0.008 -0.0156,-0.0273 -0.0469,-0.0312 -0.0351,0 -0.0625,0.0234 -0.0625,0.0234 l -1.08594,0.84766 c 0,0 -0.0351,0.0312 -0.043,0.0508 -0.0117,0.0234 0.0117,0.0469 0.0195,0.0547 0.0625,0.0781 0.125,0.15234 0.17187,0.21875 0.004,0.008 0.0195,0.0391 0.0586,0.0352 0.0351,-0.004 0.0664,-0.0352 0.0664,-0.0352 l 0.98047,-0.91016 c 0,0 0.0352,-0.0234 0.0352,-0.0547 0.004,-0.0273 -0.008,-0.043 -0.0156,-0.0547"
       id="path48208" /><path
       style="fill:#ffffff;fill-opacity:1;fill-rule:nonzero;stroke:none"
       d="m -488.061,318.05034 c -0.0859,-0.0859 -0.0977,-0.0703 -0.13281,-0.0703 -0.0352,0 -0.0703,0.0273 -0.0703,0.0273 l -3.25781,2.28125 c 0,0 -0.0351,0.0274 -0.043,0.0508 -0.0117,0.0234 0.0117,0.0508 0.0195,0.0547 0.0664,0.0781 0.125,0.15235 0.17188,0.21875 0.004,0.008 0.0234,0.0391 0.0586,0.0352 0.0391,-0.004 0.14453,-0.0859 0.14453,-0.0859 l 3.20704,-2.17969 c 0,0 0.0625,-0.0273 0.0586,-0.11328 -0.004,-0.0625 -0.082,-0.125 -0.15625,-0.21875"
       id="path48210" /><path
       style="fill:#ffffff;fill-opacity:1;fill-rule:nonzero;stroke:none"
       d="m -469.42428,333.12456 c -0.10547,0.0352 -0.21485,0.0664 -0.33203,0.0937 -1.03907,0.26563 -2.23438,0.29688 -2.38282,-0.17578 -0.125,-0.38281 0.69141,-0.91016 1.73047,-1.17578 0.29297,-0.0742 0.57422,-0.12891 0.83594,-0.16406 0.0352,-0.004 0.0664,0.0156 0.0703,0.0547 0.0195,0.23047 0.10157,1.06641 0.12891,1.29297 0.008,0.0508 -0.0312,0.0664 -0.0508,0.0742"
       id="path48212" /><path
       style="fill:#ffffff;fill-opacity:1;fill-rule:nonzero;stroke:none"
       d="m -462.36569,332.68316 c 0.25391,0.0625 0.36328,0.10156 0.63672,0.23437 0.81641,0.39453 1.55078,1.03906 1.34766,1.37891 -0.20313,0.33593 -1.79688,0.23828 -2.08203,-1.53125 -0.0234,-0.0508 0.0312,-0.10157 0.0976,-0.082"
       id="path48214" /><path
       style="fill:#ffffff;fill-opacity:1;fill-rule:nonzero;stroke:none"
       d="m -487.30319,333.12456 c 0.10547,0.0352 0.21875,0.0664 0.33203,0.0937 1.04297,0.26563 2.23828,0.29688 2.38672,-0.17578 0.1211,-0.38281 -0.6914,-0.91016 -1.73047,-1.17578 -0.29297,-0.0742 -0.57812,-0.12891 -0.83593,-0.16406 -0.0352,-0.004 -0.0664,0.0156 -0.0703,0.0547 -0.0234,0.23047 -0.10547,1.06641 -0.1289,1.29297 -0.008,0.0508 0.0273,0.0664 0.0469,0.0742"
       id="path48216" /><path
       style="fill:#ffffff;fill-opacity:1;fill-rule:nonzero;stroke:none"
       d="m -494.35788,332.68316 c -0.2539,0.0625 -0.36718,0.10156 -0.64062,0.23437 -0.81641,0.39453 -1.55078,1.03906 -1.34375,1.37891 0.20312,0.33593 1.79297,0.23828 2.08203,-1.53125 0.0195,-0.0508 -0.0312,-0.10157 -0.0977,-0.082"
       id="path48218" /><path
       style="fill:#f37014;fill-opacity:1;fill-rule:nonzero;stroke:none"
       d="m -502.23288,424.87066 c 7.03907,5.52734 14.76954,8.76562 23.96875,8.76562 9.19532,0 16.91407,-3.23828 23.95704,-8.76562 -7.42579,3.91015 -15.5625,5.40234 -24.48829,5.40234 -8.92578,0 -16.01171,-1.49219 -23.4375,-5.40234"
       id="path48220" /><path
       style="fill:#6b1411;fill-opacity:1;fill-rule:nonzero;stroke:none"
       d="m -485.99459,410.98003 c -1.23829,-0.11328 -2.625,0 -2.625,0 0,0 0.92968,1.05469 1.24218,1.40625 0.87891,0.97656 2.15235,1.53516 3.57032,1.73047 2.64843,0.36719 3.35937,-0.55469 3.35937,-0.55469 0,0 -1.44141,-1.44531 -1.75,-3.13672 0,0 -2.39844,0.67969 -3.79687,0.55469"
       id="path48222" /><path
       style="fill:#ffffff;fill-opacity:1;fill-rule:nonzero;stroke:none"
       d="m -485.10006,412.56597 c 0,0.53906 0.66797,0.97265 1.48828,0.97265 0.82031,0 1.48437,-0.43359 1.48437,-0.97265 0,-0.53516 -0.66406,-0.96875 -1.48437,-0.96875 -0.82031,0 -1.48828,0.43359 -1.48828,0.96875"
       id="path48224" /><path
       style="fill:#211e1e;fill-opacity:1;fill-rule:nonzero;stroke:none"
       d="m -483.02584,412.60112 c 0,0.32032 -0.25782,0.58204 -0.57813,0.58204 -0.32031,0 -0.57812,-0.26172 -0.57812,-0.58204 0,-0.3164 0.25781,-0.57421 0.57812,-0.57421 0.32031,0 0.57813,0.25781 0.57813,0.57421"
       id="path48226" /></g></svg>
