<?xml version="1.0" encoding="UTF-8"?>
<!-- Created with Inkscape (http://www.inkscape.org/) -->
<svg id="svg2" width="744" height="798.8286" version="1.0" xmlns="http://www.w3.org/2000/svg" xmlns:cc="http://creativecommons.org/ns#" xmlns:dc="http://purl.org/dc/elements/1.1/" xmlns:rdf="http://www.w3.org/1999/02/22-rdf-syntax-ns#" xmlns:xlink="http://www.w3.org/1999/xlink">
 <metadata id="metadata136">
  <rdf:RDF>
   <cc:Work rdf:about="">
    <dc:format>image/svg+xml</dc:format>
    <dc:type rdf:resource="http://purl.org/dc/dcmitype/StillImage"/>
   </cc:Work>
  </rdf:RDF>
 </metadata>
 <defs id="defs4">
  <radialGradient id="radialGradient3331" cx="199.382" cy="235.2279" r="11.03006" gradientTransform="matrix(1 0 0 1.000573 0 -.1347447)" gradientUnits="userSpaceOnUse">
   <stop id="stop4170" style="stop-color:#868686" offset="0"/>
   <stop id="stop6164" style="stop-color:#ffffff" offset=".25"/>
   <stop id="stop6166" style="stop-color:#ffffff" offset=".625"/>
   <stop id="stop4172" style="stop-color:#d7dedd" offset="1"/>
  </radialGradient>
 </defs>
 <g id="layer1" transform="translate(-27.50252 -43.6036)">
  <path id="path3225" d="m398.1967 114.6058c-24.82567 0.2232-47.65904 4.48415-47.65904 4.48415-139.1046 39.9382-224.293 187.8848-225.0569 369.2495l-1.13672 2.96573c-3e-5 100.4818 29.5735 191.6072 77.55085 258.6798h397.9756c47.59203-66.55169 77.03724-156.8978 77.45707-256.5806 0.77714-184.4899-97.37098-345.9146-227.2806-374.5371-0.5254-0.0571-1.68057-0.22931-3.36067-0.47349-8.01289-1.16505-27.96623-3.97271-48.48955-3.78804z" style="fill:#8cc5f2"/>
  <g id="g15142" transform="matrix(3.000758 0 0 3.053395 -560.68 -490.8385)">
   <path id="path14031" transform="translate(-220.6539)" d="m520.25 201.4375-6.75 2.53125 15.8125 71.03125c-5.1082 1.05454-9.9758 2.79059-14.5 5.09375l-32.0625-54.34375-4.46875 5.1875 32.59375 51.34375c-4.51568 2.76025-8.62504 6.11876-12.21875 9.96875l-38.25-32.15625-0.65625 8.3125 36.28125 26.84375c-3.48451 4.28508-6.37192 9.07834-8.53125 14.25l-28.3125-8.84375-1.4375 6.6875 28.0625 6.75c-1.75997 5.48761-2.7468 11.34052-2.78125 17.40625v0.3125c-1e-5 31.91987 25.79938 57.8812 57.71875 58.0625 32.0352 0.18196 58.16182-25.68355 58.34375-57.71875 0.036-6.34496-0.96023-12.46049-2.8125-18.1875l27.5-6.625-1.4375-6.6875-27.75 8.6875c-2.20168-5.22539-5.16173-10.05883-8.71875-14.375l35.90625-26.5625-0.65625-8.3125-37.90625 31.875c-3.65156-3.85904-7.81985-7.22444-12.40625-9.96875l32.4375-51.0625-4.46875-5.1875-31.90625 54.09375c-4.56378-2.27047-9.47523-3.96251-14.625-4.96875l15.78125-70.90625-6.75-2.53125-13.3125 72.78125c-4.77896-0.6498-9.59837-0.49576-14.375 0.0625l-13.34375-72.84375z" style="fill:#fdb817"/>
  </g>
  <g id="g15168" transform="matrix(3.000758 0 0 3.053395 -1222.816 -490.8385)">
   <path id="rect2249" d="m541.0312 291.5312-30 30.46875-2.40625-2.5-15.90625 9.59375-3.5-2.28125-21.96875 9.09375 14.53125 78.59375h118.5938l14.53125-78.59375-21.96875-9.09375-3.5 2.28125-15.90625-9.59375-2.40625 2.5-30.09375-30.46875z" style="fill:#022290"/>
  </g>
  <g id="g15172" transform="matrix(3.000758 0 0 3.053395 -1222.809 -490.8385)">
   <path id="path10048" d="m560.8718 176.625c-69.0936-10.74348-103.5975 35.00696-120.2156 72.65625h1.5625c16.73396-37.34463 51.58983-80.7377 116.9263-71.34407l1.72673-1.31218zm-0.0281 0-1.75 1.34375c34.71705 7.01168 64.1622 33.96432 80.875 71.3125h1.53125c-16.5992-37.64265-45.94406-65.02394-80.65621-72.65625zm-4.64089 4.69866c-58.52608-8.44196-93.62644 31.74395-110.4528 67.95759h1.5625c16.55449-35.07443 52.46975-74.35848 109.47-66.17984l-0.57966-1.77775zm-0.0154-0.0112 0.59375 1.78125c33.22826 6.06671 61.6177 31.1129 78.15625 66.1875h1.5625c-16.8096-36.20827-46.06268-62.03492-80.31242-67.96871zm2.01595 6.10953c-55.69498-9.75547-89.05426 29.66735-104.2972 61.85922h1.53125c14.91936-31.07021 48.76521-70.06451 103.4036-59.96875l-0.63769-1.89047zm-0.0159-0.0158 0.65625 1.90625c28.52263 6.63422 52.92862 28.95343 67.875 59.96875h1.5625c-15.24802-32.20259-40.53606-55.34915-70.09372-61.87494zm2.25 6.78125 0.625 1.90625c24.69128 6.92044 45.84968 26.42473 59.53125 53.1875h1.5625c-14.01067-27.931-36.01558-48.21941-61.71875-55.09375zm-1e-3 -3.2e-4c-17.35196-3.93502-31.96856-2.13532-44.87019 2.31501-27.85448 9.60812-45.98103 33.56723-55.56628 52.65285l1.59375 0.12627c13.6905-26.7626 47.42976-65.70994 99.46416-53.20328l-0.62191-1.89079zm-3.061 5.40657v1.75c23.60126 5.63441 44.05262 23.25811 57.625 47.9375h1.59375c-13.80499-25.62391-34.87051-43.95388-59.21922-49.68744zm1.33482 2.06249c0.80032-1.87612 1.4641-1.36838 0.25404-1.66605-49.43448-12.1608-79.92587 24.27656-93.40136 49.29106h1.625c13.45741-24.48928 35.18335-43.15497 58.48661-48.94196 13.295-2.48986 23.99827-1.23471 33.03571 1.31695z" style="fill:#fdb817"/>
  </g>
  <g id="g15267" transform="matrix(3.000758 0 0 3.053395 -562.642 -490.8385)">
   <g id="g6193" style="fill:none;stroke:#a0e7fe">
    <path id="path3261" d="m283.0952 400.5613c9.57888-2.62354 13.79729 2.09026 20.79638 1.28051 7.53174-0.87137 10.21129-2.14273 16.92747-2.14273" style="fill:none;stroke-width:1.321457;stroke:#a0e7fe"/>
    <path id="path5201" d="m270.9524 396.0077c12.91644-4.31997 21.64303 0.21526 31.12199-0.23735 10.32148-0.49284 7.58501-2.76773 18.70901-2.76773" style="fill:none;stroke-width:1.321457;stroke:#a0e7fe"/>
    <path id="path5203" d="m269.7024 389.4005c16.48787-5.3914 23.6966-0.14188 33.17556-0.59449 10.32148-0.49284 9.15623-2.67845 17.95008-2.67845" style="fill:none;stroke-width:1.321457;stroke:#a0e7fe"/>
    <path id="path5205" d="m271.5774 384.222c16.48787-8.41544 23.6966-0.22146 33.17556-0.92794 10.32148-0.76927 8.54993-3.13517 16.02597-3.13517" style="fill:none;stroke-width:1.321457;stroke:#a0e7fe"/>
    <path id="path6176" d="m272.4702 378.2398c16.48787-8.41544 23.6966-0.22146 33.17556-0.92794 10.32148-0.76927 7.74861-2.19767 15.06168-2.16642" style="fill:none;stroke-width:1.321457;stroke:#a0e7fe"/>
    <path id="path6180" d="m281.6062 362.0387c6.24943 0.51315 16.92998 6.85159 24.6646 5.89821 10.27237-1.26618 7.54591-1.63071 14.49471-1.63071" style="fill:none;stroke-width:1.321457;stroke:#a0e7fe"/>
    <path id="path6178" d="m281.3979 366.6662c5.61808 1.3339 15.88826 6.59905 23.62288 5.64567 10.27237-1.26618 7.941-2.16642 15.77597-2.16642" style="fill:none;stroke-width:1.321457;stroke:#a0e7fe"/>
    <path id="path6182" d="m299.0313 361.8493c10.98452 2.91226 16.28163 0.57002 21.77326 0.69502" style="fill:none;stroke-width:1.321457;stroke:#a0e7fe"/>
   </g>
   <path id="rect9632" d="m222.5859 336.164 27.39211-0.13281 9.1022 2.99131c4.37858-5.39995 6.90234-7.44578 8.68867-7.55794 0.72271 0.24356 0.76063 0.72073 0.71313 1.32156-1.37709 3.47705-0.60892 6.15081-0.2176 8.82645 0.14209 1.0694 0.37615 1.13029 0.989 0.30101 2.17774-2.01925 5.62398-6.08452 7.68991-6.03707 1.48583 0.0327 0.53969 2.62456 1.50212 8.83477l42.58574 12.96143 0.14733 1.62262-40.57689 12.21962c-1.11245 9.23779-2.93319 14.23125-9.71235 21.71336l0.19783 14.12619-33.82505-2.09585 3.23735-16.63454-17.9135-7.7936z" style="fill:#ffffff;stroke-width:0"/>
   <g id="g29528">
    <path id="path29383" d="m253.0938 394.8438-18.34375 21.5c8.26964 6.7175 17.47896 12.45151 27.5 16.96875l21.375-21.9375c-11.38148-3.73062-21.64284-9.41035-30.53125-16.53125z" style="fill:#fd1717;stroke-linejoin:round;stroke-width:1.5;stroke:#000000"/>
    <use id="use29405" transform="matrix(.9659258 .258819 -.258819 .9659258 97.72087 -53.99768)" width="744.09448" height="1052.3622" xlink:href="#g23718"/>
    <use id="use29407" transform="matrix(.9659258 .258819 -.258819 .9659258 99.28048 -55.67136)" width="744.09448" height="1052.3622" xlink:href="#use23722"/>
    <use id="use29411" transform="matrix(.9659258 .258819 -.258819 .9659258 68.49448 -72.74427)" width="744.09448" height="1052.3622" xlink:href="#use23742"/>
    <path id="path29419" transform="matrix(.6871019 .1841084 -.1841084 .6871019 132.6816 70.773)" d="m278.1076 406.061a1.531012 1.531012 0 1 1-2e-5 9e-3" style="fill:#ffffff;stroke-width:0"/>
    <use id="use29421" transform="matrix(.9659258 .258819 -.258819 .9659258 97.99271 -55.29744)" width="744.09448" height="1052.3622" xlink:href="#path23805"/>
    <use id="use29425" transform="matrix(.9659258 .258819 -.258819 .9659258 47.36463 -69.05927)" width="744.09448" height="1052.3622" xlink:href="#use23809"/>
    <use id="use29427" transform="matrix(.9659258 .258819 -.258819 .9659258 99.84934 -53.68881)" width="744.09448" height="1052.3622" xlink:href="#use23811"/>
    <use id="use29429" transform="matrix(.9659258 .258819 -.258819 .9659258 101.739 -55.86231)" width="744.09448" height="1052.3622" xlink:href="#use23813"/>
    <path id="path29385" d="m252.0938 396.0312-1.28125 1.5c8.59884 6.91894 18.43727 12.50533 29.3125 16.375l1.53125-1.5625c-10.98646-3.79067-20.91486-9.3767-29.5625-16.3125zm-5.96875 7-1.28125 1.5c8.39872 6.78832 17.88804 12.43277 28.3125 16.59375l1.5-1.5625c-10.52249-4.10067-20.08426-9.72107-28.53125-16.53125zm-2.28125 2.65625-1.3125 1.5625c8.33344 6.74357 17.70444 12.37657 27.96875 16.625l1.5-1.5625c-10.35568-4.20566-19.79152-9.84361-28.15625-16.625zm-5.18306 7.23457-1.34375 1.5625c7.25185 5.8942 14.79294 10.35113 23.42815 14.51952l-0.65665-2.56929c-7.87782-3.95727-14.75099-8.07942-21.42775-13.51273z" style="fill:#ffffff"/>
    <path id="path9171" d="m257.0997 417.007-1.72936 1.12087c2.92873 4.20083 5.03471 9.82081 5.73799 15.28869l1.87049-1.04689c-0.65584-5.19275-2.70969-10.90226-5.87912-15.36267z" style="fill:#000000"/>
    <path id="path9173" d="m259.814 415.0695-1.72936 1.12087c2.63936 4.57152 5.89185 8.78956 5.90316 14.29092l1.49103-1.5268c0.1982-2.91863-2.54319-9.30437-5.66483-13.88499z" style="fill:#ffffff"/>
   </g>
   <g id="g3278">
    <path id="path3260" d="m234.0294 249.3494c6.44095-9.03483 5.80738-18.19477 1.82324-21.26715-5.72658 7.71927-3.99439 16.33643-1.82324 21.26715z" style="fill-rule:evenodd;fill:#fdb817;stroke-linecap:round;stroke-linejoin:round;stroke-width:1px;stroke:#404040"/>
    <path id="path3252" d="m241.1306 236.5347c6.19641-3.05807 5.67847-7.64218 4.40625-11.10568-2.98999 1.11404-7.4284 4.23082-4.40625 11.10568z" style="fill-rule:evenodd;fill:#fdb817;stroke-linecap:round;stroke-linejoin:round;stroke-width:1px;stroke:#404040"/>
    <path id="path3256" d="m239.5221 236.4069c2.71601-5.3099 2.77692-8.59832 0.24488-11.35503-2.75926 3.11045-2.41603 6.42431-0.24488 11.35503z" style="fill-rule:evenodd;fill:#fdb817;stroke-linecap:round;stroke-linejoin:round;stroke-width:1px;stroke:#404040"/>
    <path id="path3258" d="m239.9813 237.0499c5.9099-0.80306 8.64405-2.63112 9.46088-6.284-4.12913-0.48858-6.65336 1.68576-9.46088 6.284z" style="fill-rule:evenodd;fill:#fdb817;stroke-linecap:round;stroke-linejoin:round;stroke-width:1px;stroke:#404040"/>
    <path id="path3262" d="m235.0396 250.0439c5.93588-2.65824 12.49964-8.53519 12.74552-14.82743-4.6533-0.55135-8.41381 1.24728-12.74552 14.82743z" style="fill-rule:evenodd;fill:#fdb817;stroke-linecap:round;stroke-linejoin:round;stroke-width:1px;stroke:#404040"/>
    <path id="path3254" d="m239.8333 238.555c4.43523-2.39745 4.06451-5.99128 3.15388-8.70657-2.14016 0.87338-5.31706 3.31685-3.15388 8.70657z" style="fill-rule:evenodd;fill:#fdb817;stroke-linecap:round;stroke-linejoin:round;stroke-width:.9999999px;stroke:#404040"/>
    <path id="path3250" d="m237.4547 243.4795c4.56103-2.60607 4.17979-6.51261 3.24334-9.46418-2.20087 0.94937-5.46788 3.60547-3.24334 9.46418z" style="fill-rule:evenodd;fill:#fdb817;stroke-linecap:round;stroke-linejoin:round;stroke-width:1px;stroke:#404040"/>
    <path id="path3248" d="m235.1819 248.1515c4.56103-2.60607 4.17979-6.51261 3.24334-9.46418-2.20087 0.94937-5.46788 3.60547-3.24334 9.46418z" style="fill-rule:evenodd;fill:#fdb817;stroke-linecap:round;stroke-linejoin:round;stroke-width:1px;stroke:#404040"/>
    <path id="path3264" d="m228.8524 257.6832c6.44095-10.8026 5.3023-14.91177 1.82324-22.40357-5.34777 4.56254-5.25708 14.8212-1.82324 22.40357z" style="fill-rule:evenodd;fill:#fdb817;stroke-linecap:round;stroke-linejoin:round;stroke-width:1px;stroke:#404040"/>
    <path id="path3270" d="m229.6646 261.3586c4.28326-11.82521 9.60438-15.6967 16.1864-16.22765 0.0331 8.01024-5.46475 15.69179-16.1864 16.22765z" style="fill-rule:evenodd;fill:#fdb817;stroke-linecap:round;stroke-linejoin:round;stroke-width:1px;stroke:#404040"/>
    <path id="path3246" d="m232.4212 254.0862c5.44162-2.88423 4.98677-7.20773 3.86953-10.47434-2.62579 1.0507-6.52355 3.9903-3.86953 10.47434z" style="fill-rule:evenodd;fill:#fdb817;stroke-linecap:round;stroke-linejoin:round;stroke-width:1px;stroke:#404040"/>
    <path id="path3266" d="m224.938 268.2898c6.44095-16.61097 1.64049-19.70999-1.20722-24.55014-5.34777 4.56254-5.38335 15.95762 1.20722 24.55014z" style="fill-rule:evenodd;fill:#fdb817;stroke-linecap:round;stroke-linejoin:round;stroke-width:1px;stroke:#404040"/>
    <path id="path3244" d="m228.8146 263.6826c7.32859-4.03162 6.71601-10.07509 5.21135-14.64122-3.53633 1.46869-8.7857 5.57772-5.21135 14.64122z" style="fill-rule:evenodd;fill:#fdb817;stroke-linecap:round;stroke-linejoin:round;stroke-width:1px;stroke:#404040"/>
    <path id="path3268" d="m225.4831 270.9015c7.99436-15.37301 13.02753-13.54031 19.53595-15.26662-2.33154 5.76254-5.42547 14.83294-19.53595 15.26662z" style="fill-rule:evenodd;fill:#fdb817;stroke-linecap:round;stroke-linejoin:round;stroke-width:1px;stroke:#404040"/>
    <path id="path3274" d="m218.0625 252.4375c-3.70198 6.73986-3.28467 12.97168-1.0625 18.625-1.35127-1.4953-2.74638-3.21069-4.0625-5.40625-1.42892 5.65565-1.0264 14.95599 2.74286 19.81092-1.01198-1.20347-4.42242-8.58785-5.39911-10.21717-1.6598 6.56947-0.87822 11.4105 1.0625 15.5-0.91482-1.15273-1.84521-2.37211-2.75-3.75-3.92381 18.85427 4.66419 26.9803 11.65625 37.34375-0.14348 3.59052-0.2531 7.61527-0.3125 12.25 12.85405-6.6708 14.91979-16.39088 22.0625-48.96875-1.13723 1.26393-2.84288 1.52379-3.88135 2.39864 1.71193-4.00447 4.37326-6.3292 3.75635-16.52364-2.6311 2.63514-2.15522 2.99684-5.26777 6.87801 1.76064-3.05255 6.43888-9.79332 6.3041-16.68734-8.46569 6.04483-14.91629 4.16684-17.06758 8.21558-1.25524-10.1127-8.49606-13.39006-7.78125-19.46875zm8.04108 20.97113c0.034 0.37662-0.45215 9.84834-0.41132 10.24825 1.18786 0.059 1.91829-2.90289 3.05806-3.02982-1.39979 0.93872-2.41491 2.74783-3.31123 4.5698-0.047-1.42612-3.10164-4.43932-3.31044-5.58027-1.52467-1.79325 1.70377 3.43897 3.31655 4.16006 0.0625-8.25334 0.59868-10.10261 0.65838-10.36802z" style="fill-rule:evenodd;fill:#fdb817;stroke-linecap:round;stroke-linejoin:round;stroke-width:1px;stroke:#404040"/>
    <path id="path2271" d="m225.5694 271.194c8.33498-4.55229 7.63828-11.37625 5.92699-16.53207-4.02195 1.65836-9.99218 6.29805-5.92699 16.53207z" style="fill-rule:evenodd;fill:#fdb817;stroke-linecap:round;stroke-linejoin:round;stroke-width:1px;stroke:#404040"/>
   </g>
   <path id="path35400" d="m244.4142 360.0857-9.33331-1.41068c-12.77023-28.40873 7.21545-39.6606 11.06853-44.9209 1.34158 13.97631 5.27805 26.04466-1.73522 46.33158z" style="fill-rule:evenodd;fill:#005707;stroke-linecap:round;stroke-linejoin:round;stroke-width:1px;stroke:#000000"/>
   <path id="path35398" d="m239.3361 355.9188c-30.89313-26.11317-37.41269-30.58133-32.86251-56.0543 2.98308 11.82973 46.82058 28.3175 32.86251 56.0543z" style="fill-rule:evenodd;fill:#005707;stroke-linecap:round;stroke-linejoin:round;stroke-width:1px;stroke:#000000"/>
   <use id="use30539" transform="matrix(.02581541 .9996668 .9996668 -.02581541 -103.896 177.8281)" width="744.09448" height="1052.3622" xlink:href="#g8028"/>
   <path id="path35402" d="m228.1195 383.9903c32.77282-18.39935-10.26558-34.15288-29.63749-26.59002 12.90978 7.0083 10.32228 14.5675 29.63749 26.59002z" style="fill-rule:evenodd;fill:#005707;stroke-linecap:round;stroke-linejoin:round;stroke-width:1px;stroke:#000000"/>
   <path id="path34419" d="m224.9858 291.3322c-1.08295-3.24575-2.08599-4.47071-4.46429-4.28572 0.3398-1.56088 1.96164-3.37921 4.28254-2.52364 4.08572-1.34883 7.86118-0.24693 6.88266 4.39415-2.15511-1.08387-4.98342-1.33673-6.70091 2.41521z" style="fill-rule:evenodd;fill:#005707;stroke-linecap:round;stroke-linejoin:round;stroke-width:1px;stroke:#000000"/>
   <path id="path35390" d="m221.0356 297.7719c-8.2761-6.62722-10.26537-8.77373-9.08372-15.01684 4.77957 5.25703 10.24472 4.53028 9.08372 15.01684z" style="fill-rule:evenodd;fill:#005707;stroke-linecap:round;stroke-linejoin:round;stroke-width:1px;stroke:#000000"/>
   <path id="path35392" d="m224.1719 305.4112c12.77713-10.17432 11.65894-9.78668 14.78624-18.04729-7.78006 6.31792-14.84519 7.65422-14.78624 18.04729z" style="fill-rule:evenodd;fill:#005707;stroke-linecap:round;stroke-linejoin:round;stroke-width:1px;stroke:#000000"/>
   <path id="path35394" d="m222.1362 311.7247c-11.62223-9.59454-15.12673-11.29912-14.32389-21.07776 7.24182 8.79256 13.33832 6.99253 14.32389 21.07776z" style="fill-rule:evenodd;fill:#005707;stroke-linecap:round;stroke-linejoin:round;stroke-width:1px;stroke:#000000"/>
   <path id="path35396" d="m224.019 313.6187 9.19747 8.36291c6.78518-8.20727 6.22919-17.76404 7.71494-26.78902-8.75705 5.25703-10.49727 7.43447-16.91241 18.42611z" style="fill-rule:evenodd;fill:#005707;stroke-linecap:round;stroke-linejoin:round;stroke-width:1px;stroke:#000000"/>
   <g id="g8028" transform="translate(78.084)" style="fill:#b05818">
    <path id="path32479" d="m119.3377 341.5936c8.6564-10.56949 9.80034-8.98364 13.00571-10.73286 1.57268-4.94285 6.23828-5.54814 13.51079-8.14436l-0.0631 18.68782-26.45336 0.1894z" style="fill-rule:evenodd;fill:#b05818;stroke-linecap:round;stroke-linejoin:round;stroke-width:1.5;stroke:#000000"/>
    <path id="path4138" transform="translate(.357143 1.071429)" d="m163.2143 347.1836a17.32143 17.32143 0 1 1-34.64286 0 17.32143 17.32143 0 1 1 34.64286 0z" style="fill:#b05818;stroke-linejoin:round;stroke-width:1.5;stroke:#000000"/>
    <path id="path6086" d="m144.7216 345.4886 11.70833-10.58625" style="fill-rule:evenodd;fill:#b05818;stroke-linecap:round;stroke-linejoin:round;stroke-width:2;stroke:#000000"/>
    <use id="use7057" transform="translate(4.924494 5.42957)" width="744.09448" height="1052.3622" style="fill:#b05818" xlink:href="#path6086"/>
   </g>
   <g id="g3298">
    <use id="use6170" transform="matrix(.8012841 -.3214909 .3214909 .8012841 -48.26682 128.1713)" width="744.09448" height="1052.3622" xlink:href="#path2225"/>
    <use id="use6168" transform="matrix(.798265 .392578 -.392578 .798265 158.3431 -31.91207)" width="744.09448" height="1052.3622" xlink:href="#path2225"/>
    <path id="path2225" transform="matrix(.4289225 .2933807 -.2933464 .4290746 210.2534 109.7184)" d="m209.1016 239.6945c-1.1747 2.48493-3.19246 0.7176-5.64541 1.95769-2.65864 1.34406-2.41955 3.99202-5.37446 3.61341-2.72631-0.34932-1.669-2.81446-3.60639-4.76415-2.09985-2.11317-4.54432-1.06752-5.09736-3.9948-0.51026-2.70082 2.16095-2.45703 3.41653-4.90209 1.36086-2.65007-0.38899-4.65179 2.22412-6.08234 2.41095-1.31988 3.00454 1.29593 5.71793 1.73449 2.9409 0.47534 4.3039-1.80744 6.47193 0.23572 2.00031 1.88508-0.30404 3.25795 0.11734 5.97406 0.45672 2.94384 3.04896 3.53472 1.77577 6.22801z" style="fill:url(#radialGradient3331);stroke-linecap:round;stroke-linejoin:round;stroke-width:2.886207;stroke:#b4b4b4"/>
   </g>
   <path id="rect3315" d="m278.5498 346.2243c1.1531 7.95836 2.44601 18.2993 2.03379 24.14943l38.5264-11.88898-40.56019-12.26045z" style="fill:#01015f;stroke-width:0"/>
   <path id="path4289" d="m257.6391 340.2722-7.54188-2.42538c0.0246 7.50893-2.04237 17.19117-3.72264 24.14492 3.36372-7.72516 8.06916-17.19313 11.26452-21.71954z" style="fill:#01015f;stroke-width:0"/>
   <path id="rect2269" d="m238.2697 361.039c4.67584-0.0264 9.31714 4.78436 8.33376 7.44988-3.53528 1.8715-6.14065-1.60394-8.33376-7.44988z" style="fill:#005707;stroke-linecap:round;stroke-linejoin:round;stroke:#000000"/>
   <path id="path2245" d="m254.8742 385.8015c-5.15395-22.29838 16.4618-45.34265 21.57982-48.43506 0.0297 18.81333 10.53654 43.19187-11.09297 57.85432l-10.48685-9.41926z" style="fill-rule:evenodd;fill:#005707;stroke-linecap:round;stroke-linejoin:round;stroke-width:1px;stroke:#000000"/>
   <path id="path2247" d="m246.5741 378.211c0.0433-23.58872 16.96595-43.14975 20.71275-45.51654-4.34971 8.12752 11.39685 29.54559-8.09768 53.49956l-12.61507-7.98302z" style="fill-rule:evenodd;fill:#005707;stroke-linecap:round;stroke-linejoin:round;stroke:#000000"/>
   <path id="rect3244" d="m272.8592 395.5105c-13.55008-8.15448-27.00967-23.10113-25.66679-26.7982-1.48646-0.28707-7.36852-1.45264-9.81482-9.18849l-4.79822 4.16687c2.56327 3.65642 6.8482 6.05015 5.82564 9.70657 6.7307 10.50084 18.98919 20.85261 31.04492 29.68938l3.40927-7.57613z" style="fill:#b05818;stroke-linecap:round;stroke-linejoin:round;stroke:#000000"/>
  </g>
  <use id="use15341" transform="matrix(-1 0 0 1 799.005 0)" width="744.09448" height="1052.3622" style="fill:none" xlink:href="#g15267"/>
  <g id="g23786" transform="matrix(3.000758 0 0 3.053395 -560.3986 -490.8385)">
   <path id="path17767" d="m270.3438 393.9062-15.25 23.78125c16.58015 10.07197 35.66903 16.4309 56.12135 17.89581 2.76884 0.19832 5.56267 0.30695 8.37865 0.32294 24.13382 0.13708 46.73907-6.56322 65.96875-18.25l-15.25-23.75c-14.77719 8.83222-32.07135 13.8861-50.53125 13.78125-18.07089-0.10265-34.96216-5.13009-49.4375-13.78125z" style="fill:#fd1717;stroke-linecap:round;stroke-linejoin:round;stroke-width:1.5;stroke:#000000"/>
   <path id="path13875" d="m370.471 395.5991c-14.828 8.67115-32.30132 13.72427-50.72097 13.61964-18.01003-0.10231-35.08608-5.15468-49.59597-13.63258l-1.0625 1.65625c14.82326 8.68506 32.25959 13.87181 50.65847 13.97633 18.81121 0.10685 36.66054-5.05559 51.81472-13.93214l-1.09375-1.6875zm5 7.75c-16.29209 9.60134-35.50704 15.17231-55.78347 15.05714-19.82102-0.11259-38.57371-5.68813-54.50222-15.07008l-1.0625 1.65625c16.2422 9.58802 35.35146 15.29901 55.56472 15.41383 20.66397 0.11738 40.24376-5.56846 56.84597-15.36964l-1.0625-1.6875zm-112.1607 2.92456-1.125 1.71875c16.79717 9.94085 36.59038 15.85755 57.50222 15.97633 21.36124 0.12133 41.6313-5.78409 58.78347-15.93214l-1.0625-1.6875c-16.84702 9.96345-36.73497 15.73884-57.72097 15.61964-20.5308-0.11662-39.88543-5.94612-56.37722-15.69508zm-4.75 7.40625-1.0625 1.625c18.14157 10.80164 39.53907 17.22285 62.15847 17.35133 23.11054 0.13128 44.98216-6.27459 63.50222-17.30714l-1.03125-1.625-2.4375 1.28125c-17.67611 9.98577-38.28521 15.77442-60.03347 15.65089-21.25412-0.12072-41.36463-5.93465-58.65847-15.69508l-2.4375-1.28125z" style="fill:#ffffff"/>
   <use id="use23726" transform="translate(17.61454 1.452094)" width="744.09448" height="1052.3622" xlink:href="#use23724"/>
   <g id="use23740" transform="translate(48.48732 21.46574)">
    <path id="path23756" transform="matrix(.1457566 0 0 .1457566 239.7705 341.4112)" d="m236.1232 457.3823c-5.33291 3.10598-7.13252-1.75559-13.30394-1.73219-6.17143 0.0234-7.93412 4.89848-13.29043 1.83304-5.35631-3.06545-2.04587-7.05474-5.15185-12.38765s-8.20927-4.4219-8.23267-10.59332c-0.0234-6.17143 5.08665-5.29915 8.15209-10.65546 3.06545-5.35631-0.27515-9.32038 5.05776-12.42636 5.3329-3.10598 7.13251 1.75559 13.30394 1.73218 6.17142-0.0234 7.93411-4.89848 13.29042-1.83303 5.35631 3.06544 2.04587 7.05473 5.15185 12.38764s8.20927 4.4219 8.23267 10.59333c0.0234 6.17142-5.08664 5.29914-8.15209 10.65546-3.06544 5.35631 0.27516 9.32038-5.05775 12.42636z" style="fill:#ffffff;stroke-width:0"/>
    <path id="path23758" transform="matrix(.1645066 0 0 .1645066 241.5765 335.1357)" d="m176.2718 422.9798a10.10152 10.10152 0 1 1-1.7e-4 0.0574" style="fill:#fd1717;stroke-width:0"/>
   </g>
   <g id="g23772">
    <g id="g23760">
     <g id="g23718">
      <path id="path22745" transform="matrix(.1457566 0 0 .1457566 239.7705 341.4112)" d="m236.1232 457.3823c-5.33291 3.10598-7.13252-1.75559-13.30394-1.73219-6.17143 0.0234-7.93412 4.89848-13.29043 1.83304-5.35631-3.06545-2.04587-7.05474-5.15185-12.38765s-8.20927-4.4219-8.23267-10.59332c-0.0234-6.17143 5.08665-5.29915 8.15209-10.65546 3.06545-5.35631-0.27515-9.32038 5.05776-12.42636 5.3329-3.10598 7.13251 1.75559 13.30394 1.73218 6.17142-0.0234 7.93411-4.89848 13.29042-1.83303 5.35631 3.06544 2.04587 7.05473 5.15185 12.38764s8.20927 4.4219 8.23267 10.59333c0.0234 6.17142-5.08664 5.29914-8.15209 10.65546-3.06544 5.35631 0.27516 9.32038-5.05775 12.42636z" style="fill:#ffffff;stroke-width:0"/>
      <path id="path23716" transform="matrix(.1645066 0 0 .1645066 241.5765 335.1357)" d="m176.2718 422.9798a10.10152 10.10152 0 1 1-1.7e-4 0.0574" style="fill:#fd1717;stroke-width:0"/>
     </g>
     <use id="use23722" transform="translate(14.89975 6.12405)" width="744.09448" height="1052.3622" xlink:href="#g23718"/>
     <use id="use23724" transform="translate(15.97304 4.103745)" width="744.09448" height="1052.3622" xlink:href="#use23722"/>
     <use id="use23742" transform="translate(-18.87723 -1.767767)" width="744.09448" height="1052.3622" xlink:href="#use23740"/>
     <use id="use23744" transform="translate(-18.18275 -4.419417)" width="744.09448" height="1052.3622" xlink:href="#use23742"/>
     <use id="use23746" transform="translate(-15.5311 -6.565992)" width="744.09448" height="1052.3622" xlink:href="#use23744"/>
    </g>
    <use id="use23770" transform="matrix(-1 0 0 1 641.4469 0)" width="744.09448" height="1052.3622" xlink:href="#g23760"/>
   </g>
  </g>
  <g id="g23823" transform="matrix(3.000758 0 0 3.053395 -561.7569 -490.8385)">
   <path id="path23805" transform="matrix(.7113403 0 0 .7113403 81.41489 117.5948)" d="m278.1076 406.061a1.531012 1.531012 0 1 1-2e-5 9e-3" style="fill:#ffffff;stroke-width:0"/>
   <use id="use23807" transform="translate(15.27856 4.798225)" width="744.09448" height="1052.3622" xlink:href="#path23805"/>
   <use id="use23809" transform="translate(16.54125 2.65165)" width="744.09448" height="1052.3622" xlink:href="#use23807"/>
   <use id="use23811" transform="translate(-37.18624 4.608821)" width="744.09448" height="1052.3622" xlink:href="#use23809"/>
   <use id="use23813" transform="translate(17.48827 5.871512)" width="744.09448" height="1052.3622" xlink:href="#use23811"/>
   <use id="use23815" transform="translate(18.75096 3.282996)" width="744.09448" height="1052.3622" xlink:href="#use23813"/>
  </g>
  <g id="use23831" transform="matrix(-3.000758 0 0 3.053395 1363.414 -490.8385)">
   <path id="path24251" transform="matrix(.7113403 0 0 .7113403 81.41489 117.5948)" d="m278.1076 406.061a1.531012 1.531012 0 1 1-2e-5 9e-3" style="fill:#ffffff;stroke-width:0"/>
   <use id="use24253" transform="translate(15.27856 4.798225)" width="744.09448" height="1052.3622" xlink:href="#path23805"/>
   <use id="use24255" transform="translate(16.54125 2.65165)" width="744.09448" height="1052.3622" xlink:href="#use23807"/>
   <use id="use24257" transform="translate(-37.18624 4.608821)" width="744.09448" height="1052.3622" xlink:href="#use23809"/>
   <use id="use24259" transform="translate(17.48827 5.871512)" width="744.09448" height="1052.3622" xlink:href="#use23811"/>
   <use id="use24261" transform="translate(18.75096 3.282996)" width="744.09448" height="1052.3622" xlink:href="#use23813"/>
  </g>
 </g>
</svg>
