<?xml version="1.0" encoding="utf-8"?>
<svg width="1220" height="1355" viewBox="0 0 322.79 358.51" version="1.1" xmlns="http://www.w3.org/2000/svg" xmlns:xlink="http://www.w3.org/1999/xlink">
  <defs>
    <g id="a">
      <circle cx="195.32" cy="197.47" r="4.3" fill="#b5d98b"/>
      <circle cx="195.32" cy="197.47" r="3.1" fill="#6dc235"/>
      <circle cx="195.32" cy="197.47" r="1.9" fill="#093"/>
    </g>
  </defs>
    <g transform="translate(164.53 150.371)">
      <path fill="#ffc705" d="m-3.134-132.62a161.4 161.4 0 0 0-161.4 161.4 161.4 161.4 0 0 0 77.156 137.43v11.645c-5.9365 2.74-10.166 8.2469-10.794 15.09h-0.0014c-4.6559 1.0563-7.9641 5.1925-7.969 9.969v2.3796h206.01v-2.3796c0-4.7765-3.3131-8.9127-7.9688-9.969h-0.0014c-0.62718-6.843-4.8577-12.35-10.794-15.09v-11.567a161.4 161.4 0 0 0 77.155-137.51 161.4 161.4 0 0 0-161.4-161.4z"/>
      <path fill="#1b4392" d="m-3.1345-101.69c-72.055 2e-5 -130.47 58.412-130.47 130.47 0.0256 48.213 26.639 92.481 69.207 115.12h122.45c42.594-22.62 69.235-66.892 69.274-115.12 0-72.055-58.412-130.47-130.47-130.47z"/>
      <g transform="matrix(2.5582 0 0 2.5582 -267.04 -296.92)">
        <use xlink:href="#a" transform="translate(-62.06 -33.753)"/>
        <use xlink:href="#a" transform="translate(-53.46 -33.753)"/>
        <use xlink:href="#a" transform="translate(-79.26 -33.753)"/>
        <use xlink:href="#a" transform="translate(-70.66 -33.753)"/>
        <use xlink:href="#a" transform="translate(-96.46 -33.753)"/>
        <use xlink:href="#a" transform="translate(-87.86 -33.753)"/>
        <use xlink:href="#a" transform="translate(-113.66 -33.753)"/>
        <use xlink:href="#a" transform="translate(-105.06 -33.753)"/>
        <use xlink:href="#a" transform="translate(-130.86 -33.753)"/>
        <use xlink:href="#a" transform="translate(-122.26 -33.753)"/>
        <use xlink:href="#a" transform="translate(-57.76 -33.753)"/>
        <use xlink:href="#a" transform="translate(-74.96 -33.753)"/>
        <use xlink:href="#a" transform="translate(-66.36 -33.753)"/>
        <use xlink:href="#a" transform="translate(-92.16 -33.753)"/>
        <use xlink:href="#a" transform="translate(-83.56 -33.753)"/>
        <use xlink:href="#a" transform="translate(-109.36 -33.753)"/>
        <use xlink:href="#a" transform="translate(-100.76 -33.753)"/>
        <use xlink:href="#a" transform="translate(-126.56 -33.753)"/>
        <use xlink:href="#a" transform="translate(-117.96 -33.753)"/>
        <use xlink:href="#a" transform="translate(-57.76 -29.453)"/>
        <use xlink:href="#a" transform="translate(-74.96 -29.453)"/>
        <use xlink:href="#a" transform="translate(-66.36 -29.453)"/>
        <use xlink:href="#a" transform="translate(-92.16 -29.453)"/>
        <use xlink:href="#a" transform="translate(-83.56 -29.453)"/>
        <use xlink:href="#a" transform="translate(-109.36 -29.453)"/>
        <use xlink:href="#a" transform="translate(-100.76 -29.453)"/>
        <use xlink:href="#a" transform="translate(-126.56 -29.453)"/>
        <use xlink:href="#a" transform="translate(-117.96 -29.453)"/>
        <use xlink:href="#a" transform="translate(-70.66 -29.453)"/>
        <use xlink:href="#a" transform="translate(-62.06 -29.453)"/>
        <use xlink:href="#a" transform="translate(-87.86 -29.453)"/>
        <use xlink:href="#a" transform="translate(-79.26 -29.453)"/>
        <use xlink:href="#a" transform="translate(-105.06 -29.453)"/>
        <use xlink:href="#a" transform="translate(-96.46 -29.453)"/>
        <use xlink:href="#a" transform="translate(-122.26 -29.453)"/>
        <use xlink:href="#a" transform="translate(-113.66 -29.453)"/>
        <use xlink:href="#a" transform="translate(-70.66 -25.153)"/>
        <use xlink:href="#a" transform="translate(-62.06 -25.153)"/>
        <use xlink:href="#a" transform="translate(-87.86 -25.153)"/>
        <use xlink:href="#a" transform="translate(-79.26 -25.153)"/>
        <use xlink:href="#a" transform="translate(-105.06 -25.153)"/>
        <use xlink:href="#a" transform="translate(-96.46 -25.153)"/>
        <use xlink:href="#a" transform="translate(-122.26 -25.153)"/>
        <use xlink:href="#a" transform="translate(-113.66 -25.153)"/>
        <use xlink:href="#a" transform="translate(-66.36 -25.153)"/>
        <use xlink:href="#a" transform="translate(-83.56 -25.153)"/>
        <use xlink:href="#a" transform="translate(-74.96 -25.153)"/>
        <use xlink:href="#a" transform="translate(-100.76 -25.153)"/>
        <use xlink:href="#a" transform="translate(-92.16 -25.153)"/>
        <use xlink:href="#a" transform="translate(-117.96 -25.153)"/>
        <use xlink:href="#a" transform="translate(-109.36 -25.153)"/>
      </g>
      <path fill="#3c2815" d="m-3.1314-147.52c-4.6579 2.3466-8.2489 6.377-10.044 11.274-5.7386 0.35779-10.692 3.4555-13.614 7.9755-77.736 11.694-135.26 78.435-135.36 157.05 0.0673 55.768 29.344 107.43 77.155 136.13v14.529c-6.3655 2.3319-10.907 8.4456-10.908 15.619-0.80145 3e-3 -1.6122 0.11819-2.3756 0.36219-3.2663 1.0294-5.4742 4.0672-5.4783 7.4917h201.24c0-3.4246-2.212-6.4623-5.4783-7.4917-0.76336-0.24405-1.5741-0.35968-2.3756-0.36219 0-7.1736-4.5421-13.287-10.908-15.619v-14.559c47.803-28.703 77.081-80.346 77.16-136.1-0.06787-78.653-57.627-145.44-135.41-157.12-2.9262-4.4786-7.8533-7.547-13.562-7.9041-1.7955-4.8968-5.3865-8.9273-10.044-11.274zm-0.00256 45.828c72.055 1e-5 130.47 58.412 130.47 130.47-0.04848 50.134-28.82 95.806-74.019 117.5l-113.09-1.5e-4c-45.242-21.659-73.757-67.338-73.826-117.5 4e-5 -72.055 58.412-130.47 130.47-130.47z"/>
      <path fill="#ffc705" d="m-3.1345-104.07c-73.369-2.3e-4 -132.85 59.477-132.85 132.85 0.0358 49.317 27.391 94.555 71.047 117.5h123.62c43.647-22.948 70.991-68.185 71.023-117.5-5.1e-4 -73.369-59.478-132.85-132.85-132.85zm0 2.3782c72.055 3e-5 130.47 58.412 130.47 130.47-0.0409 48.227-26.681 92.499-69.274 115.12h-122.45c-42.567-22.638-69.181-66.907-69.207-115.12 2.6e-4 -72.055 58.412-130.47 130.47-130.47z"/>
      <g transform="matrix(2.5582 0 0 2.5582 -79.665 -457.61)">
        <path d="m39.578 223.87 2.0779 6.9593c0.66894 2.319 2.4487 3.3869 4.2168 2.9931-0.67159 1.1281-1.5904 2.4169-2.8333 2.4169-0.90097 0-1.0446-0.46577-1.6253-0.58465-0.88672-0.13447-2.8099 0.58895-2.97-0.42095v-8.1755c0.378-1.0627 0.75601-2.1255 1.134-3.1882z" fill="#1985c3" stroke="#ffc705" stroke-linecap="round" stroke-width=".1"/>
        <path d="m24.307 227.84c0.17216 0.17329 0.34442 0.32716 0.51704 0.47249 0.57765-0.58048 1.3311-1.149 2.1398-1.4324 0.39018-0.76635 0.91012-1.5912 1.508-2.2155-0.18836-0.11426-0.37645-0.25752-0.5543-0.43523-0.17768-0.17788-0.32134-0.36631-0.43559-0.55466-0.62422 0.59791-1.4491 1.1179-2.2155 1.508-0.28339 0.80871-0.85194 1.5622-1.4324 2.1398 0.14532 0.17262 0.29957 0.34525 0.47286 0.51741z" fill="#ffc705"/>
        <path d="m35.523 227.84c0.17329-0.17216 0.32716-0.34442 0.47249-0.51704-0.58048-0.57765-1.149-1.3311-1.4324-2.1398-0.76635-0.39019-1.5912-0.91013-2.2155-1.508-0.11426 0.18835-0.25752 0.37645-0.43523 0.5543-0.17788 0.17768-0.36631 0.32134-0.55466 0.43559 0.59791 0.62422 1.1179 1.4491 1.508 2.2155 0.80871 0.28339 1.5622 0.85193 2.1398 1.4324 0.17262-0.14532 0.34525-0.29957 0.51741-0.47286z" fill="#ffc705"/>
        <path d="m27.058 222.95c-0.49838 0.0182-0.99749 0.0961-1.4878 0.2067 0.0967 1.4639 1.6319 2.6925 2.3859 3.0649 2.65e-4 -5.3e-4 7.94e-4 -1e-3 0.0011-2e-3 -0.02805 0.1341-0.04225 0.27073-0.04237 0.40773 6.8e-5 1.1045 0.8954 1.9998 1.9999 1.9999 1.1045-7e-5 1.9998-0.89541 1.9999-1.9999-7.93e-4 -0.13813-0.01582-0.27581-0.04496-0.41083 0.0011 2e-3 0.0021 3e-3 0.0031 5e-3 0.75401-0.37246 2.2897-1.6011 2.3864-3.0649-0.49027-0.11057-0.98938-0.1885-1.4878-0.2067-0.22292 0.92651-0.9371 1.7005-1.7467 2.0143 5.29e-4 8e-4 0.0011 1e-3 0.0016 2e-3 -0.71086 0.30592-1.5566 0.24578-2.2242 2e-3 7.94e-4 -1e-3 0.0019-2e-3 0.0026-4e-3 -0.80956-0.31383-1.5237-1.0878-1.7467-2.0143z" fill="#1985c3" stroke="#ffc705" stroke-width=".1"/>
        <path d="m38.646 225.23 1.5579 8.9389c0.16672 1.2212-1.7607-0.42075-1.7607 1.0624 0-1.4764 1.9222 0.16017 1.7607-1.0624-0.12117-0.75957-1.435-1.0926-2.6919-0.33479v-5.4159c0.378-1.0627 0.75601-2.1255 1.134-3.1882z" fill="#1985c3" stroke="#ffc705" stroke-linecap="round" stroke-width=".1"/>
        <path d="m20.255 223.87-2.0779 6.9593c-0.66894 2.319-2.4487 3.3869-4.2168 2.9931 0.67159 1.1281 1.5904 2.4169 2.8333 2.4169 0.90097 0 1.0446-0.46577 1.6253-0.58465 0.88672-0.13447 2.8099 0.58895 2.97-0.42095v-8.1755c-0.378-1.0627-0.75601-2.1255-1.134-3.1882z" fill="#1985c3" stroke="#ffc705" stroke-linecap="round" stroke-width=".1"/>
        <path d="m21.186 225.23-1.5579 8.9389c-0.16672 1.2212 1.7607-0.42075 1.7607 1.0624 0-1.4764-1.9222 0.16017-1.7607-1.0624 0.12117-0.75957 1.435-1.0926 2.6919-0.33479v-5.4159c-0.378-1.0627-0.75601-2.1255-1.134-3.1882z" fill="#1985c3" stroke="#ffc705" stroke-linecap="round" stroke-width=".1"/>
        <path d="m29.916 212.43a9.8 9.8 0 0 0-9.7999 9.8004 9.8 9.8 0 0 0 9.7999 9.7999 9.8 9.8 0 0 0 9.7999-9.7999 9.8 9.8 0 0 0-9.7999-9.8004zm0 2.0004a7.8 7.8 0 0 1 7.8 7.8 7.8 7.8 0 0 1-7.8 7.8 7.8 7.8 0 0 1-7.8-7.8 7.8 7.8 0 0 1 7.8-7.8z" fill="#ffc705"/>
        <path d="m29.916 219.28a2.95 2.95 0 0 0-2.9502 2.9502 2.95 2.95 0 0 0 2.9502 2.9497 2.95 2.95 0 0 0 2.9502-2.9497 2.95 2.95 0 0 0-2.9502-2.9502zm0 1.7002a1.25 1.25 0 0 1 1.2501 1.2501 1.25 1.25 0 0 1-1.2501 1.25 1.25 1.25 0 0 1-1.2501-1.25 1.25 1.25 0 0 1 1.2501-1.2501z" fill="#ffc705"/>
        <path d="m33.697 221.44c2.8328-1.6424 2.4-3.3259 4.6013-4.9671 1.1897-0.76787 3.1544-0.72834 3.1254 1.0583-1.819 1.0032-3.3106 2.1701-5.1296 3.1733l-1.5457 1.6997-1.5964-0.65778z" fill="#1985c3" stroke="#ffc705" stroke-linecap="round" stroke-width=".1"/>
        <path d="m35.302 221.04c2.2252-1.662 2.7675-3.8009 4.6013-4.0741 2.0715-0.31746 3.6987 0.57669 3.6987 2.4982 0 1.3764-1.983 1.9559-2.5128 2.1104l-0.22127-0.55889c0.16976-0.061 0.70522-0.45139 0.41039-1.0316-1.1042-1.8925-3.5004 0.6688-5.4232 1.5213l-1.6304 0.29873z" fill="#1985c3" stroke="#ffc705" stroke-linecap="round" stroke-width=".10007"/>
        <path d="m37.849 222.23c8e-4 -0.24427-0.0122-0.47488-0.0315-0.6997-0.81892 2e-3 -1.7537-0.12877-2.5259-0.50022-0.81779 0.26599-1.7687 0.48162-2.6329 0.50022 0.0524 0.21398 0.0841 0.44828 0.0842 0.6997-1.4e-4 0.25142-0.0318 0.48625-0.0842 0.70022 0.86418 0.0186 1.8151 0.23421 2.6329 0.50022 0.77224-0.37146 1.707-0.5022 2.5259-0.50022 0.0193-0.22481 0.0323-0.45595 0.0315-0.70022z" fill="#ffc705"/>
        <path d="m29.924 230.16c0.24427 8e-4 0.47488-0.0122 0.6997-0.0315-2e-3 -0.81892 0.12877-1.7537 0.50022-2.5259-0.26599-0.81779-0.48162-1.7687-0.50022-2.6329-0.21398 0.0524-0.44828 0.0841-0.6997 0.0842-0.25142-1.4e-4 -0.48625-0.0318-0.70022-0.0842-0.0186 0.86418-0.23421 1.8151-0.50022 2.6329 0.37146 0.77224 0.5022 1.707 0.50022 2.5259 0.22481 0.0193 0.45595 0.0323 0.70022 0.0315z" fill="#ffc705"/>
        <path d="m29.914 214.3c-0.24427-8e-4 -0.47488 0.0122-0.6997 0.0315 2e-3 0.81892-0.12877 1.7537-0.50022 2.5259 0.26599 0.81779 0.48162 1.7687 0.50022 2.6329 0.21398-0.0524 0.44828-0.0841 0.6997-0.0842 0.25142 1.4e-4 0.48625 0.0318 0.70022 0.0842 0.0186-0.86418 0.23421-1.8151 0.50022-2.6329-0.37146-0.77224-0.5022-1.707-0.50022-2.5259-0.22481-0.0193-0.45595-0.0323-0.70022-0.0315z" fill="#ffc705"/>
        <path d="m24.306 216.62c-0.17329 0.17216-0.32716 0.34442-0.47249 0.51703 0.58048 0.57765 1.149 1.3311 1.4324 2.1398 0.76635 0.39018 1.5912 0.91013 2.2155 1.508 0.11425-0.18836 0.25751-0.37645 0.43522-0.5543 0.17788-0.17768 0.36632-0.32134 0.55467-0.43559-0.59792-0.62422-1.1179-1.4491-1.508-2.2155-0.80872-0.28339-1.5622-0.85193-2.1398-1.4324-0.17261 0.14532-0.34524 0.29957-0.5174 0.47286z" fill="#ffc705"/>
        <path d="m35.522 216.62c-0.17216-0.17329-0.34442-0.32716-0.51704-0.47249-0.57765 0.58048-1.3311 1.149-2.1398 1.4324-0.39018 0.76635-0.91012 1.5912-1.508 2.2155 0.18836 0.11425 0.37645 0.25751 0.5543 0.43522 0.17768 0.17788 0.32134 0.36632 0.43559 0.55467 0.62422-0.59791 1.4491-1.1179 2.2155-1.508 0.28339-0.80872 0.85194-1.5622 1.4324-2.1398-0.14532-0.17261-0.29957-0.34524-0.47286-0.5174z" fill="#ffc705"/>
        <path d="m37.849 222.23c8e-4 -0.24427-0.0122-0.47488-0.0315-0.6997-0.81892 2e-3 -1.7537-0.12877-2.5259-0.50022-0.81779 0.26599-1.7687 0.48162-2.6329 0.50022 0.0524 0.21398 0.0841 0.44828 0.0842 0.6997-1.4e-4 0.25142-0.0318 0.48625-0.0842 0.70022 0.86418 0.0186 1.8151 0.23421 2.6329 0.50022 0.77224-0.37146 1.707-0.5022 2.5259-0.50022 0.0193-0.22481 0.0323-0.45595 0.0315-0.70022z" fill="#ffc705"/>
        <circle cx="37.341" cy="214.81" r=".7" fill="#ffc705"/>
        <circle cx="37.341" cy="229.66" r=".7" fill="#ffc705"/>
        <circle cx="22.491" cy="229.66" r=".7" fill="#ffc705"/>
        <circle cx="22.491" cy="214.81" r=".7" fill="#ffc705"/>
        <g transform="translate(-35.131 -34.182)" fill="#ffc705">
          <circle transform="rotate(3.8141)" cx="81.959" cy="241.02" r=".7"/>
          <circle transform="rotate(3.8141)" cx="80.562" cy="241.11" r=".7"/>
          <circle cx="65.047" cy="244.72" r=".7"/>
        </g>
        <g transform="translate(-35.131 -34.182)" fill="#ffc705">
          <circle transform="matrix(.99779 -.066519 -.066519 -.99779 0 0)" cx="47.846" cy="-270.67" r=".7"/>
          <circle transform="matrix(.99779 -.066519 -.066519 -.99779 0 0)" cx="46.449" cy="-270.58" r=".7"/>
          <circle transform="scale(1,-1)" cx="65.047" cy="-268.1" r=".7"/>
        </g>
        <g transform="translate(-35.131 -34.182)" fill="#ffc705">
          <circle transform="rotate(93.814)" cx="251.52" cy="-92.457" r=".7"/>
          <circle transform="rotate(93.814)" cx="250.12" cy="-92.364" r=".7"/>
          <circle transform="rotate(90)" cx="256.41" cy="-76.734" r=".7"/>
        </g>
        <path d="m29.916 219.28a2.95 2.95 0 0 0-2.9502 2.9502 2.95 2.95 0 0 0 2.9502 2.9497 2.95 2.95 0 0 0 2.9502-2.9497 2.95 2.95 0 0 0-2.9502-2.9502zm0 1.7002a1.25 1.25 0 0 1 1.2501 1.2501 1.25 1.25 0 0 1-1.2501 1.25 1.25 1.25 0 0 1-1.2501-1.25 1.25 1.25 0 0 1 1.2501-1.2501z" fill="#ffc705"/>
        <path d="m26.135 221.44c-2.8328-1.6424-2.4-3.3259-4.6013-4.9671-1.1897-0.76787-3.1544-0.72834-3.1254 1.0583 1.819 1.0032 3.3106 2.1701 5.1296 3.1733l1.5457 1.6997 1.5964-0.65778z" fill="#1985c3" stroke="#ffc705" stroke-linecap="round" stroke-width=".1"/>
        <path d="m24.53 221.04c-2.2252-1.662-2.7675-3.8009-4.6013-4.0741-2.0715-0.31746-3.6987 0.57669-3.6987 2.4982 0 1.3764 1.983 1.9559 2.5128 2.1104l0.22127-0.55889c-0.16976-0.061-0.70522-0.45139-0.41039-1.0316 1.1042-1.8925 3.5004 0.6688 5.4232 1.5213l1.6304 0.29873z" fill="#1985c3" stroke="#ffc705" stroke-linecap="round" stroke-width=".1"/>
        <path d="m21.984 222.23c-8e-4 0.24427 0.0122 0.47488 0.0315 0.6997 0.81892-2e-3 1.7537 0.12877 2.5259 0.50022 0.81779-0.26599 1.7687-0.48162 2.6329-0.50022-0.0524-0.21398-0.0841-0.44828-0.0842-0.6997 1.4e-4 -0.25142 0.0318-0.48625 0.0842-0.70022-0.86418-0.0186-1.8151-0.23421-2.6329-0.50022-0.77224 0.37146-1.707 0.5022-2.5259 0.50022-0.0193 0.22481-0.0323 0.45595-0.0315 0.70022z" fill="#ffc705"/>
        <g transform="translate(-35.131 -34.182)" fill="#ffc705">
          <circle transform="matrix(.066519 .99779 .99779 -.066519 0 0)" cx="260.17" cy="37.345" r=".7"/>
          <circle transform="matrix(.066519 .99779 .99779 -.066519 0 0)" cx="258.78" cy="37.438" r=".7"/>
          <circle transform="matrix(0,1,1,0,0,0)" cx="256.41" cy="53.356" r=".7"/>
        </g>
      </g>
      <path d="m-3.1331-147.52a20.542 20.542 0 0 0-10.044 11.274 17.498 17.498 0 0 0-16.407 17.444h0.0077l-0.02047 7.6979c-0.77462 0.14684-1.5868 0.3057-2.4576 0.48649l-0.96636-4.6587c-1.5718 0.32558-3.0876 0.66769-4.5608 1.0219l-0.55656-2.3121c2.133-0.51312 4.1926-0.96461 6.1736-1.3537v-0.88178c0-3.1064 0.49956-4.524 1.1171-6.5676l-0.47326 0.0647c-6.1519 1.1257-12.179 2.6078-18.085 4.4339-2.5551 0.77892-4.853 1.5839-7.1228 2.3914l4.8662 13.419c-0.78332 0.28375-1.4482 0.53399-2.0755 0.77203l-1.6921-4.4485c-1.5007 0.57007-2.9426 1.1477-4.3414 1.7305l-0.91481-2.1958c1.4809-0.62016 2.9484-1.1998 4.4101-1.7582l-2.5369-6.672c-4.6592 1.8047-9.2454 3.7427-13.677 5.9634l1.0536 2.1324c3.5927-1.7505 7.2644-3.4379 11.14-4.964l0.88042 2.2104c-1.5162 0.60578-3.0003 1.225-4.4511 1.8587l1.9023 4.3612c-0.76055 0.33594-1.581 0.69659-2.09 0.932l-1.9711-4.3321c-1.4687 0.67375-2.9288 1.3559-4.3586 2.0676-0.83192 0.41197-1.5686 0.78296-2.1985 1.1078l6.5279 12.695c-4.4692 2.3307-8.8746 4.8416-13.152 7.7111l-1.3154-1.983c1.2013-0.80089 2.4594-1.5994 3.7439-2.3981l-2.5023-4.0466c0.59631-0.37002 1.2461-0.76285 1.9235-1.1686l2.4404 4.0836c1.9015-1.1212 3.821-2.2343 5.8458-3.3036l-6.7236-12.592c1.7764-0.95336 3.0175-1.5653 4.3572-2.2394l-1.0523-2.1324-0.0014-1e-3c-2.3996 1.1732-4.5413 2.331-6.6548 3.4874l6.9272 12.482c-0.72832 0.40404-1.3457 0.75635-1.9274 1.0906l-2.3743-4.1246c-1.3914 0.80018-2.7232 1.5988-4.0122 2.3954l-1.2519-2.024c1.3645-0.84658 2.7232-1.6512 4.0783-2.4338l-3.5614-6.1869c-4.3154 2.5189-8.5382 5.1572-12.563 8.0509-2.1839 1.538-4.1162 3.02-6.0203 4.496l8.815 11.229c-0.65541 0.51417-1.2102 0.9594-1.7318 1.3815l-2.9956-3.6976c-1.2476 1.0102-2.4371 2.0091-3.5839 2.9996l-1.556-1.7992c1.2131-1.0517 2.4277-2.0614 3.6421-3.0485l-4.4947-5.5444c-3.8624 3.1695-7.6135 6.4424-11.13 9.936h-1e-3c-1.9128 1.8638-3.5873 3.6326-5.2337 5.391l10.479 9.6941c-0.56561 0.61136-1.0427 1.1373-1.4912 1.6366l-3.5429-3.1754c-1.0719 1.1947-2.0873 2.369-3.063 3.5284l-1.8217-1.5308c1.0317-1.2304 2.0705-2.4198 3.1133-3.5866l-5.3144-4.7644c-3.3126 3.7407-6.501 7.5653-9.4204 11.571-1.5943 2.1431-2.9673 4.1543-4.3149 6.1512l11.882 7.9147c-0.46201 0.69317-0.84981 1.2882-1.2136 1.8521l-4.0016-2.5752c-0.86953 1.3492-1.6868 2.6695-2.4668 3.9686l-2.0398-1.2241c0.82425-1.378 1.6612-2.7151 2.5065-4.032l-6.0004-3.8655c-2.6792 4.2175-5.2227 8.4984-7.4718 12.916-1.2354 2.3682-2.2729 4.5717-3.2878 6.7566l12.983 5.9357c-0.34638 0.7575-0.6354 1.407-0.90554 2.0213l-4.3573-1.9102c-0.64517 1.4698-1.2439 2.9022-1.8085 4.3083l-2.2077-0.88572c0.5958-1.491 1.2113-2.9444 1.8375-4.3784l-6.5372-2.8674c-1.9785 4.5882-3.8118 9.2175-5.3342 13.935h-1e-3c-0.84497 2.5338-1.5209 4.8736-2.1773 7.1916l13.759 3.8073c-0.22257 0.80278-0.40571 1.4897-0.57506 2.139l-4.6044-1.1977c-0.40471 1.5533-0.77007 3.0632-1.1052 4.541l-2.3201-0.52484c0.35226-1.5665 0.73072-3.0987 1.1224-4.6137l-6.9073-1.7979c-1.2279 4.8433-2.3074 9.705-3.0644 14.604h-1e-3c-0.43336 2.6356-0.73098 5.0528-1.0126 7.4454l14.187 1.5837c-0.0921 0.82785-0.16346 1.5345-0.22742 2.2024l-4.7366-0.45477c-0.1535 1.5978-0.27427 3.1465-0.37148 4.6587l-2.3743-0.15196c0.0998-1.6025 0.23024-3.1749 0.37808-4.7327l-7.1056-0.68214c-0.44663 4.9766-0.74256 9.9471-0.71519 14.904l2.3796 0.0014c0.0256-3.9964 0.13814-8.0365 0.48649-12.187l2.3703 0.18905c-0.12791 1.6278-0.23024 3.2335-0.30537 4.8146l4.7525 0.22614c-0.0358 0.83059-0.0772 1.7263-0.0926 2.287l-4.7565-0.15324c-0.046 1.6151-0.0819 3.2267-0.0793 4.8239h1e-3l2.3796 0.0014c0.0256-0.78414 6.6e-4 -1.531 0.0264-2.3254l4.7578 0.07547c0.0256-1.4582 0.0711-3.0036 0.1453-4.6296l2.3756 0.14812c-0.0716 1.5324-0.11972 3.0394-0.14275 4.5198l7.1361 0.1123c0.10233-6.3593 0.64886-12.784 1.6908-19.282l-14.092-2.2632c0.13814-0.77152 0.25326-1.5098 0.38733-2.2923l4.6851 0.82757c0.25071-1.4364 0.546-2.9541 0.87779-4.5476l2.3214 0.52085c-0.31415 1.5016-0.59979 2.981-0.85663 4.4392l7.0276 1.2413c1.1059-6.2633 2.6642-12.522 4.7208-18.773l-13.558-4.4617c0.25837-0.74044 0.48797-1.4518 0.74428-2.2037l4.496 1.5573c0.47608-1.3784 1.0067-2.831 1.5864-4.3519l2.2103 0.88176c-0.54745 1.4331-1.0638 2.8496-1.548 4.2488l6.7421 2.3373c2.0826-6.0095 4.611-11.942 7.6304-17.79l-12.682-6.5517c0.37221-0.69025 0.71207-1.3551 1.084-2.057l4.1933 2.2487c0.68815-1.2858 1.441-2.6352 2.254-4.0453l2.0425 1.2202c-0.76746 1.3284-1.5017 2.645-2.2011 3.9501l6.2886 3.3737c3.0066-5.6046 6.4424-11.063 10.348-16.359l-11.487-8.4739c0.47685-0.62264 0.91737-1.2271 1.396-1.8614l3.7848 2.8846c0.88257-1.1608 1.8389-2.3757 2.8647-3.6394l1.8243 1.5282c-0.96776 1.1904-1.9001 2.3755-2.7973 3.5535l5.6753 4.3255c3.8552-5.0585 8.1099-9.9057 12.805-14.518l-10.001-10.183c0.56922-0.53942 1.0995-1.0662 1.6723-1.6168l3.2812 3.4464c1.0552-1.0066 2.1915-2.0541 3.4041-3.1397l1.5599 1.7979c-1.1438 1.0224-2.2529 2.0444-3.3248 3.0657l4.9204 5.1676c4.6068-4.3851 9.5747-8.4972 14.94-12.309l-8.2637-11.636c0.64748-0.44254 1.2537-0.87948 1.9063-1.3326l2.6942 3.9223c1.2011-0.82698 2.4898-1.6819 3.8589-2.562l1.2559 2.0213c-1.2909 0.82857-2.5474 1.6623-3.7676 2.5012l4.0413 5.8815c5.2422-3.6013 10.797-6.8754 16.698-9.7906l-6.3204-12.798c0.70938-0.33458 1.3769-0.66981 2.0927-1.014l2.0412 4.2991c1.317-0.62657 2.7233-1.267 4.2145-1.9195l0.92143 2.1945c-1.406 0.61394-2.7795 1.2392-4.1167 1.8746l3.0604 6.446c5.7462-2.7268 11.75-5.0811 18.037-7.0263l-4.2158-13.636c0.75287-0.21821 1.4652-0.44379 2.2262-0.67024l1.3352 4.5674c1.3993-0.41043 2.8901-0.81967 4.4656-1.2281l0.56052 2.3122c-1.4853 0.38383-2.9388 0.78317-4.3599 1.199l2.0028 6.8505c6.1481-1.7984 12.349-3.1328 18.6-4.04l0.01023-13.742a10.361 10.361 0 0 1 10.36-10.362v-0.0205a18.163 18.163 0 0 1 8.9551-15.63 18.163 18.163 0 0 1 8.9551 15.63v0.0205a10.361 10.361 0 0 1 10.36 10.362l0.01023 13.742c6.2509 0.90711 12.452 2.2415 18.6 4.04l2.0028-6.8505c-1.4211-0.41585-2.8746-0.81519-4.3599-1.199l0.56052-2.3122c1.5756 0.40846 3.0663 0.8177 4.4656 1.2281l1.3352-4.5674c0.76106 0.22639 1.4733 0.45203 2.2262 0.67024l-4.2158 13.636c6.2872 1.9452 12.291 4.2995 18.037 7.0263l3.0604-6.446c-1.3372-0.63535-2.7107-1.2606-4.1166-1.8746l0.92141-2.1945c1.4912 0.65251 2.8975 1.2929 4.2145 1.9195l2.0411-4.2991c0.71578 0.34415 1.3833 0.67938 2.0927 1.014l-6.3204 12.798c5.9007 2.9152 11.456 6.1893 16.698 9.7906l4.0413-5.8815c-1.2201-0.83919-2.4767-1.6729-3.7675-2.5015l1.2559-2.0213c1.3691 0.88014 2.6578 1.735 3.8588 2.562l2.6942-3.9223c0.65259 0.45308 1.2588 0.89002 1.9063 1.3326l-8.2637 11.636c5.365 3.8117 10.333 7.9239 14.94 12.309l4.9204-5.1676c-1.0719-1.0213-2.181-2.0433-3.3248-3.0657l1.5599-1.7979c1.2126 1.0856 2.3488 2.1331 3.4041 3.1397l3.2812-3.4464c0.57278 0.55057 1.1031 1.0774 1.6723 1.6168l-10.001 10.183c4.6948 4.6123 8.9495 9.4595 12.805 14.518l5.6753-4.3255c-0.89716-1.178-1.8295-2.3631-2.7973-3.5535l1.8243-1.5282c1.0258 1.2637 1.9822 2.4786 2.8647 3.6394l3.7848-2.8846c0.47864 0.63422 0.91916 1.2387 1.396 1.8614l-11.487 8.4739c3.9061 5.2967 7.3418 10.755 10.348 16.359l6.2887-3.3737c-0.69944-1.305-1.4337-2.6217-2.2011-3.9501l2.0425-1.2202c0.81302 1.4101 1.5658 2.7595 2.254 4.0453l4.1933-2.2487c0.37199 0.70189 0.71182 1.3668 1.084 2.057l-12.682 6.5517c3.0194 5.8479 5.5478 11.78 7.6305 17.79l6.7421-2.3373c-0.48426-1.3992-1.0006-2.8157-1.548-4.2488l2.2104-0.88176c0.57968 1.5209 1.1103 2.9735 1.5864 4.3519l4.4961-1.5573c0.25631 0.7519 0.48588 1.4633 0.74426 2.2037l-13.558 4.4617c2.0566 6.2518 3.6149 12.51 4.7208 18.773l7.0269-1.2418c-0.25685-1.4582-0.54249-2.9376-0.85664-4.4392l2.3214-0.52085c0.33177 1.5935 0.62709 3.1112 0.87779 4.5476l4.6851-0.82757c0.13405 0.78257 0.24917 1.5208 0.38734 2.2923l-14.092 2.2632c1.042 6.4983 1.5885 12.923 1.6908 19.282l7.136-0.1123c-0.023-1.4805-0.0711-2.9874-0.14275-4.5198l2.3756-0.14812c0.0742 1.6259 0.11972 3.1714 0.1453 4.6296l4.7578-0.07547c0.0256 0.79434 6.7e-4 1.5412 0.0264 2.3254l2.3796-0.0014h1e-3c3e-3 -1.5972-0.0333-3.2088-0.0793-4.8239l-4.7565 0.15324c-0.0153-0.56075-0.0568-1.4564-0.0926-2.287l4.7525-0.22614c-0.0752-1.5812-0.17753-3.1868-0.30539-4.8146l2.3703-0.18905c0.34835 4.1508 0.46091 8.191 0.48649 12.187h-5e-3c-0.0128 1.4999-0.0102 2.8843-0.0768 4.8993l-14.268-0.44947c-0.0617 2.2888-0.20773 4.5035-0.37148 6.7051l4.7419 0.37807c-0.064 0.78718-0.13047 1.5436-0.19698 2.2421l-4.7353-0.45078c-0.14684 1.5055-0.30504 2.9877-0.49178 4.4194l-2.3611-0.30141c0.67716-5.1062 0.97667-10.168 1.0867-15.207l14.272 0.22742c0.0258-0.70841 0.0258-1.5332 0.0266-2.4615h-2.3782l-1e-3 -0.0014-14.277 0.0051c1e-3 6.5813-0.47296 13.014-1.3788 19.309l7.0633 1.0166c0.21131-1.4655 0.40102-2.9609 0.57242-4.4855l2.369 0.22998c-0.1824 1.6175-0.37718 3.1506-0.58695 4.5939l4.7089 0.67818c-0.11614 0.78575-0.23893 1.5224-0.34899 2.2989l-14.094-2.2527c-1.0399 6.4987-2.5254 12.775-4.4154 18.847l6.8135 2.1205c0.44052-1.4136 0.86456-2.8603 1.2744-4.3387l2.3029 0.60151c-0.43594 1.5682-0.87124 3.0525-1.3061 4.4445l4.5436 1.4145c-0.2397 0.7573-0.47833 1.4649-0.70859 2.2143l-13.561-4.4538c-2.0547 6.2524-4.5144 12.214-7.341 17.911l6.3918 3.1714c0.65873-1.3261 1.3077-2.6873 1.946-4.0823l2.1786 0.95842c-0.67843 1.4796-1.3442 2.8757-1.9935 4.1814l4.2634 2.1152c-0.35661 0.70985-0.70276 1.3721-1.0496 2.0755l-12.686-6.5425c-3.0179 5.8487-6.3892 11.346-10.081 16.525l5.8101 4.1431c0.86007-1.2053 1.7149-2.4475 2.566-3.724l2.0002 1.2916c-0.90407 1.3536-1.7816 2.6273-2.6294 3.8139l3.8747 2.7616c-0.46406 0.644-0.911 1.2434-1.3643 1.8825l-11.492-8.466c-3.9045 5.2978-8.103 10.193-12.568 14.723l5.0817 5.0103c1.0399-1.054 2.0816-2.1448 3.1238-3.2706l1.7701 1.5904c-1.1067 1.1936-2.1744 2.3123-3.1992 3.3499l3.3882 3.3406c-0.5605 0.56296-1.0966 1.0834-1.6459 1.6432l-10.008-10.178c-4.6935 4.6136-9.6126 8.7831-14.737 12.55l4.225 5.7506c1.1934-0.87633 2.3942-1.7884 3.6011-2.7352l1.4965 1.8508c-1.2814 1.0036-2.5121 1.9389-3.6883 2.8013l2.8172 3.8351c-0.64236 0.46723-1.253 0.8957-1.8838 1.3616l-8.2729-11.631c-5.3643 3.8132-10.88 7.1518-16.537 10.06l3.2627 6.3468c1.3172-0.67657 2.6469-1.3884 3.9884-2.1324l1.1845 2.0649c-1.4239 0.78826-2.7871 1.5171-4.0849 2.1826l2.176 4.2316c-0.7081 0.35975-1.3802 0.68674-2.0768 1.047l-6.3283-12.794c-5.8997 2.9168-9.3468 5.3412-15.392 7.3185l-0.31067 6.7831c1.4075-0.45976 2.833-0.9516 4.2753-1.474l0.84343 2.2262c-1.5308 0.55313-2.9919 1.0564-4.3784 1.5084l1.4793 4.5238c-0.75646 0.24329-1.4707 0.45904-2.2156 0.70463l0.7046 2.2738c1.527-0.46799 3.0556-0.97953 4.5846-1.5018l-1.552-4.4974c0.53159-0.17984 1.3747-0.48434 2.1575-0.76411l1.6221 4.4736c1.4884-0.53878 2.9912-1.1116 4.508-1.7159l0.88176 2.209c-1.848 0.74702-3.688 1.4358-5.5219 2.0821l6.6985 1e-3c0.6861-0.27418 1.3714-0.55177 2.0557-0.83284l-2.7524-6.5861c-1.4446 0.60107-2.909 1.1912-4.4101 1.7609l-0.84607-2.2222c1.416-0.54011 2.8591-1.1137 4.34-1.7331l-1.8349-4.3916c0.61911-0.25912 1.2725-0.53523 2.0359-0.86853l5.7083 13.084c2.2023-0.97662 4.4241-1.9751 6.8135-3.1688 4.4561-2.1718 8.7805-4.6392 13.044-7.2444l-3.7597-6.0679c-1.3315 0.82204-2.6835 1.6365-4.0757 2.4364l-1.1872-2.061c1.3126-0.75722 2.6466-1.5522 4.0109-2.3981l-2.5065-4.0453c0.57022-0.35374 1.172-0.73067 1.8732-1.1805l7.7058 12.017c2.0199-1.3127 4.0562-2.6499 6.2265-4.2065 4.0565-2.8492 7.936-5.97 11.734-9.2168l-4.6719-5.3976c-1.1847 1.0223-2.391 2.0411-3.6394 3.0511l-1.4991-1.8468c1.1763-0.95528 2.3692-1.9512 3.5826-3.0022l-3.1146-3.5984c0.50703-0.43947 1.0417-0.90703 1.6631-1.4621l9.509 10.647c1.7871-1.6156 3.5851-3.2583 5.4822-5.1386 3.5546-3.4549 6.8924-7.1499 10.129-10.957l-5.4664-4.5899c-1.0082 1.1968-2.0377 2.3931-3.1106 3.5878l-1.7728-1.5877c1.0105-1.1293 2.0297-2.3014 3.0617-3.531l-3.6434-3.059c0.43106-0.51412 0.88485-1.0617 1.4105-1.708l11.073 9.0093c1.5091-1.8779 3.026-3.783 4.6018-5.9396l-1e-3 -1e-3c2.9637-3.9736 5.6752-8.1494 8.269-12.42l-6.1234-3.6685c-0.80609 1.3412-1.6349 2.6852-2.5052 4.0347l-2.0002-1.2863c0.81916-1.2748 1.6397-2.5926 2.4642-3.9699l-4.0822-2.4457c0.34433-0.57585 0.70721-1.1877 1.1236-1.9089l12.359 7.1453c1.1931-2.093 2.3888-4.2153 3.6037-6.5941h-1e-3c2.2978-4.3923 4.3142-8.9457 6.2001-13.573l-6.6258-2.6532c-0.58377 1.4518-1.189 2.9097-1.8349 4.3797l-2.1799-0.95316c0.60708-1.3884 1.2098-2.8206 1.8058-4.311l-4.4167-1.7688c0.24891-0.62307 0.50888-1.2842 0.80639-2.0623l13.334 5.1002c0.84727-2.2553 1.6925-4.5396 2.5157-7.0805 1.5743-4.7004 2.8452-9.5147 3.9752-14.382l-6.9629-1.5718c-0.34689 1.5259-0.71425 3.0614-1.1197 4.615l-2.3029-0.59754c0.37964-1.4669 0.74975-2.9751 1.1025-4.541l-4.6428-1.0483c0.1471-0.65464 0.30054-1.3487 0.47194-2.1641l13.972 2.9269c0.47966-2.3609 0.95188-4.7494 1.363-7.3886h1e-3c0.81094-4.8903 1.3048-9.8441 1.6512-14.829l-7.1241-0.45211c-0.10104 1.5615-0.22205 3.1358-0.37544 4.734l-2.3677-0.22486c0.14377-1.5085 0.26907-3.0567 0.36884-4.6586l-4.7486-0.30141c0.0409-0.66971 0.0847-1.3783 0.12305-2.2104l14.259 0.6795c0.0998-2.4071 0.20133-4.8405 0.17574-7.5115h-2.3756l2.3782-0.0014c0.0274-4.9569-0.26856-9.9274-0.7152-14.904l-7.1056 0.68214c0.14786 1.5578 0.2783 3.1301 0.37807 4.7327l-2.3743 0.15196c-0.0972-1.5122-0.21796-3.0609-0.37148-4.6587l-4.7366 0.45477c-0.064-0.66789-0.13533-1.3746-0.22743-2.2024l14.188-1.5837c-0.28166-2.3926-0.57928-4.8098-1.0127-7.4454h-1e-3c-0.75697-4.8989-1.8364-9.7606-3.0644-14.604l-6.9074 1.7979c0.39166 1.515 0.7701 3.0472 1.1224 4.6137l-2.3201 0.52484c-0.33513-1.4778-0.70043-2.9877-1.1052-4.541l-4.6045 1.1977c-0.16935-0.64927-0.35249-1.3362-0.57505-2.139l13.759-3.8073c-0.65641-2.318-1.3323-4.6577-2.1773-7.1915h-1e-3c-1.5224-4.7175-3.3557-9.3468-5.3342-13.935l-6.5372 2.8674c0.62624 1.434 1.2417 2.8873 1.8376 4.3784l-2.2077 0.88572c-0.56459-1.4061-1.1633-2.8385-1.8085-4.3083l-4.3572 1.9102c-0.27015-0.6143-0.55917-1.2638-0.90555-2.0213l12.983-5.9357c-1.0148-2.1849-2.0524-4.3884-3.2878-6.7566-2.2492-4.4173-4.7926-8.6982-7.4718-12.916l-6.0005 3.8654c0.84523 1.3169 1.6822 2.654 2.5065 4.0321l-2.0398 1.2241c-0.77999-1.299-1.5973-2.6193-2.4668-3.9686l-4.0016 2.5752c-0.36378-0.56385-0.75157-1.1589-1.2136-1.8521l11.882-7.9147c-1.3477-1.9969-2.7207-4.008-4.315-6.1512-2.9194-4.006-6.1078-7.8306-9.4204-11.571l-5.3144 4.7644c1.0428 1.1667 2.0816 2.3562 3.1133 3.5865l-1.8217 1.5309c-0.97569-1.1594-1.9912-2.3336-3.063-3.5284l-3.5429 3.1754c-0.44845-0.49926-0.92558-1.0252-1.4912-1.6366l10.479-9.6941c-1.6464-1.7584-3.321-3.5273-5.2337-5.391h-1e-3c-3.5162-3.4936-7.2674-6.7665-11.13-9.936l-4.4947 5.5444c1.2144 0.98708 2.429 1.9968 3.6421 3.0485l-1.556 1.7992c-1.1468-0.99045-2.3363-1.9894-3.5839-2.9996l-2.9956 3.6976c-0.52161-0.42208-1.0764-0.86728-1.7318-1.3815l8.8149-11.229c-1.9041-1.4761-3.8364-2.9581-6.0203-4.4961-4.0245-2.8937-8.2473-5.5319-12.563-8.0508l-3.5614 6.1869c1.3551 0.7826 2.7138 1.5872 4.0783 2.4338l-1.2519 2.024c-1.289-0.79662-2.6208-1.5953-4.0122-2.3954l-2.3743 4.1246c-0.58176-0.33428-1.1991-0.68659-1.9274-1.0906l6.9272-12.482c-2.1136-1.1564-4.2553-2.3142-6.6548-3.4874l-0.0014 1e-3 -1.0523 2.1324c1.3397 0.67413 2.5809 1.2861 4.3572 2.2394l-6.7236 12.592c2.0248 1.0694 3.9443 2.1824 5.8458 3.3036l2.4404-4.0836c0.67741 0.40578 1.3272 0.79862 1.9235 1.1686l-2.5025 4.0466c1.2845 0.79864 2.5424 1.5972 3.7438 2.3981l-1.3154 1.983c-4.2766-2.8688-8.682-5.3797-13.151-7.7104l6.528-12.695c-0.62983-0.32487-1.3665-0.69586-2.1985-1.1078-1.4298-0.71171-2.8899-1.3938-4.3586-2.0676l-1.9711 4.3321c-0.50908-0.23535-1.3295-0.59606-2.0901-0.932l1.9023-4.3612c-1.4507-0.63371-2.9349-1.2529-4.4511-1.8587l0.88045-2.2104c3.8759 1.5261 7.5476 3.2135 11.14 4.964l1.0536-2.1324c-4.4318-2.2208-9.018-4.1587-13.677-5.9634l-2.5369 6.672c1.4617 0.55843 2.9292 1.1381 4.4101 1.7582l-0.91481 2.1958c-1.3988-0.58278-2.8407-1.1604-4.3414-1.7305l-1.6921 4.4485c-0.62727-0.23817-1.2922-0.48828-2.0755-0.77204l4.8662-13.419c-2.2699-0.80754-4.5677-1.6126-7.1228-2.3915-5.9053-1.8261-11.933-3.3082-18.085-4.4339l-0.47326-0.0647c0.61752 2.0436 1.1171 3.4612 1.1171 6.5676v0.88176c1.9811 0.3891 4.0406 0.84059 6.1736 1.3537l-0.55653 2.3121c-1.4733-0.3542-2.9891-0.69633-4.5608-1.0219l-0.96638 4.6587c-0.87065-0.18086-1.6828-0.33975-2.4574-0.48659l-0.02047-7.6979h0.0077a17.498 17.498 0 0 0-16.408-17.443 20.542 20.542 0 0 0-10.044-11.274zm-149.5 176.25h-2.3782c6.9e-4 0.92834 6.6e-4 1.7531 0.0263 2.4615l14.272-0.22742c0.11 5.0391 0.40952 10.1 1.0867 15.207l-2.361 0.30141c-0.18675-1.4317-0.34495-2.9139-0.49179-4.4194l-4.7353 0.4508c-0.0665-0.69851-0.13303-1.4549-0.19698-2.2421l4.7419-0.37808c-0.16372-2.2015-0.30982-4.4162-0.37147-6.7051l-14.268 0.44947c-0.0665-2.015-0.064-3.3994-0.0768-4.8993h-2.3806c-0.0256 2.671 0.076 5.1044 0.17574 7.5115l14.259-0.67951c0.0384 0.83208 0.0821 1.5407 0.12304 2.2104l-4.7485 0.3014c0.0998 1.602 0.22512 3.1501 0.36884 4.6587l-2.3677 0.22486c-0.1535-1.5982-0.2744-3.1725-0.37544-4.734l-7.1241 0.45211c0.34635 4.9845 0.84018 9.9383 1.6511 14.829h1e-3c0.4111 2.6392 0.88332 5.0276 1.363 7.3886l13.972-2.9268c0.1714 0.81537 0.32487 1.5094 0.47196 2.1641l-4.6428 1.0483c0.35278 1.5659 0.72289 3.0741 1.1025 4.541l-2.3029 0.59754c-0.40547-1.5537-0.77283-3.0892-1.1197-4.615l-6.9629 1.5718c1.13 4.8671 2.4009 9.6814 3.9752 14.382 0.82323 2.5409 1.6684 4.8251 2.5157 7.0805l13.334-5.1002c0.29752 0.77812 0.55748 1.4392 0.80639 2.0623l-4.4167 1.7688c0.59606 1.4904 1.1987 2.9226 1.8058 4.311l-2.18 0.95313c-0.64595-1.47-1.2511-2.9279-1.8349-4.3797l-6.6258 2.6532c1.8859 4.6271 3.9023 9.1804 6.2001 13.573h-1e-3c1.2149 2.3788 2.4106 4.501 3.6037 6.594l12.359-7.1453c0.41647 0.72128 0.77935 1.3331 1.1237 1.9089l-4.0822 2.4456c0.82448 1.3773 1.645 2.695 2.4642 3.9699l-2.0001 1.2863c-0.8703-1.3494-1.6991-2.6935-2.5052-4.0347l-6.1234 3.6685c2.5937 4.2706 5.3053 8.4464 8.269 12.42l-1e-3 1e-3c1.5758 2.1567 3.0928 4.0617 4.6018 5.9396l11.073-9.0093c0.52571 0.64635 0.9795 1.1939 1.4106 1.708l-3.6434 3.0591c1.032 1.2296 2.0512 2.4017 3.0617 3.531l-1.7728 1.5877c-1.0729-1.1948-2.1024-2.3911-3.1106-3.5878l-5.4664 4.5899c3.2366 3.8066 6.5744 7.5017 10.129 10.957 1.8972 1.8803 3.6951 3.5229 5.4822 5.1385l9.509-10.647c0.62138 0.55508 1.156 1.0226 1.6631 1.4621l-3.1146 3.5984c1.2133 1.051 2.4063 2.0469 3.5826 3.0022l-1.4991 1.8468c-1.2484-1.01-2.4547-2.0288-3.6394-3.0511l-4.6719 5.3976c3.7979 3.2468 7.6774 6.3676 11.734 9.2169 2.1704 1.5566 4.2066 2.8939 6.2265 4.2065l7.7058-12.017c0.7012 0.44986 1.303 0.82678 1.8732 1.1805l-2.5065 4.0453c1.3643 0.84581 2.6983 1.6408 4.0109 2.3981l-1.1871 2.061c-1.3922-0.79992-2.7441-1.6144-4.0757-2.4364l-3.7597 6.0679c4.2635 2.6052 8.5879 5.0727 13.044 7.2445 2.3893 1.1937 4.6111 2.1922 6.8135 3.1688l5.7083-13.084c0.76336 0.33333 1.4167 0.60944 2.0359 0.86856l-1.8349 4.3916c1.4809 0.61941 2.9241 1.193 4.34 1.7331l-0.84607 2.2222c-1.5011-0.56965-2.9655-1.1598-4.4101-1.7609l-2.7524 6.5861c0.68429 0.28107 1.3696 0.55866 2.0557 0.83284l6.6985-1e-3c-1.834-0.64638-3.6739-1.3351-5.5219-2.0821l0.88178-2.209c1.5167 0.60437 3.0196 1.1772 4.5079 1.7159l1.6221-4.4736c0.7828 0.27976 1.6259 0.58439 2.1575 0.7641l-1.552 4.4974c1.529 0.52225 3.0576 1.0338 4.5846 1.5018l0.7046-2.2738c-0.74494-0.24559-1.4592-0.46142-2.2156-0.70463l1.478-4.5238c-1.3865-0.45195-2.8476-0.95528-4.3784-1.5084l0.84341-2.2262c1.4423 0.52241 2.8678 1.0143 4.2753 1.474l-0.31067-6.7831c-6.045-1.9772-9.4921-4.4016-15.392-7.3185l-6.3283 12.794c-0.69659-0.3603-1.3687-0.68726-2.0768-1.047l2.176-4.2316c-1.2978-0.66556-2.661-1.3943-4.0849-2.1826l1.1845-2.0649c1.3415 0.74397 2.6712 1.4558 3.9884 2.1324l3.2626-6.3468c-5.6561-2.9084-11.172-6.2471-16.537-10.06l-8.273 11.631c-0.63085-0.46593-1.2415-0.8944-1.8838-1.3616l2.8172-3.8351c-1.1763-0.86239-2.4069-1.7977-3.6883-2.8013l1.4965-1.8508c1.207 0.94681 2.4077 1.8588 3.6011 2.7352l4.225-5.7506c-5.1248-3.7664-10.044-7.936-14.737-12.55l-10.007 10.178c-0.54922-0.55983-1.0854-1.0802-1.6459-1.6432l3.3882-3.3407c-1.0248-1.0375-2.0925-2.1563-3.1992-3.3499l1.7701-1.5904c1.0422 1.1258 2.0839 2.2165 3.1238 3.2706l5.0817-5.0103c-4.4651-4.5296-8.6635-9.425-12.568-14.723l-11.492 8.466c-0.45328-0.63909-0.90022-1.2385-1.3643-1.8825l3.8747-2.7616c-0.84778-1.1866-1.7253-2.4603-2.6294-3.8139l2.0002-1.2916c0.85111 1.2765 1.7059 2.5188 2.566 3.724l5.8101-4.1431c-3.6922-5.1786-7.0635-10.676-10.081-16.525l-12.686 6.5425c-0.34689-0.70337-0.69304-1.3657-1.0496-2.0755l4.2634-2.1152c-0.64926-1.3057-1.3151-2.7019-1.9935-4.1814l2.1786-0.95842c0.63827 1.395 1.2872 2.7561 1.946 4.0823l6.3918-3.1714c-2.8265-5.6974-5.2862-11.659-7.341-17.911l-13.561 4.4538c-0.23023-0.7494-0.46889-1.457-0.70859-2.2143l4.5438-1.4145c-0.43489-1.392-0.87019-2.8763-1.3061-4.4445l2.3029-0.60148c0.40982 1.4784 0.83387 2.9251 1.2744 4.3387l6.8135-2.1205c-1.89-6.0728-3.3755-12.349-4.4154-18.847l-14.094 2.2527c-0.11-0.77651-0.23279-1.5132-0.34901-2.2989l4.7089-0.67818c-0.20977-1.4433-0.40455-2.9764-0.58695-4.5939l2.369-0.22998c0.1714 1.5246 0.36112 3.02 0.57242 4.4855l7.0633-1.0166c-0.90585-6.2952-1.3798-12.727-1.3788-19.309l-14.277-0.0051zm138.72-162.52a20.542 20.542 0 0 0-0.43361 2.4628 12.74 12.74 0 0 0-10.477 12.527l-0.01279 11.698c-5.0151 0.80473-9.9289 1.8676-14.74 3.1926l-0.63057-2.295c1.3914-0.38565 2.836-0.75165 4.3057-1.1091l-1.1144-4.6256c0.68201-0.16526 1.4229-0.3364 2.1932-0.51028l1.0417 4.6415c2.2039-0.49567 4.3994-0.93041 6.5861-1.3127l-0.0077-9.6795a15.119 15.119 0 0 1 13.289-14.99zm21.569 0a15.119 15.119 0 0 1 13.289 14.99l-0.0077 9.6795c2.1867 0.38232 4.3822 0.81706 6.5861 1.3127l1.0417-4.6415c0.77027 0.17396 1.5111 0.34502 2.1932 0.51028l-1.1144 4.6256c1.4697 0.35748 2.9147 0.72348 4.307 1.1091l-0.63057 2.295c-4.8112-1.325-9.725-2.3879-14.74-3.1926l-0.01279-11.698a12.74 12.74 0 0 0-10.477-12.527 20.542 20.542 0 0 0-0.43361-2.4628zm-41.706 11.413c-0.13226 0.85001-0.22359 1.6908-0.28951 2.5263-2.286 0.47971-4.5257 1.0055-6.7276 1.5732l1.1885 4.6084c-0.80401 0.21157-1.6822 0.43108-2.2222 0.58299l-1.2598-4.5886c-1.5567 0.43299-3.1065 0.87574-4.6309 1.3524-0.88667 0.27524-1.6745 0.52443-2.3478 0.74561l4.4392 13.567c-4.7815 1.5945-9.5283 3.3783-14.206 5.5351l-0.98618-2.1667c1.3126-0.60082 2.6823-1.19 4.077-1.7754l-1.8323-4.3916c0.64722-0.27102 1.3516-0.55651 2.0848-0.85004l1.7635 4.4181c2.055-0.80632 4.127-1.6015 6.2953-2.3373l-4.6481-13.496c1.9048-0.66039 3.2278-1.0679 4.6573-1.5216 4.8814-1.5038 9.9018-2.8102 14.645-3.7822zm61.842 0c4.7431 0.97201 9.7635 2.2784 14.645 3.7822 1.4295 0.45377 2.7525 0.86122 4.6573 1.5216l-4.6481 13.496c2.1683 0.73576 4.2403 1.531 6.2953 2.3373l1.7635-4.4181c0.7332 0.29353 1.4375 0.57902 2.0848 0.85004l-1.8323 4.3916c1.3947 0.58542 2.7644 1.1746 4.077 1.7754l-0.98618 2.1667c-4.6776-2.1568-9.4245-3.9406-14.206-5.5351l4.4392-13.567c-0.67332-0.22128-1.4612-0.47037-2.3478-0.74561-1.5244-0.47664-3.0742-0.91939-4.6309-1.3524l-1.2598 4.5886c-0.54003-0.15196-1.4182-0.37142-2.2222-0.58299l1.1885-4.6084c-2.2018-0.56763-4.4416-1.0934-6.7275-1.5732-0.066-0.83551-0.15733-1.6763-0.28954-2.5263zm-110.03 18.723 1.2189 2.0425c-1.4014 0.83798-2.7688 1.6844-4.1008 2.5395l2.5686 4.0056c-0.69762 0.45198-1.4513 0.93763-1.9169 1.2506l-2.6307-3.9659c-1.3436 0.89754-2.6785 1.8023-3.9778 2.7312-0.75623 0.5384-1.4244 1.0206-1.9949 1.4409l8.4527 11.504c-4.0442 3.0082-7.9969 6.1841-11.767 9.6941l-1.6128-1.7503c1.0593-0.98081 2.1762-1.9682 3.3182-2.9599l-3.112-3.5998c0.53006-0.45963 1.1112-0.95162 1.7159-1.4594l3.0538 3.6473c1.7002-1.4078 3.4197-2.8106 5.2496-4.1867l-8.6299-11.37c1.6032-1.2224 2.7323-2.0215 3.9488-2.8991 3.2704-2.2967 6.6307-4.5442 10.216-6.6641zm158.21 0c3.5856 2.1199 6.9459 4.3674 10.216 6.6641 1.2164 0.87759 2.3455 1.6767 3.9488 2.8991l-8.6299 11.37c1.8298 1.3761 3.5494 2.7789 5.2496 4.1867l3.0538-3.6473c0.60476 0.50783 1.1859 0.99982 1.7159 1.4594l-3.1119 3.5998c1.142 0.99176 2.2588 1.9791 3.3182 2.9599l-1.6128 1.7503c-3.77-3.51-7.7227-6.6859-11.767-9.6941l8.4527-11.504c-0.57048-0.42036-1.2387-0.90255-1.9949-1.4409-1.2993-0.92893-2.6343-1.8337-3.9778-2.7312l-2.6307 3.9659c-0.46556-0.31297-1.2192-0.79861-1.9169-1.2506l2.5686-4.0056c-1.332-0.85515-2.6994-1.7016-4.1008-2.5395zm-178.16 14.178 1.5269 1.823c-1.2512 1.0491-2.4686 2.1018-3.6487 3.1569l3.1701 3.5482c-0.61755 0.55661-1.2844 1.1548-1.6948 1.5374l-3.2243-3.4993c-1.1847 1.0987-2.3593 2.2034-3.4953 3.3261-0.66155 0.65121-1.2456 1.2331-1.7424 1.7384l10.166 10.022c-3.5175 3.61-6.9178 7.3718-10.085 11.434l-1.8693-1.474c0.89102-1.136 1.8373-2.2878 2.8079-3.4477l-3.642-3.0617c0.45075-0.5377 0.94665-1.1149 1.4634-1.712l3.5918 3.1172c1.4561-1.659 2.9333-3.3158 4.5225-4.964l-10.321-9.862c1.3902-1.4605 2.3787-2.4285 3.4411-3.4874 2.8662-2.785 5.8279-5.5346 9.0331-8.1949zm198.11 0c3.2052 2.6603 6.1669 5.4099 9.0331 8.1949 1.0624 1.0589 2.051 2.0269 3.4411 3.4874l-10.321 9.862c1.5892 1.6482 3.0664 3.305 4.5225 4.964l3.5918-3.1172c0.51673 0.59711 1.0127 1.1743 1.4634 1.712l-3.642 3.0617c0.97057 1.1599 1.9168 2.3117 2.8079 3.4477l-1.8693 1.474c-3.1675-4.062-6.5679-7.8239-10.085-11.434l10.166-10.022c-0.4968-0.50529-1.0808-1.0872-1.7424-1.7384-1.1361-1.1227-2.3106-2.2274-3.4953-3.3261l-3.2243 3.4993c-0.41031-0.38268-1.0772-0.98084-1.6948-1.5374l3.1701-3.5482c-1.1801-1.0551-2.3975-2.1078-3.6487-3.1569zm-215.57 17.154 1.7966 1.5586c-1.0696 1.2338-2.1045 2.4652-3.1027 3.6936l3.691 3.0035c-0.52162 0.6473-1.086 1.3433-1.4304 1.786l-3.7372-2.9454c-0.99616 1.2723-1.9816 2.5481-2.9256 3.8364-0.55052 0.74763-1.0356 1.4148-1.4462 1.9922l11.623 8.2875c-2.9023 4.1208-5.665 8.3735-8.15 12.885l-2.0781-1.1594c0.70017-1.2626 1.4508-2.5494 2.2262-3.8483l-4.0783-2.447c0.36019-0.60225 0.75663-1.2508 1.1726-1.9221l4.0413 2.5104c1.1757-1.8684 2.3705-3.7382 3.679-5.6171l-11.75-8.105c1.1414-1.662 1.9647-2.7748 2.8462-3.9884 2.3896-3.2033 4.8781-6.3871 7.6225-9.5209zm233.02 0c2.7444 3.1338 5.2329 6.3176 7.6225 9.5209 0.88155 1.2136 1.7048 2.3264 2.8462 3.9884l-11.75 8.105c1.3085 1.8789 2.5033 3.7486 3.6791 5.6171l4.0413-2.5104c0.41596 0.67132 0.8124 1.3199 1.1726 1.9221l-4.0783 2.447c0.77539 1.2989 1.526 2.5857 2.2262 3.8483l-2.0781 1.1594c-2.485-4.5119-5.2477-8.7645-8.15-12.885l11.623-8.2875c-0.41056-0.57748-0.8957-1.2446-1.4462-1.9922-0.94395-1.2883-1.9294-2.5641-2.9256-3.8364l-3.7372 2.9454c-0.34431-0.44275-0.90874-1.1387-1.4304-1.786l3.691-3.0035c-0.9982-1.2284-2.0331-2.4598-3.1027-3.6936zm-247.55 19.699 2.0213 1.2559c-0.86109 1.3874-1.6901 2.767-2.4814 4.1378l4.1206 2.3809c-0.41264 0.72169-0.86017 1.4993-1.1303 1.9909l-4.1563-2.3174c-0.78229 1.4138-1.5532 2.8288-2.2817 4.2502-0.42518 0.82527-0.79765 1.562-1.1118 2.1971l12.786 6.3442c-2.2141 4.528-4.2681 9.1636-6.0084 14.012l-2.2355-0.81568c0.49171-1.3574 1.0291-2.7472 1.589-4.1523l-4.4154-1.7715c0.26042-0.65165 0.5509-1.3548 0.85533-2.0834l4.3863 1.8402c0.86518-2.0309 1.7493-4.0665 2.7444-6.1287l-12.883-6.1446c0.86415-1.8216 1.5002-3.0513 2.1786-4.389 1.8529-3.5409 3.8075-7.0779 6.0216-10.606zm262.07 0c2.2141 3.5284 4.1687 7.0653 6.0216 10.606 0.67844 1.3377 1.3145 2.5674 2.1786 4.389l-12.883 6.1446c0.99513 2.0622 1.8792 4.0978 2.7444 6.1287l4.3863-1.8402c0.30443 0.72865 0.59491 1.4318 0.85533 2.0834l-4.4154 1.7715c0.55998 1.4051 1.0973 2.7949 1.589 4.1523l-2.2355 0.81568c-1.7403-4.8481-3.7943-9.4837-6.0084-14.012l12.786-6.3442c-0.31414-0.63512-0.68661-1.3719-1.1118-2.1971-0.72858-1.4214-1.4995-2.8364-2.2818-4.2502l-4.1563 2.3174c-0.27017-0.49163-0.71767-1.2692-1.1303-1.9909l4.1206-2.3809c-0.79125-1.3708-1.6203-2.7504-2.4814-4.1378zm-273.29 21.748 2.1932 0.9201c-0.63085 1.5061-1.2293 3.0001-1.7939 4.4789l4.4445 1.7001c-0.29345 0.77784-0.61207 1.6148-0.80112 2.1429l-4.471-1.63c-0.54873 1.5197-1.0853 3.0395-1.5798 4.5582-0.28936 0.88214-0.54139 1.667-0.75091 2.3439l13.63 4.2436c-1.4702 4.8212-2.7671 9.7227-3.7187 14.785l-2.3359-0.45211c0.27065-1.4181 0.58272-2.876 0.9135-4.352l-4.6402-1.0496c0.15349-0.68462 0.32881-1.4242 0.51427-2.1919l4.623 1.1224c0.5331-2.1421 1.0846-4.292 1.741-6.4856l-13.694-4.0294c0.56511-1.9353 0.99997-3.2503 1.4582-4.6785 1.2696-3.7894 2.6406-7.5917 4.2687-11.426zm284.52 0c1.628 3.8341 2.999 7.6365 4.2687 11.426 0.45817 1.4282 0.89303 2.7432 1.4581 4.6785l-13.694 4.0294c0.65643 2.1936 1.208 4.3435 1.741 6.4856l4.623-1.1224c0.18546 0.76766 0.36075 1.5072 0.51424 2.1919l-4.6401 1.0496c0.33078 1.476 0.64285 2.9339 0.91351 4.352l-2.336 0.45211c-0.95165-5.0623-2.2485-9.9639-3.7187-14.785l13.63-4.2436c-0.20952-0.67682-0.46158-1.4617-0.75091-2.3439-0.49449-1.5187-1.031-3.0385-1.5798-4.5582l-4.471 1.63c-0.18905-0.52816-0.50769-1.3651-0.80112-2.1429l4.4445-1.7001c-0.56456-1.4788-1.163-2.9727-1.7939-4.4789zm-292.16 23.251 2.3121 0.56052c-0.3845 1.5869-0.74057 3.1568-1.0642 4.7062l4.6573 0.97562c-0.16628 0.81448-0.34796 1.692-0.4508 2.2434l-4.6719-0.90291c-0.30161 1.5874-0.59291 3.172-0.84078 4.7499-0.14581 0.91678-0.27147 1.7323-0.3715 2.4338l14.129 2.0345c-0.68891 4.993-1.1936 10.038-1.3326 15.187l-2.3782-0.07675c0.0435-1.443 0.12075-2.9308 0.21284-4.4405l-4.7472-0.30404c0.0435-0.70038 0.10002-1.4587 0.16142-2.246l4.742 0.37808c0.18674-2.1995 0.39293-4.4102 0.69403-6.68l-14.158-1.8124c0.25326-2.0004 0.47268-3.3676 0.69933-4.8503h1e-3c0.65413-3.9425 1.405-7.9126 2.406-11.956zm299.81 0c1.001 4.0434 1.7519 8.0135 2.406 11.956h1e-3c0.22665 1.4827 0.44604 2.8499 0.6993 4.8503l-14.158 1.8124c0.3011 2.2698 0.50729 4.4805 0.69403 6.68l4.7419-0.37807c0.0614 0.78731 0.11793 1.5457 0.16142 2.246l-4.7472 0.30404c0.0921 1.5097 0.16935 2.9975 0.21284 4.4405l-2.3782 0.07675c-0.13891-5.149-0.64364-10.194-1.3326-15.187l14.13-2.0345c-0.10002-0.70145-0.22563-1.517-0.37147-2.4338-0.24789-1.5778-0.53917-3.1625-0.84078-4.7499l-4.6719 0.90291c-0.10284-0.55139-0.28452-1.4289-0.4508-2.2434l4.6573-0.97562c-0.32361-1.5495-0.67971-3.1193-1.0642-4.7062zm-301.31 48.453c0.13047 1.6277 0.28355 3.2284 0.46004 4.8014l4.7287-0.52745c0.0972 0.82578 0.19698 1.7165 0.27101 2.2725l-4.7195 0.60151c0.20977 1.6018 0.42901 3.1977 0.68611 4.7737 0.14837 0.91652 0.28442 1.7309 0.40849 2.4285l14.058-2.4813c0.90483 4.9584 2.0005 9.9096 3.4768 14.844l-2.2831 0.66894c-0.40982-1.3843-0.80127-2.8213-1.1845-4.2846l-4.6044 1.1938c-0.17652-0.67902-0.36135-1.4167-0.54861-2.1839l4.623-1.1224c-0.50882-2.1481-1.0048-4.3107-1.4277-6.561l-14.017 2.6995c-0.38526-1.9784-0.6024-3.3464-0.85003-4.8252v-0.0014c-0.60987-3.9492-1.136-7.956-1.4476-12.109zm302.81 0 2.3703 0.18777c-0.31159 4.1533-0.8377 8.1602-1.4476 12.109v0.0014c-0.24764 1.4788-0.46478 2.8468-0.85001 4.8252l-14.017-2.6995c-0.42287 2.2503-0.9189 4.4129-1.4277 6.561l4.623 1.1224c-0.18726 0.7672-0.37212 1.5049-0.54861 2.1839l-4.6045-1.1938c-0.38319 1.4633-0.77467 2.9003-1.1845 4.2846l-2.283-0.66894c1.4763-4.9348 2.572-9.886 3.4768-14.844l14.058 2.4813c0.12408-0.69759 0.26012-1.5119 0.40847-2.4285 0.2571-1.576 0.47633-3.1719 0.6861-4.7737l-4.7194-0.60151c0.0739-0.556 0.1737-1.4467 0.27099-2.2725l4.7287 0.52745c0.17651-1.5731 0.32957-3.1737 0.46004-4.8014zm-299 23.793c0.38603 1.5866 0.79045 3.1439 1.2136 4.6692l4.586-1.2691c0.22512 0.8002 0.46543 1.6625 0.6266 2.1998l-4.5648 1.3405c0.46022 1.5489 0.9285 3.0913 1.4317 4.6071 0.29061 0.88168 0.55485 1.6628 0.78792 2.332l13.487-4.6732c1.6777 4.7529 3.5442 9.4676 5.7823 14.107l-2.1482 1.0232c-0.62368-1.3021-1.2383-2.6597-1.8481-4.044l-4.3572 1.9076c-0.28243-0.64246-0.58058-1.3423-0.88705-2.0702l4.3863-1.8389c-0.84215-2.0406-1.6734-4.0979-2.447-6.2529l-13.413 4.8821c-0.69327-1.8931-1.1249-3.2094-1.6036-4.6309h1e-3c-1.2266-3.8035-2.3813-7.6764-3.346-11.729zm295.18 0 2.3122 0.56052c-0.96469 4.0522-2.1193 7.9251-3.3459 11.729h1e-3c-0.47864 1.4215-0.91031 2.7378-1.6036 4.6309l-13.413-4.8821c-0.7736 2.155-1.6048 4.2124-2.447 6.2529l4.3863 1.8389c-0.30647 0.72796-0.60463 1.4277-0.88705 2.0702l-4.3572-1.9076c-0.60987 1.3843-1.2244 2.7419-1.8481 4.044l-2.1482-1.0232c2.2382-4.6393 4.1047-9.3539 5.7824-14.107l13.487 4.6732c0.23305-0.66917 0.49729-1.4503 0.7879-2.332 0.50319-1.5159 0.97147-3.0582 1.4317-4.6071l-4.5648-1.3405c0.16116-0.53727 0.40148-1.3996 0.6266-2.1998l4.586 1.2691c0.42312-1.5254 0.82755-3.0826 1.2136-4.6692zm-287.66 22.891c0.63213 1.5056 1.2777 2.9788 1.9367 4.4181l4.3268-1.979c0.34919 0.75448 0.72471 1.5692 0.96901 2.0742l-4.2964 2.0464c0.69915 1.4566 1.4062 2.9043 2.1429 4.3215 0.42645 0.82461 0.81025 1.5547 1.1462 2.1786l12.579-6.7474c2.4083 4.4277 4.9961 8.7881 7.9398 13.015l-1.9592 1.3497c-0.82194-1.187-1.6432-2.4311-2.4642-3.7015l-4.0016 2.5726c-0.38038-0.58973-0.78549-1.232-1.203-1.9023l4.0413-2.5104c-1.154-1.8817-2.301-3.7821-3.4054-5.7876l-12.473 6.9417c-0.98413-1.7596-1.6172-2.9896-2.3148-4.3176-1.8127-3.5616-3.5636-7.2044-5.157-11.053zm280.13 0 2.1932 0.91877c-1.5935 3.8486-3.3443 7.4915-5.157 11.053-0.69762 1.3279-1.3306 2.558-2.3148 4.3176l-12.473-6.9417c-1.1044 2.0056-2.2514 3.9059-3.4054 5.7876l4.0413 2.5104c-0.4175 0.67035-0.82261 1.3126-1.203 1.9023l-4.0016-2.5726c-0.82092 1.2705-1.6422 2.5145-2.4642 3.7015l-1.9592-1.3497c2.9437-4.2268 5.5315-8.5872 7.9398-13.015l12.579 6.7474c0.33589-0.62392 0.71975-1.354 1.1462-2.1786 0.73676-1.4172 1.4438-2.8649 2.1429-4.3215l-4.2964-2.0464c0.2443-0.50501 0.61982-1.3197 0.96901-2.0742l4.3268 1.979c0.65899-1.4393 1.3046-2.9125 1.9367-4.4181zm-269.08 21.412c0.86236 1.3866 1.7314 2.7402 2.6096 4.0572l3.9607-2.6387c0.46431 0.68977 0.96259 1.4357 1.2836 1.8957l-3.9183 2.6995c0.92094 1.3277 1.8485 2.6447 2.7999 3.9276h-1e-3c0.55154 0.74678 1.0466 1.4081 1.4767 1.9711l11.353-8.6524c3.0783 3.9911 6.3237 7.887 9.899 11.595l-1.7212 1.6432c-0.999-1.0421-2.0063-2.1407-3.0181-3.2653l-3.5442 3.1728c-0.46892-0.52215-0.97027-1.0923-1.4886-1.6882l3.5918-3.1186c-1.4374-1.6755-2.8699-3.3699-4.2779-5.1755l-11.217 8.8282c-1.2502-1.5818-2.0692-2.6976-2.9679-3.8985-2.3533-3.23-4.6591-6.5491-6.8412-10.097zm258.03 0 2.0213 1.2559c-2.1821 3.5481-4.488 6.8672-6.8412 10.097-0.89869 1.2009-1.7177 2.3167-2.9678 3.8985l-11.217-8.8282c-1.408 1.8056-2.8405 3.5001-4.2779 5.1755l3.5918 3.1186c-0.51831 0.59588-1.0197 1.166-1.4886 1.6882l-3.5442-3.1728c-1.0118 1.1246-2.0191 2.2232-3.0181 3.2653l-1.7212-1.6432c3.5753-3.7081 6.8207-7.604 9.899-11.595l11.353 8.6524c0.43003-0.56296 0.92509-1.2243 1.4766-1.9711h-1e-3c0.95139-1.2829 1.879-2.5999 2.8-3.9276l-3.9183-2.6995c0.32105-0.45999 0.81933-1.206 1.2836-1.8957l3.9607 2.6387c0.87823-1.3169 1.7472-2.6705 2.6096-4.0572zm-243.73 19.396c1.0708 1.2328 2.1449 2.4317 3.2204 3.5931l3.4927-3.2322c0.56715 0.60768 1.177 1.2649 1.5666 1.6683l-3.4424 3.2851c1.1187 1.1649 2.2436 2.3199 3.3856 3.4358v1e-3c0.66283 0.65014 1.2562 1.2229 1.7701 1.7107l9.8421-10.338c3.6707 3.454 7.4917 6.7872 11.608 9.8831l-1.4409 1.8944c-1.1514-0.87103-2.3201-1.7953-3.4966-2.7458l-2.9969 3.6936c-0.54566-0.44149-1.1311-0.92665-1.7371-1.433l3.0538-3.646c-1.6843-1.4271-3.3664-2.8737-5.042-4.4339l-9.6809 10.49c-1.4848-1.3641-2.4696-2.3353-3.5468-3.379v-1e-3c-2.8347-2.8172-5.6365-5.7294-8.3523-8.8877zm229.43 0 1.7966 1.5586c-2.7158 3.1583-5.5176 6.0705-8.3523 8.8877v1e-3c-1.0772 1.0437-2.0621 2.0149-3.5469 3.379l-9.6808-10.49c-1.6756 1.5602-3.3577 3.0068-5.042 4.4339l3.0538 3.6464c-0.60604 0.50636-1.1914 0.99152-1.7371 1.433l-2.9969-3.6936c-1.1765 0.95045-2.3452 1.8747-3.4966 2.7458l-1.4409-1.8944c4.1166-3.096 7.9375-6.429 11.608-9.8831l9.8421 10.338c0.51396-0.48779 1.1073-1.0605 1.7701-1.7106v-1e-3c1.142-1.1159 2.2669-2.2709 3.3856-3.4358l-3.4424-3.2851c0.38962-0.40343 0.99941-1.0607 1.5666-1.6684l3.4927 3.2322c1.0754-1.1614 2.1495-2.3603 3.2203-3.5931zm-192.64 13.874c4.1709 2.83 8.4709 5.518 13.025 7.924l-1.1224 2.0993c-1.2745-0.67795-2.5759-1.4077-3.888-2.1601l-2.3756 4.1219c-0.60834-0.34963-1.2636-0.73538-1.942-1.1395l2.4404-4.0836c-1.889-1.1428-3.7791-2.3057-5.6806-3.5812l-7.8988 11.89c-1.6818-1.1122-2.8097-1.916-4.0386-2.7761-3.2445-2.3334-6.4707-4.7669-9.6518-7.456l1.5282-1.823c1.2522 1.0479 2.5009 2.0612 3.7465 3.0379l2.9388-3.7425c0.65618 0.51026 1.3626 1.0619 1.8111 1.3986l-2.8806 3.7888c1.2896 0.97369 2.5822 1.9365 3.8866 2.8581 0.75722 0.53719 1.4341 1.0089 2.0187 1.4092zm155.85 0 8.0826 11.766c0.58455-0.40035 1.2614-0.87203 2.0187-1.4092 1.3044-0.92157 2.597-1.8844 3.8866-2.8581l-2.8806-3.7888c0.44845-0.33671 1.1549-0.88841 1.8111-1.3986l2.9388 3.7425c1.2456-0.97667 2.4943-1.99 3.7465-3.0379l1.5282 1.823c-3.1811 2.689-6.4072 5.1226-9.6518 7.456-1.229 0.86014-2.3569 1.6639-4.0387 2.7761l-7.8988-11.89c-1.9015 1.2755-3.7916 2.4385-5.6805 3.5812l2.4404 4.0836c-0.67843 0.40416-1.3336 0.78991-1.942 1.1395l-2.3756-4.1219c-1.3121 0.75239-2.6134 1.4822-3.8879 2.1601l-1.1224-2.0993c4.5546-2.4059 8.8546-5.094 13.025-7.924zm-136.93 10.897c4.5661 2.1347 9.2358 4.1085 14.113 5.7638l-0.776 2.2487c-1.3658-0.46781-2.7641-0.98093-4.1788-1.5163l-1.6948 4.4458c-0.65618-0.24891-1.3641-0.52655-2.098-0.81831l1.7635-4.4194c-2.0455-0.82967-4.0957-1.6772-6.175-2.636l-5.9198 12.988c-1.8363-0.83223-3.0766-1.447-4.426-2.102-3.5728-1.7909-7.1427-3.6831-10.709-5.8352l1.2202-2.0425c1.4021 0.83666 2.7956 1.6399 4.1801 2.4073l2.3095-4.1603c0.72883 0.40008 1.5131 0.83313 2.0094 1.0946l-2.2447 4.196c1.4272 0.75753 2.856 1.5041 4.2898 2.2077 0.83269 0.41069 1.5751 0.77057 2.2156 1.0735zm118.01 0 6.1208 12.896c0.64057-0.30289 1.3829-0.66277 2.2156-1.0735 1.4339-0.70363 2.8626-1.4502 4.2898-2.2077l-2.2447-4.196c0.49629-0.26149 1.2806-0.69454 2.0094-1.0946l2.3095 4.1603c1.3845-0.76738 2.778-1.5706 4.1801-2.4073l1.2202 2.0425c-3.5666 2.1521-7.1366 4.0443-10.709 5.8352-1.3494 0.65499-2.5898 1.2697-4.426 2.102l-5.9198-12.988c-2.0793 0.95878-4.1294 1.8064-6.175 2.636l1.7635 4.4194c-0.73392 0.29176-1.4418 0.5694-2.098 0.81831l-1.6948-4.4458c-1.4147 0.53538-2.813 1.0485-4.1788 1.5163l-0.776-2.2487c4.8777-1.6553 9.5474-3.6292 14.113-5.7638z" fill="#ffc705"/>
      <g transform="matrix(2.5582 0 0 2.5582 511.27 -1185.7)">
        <g transform="translate(-389.33 360.46)">
          <path d="m188.25 47.839c-1.003 0.74162-2.7301 3.2196-2.7301 4.7274 0 1.5077 1.2223 2.7296 2.7301 2.7296 1.5077 2e-6 2.7301-1.2218 2.7301-2.7296 0-1.5077-1.7271-3.9857-2.7301-4.7274z" fill="#d40000" stroke="#ffc705" stroke-width=".10007"/>
          <path d="m188.25 47.837c-0.74248 0.54899-2.0209 2.3833-2.0209 3.4994 0 1.1161 0.90483 2.0206 2.0209 2.0206 1.1161 0 2.0209-0.90445 2.0209-2.0206 0-1.1161-1.2785-2.9505-2.0209-3.4994z" fill="#d45500"/>
          <path d="m188.25 47.837c-0.50171 0.37097-1.3656 1.6105-1.3656 2.3647 0 0.75418 0.61142 1.3653 1.3656 1.3653 0.75418 0 1.3656-0.61116 1.3656-1.3653 0-0.75418-0.86389-1.9937-1.3656-2.3647z" fill="#d47f00"/>
          <path d="m188.25 47.837c-0.25018 0.18499-0.68097 0.80308-0.68097 1.1792 0 0.37608 0.30489 0.68084 0.68097 0.68084 0.37608 0 0.68097-0.30476 0.68097-0.68084 0-0.37608-0.43079-0.99417-0.68097-1.1792z" fill="#fff"/>
        </g>
        <g transform="translate(-378.41 366.41)">
          <path d="m173.83 48.003c-1.003 0.74162-2.7301 3.2196-2.7301 4.7274 0 1.5077 1.2223 2.7296 2.7301 2.7296 1.5077 2e-6 2.7301-1.2218 2.7301-2.7296 0-1.5077-1.7271-3.9857-2.7301-4.7274z" fill="#093" stroke="#ffc705" stroke-width=".10007"/>
          <path d="m173.83 48.003c-0.74248 0.54899-2.0209 2.3833-2.0209 3.4994 0 1.1161 0.90483 2.0206 2.0209 2.0206 1.1161 0 2.0209-0.90445 2.0209-2.0206 0-1.1161-1.2785-2.9505-2.0209-3.4994z" fill="#6dc235"/>
          <path d="m173.83 48.003c-0.50171 0.37097-1.3656 1.6105-1.3656 2.3647 0 0.75418 0.61142 1.3653 1.3656 1.3653 0.75418 0 1.3656-0.61116 1.3656-1.3653 0-0.75418-0.86389-1.9937-1.3656-2.3647z" fill="#b5d98b"/>
          <path d="m173.83 48.003c-0.25018 0.18499-0.68097 0.80308-0.68097 1.1792 0 0.37608 0.30489 0.68084 0.68097 0.68084 0.37608 0 0.68097-0.30476 0.68097-0.68084 0-0.37608-0.43079-0.99417-0.68097-1.1792z" fill="#fff"/>
        </g>
        <g transform="translate(-378.82 366.68)">
          <path d="m181.24 47.738c-1.003 0.74162-2.7301 3.2196-2.7301 4.7274 0 1.5077 1.2223 2.7296 2.7301 2.7296 1.5077 2e-6 2.7301-1.2218 2.7301-2.7296 0-1.5077-1.7271-3.9857-2.7301-4.7274z" fill="#1b4392" stroke="#ffc705" stroke-width=".10007"/>
          <path d="m181.24 47.738c-0.74248 0.54899-2.0209 2.3833-2.0209 3.4994 0 1.1161 0.90483 2.0206 2.0209 2.0206 1.1161 0 2.0209-0.90445 2.0209-2.0206 0-1.1161-1.2785-2.9505-2.0209-3.4994z" fill="#1b6692"/>
          <path d="m181.24 47.738c-0.50171 0.37097-1.3656 1.6105-1.3656 2.3647 0 0.75418 0.61142 1.3653 1.3656 1.3653 0.75418 0 1.3656-0.61116 1.3656-1.3653 0-0.75418-0.86389-1.9937-1.3656-2.3647z" fill="#1b8b92"/>
          <path d="m181.24 47.738c-0.25018 0.18499-0.68097 0.80308-0.68097 1.1792 0 0.37608 0.30489 0.68084 0.68097 0.68084 0.37608 0 0.68097-0.30476 0.68097-0.68084 0-0.37608-0.43079-0.99417-0.68097-1.1792z" fill="#fff"/>
        </g>
      </g>
      <g transform="matrix(2.5582 0 0 2.5582 -267.04 -296.92)" fill="#fff" stroke="#ffc705" stroke-width=".2">
        <path d="m103.16 173.75c0.83966 1.2051 6.4999 1.803 6.4999 5.9614 0 2.279-2.0996 4.3986-3.5874 4.4287h-5.825c-1.4878-0.0301-3.5874-2.1497-3.5874-4.4287 0-4.1584 5.6602-4.7563 6.4999-5.9614z"/>
        <path d="m103.16 175.13c0.83966 1.2051 4.9997 1.7095 4.9997 4.6752 0 2.6766-1.9202 4.2994-3.4081 4.3294h-3.1833c-1.4878-0.0301-3.4086-1.6529-3.4086-4.3294 0-2.9657 4.1606-3.4701 5.0002-4.6752z"/>
        <path d="m103.16 173.75c-0.83966 1.2051-6.4999 1.803-6.4999 5.9614 0 2.279 2.0996 4.3986 3.5874 4.4287h5.825c1.4878-0.0301 3.5874-2.1497 3.5874-4.4287 0-4.1584-5.6602-4.7563-6.4999-5.9614z"/>
        <path d="m103.16 175.13c-0.83966 1.2051-4.9997 1.7095-4.9997 4.6752 0 2.6766 1.9202 4.2994 3.4081 4.3294h3.1833c1.4878-0.0301 3.4086-1.6529 3.4086-4.3294 0-2.9657-4.1606-3.4701-5.0002-4.6752z"/>
        <path d="m103.16 194.89c-0.83966-1.2051-6.4999-1.803-6.4999-5.9614 0-2.279 2.0996-4.3986 3.5874-4.4287h5.825c1.4878 0.0301 3.5874 2.1497 3.5874 4.4287 0 4.1584-5.6602 4.7563-6.4999 5.9614z"/>
        <path d="m103.16 193.5c-0.83966-1.2051-4.9997-1.7095-4.9997-4.6752 0-2.6766 1.9202-4.2994 3.4081-4.3294h3.1833c1.4878 0.0301 3.4086 1.6529 3.4086 4.3294 0 2.9657-4.1606 3.4701-5.0002 4.6752z"/>
        <path d="m103.16 173.75c-0.83966 1.2051-6.4999 1.803-6.4999 5.9614 0 2.279 2.0996 4.3986 3.5874 4.4287h5.825c1.4878-0.0301 3.5874-2.1497 3.5874-4.4287 0-4.1584-5.6602-4.7563-6.4999-5.9614z"/>
        <path d="m103.16 175.13c-0.83966 1.2051-4.9997 1.7095-4.9997 4.6752 0 2.6766 1.9202 4.2994 3.4081 4.3294h3.1833c1.4878-0.0301 3.4086-1.6529 3.4086-4.3294 0-2.9657-4.1606-3.4701-5.0002-4.6752z"/>
        <path d="m66.038 193.82c3.9906 2.5001 10.797 0 10.821-4.22 0.0203-3.6687 2.9707-4.852 3.3369-5.1004-4.0659 0.0655-9.4577 2.1612-10.814 3.9029-1.2261 1.6809-1.1192 4.5079-3.3438 5.4174z"/>
        <path d="m67.596 193.72c4.0607 0.87643 7.542-1.1747 7.8884-3.3848 0.54588-3.2892 1.1615-4.6075 4.7106-5.8446-2.6332-0.26344-6.7846-1.2931-7.2155-2.8385-0.86985 0.60519-0.55929 2.0331 0.0462 2.5231-0.5355 0.38489-0.68519 0.94427-0.68519 1.4658 0 0.62771 0.55166 1.4278 1.6014 1.4278 1.159 0 1.5166-0.63091 1.5166-1.4219 0-0.87341-1.5166-0.92774-1.5166 0.0351 0-0.96595 1.5166-0.90644 1.5166-0.0351 0 0.78952-0.35573 1.4219-1.5166 1.4219-0.53349 0-0.89542-0.23895-0.89542-0.23895-4.6171 1.7788-3.5883 6.0023-5.4505 6.8901z" stroke-linecap="square"/>
        <path d="m86.436 177.29c0.08544-1.3146 1.1606-2.2854 1.9976-3.0407-0.37207-0.30455-1.1725-0.37434-1.681-0.0351-0.5228-0.5566-1.3151-0.73031-1.7475 0.0916-0.44097-0.24532-1.2969-0.37603-1.589 0.17824 0.99746 0.623 2.4357 1.4528 3.02 2.806z" stroke-linejoin="round"/>
        <path d="m116.16 173.75c-0.83966 1.2051-5.512 2.3243-5.512 5.29 0 3.6687-2.1218 4.852-2.488 5.1004h6.7878c1.1242-0.0227 4.4503-2.0532 4.4503-5.1762 0-3.2697-2.3985-4.0091-3.2382-5.2141z"/>
        <path d="m116.16 174.96c-0.83966 1.2051-4.3377 1.9276-4.3377 4.8933 0 2.6766-2.1623 4.0383-2.5285 4.2867h3.8778c1.4878-0.0301 5.0622-2.222 5.0622-4.8986 0-2.8334-1.5152-3.2252-2.0738-4.2814z"/>
        <path d="m125.66 173.75c-0.83966 1.2051-5.512 2.3243-5.512 5.29 0 3.6687-2.9707 4.852-3.3369 5.1004h7.2508c1.1242-0.0227 4.4558-2.0532 4.4558-5.1762 0-3.2697-2.3406-4.4142-2.8578-5.2141z"/>
        <path d="m125.66 174.96c-0.83966 1.2051-4.3377 1.9276-4.3377 4.8933 0 2.6766-2.8438 4.0383-3.21 4.2867h4.115c1.4878-0.0301 4.9939-2.222 4.9939-4.8986 0-2.8334-0.84829-3.4569-1.5612-4.2814z"/>
        <path d="m96.275 177.29c0.54433-1.1493 1.9711-2.1326 2.8603-2.6548-0.25632-0.34589-1.4113-0.67618-1.9197-0.33692-0.50926-0.6694-1.6028-0.8119-2.2217 8e-3 -0.44097-0.24532-1.556-0.30287-1.8482 0.2514 0.91477 0.65607 2.545 1.5408 3.1293 2.7328z" stroke-linejoin="round"/>
        <path d="m90.161 173.75c0.83966 1.2051 5.512 2.3243 5.512 5.29 0 3.6687 2.1218 4.852 2.488 5.1004h-6.7878c-1.1242-0.0227-4.4503-2.0532-4.4503-5.1762 0-3.2697 2.3985-4.0091 3.2382-5.2141z"/>
        <path d="m90.161 174.96c0.83966 1.2051 4.3377 1.9276 4.3377 4.8933 0 2.6766 2.1623 4.0383 2.5285 4.2867h-3.8778c-1.4878-0.0301-5.0622-2.222-5.0622-4.8986 0-2.8334 1.5152-3.2252 2.0738-4.2814z"/>
        <path d="m80.661 173.75c0.83966 1.2051 5.5119 2.3243 5.5119 5.29 0 3.6687 2.9707 4.852 3.3369 5.1004h-7.2508c-1.1242-0.0227-4.4558-2.0532-4.4558-5.1762 0-3.2697 2.3406-4.4142 2.8578-5.2141z"/>
        <path d="m80.661 174.96c0.83966 1.2051 4.3377 1.9276 4.3377 4.8933 0 2.6766 2.8438 4.0383 3.21 4.2867h-4.115c-1.4878-0.0301-4.9939-2.222-4.9939-4.8986 0-2.8334 0.84829-3.4569 1.5612-4.2814z"/>
        <path d="m119.89 177.29c-0.0854-1.3146-1.1606-2.2854-1.9976-3.0407 0.37207-0.30455 1.1726-0.37434 1.681-0.0351 0.5228-0.5566 1.315-0.73031 1.7475 0.0916 0.44097-0.24532 1.2969-0.37603 1.589 0.17824-0.99745 0.623-2.4357 1.4528-3.02 2.806z" stroke-linejoin="round"/>
        <path d="m110.05 177.29c-0.54433-1.1493-1.9711-2.1326-2.8603-2.6548 0.25631-0.34589 1.4112-0.67618 1.9197-0.33692 0.50926-0.6694 1.6028-0.8119 2.2217 8e-3 0.44097-0.24532 1.556-0.30287 1.8482 0.2514-0.91478 0.65607-2.545 1.5408-3.1293 2.7328z" stroke-linejoin="round"/>
        <path d="m116.16 194.89c-0.83966-1.2051-5.512-2.3243-5.512-5.29 0-3.6687-2.1218-4.852-2.488-5.1004h6.7878c1.1242 0.0227 4.4503 2.0532 4.4503 5.1762 0 3.2697-2.3985 4.0091-3.2382 5.2141z"/>
        <path d="m116.16 193.68c-0.83966-1.2051-4.3377-1.9276-4.3377-4.8933 0-2.6766-2.1623-4.0383-2.5285-4.2867h3.8778c1.4878 0.0301 5.0622 2.222 5.0622 4.8986 0 2.8334-1.5152 3.2252-2.0738 4.2814z"/>
        <path d="m125.66 194.89c-0.83966-1.2051-5.512-2.3243-5.512-5.29 0-3.6687-2.9707-4.852-3.3369-5.1004h7.2508c1.1242 0.0227 4.4558 2.0532 4.4558 5.1762 0 3.2697-2.3406 4.4142-2.8578 5.2141z"/>
        <path d="m125.66 193.68c-0.83966-1.2051-4.3377-1.9276-4.3377-4.8933 0-2.6766-2.8438-4.0383-3.21-4.2867h4.115c1.4878 0.0301 4.9939 2.222 4.9939 4.8986 0 2.8334-0.84829 3.4569-1.5612 4.2814z"/>
        <path d="m96.275 191.34c0.54433 1.1493 1.9711 2.1326 2.8603 2.6548-0.25632 0.34589-1.4113 0.67618-1.9197 0.33692-0.50926 0.6694-1.6028 0.8119-2.2217-8e-3 -0.44097 0.24532-1.556 0.30287-1.8482-0.2514 0.91477-0.65607 2.545-1.5408 3.1293-2.7328z" stroke-linejoin="round"/>
        <path d="m90.161 194.89c0.83966-1.2051 5.512-2.3243 5.512-5.29 0-3.6687 2.1218-4.852 2.488-5.1004h-6.7878c-1.1242 0.0227-4.4503 2.0532-4.4503 5.1762 0 3.2697 2.3985 4.0091 3.2382 5.2141z"/>
        <path d="m90.161 193.68c0.83966-1.2051 4.3377-1.9276 4.3377-4.8933 0-2.6766 2.1623-4.0383 2.5285-4.2867h-3.8778c-1.4878 0.0301-5.0622 2.222-5.0622 4.8986 0 2.8334 1.5152 3.2252 2.0738 4.2814z"/>
        <path d="m80.661 194.89c0.83966-1.2051 5.5119-2.3243 5.5119-5.29 0-3.6687 2.9707-4.852 3.3369-5.1004h-7.2508c-1.1242 0.0227-4.4558 2.0532-4.4558 5.1762 0 3.2697 2.3406 4.4142 2.8578 5.2141z"/>
        <path d="m80.661 193.68c0.83966-1.2051 4.3377-1.9276 4.3377-4.8933 0-2.6766 2.8438-4.0383 3.21-4.2867h-4.115c-1.4878 0.0301-4.9939 2.222-4.9939 4.8986 0 2.8334 0.84829 3.4569 1.5612 4.2814z"/>
        <path d="m119.89 191.34c-0.0854 1.3146-1.1606 2.2854-1.9976 3.0407 0.37207 0.30455 1.1726 0.37434 1.681 0.0351 0.5228 0.5566 1.315 0.73031 1.7475-0.0916 0.44097 0.24532 1.2969 0.37603 1.589-0.17824-0.99745-0.623-2.4357-1.4528-3.02-2.806z" stroke-linejoin="round"/>
        <path d="m110.05 191.34c-0.54433 1.1493-1.9711 2.1326-2.8603 2.6548 0.25631 0.34589 1.4112 0.67618 1.9197 0.33692 0.50926 0.6694 1.6028 0.8119 2.2217-8e-3 0.44097 0.24532 1.556 0.30287 1.8482-0.2514-0.91478-0.65607-2.545-1.5408-3.1293-2.7328z" stroke-linejoin="round" stroke-miterlimit="4.5"/>
        <path d="m86.436 191.34c0.08544 1.3146 1.1606 2.2854 1.9976 3.0407-0.37207 0.30455-1.1725 0.37434-1.681 0.0351-0.5228 0.5566-1.3151 0.73031-1.7475-0.0916-0.44097 0.24532-1.2969 0.37603-1.589-0.17824 0.99746-0.623 2.4357-1.4528 3.02-2.806z" stroke-linejoin="round"/>
        <path d="m77.276 191.35c0.08544 1.3146 1.2267 2.2771 2.0637 3.0324-0.37207 0.30455-0.94104 0.37434-1.4495 0.0351-0.5228 0.5566-1.3647 0.73031-1.7971-0.0916-0.44097 0.24532-1.1894 0.37603-1.4815-0.17824 0.99746-0.623 2.0802-1.4445 2.6645-2.7977z" stroke-linejoin="round"/>
        <path d="m129.05 191.35c-0.0854 1.3146-1.2267 2.2771-2.0637 3.0324 0.37207 0.30455 0.94104 0.37434 1.4495 0.0351 0.5228 0.5566 1.3647 0.73031 1.7971-0.0916 0.44097 0.24532 1.1894 0.37603 1.4815-0.17824-0.99745-0.623-2.0802-1.4445-2.6645-2.7977z" stroke-linejoin="round"/>
        <path d="m140.28 193.82c-3.9906 2.5001-10.797 0-10.821-4.22-0.0203-3.6687-2.9707-4.852-3.3369-5.1004 4.0659 0.0655 9.4578 2.1612 10.814 3.9029 1.2261 1.6809 1.1192 4.5079 3.3438 5.4174z"/>
        <path d="m138.72 193.72c-4.0607 0.87643-7.542-1.1747-7.8884-3.3848-0.54588-3.2892-1.1615-4.6075-4.7106-5.8446 2.6332-0.26344 6.7846-1.2931 7.2155-2.8385 0.86985 0.60519 0.55929 2.0331-0.0462 2.5231 0.5355 0.38489 0.68519 0.94427 0.68519 1.4658 0 0.62771-0.55166 1.4278-1.6014 1.4278-1.159 0-1.5166-0.63091-1.5166-1.4219 0-0.87341 1.5166-0.92774 1.5166 0.0351 0-0.96595-1.5166-0.90644-1.5166-0.0351 0 0.78952 0.35573 1.4219 1.5166 1.4219 0.53349 0 0.89542-0.23895 0.89542-0.23895 4.6171 1.7788 3.5883 6.0023 5.4504 6.8901z" stroke-linecap="square"/>
      </g>
      <g transform="matrix(2.5582 0 0 2.5582 256.37 -319.88)" fill="#ffc705">
        <g transform="matrix(.14551 0 0 .14551 -72.536 138.64)">
          <g transform="translate(-303.66 -144.55)" fill="#ffc705">
            <path d="m93.59 149.47c-1.7896-2.4318-2.7582-5.3692-2.763-8.3883-4e-3 -7.8384 6.3498-14.196 14.188-14.198 6.2424-8e-4 11.303-5.0616 11.304-11.304-1e-3 -6.2422-5.0618-11.3-11.304-11.3-13.284 0-24.053 10.769-24.053 24.053 0 8.8304 4.8585 16.943 12.629 21.138zm11.425-30.453a3.4361 3.4361 0 0 1-3.4342-3.4377 3.4361 3.4361 0 0 1 3.4342-3.4342 3.4361 3.4361 0 0 1 3.4377 3.4342 3.4361 3.4361 0 0 1-3.4377 3.4377z"/>
            <path transform="matrix(1.8183 0 0 1.8183 145.64 -709.34)" d="m-16.061 449.06c0.98419 1.3374 1.5169 2.9529 1.5195 4.6133 0.0022 4.3109-3.4921 7.8075-7.8027 7.8086-3.4331 4.4e-4 -6.2164 2.7837-6.2168 6.2168 6.05e-4 3.433 2.7838 6.2144 6.2168 6.2148 7.3055 0 13.229-5.9228 13.229-13.229 0-4.8564-2.672-9.3182-6.9453-11.625zm-6.2832 16.748a1.8898 1.8898 0 0 1 1.8887 1.8906 1.8898 1.8898 0 0 1-1.8887 1.8887 1.8898 1.8898 0 0 1-1.8906-1.8887 1.8898 1.8898 0 0 1 1.8906-1.8906z"/>
          </g>
        </g>
        <path d="m-95.512 118.03a5.95 5.95 0 0 1-5.9283 5.5092 5.95 5.95 0 0 1-5.9294-5.4813 6.15 6.15 0 0 0-0.2207 1.6061 6.15 6.15 0 0 0 6.1501 6.15 6.15 6.15 0 0 0 6.15-6.15 6.15 6.15 0 0 0-0.2217-1.634z"/>
        <circle cx="-70.795" cy="118.69" r=".5"/>
        <circle cx="-101.44" cy="117.59" r="4.95"/>
        <path d="m-104.94 140.54v2.15h7v-2.15z"/>
        <path transform="scale(.26458)" d="m-311.96 425.53c-0.34772 4e-5 -0.69559 0.0107-1.043 0.0371-0.49017 0.034-0.97873 0.0942-1.4629 0.17774-0.48416 0.0835-0.9643 0.19073-1.4375 0.32226-0.47395 0.13153-0.9404 0.28687-1.3984 0.46485-0.45774 0.17801-0.90608 0.37876-1.3438 0.60156-0.43842 0.22337-0.86544 0.46837-1.2793 0.73437-0.41311 0.26495-0.81289 0.55058-1.1973 0.85547-0.38513 0.30539-0.75479 0.63023-1.1074 0.97266-0.3515 0.34242-0.68718 0.70225-1.0039 1.0781-0.31748 0.37607-0.61478 0.76787-0.89258 1.1738-0.2759 0.40551-0.53406 0.82465-0.76953 1.2559-0.23433 0.43109-0.44938 0.87373-0.64062 1.3262-0.19276 0.45287-0.35869 0.91501-0.50586 1.3848-0.14362 0.46953-0.2693 0.94599-0.36719 1.4277-0.0983 0.4817-0.16962 0.968-0.21875 1.457-0.0491 0.4887-0.0762 0.97956-0.0762 1.4707l4e-3 41.387h-41.387v66.896h94.299l2e-3 5.8594h-16.064c-1.1483-3.4e-4 -2.0788-0.93171-2.0781-2.0801h-20.033c-8.3179-4e-5 -14.717 6.7306-14.717 14.363h51.943c8.2351 0 15.686-6.6256 15.686-15.686v-3.0234l2e-3 -16.818h-25.836c0.20939-0.60076 0.38678-1.2277 0.51563-1.8906h27.59v21.76c-4e-3 8.0851-7.9105 15.025-15.971 15.658h1.2266c8.5493 4e-5 17.376-7.1091 17.389-15.658v-23.838h-29.992c0.28725-5.1903-3.0053-10.669-7.8027-12.846v-63.5c-4.5e-4 -1.4618 1.1847-2.6469 2.6465-2.6465v18.709c13.065 0 19.577 18.504 6.4238 18.504v13.621h6.2734c-2.3254-1.0855-3.8129-3.4182-3.8164-5.9844 4.9e-4 -3.653 2.9622-6.6138 6.6152-6.6133 3.6522 4.9e-4 6.6128 2.961 6.6133 6.6133-3e-3 2.5658-1.4899 4.8983-3.8144 5.9844h8.3496c0-2.6763 2.3456-5.4805 3.5859-5.4805v-68.031zm42.963 12.221h2e-3c-0.0907 0.41763-0.25197 2.3745 0.33008 2.9453 2.493 1.6865 3.9852 4.4999 3.9863 7.5098 0 3.0072-1.4956 5.817-3.9863 7.502-1.5791-2.1833-2.4318-4.8076-2.4375-7.502 0-2.4789 0.72279-4.8986 2.0664-6.9707-0.43729-0.83157-0.20283-2.8134 0.0391-3.4844zm0.625 0.21484c-0.0412 0.72412 0.0728 1.6029 0.16992 1.8906 0.10469 0.3137 0.41212 0.72703 0.88086 0.9414 2.987 1.2911 6.1236 4.2396 6.127 7.4102-7.5e-4 3.3325-3.6532 6.3182-6.7676 7.5039 2.7757-1.4749 5.2536-4.3606 5.2559-7.5039-7.6e-4 -3.1167-2.4489-5.9832-5.1875-7.4707-0.28498-0.21316-0.44836-0.53658-0.49024-0.90429-0.0431-0.35944-0.14626-1.3718 0.0117-1.8672zm-79.682 43.697c5.0261 7.2055 7.7298 15.775 7.748 24.561-4e-3 9.0173-2.8178 17.559-7.748 24.629zm85.115 8.2773v2e-3a1.7015 1.7015 0 0 1 1.7031 1.7012 1.7015 1.7015 0 0 1-1.7031 1.7012 1.7015 1.7015 0 0 1-0.99804-0.32618v2e-3c-0.24791-0.17658-1.0699 0.0142-1.0586 0.88281-0.91241-1.545 0.0119-3.7718 1.834-3.9434a1.7015 1.7015 0 0 1 0.22265-0.0195zm-43.926 64.471 1.3574 0.0195c-4.8213 0.51198-8.8904 3.8746-10.387 8.4863h-2.6426c1.6376-5.0638 6.3499-8.4964 11.672-8.5039zm-5.2852 2e-3 1.3574 0.0195c-4.8213 0.51201-8.8904 3.8746-10.387 8.4863h-2.6426c1.6376-5.0638 6.3498-8.4969 11.672-8.5039z"/>
        <path d="m-146.49 127.44 7e-3 5.2999c2e-4 1.9551 1.5548 3.5312 3.5099 3.5388l12.883 0.0109c1.842 0 2.9378-1.294 3.2949-2.3497 0.74315-1.9442 1.9421-3.0812 2.899-3.6478-0.39335 0.42006-1.4922 1.6293-1.494 3.6478v6.6001h-5.6002a0.75 0.75 0 0 1-0.74983 0.74983h-10.199c-2.154-1e-5 -3.8505 1.696-3.8504 3.8499h25.6c1.29-1.1561 2.9677-1.7968 4.7-1.7999 1.7328 3e-3 3.4096 0.64345 4.7 1.7999h5.2999v-17.7h-5.2999v13.006c-1.3027-1.8679-2.0471-4.1242-2.05-6.5066 1e-3 -2.3238 0.72369-4.5917 2.05-6.4999zm3.6003 2.3875a2.95 2.95 0 0 1 2.4236 1.2748c0.59726 0.96399 0.3762 1.9166 0.3762 2.2578 1e-5 -1.0217-0.82827-1.85-1.85-1.85-0.88939 0-1.4738 0.36386-1.4738 1.2216 0 0.28755 0.17506 0.62839 0.49455 0.62839 0.22089-2e-5 0.39996-0.17909 0.39997-0.39998 0-0.42365-0.39436-0.46619-0.5364-0.37569v-5.3e-4c0.0848-0.25364 0.18646-0.34416 0.41135-0.34416 0.4695-5e-5 0.85011 0.38058 0.85007 0.85008 4e-5 0.4695-0.38057 0.85012-0.85007 0.85007-0.3412 0-0.54068-0.16677-0.71521-0.39119-0.0976-0.138-0.22876-0.5396-0.39067-0.61702-0.52152-0.23763-0.77765 0.62012-1.0904 0.62012-0.15518 0-0.62773-3e-3 -0.65681-1.0904 0.0162 0.90781 0.32737 1.4087 0.77308 1.4087 0.2691 0 0.31317-0.57361 0.58343-0.57361 0.22121 0 0.31909 0.2075 0.38602 0.42323-3e-5 -1e-3 3e-5 -3e-3 0-4e-3 0.16578 0.85162 0.91476 1.4945 1.8149 1.4945 0.82178 0 1.5174-0.53613 1.7586-1.2774l-1e-3 7e-3c0.17999-0.37674 0.24237-0.89791 0.24237-1.1622a2.95 2.95 0 0 1 2.9502-2.9502 2.95 2.95 0 0 1 2.4236 1.2748c0.59726 0.96399 0.3762 1.9166 0.3762 2.2578 1e-5 -1.0217-0.82827-1.85-1.85-1.85-0.8894 0-1.4738 0.36386-1.4738 1.2216 0 0.28755 0.17505 0.62839 0.49454 0.62839 0.22089-1e-5 0.39996-0.17909 0.39998-0.39998 0-0.42365-0.39436-0.46619-0.53641-0.37569v-5.3e-4c0.0848-0.25364 0.18647-0.34416 0.41135-0.34416 0.4695-5e-5 0.85012 0.38058 0.85007 0.85008 5e-5 0.46951-0.38057 0.85012-0.85007 0.85007-0.3412 0-0.54067-0.16677-0.7152-0.39119-0.0976-0.138-0.22877-0.53959-0.39068-0.61701-0.52152-0.23763-0.77764 0.62011-1.0904 0.62011-0.15518 0-0.62772-3e-3 -0.65681-1.0904 0.0162 0.90781 0.32737 1.4087 0.77308 1.4087 0.26911 0 0.31317-0.57361 0.58343-0.57361 0.22121 0 0.31909 0.2075 0.38602 0.42323-3e-5 -1e-3 4e-5 -3e-3 0-4e-3 0.16579 0.85162 0.91476 1.4945 1.8149 1.4945 0.82177 1e-5 1.5174-0.53613 1.7586-1.2774l-1e-3 7e-3c0.17998-0.37674 0.24236-0.8979 0.24236-1.1622a2.95 2.95 0 0 1 2.9502-2.9502 2.95 2.95 0 0 1 2.434 1.2924c0.58378 0.95798 0.36587 1.9011 0.36587 2.2402 1e-5 -1.0217-0.82828-1.85-1.85-1.85-0.8894 0-1.4738 0.36386-1.4738 1.2216 0 0.28755 0.17506 0.62839 0.49454 0.62839 0.2209-1e-5 0.39997-0.17909 0.39998-0.39998 0-0.42365-0.39436-0.46619-0.5364-0.37568v-5.3e-4c0.0848-0.25364 0.18646-0.34417 0.41134-0.34417 0.46951-5e-5 0.85012 0.38058 0.85008 0.85008 4e-5 0.46951-0.38057 0.85013-0.85008 0.85008-0.3412 0-0.54067-0.16678-0.7152-0.3912-0.0976-0.13799-0.22876-0.53959-0.39068-0.61701-0.52152-0.23763-0.77764 0.62011-1.0904 0.62011-0.15517 0-0.62772-3e-3 -0.6568-1.0904 0.0162 0.90781 0.32736 1.4087 0.77307 1.4087 0.26911 0 0.31317-0.57361 0.58343-0.57361 0.22121 0 0.31909 0.2075 0.38603 0.42323-4e-5 -1e-3 3e-5 -3e-3 0-4e-3 0.16578 0.85162 0.91476 1.4945 1.8149 1.4945 0.82177 1e-5 1.5174-0.53613 1.7586-1.2774l-1e-3 7e-3c0.0957-0.2424 0.57397-0.0625 0.51883 0.16433a2.34 2.34 0 0 1-2.2262 1.6232h-12.8a2.95 2.95 0 0 1-2.9502-2.9497 2.95 2.95 0 0 1 2.9502-2.9502zm1.0775 12.362 0.35915 5e-3c-1.2756 0.13547-2.3523 1.0252-2.7482 2.2453h-0.69919c0.43327-1.3398 1.6801-2.248 3.0882-2.25zm1.3984 0 0.35915 5e-3c-1.2756 0.13546-2.3522 1.0252-2.7482 2.2453h-0.69918c0.43327-1.3398 1.6801-2.248 3.0882-2.25z"/>
        <path d="m-104.94 129.89v2.15h7v-2.15z"/>
        <path d="m-71.934 103.93c-0.43522 1.8182 2.4438 1.9019 2.4438 2.8763 0 1.1408-1.3311 1.5494-1.7787 1.9647-0.40839 0.38335-0.66462 0.92594-0.66507 1.5281-7e-5 1.1599 0.94023 2.1002 2.1001 2.1001 1.1599 7e-5 2.1002-0.94023 2.1001-2.1001 0-1.8179-1.6727-2.5843-2.4882-1.5637-5.3e-4 5.3e-4 -5.3e-4 1e-3 -1e-3 2e-3 -0.0717 0.0887-0.11086 0.19916-0.11111 0.31316-1.2e-4 0.27632 0.22391 0.50035 0.50023 0.50023 0.27612-1.6e-4 0.49984-0.22411 0.49971-0.50023 5e-5 -0.065-0.0126-0.12946-0.0372-0.18965 0.2213-0.12912 0.61236 0.15997 0.61236 0.57552-5.9e-5 0.50312-0.48126 0.9132-1.0749 0.91327-0.59361-7e-5 -1.0748-0.48126-1.0749-1.0749 0-0.34099 0.35684-0.7754 0.99839-1.0723 0.36877-0.16406 1.1007-0.39361 1.1007-1.3956 0-1.1702-3.2521-1.2033-3.1243-2.8765z"/>
        <path d="m-88.533 123.08c-0.8894 0-1.4738 0.36386-1.4738 1.2216 0 0.28755 0.17506 0.62838 0.49454 0.62838 0.2209-1e-5 0.39996-0.17908 0.39998-0.39997 0-0.42365-0.39436-0.46619-0.5364-0.37569v-5.3e-4c0.0848-0.25364 0.18646-0.34416 0.41134-0.34416 0.4695-5e-5 0.85012 0.38057 0.85008 0.85007 4e-5 0.46951-0.38058 0.85013-0.85008 0.85008-0.3412 0-0.54067-0.16677-0.7152-0.39119-0.0976-0.138-0.2287-0.53948-0.39061-0.6169-0.52153-0.23763-0.77771 0.62-1.0904 0.62-0.15517 0-0.62772-3e-3 -0.65681-1.0904 0.0162 0.90781 0.32737 1.4087 0.77309 1.4087 0.2691 0 0.31316-0.57361 0.58342-0.57361 0.22122 0 0.31909 0.2075 0.38602 0.42323-3e-5 -1e-3 4e-5 -3e-3 0-4e-3 0.16579 0.85162 0.91477 1.4945 1.8149 1.4945 1.0217 1e-5 1.85-0.82829 1.85-1.85 1e-5 -1.0217-0.82828-1.85-1.85-1.85z"/>
        <path d="m-88.533 112.64c-0.8894 0-1.4738 0.36386-1.4738 1.2216 0 0.28755 0.17506 0.62838 0.49454 0.62838 0.2209-1e-5 0.39996-0.17908 0.39998-0.39997 0-0.42365-0.39436-0.46619-0.5364-0.37569v-5.3e-4c0.0848-0.25364 0.18646-0.34416 0.41134-0.34416 0.4695-5e-5 0.85012 0.38057 0.85008 0.85007 4e-5 0.46951-0.38058 0.85013-0.85008 0.85008-0.3412 0-0.54067-0.16677-0.7152-0.39119-0.0976-0.138-0.2287-0.53948-0.39061-0.6169-0.52153-0.23763-0.77771 0.62-1.0904 0.62-0.15517 0-0.62772-3e-3 -0.65681-1.0904 0.0162 0.90781 0.32737 1.4087 0.77309 1.4087 0.2691 0 0.31316-0.57361 0.58342-0.57361 0.22122 0 0.31909 0.2075 0.38602 0.42323-3e-5 -1e-3 4e-5 -3e-3 0-4e-3 0.16579 0.85162 0.91477 1.4945 1.8149 1.4945 1.0217 1e-5 1.85-0.82828 1.85-1.85 1e-5 -1.0217-0.82828-1.85-1.85-1.85z"/>
        <path d="m-88.533 117.86c-0.8894 0-1.4738 0.36386-1.4738 1.2216 0 0.28755 0.17506 0.62838 0.49454 0.62838 0.2209-1e-5 0.39996-0.17908 0.39998-0.39997 0-0.42365-0.39436-0.46619-0.5364-0.37569v-5.3e-4c0.0848-0.25364 0.18646-0.34416 0.41134-0.34416 0.4695-5e-5 0.85012 0.38057 0.85008 0.85007 4e-5 0.46951-0.38058 0.85013-0.85008 0.85008-0.3412 0-0.54067-0.16677-0.7152-0.39119-0.0976-0.138-0.2287-0.53948-0.39061-0.6169-0.52153-0.23763-0.77771 0.62-1.0904 0.62-0.15517 0-0.62772-3e-3 -0.65681-1.0904 0.0162 0.90781 0.32737 1.4087 0.77309 1.4087 0.2691 0 0.31316-0.57361 0.58342-0.57361 0.22122 0 0.31909 0.2075 0.38602 0.42323-3e-5 -1e-3 4e-5 -3e-3 0-4e-3 0.16579 0.85162 0.91477 1.4945 1.8149 1.4945 1.0217 1e-5 1.85-0.82828 1.85-1.85 1e-5 -1.0217-0.82828-1.85-1.85-1.85z"/>
        <path d="m-104.94 127.44 3.5 1.9766 3.5-1.9766h-3.5z"/>
        <path d="m-104.94 143.16 3.5 1.9766 3.5001-1.9766h-3.5001z"/>
        <path d="m-136.32 105.14c1.2536 1.8691 2.6212 3.9079 3.9067 5.8244l5.3e-4 1e-3c0.30798 0.45796 0.92873 0.57984 1.387 0.27233l1.0981-0.73638c0.45804-0.30725 1.0784-0.18564 1.3865 0.27181l1e-3 2e-3 8.3452 12.443c0-1.5349 2.162-3.1927 3.5424-2.3957 3.3418 1.8876 6.6839 3.7751 10.026 5.6627h5.1816c-5.463 0-8.3884-2.6358-8.846-3.421l-6.2673-9.6681c-6.5871-2.7517-13.174-5.5036-19.762-8.2553z"/>
        <path d="m-123.59 119.84c-0.8894 0-1.4738 0.36386-1.4738 1.2216 0 0.28755 0.17506 0.62838 0.49454 0.62838 0.2209-1e-5 0.39996-0.17908 0.39998-0.39997 0-0.42365-0.39436-0.46619-0.5364-0.37569v-5.3e-4c0.0848-0.25364 0.18646-0.34416 0.41134-0.34416 0.4695-5e-5 0.85012 0.38057 0.85008 0.85007 4e-5 0.46951-0.38058 0.85013-0.85008 0.85008-0.3412 0-0.5658-0.16695-0.7152-0.39119-0.21542-0.31577-0.2163-0.65757-0.37821-0.79345-0.48188-0.36968-0.74858 0.49181-1.0238 0.0151l-2.1553-3.2134c-0.95739 0.0382-1.6773 0.21238-2.1436-0.95962 0.18027 1.5706 1.1147 1.8082 2.1369 1.6951l2.0484 3.0541c0.51965 0.77473 1.1374-1.2298 1.1374 0.40253 0 0.6997 0.85056 1.4612 1.7978 1.4612 1.0217 2e-5 1.85-0.82827 1.85-1.85 1e-5 -1.0218-0.82828-1.85-1.85-1.85z"/>
        <path d="m-126.58 115.39c-0.8894 0-1.4738 0.36386-1.4738 1.2216 0 0.28755 0.17506 0.62838 0.49454 0.62838 0.2209-1e-5 0.39996-0.17908 0.39998-0.39997 0-0.42365-0.39437-0.46619-0.5364-0.37569v-5.3e-4c0.0848-0.25364 0.18646-0.34416 0.41134-0.34416 0.4695-5e-5 0.85012 0.38057 0.85008 0.85007 4e-5 0.46951-0.38058 0.85013-0.85008 0.85008-0.3412 0-0.5658-0.16695-0.7152-0.39119-0.21543-0.31577-0.2163-0.65757-0.37821-0.79345-0.48189-0.36968-0.74859 0.49181-1.0238 0.0151l-2.1553-3.2134c-0.9574 0.0382-1.6773 0.21238-2.1436-0.95961 0.18026 1.5706 1.1147 1.8082 2.1369 1.6951l2.0484 3.0541c0.51964 0.77472 1.1374-1.2298 1.1374 0.40252 0 0.69971 0.85055 1.4612 1.7978 1.4612 1.0217 1e-5 1.85-0.82828 1.85-1.85 1e-5 -1.0217-0.82828-1.85-1.85-1.85z"/>
        <path d="m-129.57 110.93c-0.8894 0-1.4738 0.36386-1.4738 1.2216 0 0.28755 0.17506 0.62838 0.49454 0.62838 0.2209-1e-5 0.39996-0.17908 0.39998-0.39997 0-0.42365-0.39436-0.46619-0.5364-0.37569v-5.3e-4c0.0848-0.25364 0.18646-0.34416 0.41134-0.34416 0.4695-5e-5 0.85012 0.38057 0.85008 0.85007 4e-5 0.46951-0.38058 0.85013-0.85008 0.85008-0.3412 0-0.5658-0.16695-0.7152-0.39119-0.21542-0.31577-0.2163-0.65757-0.37821-0.79345-0.48188-0.36968-0.74858 0.49181-1.0238 0.0151l-5.0385-7.5122c-0.9574 0.0382-1.6773 0.21238-2.1436-0.9596 0.18027 1.5706 1.1147 1.8082 2.1369 1.695l4.9317 7.3529c0.51965 0.77472 1.1374-1.2298 1.1374 0.40252 0 0.69971 0.85056 1.4612 1.7978 1.4612 1.0217 1e-5 1.85-0.82828 1.85-1.85 1e-5 -1.0217-0.82828-1.85-1.85-1.85z"/>
        <path d="m-135.42 102.75c0.18027 1.5706 1.1147 1.8082 2.1368 1.695l0.83458 1.2444 0.69505 0.29093 15.661 7.0941 6.5221 10.009c0.38897 0.60498 3.1059 3.4055 8.1313 3.4055-4.138 0-7.2443-2.574-7.7572-3.4055l-6.2926-10.17-17.197-8.324-0.58963-0.87902c-0.95739 0.0382-1.6772 0.21235-2.1435-0.95963z"/>
        <path d="m-101.01 98.098c-0.45894 0.38045-0.83608 1.0706-0.90331 1.5622-0.0364 0.34656 0.19431 1.0394 0.031 1.373-0.3677 0.67146-0.99012 0.66997-0.99012 1.4883 0 1.2488 1.0067 3.2165 1.0067 3.9026 0 0.79446-0.93156 1.1837-1.4283 0.7338-0.5003-0.47403 0.23564-1.5325 0.23564-2.3166 0-0.65961-1.1637-1.0733-0.49144-1.9958-0.645 0.37057-0.98018 0.92755-0.70745 1.4594 0.16379 0.31518 0.368 0.82983-0.0434 1.0154-0.46045 0.16762-0.73487-0.36761-0.63717-1.1219-1.2439 1.9638-0.5086 4.3176 0.94827 5.4317 0.2913 1.2253 1.3952 2.0087 2.5518 2.0087s2.2605-0.78335 2.5518-2.0087c1.4569-1.1141 2.1922-3.4679 0.94826-5.4317 0.0977 0.75429-0.17672 1.2895-0.63717 1.1219-0.41141-0.18561-0.2072-0.70026-0.0434-1.0154 0.27273-0.5318-0.0624-1.0888-0.70745-1.4594 0.6723 0.92247-0.49144 1.3361-0.49144 1.9958 0 0.78418 0.73594 1.8426 0.23564 2.3166-0.49678 0.44992-1.4283 0.0607-1.4283-0.7338 0-0.67935 1.2092-2.6452 1.2092-3.8215 0-1.2351-0.80421-2.2583-1.4082-2.9755-0.24935-0.32838-0.28835-0.92595 0.19896-1.5291z"/>
        <path d="m-111.5 145.14c-2.226-1.8563-6.124-1.8885-8.5721 0.49972l-25.718 2.7e-4v0.55h25.815c2.3808-2.4197 5.7088-2.8749 8.4755-1.05z"/>
      </g>
    </g>
</svg>
