<?xml version="1.0" encoding="UTF-8" standalone="no"?>
<svg
   xmlns:dc="http://purl.org/dc/elements/1.1/"
   xmlns:cc="http://creativecommons.org/ns#"
   xmlns:rdf="http://www.w3.org/1999/02/22-rdf-syntax-ns#"
   xmlns:svg="http://www.w3.org/2000/svg"
   xmlns="http://www.w3.org/2000/svg"
   xmlns:sodipodi="http://sodipodi.sourceforge.net/DTD/sodipodi-0.dtd"
   xmlns:inkscape="http://www.inkscape.org/namespaces/inkscape"
   height="601"
   width="601"
   overflow="visible"
   version="1.1"
   id="svg98"
   sodipodi:docname="Coat_of_arms_of_Mali.svg"
   inkscape:version="1.0beta2 (2b71d25, 2019-12-03)">
  <metadata
     id="metadata104">
    <rdf:RDF>
      <cc:Work
         rdf:about="">
        <dc:format>image/svg+xml</dc:format>
        <dc:type
           rdf:resource="http://purl.org/dc/dcmitype/StillImage" />
      </cc:Work>
    </rdf:RDF>
  </metadata>
  <defs
     id="defs102" />
  <sodipodi:namedview
     pagecolor="#ffffff"
     bordercolor="#666666"
     inkscape:document-rotation="0"
     borderopacity="1"
     objecttolerance="10"
     gridtolerance="10"
     guidetolerance="10"
     inkscape:pageopacity="0"
     inkscape:pageshadow="2"
     inkscape:window-width="2560"
     inkscape:window-height="1395"
     id="namedview100"
     showgrid="false"
     inkscape:zoom="1.7119684"
     inkscape:cx="385.91781"
     inkscape:cy="384.66743"
     inkscape:window-x="0"
     inkscape:window-y="23"
     inkscape:window-maximized="0"
     inkscape:current-layer="g96" />
  <g
     clip-rule="evenodd"
     fill-rule="evenodd"
     id="g96">
    <path
       d="m 303.07813,-268.60937 c -165.64509,0 -300,134.34215 -300,300 0.012389,165.63598 134.35491,300 300,300 165.6542,0 300,-134.36402 300,-300 0,-165.66514 -134.3458,-300 -300,-300 z"
       fill="#68b0e5"
       transform="translate(-2.578 269.11)"
       id="path76" />
    <path
       d="M103.26038 180.72l61.64296 52.58227-21.54306-33.03245 28.7253 28.0038-35.18785-58.88632 47.38963 50.97893-19.38219-40.21104 28.00015 34.47181-21.77628-51.25223 1.76185 2.14994 4.23975 4.90112 4.31444 4.71892 2.35035 2.42323 23.48529 31.31979-5.1562-13.75593 1.80376 1.63978 4.60961 4.08123 4.6096 4.04479 4.62782 4.04479 4.62783 4.04479 4.6096 4.06301.94743.85633c-21.0074 7.25147-38.73525 17.21769-50.74937 28.86013-28.85466-16.92617-54.01435-39.4276-73.9486-66.08313zM207.11674 179.31708l-18.51129-51.58019 45.95028 71.09357-12.91783-43.08977 22.97514 38.77168-17.94648-77.54337 30.88252 73.2435-5.02866-46.67906 15.76011 40.7212 2.69653 23.39419c-9.96622 1.42114-19.64092 3.42532-28.84191 5.90321l-2.82406-3.02449-4.53673-4.66426-4.57316-4.55494-4.6096-4.46385-4.62783-4.40918-4.6096-4.37275-4.6096-4.33631-4.57317-4.3363zM269.79277 184.25464l.67413-77.34295 14.37541 81.15088.71057-52.43652 11.49668 51.70773 5.73923-98.386792 5.73923 98.386792 11.49668-51.70773.71057 52.43652 14.3754-81.15088.65591 74.13627-2.93338 25.39836c-14.10211-1.49402-28.29531-1.71265-42.12412-.83811-6.15829.40084-12.26191 1.02031-18.238 1.8402zM336.73223 185.73044l16.32492-42.197-5.02866 46.67906 30.88252-73.2435-17.94648 77.54337 22.97514-38.77168-12.93604 43.08977 45.96849-71.09357-18.52951 51.63485v.0182l-4.57316 4.3363-4.60961 4.33631-4.62782 4.37275-4.6096 4.40918-4.60961 4.46385-4.57316 4.55494-4.53672 4.66426-1.54868 1.67622c-10.00266-2.5872-20.20574-4.4274-30.44525-5.57525zM403.43483 195.1865l-5.13798 13.70127 23.35776-31.15581 2.51433-2.58721 4.31808-4.71892 4.22699-4.90112 1.69444-2.05884-21.75441 51.16113 28.02201-34.47181-19.40406 40.21104 47.40786-50.97893-35.20061 58.88632 28.73259-28.02202-21.53578 33.05067 60.48966-51.5984c-19.03967 25.19795-42.76182 46.66084-69.87284 63.09508-15.55969-12.6263-33.30575-21.90017-52.07212-28.29531l3.99013-3.53464 4.62782-4.02657 4.62782-4.04479 4.60961-4.04479 4.6096-4.08123z"
       fill="#f8a500"
       transform="translate(-2.578 269.11)"
       id="path78" />
    <path
       d="M 87.073927,-70.931547 C 118.23339,-9.3122639 86.035399,63.749038 155.62219,107.71336 178.12544,179.04378 251.51834,197.3911 279.2124,274.93446 239.40219,208.81489 177.77926,193.58316 144.19657,117.0601 75.302129,69.980201 107.15394,8.3609189 87.073927,-70.931547 Z m 431.462513,0 c -31.15581,61.6192831 1.03853,134.680585 -68.54279,178.644907 -22.50143,71.3122 -95.89069,89.65952 -123.60297,167.2211 C 366.21912,208.79668 427.8384,193.56494 461.41745,117.0601 530.30642,69.980201 498.45825,8.3426991 518.53644,-70.931547 Z M 364.88907,41.174736 c 1.98596,1.58512 3.99013,3.170241 5.97609,4.755361 -2.1135,2.951604 -4.24521,5.903208 -6.3587,8.873031 -3.07915,-1.785538 -6.14007,-3.589296 -9.21921,-5.374834 1.89486,-2.933384 5.37483,-5.648131 9.60182,-8.253558 z m 129.01424,81.843234 c -2.14994,3.42532 -4.28165,6.86886 -6.43159,10.29417 8.49042,4.90112 16.98084,9.78402 25.47125,14.68514 -0.92921,-10.23951 -6.15828,-18.94856 -19.03966,-24.97931 z m -13.50615,23.04022 c 1.91307,-3.57108 4.02662,-7.48583 5.9397,-11.0569 8.47219,4.91934 17.46254,10.18887 25.93474,15.10821 -11.79149,6.10412 -20.21379,4.45482 -31.87444,-4.05131 z M 351.49754,63.202445 c 2.31391,1.056747 4.64604,2.113494 6.95995,3.170241 1.658,-3.24312 3.33422,-6.468021 4.99222,-9.711141 -2.98804,-1.913076 -5.97609,-3.844373 -8.98235,-5.757449 -1.7491,3.024483 -2.56899,7.360789 -2.96982,12.298349 z M 240.77596,41.192955 c -2.00418,1.566901 -3.99013,3.152022 -5.99431,4.737142 2.13171,2.951604 4.24521,5.921427 6.3587,8.873031 3.07914,-1.785538 6.15829,-3.589296 9.23743,-5.374834 -1.89486,-2.933384 -5.39305,-5.648131 -9.60182,-8.235339 z M 111.85,122.8305 c 2.14082,3.44354 4.42407,7.13444 6.56671,10.57797 -8.48313,4.86468 -17.29018,9.81269 -25.778769,14.69559 1.00862,-14.48083 9.383509,-21.51712 19.212059,-25.27356 z m 13.295,23.27716 c -1.91126,-3.57108 -4.0394,-7.42336 -5.95065,-10.99443 -8.46855,4.91934 -17.15977,10.0613 -25.631963,14.98064 9.330353,4.29986 19.932883,4.17625 31.582613,-3.98621 z M 254.18571,63.184225 c -2.33213,1.056747 -4.64604,2.113494 -6.95995,3.170241 -1.658,-3.2249 -3.33422,-6.46802 -5.01044,-9.711141 3.00626,-1.913076 5.99431,-3.826153 9.00057,-5.757449 1.7491,3.024483 2.56899,7.36079 2.96982,12.298349 z"
       fill="#fff"
       transform="translate(-2.578,269.11)"
       id="path80"
       inkscape:connector-curvature="0"
       sodipodi:nodetypes="cccccccccccccccccccccccccccccccccccccccccccccc" />
    <path
       d="M101.59259 201.48031l2.09528 2.6783-11.700744 9.12811c-2.031505 1.60334-3.827975 2.62365-5.387588 3.09736-1.559613.47372-3.177529.40084-4.866502-.21864-1.692617-.60125-3.295957-1.89485-4.820953-3.84437-1.481267-1.89485-2.370393-3.69861-2.654621-5.41127-.293338-1.71266-.02004-3.316.818068-4.81002.834466-1.4758 2.323021-3.06092 4.469311-4.73714l11.698918-9.12811 2.09163 2.67831-11.686164 9.1281c-1.758208 1.36649-2.926096 2.55077-3.501841 3.51642-.579389.98387-.779806 2.04061-.612184 3.18846.169444 1.14785.705105 2.31391 1.60334 3.46176 1.539571 1.96773 3.084608 3.02448 4.635111 3.17024 1.543215.12754 3.585652-.78345 6.127311-2.76941zm-14.918351 22.77472l18.482141-17.85539 2.42323 2.51433-5.13615 23.72215 14.51023-14.01101 2.26471 2.33214-18.48214 17.85538-2.423228-2.51433 5.148908-23.72215-14.522983 14.01101zm25.675311 25.32548l16.85511-19.38584 7.31342 6.3587c1.28814 1.11141 2.21735 2.04062 2.78763 2.75119.81442.98387 1.35008 1.96774 1.6088 2.98804.2569 1.00209.22957 2.07706-.0729 3.20668-.30609 1.14785-.87637 2.2046-1.71266 3.17025-1.43389 1.63978-3.17388 2.5872-5.2145 2.82406-2.04061.21864-4.43469-.85633-7.17494-3.24312l-4.974-4.31809-6.85246 7.87095zm11.40558-7.94382l5.01408 4.37275c1.658 1.43936 3.10283 2.14993 4.33448 2.13171 1.23348-.0182 2.33396-.56481 3.30689-1.69444.70693-.81989 1.10777-1.67622 1.20069-2.62365.0911-.9292-.11661-1.78553-.62859-2.55076-.33706-.49194-1.07861-1.23895-2.24285-2.24104l-4.96124-4.31808zm7.05652 23.50351l14.36629-21.29892 15.39935 10.4035-1.69626 2.51433-12.58257-8.49042-4.39826 6.52268 11.78273 7.94382-1.68533 2.49611-11.78455-7.94382-4.89019 7.25147 13.07816 8.81837-1.69626 2.51433zm46.54241-.54659l2.97712 1.658-7.19864 12.9907c-1.2517 2.24103-2.50157 3.89903-3.75145 4.95578-1.24988 1.03853-2.76758 1.60334-4.56223 1.69444-1.79829.0911-3.77514-.4555-5.94147-1.658-2.10438-1.16607-3.6312-2.47789-4.56223-3.95369-.94014-1.45759-1.31365-3.04271-1.12052-4.73714.18767-1.69444.94196-3.73506 2.2629-6.10363l7.19863-12.9907 2.97165 1.63978-7.18953 12.97248c-1.08225 1.94952-1.69626 3.4982-1.84748 4.6096-.15123 1.12963.082 2.18638.68324 3.18846.60672.98387 1.5505 1.8402 2.82589 2.55077 2.18637 1.20251 4.0211 1.5669 5.50419 1.09319 1.47398-.47371 2.99715-2.11349 4.55859-4.93756l7.18952-12.97248zm-4.4438 26.74663l11.25982-23.10268 8.70906 4.24521c1.54868.74701 2.6783 1.40293 3.40709 1.9313 1.03853.74701 1.82198 1.5669 2.33214 2.47789.51015.89277.76523 1.94951.76523 3.1338 0 1.18429-.2733 2.35035-.83811 3.47998-.96565 1.96773-2.38679 3.33422-4.29987 4.08123-1.91308.74701-4.51851.32795-7.77985-1.25717l-5.92324-2.89694-4.57681 9.38318zm8.96413-10.64035l5.97609 2.91517c1.96773.96564 3.55285 1.2936 4.73714.96564 1.18428-.34617 2.11349-1.16606 2.75119-2.49611.47371-.98386.63769-1.93129.49193-2.84228-.16398-.92921-.58303-1.69444-1.27538-2.31391-.43728-.38262-1.34827-.91099-2.75119-1.58512l-5.90321-2.87873zm12.79028 20.40615l9.20099-23.97722 3.18846 1.22072-8.12602 21.15316 11.80642 4.53672-1.07497 2.82407zm18.82103 7.34257l6.65022-24.83355 17.94648 4.81002-.80167 2.93338-14.6487-3.91725-2.04061 7.59765 13.73771 3.66217-.78345 2.91516-13.73772-3.68039-2.25925 8.45398 15.23174 4.08123-.78345 2.93338zm32.41298.43728l.49194-3.13381 9.5836 1.51225-.49193 3.1338zm40.61188-12.88139l3.38888.23686-1.0203 14.81268c-.1822 2.56899-.61948 4.59138-1.31183 6.0854-.69235 1.45759-1.82198 2.62365-3.42532 3.46176-1.58512.85633-3.60751 1.18429-6.0854 1.00209-2.38679-.16398-4.33631-.71057-5.79389-1.63978-1.4758-.92921-2.47789-2.20459-3.02448-3.82615-.5466-1.62156-.71057-3.7715-.52838-6.48624l1.03853-14.81268 3.38888.23686-1.03853 14.79445c-.14576 2.22282-.0547 3.88082.2733 4.95578.34617 1.09319 1.00209 1.94952 1.96773 2.58721.96565.65591 2.18638 1.02031 3.64396 1.11141 2.49611.18219 4.29987-.25508 5.44771-1.31183 1.12963-1.05674 1.82198-3.18846 2.04062-6.41336zm7.28792 26.36402l-.4555-25.68988 3.47998-.0547 13.84703 19.93243-.34618-20.16929 3.26134-.0547.4555 25.68988-3.4982.0547-13.84703-19.95065.3644 20.18751zm35.76542-1.2936l-2.67831-25.56235 9.5836-1.00209c1.94952-.20042 3.53464-.10932 4.77358.2733 1.23895.40083 2.24103 1.1114 3.02449 2.11349.78345 1.00209 1.23894 2.07706 1.36648 3.26134.10932 1.09319-.0729 2.14994-.58303 3.17024-.47372 1.03853-1.29361 1.89486-2.42323 2.62365 1.58512.29152 2.8605.94743 3.80793 1.9313.94743 1.02031 1.49402 2.25925 1.63978 3.75327.12754 1.20251 0 2.33213-.40084 3.42532-.40083 1.07497-.94743 1.9313-1.62156 2.56899-.69235.63769-1.58512 1.14784-2.6783 1.54868-1.07497.40083-2.44145.69235-4.06301.87455zm1.82197-15.17708l5.53882-.58303c1.49402-.14576 2.55076-.3644 3.18846-.63769.81989-.32796 1.43936-.83811 1.80375-1.4758.3644-.6377.51016-1.40293.41906-2.2957-.0911-.83811-.3644-1.5669-.83811-2.16815-.47372-.60125-1.11141-.98387-1.89486-1.14785-.76523-.16397-2.07705-.14575-3.91725.0547l-5.10154.52838zm1.23895 11.80642l6.3587-.67413c1.11141-.10932 1.85842-.23686 2.29569-.3644.76523-.21864 1.3847-.52837 1.87664-.91099.49193-.36439.87455-.89277 1.14784-1.54868.2733-.65591.3644-1.3847.2733-2.20459-.0911-.94743-.41905-1.7491-.98387-2.40501-.56481-.65592-1.2936-1.07497-2.20459-1.27539-.87455-.1822-2.14993-.20042-3.77149-.0182l-5.90321.61947zm31.75707-28.44107l3.33422-.71057 3.09736 14.52116c.52837 2.53255.67413 4.59138.40083 6.19472-.25507 1.62156-1.0203 3.0427-2.31391 4.28165-1.2936 1.25716-3.15202 2.13171-5.57525 2.64187-2.35035.51015-4.37275.51015-6.03075.0182-1.67621-.49194-2.98804-1.43937-3.95369-2.84229-.98386-1.40292-1.73088-3.42532-2.31391-6.08541l-3.07914-14.52116 3.33422-.71057 3.07914 14.50294c.4555 2.18638 1.00209 3.75328 1.62156 4.68249.63769.96564 1.49402 1.60334 2.60543 1.94951 1.11141.3644 2.38679.38262 3.80793.0729 2.44145-.51015 4.06301-1.43936 4.8829-2.7694.78345-1.33005.85633-3.57108.1822-6.7231zm20.60656 21.0985l-6.61377-21.66332-8.08958 2.47789-.89277-2.89694 19.47694-5.95787.87455 2.89695-8.12602 2.47789 6.63199 21.68153zm18.6024-14.50294l-1.23895-2.91517 8.90947-3.78971 1.23895 2.91516zm27.16568-33.05068l2.96983-1.658 7.19681 12.9907c1.25716 2.24103 1.98595 4.19055 2.22281 5.79389.21864 1.62156-.10932 3.20668-.98387 4.77358-.87455 1.58512-2.38679 2.96983-4.55494 4.17233-2.09528 1.16607-4.02657 1.7491-5.75745 1.76732-1.7491.0182-3.27956-.51015-4.62782-1.5669-1.33005-1.05675-2.64187-2.76941-3.97192-5.13798l-7.19681-12.9907 2.96983-1.658 7.19681 12.97248c1.07496 1.94952 2.05883 3.29778 2.93338 4.00835.87455.72879 1.89486 1.09319 3.0427 1.11141 1.16607.0182 2.38679-.34618 3.66218-1.03853 2.18637-1.22072 3.47998-2.58721 3.86259-4.09945.3644-1.49402-.21864-3.66217-1.78554-6.48624zm20.29683 17.9647l-13.62839-21.79085 2.96982-1.8402 22.13703 9.948-10.69501-17.10837 2.76941-1.73088 13.61017 21.79085-2.9516 1.85842-22.15525-9.96622 10.71323 17.10837zm21.554-14.61226l-15.45037-20.51547 14.8309-11.18694 1.82197 2.42323-12.11615 9.12811 4.73714 6.28582 11.35092-8.54507 1.80376 2.40501-11.35092 8.54507 5.26552 6.97818 12.60808-9.49251 1.82198 2.42323zm25.90852-21.82729l-17.52743-18.80281 12.68097-11.82463 2.05883 2.22281-10.18485 9.4925 5.42949 5.83033 8.81837-8.21712 2.05884 2.20459-8.80015 8.23534 7.94382 8.52686zm5.17442-23.10268c-3.17025-2.84228-4.90112-5.93964-5.1562-9.25564-.25508-3.316.81989-6.32227 3.24312-9.00057 1.58512-1.76732 3.44354-2.98805 5.55703-3.64396 2.11349-.63769 4.26343-.67413 6.4498-.0547 2.16815.60126 4.20877 1.78554 6.12185 3.4982 1.93129 1.7491 3.316 3.69861 4.13589 5.84855.81989 2.16815.98386 4.29986.49193 6.4498-.51015 2.14993-1.51224 4.04479-3.00626 5.70279-1.62156 1.80376-3.4982 3.00626-5.64813 3.64395-2.13172.6377-4.28165.6377-6.44981.0182-2.14993-.61947-4.06301-1.69444-5.73922-3.20668zm2.38679-2.56899c2.29569 2.07706 4.66426 3.07915 7.10571 3.04271 2.44145-.0364 4.50028-1.00209 6.1765-2.86051 1.71266-1.91307 2.45967-4.08123 2.22282-6.50446-.23686-2.44145-1.58512-4.75536-4.04479-6.97817-1.54869-1.40292-3.13381-2.35035-4.77359-2.86051-1.62156-.52837-3.2249-.56481-4.77358-.12754-1.54868.43728-2.87872 1.27539-4.02657 2.53255-1.60334 1.80376-2.36857 3.88082-2.31391 6.28583.0729 2.38679 1.54868 4.8829 4.42741 7.4701zm26.03606-11.58777l-20.24218-15.81477 2.09528-2.67831 20.24217 15.81477zM294.25397-253.44746l-.51015 14.86005c-.10932 2.72021.12753 4.8993.72879 6.48988.60125 1.59059 1.63978 2.81678 3.1338 3.70226 1.49402.87819 3.46176 1.33915 5.86677 1.42297 2.45967.0838 4.48206-.29699 6.03074-1.19522 1.5669-.89641 2.67831-2.09163 3.29778-3.58748.65591-1.5013 1.00209-3.56561 1.09319-6.14917l.51015-14.80357-3.35244-.11478-.52837 14.80357c-.10932 3.21943-.71057 5.39669-1.82198 6.4917-1.09318 1.09501-2.89694 1.56326-5.39305 1.47945-1.4758-.0547-2.71475-.36258-3.71684-.96747-.98386-.61036-1.658-1.4339-2.04061-2.50522-.38262-1.07132-.52837-2.72204-.4555-4.95396l.56482-14.86005zm28.11311.45549l-3.1338 25.50769 19.02145 2.33395.40083-3.01719-15.65078-1.93676 1.07496-8.6544 14.06567 1.70902.40084-2.96072-14.12033-1.76549.96565-7.79989 15.03131 1.87846.40084-3.01719zm-47.13456.62676c-.56481-.002-1.12962.0419-1.71266.11297-2.33213.28787-4.39096 1.08225-6.14006 2.39225-1.7491 1.31001-3.00626 3.05546-3.77149 5.23819-.76523 2.19184-.98387 4.54219-.67414 7.06016.30974 2.52526 1.07497 4.76994 2.33214 6.66115 1.25716 1.89668 2.93338 3.27045 4.95578 4.15593 2.02239.88002 4.17232 1.14056 6.48624.85451 2.27747-.28241 4.28164-1.04764 6.03074-2.33395 2.00418 1.2025 3.95369 2.01146 5.86677 2.44874l.69235-2.44874c-1.3847-.33525-2.93338-.9365-4.6096-1.82198 1.12962-1.39928 1.89485-2.96618 2.33213-4.72621.43727-1.75274.54659-3.71501.2733-5.80846-.30974-2.53073-1.09319-4.71528-2.33214-6.60467-1.23894-1.89122-2.8605-3.27045-4.90112-4.15593-1.51224-.6632-3.1338-1.02031-4.82824-1.02396zm-.10932 2.96072c1.20251.0128 2.36858.28058 3.46176.7962 1.45758.68142 2.64187 1.72906 3.53464 3.18846.89277 1.45394 1.45758 3.23037 1.71266 5.29467.43727 3.62938-.23686 6.4334-2.00418 8.48495-1.3847-.9201-3.0427-1.51771-5.0651-1.82198l-.56481 2.5617c1.20251.14394 2.38679.46825 3.53464 1.02395-1.02031.57939-2.1135.98752-3.316 1.13874-2.53255.30974-4.73714-.36075-6.59556-1.93494-1.85842-1.57237-3.00626-3.97373-3.42532-7.28791-.41905-3.42168.0911-6.1018 1.54868-8.02763 1.43937-1.92037 3.4071-3.04817 5.92143-3.35973.41906-.051.83811-.062 1.25716-.0565zm-19.93243.11296l-3.37066.57028 4.44563 25.33642 3.37066-.62676zm103.61587 1.36648l-5.73923 24.99571 8.98235 2.10621c1.51224.34618 2.93338.53202 4.17233.5138 1.22072-.0128 2.27747-.21135 3.24312-.57028.94742-.35893 1.87663-.96383 2.78762-1.7655.91099-.80167 1.76732-1.88028 2.55077-3.24494.78345-1.36466 1.3847-2.99351 1.82198-4.89565.52837-2.23193.65591-4.31991.40083-6.20748-.25507-1.88939-.87455-3.53464-1.93129-4.95214-.81989-1.10047-1.94952-1.9568-3.29778-2.62-.96565-.47007-2.38679-.91645-4.33631-1.36648zm-124.98767 3.0172l-3.29778.79802 5.73923 24.99572 15.66901-3.58748-.67413-2.96071-12.29835 2.84775-5.11976-22.09148zm127.59309.68324l5.30196 1.19522c1.96773.45549 3.35244.99298 4.15411 1.53775 1.12962.75976 1.96773 1.92765 2.51433 3.53099.52837 1.60334.47371 3.70044-.12754 6.32044-.43728 1.89121-1.02031 3.44171-1.76732 4.66791-.74701 1.22072-1.58512 2.12807-2.55077 2.73296-.69235.43181-1.5669.70875-2.56899.79803-1.00208.0893-2.33213-.0729-3.99013-.4555l-5.33839-1.19704zm24.7789 3.24494l-4.6096 14.12033c-.83811 2.58538-1.22073 4.67884-1.07497 6.37874.12754 1.69444.83811 3.18664 2.04061 4.44198 1.20251 1.26263 2.89695 2.27565 5.19264 3.0172 2.35035.76523 4.39097.94743 6.14007.51197 1.74909-.42998 3.1338-1.2936 4.1541-2.5617 1.02031-1.2608 1.9313-3.12469 2.73297-5.57889l4.6096-14.12033-3.24312-1.02577-4.55494 14.06384c-.98387 3.06275-2.16815 5.00133-3.53464 5.75016-1.34826.74702-3.24312.72151-5.62991-.0565-1.3847-.45003-2.45967-1.08225-3.24312-1.93676-.78345-.86179-1.23894-1.88757-1.31182-3.01719-.0729-1.13692.2733-2.71475.96565-4.83918l4.55494-14.12032-3.18846-1.02395zm-167.84058 1.02578c-1.07496.0401-2.36857.28787-3.75327.74154l-9.18277 3.0172 7.98026 24.42543 9.27387-3.0755c1.5669-.50287 2.84228-1.02942 3.82615-1.65071.98387-.6213 1.73088-1.34098 2.27747-2.10621.52838-.76523.91099-1.70537 1.07497-2.84775.16398-1.13691.0364-2.27383-.34617-3.41621-.4555-1.42296-1.25717-2.51068-2.38679-3.30142-1.12963-.78163-2.47789-1.18611-4.09945-1.13874.96564-.94014 1.54868-1.96956 1.82197-3.0755.2733-1.10594.21864-2.14082-.10932-3.18846-.36439-1.11869-1.0203-2.08252-2.00417-2.90241-.96565-.81806-2.13171-1.29907-3.4071-1.42478-.32796-.0328-.61947-.0692-.96565-.0565zm0 3.13197c.78345-.0127 1.45758.19313 2.04062.68325.58303.49011 1.00209 1.18064 1.25716 1.99324.2733.85451.34618 1.63431.10932 2.33395-.23686.70693-.72879 1.30636-1.4758 1.82198-.56481.38808-1.58512.79256-3.02448 1.25352l-5.22908 1.70719-2.38679-7.34439 4.82824-1.59423c1.7491-.56845 3.06092-.84904 3.86259-.85451zm-20.67944 3.41621l-3.06093 1.36649 6.03075 13.55187c1.31182 2.94796 1.69444 5.13251 1.18429 6.60466-.51016 1.46487-1.91308 2.74026-4.20877 3.75692-1.33005.59761-2.53255.85451-3.69862.73973-1.14784-.11479-2.14993-.56482-2.9516-1.36649-.81989-.79438-1.658-2.22828-2.56899-4.26889l-6.03074-13.55005-3.13381 1.36648 6.03075 13.55005c1.11141 2.487 2.29569 4.35088 3.53464 5.52242 1.23894 1.16788 2.71474 1.80011 4.44562 1.93676 1.73088.133 3.71684-.2733 5.92143-1.25352 2.25925-1.00573 3.88081-2.26836 4.90112-3.75692 1.00209-1.48856 1.43936-3.0427 1.36648-4.66973-.0911-1.62156-.65591-3.62027-1.71266-5.97791l-6.03074-13.55005zm225.6337 6.49171l-11.66065 22.88768 2.89694 1.47945 9.96622-19.4733-3.29778 22.8312 2.73297 1.42297 16.39779-15.77104-9.80224 19.13076 2.96983 1.48127 11.66065-22.8312-4.09944-2.10621-13.61018 13.15104c-1.36648 1.32822-2.36857 2.31938-3.06092 3.01902.14576-.86727.34618-2.16451.61947-3.93001l2.84229-18.9595-4.55495-2.33395zm-201.03701.22775c.92921.007 1.76732.21863 2.45967.73972.67414.51926 1.18429 1.24623 1.47581 2.16269.25507.77616.29151 1.52135.16397 2.22099-.12753.69964-.38261 1.2936-.78345 1.76549-.40083.4719-.94742.87637-1.658 1.25352-.40083.21682-1.1114.51016-2.16815.85269l-6.0854 1.93676-2.73297-8.37016 5.62991-1.82198c1.5669-.50287 2.78763-.73972 3.69861-.73972zm-52.21241 6.83059c-.80531.0346-1.66529.23139-2.56352.56846-.8618.30609-2.05701.85268-3.52917 1.70901l-8.37017 4.83917 12.86863 22.26275 2.90241-1.70902-5.23818-9.05158 5.75198-3.24676c3.14656-1.81834 4.90294-3.74599 5.35115-5.75017.45003-2.00599.12754-3.97555-.96747-5.86494-.63405-1.10776-1.40475-1.96045-2.39226-2.61818-.98022-.6632-1.98231-1.05493-3.01719-1.13874-.25872-.0219-.52838-.0128-.79621 0zm-.79802 3.30142c.66137-.0547 1.29907.051 1.93676.34254.85451.39354 1.5669 1.05674 2.1062 1.99324.74337 1.28632.90006 2.47607.51198 3.64395-.38808 1.17154-1.51406 2.31574-3.41621 3.41621l-5.75016 3.30143-4.61142-7.91467 5.69368-3.30143c1.33368-.76523 2.272-1.21161 2.84592-1.36648.22229-.0583.46279-.0966.68325-.11479zm-20.04176 7.79989l-15.20076 10.64946 14.69061 21.00922 15.71456-10.98834-1.70902-2.44874-12.92511 8.99692-5.01044-7.11664 11.61511-8.14242-1.70719-2.50522-11.67159 8.14242-4.49846-6.4334 12.41131-8.71088-1.70902-2.44874zm309.51756 1.7655l-22.82938 15.37384 2.9516 2.04973 6.77776-4.78269 8.81837 6.20565-2.04061 8.08412 3.18846 2.22099 6.14006-27.10192zm-.12754 3.18846c-.45549 1.37012-1.02031 3.17206-1.58512 5.40945l-1.87664 7.34439-7.12393-4.95396 6.61378-4.55494c1.42114-.98751 2.7694-2.08434 3.97191-3.24494zm14.86734 7.23143l-15.83299 20.21302 12.64453 9.90609 1.87663-2.39044-9.96621-7.79988 13.95634-17.87907zm-346.79522 5.69368c-.62858.004-1.22073.12207-1.82198.34071-1.2025.42998-2.65644 1.40292-4.38368 2.90423l-8.59791 7.45917 16.85329 19.35852 2.5617-2.22099-7.46282-8.59609 2.96072-2.5617c.66502-.58122 1.13691-1.00391 1.47944-1.19522.48465-.24415 1.05493-.37169 1.65254-.4555.59761-.0893 1.36648-.082 2.39043.11479 1.02395.19677 2.44874.5721 4.21424 1.08043l6.03439 1.82198 3.24494-2.78945-7.97115-2.39043c-1.56144-.44821-3.03724-.64681-4.38368-.68325-.62858-.005-1.37013.0765-2.33395.34071 1.63977-1.87299 2.43962-3.63484 2.50521-5.35114.0711-1.71631-.45367-3.29414-1.65071-4.66973-.92738-1.06586-2.05519-1.8074-3.35972-2.22099-.65227-.20589-1.30818-.2897-1.93494-.28423zm-.34253 3.4162c1.177.0128 2.16451.50287 2.96071 1.42297.54295.62312.90552 1.33186 1.02577 2.16451.12026.83082-.0656 1.62702-.51379 2.44874-.45368.81442-1.27357 1.77278-2.44692 2.78944l-5.46593 4.78269-5.58254-6.4334 6.09269-5.29466c1.43572-1.24988 2.74937-1.8894 3.92819-1.87846zm364.2862 4.841l-16.85329 19.41499 2.56899 2.22099 16.85329-19.35851z"
       transform="translate(-2.578 269.11)"
       id="path82" />
    <path
       d="m 83.086765,-82.381528 1.25261,5.408996 c 0.244332,1.02937 0.340035,1.390367 0.512428,2.220535 l 2.732967,11.501234 1.42342,7.230974 1.195672,7.1171 1.024863,7.060163 0.797115,6.946289 0.626305,6.832416 0.455494,6.77548 0.398558,6.661605 0.341621,6.5477323 0.227747,6.4338584 0.227747,6.3769216 0.227747,6.3199847 0.284684,6.206111 0.284684,6.092238 0.455495,5.978364 0.512431,5.921427 0.683241,5.864491 0.854052,5.750616 1.024863,5.69368 1.309546,5.579807 1.537295,5.465933 1.82198,5.408996 2.10666,5.352059 2.50522,5.181249 2.84684,5.181249 3.2454,5.010438 3.70089,5.010438 4.15639,4.839628 4.61188,4.782695 5.12431,4.66881 5.63674,4.55495 5.97837,4.3272 -23.68571,15.20212 -7.34485,-11.72898 -2.22053,1.0818 c -2.61328,1.20152 -4.99346,2.8341 -7.28792,4.55494 -3.11164,2.34102 -5.633453,5.38455 -7.62953,8.71133 -1.605908,2.86562 -2.675435,5.99396 -3.245397,9.22377 -0.311756,1.69296 -0.443058,3.41401 -0.626305,5.12431 l -0.208216,0.22541 0.262904,0.006 2.906026,1.30564 c 2.688396,1.18592 5.564057,1.99083 8.483588,2.33432 3.01389,0.35156 6.09176,0.20278 9.05295,-0.45527 4.66211,-0.9518 8.91017,-3.12128 12.86772,-5.69368 l 2.04972,-1.36648 -6.43386,-11.95664 23.68571,-15.20212 2.44828,5.35206 3.41621,6.71854 3.53008,6.37692 3.7009,6.0353 3.81476,5.80756 3.92864,5.5798 8.1989,10.3625 4.27026,4.89656 4.27026,4.72576 2.39134,2.44828 6.4908,6.54773 4.49801,4.27026 4.55494,4.21333 4.55495,4.15638 4.61188,4.09945 4.61188,4.04252 4.66881,4.04251 4.61189,4.04251 4.61188,4.04251 4.55494,4.15639 4.55494,4.15639 4.55495,4.27026 4.49801,4.44107 4.38413,4.498 4.3272,4.66882 4.27026,4.83963 4.21332,5.06738 4.09945,5.23818 3.98557,5.46593 3.92864,5.75062 4.61188,7.34485 0.28469,2.61909 c 1.05675,0.0911 2.11349,0.15487 3.18846,0.22775 l -2.33441,-6.09224 -10.3625,-89.44771 C 264.39503,138.54674 253.95424,47.092746 253.95424,47.092746 L 86.275226,-75.549112 Z m 439.438225,0 -2.96071,6.319985 -168.07744,122.926551 -0.28468,0.227748 v 0.34162 l -15.42988,133.630674 -10.87492,94.28725 -1.70811,4.44107 c 0.92921,-0.0729 1.82198,-0.21181 2.73297,-0.28469 l 0.17072,-1.7081 5.18125,-8.1989 3.8717,-5.75062 3.98557,-5.46593 4.09945,-5.23819 4.21333,-5.06737 4.27026,-4.83963 4.32719,-4.66882 4.44107,-4.498 4.49801,-4.44107 4.49801,-4.27026 4.55494,-4.15639 9.16683,-8.25584 4.61188,-3.98557 4.66882,-4.04252 4.61188,-4.04251 4.61188,-4.09945 19.92788,-19.07383 2.56215,-2.56215 4.27026,-4.72576 4.27026,-4.89656 1.65117,-2.04973 2.96071,-3.64395 3.58702,-4.66882 3.92864,-5.57981 3.81477,-5.80755 3.70089,-6.0353 3.53008,-6.37692 3.41621,-6.71854 2.96071,-6.4908 23.34409,15.71456 -6.54787,12.5829 c 3.63626,2.59133 7.51214,4.8565 11.78592,6.20611 3.87934,1.33571 8.05241,1.78873 12.12753,1.30932 4.04405,-0.36302 7.73143,-1.98947 11.37399,-3.6595 l 0.27439,0.0331 -0.20431,-0.24494 c -0.28231,-3.68703 -0.86164,-7.34657 -2.16342,-10.818 -1.64237,-4.17781 -4.30593,-7.7277 -7.57259,-10.76105 -3.24755,-3.11959 -7.26839,-5.1659 -11.27349,-7.1171 l -7.00309,11.15947 -22.94553,-15.42987 4.89656,-3.53008 5.63674,-4.55495 5.12432,-4.66882 4.61188,-4.782687 4.15638,-4.896565 3.7009,-4.953501 3.24539,-5.010439 2.84684,-5.181248 2.50522,-5.181249 2.10666,-5.352059 1.82198,-5.408997 1.59423,-5.465932 1.25261,-5.579807 1.02486,-5.69368 0.85406,-5.750617 0.68324,-5.86449 0.51243,-5.921427 0.45549,-5.978364 0.28469,-6.092238 0.28468,-6.206111 0.22775,-6.3199849 0.22775,-6.3769216 0.28468,-6.4338584 0.28468,-6.5477321 0.39856,-6.661606 0.4555,-6.775479 0.68324,-6.832416 0.79711,-6.946289 0.96793,-7.060164 1.19567,-7.1171 1.42342,-7.230973 2.84684,-11.899791 c 0.17506,-0.758411 0.33077,-1.379237 0.51243,-2.220536 z m -4.27026,9.166825 -3.64396,7.572594 -2.39134,5.978364 -2.10666,5.978364 -1.82198,5.978364 -1.59423,6.035301 -1.30955,6.092238 -1.19567,6.092237 -0.96793,6.092238 -0.85405,6.092238 -0.79711,6.092237 -0.68325,6.0922379 -0.6263,6.09223762 -0.68324,6.03530078 -0.62631,5.9783637 -0.74017,5.921428 -0.79712,5.921427 -0.91099,5.86449 -1.02486,5.750617 -1.25261,5.69368 -1.42342,5.636743 -1.65117,5.579807 -1.87891,5.408996 -2.22054,5.352059 -2.50522,5.238185 -2.84684,5.124313 -3.24539,4.953501 -3.64396,4.896565 -4.09945,4.782691 -4.55494,4.611881 -5.06738,4.44107 -5.63674,4.327195 -6.4908,4.44107 -0.28468,0.68324 -82.50142,-52.95122 6.43385,-8.939078 -7.97214,-6.263669 c 0,0 0.19051,-0.379165 0.28577,-0.568747 z m -430.613021,0.455494 152.989181,112.393244 -7.62953,6.092237 7.17404,9.96394 -82.84305,53.122038 -0.6263,-1.93585 -6.54773,-4.38414 -5.63675,-4.327195 -5.06737,-4.498007 -4.55495,-4.611881 -4.09945,-4.725754 -3.64395,-4.896565 -3.2454,-5.010438 -2.84684,-5.067376 -2.50522,-5.238185 -2.22053,-5.352059 -1.87892,-5.465933 -1.65116,-5.52287 -1.42342,-5.636743 -1.25261,-5.69368 -1.02487,-5.750617 -0.91099,-5.86449 -0.79711,-5.921427 -0.74018,-5.921428 -0.6263,-5.9783637 -0.68325,-6.03530078 -0.6263,-6.09223762 -0.68324,-6.0922379 -0.79712,-6.092237 -0.85405,-6.092238 -0.96792,-6.092238 -1.13874,-6.092237 -1.366484,-6.092238 -1.594231,-6.035301 -1.821977,-6.0353 -2.106662,-5.978364 -2.391345,-5.921428 z m -0.569368,1.821978 C 118.2318,-9.3179485 86.037458,63.766128 155.62425,107.73045 178.12749,179.06087 251.53998,197.41046 279.23404,274.95383 239.42383,208.83426 177.76264,193.59114 144.17995,117.06808 75.285513,69.988182 107.15236,8.3552343 87.072341,-70.937231 Z m 431.467069,0 C 498.46122,8.3370145 530.32078,69.988182 461.4318,117.06808 427.85276,193.57292 366.20614,208.81604 326.37771,274.95383 354.08999,197.39224 427.48608,179.04265 449.98751,107.73045 519.56883,63.766128 487.3836,-9.3179485 518.53941,-70.937231 Z M 240.8017,41.171328 c 4.20877,2.587209 7.67053,5.322453 9.56538,8.255836 -3.07914,1.785538 -6.14462,3.566522 -9.22376,5.35206 -2.11349,-2.951604 -4.24521,-5.873601 -6.37692,-8.825204 2.00418,-1.585121 4.03113,-3.215791 6.0353,-4.782692 z m 124.06529,0 c 1.98595,1.585121 3.99241,3.197571 5.97836,4.782692 -2.11349,2.951603 -4.20649,5.85538 -6.31998,8.825204 -3.07914,-1.785538 -6.14462,-3.566522 -9.22376,-5.35206 1.89485,-2.933383 5.33839,-5.650408 9.56538,-8.255836 z m -113.64585,9.736193 c 1.74909,3.024483 2.55987,7.36079 2.96071,12.298349 -2.33213,1.056747 -4.63238,2.074777 -6.94629,3.131524 -1.658,-3.2249 -3.33422,-6.436136 -5.01044,-9.679256 3.00626,-1.913076 5.98975,-3.81932 8.99602,-5.750617 z m 103.22641,0 c 3.00627,1.913077 6.00798,3.837541 8.99602,5.750617 -1.658,3.24312 -3.35244,6.493073 -5.01044,9.736193 -2.31391,-1.056747 -4.63238,-2.131714 -6.94629,-3.188461 0.40084,-4.937559 1.21162,-9.273866 2.96071,-12.298349 z m 10.818,5.010439 82.89998,53.17897 -1.59423,4.72576 -2.56216,6.14917 -2.73296,5.92143 -3.01766,5.69368 -3.24539,5.46593 -3.47315,5.23819 -3.64395,5.01043 -3.81477,4.95351 -3.98557,4.72575 -4.09945,4.66882 -4.27026,4.498 -4.3272,4.49801 -4.44107,4.38414 -9.10989,8.71123 -4.61188,4.3272 -4.61188,4.38423 -4.61188,4.38413 -4.61188,4.49801 -4.55495,4.55494 -4.55494,4.61188 -4.44107,4.83963 -4.3272,4.89656 -4.27026,5.12432 -4.15638,5.23818 -3.98558,5.52287 -3.81477,5.69368 -3.64395,5.97837 -3.47315,6.20611 -3.24539,6.54773 -2.96072,6.83242 -0.91099,2.3344 23.68571,-205.427971 8.25584,3.757191 z m -124.34997,1.081799 5.69368,11.045739 7.85727,-3.586381 23.5149,203.662933 -0.28468,-0.74018 -3.01765,-6.83241 -3.2454,-6.54773 -3.47314,-6.20612 -3.64396,-5.97836 -3.81477,-5.69368 -3.98557,-5.52287 -4.09945,-5.23819 -4.27026,-5.12431 -4.38413,-4.89656 -4.44107,-4.83963 -4.55495,-4.61188 -4.55494,-4.55495 -4.61188,-4.498 -4.61188,-4.38414 -4.61189,-4.38413 -4.61188,-4.3272 -4.61188,-4.32719 -8.93907,-8.82521 -4.3272,-4.44107 -4.27026,-4.498 -4.09945,-4.66882 -3.98558,-4.72576 -3.81476,-4.9535 -3.64396,-5.01044 -3.47314,-5.29512 -3.2454,-5.409 -3.01765,-5.69368 -2.73297,-5.92142 -2.50522,-6.14918 -1.25261,-3.53008 z M 111.78291,122.98951 c 2.14083,3.44354 4.23428,6.91896 6.37692,10.3625 -8.48312,4.86468 -16.96215,9.74986 -25.450745,14.63276 0.927386,-10.23952 6.18698,-18.96451 19.073825,-24.99526 z m 382.10287,0 c 12.88138,6.03075 18.14462,14.75574 19.07383,24.99526 -8.49042,-4.90112 -17.01727,-9.78858 -25.50769,-14.6897 2.14993,-3.42532 4.28392,-6.88024 6.43386,-10.30556 z M 119.1847,135.28786 c 1.91125,3.57108 3.83936,7.18998 5.75061,10.76105 -11.64972,8.16246 -21.81408,8.34238 -31.144426,4.04252 8.472196,-4.91934 16.925256,-9.88423 25.393816,-14.80357 z m 367.24236,0 c 8.47219,4.91934 16.97855,9.88423 25.45075,14.80357 -9.32853,4.29986 -19.48378,4.11994 -31.14443,-4.04252 z"
       color="#000"
       fill="#2b0000"
       transform="translate(-2.578,269.11)"
       id="path84"
       inkscape:connector-curvature="0"
       sodipodi:nodetypes="ccccccccccccccccccccccccccccccccccccccccccccccccccccccccccccccccccccccccccccccccccccccccccccccccccccccccccccccccccccccccccccccccccccccccccccccccccccccccccccccccccccccccccccccccccccccccccccccccccccccccccccccccccccccccccccccccccccccccccccccccccccccccccccccccccccccccccccccccccccccccccccccccccccccccccccccccccccccccccccccccccccccccccccccccccccccccccccccccccccccccccccccccc" />
    <path
       d="m 263.63336,-78.395952 -1.59423,2.619093 -0.4555,0.854052 -0.51243,0.854052 -0.45549,0.854052 -0.39856,0.910989 -0.39856,0.854052 -0.34162,0.854052 -0.34162,0.854052 -0.28468,0.910989 -0.28469,0.854052 -0.22774,0.910988 -0.22775,0.854052 -0.17072,0.910989 -0.11387,0.854052 -0.0568,0.910989 -0.0568,0.910989 v 31.31524 h -1.42342 c -4.26342,-2.332132 -6.59328,-5.568419 -8.59745,-8.939078 -2.1135,3.498197 -5.09243,6.552287 -9.33764,8.939078 h -1.13873 v -9.96394 c 0.13408,-5.792527 -2.35263,-10.928266 -5.23796,-15.771494 -3.1694,4.804874 -5.59236,9.972338 -5.97804,15.771494 v 9.96394 h -0.79711 c -2.71475,-2.204593 -4.17233,-5.235908 -5.46594,-8.36971 -1.36648,3.26134 -3.32055,6.128677 -6.0353,8.36971 h -0.56936 v -9.96394 c 0.13003,-5.785242 -2.35588,-10.93218 -5.23887,-15.771494 -3.18255,4.797357 -5.59302,9.983071 -5.97799,15.771494 V 6.8384379 h 11.21655 V 6.4968171 h 12.86772 v 0.3416208 h 11.21655 V 6.4968171 H 257.7122 V 46.238704 h 11.21655 v -3.643956 h 8.88215 v -5.238185 h 9.16682 c -1.57824,-15.69118 -1.72209,-33.1803197 10.13457,-45.0370091 1.31351,-1.1601571 2.77152,-2.1671957 4.27026,-3.0745869 1.48309,0.9059935 2.90551,1.9302511 4.21332,3.0745869 C 317.8443,3.6944674 317.041,22.072464 315.73094,37.356563 h 9.16682 v 5.238185 h 8.88214 v 3.643956 h 11.2166 V 6.4968171 h 20.49725 V 6.8384379 H 376.7103 V 6.4968171 h 12.86772 v 0.3416208 h 11.21655 V -41.216221 c -0.57658,-6.413366 -2.7551,-10.6593 -5.97799,-15.771494 -3.14333,4.75686 -5.18479,10.868349 -5.23779,15.771494 v 9.907003 h -0.68324 c -2.73296,-2.241033 -4.61188,-5.051433 -5.97836,-8.312773 -1.29361,3.133801 -2.78991,6.1264 -5.52287,8.312773 h -0.68324 v -9.907003 c -0.62993,-6.465979 -2.78295,-10.650215 -5.978,-15.828431 -3.10734,4.803442 -5.18535,10.905528 -5.23796,15.828431 v 9.907003 h -1.19567 c -4.26343,-2.386791 -7.22414,-5.440881 -9.33764,-8.939078 -2.02239,3.370659 -4.39096,6.606946 -8.65439,8.939078 h -1.30955 v -31.31524 -0.910989 l -0.11387,-0.854052 -0.11387,-0.910989 -0.17072,-0.910989 -0.22775,-0.854052 -0.17072,-0.854052 -0.28468,-0.910988 -0.34162,-0.854052 -0.28469,-0.910989 -0.39855,-0.854052 -0.39856,-0.854052 -0.39856,-0.854052 -0.45549,-0.910989 -0.4555,-0.854052 -0.51243,-0.854052 -1.59423,-2.619093 -1.59423,2.619093 -0.51243,0.910989 -0.4555,0.854052 -0.39855,0.854052 -0.39856,0.910989 -0.28469,0.854052 -0.34162,0.910988 -0.28468,0.854052 -0.22775,0.910989 -0.17072,0.854052 -0.17072,0.854052 -0.17072,0.910989 -0.11387,0.854052 -0.0568,0.854052 -0.11388,0.910989 v 0.854052 26.304801 h -6.49079 v -4.953501 -0.854052 c -0.41839,-5.525127 -3.1493,-10.26452 -5.92125,-14.917442 -3.1099,4.486222 -4.87684,9.492357 -5.23764,14.917442 l -0.0568,0.854052 v 4.953501 h -8.31278 v -4.554944 l -0.0568,-0.512431 v -0.512431 c -0.4695,-5.108938 -2.3038,-10.029525 -4.95227,-14.40501 l -1.36649,-2.334409 -1.42342,2.334409 c -2.45866,4.405371 -4.7059,9.274613 -4.89546,14.40501 l -0.0568,0.512431 v 0.512431 4.498008 h -8.3697 v -4.896565 -0.854052 c -0.14105,-5.491542 -2.48674,-10.299314 -5.23796,-14.917442 -2.88802,4.484445 -5.56007,9.430451 -5.9212,14.860505 l -0.0568,0.910989 v 4.896565 h -6.49079 v -26.247865 -0.910989 l -0.0568,-0.854052 -0.11387,-0.854052 -0.11388,-0.910989 -0.11387,-0.854052 -0.22775,-0.854052 -0.17072,-0.910989 -0.22774,-0.854052 -0.28469,-0.854052 -0.28468,-0.910988 -0.34162,-0.854052 -0.39856,-0.910989 -0.40412,-0.854052 -0.45549,-0.910989 -0.45549,-0.854052 z"
       color="#000"
       id="path86"
       transform="translate(-2.578,269.11)"
       inkscape:connector-curvature="0"
       sodipodi:nodetypes="ccccccccccccccccccccccccccccccccccccccccccccccccccccccccccccccccccccccccccccccccccccccccccccccccccccccccccccccccccccccccccccccccccccccccccccccccccccccccccccc" />
    <path
       d="m 112.68,152.78 h 4.77 v -25.67 c -0.07,-2.44 -0.68,-4.89 -2.2,-7.33 -1.53,2.44 -2.51,4.89 -2.57,7.33 z m 107.76,0 h -4.77 v -25.67 c 0.07,-2.44 0.68,-4.89 2.2,-7.33 1.53,2.44 2.51,4.89 2.57,7.33 z m -41.3,16.74 h -3.93 c 1.56,-15.5 -2.27,-22.92 -8.65,-26.5 -6.38,3.58 -10.21,11 -8.64,26.5 h -3.93 v -30.39 h 12.57 12.58 z m 5.24,-31.57 h -17.82 -17.81 v -7.47 h 4.27 v -3.37 c 0.06,-2.44 1.04,-4.89 2.57,-7.33 1.53,2.44 2.14,4.89 2.2,7.33 v 3.37 h 5.97 v -3.16 c 0.07,-2.8 1.13,-5.61 2.8,-8.41 1.68,2.8 2.73,5.61 2.8,8.41 v 3.16 h 5.98 v -3.37 c 0.06,-2.44 0.67,-4.89 2.2,-7.33 1.52,2.44 2.5,4.89 2.56,7.33 v 3.37 h 4.28 z m -0.13,34.55 h -4.06 v -33.37 h 4.06 z m 17.79,-33.11 H 190.3 v 13.2 h 11.74 z m 0,-6.15 H 190.3 v 5.42 h 11.74 z m 13.2,6.15 h -7.53 v 13.2 h 7.53 z m 0,-6.15 h -7.53 v 5.42 h 7.53 z m -25.42,41.16 h -4.77 v -59.02 c 0.07,-2.45 0.68,-4.89 2.2,-7.34 1.53,2.45 2.51,4.89 2.57,7.34 z m 17.4,-21.62 h -4.77 v -25.67 c 0.06,-2.44 0.67,-4.89 2.2,-7.33 1.53,2.44 2.51,4.89 2.57,7.33 z m -58.34,19.72 h 4.06 v -33.37 h -4.06 z m -17.8,-33.12 h 11.74 v 13.2 h -11.74 z m 0,-6.15 h 11.74 v 5.43 h -11.74 z m -13.2,6.15 h 7.53 v 13.2 h -7.53 z m 0,-6.15 h 7.53 v 5.43 h -7.53 z m 25.42,41.16 h 4.76 v -59.02 c -0.06,-2.45 -0.67,-4.89 -2.2,-7.33 -1.52,2.44 -2.5,4.88 -2.56,7.33 z m -17.39,-21.62 h 4.76 V 127.1 c -0.06,-2.44 -0.67,-4.89 -2.2,-7.33 -1.53,2.44 -2.5,4.89 -2.56,7.33 z"
       fill="#fff"
       transform="matrix(1.82198 0 0 1.82198 -4.697 -3.697)"
       id="path88" />
    <path
       d="m 188.59066,-156.57018 c -7.34067,1.14233 -14.59517,2.76464 -21.92067,3.98558 -3.94266,0.51897 -7.87155,1.12298 -11.78592,1.82198 -9.6524,1.29918 -18.90288,4.29546 -28.24065,6.88935 -10.62395,4.13953 -21.25064,6.5573 -33.13722,7.7434 3.175707,1.54322 6.318618,3.1666 9.56538,4.55495 5.41856,2.05519 10.47683,2.25561 16.45474,2.73296 1.1571,0.0911 2.31361,0.11388 3.47314,0.11388 1.63709,2.25149 4.13965,2.98131 6.60467,3.98557 3.75145,1.50889 7.75899,2.14958 11.72898,2.78991 6.22492,0.75693 12.4694,0.34793 18.67527,-0.34159 2.77579,2.61221 7.17876,3.76133 10.93187,4.15638 4.17732,0.42751 8.61506,0.43048 12.69677,-0.39848 1.26618,4.07366 6.77582,3.75772 10.24863,3.75772 1.84169,3.6516 6.40551,2.97512 9.79304,2.50522 1.32044,3.45265 4.81525,4.11117 8.08502,3.70097 l 0.39856,0.34162 c 3.00731,2.24284 6.40751,2.77466 9.79313,1.08183 l 0.17072,-0.11387 c 0.24531,2.33076 1.7275,3.38902 3.98548,3.53005 1.92574,-0.0322 3.52288,-1.11001 5.01044,-2.2205 0.24803,-0.18516 0.62617,-0.56937 0.62617,-0.56937 l 0.28468,1.65117 1.99279,0.6263 c 1.90715,0.19869 3.40649,-0.32668 4.78269,-1.42342 1.49426,-1.26559 2.60134,-2.96447 3.2454,-4.72575 0.49552,0.66401 0.89893,1.38895 1.30954,2.10666 2.86693,5.04794 5.66273,10.206067 9.45197,14.632756 l 0.39855,0.512431 2.39135,2.789903 1.53729,-2.84684 c 0.31437,-0.458203 1.1996,-0.145784 1.93535,0 l 6.83242,1.935851 -4.21333,-5.181249 c 0.27525,9.96e-4 0.53319,0.109087 0.79698,0.170814 2.25116,0.778472 4.12818,2.277647 6.09223,3.587018 l 0.0568,-3.871702 c 0.85876,1.122889 1.76911,2.322305 2.50522,3.302334 3.6692,0.88019 7.41122,1.37472 11.15961,1.765044 0.5466,2.712925 1.28677,5.445436 2.56216,8.141962 10.73145,-1.785538 21.13266,-4.827329 31.37218,-8.54052 0.49193,-2.135357 -0.18903,-4.296678 -1.5373,-6.433858 l 0.22775,-0.113874 c 2.955,-1.71408 6.32292,-3.10671 8.48358,-5.80755 1.99206,0.64296 4.07998,0.67147 6.14918,0.5124 1.32006,-0.0936 2.60267,-0.4345 3.8717,-0.79708 l 0.74018,-1.25261 c 0.89517,0.34335 1.87904,0.61708 2.67603,0.85405 l 0.56937,0.17081 c 0.63429,0.22624 1.28578,0.39602 1.93585,0.56937 l 1.48035,-0.0569 0.79712,-0.11387 -1.30955,0.74018 c 12.04432,9.320642 23.82129,18.987077 35.87019,28.297581 1.36312,0.7625 2.77174,0.8146 4.27026,0.569368 1.25755,-0.151962 2.30326,-0.236621 3.18846,-1.195585 1.41642,0.02274 2.81643,0.03606 4.21332,-0.170724 1.41804,-0.134836 2.65991,-0.648511 3.75783,-1.536847 1.27983,0.209443 2.57526,0.361716 3.8717,0.398104 1.8743,-0.03034 3.24101,-0.661523 4.66882,-1.821616 1.02438,0.09997 2.04956,0.191372 3.07459,0.284414 2.20952,0.04255 4.40276,-0.375644 6.0353,-1.935673 l 1.99278,-2.220535 c -11.12334,-6.701558 -22.91555,-13.968197 -33.30802,-20.098687 0.57083,0.009 1.13685,0.0477 1.7081,0.0569 1.91584,0.0658 3.80103,-0.27661 5.57981,-0.96782 l 0.51243,0.34162 c 5.30522,3.45161 11.30777,5.185063 17.59347,4.611883 0.82868,-0.118038 1.6361,-0.319932 2.44883,-0.512887 0.46954,0.134495 0.91667,0.325011 1.36648,0.512431 5.55264,2.109247 11.32481,3.159573 17.25185,2.448283 l 0.17072,0.113873 c 1.10296,0.450114 2.20734,0.897199 3.30234,1.366484 6.80928,2.525963 14.02763,3.114787 21.12364,1.594226 l 0.22775,-0.05694 c 0.42213,0.209793 0.96569,0.297034 1.36635,0.398561 4.66354,1.3606 9.67305,1.662499 14.29114,0 0.40734,-0.168781 0.8422,-0.392631 1.19567,-0.569368 0.62313,0.201289 1.16814,0.248219 1.82198,0.341624 5.30482,0.963811 11.64438,1.037098 15.82843,-2.846837 0.27351,-0.241362 0.49818,-0.526527 0.74018,-0.797116 0.37964,-0.0125 0.7592,-0.03697 1.1386,-0.05694 5.30235,-0.250022 8.60257,-2.987907 11.21673,-7.344847 l 0.56937,0.17081 c 1.84825,-0.98325 3.4901,-2.16964 4.78269,-3.81476 0.85208,-1.0722 0.92266,-2.33111 1.0818,-3.64396 -2.22926,-2.0439 -4.41275,-4.12521 -6.66161,-6.14917 -13.10681,2.2185 -26.41179,2.16274 -39.62801,1.1957 -11.82289,-0.9567 -23.52282,-2.91686 -35.18694,-5.01044 -9.09667,-3.1668 -18.30414,-6.01819 -27.3866,-9.22376 -10.5293,-3.42163 -20.92283,-7.27036 -31.48605,-10.59025 -6.114,-2.35844 -12.58217,-3.5869 -19.13077,-3.5869 -6.93099,0.10791 -13.34768,2.52476 -18.7322,6.83238 l -0.91099,0.79712 c -1.84883,1.59057 -4.09976,2.73651 -6.20611,3.98557 -4.41159,-5.37065 -11.18321,-7.34484 -17.87816,-7.34484 -4.95673,0.3353 -9.70611,2.00622 -14.12033,4.21332 -7.12603,3.48854 -13.29718,8.51784 -19.41544,13.49402 l 0.28468,0.22775 c -5.80713,-2.30152 -11.32485,-5.66947 -15.48681,-8.54052 l -0.45549,-0.51243 c -1.90277,-2.09993 -4.36264,-3.32317 -7.06017,-4.04252 l -0.85405,-0.11387 h -0.17072 c -6.45031,-13.53321 -19.68137,-19.584 -33.36506,-21.69292 -6.95167,-0.58616 -13.97499,0.012 -20.83845,1.19535 z"
       color="#000"
       transform="translate(-2.578,269.11)"
       id="path90"
       inkscape:connector-curvature="0"
       sodipodi:nodetypes="ccccccccccccccccccccsccccccccccccccccccccccccccccccccccccccccccccccccccccccccccccccccccccccccccccccccccccc" />
    <g
       id="g94">
      <path
         d="m 190.04,93.031 c 1.35,-0.763 2.7,-0.971 4.06,-0.624 2.04,0.884 4.09,0.815 6.13,0.312 1.53,-0.417 3.09,-0.73 4.89,-0.312 6.66,4.021 13.32,8.043 19.97,12.063 -0.66,0.87 -2.08,0.97 -3.85,0.73 -2.13,-1.89 -4.83,-3.21 -7.8,-4.26 2.58,1.49 5.06,3 6.24,4.78 -0.48,0.48 -1.66,0.55 -3.53,0.21 -1.27,-1.29 -3.49,-2.57 -6.14,-3.85 1.98,1.42 3.78,2.84 5.2,4.26 -0.63,0.45 -1.8,0.63 -3.54,0.52 l -4.78,-3.43 c 1.28,1.32 2.57,2.63 3.85,3.95 -0.83,0.15 -1.67,0.45 -2.5,0 -6.07,-4.78 -12.13,-9.565 -18.2,-14.349 z M 56.28,75.479 c 12.399,-1.314 14.212,-5.249 35.622,-8.214 9.948,-1.552 20.028,-4.641 27.968,-2.181 5.73,1.645 10.5,4.444 13.15,9.783 -3.03,0.708 -4.86,2.135 -5.5,4.281 -4,0.96 -6.73,3.31 -7.95,7.337 5.02,-0.507 9.87,-0.641 13.45,1.834 -0.27,1.49 -1.96,3.581 -3.49,2.949 -0.16,-0.69 0.06,-1.823 -0.48,-2.032 -1.54,1.08 -3.22,3.111 -4.63,2.14 -0.32,-0.634 -0.18,-1.113 -0.11,-1.47 0.26,-1.283 -1.06,-0.986 -1.15,-0.554 -2.12,1.829 -3.92,0.839 -5.42,-0.421 -1.76,0.248 -3.47,0.408 -3.98,-2.14 -2.89,0.52 -5.4,0.729 -5.2,-1.223 -2.62,-0.016 -5.39,0.047 -5.5,-1.223 2.14,-0.917 4.28,-1.834 6.42,-2.751 -8.01,2.656 -14.639,3.187 -19.261,0.611 6.036,-0.977 10.791,-2.684 14.671,-4.892 -15.106,5.456 -26.512,5.918 -34.544,1.834 14.601,-1.835 19.661,-3.669 26.905,-5.503 -18.182,4.45 -32.949,6.004 -40.971,1.835 z m 65.2,9.124 c 1.4,-2.529 3.64,-4.048 6.58,-4.731 1.3,-3.745 6.96,-5.432 10.28,-1.385 5.4,3.9 10.25,5.987 14.42,5.886 -0.96,0.308 -1.92,0.616 -2.88,0.923 0.84,0.323 1.69,0.392 2.54,1.731 -1.07,-0.229 -1.99,0.239 -2.89,0.808 1.01,0.385 1.94,0.949 2.31,2.77 -1.83,-0.403 -2.97,0.054 -4.16,0.462 0.83,0.678 1.48,1.426 1.5,2.423 -0.96,-0.37 -1.92,-0.194 -2.88,0.231 0.73,0.722 1.22,1.643 1.15,3 -1.17,-0.802 -2.5,-1.306 -4.15,-1.154 -0.02,0.568 -0.25,1.053 0.58,1.962 -1.24,-0.364 -2.22,-0.331 -2.66,0.577 -2.32,-2.669 -3.96,-5.672 -5.65,-8.655 -1.49,-2.864 -4.69,-4.435 -10.27,-4.385 0.72,-1 1.92,-1.539 3.57,-1.616 -2.46,-0.54 -4.92,-0.155 -7.39,1.153 z m 13.48,-4.694 c -0.6,-0.348 -1.37,-0.141 -1.72,0.461 -0.35,0.603 -0.14,1.373 0.46,1.721 0.6,0.348 1.38,0.141 1.72,-0.461 0.35,-0.603 0.15,-1.374 -0.46,-1.721 z m 14.42,2.201 c 12.22,-10.229 19.67,-10.16 24.96,-5.409 -2.95,2.869 -7.21,4.585 -12.38,5.513 5.33,0.254 11.31,-2.746 17.48,-6.657 4.56,-4.472 10.79,-5.304 18.41,-3.12 l 34.53,11.649 c 13.98,2.574 27.82,4.335 40.97,2.184 0.94,0.867 1.88,1.733 2.81,2.6 -0.03,0.797 -0.76,1.594 -2.18,2.392 -3.35,-0.798 -6.5,-0.451 -9.57,0.416 3.26,-0.176 6.31,-0.177 7.9,1.04 -0.93,1.621 -2.67,2.644 -5.82,2.6 -1.42,2.253 -4.65,2.842 -9.67,1.768 -2.33,1.283 -5.34,1.317 -9.05,0.104 -4.37,1.109 -8.88,0.555 -13.52,-1.664 -2.88,0.555 -6.31,0 -10.3,-1.664 -3.33,1.109 -7.07,0.277 -11.23,-2.496 -2.24,1.092 -5.25,1.058 -9.98,-1.456 -3.23,0.386 -7.18,-0.934 -11.24,-2.496 1.28,1.109 2.71,1.941 4.27,2.496 -3.33,0.277 -6.66,-0.416 -9.99,-2.08 4.61,2.288 5.2,3.467 1.77,3.536 -3.18,-0.833 -6.25,-2.115 -9.15,-4.056 1.25,1.906 2.91,3.259 4.99,4.056 -4.04,1.092 -7.12,-0.676 -9.77,-3.744 0.73,1.595 1.5,3.189 3.64,4.784 -10.4,6.95 -18.73,6.763 -26.63,5.096 -0.69,-0.936 -1.39,-1.872 -2.08,-2.808 1.04,-0.004 2.08,-0.169 3.12,-0.728 -0.48,-0.589 -0.97,-1.179 -1.45,-1.768 1.32,-0.393 2.71,-0.417 3.74,-2.288 -1.01,-0.207 -1.53,-0.901 -1.98,-1.664 1.42,-0.104 2.43,-0.625 3.02,-1.56 -0.62,0.07 -1.25,0.036 -1.87,-0.729 0.64,-0.986 1.3,-1.955 1.66,-3.224 -2.22,0.625 -4.02,0.417 -5.41,-0.623 z"
         fill="#fff"
         transform="matrix(1.82198 0 0 1.82198 -4.697 -3.697)"
         id="path92" />
    </g>
  </g>
</svg>
