<?xml version="1.0" encoding="UTF-8" standalone="no"?>
<svg
   xmlns:dc="http://purl.org/dc/elements/1.1/"
   xmlns:cc="http://creativecommons.org/ns#"
   xmlns:rdf="http://www.w3.org/1999/02/22-rdf-syntax-ns#"
   xmlns:svg="http://www.w3.org/2000/svg"
   xmlns="http://www.w3.org/2000/svg"
   id="svg5008"
   height="467.1"
   width="262.03"
   version="1.0">
  <defs
     id="defs5010">
    <clipPath
       id="clipPath3202"
       clipPathUnits="userSpaceOnUse">
      <path
         id="path3204"
         d="m17 819h560v-797h-560v797z" />
    </clipPath>
  </defs>
  <metadata
     id="metadata5013">
    <rdf:RDF>
      <cc:Work
         rdf:about="">
        <dc:format>image/svg+xml</dc:format>
        <dc:type
           rdf:resource="http://purl.org/dc/dcmitype/StillImage" />
        <dc:title></dc:title>
      </cc:Work>
    </rdf:RDF>
  </metadata>
  <g
     transform="matrix(2.1153,0,0,-2.1153,-507.38,1725.77)"
     id="g3198" />
  <path
     d="m 137.21,3.57 v 11.49 h 11.32 V 26.5 h -11.47 v 15.61 c 0.64,0.52 1.54,0.52 2.23,0.98 7.24,3.3 12.16,10.94 11.7,18.99 -0.29,5.62 -2.72,10.77 -7.12,14.6 9.72,-1.22 19.74,-2.38 29.93,-2.38 5.68,0.17 11.12,0.81 15.93,3.36 3.3,-0.17 6.25,-0.46 9.49,-0.58 12.4,-0.46 24.9,0 36.31,3.3 3.71,1.16 7.99,3.82 8.51,8.11 0.35,3.88 -0.81,7.53 -1.45,11.29 -0.52,2.95 -1.33,5.79 -1.85,8.69 1.1,0.52 2.49,0.63 3.65,1.15 0.35,0.29 1.56,0.18 0.93,1.05 -5.04,17.66 -9.73,35.17 -12.39,53.82 h 27.09 c 0.06,6.08 -0.46,12.13 -0.57,18.1 -0.58,14.93 -1.39,29.99 -2.55,44.87 l -1.56,18.18 c -4.64,45.75 -12.69,90.97 -36.14,129.37 -10.48,17.66 -24.38,32.48 -39.03,47.71 -15.28,15.11 -31.79,29.7 -49.85,40.82 -7.47,-4.63 -14.31,-10.07 -21.26,-15.4 C 93.72,436.27 80,422.08 66.91,407.66 52.61,391.74 40.97,374.6 32.45,356.01 24.47,338.76 18.85,320.52 14.79,301.7 L 11.72,286.18 9.53,271.99 7.21,252.82 5.7,237.07 C 4.89,227.92 4.37,219.01 3.79,209.63 L 2.63,185.42 2,163.85 h 27.04 c 0.06,0.06 0.35,-0.14 0.17,-0.26 -1.1,-7.93 -2.6,-15.75 -4.22,-23.45 l -3.77,-15.81 c -1.27,-4.98 -2.66,-9.96 -4.11,-14.94 1.39,-0.69 3.13,-1.1 4.69,-1.56 -1.22,-5.85 -2.49,-11.81 -3.24,-17.78 -0.41,-3.47 1.62,-6.72 4.52,-8.57 6.25,-3.42 13.83,-3.88 20.96,-4.69 9.61,-0.58 19.11,-0.29 28.6,0.52 9.61,-4.86 21.78,-3.07 32.49,-2.37 4.51,0.46 9.03,1.16 13.43,1.68 -6.31,-5.33 -8.68,-14.31 -5.96,-21.95 1.79,-5.56 7.23,-10.71 12.68,-12.51 l 0.17,-0.29 V 26.35 h -11.17 c -0.06,-3.53 -0.06,-7.44 0,-11.32 H 125.6 V 3.57 Z M 98.58,83.22 c -4.34,0.05 -9.32,-0.76 -13.03,1.5 -1.56,1.04 -2.78,2.49 -2.83,4.4 l 0.58,7.42 0.17,0.4 c 13.03,-1.79 27.27,-2.26 40.71,-2.31 l -0.23,-8.11 -0.18,-0.23 C 115.43,84.84 107.1,83.56 98.58,83.22 Z m 64.97,0.17 c -8.74,0.52 -16.73,1.45 -25.19,3.01 l -0.34,8.28 c 13.72,-0.05 27.21,0.81 40.65,2.49 0.35,-2.14 0.58,-4.28 0.75,-6.48 0.17,-0.93 0.06,-1.97 -0.23,-2.84 -1.74,-3.76 -6.14,-4.46 -9.9,-4.46 -1.97,-0.12 -3.94,0.23 -5.74,0 z M 43.98,86.4 c -3.53,0.52 -7.24,0.99 -10.31,2.67 -1.51,0.87 -2.66,2.43 -2.66,4.17 0.4,5.5 1.44,10.77 2.43,16.09 1.56,1.1 2.14,2.96 2.43,4.58 C 45.95,105.57 57.93,101.8 70.44,99.2 L 70.5,99.08 C 69.92,94.97 69.46,90.69 68.82,86.29 60.42,85.88 52.43,85.76 43.98,86.4 Z m 174.93,0.64 c -8.63,-0.87 -16.79,-0.7 -25.53,-0.29 L 191.7,99.6 c 12.5,2.61 24.78,6.55 34.97,14.94 0.23,-1.67 0.93,-3.47 2.43,-4.63 0.76,-3.76 1.51,-7.64 2.03,-11.46 0.23,-1.8 0.64,-3.53 0.46,-5.39 -0.4,-1.5 -1.68,-3.01 -3.12,-3.7 -2.96,-1.39 -6.37,-1.86 -9.56,-2.32"
     id="path3214" />
  <path
     fill="#fceb66"
     d="m 135.59,5.34 c -0.06,3.64 -0.06,7.67 0,11.43 h 11.35 v 7.96 c -3.65,0.06 -7.71,0 -11.41,0 v 17.14 c -1.57,-0.05 -3.36,-0.29 -5.04,-0.29 -1.16,0 -2.26,0.24 -3.42,0.41 l -0.05,-0.41 V 24.79 h -11.06 v -8.05 c 3.47,-0.11 7.44,0.18 11.14,-0.06 V 5.28 c 2.78,0.06 5.76,0 8.49,0.06"
     id="path3216" />
  <path
     fill="#fceb66"
     d="m 135.53,43.55 c -0.41,1.1 -1.22,2.14 -1.74,3.24 l -0.06,13.9 h 15.52 c 0.06,1.51 -0.11,3.04 -0.35,4.49 h -35.32 c -0.23,-1.39 -0.4,-2.98 -0.35,-4.49 h 15.2 V 46.68 c -0.52,-1.04 -1.18,-2.03 -1.59,-3.19 2.78,-0.69 5.85,-0.57 8.69,0.06"
     id="path3218" />
  <path
     fill="#fceb66"
     d="m 127.36,47.37 -0.05,12.05 c -4.58,0.06 -9.44,0.06 -13.96,0 0.46,-6.37 5.15,-12.63 11.12,-15 0.4,-0.06 1.04,-0.93 1.27,-0.17 l 1.62,3.12"
     id="path3220" />
  <path
     fill="#fceb66"
     d="m 148.9,57.57 0.35,1.91 c -4.75,0.11 -9.61,-0.06 -14.3,0 l 0.06,-12.4 1.91,-3.12 c 5.85,1.91 10.94,7.52 11.98,13.61"
     id="path3222" />
  <path
     fill="#fceb66"
     d="m 148.56,66.39 c -1.51,6.2 -7.36,11.5 -13.44,12.77 -6.08,1.51 -12.68,-0.52 -16.91,-5.26 -1.91,-2.26 -3.64,-4.67 -4.22,-7.51 l 34.51,0.03 0.06,-0.03"
     id="path3224" />
  <path
     fill="#fceb66"
     d="m 123.95,79.8 c -0.06,1.68 0.05,3.24 0.05,4.92 -11.23,-1.85 -22.64,-3.7 -34.04,-3.07 -3.31,0.52 -7.01,1.74 -8.46,5.16 -0.75,2.08 0.06,4.52 0,6.66 l 1.1,11.46 c -3.12,-0.23 -6.6,-0.29 -9.15,1.51 l -0.17,-0.35 c -0.93,-6.89 -2.2,-13.72 -2.95,-20.67 -0.12,-2.43 1.21,-4.87 3.41,-6.2 5.97,-3.76 14.07,-3.24 21.08,-3.07 9.9,0.29 19.63,1.68 29.13,3.65"
     id="path3226" />
  <path
     fill="#fceb66"
     d="m 181.33,76.96 c 2.84,0.41 5.62,1.34 7.99,3.19 2.14,1.62 3.01,4.28 2.49,7.01 l -2.95,19.8 c -0.7,-0.29 -1.28,-0.7 -1.91,-0.99 -2.09,-0.86 -5.1,-0.81 -7.41,-0.52 0.46,-5.67 1.27,-11.06 1.56,-16.73 -0.23,-3.3 -3.47,-5.45 -6.31,-6.31 -2.96,-0.81 -6.26,-0.58 -9.5,-0.64 -9.32,0.12 -18.12,1.62 -26.98,2.95 -0.29,-0.63 0.11,-1.5 0,-2.37 0.05,-0.87 0,-1.68 0.05,-2.49 12.74,-2.61 25.66,-3.94 39.15,-3.47 1.22,0.17 2.61,0.29 3.82,0.57"
     id="path3228" />
  <path
     fill="#fceb66"
     d="m 70.73,79.4 c -0.98,1.67 -1.97,3.3 -1.85,5.38 -6.72,-0.23 -13.44,-0.58 -20.27,-0.23 -4.57,0.11 -9.32,0.75 -13.55,2.03 -2.55,0.86 -5.27,2.78 -5.67,5.61 0,4.06 0.92,8.17 1.62,12.05 l 0.69,3.88 c -2.37,-1.05 -5.15,-1.05 -7.7,-0.76 -1.33,-5.73 -2.49,-11.75 -3.3,-17.6 0,-3.36 2.72,-6.2 5.73,-7.47 7.65,-3.13 16.04,-3.36 24.44,-3.76 6.77,-0.12 13.2,0.35 19.86,0.87"
     id="path3230" />
  <path
     fill="#fceb66"
     d="m 233.79,82.06 c 3.48,0.98 7.88,3.59 8.11,7.7 0.23,1.85 -0.41,3.53 -0.58,5.27 -0.75,4.46 -1.79,8.8 -2.72,13.2 -2.49,-0.46 -5.62,-0.29 -7.76,0.64 0.81,-5.15 2.09,-10.31 2.49,-15.63 -0.29,-3.07 -3.3,-5.33 -6.02,-6.08 -9.85,-2.84 -20.39,-2.32 -30.58,-2.09 l -3.35,0.12 c 0.05,-2.09 -0.82,-3.77 -1.86,-5.39 12.68,-1.21 25.94,-1.21 38.05,1.1 l 4.22,1.16"
     id="path3232" />
  <path
     fill="#fceb66"
     d="m 136.57,80.38 c 0.29,1.91 -0.23,3.88 -0.06,6.08 -0.11,5.73 -0.4,11.41 -0.87,17.14 -2.89,-0.87 -6.37,-0.87 -9.32,0.06 -0.64,-7.88 -0.87,-15.58 -0.75,-23.4 3.65,0.93 7.29,0.93 11,0.12"
     id="path3234" />
  <path
     fill="#fceb66"
     d="m 138.65,108.12 c 2.84,5.21 -2.37,9.26 -4.63,13.37 0.41,0.93 0.99,1.86 1.57,2.72 1.62,-1.1 2.77,-2.72 4.57,-3.76 2.08,-1.51 4.46,-3.24 7.18,-2.37 3.59,2.08 4.52,6.31 4.11,10.3 -0.29,2.73 -1.56,5.62 -4.22,6.66 -4.7,1.22 -8.17,-3.18 -11.3,-6.08 l -0.81,-0.75 c -0.81,0.81 -1.27,1.91 -1.91,2.84 2.55,4.98 4.69,10.13 8.28,14.65 2.9,1.74 6.31,1.85 9.67,2.32 4.63,0.28 9.56,0.34 14.07,-0.18 2.44,-0.29 4.87,-0.75 6.95,-2.03 2.67,-3.12 4.05,-6.89 5.97,-10.42 l 1.5,-3.3 c -0.63,-0.93 -1.21,-2.03 -1.91,-2.95 -2.66,3.12 -5.91,6.25 -10.19,6.42 -1.56,0 -2.95,-1.04 -3.88,-2.25 -1.91,-3.36 -1.8,-7.99 -0.58,-11.64 0.81,-2.32 3.3,-3.48 5.68,-3.42 3.64,1.04 6.6,4.11 9.38,6.78 l 0.17,-0.06 1.33,-3.13 c -2.55,-3.71 -7.12,-7.82 -4.17,-12.68 2.2,-3.07 6.6,-2.95 9.96,-2.37 2.03,0.57 4.34,2.14 4.81,4.34 0.75,4.11 -2.03,7.64 -4.81,10.59 l 1.33,3.25 h 0.29 c 3.54,-2.78 7.24,-6.37 11.99,-5.16 3.13,1.57 3.76,5.16 3.82,8.34 -0.06,3.3 -2.08,6.37 -5.09,7.7 -4.58,1.57 -7.65,-2.78 -10.54,-5.73 -0.29,-0.35 -0.52,-0.75 -0.93,-1.1 -0.75,0.81 -1.27,1.91 -1.85,2.84 2.31,4.51 4.51,8.97 7.52,13.14 1.8,2.03 4.46,2.26 7.01,2.73 7.24,1.1 15.23,1.04 22.3,-0.64 1.15,-0.46 2.6,-0.64 3.35,-1.85 2.61,-3.6 4.64,-7.36 6.72,-11.12 -0.4,-1.05 -1.04,-1.91 -1.56,-2.9 h -0.29 c -2.72,2.49 -5.68,4.63 -9.09,5.5 -2.49,0.29 -4.87,-0.64 -6.14,-2.72 -1.91,-3.76 -1.51,-8.8 0.46,-12.45 1.62,-2.32 4.69,-2.37 7.07,-1.68 3.35,1.22 5.96,4.11 8.28,6.89 0.81,-0.87 1.56,-1.73 2.37,-2.66 -2.37,-3.36 -5.62,-7.53 -3.36,-11.81 2.32,-3.48 7.3,-3.19 10.83,-2.32 1.16,0.23 2.32,0.7 3.42,1.1 l -3.19,10.65 -4.4,16.97 c -1.97,8.46 -3.59,16.97 -4.92,25.42 H 31.35 c -0.46,-2.08 -0.69,-4.57 -1.1,-6.54 -2.6,-15.98 -6.31,-31.91 -11,-47.25 4.17,-1.51 9.62,-2.9 13.38,0.4 1.21,1.34 1.85,3.01 1.5,4.87 -0.57,3.01 -2.31,5.38 -4.17,7.76 l 2.26,2.78 h 0.18 c 2.31,-2.78 4.75,-5.39 7.93,-6.84 1.8,-0.58 4.17,-0.69 5.79,0.41 3.07,2.31 3.07,6.54 2.95,10.02 -0.29,2.43 -1.44,5.03 -3.82,5.96 -2.08,0.98 -4.46,0.46 -6.31,-0.58 -2.2,-1.22 -4.34,-2.89 -6.14,-4.63 l -0.17,0.06 -1.74,2.78 c 1.8,3.64 3.88,7.18 6.08,10.59 1.1,2.49 3.88,2.44 5.97,3.07 7.64,1.45 16.33,1.45 23.97,-0.58 3.76,-1.04 4.81,-5.21 7.01,-8.05 l 3.65,-6.71 c -0.53,-1.04 -1.16,-1.97 -1.74,-2.96 -3.19,3.25 -6.49,7.99 -11.47,6.95 -3.01,-1.1 -5.09,-4.46 -5.15,-7.64 -0.06,-3.07 0.52,-6.14 2.95,-8.22 1.85,-1.05 4.11,-0.53 5.91,0.11 2.6,1.22 4.8,3.13 7.06,4.87 l 0.18,-0.12 1.27,-3.13 c -2.84,-3.36 -6.6,-7.7 -4.05,-12.21 2.25,-3.19 6.6,-3.48 10.07,-2.78 1.62,0.29 3.3,1.21 4.11,2.83 0.64,1.51 1.1,3.65 0.23,5.21 -1.04,2.55 -3.01,4.69 -4.63,7.01 0.46,1.04 0.75,2.26 1.39,3.24 2.72,-2.54 5.33,-5.32 8.69,-6.6 1.16,-0.35 2.37,0.12 3.47,0.35 3.59,1.45 3.88,5.62 3.82,9.15 -0.23,2.78 -0.86,5.91 -3.64,7.18 -4.93,1.74 -8.81,-2.49 -11.82,-6.02 h -0.11 l -1.86,3.01 c 1.97,4.34 3.94,8.74 6.49,12.85 1.22,1.63 3.13,1.97 4.92,2.44 8.05,1.5 17.37,1.33 25.31,-0.7 2.83,-0.98 3.53,-4.23 5.09,-6.43 l 4.46,-8.97 c -0.52,-0.99 -1.16,-1.91 -1.74,-2.84 -3.24,3.01 -6.6,7.59 -11.52,6.89 -2.95,-0.93 -4.52,-3.99 -4.75,-6.95 -0.34,-3.7 0.52,-7.87 3.88,-10.02 2.67,-1.21 5.33,0.64 7.47,2.2 1.68,1.16 2.9,2.61 4.46,3.88 0.58,-0.92 1.16,-1.85 1.51,-2.83 -2.44,-4.23 -7.65,-8.92 -3.88,-14.07 2.72,-3.25 7.64,-3.25 11.46,-1.97 1.33,0.58 2.43,1.56 3.24,2.78"
     id="path3236" />
  <path
     fill="#e4474a"
     d="m 124.18,96.65 0.11,0.18 c 0.06,2.66 0.24,5.03 0.35,7.58 -2.43,1.97 -4.05,4.69 -3.53,7.88 0.81,3.35 2.95,6.19 5.04,8.97 -0.12,0.23 -0.12,0.46 -0.29,0.58 -2.78,-2.61 -5.68,-5.1 -9.33,-5.73 -2.31,-0.35 -4.34,1.27 -5.55,3.18 -2.38,3.77 -2.78,9.79 -0.35,13.73 1.04,1.96 3.07,3.7 5.33,3.76 4.22,-0.06 7.41,-3.53 10.48,-6.25 0.23,0.11 0.29,0.4 0.46,0.63 -2.03,4.17 -3.88,8.46 -6.54,12.4 -1.39,1.91 -3.83,1.62 -5.79,2.25 -7.18,1.22 -14.48,1.1 -21.43,-0.34 -3.94,-0.64 -4.75,-4.98 -6.49,-7.76 l -2.66,-6.14 c 0.06,-0.17 0.17,-0.35 0.35,-0.52 2.89,3.3 6.66,6.31 11.29,5.5 3.19,-0.93 4.98,-4.23 5.39,-7.41 0.4,-4.35 0.17,-9.56 -4.06,-11.93 -2.02,-1.16 -4.92,-0.93 -6.83,0.35 -2.26,1.33 -4,3.18 -5.97,5.03 -0.81,-0.69 0.18,-1.15 0.47,-1.73 2.37,-3.19 5.44,-6.78 3.99,-11 -0.63,-1.92 -2.43,-3.6 -4.28,-4.29 -0.35,-0.29 -0.18,-0.75 -0.29,-1.1 -0.18,-1.74 -0.35,-3.71 -0.46,-5.56 13.08,-1.68 26.46,-2.55 40.01,-2.32 l 0.58,0.06"
     id="path3238" />
  <path
     fill="#e4474a"
     d="m 178.49,99.2 c -0.23,2.2 -0.17,4.4 -0.69,6.54 -2.09,0.7 -4.17,2.78 -4.75,4.93 -0.93,4.69 2.61,8.1 5.04,11.58 -0.12,0.23 -0.12,0.46 -0.29,0.63 -3.59,-3.24 -7.7,-8.1 -12.91,-5.5 -4.46,2.67 -4.4,8.28 -3.83,12.97 0.47,2.67 2.21,5.45 4.93,6.37 4.63,0.93 8.57,-2.08 11.52,-5.38 0.35,0.23 0.46,0.81 0.17,1.16 -1.73,3.53 -3.18,7.23 -5.27,10.53 -1.39,2.44 -4.11,2.67 -6.54,3.19 -4.63,0.52 -9.27,0.81 -13.96,0.35 -3.06,-0.35 -6.42,-0.76 -9.26,-2.03 -2.66,-2.84 -4.05,-6.25 -5.91,-9.5 l -1.79,-3.82 c 0.06,-0.29 0.23,-0.52 0.46,-0.69 3.71,3.07 7.7,7.99 12.97,5.67 3.48,-2.2 4.75,-6.25 4.58,-10.19 -0.18,-3.76 -1.51,-7.76 -5.1,-9.55 -3.82,-0.93 -7.12,1.56 -10.02,3.82 l -1.68,1.62 -0.4,-0.58 c 2.66,-3.65 6.54,-7.53 5.09,-12.51 -0.63,-1.68 -1.91,-3.12 -3.35,-4.28 0.11,-2.55 0.34,-5.16 0.4,-7.82 6.08,-0.29 12.16,0.06 18.07,0.29 7.35,0.46 15.23,1.27 22.52,2.2"
     id="path3240" />
  <path
     fill="#e4474a"
     d="m 71.83,107.6 c -1.85,2.02 -2.26,4.86 -1.39,7.35 0.87,2.61 2.78,4.92 4.58,6.89 l -0.35,0.81 c -3.48,-2.84 -7.82,-6.54 -12.62,-4.63 -3.77,2.2 -4.06,6.66 -4.12,10.65 0.12,0.64 0.12,1.22 0.29,1.86 0.58,2.43 2.15,5.27 4.81,6.19 5.15,2.2 9.38,-2.37 12.57,-5.96 0.29,0.11 0.23,0.46 0.4,0.64 -2.2,4.22 -4.34,8.57 -7.47,12.33 -2.08,1.74 -4.98,1.85 -7.47,2.37 -5.56,0.58 -11.41,0.58 -17.08,-0.34 -2.14,-0.58 -4.81,-0.7 -6.08,-3.07 -1.97,-2.9 -3.53,-6.03 -5.21,-9.09 -0.06,-0.35 0.17,-0.53 0.34,-0.81 h 0.24 c 3.18,2.83 6.83,5.79 11.35,4.68 2.54,-0.52 4.92,-3.06 5.44,-5.55 0.87,-3.59 0.58,-7.42 -0.87,-10.72 -1.33,-2.55 -4.11,-4.17 -7.06,-3.82 -4,0.46 -7.01,3.59 -9.79,6.55 -0.23,0 -0.23,-0.29 -0.41,-0.47 1.39,-2.2 2.96,-4.28 3.71,-6.83 10.02,-8.8 22.29,-13.15 35.15,-15.46 l 1.04,6.43"
     id="path3242" />
  <path
     fill="#e4474a"
     d="m 226.67,117.15 c 0.81,2.49 2.32,4.69 3.82,6.89 -0.05,0.17 -0.11,0.41 -0.34,0.52 -3.36,-3.47 -7.42,-7.87 -12.63,-6.43 -1.1,0.29 -1.97,0.87 -2.89,1.51 -3.13,3.53 -3.48,8.63 -2.44,13.09 0.64,2.43 2.78,4.74 5.22,5.32 4.51,1.16 8.51,-1.97 11.92,-4.69 0.76,0.58 -0.05,1.34 -0.23,1.91 -1.91,3.31 -3.53,6.78 -6.31,9.62 -3.93,1.74 -8.1,1.97 -12.51,2.08 -5.44,-0.06 -11.29,-0.11 -16.15,-2.14 -2.49,-1.85 -3.53,-4.75 -5.1,-7.24 l -3.01,-5.67 0.29,-0.87 c 3.13,3.36 6.78,7.93 11.76,6.37 3.47,-0.87 5.67,-4.46 5.96,-7.82 0.23,-4.11 -0.12,-8.92 -3.99,-11.12 -4.75,-1.97 -9.1,1.57 -12.57,4.52 -1.16,-1.22 1.16,-2.09 1.5,-3.13 2.03,-2.55 3.77,-5.85 2.78,-9.2 -0.23,-1.05 -0.92,-1.86 -1.5,-2.67 0.29,-2.14 0.75,-4.34 1.16,-6.43 12.91,2.44 25.07,6.78 35.26,15.58"
     id="path3244" />
  <path
     style="fill:#fceb66;fill-opacity:1"
     fill="#e4474a"
     d="m 258.23,165.94 c 0,0 -3.82,90.47 -12.33,132.63 -6.55,31.73 -17.55,61.73 -36.6,88.19 -17.78,23.39 -39.96,45.57 -63.18,63.7 -5.27,3.93 -10.3,7.64 -15.8,10.88 -5.39,-3.01 -10.25,-7.29 -15.29,-10.77 C 98.41,438.12 82.89,422.83 68.82,407.14 55.56,392.38 44.21,376.45 35.99,359.26 22.38,331.11 15.08,300.42 10.91,268.52 L 8.66,249.23 C 5.82,221.67 4.6,193.32 3.91,165.94 h 254.32"
     id="path3246" />
  <path
     id="path1009"
     style="fill:#e4474a;fill-opacity:1;stroke:#000000;stroke-width:1;stroke-miterlimit:4;stroke-dasharray:none"
     d="m 245.52,173.1633 c -0.17146,2.945 0.9032,5.53239 -0.0531,8.46103 -0.37201,1.13928 -1.24435,2.00945 -2.26527,2.63239 -2.12908,1.29914 -2.8194,4.95424 -1.57188,7.11425 1.26022,2.18197 4.19688,3.08537 6.45686,1.97092 2.01494,-0.99362 2.91283,-3.21242 2.93565,-5.45907 0.0379,-3.73593 -2.48732,-5.75566 -3.03676,-10.40547 -0.20972,-1.77475 0.92411,-3.69707 0.60769,-5.49449 -0.368,-2.09044 -2.93212,-1.24321 -3.07323,1.18044 z" />
  <path
     d="m 239.52,243.1633 c -0.17146,2.945 0.9032,5.53239 -0.0531,8.46103 -0.37201,1.13928 -1.24435,2.00945 -2.26527,2.63239 -2.12908,1.29914 -2.8194,4.95424 -1.57188,7.11425 1.26022,2.18197 4.19688,3.08537 6.45686,1.97092 2.01494,-0.99362 2.91283,-3.21242 2.93565,-5.45907 0.0379,-3.73593 -2.48732,-5.75566 -3.03676,-10.40547 -0.20972,-1.77475 0.92411,-3.69707 0.60769,-5.49449 -0.368,-2.09044 -2.93212,-1.24321 -3.07323,1.18044 z"
     style="fill:#e4474a;fill-opacity:1;stroke:#000000;stroke-width:1;stroke-miterlimit:4;stroke-dasharray:none"
     id="path1011" />
  <path
     id="path1013"
     style="fill:#e4474a;fill-opacity:1;stroke:#000000;stroke-width:1;stroke-miterlimit:4;stroke-dasharray:none"
     d="m 223.52,207.1633 c -0.17146,2.945 0.9032,5.53239 -0.0531,8.46103 -0.37201,1.13928 -1.24435,2.00945 -2.26527,2.63239 -2.12908,1.29914 -2.8194,4.95424 -1.57188,7.11425 1.26022,2.18197 4.19688,3.08537 6.45686,1.97092 2.01494,-0.99362 2.91283,-3.21242 2.93565,-5.45907 0.0379,-3.73593 -2.48732,-5.75566 -3.03676,-10.40547 -0.20972,-1.77475 0.92411,-3.69707 0.60769,-5.49449 -0.368,-2.09044 -2.93212,-1.24321 -3.07323,1.18044 z" />
  <path
     d="m 211.52,275.1633 c -0.17146,2.945 0.9032,5.53239 -0.0531,8.46103 -0.37201,1.13928 -1.24435,2.00945 -2.26527,2.63239 -2.12908,1.29914 -2.8194,4.95424 -1.57188,7.11425 1.26022,2.18197 4.19688,3.08537 6.45686,1.97092 2.01494,-0.99362 2.91283,-3.21242 2.93565,-5.45907 0.0379,-3.73593 -2.48732,-5.75566 -3.03676,-10.40547 -0.20972,-1.77475 0.92411,-3.69707 0.60769,-5.49449 -0.368,-2.09044 -2.93212,-1.24321 -3.07323,1.18044 z"
     style="fill:#e4474a;fill-opacity:1;stroke:#000000;stroke-width:1;stroke-miterlimit:4;stroke-dasharray:none"
     id="path1015" />
  <path
     id="path1017"
     style="fill:#e4474a;fill-opacity:1;stroke:#000000;stroke-width:1;stroke-miterlimit:4;stroke-dasharray:none"
     d="m 223.52,315.1633 c -0.17146,2.945 0.9032,5.53239 -0.0531,8.46103 -0.37201,1.13928 -1.24435,2.00945 -2.26527,2.63239 -2.12908,1.29914 -2.8194,4.95424 -1.57188,7.11425 1.26022,2.18197 4.19688,3.08537 6.45686,1.97092 2.01494,-0.99362 2.91283,-3.21242 2.93565,-5.45907 0.0379,-3.73593 -2.48732,-5.75566 -3.03676,-10.40547 -0.20972,-1.77475 0.92411,-3.69707 0.60769,-5.49449 -0.368,-2.09044 -2.93212,-1.24321 -3.07323,1.18044 z" />
  <path
     d="m 187.52,339.1633 c -0.17146,2.945 0.9032,5.53239 -0.0531,8.46103 -0.37201,1.13928 -1.24435,2.00945 -2.26527,2.63239 -2.12908,1.29914 -2.8194,4.95424 -1.57188,7.11425 1.26022,2.18197 4.19688,3.08537 6.45686,1.97092 2.01494,-0.99362 2.91283,-3.21242 2.93565,-5.45907 0.0379,-3.73593 -2.48732,-5.75566 -3.03676,-10.40547 -0.20972,-1.77475 0.92411,-3.69707 0.60769,-5.49449 -0.368,-2.09044 -2.93212,-1.24321 -3.07323,1.18044 z"
     style="fill:#e4474a;fill-opacity:1;stroke:#000000;stroke-width:1;stroke-miterlimit:4;stroke-dasharray:none"
     id="path1019" />
  <path
     id="path1021"
     style="fill:#e4474a;fill-opacity:1;stroke:#000000;stroke-width:1;stroke-miterlimit:4;stroke-dasharray:none"
     d="m 173.52,385.1633 c -0.17146,2.945 0.9032,5.53239 -0.0531,8.46103 -0.37201,1.13928 -1.24435,2.00945 -2.26527,2.63239 -2.12908,1.29914 -2.8194,4.95424 -1.57188,7.11425 1.26022,2.18197 4.19688,3.08537 6.45686,1.97092 2.01494,-0.99362 2.91283,-3.21242 2.93565,-5.45907 0.0379,-3.73593 -2.48732,-5.75566 -3.03676,-10.40547 -0.20972,-1.77475 0.92411,-3.69707 0.60769,-5.49449 -0.368,-2.09044 -2.93212,-1.24321 -3.07323,1.18044 z" />
  <path
     d="m 129.52,429.1633 c -0.17146,2.945 0.9032,5.53239 -0.0531,8.46103 -0.37201,1.13928 -1.24435,2.00945 -2.26527,2.63239 -2.12908,1.29914 -2.8194,4.95424 -1.57188,7.11425 1.26022,2.18197 4.19688,3.08537 6.45686,1.97092 2.01494,-0.99362 2.91283,-3.21242 2.93565,-5.45907 0.0379,-3.73593 -2.48732,-5.75566 -3.03676,-10.40547 -0.20972,-1.77475 0.92411,-3.69707 0.60769,-5.49449 -0.368,-2.09044 -2.93212,-1.24321 -3.07323,1.18044 z"
     style="fill:#e4474a;fill-opacity:1;stroke:#000000;stroke-width:1;stroke-miterlimit:4;stroke-dasharray:none"
     id="path1023" />
  <path
     id="path1025"
     style="fill:#e4474a;fill-opacity:1;stroke:#000000;stroke-width:1;stroke-miterlimit:4;stroke-dasharray:none"
     d="m 81.52,387.1633 c -0.17146,2.945 0.9032,5.53239 -0.0531,8.46103 -0.37201,1.13928 -1.24435,2.00945 -2.26527,2.63239 -2.12908,1.29914 -2.8194,4.95424 -1.57188,7.11425 1.26022,2.18197 4.19688,3.08537 6.45686,1.97092 2.01494,-0.99362 2.91283,-3.21242 2.93565,-5.45907 0.0379,-3.73593 -2.48732,-5.75566 -3.03676,-10.40547 -0.20972,-1.77475 0.92411,-3.69707 0.60769,-5.49449 -0.368,-2.09044 -2.93212,-1.24321 -3.07323,1.18044 z" />
  <path
     d="m 107.52,357.1633 c -0.17146,2.945 0.9032,5.53239 -0.0531,8.46103 -0.37201,1.13928 -1.24435,2.00945 -2.26527,2.63239 -2.12908,1.29914 -2.8194,4.95424 -1.57188,7.11425 1.26022,2.18197 4.19688,3.08537 6.45686,1.97092 2.01494,-0.99362 2.91283,-3.21242 2.93565,-5.45907 0.0379,-3.73593 -2.48732,-5.75566 -3.03676,-10.40547 -0.20972,-1.77475 0.92411,-3.69707 0.60769,-5.49449 -0.368,-2.09044 -2.93212,-1.24321 -3.07323,1.18044 z"
     style="fill:#e4474a;fill-opacity:1;stroke:#000000;stroke-width:1;stroke-miterlimit:4;stroke-dasharray:none"
     id="path1027" />
  <path
     id="path1029"
     style="fill:#e4474a;fill-opacity:1;stroke:#000000;stroke-width:1;stroke-miterlimit:4;stroke-dasharray:none"
     d="m 69.52,339.1633 c -0.17146,2.945 0.9032,5.53239 -0.0531,8.46103 -0.37201,1.13928 -1.24435,2.00945 -2.26527,2.63239 -2.12908,1.29914 -2.8194,4.95424 -1.57188,7.11425 1.26022,2.18197 4.19688,3.08537 6.45686,1.97092 2.01494,-0.99362 2.91283,-3.21242 2.93565,-5.45907 0.0379,-3.73593 -2.48732,-5.75566 -3.03676,-10.40547 -0.20972,-1.77475 0.92411,-3.69707 0.60769,-5.49449 -0.368,-2.09044 -2.93212,-1.24321 -3.07323,1.18044 z" />
  <path
     d="m 35.52,313.1633 c -0.17146,2.945 0.9032,5.53239 -0.0531,8.46103 -0.37201,1.13928 -1.24435,2.00945 -2.26527,2.63239 -2.12908,1.29914 -2.8194,4.95424 -1.57188,7.11425 1.26022,2.18197 4.19688,3.08537 6.45686,1.97092 2.01494,-0.99362 2.91283,-3.21242 2.93565,-5.45907 0.0379,-3.73593 -2.48732,-5.75566 -3.03676,-10.40547 -0.20972,-1.77475 0.92411,-3.69707 0.60769,-5.49449 -0.368,-2.09044 -2.93212,-1.24321 -3.07323,1.18044 z"
     style="fill:#e4474a;fill-opacity:1;stroke:#000000;stroke-width:1;stroke-miterlimit:4;stroke-dasharray:none"
     id="path1031" />
  <path
     id="path1033"
     style="fill:#e4474a;fill-opacity:1;stroke:#000000;stroke-width:1;stroke-miterlimit:4;stroke-dasharray:none"
     d="m 47.52,275.1633 c -0.17146,2.945 0.9032,5.53239 -0.0531,8.46103 -0.37201,1.13928 -1.24435,2.00945 -2.26527,2.63239 -2.12908,1.29914 -2.8194,4.95424 -1.57188,7.11425 1.26022,2.18197 4.19688,3.08537 6.45686,1.97092 2.01494,-0.99362 2.91283,-3.21242 2.93565,-5.45907 0.0379,-3.73593 -2.48732,-5.75566 -3.03676,-10.40547 -0.20972,-1.77475 0.92411,-3.69707 0.60769,-5.49449 -0.368,-2.09044 -2.93212,-1.24321 -3.07323,1.18044 z" />
  <path
     d="m 19.52,241.1633 c -0.17146,2.945 0.9032,5.53239 -0.0531,8.46103 -0.37201,1.13928 -1.24435,2.00945 -2.26527,2.63239 -2.12908,1.29914 -2.8194,4.95424 -1.57188,7.11425 1.26022,2.18197 4.19688,3.08537 6.45686,1.97092 2.01494,-0.99362 2.91283,-3.21242 2.93565,-5.45907 0.0379,-3.73593 -2.48732,-5.75566 -3.03676,-10.40547 -0.20972,-1.77475 0.92411,-3.69707 0.60769,-5.49449 -0.368,-2.09044 -2.93212,-1.24321 -3.07323,1.18044 z"
     style="fill:#e4474a;fill-opacity:1;stroke:#000000;stroke-width:1;stroke-miterlimit:4;stroke-dasharray:none"
     id="path1035" />
  <path
     id="path1037"
     style="fill:#e4474a;fill-opacity:1;stroke:#000000;stroke-width:1;stroke-miterlimit:4;stroke-dasharray:none"
     d="m 13.52,173.1633 c -0.17146,2.945 0.9032,5.53239 -0.0531,8.46103 -0.37201,1.13928 -1.24435,2.00945 -2.26527,2.63239 -2.12908,1.29914 -2.8194,4.95424 -1.57188,7.11425 1.26022,2.18197 4.19688,3.08537 6.45686,1.97092 2.01494,-0.99362 2.91283,-3.21242 2.93565,-5.45907 0.0379,-3.73593 -2.48732,-5.75566 -3.03676,-10.40547 -0.20972,-1.77475 0.92411,-3.69707 0.60769,-5.49449 -0.368,-2.09044 -2.93212,-1.24321 -3.07323,1.18044 z" />
  <path
     d="m 61.52,171.1633 c -0.17146,2.945 0.9032,5.53239 -0.0531,8.46103 -0.37201,1.13928 -1.24435,2.00945 -2.26527,2.63239 -2.12908,1.29914 -2.8194,4.95424 -1.57188,7.11425 1.26022,2.18197 4.19688,3.08537 6.45686,1.97092 2.01494,-0.99362 2.91283,-3.21242 2.93565,-5.45907 0.0379,-3.73593 -2.48732,-5.75566 -3.03676,-10.40547 -0.20972,-1.77475 0.92411,-3.69707 0.60769,-5.49449 -0.368,-2.09044 -2.93212,-1.24321 -3.07323,1.18044 z"
     style="fill:#e4474a;fill-opacity:1;stroke:#000000;stroke-width:1;stroke-miterlimit:4;stroke-dasharray:none"
     id="path1039" />
  <path
     id="path1041"
     style="fill:#e4474a;fill-opacity:1;stroke:#000000;stroke-width:1;stroke-miterlimit:4;stroke-dasharray:none"
     d="m 37.52,205.1633 c -0.17146,2.945 0.9032,5.53239 -0.0531,8.46103 -0.37201,1.13928 -1.24435,2.00945 -2.26527,2.63239 -2.12908,1.29914 -2.8194,4.95424 -1.57188,7.11425 1.26022,2.18197 4.19688,3.08537 6.45686,1.97092 2.01494,-0.99362 2.91283,-3.21242 2.93565,-5.45907 0.0379,-3.73593 -2.48732,-5.75566 -3.03676,-10.40547 -0.20972,-1.77475 0.92411,-3.69707 0.60769,-5.49449 -0.368,-2.09044 -2.93212,-1.24321 -3.07323,1.18044 z" />
  <path
     style="fill:#e4474a;fill-opacity:1;stroke:#000000;stroke-width:1px;stroke-linecap:butt;stroke-linejoin:miter;stroke-opacity:1"
     d="m 71.72776,271.76124 c -0.86416,4.54659 -6.93243,2.91626 -13.84231,-10.45236 -5.37026,-10.3899 -5.16055,-20.71638 -3.10745,-31.07457 -1.14315,-4.10824 0.50545,-7.65813 3.10745,-11.01734 -2.11147,-4.03359 0.29657,-6.77588 3.38996,-9.32237 6.83564,-6.21492 11.62844,-12.42983 22.59968,-18.64475 7.3792,-5.36374 15.78816,-10.4823 38.70197,-12.14733 34.13536,-16.85889 64.39718,-2.7295 94.0712,16.10228 -6.12841,92.46711 -32.98124,142.10375 -61.30166,188.70739 C 129.15,351.67742 105.11287,318.57887 86.41756,283.34358 Z"
     id="path1043" />
  <path
     style="fill:none;stroke:#000000;stroke-width:1px;stroke-linecap:butt;stroke-linejoin:miter;stroke-opacity:1"
     d="m 122.57706,179.10252 c 16.52227,0.93271 16.09775,6.48385 24.12828,7.78266 5.25924,0.8506 13.63663,-1.64932 16.42392,0.50449"
     id="path1045" />
  <path
     style="fill:#000000;stroke:none;stroke-width:0.5;stroke-linecap:butt;stroke-linejoin:miter;stroke-miterlimit:4;stroke-dasharray:none;stroke-opacity:1"
     d="m 57.68385,214.40584 c 1.09533,-2.2813 3.49973,-3.88794 5.47359,-3.11899 1.39119,0.54195 2.45361,1.60861 2.43653,8.57281 1.20872,-23.5235 16.4081,-12.15168 24.3132,-16.40309 -8.06367,2.27634 -18.34614,-6.36695 -24.18831,6.82768 -2.4345,-1.55212 -6.65081,-1.12328 -8.03501,4.12159 z"
     id="path1047" />
  <path
     id="path1049"
     style="fill:#000000;fill-opacity:1;stroke:none;stroke-width:0.2;stroke-miterlimit:4;stroke-dasharray:none"
     d="m 73.79933,206.19531 a 2.3105872,3.4138405 30 0 0 -2.82227,2.01758 2.3105872,3.4138405 30 0 0 -0.25781,3.58203 1.005237,1.745636 18.341606 0 1 0.25781,-1.33398 1.005237,1.745636 18.341606 0 1 1.55274,-0.95703 1.005237,1.745636 18.341606 0 1 0.12304,2.18554 1.005237,1.745636 18.341606 0 1 -0.63476,0.84961 2.3105872,3.4138405 30 0 0 2.96093,-2.01562 2.3105872,3.4138405 30 0 0 -0.29296,-4.11133 2.3105872,3.4138405 30 0 0 -0.88672,-0.2168 z" />
  <path
     id="path1051"
     style="fill:#000000;fill-opacity:1;stroke:none;stroke-width:0.150322;stroke-miterlimit:4;stroke-dasharray:none"
     d="m 61.28175,213.8457 a 1.9018227,2.3456528 39.308755 0 0 -2.12695,1.27539 1.9018227,2.3456528 39.308755 0 0 -0.26563,2.08008 1.005237,1.745636 18.341606 0 1 1.49219,-0.83203 1.005237,1.745636 18.341606 0 1 0.26172,1.82031 1.9018227,2.3456528 39.308755 0 0 1.88672,-1.26367 1.9018227,2.3456528 39.308755 0 0 -0.45313,-2.88476 1.9018227,2.3456528 39.308755 0 0 -0.79492,-0.19532 z" />
  <path
     style="fill:#000000;stroke:none;stroke-width:1px;stroke-linecap:butt;stroke-linejoin:miter;stroke-opacity:1"
     d="m 85.91705,217.69799 c 20.23738,-5.25523 24.21631,9.94824 36.24351,13.31298 -12.74614,-0.19748 -16.03475,-14.87052 -36.24351,-13.31298 z"
     id="path1053" />
  <path
     style="fill:#000000;stroke:none;stroke-width:1px;stroke-linecap:butt;stroke-linejoin:miter;stroke-opacity:1"
     d="m 54.18339,233.5669 c 1.32836,-2.79339 3.31715,-5.49244 5.89612,-8.10717 -1.76717,1.0098 -3.53434,1.70702 -5.30151,4.77458"
     id="path1055" />
  <circle
     style="fill:#000000;fill-opacity:1;stroke:none;stroke-width:0.2;stroke-miterlimit:4;stroke-dasharray:none"
     id="circle1057"
     cx="58.571972"
     cy="235.87845"
     r="0.90451896" />
  <circle
     r="0.90451896"
     cy="231.40944"
     cx="78.437965"
     id="circle1059"
     style="fill:#000000;fill-opacity:1;stroke:none;stroke-width:0.2;stroke-miterlimit:4;stroke-dasharray:none" />
  <circle
     style="fill:#000000;fill-opacity:1;stroke:none;stroke-width:0.2;stroke-miterlimit:4;stroke-dasharray:none"
     id="circle1061"
     cx="86.437965"
     cy="233.40944"
     r="0.90451896" />
  <circle
     r="0.90451896"
     cy="234.41446"
     cx="95.700935"
     id="circle1063"
     style="fill:#000000;fill-opacity:1;stroke:none;stroke-width:0.2;stroke-miterlimit:4;stroke-dasharray:none" />
  <circle
     style="fill:#000000;fill-opacity:1;stroke:none;stroke-width:0.2;stroke-miterlimit:4;stroke-dasharray:none"
     id="circle1065"
     cx="104.37095"
     cy="240.74947"
     r="0.90451896" />
  <circle
     r="0.90451896"
     cy="246.48146"
     cx="112.046"
     id="circle1067"
     style="fill:#000000;fill-opacity:1;stroke:none;stroke-width:0.2;stroke-miterlimit:4;stroke-dasharray:none" />
  <path
     id="path1069"
     style="fill:#ffffff;stroke:#000000;stroke-width:1px;stroke-linecap:butt;stroke-linejoin:miter;stroke-opacity:1"
     d="m 71.72706,271.76172 c 2.66955,61.82718 14.16245,120.98001 43.08985,173.39453 1.71309,3.104 4.20662,2.06876 3.4121,0 C 95.37697,385.65465 90.0119,338.43719 91.78565,282.91406 c -0.0513,-0.064 -0.12137,-0.14024 -0.17382,-0.20508 -6.83491,-1.58159 -13.46611,-5.20316 -19.88477,-10.94726 z" />
  <path
     style="fill:#000000;stroke:none;stroke-width:1px;stroke-linecap:butt;stroke-linejoin:miter;stroke-opacity:1"
     d="m 71.72706,271.76172 c 29.30311,22.08051 68.61393,13.62426 84.2494,-29.08951 -7.53265,40.42396 -55.61653,56.80071 -84.2494,29.08951 z"
     id="path1071" />
  <path
     style="fill:#000000;stroke:none;stroke-width:1px;stroke-linecap:butt;stroke-linejoin:miter;stroke-opacity:1"
     d="m 127.34504,274.23506 c 13.00598,-7.0542 19.37171,-17.13728 19.46075,-30.08342 -3.02308,12.45249 -9.63967,22.38953 -19.46075,30.08342 z"
     id="path1073" />
  <path
     style="fill:#000000;stroke:none;stroke-width:1px;stroke-linecap:butt;stroke-linejoin:miter;stroke-opacity:1"
     d="m 77.03604,271.68562 v 0 c 6.70982,0.17536 12.08171,-1.78998 14.27688,-8.83807 -3.89596,4.45627 -8.56883,7.55295 -14.27688,8.83807 z"
     id="path1075" />
  <path
     id="path1077"
     style="fill:#ffffff;stroke:#000000;stroke-width:1px;stroke-linecap:butt;stroke-linejoin:miter;stroke-opacity:1"
     d="m 98.45948,261.86654 c 4.97583,65.97848 27.42791,132.81999 54.35743,173.28971 1.96406,2.9516 4.20662,2.06876 3.4121,0 -22.85204,-59.5016 -37.47828,-114.47458 -35.70453,-169.99771 -6.77817,-0.16866 -15.983,-1.70787 -22.065,-3.292 z" />
  <path
     style="fill:#000000;stroke:none;stroke-width:1px;stroke-linecap:butt;stroke-linejoin:miter;stroke-opacity:1"
     d="m 136.01315,258.17357 c -23.18273,23.52798 -59.59513,-18.10085 -63.80638,13.42825 -0.855933,2.85244 -3.574918,3.00235 -4.43085,1.49342 5.509033,-1.00888 -2.75622,-16.80716 -0.93765,-23.33483 3.86313,-13.86651 38.68209,29.22635 69.17488,8.41316 z"
     id="path1079" />
  <path
     id="path1081"
     style="fill:#000000;stroke:none;stroke-width:1px;stroke-linecap:butt;stroke-linejoin:miter;stroke-opacity:1"
     d="m 49.16213,269.4761 c 0.92356,-11.07447 2.47739,-21.63848 8.15822,-28.97867 0.42196,-0.54521 -0.34889,-2.611 -1.27472,-1.61464 -8.42859,9.07066 -7.10389,21.55609 -6.8835,30.59331 z m 6.28863,11.55747 c -1.99466,-21.01791 4.54967,-37.20735 4.50401,-37.81673 -0.0752,-1.00376 -1.47009,-1.43525 -1.78461,-0.67985 -5.34347,12.83379 -4.75229,25.72971 -2.7194,38.49658 z m 6.11866,2.80439 c -1.74698,-12.75957 -1.10468,-26.08668 2.20952,-41.04603 0.20192,-0.91139 -1.76448,-1.06781 -2.03956,0 -4.65123,18.05546 -2.73077,30.1641 -0.16996,41.04603 z m 5.26885,1.61465 c -0.77422,-6.5301 -1.20783,-13.05282 0.16996,-20.48053 0.17261,-0.93054 -2.063,-1.43035 -2.2945,-0.16996 -1.95894,10.66556 0.4505,15.64787 2.12454,20.65049 z m 16.74134,-10.36774 c -1.26936,-10.6506 1.34324,-19.87156 -12.15234,-37.22186 -0.96506,-1.24071 -2.84339,0.22127 -2.37948,0.84981 9.56066,12.95344 13.10734,24.49672 14.53182,36.37205 z m 6.71353,-0.50988 c 0.39527,-13.54408 -5.32796,-26.3164 -12.57725,-38.07168 -0.80691,-1.30847 -3.14032,0.28873 -2.54944,1.27472 6.82751,11.3929 13.13953,22.00926 15.12669,36.79696 z m 5.18387,-1.18974 c 0.15469,-16.19814 -4.28395,-25.23745 -9.26298,-34.84239 -0.48712,-0.93969 -3.35605,-0.59095 -2.63442,0.76483 5.17424,9.72122 10.06376,19.45419 11.8974,34.07756 z m 6.54357,-0.50989 c 1.77935,-14.93948 -4.45382,-25.53807 -9.51792,-35.43726 -0.68469,-1.33841 -2.50112,0.30528 -1.86959,1.35971 6.38957,10.66828 10.31054,22.04959 11.38751,34.07755 z m 5.18387,0.59487 c 2.09422,-10.72808 -1.77525,-22.09885 -5.60878,-31.1032 -0.69324,-1.62832 -2.99912,-0.0644 -2.46446,0.93479 4.36407,8.15592 7.38751,18.17072 8.07324,30.16841 z m 4.84394,0 c 3.26376,-5.39932 0.0807,-22.14985 -1.95458,-24.38967 -0.95925,-1.05565 -2.73803,-0.28899 -2.46446,0.42491 3.13048,8.16907 4.63314,15.90902 4.41904,23.96476 z m 5.69375,0 c 2.6585,-7.59167 2.15587,-15.42755 -0.93479,-22.77502 -0.44253,-1.05204 -2.61311,-0.2601 -2.20952,0.67985 2.99109,6.96613 3.83062,14.52894 3.14431,22.09517 z m 5.43881,-0.16997 c 2.63148,-5.97703 2.80344,-12.20069 0.42491,-17.93108 -0.4506,-1.08559 -1.90904,-0.017 -1.69963,0.50989 2.02861,5.1043 2.41927,11.26935 1.27472,17.42119 z" />
  <path
     style="fill:#000000;stroke:none;stroke-width:1px;stroke-linecap:butt;stroke-linejoin:miter;stroke-opacity:1"
     d="m 128.54812,199.22648 c 3.461,3.41658 7.15845,2.11501 9.23436,1.11336 -3.26126,0.26986 -6.33019,-0.1334 -9.23436,-1.11336 z"
     id="path1083" />
  <path
     style="fill:#000000;stroke:none;stroke-width:0.6;stroke-linecap:butt;stroke-linejoin:miter;stroke-miterlimit:4;stroke-dasharray:none;stroke-opacity:1"
     d="m 126.05909,195.29688 c 4.90447,3.37364 9.65796,3.87493 14.14649,-0.6543 -4.38708,0.41176 -9.06442,-4.36787 -14.14649,0.6543 z"
     id="path1085" />
  <path
     style="fill:#ffffff;stroke:none;stroke-width:0.6;stroke-linecap:butt;stroke-linejoin:miter;stroke-miterlimit:4;stroke-dasharray:none;stroke-opacity:1"
     d="m 138.33058,195.37888 c -3.62654,1.91638 -5.4357,2.58195 -9.36746,0.85067 -0.85268,-0.87778 -0.0986,-1.42601 0.51693,-1.88978 0.81152,1.72529 4.37926,1.88812 5.77084,0.67578 1.09045,0.31905 2.12588,0.55599 3.07969,0.36333 z"
     id="path1087" />
</svg>
