<svg xmlns="http://www.w3.org/2000/svg" width="528" height="600" viewBox="0 0 142.779 162.249"><path fill="#ed1c24" d="M1.4672.6665h140.637v93.835h-.001c0 .011.001.021.001.032 0 36.529-31.589 66.321-70.318 66.321-38.731 0-70.319-29.792-70.319-66.321v-.032z"/><path fill="#fff" fill-rule="evenodd" d="M72.5312 63.4502c-.063.458-.128.917-.191 1.376 1.43.49 2.698 1.136 3.38 2.338 2.08-1.22 3.842-2.697 5.094-4.587-2.761.291-5.521.582-8.283.873m-33.182-10.944c.567-.595 1.135-1.189 1.702-1.784 1.984.056 3.892-.193 5.767-.581.574 3.295-.05 6.15-1.577 8.671-1.452-.443-2.904-.885-4.356-1.327.311-1.951.034-3.693-1.536-4.979m-2.148-18.048c-1.292 1.468-2.585 2.936-3.878 4.404-1.511 1.753-3.022 3.505-4.534 5.257-.591.658-1.183 1.315-1.775 1.972-.745.942-1.489 1.884-2.234 2.826-.726 1.052-.457 2.103.263 3.155-.138 1.403-.509 2.769.854 4.403.762.47 1.559.557 2.432-.197.175-.635.35-1.27.525-1.906.745-.613 1.49-1.226 2.235-1.84.417.57.833 1.14 1.249 1.709-.372.394-.745.789-1.118 1.183l.592 1.183c-.241.197-.482.394-.723.592-.342 1.699.845 1.526 1.775 1.117 2.638-.221 4.58-1.379 4.995-4.601.834.656 1.323 1.485 1.051 2.695l-2.103 4.206c-1.224.092-1.943 1.065-2.049 2.07-.106 1.004.402 2.041 1.633 2.262.802.143 1.715-.217 2.322-1.177.411-.733.433-1.522.066-2.366 1.467.416 2.935.832 4.403 1.248-.416.767-.832 1.534-1.249 2.3-1.794.12-3.362 1.142-4.6 3.484-.877 1.336-1.753 2.673-2.629 4.009-1.215-1.197-2.706-2.036-4.431-2.644-1.031-.363-1.735-.531-2.324-.538-.861-.009-1.478.323-2.512.882-4.798 2.913-9.595 5.827-14.393 8.741-.772.698-1.447 1.445-1.775 2.366-1.467 3.658-2.935 7.318-4.403 10.976.197.722.394 1.445.591 2.169 1.118-.307 2.235-.614 3.352-.92-.532 1.374-.847 2.536-.997 3.714-.186 1.454-.121 2.93.094 4.856.263 2.343.418 4.684.706 7.006.482.547.964 1.095 1.446 1.643 2.497-2.827 4.995-5.653 7.492-8.479-.49-.604-1-1.088-1.547-1.498-.704-.528-1.47-.936-2.33-1.328-.39-1.679.226-2.883 1.189-2.951.577-.042 1.28.325 1.965 1.243 1.355-1.208 1.587-2.878 1.052-4.863 1.426-2.121 2.969-4.182 4.658-6.169 1.051-1.238 1.624-2.034 3.352-2.168 1.908-.15 2.833.996 3.667 2.502.669 1.206 1.112 2.547 1.27 4.059 2.41 3.112 4.82 6.223 7.23 9.333.418.568.976.995 1.84 1.117.81.076 1.621.081 2.431-.065.927-.384 1.581-.947 1.841-1.774 1.927.678 3.856 1.357 5.783 2.037l.92.46c-.175.438-.35.877-.525 1.314-1.147.003-2.085.457-2.564 1.906-4.773.326-8.96 2.457-12.289 7.23l2.037 1.512c1.283-1.897 2.872-2.493 4.601-2.498.022.416.043.833.066 1.249 2.803.262 5.607.525 8.412.789.131-.373.262-.746.394-1.119.942.264 1.926.61 2.868.873.263-.482.484-1.047.747-1.529 2.256.788 4.513 1.577 6.769 2.365-1.293.964-2.877 2.054-4.169 3.017 1.993-.087 4.279-.3 6.272-.388 1.38 1.863 2.761 3.725 4.141 5.587l-.854-6.967c1.599-.986 3.198-1.971 4.797-2.958-1.906-.065-3.812-.047-5.718-.113-1.095-1.533-2.19-3.15-3.285-4.683.043 1.445.087 2.891.13 4.336-2.387-.81-4.775-1.621-7.163-2.431.86-1.85 2.431-3.2 4.403-4.272 4.421 1.285 9.048 1.951 13.802 2.235.088 4.491.176 8.982.264 13.472-.051 3.955.733 7.668 3.351 10.845 2.141-2.72 2.928-6.437 2.957-10.713-.065-4.556-.131-9.113-.197-13.67.713.018 1.444.12 1.713.65.139.277.303.575.482.888.742 1.3.551 1.294 1.952.968 1.328-.308 2.732-.487 3.99-.534.08 2.047.58 3.722 1.531 5.054.952 1.333 2.357 2.324 4.248 3.006 2.567 1.345 4.648 2.793 6.327 4.361.896 1.948 1.45 3.921.788 5.981-1.406 2.51-2.773 5.009-4.345 7.471-.779 1.222-1.219 1.965-2.444 2.706-4.299 2.6-9.065 5.614-11.219 10.263-.088.722-.174 1.446-.262 2.169l4.995-.132v1.512c3.746.021 7.492.044 11.238.065.022-1.183.044-2.365.065-3.549 1.11-2.797 2.775-3.038 4.996-.722 1.2-1.332 1.948-2.932 2.037-4.93 3.308-5.236 6.616-10.472 9.925-15.707.585-.772.943-1.548 1.04-2.331.164-1.322-.243-2.192-.941-2.826-1.019-.928-2.659-1.352-4.043-1.942-1.433-.854-2.485-2.022-2.695-3.877.465-3.731 4.192-6.923 6.047-10.779.558-2.938.673-5.494.508-8.377.361.157.846.371 1.012.775 2.758 6.69 13.126 13.578 19.134 6.246-2.084.657-4.03.633-5.67-.155 9.448-1.647 6.307-12.201 8.209-14.321-.768-.469-1.551-.256-2.097.388-.472-5.113-5.53-8.807-7.295-13.211-.486.335-.875 1.06-1.249 1.84-3.967-4.885-4.391-9.771-3.022-14.655-4.102.822-6.014 5.535-6.112 13.472-1.387-1.936-1.534-4.491-1.578-7.097-1.868 3.355-3.397 6.733-.789 11.435 1.881 2.689 4.096 5.042 7.033 7.953.97 1.068 3.355 2.823 1.314 4.123-2.625.842-4.706.344-6.769-.705-4.191-2.534-7.828-5.542-11.239-8.741-2.614-1.93-5.465-3.148-8.413-4.076 1.157-1.938 2.539-3.905.067-5.389-.811-.263-1.622-.526-2.432-.789v-3.615c3.033 2.237 6.268 4.194 9.858 5.653 10.039-10.649 11.697-24.236 3.549-38.317-1.95.329-3.9.658-5.849.986-.899-1.516-2.87-1.86-4.995-2.037.26-.368.381-.937.197-1.415-5.508.763-.939-3.892-.113-5.011 1.511-2.046 1.383-3.636.358-5.434-1.226-2.039-2.715-3.897-4.386-5.491-2.231.095-4.386.877-6.507 1.972l-1.248-.854c-1.511 1.818-3.19 3.928-4.702 5.746.461.132 1.087-.028 1.756-.022-.185.935-.808 1.843-1.326 2.557-.168.384-.059.712.329.985-.411.427-.434.909-.066 1.446.069.58-.168 1.549-.543 2.24-.38-.093-.87-.038-1.238.254-.471.376-.744 1.146-.322 2.501l-.395.198c-2.51-1.644-4.938-3.203-7.115-4.846.307-.176.697-.434 1.003-.61-.766-.438-1.491-1.042-2.258-1.481-.219-.92-.522-1.84-.741-2.76-.285.153-.528.473-.812.627l-1.453-2.892 1.124-1.249c-1.935-.674-2.218-2.565-2.038-4.798l42.063-.591c3.555-.212 6.837-.756 8.807-2.892-2.036-1.998-5.252-2.812-9.202-2.892-13.911-.088-27.822-.175-41.734-.262-.096-2.128-.123-4.464 2.139-5.127l-2.467-2.366c-2.089.932-2.994 3.968-3.632 7.019-1.03-.525-1.977-1.301-3.006-1.827-.574-.093-.702.553-.92 1.052-2.788-.137-4.098 1.156-4.995 2.688l-6.835.006-.096-2.193c-5.034.378-4.819 7.398-.036 7.583l.114-2.02 6.787-.018c.332 1.205 1.125 2.411 2.235 3.615-.845 1.867-1.759 3.699-2.826 5.455 2.627.33 5.516.399 8.478.394.476 1.138 1.008 2.301 1.93 3.549-.241.088-.44.175-.681.263.708 1.377 1.294 2.804 1.445 4.404l3.466 2.497.567-.257c1.707 2.423 3.69 4.851 6.286 6.829 1.093 5.537 3.603 11.406 4.403 16.442-2.585.614-5.169.76-7.754 1.04.064-2.411-.531-4.625-1.578-6.703.627-.033 1.045-.232 1.38-.723-1.897-1.579-1.209-3.576-2.563-4.864.241-.263.482-.526.722-.788-1.483-1.038-1.216-3.493-2.825-4.864-3.715-6.258-7.222-8.082-10.713-9.53-.022-.263-.044-.525-.066-.788-1.38-.473-2.76-.716-4.14-.855l-.066-.854c-2.147-.787-4.294-.915-6.441-.592-1.515-2.753-5.322-2.214-7.295-4.008-2.027.455-.588 1.808.334 2.716-.789-.153-2.037-.681-2.7-.876-.51.842.147 1.741 1.972 2.694l-3.484 1.972c.073.717.834 1.281 1.906 1.774"/><path fill="#00adef" d="M28.7724 44.2803c-.536.581-1.07 1.163-1.606 1.744 2.33.971 4.274 2.405 5.956 4.157 1.196-1.507 2.54-1.674 3.801-.061 2.744-2.66 5.366-5.393 8.109-8.052.402 0 .706.097 1.108.097 1.107 1.712 2.035 3.658 2.105 6.346.681-.254 1.395-.484 2.141-.543-.029-3.472-1.097-5.786-2.878-7.309.045-.402.09-.804.134-1.207 1.991-1.357 2.903-3.37 3.078-5.834-.706-.471-1.509-.649-2.408-.536-.126 1.91-.971 3.711-2.848 5.035-1.707-1.78-3.601-3.334-5.827-4.529-1.485.401-2.059.775-2.635 1.372 2.237 1.036 4.453 2.418 6.625 4.559-.044.358-.113.569-.158.927-2.788 2.66-5.746 5.636-8.535 8.296-2.15-1.895-4.078-3.542-6.162-4.462m10.051 12.396c-.71 1.312-1.42 2.625-2.13 3.937 13.003 4.058 28.53 4.421 46.353 1.421 3.269-.763 1.529-2.968-.257-2.647-17.017 3.205-31.599 2.174-43.966-2.711m-5.778 18.316c-.353.647-.706 1.293-1.06 1.94.804.879 1.608 1.757 2.412 2.636 8.424-3.45 18.15-4.404 28.858-3.478l.475 2.27-14.031 23.135c.5.256.856.512 1.355.769 3.507-4.661 7.014-9.322 10.521-13.984.049-.903.097-1.806.146-2.708.963-1.358 2.497-2.334 4.603-2.929 2.664-4.551 5.683-8.848 9.68-12.446-.049-4.823-2.629-5.628-5.918-5.309-3.495.982-5.29 3.534-6.311 6.799-10.618-.771-20.874.272-30.73 3.305m37.373 15.952c.095 1.031-.079 2.061-.647 3.091-.307-.124-.614-.249-.921-.374-.397 1.968-1.235 3.769-2.165 5.536 1.535.017 3.069.034 4.604.05.282-1.663 1.062-2.66 2.338-2.992l-.049-7.506c-.737 1.085-1.827 1.775-3.16 2.195m16.994-3.17c1.602.463 3.556 1.11 4.874 1.538.006-.981-.234-2.409-.552-3.532-1.461.827-2.931 1.476-4.322 1.994m.342-44.473 21.056-4.2c6.243 9.182 7.191 24.638-3.067 35.572-12.332-4.993-19.455-16.568-17.989-31.372m6.397 40.921c.635 1.558.766 3.96.513 5.902 2.613.937 5.082 1.971 7.407 3.077.164-4.31.143-8.733-1.779-12.223.901.338 1.506.76 2.409 1.098 1.864 3.014 1.731 7.789 1.648 12.254 4.453 2.299 8.337 4.848 11.664 7.442-.211 1.112-.422 2.225-.634 3.339-2.524-2.931-6.246-5.668-11.131-8.218-.134 4.241.061 7.853 2.51 8.893l.042 1.776c-.451.169-.901.338-1.352.507-3.667-2.219-3.698-7.013-3.485-12.314-2.266-1.08-4.751-2.124-7.45-3.134-.175 3.521-.043 7.232 2.44 9.7-.042.606-.085 1.211-.127 1.817-.719.015-1.437.028-2.156.043-3.32-4.531-2.827-8.691-2.519-12.415-2.554-.897-5.813-1.882-8.776-2.736-.493.129-.954.243-1.375.344-.044-2.652-.088-5.304-.133-7.956 1.558-1.293 3.116-2.587 4.675-3.88 3.876-.151 6.566-1.273 7.525-3.812 1.37.09 2.74.141 4.111.862 2.154 1.055 2.026 2.525 1.259 4.111-1.509 2.303-3.345 4.104-5.286 5.523"/><path fill="#fdb913" d="M34.4496 79.3867c.47.61.94 1.221 1.41 1.832 7.077-2.069 14.047-4.192 28.045-2.722-.191-.785-.383-1.569-.575-2.355-8.689-.998-19.756.005-28.88 3.245m39.133-4.086h6.301c.02.755.04 1.509.06 2.264-2.653.014-2.765 3.117-.031 3.365-.019.676-.039 1.351-.058 2.026-2.111.04-4.221.079-6.331.119-.02-.646-.04-1.291-.06-1.936 3.119-.331 3.222-3.443.089-3.485.011-.784.02-1.569.03-2.353m29.541 17.68c1.12 0 2.029.908 2.029 2.029 0 1.12-.909 2.029-2.029 2.029-1.12 0-2.029-.909-2.029-2.029 0-1.121.909-2.029 2.029-2.029m-9.805-3.803c1.12 0 2.028.908 2.028 2.028s-.908 2.029-2.028 2.029-2.029-.909-2.029-2.029c0-1.12.909-2.028 2.029-2.028m-44.974-70.745c-5.391-.482-4.814-7.046-.103-7.095l.028 1.914 9.276.066c.668.696 1.128 2.325 1.117 3.149l-10.347-.054zm19.413 7.195c-4.455-2.166-4.817-18.859.051-21.595l2.321 2.484c-.536.353-1.838.703-1.903 2.235l-.2 11.819c.048 1.334 1.692 2.207 2.333 2.493zm-22.17 12.5c1.089 0 1.972.884 1.972 1.973s-.883 1.973-1.972 1.973c-1.09 0-1.973-.884-1.973-1.973s.883-1.973 1.973-1.973m-9.312 14.274c1.524.826 2.808 1.893 2.743 4.313l1.991.828c.112-3.396-1.226-5.562-4.014-6.501.005-.057.008-.114.008-.172 0-1.089-.883-1.972-1.972-1.972-1.09 0-1.973.883-1.973 1.972 0 1.09.883 1.973 1.973 1.973.471 0 .905-.165 1.244-.441m.595 8.438c1.133 0 2.052.92 2.052 2.053s-.919 2.052-2.052 2.052c-1.134 0-2.053-.919-2.053-2.052s.919-2.053 2.053-2.053m71.717-.068-3.383.728.838 3.736c.232.934.517 1.223 1.219 1.63l-5.833 1.292c.517-.793.597-1.337.438-1.949l-.823-3.874-4.384.915c-.808.294-1.001.381-1.521 1.105l-1.101-5.338c.446.319.789.374 1.645.299l4.528-.9-1.067-4.828-4.25.862c-.63.154-1.15.43-1.592 1.176l-1.167-5.318c.631.356 1.225.449 1.907.316l4.345-.878-.681-3.448c-.236-.631-.492-.965-1.167-1.453l5.483-1.135c-.49.598-.331 1.319-.221 1.86l.684 3.274 3.403-.762c.993-.203 1.424-.495 1.966-1.264l1.201 5.538c-.682-.554-1.22-.442-1.97-.377l-3.722.765.952 4.674 3.825-.772c.654-.137 1.158-.282 1.557-1.059l1.185 5.379c-.813-.575-1.685-.307-2.294-.194m-60.459 45.785c-1.574 2.258-3.754 3.775-6.131 5.051.073.375.144.751.217 1.127l8.304.867c.116-.333.231-.665.347-.997-.664-.801-1.111-1.639-1.082-2.557l11.636 4.291-4.023 2.861 6.099-.304 4.196 5.722-.866-6.979 4.802-3.164-5.84.086-3.2-4.724.086 4.075c-4.326-1.402-8.651-2.804-12.976-4.205.037-.175.09-.105.259-.105 1.147 0 2.076-.888 2.076-1.984s-.929-1.985-2.076-1.985c-1.146 0-2.076.889-2.076 1.985 0 .34.09.659.248.939"/><path fill="#231f20" fill-rule="evenodd" d="M140.829 1.833H1.951v92.129h.008l-.008.665v.252h-.004v.033h.004v.002h-.004v.005c.002 18.034 7.801 34.405 20.381 46.27 12.58 11.864 29.939 19.22 49.061 19.22v-.003h.002v.003c19.122 0 36.48-7.356 49.059-19.22 12.58-11.864 20.381-28.236 20.382-46.27v-.006h-.003v-.001h.003v-.033h-.003v-.252l-.009-.665h.009ZM73.227 31.79c-1.484 1.115-2.588 2.533-3.187 4.351 1.574 2.521 3.926 4.865 6.339 6.825.846-1.228 1.78-2.509 2.801-3.439-.724-1.134.093-1.93 1.016-2.947-2.346-1.585-4.717-3.159-6.969-4.79m-4.879-16.558.018 2.574c14.109-.13 28.145-.26 42.254-.388 2.501-.022 5.551-.407 7.491-2.268-16.548-.019-33.216.101-49.763.082m0-3.031v2.46c16.567-.02 33.133-.039 49.7-.058-1.729-1.696-4.402-1.932-6.695-1.955l-43.005-.447M55.123 25.368c4.508.283 9.221.569 10.576-1.544-1.356-3.03-1.874-6.636-1.757-10.652.032-1.124.362-1.381-.626-1.914-.183-.098-.362-.2-.526-.298-.385-.232-.757-.483-1.118-.751-.682-.545-.862.197-.546.949.19.451.559.905 1.106 1.086-.092.732-.16 1.466.07 2.246.069.265.012.452-.386.421-1.782-.224-2.651.238-2.936 1.178-.076.251-.048.642-.157.832-.085.148-.253.175-.618-.08l-.552-.039-1.409-.101c-.537-.082-.631.117-.28.596.822 1.534 1.764 2.993 4.797 3.159-.023.093-.047.187-.07.28-.945.109-1.979.103-2.924-.07-.899 1.532-1.745 3.17-2.644 4.702m.56-12.317c.531.019 1.061.037 1.591.056.641.022.999.516 1.246 1.102.347.642.736.354 1.262.233.492-.113 1.005-.143 1.516-.151.711-.074.604-1.856-.043-2.157-.433-.202-.522-.564-.709-.861-.112-.178-.259-.333-.536-.415-1.357-.402-3.629.784-4.327 2.193m12.046-8.456c.619.619 1.238 1.239 1.856 1.86-1.15.578-1.92 1.42-1.856 2.842.024 3.673.047 7.345.071 11.018.071 1.176.45 2.228 1.925 2.843-.618.654-1.237 1.309-1.855 1.965-4.084-2.093-4.62-17.989-.141-20.528m1.419 20.333 1.085 2.334c-1.23 1.229-2.813 2.022-5.025 2.035-.741-.988-1.295-2.024-1.663-3.106.899-.374 1.792-.772 2.644-1.333.42.462.899.894 1.506 1.263.537-.345 1.009-.754 1.453-1.193m2.101 2.369c.264.695.477 1.399.507 2.14-1.855 1.427-3.711 2.854-5.567 4.281-.353-1.264-.808-2.502-1.349-3.719 2.295.017 4.442-.801 6.409-2.702m-4.815 6.983c.999.656 1.965 1.362 2.871 2.158.807-2.49 2.321-4.317 4.482-5.544-.566-.404-1.161-.749-1.82-.965-1.845 1.45-3.689 2.901-5.533 4.351M79.4 40.014c.312.428.659.899 1.118 1.23-1.045 1.886-2.002 3.932-2.803 6.26-.679-1.132-.972-2.393-1.209-3.671.823-1.452 1.827-2.761 2.894-3.819m3.88-8.094c.028.187.229.32.214.474-.008.084-.076.163-.204.239-.259.13-.356.26-.291.389.172.347.927.391 1.247.39.273-.001 1.199-.026.982-.491-.261-.296-.323-.45-.372-.826-.045-.348-.12-.545-.78-.623-.425-.052-.857.038-.796.448m1.225-.815c.758.014.599.191.679.819.045.355.177.713.416.913.231.194.538.201.844.111.45-.135.9-.481 1.107-.759.184-.248.22-.49-.086-.604-.306-.113-.531-.101-.643.11-.036.067-.081.5-.274.457-.232-.052-.061-.366-.033-.482.211-.895.147-1.725-1.079-1.895-.545-.075-1.255.01-1.787.151-.267.072-.488.231-.593.416-.48.846 1.064.757 1.449.763m-.162-4.765c-.247.785-.597 1.489-1.077 2.218-.2.272-.355.61-.107.851.208.148.342.193.627.125.113-.026.258-.087.398-.116.301-.062.521.181.827.018.223-.121.323-.407-.058-.83-.155-.141-.057-.345.252-.204.231.207.415.442.263.875 1.158.076 1.548.811 1.59 1.846.433-.078.8.13 1.137.467.892-.624 2.61-2.74 2.197-3.983-.295-.894-1.443-.884-2.209-.98l-.12.216c.141.046.501.115.521.269.018.145-.3.218-.681.25-.489.041-1.081.016-1.193-.004-.471-.086-.772-.34-.333-.994-.63-.012-1.404-.012-2.034-.024m2.792-5.406c-1.23 1.695-2.733 3.37-4.131 4.898 4.58-.068 8.306.646 11.037 2.18-.078.8.256 1.383.735 1.65.616.343 1.504.183 1.995-.743.533-1.006.186-1.889-.483-2.225-.457-.23-1.066-.204-1.648.212-2.922-1.197-5.341-3.344-7.505-5.972m1.576.568c1.382 1.989 3.094 3.774 5.992 4.835.87-.471 1.614-.368 2.113.043.938.774.806 2.119.164 3.042-.565.815-1.527 1.302-2.499.78-.529-.284-.908-.885-.914-1.779-.273-.264-.547-.401-.819-.411-2.447 4.45-1.631 9.777 3.754 8.971.833-.124 2.172-.255 2.079-1.261-.599.028-1.231.035-1.729-.12-1.634-.51-.702-2.354-.058-3.278.553-.792 1.262-1.513 1.837-2.272.827-1.092 1.375-2.263.77-3.841-1.117-2.869-3.033-4.669-4.92-6.509-2.101.242-4.004.885-5.77 1.8m13.597 27.622c-.262-1.174-.525-2.348-.789-3.522-.1-.531-.058-1.104.111-1.636-1.493.317-3.176.662-4.67.978.415.411.71.888.898 1.375.246 1.199.492 2.397.737 3.596-1.6.337-3.195.693-4.798 1.012-.5.099-.952-.063-1.34-.214.322 1.406.644 3.03.968 4.435.26-.374.728-.723 1.203-.847 1.552-.406 3.129-.703 4.693-1.054.393 1.788.785 3.577 1.178 5.366-1.515.313-3.025.648-4.545.939-.573.109-1.131.016-1.631-.168.33 1.42.602 3.029.931 4.449.355-.374.903-.719 1.457-.833 1.511-.314 3.03-.577 4.546-.865.277 1.279.585 2.552.831 3.838.119.624.063 1.257-.274 1.887 1.6-.376 3.286-.737 4.885-1.113-.558-.49-.849-1.101-.992-1.713-.287-1.228-.525-2.467-.788-3.701 1.329-.277 2.658-.555 3.987-.833.556-.088 1.136-.06 1.653.085-.323-1.483-.602-2.996-.924-4.479-.382.372-1.01.641-1.623.82l-3.862.802c-.365-1.712-.729-3.424-1.094-5.136 1.441-.298 2.882-.597 4.324-.896.468-.024.929-.019 1.357.19-.372-1.487-.656-3.074-1.028-4.561-.423.549-1.082.924-1.753 1.06-1.216.246-2.432.493-3.648.739m-6.102-4.366 6.167-1.339c-.4.62-.515 1.315-.352 2.077.214 1.001.436 2.042.647 3.044 1.085-.195 2.231-.433 3.308-.665.973-.21 1.563-.778 1.981-1.572.463 2.168.955 4.396 1.418 6.565-.648-.45-1.404-.773-2.153-.65l-3.603.721.907 4.271c1.119-.223 2.362-.409 3.466-.697.834-.217 1.408-.809 1.85-1.369.423 2.077.904 4.183 1.327 6.26-.804-.435-1.689-.606-2.543-.404l-3.179.631.721 3.331c.137.783.6 1.475 1.567 2.026-2.244.504-4.488 1.007-6.733 1.511.537-.776.757-1.579.566-2.523l-.688-3.422-3.853.821c-.881.179-1.516.892-2.043 1.478-.411-1.957-.94-4.329-1.351-6.285.616.31 1.553.649 2.624.421l3.693-.781-.968-4.322c-1.257.24-2.611.593-3.877.776-.929.135-1.538.822-1.915 1.649-.439-2.106-.997-4.419-1.436-6.525.651.404 1.525.716 2.465.499l3.84-.764c-.142-.979-.333-1.963-.51-2.936-.138-.757-.711-1.326-1.343-1.827m-8.369-1.329c6.523-1.287 14.338-2.853 20.861-4.141 7.127 10.43 5.945 26.045-3.037 35.281-13.699-5.514-19.292-19.113-17.824-31.14m-.133-.224c6.705-1.351 14.366-2.866 21.072-4.216 5.994 8.5 7.699 24.724-2.998 35.92C88.85 68.326 86.24 50.78 87.704 43.205m-.6-.598c7.32-1.425 14.64-2.851 21.959-4.276 5.899 7.876 8.998 23.994-3.063 37.324-15.514-5.819-20.643-20.96-18.896-33.048m3.961-15.226c.39.104.78.223 1.169.454-2.285 5.862-1.207 8.808 2.173 9.759-1.206.881-2.152 1.901-2.53 3.229-8.231 2.078-10.629.765-11.915-1.15-.772-1.148-.344-1.798.341-2.509.818-.848 1.076-.323 2.006.098 1.534.693 3.445.293 5.295.069.311-.128.303-.224-.023-.287-2.054.289-4.147.497-5.753-.622-1.089-.877-1.042-1.874-.167-2.751 5.286.9 8.111-1.601 9.404-6.29m1.478 13.381c3.505-.711 7.01-1.421 10.515-2.132-1.963-2.901-9.81-1.205-10.515 2.132m-6.364 1.722c-.582 4.742-.316 9.842 1.19 14.894-1.15-.022-2.166-.53-3.306-.015-.406.183-.764.514-1.048 1.137-.221.874-1.629.875-2.268.975-.428-3.271-1.486-6.187-2.262-9.167-.821-2.766 1.324-6.424 2.609-8.752 1.496.63 3.203.92 5.085.928M83.325 59.12c.447-.984 1.256-1.435 2.317-1.191.664.089 1.384.178 2.047.268.768 1.98 1.647 3.99 2.861 5.903-1.139.486-1.71 2.236-3.304 1.421-.769-.479-1.541-.939-2.328-1.32-.859-.415-2.083-.566-2.633-1.39-.147-.266-.205-.49.356-.416.589.118 1.383-.121 1.931-.558 1.578-1.257.133-2.635-1.247-2.717m3.743 7.026c-3.169 2.242-4.714 4.961-4.635 8.157 4.111-1.495 8.745-1.701 13.489-.893-.04-1.002-.08-2.157-.119-3.159-1.834-1.702-3.39-3.425-4.754-5.416-1.221.275-2.325 2.449-3.981 1.311m3.615 79.585c-.699.812-1.356 1.667-1.95 2.585-1.628 0-3.354-.04-4.982-.04.94-1.71 2.087-3.269 3.603-4.558 1.244.277 2.454.895 3.329 2.013m1.536-.572c-1.506 1.316-2.57 2.964-3.447 4.597 3.276.039 6.551.079 9.827.119.503-3.073-4.136-4.417-6.38-4.716m8.676-22.931c2.285 1.425 4.351 3.068 4.429 5.46.032 1.006-.313 1.931-.695 2.842-1.027 2.446-2.471 4.768-3.846 7.069-.731.968-1.268 1.484-2.304 2.144-2.588 1.649-5.478 2.95-7.476 5.303-.85-.678-1.75-1.396-2.928-1.966 1.671-1.684 3.863-3.173 6.412-4.528 1.28-.729 2.231-1.732 2.853-3.01 1.091-1.936 2.181-3.873 3.273-5.809.493-.875.922-1.629 1.105-2.637.299-1.647-.106-3.131-.823-4.868m2.442-39.603c1.129 3.541 1.471 7.049 1.374 10.59.327.347.607.921.727 1.269 3.913 1.943 7.054 4.227 10.232 6.698.013-1.799.028-3.599.043-5.397 1.008.889 1.412 1.399 2.012 2.601 4.473 8.194 13.353 10.582 17.698 6.222-2.116.312-4.453.763-6.145-1.149 5.348.01 8.03-3.857 8.344-11.176.038-.883-.061-1.879.483-2.634-2.236-.192-.339 5.505-4.738 6.352 4.253-2.246 3.021-7.186 1.18-10.587-.763-1.41-1.674-2.784-2.704-4.131-1.02-1.332-1.985-2.357-2.608-3.949-1.52 2.029 2.014 5.462 3.245 6.895.043.144.086.289.13.434-2.149-2.273-4.239-4.735-5.957-7.359-2.919-4.461-3.461-8.683-2.135-12.718-4.319 1.434-5.43 6.794-5.084 13.941-1.782-1.742-2.395-4.348-2.207-7.545-1.851 3.493-2.336 6.819-.796 9.717 1.949 3.668 6.669 7.403 9.214 10.635 1.172 1.301.665 2.243-.76 2.802-2.573 1.011-5.034.353-7.442-1.105-4.238-2.592-7.764-5.961-11.273-8.725-.876-.689-1.877-1.175-2.833-1.681m-1.04 10.113c.645-.172 1.428-.153 1.922.133.292-3.547-.319-7.163-1.598-10.507-.531-.32-1.178-.579-1.71-.798 1.208 3.673 1.672 7.517 1.386 11.172m2.386 4.079c3.667 2.158 7.454 4.163 10.662 7.705.263-.835.399-1.689.259-2.58-3.119-2.699-6.547-4.59-10.128-6.652.007.686-.338 1.072-.793 1.527M92.215 85.866c.253 1.023.426 2.02.39 3.044.646-.137 1.329-.062 1.868.233.207-1.477.002-2.923-.545-4.346-.508.368-1.153.755-1.713 1.069m-3.793 1.903c1.163-.445 2.122-1.061 3.205-1.567.366.926.424 1.786.395 2.819-1.231-.479-2.371-.774-3.6-1.252m3.841 5.534c-.539 4.405.399 7.811 2.565 10.388.606.052 1.13.113 1.735.165.03-.46.06-.919.089-1.378-1.927-1.761-2.546-4.554-2.451-9.063-.65.169-1.406.192-1.938-.112m9.859 3.801c-.216 4.553.106 8.75 3.327 10.61l1.045-.364c.005-.467.076-.803.082-1.268-2.628-1.695-2.68-5.06-2.682-8.83-.57.115-1.247.044-1.772-.148m-7.465-4.001c-.175 3.949.271 7.347 2.66 9.02-.074.762-.147 1.525-.221 2.288-.829.022-1.693-.048-2.521-.026-2.961-3.234-3.309-7.233-2.777-11.46-.355-.326-.645-.759-.78-1.158-2.541-.917-5.037-1.613-7.579-2.373-.383.281-.768.563-1.152.844.007.725.015 1.451.021 2.177-.62.792-1.241 1.585-1.861 2.376v12.263c1.888.232 4.226.077 6.628-.133.175-1.497-.475-2.589-1.179-3.499-.223-.196-.082-.572.404-.167 1.714 1.583 2.151 5.715 2.691 8.07.165.72.353 1.527.643 2.203.48 1.117 1.29 1.933 2.309 2.559.985.603 2.08 1.079 3.096 1.633 1.489.813 2.973 1.659 4.447 2.558 1.086.662 2.103 1.362 3.098 2.154.625.497 1.286 1.102 2.073 2.073.658.813 1.179 1.539 1.399 2.583.183.87.099 1.732-.359 2.581-1.083 2.572-2.562 5.055-4.03 7.54-.684 1.159-1.109 1.873-2.214 2.67-2.265 1.635-4.94 2.585-6.857 4.63 2.45.378 4.659 1.425 6.233 3.209 1.402-2.37 3.361-2.894 5.405-.52 1.803-1.964 1.13-4.053 1.178-5.827.021-.799.205-1.138.64-1.771.271-.329.46-.258.221.066-.34.57-.445 1.218-.317 1.944.134.758.254.705.588.107.493-.883.987-1.766 1.481-2.65 2.688-4.37 5.338-8.746 8.164-13.025.37-.561.745-1.284.502-1.952-.108-.299-.225-.601-.338-.902-.392-1.057-.314-1.184-1.452-1.636-2.387-.949-3.889-1.56-5.072-3.528-1.004-1.67-.82-2.937.145-4.557 1.614-2.712 3.62-5.58 5.135-8.359-1.442-1.709-4.708-4.554-10.648-7.754-.245 3.57.223 7.156 2.533 8.184.008.762.048 1.442.056 2.206-.555.251-1.012.374-1.567.626-2.935-1.729-4.418-5.081-3.767-11.48-.321-.291-.732-.848-.876-1.225-2.077-.991-4.107-1.758-6.183-2.562m8.477.042c1.013 0 1.837.823 1.837 1.836 0 1.014-.824 1.836-1.837 1.836s-1.835-.822-1.835-1.836c0-1.013.822-1.836 1.835-1.836m-7.431-2.244c.054.708-.126 1.265-.503 1.757 1.921.724 3.76 1.469 5.626 2.303-.055-.708.259-1.156.696-1.647-1.882-.769-3.936-1.645-5.819-2.413m-1.312-6.467c.52 1.623.697 3.241.463 5.025.189.203.505.458.586.715 2.195.828 4.197 1.593 6.326 2.617.224-3.019.23-5.905-.723-8.923-.446-1.41-.829-2.782-2.415-3.275-1.288 1.43-2.679 2.736-4.237 3.841m-12.269 23.618c.246.236.397.605.532.956.21.549.375 1.056.781.951 1.219-.295 2.442-.583 3.72-.702.402-.019.522-.18.514-.405l-.099-.756c-.032-.371-.264-.399-.503-.417-1.648.124-3.297.248-4.945.373M93.351 89.45c.968 0 1.752.784 1.752 1.752 0 .967-.784 1.752-1.752 1.752-.967 0-1.751-.785-1.751-1.752 0-.968.784-1.752 1.751-1.752m-8.659-.365c.956-.229 1.884-.515 2.763-.901 1.323.451 2.89.892 4.213 1.343-.389.481-.643.994-.68 1.631-2.064-.712-4.23-1.36-6.296-2.073m-2.513-7.396c.009 2.386.02 4.77.03 7.155 3.758-.511 8.707-2.572 12.535-5.575 1.787-1.402 4.943-3.984 4.767-6.561-.091-1.308-1.207-1.745-2.814-2.11-.785-.178-1.571-.292-2.268-.305-1.823 2.722-4.552 3.569-7.649 3.653-1.533 1.248-3.067 2.496-4.601 3.743m-.145-6.364c.03 1.82.061 3.639.091 5.459 1.599-1.105 3.101-2.267 4.394-3.555 2.303-.035 4.417-.509 6.139-1.901.294-.238 1.023-.79.9-1.218-.237-.818-4.757-.512-5.398-.453-2.094.194-4.14.725-6.126 1.668m1.538-10.853c.465.093.952.235 1.372.566-2.854 1.839-4.522 5.176-5.202 9.88l-1.282-.017c.332-4.2 1.673-7.786 5.112-10.429m1.706.733c-2.275 1.661-3.803 4.041-4.582 7.137-.584 2.322-.464 4.58-.464 6.956v14.58c.478-.46 1.117-1.226 1.434-1.847-.028-4.343-.058-8.687-.087-13.03-.011-1.655-.078-3.311.129-4.957.408-3.248 1.701-5.892 4.686-8.255-.275-.294-.686-.462-1.116-.584M73.869 83.318h5.755c.06 12.047.216 24.197.285 36.254.009 1.484.058 2.973-.08 4.454-.269 2.875-1.083 5.323-2.315 7.445-1.95-1.876-2.809-5.031-3.063-8.483-.108-1.473-.094-2.955-.113-4.431zm5.71-5.439v2.625c-1.873-.056-1.828-2.523 0-2.625m-5.669.252v2.574c2.065.087 2.29-2.527 0-2.574m-.009-2.457c1.907-.028 3.813-.056 5.72-.084v1.684c-2.425.317-2.769 3.49 0 3.952v1.483c-1.907.012-3.861.031-5.769.042v-1.367c2.698-.222 3.184-3.738.049-3.976zm-22.002 31.364c-.22.285-.517.524-.851.742.467.209.932.417 1.398.625.143-.254.286-.507.429-.76-.325-.202-.65-.405-.976-.607m-9.459 4.821c.014.253.028.505.042.758 2.591.246 5.183.491 7.774.737l.294-.885c-1.188-1.328-1.496-2.823-1.059-4.488-.539-.152-1.046-.35-1.361-.783-1.459 2.012-3.391 3.491-5.69 4.661m5.287-5.858c-.978 2.066-2.734 3.827-5.63 5.141-2.035.06-3.338 1.148-4.537 2.382-.448-.066-.78-.265-1.074-.508-.494-.411-.377-.561-.013-1.032 2.813-3.632 6.31-6.069 11.254-5.983m2.208-2.139c.975 0 1.766.79 1.766 1.765 0 .976-.791 1.766-1.766 1.766s-1.766-.79-1.766-1.766c0-.975.791-1.765 1.766-1.765m.174 4.312c-.161.582-.189 1.102-.147 1.705l12.459 4.422-4.391 2.716 5.673-.61 3.802 5.621-1.134-6.737 4.706-2.632-5.484.273-2.878-4.526.357 4.253-12.963-4.485m11.203-20.143-7.038 9.474-1.576-.105 10.88-18.435c.522 1.256 1.255 2.508 2.226 3.538-1.611.534-3.031 1.436-4.282 2.685-.26.877-.307 1.832-.21 2.843m-11.161 13.253 1.11.421 2.726-3.659-1.608-.142zM7.991 85.548c1.751.137 3.484.536 5.025 1.417.491-.582.952-1.172 1.429-1.757.128-.158.346-.377.484-.612.267-.454-.058-.706-.119-1.15-.054-.398.081-.745.449-1.03.477-.371 1.089-.464 1.595-.812.448-.307.89-.728 1.326-1.25.945-1.154 1.958-2.441 2.903-3.597.933-1.139 1.99-1.414 3.457-1.584 1.294-.15 2.592-.198 4.009-.151 1.345.045 2.228.378 3.253 1.227l2.241-3.438c-.971-1.232-2.246-2.35-4.881-2.953-1.698-.389-3.357-.155-3.103 2.075.063.218.041.376-.017.465-.252.387-.488-.472-.528-.609-.099-.338-.161-.676-.226-1.014-4.558 2.598-9.153 5.068-13.559 8.219-1.158.828-2.797 2.576-.833 3.712.31.113.274.314-.104.246-.542-.149-1.002-.376-1.331-.738-.618 1.039-1.1 2.155-1.47 3.334m-.252.84c-1.053 1.774-1.7 3.614-2.202 5.48 3.126-.901 5.366-1.301 7.067-4.067-1.237-1.242-3.028-1.375-4.865-1.413m.678 15.882c1.728-.942 3.486-1.797 5.296-2.496.631.363 1.313.732 1.832 1.317-2.111 2.333-4.318 4.75-6.428 7.084-.401-1.842-.624-3.819-.7-5.905m30.739-18.16c.286-1.506.792-2.76 1.579-4.016 6.916-1.609 14.302-2.296 22.302-1.318l-13.368 22.37c-1.657-.538-3.394-1.129-5.051-1.667.525-1.126 1.244-1.876 2.517-2.181 1.626-.389 1.375-.902-.286-.542-.943.205-2.112.908-3.571 3.263-.341.551-.389.895-1.111 1.004h-2.045c-.824 0-1.247-.077-1.762-.749l-7.188-9.357c-.374-2.14-1.101-4.576-2.578-5.897-1.892-1.692-3.927-1.077-5.495.482-1.986 1.977-3.66 4.306-5.234 6.748-.291-.438-.225-.863-.063-1.316.057-.16.099-.313.028-.35-.168-.088-.456.456-.524.613-.496 1.142.374 2.271.494 3.589.111 1.214-.368 1.89-1.055 2.377-1.698-2.911-3.957-.254-3.502 2.106-1.657.635-3.314 1.359-4.973 2.245-.203-1.193-.354-2.386-.139-3.579.385.337.787.579 1.218.664.272.053.476.099.622.094.332-.01.36-.17.195-.301-.125-.099-.387-.136-.657-.248-.658-.271-.903-.917-.999-1.569-.301-2.046 1.511-4.324 2.898-6.236 3.052-4.208 6.235-8.257 9.461-12.032.139.573.496 1.043.971 1.368.739.506.761.135.303-.342-.348-.364-.637-.794-.636-1.329.046-.492.193-.869.412-1.163.643-.862 2.091-1.042 3.08-1.065 1.81-.04 3.809-.23 5.334.421.864.368 1.731 1.192 2.607 2.129 1.791 1.918 3.523 4.51 4.675 6.064 2.879 1.207 4.974 3.723 4.483 7.345-.216 1.588.023 1.756.414.028.643-2.845-.42-5.572-3.356-7.653m-2.724-2.679c.626.85.978 1.848 2.04 2.249.431-1.322.978-2.371 1.558-3.346-1.247.294-2.45.655-3.598 1.097m-1.472-1.804c.293.407.587.813.881 1.22 8.556-2.716 17.771-3.576 27.56-2.817-.126-.574-.252-1.149-.378-1.723-6.93-.94-21.987.449-28.063 3.32m-1.741-4.069c-.223.403-.484.87-.781 1.274.748.884 1.349 1.463 2.056 2.245 8.874-2.897 18.388-3.95 28.516-3.438-.046-1.233.035-2.48.349-3.713-10.305-.438-20.373.302-30.14 3.632m28.267 13.207c.111.552.276 1.066.464 1.54-3.355 4.67-6.676 9.299-10.031 13.969-.301-.409-.695-.709-1.14-.918 3.577-4.883 7.13-9.708 10.707-14.591m-8.093 19.853c.609.222 1.219.445 1.828.669 1.663-2.898 5.443-4.574 8.383-7.383 2.421-2.444 4.496-5.073 4.902-8.605-.44-1.165-1.156-1.731-2.059-1.889-1.444 5.244-5.351 8.847-9.278 12.291-1.7 1.491-3.261 3.029-3.776 4.917m8.67-22.777c-.132 1.26-.329 2.485.577 4.327 2.238-.349 4.548.183 7.032 3.426.405-.712.606-1.55.361-2.669-2.384-2.472-5.058-4.121-7.97-5.084m11.259 10.98c.032 3.458.065 6.917.097 10.375-4.671-.26-9.069-.882-12.903-1.915 2.181-1.757 4.4-3.527 6.193-5.607 1.616.119 3.268.123 4.948.049.077-1.653.688-2.54 1.665-2.902m-.097-7.014c.025 2.008.048 4.015.073 6.022-1.118.403-1.882 1.386-2.293 2.951-1.23.26-2.461.271-3.693.144.705-1.544 1.454-3.081 1.762-4.691.282.072.564.145.845.218.554-1.046.953-2.107.797-3.217.905-.339 1.733-.83 2.509-1.427m-10.812-4.571c.878-.931 2.024-1.778 4.127-2.321 1.522 2.733 3.153 5.337 6.685 5.731-.554 1.106-1.503 1.533-2.509 1.862-2.714-2.247-5.461-4.186-8.303-5.272m7.41 1.137c.975 1.192 2.225 1.548 3.402 1.572-.024-1.959-.024-4.015-.047-5.974-1.3 1.128-2.381 2.819-3.355 4.402m-2.646-3.823c.496 1.484 1.256 2.524 2.139 3.363 1.23-1.77 2.457-3.545 3.818-4.856-.022-2.038-.042-4.077-.064-6.116 1.56-.014 3.118-.027 4.678-.042.235-2.278.969-4.489 1.849-6.51-5.419 2.715-9.979 8.833-12.42 14.161m8.62-12.386c-3.641 3.132-6.754 7.193-9.337 12.07-1.395-1.32-2.345-3.344-2.639-5.622-.626-4.852 2.515-12.509 8.586-11.369 2.028.381 3.568 2.038 3.39 4.921m.37-2.392c.153.59.257 1.299.262 1.908.793-.559 1.744-1.2 2.803-1.659-.867-.701-1.965-.583-3.065-.249m4.644-4.741c.256-.026.512-.052.769-.079.353.507.89.91 1.478 1.283-1.226 1.11-2.221 2.311-3.114 3.554-1.001-1.054-2.326-.902-3.664-.711 1.849-1.132 3.515-2.381 4.531-4.047m-7.943.708 7.38-.842c-1.02 1.459-2.656 2.672-4.465 3.816-.876-1.164-1.881-1.837-3.072-2.053.053-.272.104-.649.157-.921m-3.978.351c1.089-.123 2.154-.212 3.269-.328-.032.308-.082.507-.115.815-1.093-.052-2.111.16-3.106.464-.016-.311-.032-.64-.048-.951M46.929 30.553c-.603 1.89 1.16 2.058 2.464 2.28 11.404 1.939 19.27 9.349 19.726 27.989 1.007-.08 2.125-.149 3.131-.228-.077-2.981.031-5.798-2.497-7.024.838-.266 1.986.766 2.303-.347-.91-.455-1.109-1.647-1.31-2.71-.359-1.901-1.962-1.941-2.037-2.718.684.508 1.354.358 1.834-.012-1.332-.49-1.541-2.384-2.057-3.484-.305-.649-.821-1.216-2.089-1.685.307-.11.586-.116 1.099-.064-1.769-2.742-4.151-5.277-7.238-7.326-.735-.489-1.538-1.107-2.407-1.378-.822-.257-1.535.058-2.339-.073.523-.195 1.095-.321 1.295-.961-1.531-.708-2.963-.676-4.412-.769.148-.288.247-.587.24-.913-1.863-.649-3.766-.827-5.706-.577m-3.234 32.38c-.535 1.474-1.791 2.5-2.153 3.973 1.492.127 3.603-1.487 4.921-.515-2.081.139-4.261.975-6.243 2.208.011-1.328 1.189-2.208 1.224-3.238-3.34.659-5.069 6.438-7.656 9.325 8.95-3.062 19.138-3.915 29.762-3.487 1.016-2.668 2.49-4.917 4.904-5.996-.033-.352-.048-.668-.081-1.019-8.992.445-17.083-.162-24.678-1.251m-4.61-5.843c-.583 1.053-1.207 2.225-1.79 3.278 10.681 3.834 25.271 4.435 44.475 1.643.784-.126 2.169-.199 2.63-.848.268-.378.249-.685-.045-1.011-.635-.708-1.875-.359-2.698-.236-13.253 2.406-30.402 2.571-42.572-2.826m-2.202 4.035c.978 0 1.772.794 1.772 1.772 0 .979-.794 1.773-1.772 1.773-.979 0-1.773-.794-1.773-1.773 0-.978.794-1.772 1.773-1.772m2.829-8.622c1.234 1.198 1.533 2.979 1.548 4.752 1.09.464 2.39.831 3.528 1.2 1.423-2.403 2.519-5.165 1.619-8.024-1.754.786-3.492.87-5.102.699-.466.413-1.128.96-1.593 1.373m-2.968-.097c.205-.281.413-.626.518-.974 2.646.966 3.657 3.134 3.473 5.62-.442-.106-.993-.374-1.364-.525-.171-1.99-1.209-3.279-2.627-4.121m-1.648.742c.476-.045.91-.245 1.353-.489.455.208.869.544 1.187.941-.433 2.432-1.586 3.628-3.001 4.091-.621.204-1.28.341-1.91.514-.27.073-.5.138-.778.031-.347-.134-.526-.469-.443-.749.086-.292.406-.369.646-.494 1.504-.777 2.388-2.177 2.946-3.845m13.447-39.584v2.496h9.785c.057-.899-.307-1.75-.861-2.496zm-.487-1.865v6.226c-1.923.055-3.261-1.549-3.1-3.409.147-1.692 1.31-2.903 3.1-2.817M34.534 53.09c-.244 1.339-1.181 2.298-2.189 3.099-.375-.138-.61-.375-.676-.731.873-.709 1.774-1.566 2.468-2.537.11.077.27.119.397.169m-7.949-3.305c-.272.244-.01.576.289.365.393-.388.8-.598 1.249-.239.258.206.413.486.389.827-.025.331-.132.553-.434.687-.246.11-.533.147-.84.156-.273.021-.258.292.03.319.308.01.599-.024.86-.135.328-.14.568-.391.691-.729.161-.444-.015-.906-.285-1.264-.506-.668-1.189-.473-1.949.013m11.24-15.856c-.755.04-1.242-.326-1.741-.821-.185-.184-.217-.343-.037-.447 1.99-1.149 3.609-1.652 5.893-1.873.385-.017.713.106.895.342.332.432.278.842.031 1.108-.168.182-.428.297-.717.305-.892.036-1.67.353-2.445.688-.609.264-1.218.539-1.879.698m4.115-3.632c-.952-.783-3.181-1.041-4.43-1.877-.662-.227-.737.243-.411.66.454.583 1.378 1.137 2.319 1.691.841-.158 1.681-.316 2.522-.474m-6.578 9.76c.566-.213 1.103-.566 1.372-1.17.187.488.613.863 1.243.942-1.202 1.402-1.992 1.052-2.615.228M55.171 12.8h-6.513v-2.134c-2.268-.048-3.582.757-4.18 2.355-.463 1.242-.443 2.571.097 3.791.56 1.264 1.731 2.117 4.083 2.175V16.95h6.083c.534 1.016 1.107 2.017 2.123 2.84.11.081.148.234.115.46-.912 1.896-1.85 3.776-3.099 5.479-.215.187-.167.302.143.345 2.669.193 5.413.296 8.322.201.238-.039.429.066.573.315.386.951 1.012 1.987 1.589 2.842-.143.16-.421.335-.527.411.791 1.387 1.314 3.23 1.578 4.81 1.326.638 2.547 1.523 3.73 2.496l.441-.241c1.684 2.148 3.33 4.263 5.731 6.391.343.305.464.674.557 1.114.173.814.374 1.622.6 2.426.902 3.218 3.39 9.815 3.426 12.749-2.363.367-4.659.747-6.976.906-.112-2.135-.334-4.457-1.311-6.014.478-.387.806-.871 1.094-1.306-1.786-1.443-.821-3.052-2.185-4.461.265-.327.463-.687.632-1.062-1.929-.988-1.418-3.882-3.042-4.906-1.979-4.414-6.639-7.606-10.702-9.842.078-.182.074-.363.057-.545-1.33-.571-2.762-.777-4.189-1.004.029-.269-.078-.555-.158-.822-2.359-.82-4.31-.841-6.538-.724-.646-.847-1.459-1.527-2.34-1.923-1.757-.791-3.997-.508-5.282-2.187-.573.291-.977.579-1.182.847-.426.558.59 1.52.895 1.99-.779-.223-1.649-.589-2.231-.937-.448.701-.41 1.229-.135 1.683.332.548 1.131.972 1.714 1.481-1.215.603-2.552 1.345-3.767 1.948.56.745 1.243 1.37 2.166 1.859-2.735 3.156-5.513 6.253-8.249 9.41-.841.419-1.459 1.396-1.688 2.288-1.1.962-1.761 1.924-2.472 3.106-.304.649-.309 1.376.186 2.234.371.641.356.761.231 1.518-.175 1.054.055 2.084.689 3.09.631.998 1.363 1.133 2.427.828.597-.172 1.038-.524 1.177-1.264.192-1.016.759-1.959 2.269-2.735.131.159.863.978.863 1.178 0 .272-.999.962-1.214 1.148.168.284.335.568.503.853.127.218.177.344-.029.527-.615.55-.774.72-.444 1.384.349.7.879.999 1.735.712 1.023-.343 2.095-.339 3.122-.922 1.483-.841 1.968-2.038 2.374-3.667.847.943.875 1.884-.309 3.768-.431.798-.897 1.596-1.299 2.395-1.613.418-2.521 2.138-1.767 3.657.38.768 1.169 1.301 2.19 1.253.788-.038 1.396-.37 1.804-.851.524-.617.716-1.505.527-2.453l3.3.861c-.248.488-.497.976-.746 1.464-1.908.318-3.495 1.785-4.406 3.426-.794 1.429-1.724 2.82-2.767 4.177-1.711-1.89-3.422-2.359-5.133-2.88-1.123-.342-1.827-.458-2.919.09-5.388 2.698-10.777 6.037-16.166 9.877-.49.445-.9 1.002-1.253 1.663-.435.814-.787 1.71-1.168 2.554-1.261 2.788-2.339 6.146-3.661 9.124.325.928.65 1.713.976 2.641.965-.324 1.932-.649 2.897-.975-.255.917-.702 1.931-.803 2.868-.26 2.41.572 7.568 1.029 12.544.602.574 1.151 1.201 1.754 1.775 2.679-2.993 5.356-5.987 8.034-8.981-.764-.851-1.599-1.583-2.465-2.263-.498-.39-.98-.415-1.444-.741-.462-.324-.342-1.045-.207-1.513.432-1.483 2.063-1.362 2.593.673 1.105-.817 1.889-2.101 1.875-3.631-.005-.483-.172-.967-.133-1.444.021-.269.123-.524.384-.751 1.04-1.749 2.977-5.075 5.021-6.724.711-.573 1.434-.944 2.137-.977 1.567-.082 2.675 1.045 3.403 2.334.652 1.155.996 2.547 1.203 4.048 2.31 3.258 4.593 6.526 7.393 9.62.745.824 1.051 1.175 2.263 1.154.816-.014 1.634-.029 2.452-.043.171-.037.312-.091.428-.16.436-.258.82-.868 1.15-1.246.132-.205.388-.243.661-.258 2.276.87 4.109 1.323 4.887 1.741.621.334.342.7.01 1.168-1.169.092-1.832.721-2.118 1.734-4.974.24-8.844 2.855-11.991 6.873-.454.563-.797.898-.152 1.412.704.563 1.426 1.022 2.305 1.217.767-1.023 2.492-2.87 4.035-2.386.028.325.039.827.068 1.153 3.022.296 6.045.592 9.067.889l.259-1.176 2.811.839c.21-.421.483-1.051.694-1.472l6.007 2.056-4.372 3.199 6.91-.261 4.878 6.485-.898-8.156 5.518-3.498-6.701-.044-3.858-5.174.059 4.693-6.237-2.183c.651-1.442 2.289-2.611 3.882-3.544 4.167 1.025 8.719 1.783 13.453 2.1.141 4.197.145 8.475.288 12.672.149 4.443.55 8.636 3.791 12.057 2.673-3.005 3.128-8.122 3.128-11.956v-12.691c.905-.077 1.283.479 1.727 1.503.353.796.359 1.535 1.465 1.072 1.099-.461 2.274-.731 3.552-.744.64-.007.744.221.859.884.241 1.393.535 2.64 1.193 3.782.347.604.715 1.038 1.266 1.457 1.526 1.161 3.538 1.947 5.478 3.115 2.4 1.445 4.957 3.736 4.956 6.781 0 .379-.04.77-.124 1.173-.086.418-.251.874-.463 1.347-.638 1.421-1.708 3-2.409 4.193-.273.409-.545.815-.808 1.214-.434.657-.746 1.319-1.132 1.995-.301.527-.654.933-1.303 1.407-1.568 1.146-3.48 2.271-5.261 3.424-1.848 1.248-3.346 2.777-4.786 4.484-.839.993-1.557 2.098-2.288 3.255.019.775.039 1.549.057 2.325h4.992c.01.535.02 1.071.03 1.606h11.879c-.046-.886-.046-1.755.042-2.59.141-1.326.542-3.412 2.361-3.162.947.131 1.862 1.004 2.273 2.022 1.067-1.319 1.878-2.803 2.186-4.396.241-1.243.48-1.977 1.251-3.115 2.577-3.799 4.883-7.785 7.495-11.656.745-1.045 1.44-2.091 2.169-3.136.285-.41.557-.714.618-1.226.129-1.077-.739-2.797-1.272-3.694-.424-.696-1.156-.615-1.854-.789-.739-.185-1.38-.446-1.942-.768-1.402-.801-2.976-2.267-2.839-4.017.06-.784.339-1.435.689-2.127 1.299-2.566 3.326-4.85 4.806-7.395.896-1.543.852-2.553.926-4.254.059-1.375.105-2.748.018-4.128.005-.221.104-.315.325-.137.16.129.248.377.323.649.397 1.442 1.411 2.69 2.372 3.814 1.292 1.508 2.844 2.648 4.602 3.579 4.618 2.443 10.162 2.838 13.038-2.596-1.957.767-4.045.97-5.672.792 2.455-.584 4.525-2.349 5.653-4.66.798-1.634.982-3.514 1.11-5.309.117-1.626.151-3.273 1.004-4.711-.791-.582-1.553-.631-2.296-.315-1.23-5.7-6.426-8.955-7.288-13.113-.613.335-1.086.894-1.463 1.607-4.236-4.289-4.259-10.97-1.951-14.519-5.509 1.693-7.317 5.511-7.47 13.404-.727-1.374-.767-4.047-.664-7.258-2.322 1.709-3.111 5.275-3.113 7.894-.001 1.902.546 3.474 1.402 4.885 1.318 2.17 3.105 3.941 4.857 5.748.471.487 4.014 3.886 4.014 4.78.001.706-.591.925-1.131 1.093-2.18.677-4.277.088-6.314-1.21-1.168-.744-2.278-1.652-3.395-2.477-1.641-1.211-3.193-2.511-4.764-3.795-1.116-.911-2.114-2.003-3.276-2.844-1.898-1.375-4.832-2.396-7.2-3.269 1.181-2.163 1.393-3.492.973-4.391-.477-1.021-1.768-1.491-3.387-2.001-.039-.794-.114-1.815-.153-2.609 2.723 2.213 6.167 4.195 9.766 5.822 6.183-7.258 9.186-14.85 8.901-22.711-.197-5.467-1.986-11.065-5.401-16.77-1.99.266-3.966.588-5.955.96-1.115-1.439-2.901-1.636-4.593-1.704.093-.498.033-1.061-.084-1.558-.596.137-2.114.298-2.485-.412-.456-.876 1.49-2.886 1.973-3.539.611-.825 1.231-1.512 1.463-2.537.192-.843.136-1.721-.14-2.629-.409-1.346-1.197-2.415-2.048-3.51-.98-1.262-2.045-2.467-3.167-3.635-2.207.465-4.251 1.267-6.319 2.188-.469-.334-.927-.779-1.256-1.184-1.712 2.288-3.538 4.553-5.566 6.771.489.173 1.287.097 1.914.13-.151.699-.563 1.399-.995 2.022-.246.288-.272.651-.058.83.199.142.227.329.144.546-.076.153-.118.172-.195.325-.097.263-.056.552.222.738.166.29-.059.513-.099.864-.035.318.069.267-.135.509-.093.109-.153.246-.145.382 0 .306-.137.293-.424.311-.313.012-.554.083-.737.188-.762.442-.64 1.906-.524 2.624-2.264-1.581-4.886-2.838-6.629-4.419.297-.22.593-.44.889-.659-.728-.594-1.508-1.119-2.38-1.521-.236-1.213-.597-2.174-.977-3.099-.286.162-.609.397-.896.559-.354-.765-.672-1.602-1.026-2.367.488-.548.976-1.125 1.463-1.721-2.363-.257-2.994-1.767-2.438-4.132 13.619 0 27.149-.431 40.769-.431 1.763-.021 3.381-.143 4.906-.475 2.091-.455 4.008-1.303 5.886-2.824-.997-.751-2.037-1.413-3.147-1.923-.865-.397-1.772-.703-2.735-.889-3.343-.509-6.831-.399-10.213-.436-8.245-.09-16.49-.194-24.735-.282-3.567-.057-7.189-.096-10.756-.154.004-.549.01-1.097.015-1.647.01-.972-.151-1.432.695-2.045.447-.324 1.002-.555 1.639-.687-.995-1.129-1.99-2.257-2.985-3.386-1.483 1.094-3.383 3.157-3.801 7.148-1.154-.11-1.605-.857-2.072-1.337-.435-.447-1.016-.732-1.493-.141-.21.261-.369.611-.513.851-2.104.415-4.381 1.061-4.889 2.844m7.214 78.087c1.228-.311 2.407-.33 3.481.29-.433 2.649-1.958 4.75-3.715 6.736-1.416 1.602-2.892 2.957-4.483 4.377-1.715 1.528-3.323 3.106-4.449 4.904-.338-.272-.643-.543-.981-.815.138-.472.108-.963.024-1.482 3.374-4.67 6.749-9.34 10.123-14.01m43.199 24.843c.914 1.922 1.425 3.799 4.318 5.94-.148.306-.296.612-.444.917 3.835-1.092 4.525 2.058 2.513 4.344 2.998-1.785 1.792-5.272-1.441-5.522-2.481-1.633-3.623-3.685-4.946-5.679M45.597 38.435c.936 0 1.695.759 1.695 1.695 0 .935-.759 1.694-1.695 1.694-.935 0-1.695-.759-1.695-1.694 0-.436.165-.833.436-1.133.3-.288.712-.499 1.171-.56.029-.001.058-.002.088-.002m-2.096.714c.271-.578.775-1.026 1.391-1.223-1.677-1.718-3.365-3.178-5.274-4.044-.975.174-1.641.566-2.05 1.14 2.188.926 4.171 2.282 5.933 4.127m-.202 1.248c-.011-.087-.016-.177-.016-.267 0-.15.015-.297.042-.439-1.841-2.008-4.25-3.548-6.258-4.203-.528.528-1.072 1.067-1.613 1.604-.517.513-1.767 1.348-1.292 2.195.268.478 1.02.738 1.596.13.63-.651.93-1.58 1.523-1.867.71-.343 1.535-.123 2.673.734.434.327.39.337-.045.486-.702.241-1.14.784-1.572 1.329-1.734 2.19-3.287.699-4.769-.822-1.49 1.48-2.958 3.036-4.311 4.959 1.934.967 3.854 2.145 5.705 4.19 2.69-2.641 5.643-5.386 8.337-8.029m2.669 2.018c-.121.019-.244.029-.371.029-.179 0-.354-.021-.522-.059-2.6 2.615-5.278 5.264-7.877 7.879.1.207.137.413.111.619.627.347 1.319.725 1.947 1.158.47-.423.94-.846 1.409-1.269-.274-.164-.443-.371-.506-.619 3.278.566 6.015.228 7.773-1.745.113-2.44-.693-4.351-1.964-5.993m1.757-1.375c-.233.545-.67.983-1.216 1.217 1.253 1.64 1.782 3.716 1.972 5.961.497-.133 1.02-.253 1.543-.373.108-2.33-.399-4.687-2.299-6.805m.158-1.273c.019.118.029.239.029.363 0 .146-.014.29-.041.43 1.729 1.73 2.728 4.163 2.664 7.199.437.209.906.419 1.343.628-2.478-.331-3.946.328-4.711 1.518.825 3.036-.019 5.984-1.551 8.795 7.293 2.09 15.003 2.644 22.856 2.163-.231-13.438-4.796-24.199-17.484-26.871-.248 2.421-1.516 4.196-3.105 5.775m-1.596-1.847c.118.037.232.084.342.138.527.238.958.67 1.124 1.174 1.609-1.562 2.701-3.302 2.773-5.447-.655-.364-1.33-.499-2.026-.406-.19 1.722-.638 3.004-2.213 4.541m-.69-.105.035.001c1.52-1.185 2.213-2.753 2.439-4.536-.133-.155-.291-.233-.46-.283-.37-.112-.791-.087-1.092-.441-.331-.39-.351-1.011-.426-1.697-.039-.355-.12-.7-.382-1.038-.646-.833-1.685-1.345-2.864-1.623-1.315-.286-2.405-.705-3.227-1.281-.258-.179-.563-.505-.898-.271-.108.076-.175.203-.161.357.025.279.305.54.494.723.765.746 1.917 1.315 3.042 1.897.687.328 1.388 1.292 1.436 2.108.032.559-.24 1.05-1.032 1.222-1.022-.045-1.656.263-2.113.731 1.904 1.105 3.591 2.522 5.144 4.132zm-12.542 11.93c.283-.503.754-.886 1.318-1.053-1.777-1.917-3.677-3.136-5.527-3.957-.647.26-.999.731-1.292 1.244 1.55.494 3.474 1.872 5.501 3.766m-.261 1.467c-.019-.119-.029-.24-.029-.364 0-.208.028-.41.082-.601-1.473-1.294-3.176-2.652-4.728-3.475-.394-.21-.735-.308-1.06.057-.732.822-1.482 1.533-1.835 2.246-.487.986-.485 1.896.06 2.72.453.685.244.459.156 1.22-.114.99-.169 1.981.637 2.972.323.397.746.52 1.136.447.535-.101 1.011-.572 1.091-1.209.18-1.448 1.434-2.122 2.639-2.864.62-.382 1.243-.763 1.851-1.149m1.028 1.543c-.387-.242-.694-.598-.876-1.022-.493.312-.967.651-1.372 1.084.339.364.633.751.902 1.151.541-.29.947-.747 1.346-1.213m2.028-3.995c.359.144.673.379.913.675.097.107.183.222.254.348l7.547-7.582c-.505-.253-.904-.684-1.115-1.212-.027-.054-.053-.11-.077-.164l-7.741 7.821c.073.037.147.075.219.114m.37.823c.334.319.542.768.542 1.265 0 .965-.784 1.748-1.748 1.748-.045 0-.09-.001-.135-.005l-.013-.001h-.001c-.875-.09-1.558-.83-1.558-1.729 0-.959.777-1.736 1.737-1.736.45 0 .86.171 1.168.451zm13.889 60.844c-.028.512.294 1.045.714 1.558.994.358 1.989.716 2.984 1.074.153-.365.308-.729.462-1.095-1.359-.506-2.801-1.032-4.16-1.537M.975 0h141.804v95.795h-.011c-.25 18.193-8.214 34.683-20.938 46.684-12.932 12.195-30.778 19.756-50.439 19.757v.003h-.002v-.003c-19.661-.001-37.509-7.562-50.44-19.758C8.225 130.477.261 113.987.01 95.795H0V0z"/><path fill="#fdb913" d="M5.2787 92.6362c.144.451.288.903.431 1.355 1.001-.337 2.002-.675 3.004-1.013.655-.68 1.176-1.361 1.635-2.04-1.691.565-3.38 1.132-5.07 1.698"/><path fill="#fdb913" d="m8.9951 109.2105 1.126 1.096 7.032-7.914-1.096-1.005s-7.062 7.853-7.062 7.823"/><path fill="#fdb913" d="m88.3203 148.8872-.375 1.126h-4.509v-1.165Z"/><path fill="#fdb913" d="M88.3398 150.4468v1.204h10.357v-1.243Z"/></svg>