<svg xmlns="http://www.w3.org/2000/svg" xmlns:xlink="http://www.w3.org/1999/xlink" width="696.259" height="510" viewBox="0 0 696.259 510" version="1.0" fill-rule="evenodd"><g transform="matrix(4.891997e-5,0,0,4.891997e-5,-1.9031518,-1.9031467)" stroke="#1f1a17"><g fill="#fde805" stroke-width="20320"><path d="m 11839557,3894767.5 c 226380,75460 448790,139000 671200,226380 95320,35740 182700,95320 242270,166810 83410,103260 178730,174750 258160,270070 -238300,23830 -480570,47660 -702980,-35750 -230350,-87370 -389220,-278010 -536170,-488510 -39720,-59570 -7940,-99290 27800,-146950 3970,-3970 23830,3970 39720,7950 z"/><path d="m 12582257,3950367.5 c 154900,55600 270070,158860 377310,274040 206520,218440 456740,405110 766520,436880 43690,3970 71490,51630 99290,91350 -47660,-281990 -238290,-508370 -464680,-683120 -107230,-83410 -202550,-174750 -337590,-210500 -83400,-19860 -162830,-43690 -246240,-27800 -83400,11910 -131060,71490 -194610,119150 z"/><path d="m 11216057,4049657.5 c 99290,-71490 250220,-83400 357450,15890 87380,87370 206520,154890 238300,285950 7940,15890 27800,23830 39710,43690 59580,111210 3970,226380 11920,341560 -91350,-15880 -162840,-83400 -242270,-131060 -150920,-99290 -254190,-234330 -381280,-357450 -51630,-51630 -67520,-162840 -23830,-198580 z"/><path d="m 10068257,2552347.5 c 23830,-7940 3970,-39710 27800,-39710 -3970,-63550 0,-135040 47660,-182700 83410,-87369.9 162840,-178719.9 285960,-214469.9 107230,-31770 210500,-39710 321700,-51630 23830,-3970 47660,-7940 67520,-19850 -7940,11910 -7940,31770 -11920,43680 -11910,27800 -15880,63550 -23830,95320 -35740,146950 -47650,182699.9 -111200,317729.9 -7940,19860 -63550,83410 -75460,103270 -11920,15880 -47660,23830 -59580,39710 -51630,71490 -162830,83410 -230350,51630 -107240,-55600 -158870,-23830 -242270,-119150 -7940,-7940 0,-23830 3970,-23830 z"/><path d="m 13217757,4021857.5 c -123120,0 -242270,3970 -361410,-43690 -135040,-51630 -270070,-83400 -409080,-127090 -99290,-31780 -194610,-43690 -289930,-31780 -119150,11920 -226380,75470 -325670,135040 -266100,150920 -377310,436880 -552060,695040 -111210,158860 -222410,301840 -365390,420990 250210,-7940 440850,-166810 651350,-270070 99290,-51630 214460,-67520 325670,-55600 87380,11910 190640,27800 238300,-19860 87370,-87380 190640,-146950 301840,-202560 206530,-99290 432910,-107230 647380,-170780 -19860,222420 -162840,421000 -357450,524260 278010,-79430 504400,127090 770500,190640 31770,7940 63540,3970 99290,3970 -71490,59570 -146950,107230 -226390,158860 -119140,75470 -258150,99300 -393190,79440 -258150,-31780 -500420,-79440 -746660,-158870 -166810,-55600 -246240,-242270 -417020,-274040 -139010,-27800 -285960,23830 -401140,91350 -182690,103260 -345530,202550 -512340,321700 -170780,448790 -281990,845960 -524250,1266950 -59580,107230 -281990,393190 -401139.8,484540 115179.8,51630 250209.8,95320 369359.8,139010 107240,39710 166810,119150 234330,214460 146950,198590 333620,345540 389220,587810 47660,206520 15880,409070 -47660,603680 -79430,-7940 -154900,-7940 -214470,-59570 -123120,-103260 -230350,-381280 -270070,-532200 11910,71490 27800,293900 -11920,329650 -47650,43680 -63540,115170 -83400,178720 -397159.8,-139010 -504399.8,-778440 -496449.8,-1294750 -63550,43690 -115180,107230 -218440,206520 -3970,59580 11910,127090 31770,158870 127090,190640 135040,103260 170780,337590 11910,87370 19860,158860 -15890,238290 -39710,79440 -23830,190640 -63540,262130 -19860,31780 -63550,-47660 -87380,-79430 -123120,-154890 -142980,-95320 -226380,-274040 -19860,-47660 -47660,-107240 -27800,-158870 43690,-103260 35740,-214470 51630,-317730 -31770,31770 -75460,59580 -83410,107240 -7940,-7950 -59570,-11920 -39710,-27810 -266100,170780 -496460,353480 -766530,480570 -162830,79430 -317730,174750 -504390,210500 -127100,23830 -242270,67520 -373340,67520 l -27800,27800 c -75460,27800 -194610,35740 -274040,51630 -174750,35740 -333620,-7950 -591770,59570 -234330,59580 -440860,127090 -647380,266100 -11910,7950 -7940,39720 -19860,47660 -266100,214470 -583830,305820 -790350,599720 -139010,198580 -186670,424960 -365390,587799.5 -91350,83400 -194610,142980 -305820,186670 -142980,59570 -297870,55600 -452760,51630 -170780,79430 -373340,63540 -563980,7940 -51630,-15890 -115170,-39720 -142970,-83400 -23830,-31780 -23830,-95320 7940,-131070 7940,-3970 19860,-39710 3970,-35740 524260,-83409.5 1270920,-607659.5 1350350,-635459.5 746670,-663270 1251070,-1207380 3419580,-1461560 1699860,-695040 2978719.8,-2700710 2220139.8,-4348940 C 9957057.2,2226677.6 8590807.2,2111497.6 8590807.2,2111497.6 c -222410,0 -385240,-166810 -385240,-166810 659290,-27800 1294750,278020 1294750,278020 19860,-135040 -87380,-397160 -214470,-436880 -198580,-59580 -369360,123120 -563970,51630 -67520,-23830 -131070,-63550 -190640,-111210 -99290,-79430 -206520,-135030 -278010,-242270 107230,-7940 210490,-31770 317730,-55600 -43690,-95320 -222410,-135030 -274050,-242270 -31770,-75460 250220,-123120 341560,-142980 -35740,-51630.04 -39710,-135030.04 -75460,-206520.04 -63540,-127090 -182690,-230360 -325670,-262130 107230,-39720 222410,-43690 329640,-19860 131070,31780 254190,87380 361420,170780 -23830,-95320 -142980,-115170 -162830,-206520 -19860,-127090 -99290,-238300 -31780,-361420 238300,222410 667240,361420 746670,710920 119150,-206520 413050,-417020 317730,-667230 23830,23830 51630,51630 75460,79430 23830,27800 79430,-150920 99290,-119150 75459.8,103260 95319.8,428940 131069.8,552060 51630,182690 35740,369360.04 -27810,544110.04 -15880,47660 -51630,99290 -91339.8,139010 -99290,91350 -246240,67520 -365390,115180 59570,55600 123120,99290 186660,154890 11920,11910 11920,51630 0,59570 -59570,35750 -131060,59580 -178720,99300 -23830,15880 -47660,83400 -31770,123120 39710,99290 67510,202550 79430,305810 15890,131070 123120,186669.9 246240,194609.9 43690,127090 178719.8,142980 230359.8,238300 27800,51630 75460,83400 111200,123120 142980,162840 309790,293900 424970,480570 111200,182690 123120,385250 170780,575880 15880,-27800 19850,-63540 31770,-91340 23830,-55610 71490,-99290 83400,-154900 51630,-214460 55610,-420990 51630,-635460 0,-158860 -15880,-313760 -63540,-464680 -15890,-47660 -23830,-99290 -39720,-142980 -23830,-59570 -19860,-135029.9 -3970,-202549.9 27800,-103260 103260,-178720 127090,-278020 19860,-91340 -35740,-190630 0,-270070 135040,-301840 508370,-329640 806240,-377300 0,27800 -23830,43690 -31770,67520 -19860,39710 -75460,59570 -103260,99290 -43690,71490 -79430,142980 -119150,214470 -23830,47650 -79430,71480 -115180,115170 -19860,27800 -27800,63550 -43690,95320 262130,-127090 560000,-27800 826100,-123120 -67510,47660 -91340,127090 -142980,186670 -115170,123120 -278010,162830 -424960,246240 -127090,71490 -278010,15890 -409080,75460 111210,71490 242270,87380 361420,146949.9 27800,15890 67520,3970 107230,3970 -43680,51630 -51630,135040 -103260,158870 -115180,51630 -238300,111200 -381270,87370 -51640,-7940 -95320,-47660 -150930,-51630 23830,198580 -47660,393190 -35740,595750 11910,238300 0,476590 -67520,714890 -15890,55600 -87370,79430 -131060,123120 31770,79430 47660,139010 39710,206530 99290,-51630 135040,-154900 198580,-238300 79440,-103260 111210,-230360 127100,-353480 19860,-210490 -39720,-409070 -75460,-619570 -23830,-150920 11910,-337590 190630,-333620 -39710,127090 -127090,246240 -71480,369360 15880,31780 51630,-35740 63540,-47660 226380,-242270 512340,-349500 794330,-500420 43690,-23830 67520,-71490 99290,-111210 -35750,11920 -35750,55610 -35750,71490 7950,289930 -35740,583830 -270070,782410 -59570,51630 -135030,71490 -206520,95320 -111210,35750 -234330,7950 -341560,51630 -7950,3980 -35750,19860 -39720,35750 -115180,337590 -71490,766520 -389220,992910 71490,142980 -15890,270070 -43690,401130 83410,-35740 150930,-91350 202560,-158860 31770,0 47660,-15890 59570,-35750 63550,-139010 127090,-270070 186670,-409080 55600,-135030 162830,-234320 274040,-329640 194610,-158870 409080,-258160 659290,-309790 35750,-7940 59580,-43690 95320,-51630 206520,-43690 385250,-79430 591770,-119150 139010,-27800 254190,-103260 389220,-142980 107240,-31770 222410,-63540 325680,-23830 178720,67520 317730,198580 444820,337590 -71490,67520 -162840,91350 -250210,115180 -139010,39710 -270070,-51630 -413050,-47660 39710,-7950 59570,27800 79430,47660 115180,115180 250210,194610 389220,270070 -67520,15890 -127090,75460 -190640,75460 -174750,-7940 -349500,-47660 -524250,-55600 -27810,0 -55610,23830 -83410,35740"/><path d="m 10671957,5121997.5 c -3970,67520 -31770,170780 -55600,246240 -19860,63550 91340,95320 146950,123120 198580,87380 397160,190640 615600,146950 194610,-39710 361420,-87370 552060,-51630 234320,43690 393190,214470 595740,309790 -182690,35740 -353470,99290 -540140,142980 -158870,39710 -317730,31770 -480570,35740 103260,59580 202550,127090 317730,131070 99290,0 190640,-51640 289930,-79440 7940,-3970 7940,-43680 15890,-47660 63540,-15880 131060,-3970 190640,27810 11910,7940 15880,43680 27800,47650 361420,75470 583830,357450 881700,528230 -123120,27800 -250210,27800 -385250,55600 75460,150930 162840,297880 234330,452770 -190640,-43690 -397170,-47660 -575890,-135030 -115180,-55610 -234330,-103270 -349500,-178730 -15890,-7940 -43690,-3970 -67520,-3970 270070,262130 353470,699010 150920,1020710 -87370,-230350 -285960,-377310 -436880,-579860 -39710,-55600 -75460,-115180 -79430,-178720 -7940,-131070 51630,-270070 11910,-393190 -47660,-142980 -166800,-250220 -266090,-365390 0,19850 -214470,-139010 -206530,-123120 87380,170780 357450,472620 361420,663260 3970,55600 7940,158860 3970,214470 -7940,103260 -142980,365390 -131060,405100 -75460,-43680 -103270,-270070 -214470,-341560 -51630,-35740 -95320,-99290 -111210,-170780 -39710,-146950 55610,-278010 43690,-424960 0,-47660 -19860,-95320 -39720,-135040 -31770,-67520 -87370,-111200 -127090,-178720 -67520,-107240 -194610,-142980 -278010,-258160 -639430,-587800 -214470,-901560 -79430,-1048510 11910,39720 -11920,103260 -11920,139010 z"/><path d="m 9980877.2,2790647.5 c 11910,162840 -11920,397170 174749.8,456740 206520,67520 405100,-15890 567940,-127090 83400,-59580 166810,-139010 222410,-234330 43690,-79430 47660,-190640 11920,-266100 -131070,-293899.9 -99290,-611629.9 -154900,-917449.9 -154890,115180 -242270,285960 -333610,448800 -59580,107230 -127100,222409.9 -103270,353469.9 23830,119150 -3970,158870 59580,266100 19860,39720 150920,238300 99290,266100 -43690,27800 -35750,71490 -254190,119150 -63540,-103260 -107230,-170780 -190630,-262130 -27810,-27800 -51640,-79430 -99289.8,-103260 z"/><path d="m 10000727,2742987.5 c 3980,-11910 23830,-15880 23830,-23830 11920,-99290 -51629.8,-182690 -87369.8,-270070 -15890,-47660 -35750,-107230 -31780,-162839.9 7950,-63540 11920,-127090 19860,-190630 7950,-51630 23830,-95320 47660,-139010 7950,-11920 19860,-19860 23830,-27800 47659.8,-115180 115179.8,-218440 158869.8,-333620 15880,-39720 27800,-83400 51630,-123120 -3970,27800 7940,51630 7940,75460 3970,3970 23830,3970 23830,7940 3970,51640 3970,99300 19860,150930 55600,226380 111210,436880 63550,667229.9 -35750,170780 -111210,333620 -274050,401140 -23830,7940 -63539.8,0 -47660,-31780 z"/><path d="m 10775157,6043417.5 c 15890,19860 135040,230350 75460,353470 -71490,146950 -293900,95320 -444820,55610 -194610,-51630 -409079.8,-91350 -579859.8,39710 -83400,67520 -127090,162840 -170780,250220 -23830,47660 -27800,119150 -59570,170780 -15890,27800 -43690,51630 -75460,71490 47660,-3980 91340,0 139000,-3980 266100,-35740 849929.8,-15880 965109.8,-210490 -71490,103260 -250210,234320 -301840,353470 -3980,11920 -15890,31780 -15890,43690 27800,-3970 67520,27800 83400,39720 99290,71490 158870,146950 230360,242270 170780,-67520 305810,-238300 365390,-409080 3970,-11920 27800,-43690 31770,-55600 63550,-206530 -47660,-405110 -55600,-607660 0,-51630 79430,-123120 35740,-150930 -55600,-39710 -131060,-99290 -210490,-178720 z"/><path d="m 11799857,4927387.5 c 47660,83400 -59570,131060 -115180,150920 -111200,39720 -218430,-7940 -329640,-23830 -23830,-3970 -35750,59580 -23830,95320 59570,202560 278010,357450 476600,293900 55600,-19860 111200,-83400 146950,-142980 83400,-154890 -35750,-289930 -142980,-397160 -7950,7940 -15890,19860 -11920,23830 z"/></g><g fill="none" stroke-width="15240"><path d="m 8662287.2,1070937.6 c 67520,39710 135040,79430 206530,111200 194610,83410 393190,135040 591770,210500 23830,7940 31770,43690 63550,51630"/><path d="m 9889527.2,328237.56 c 0,23830 -43690,278010 -55610,301840 -23820,43690 -103260,166810 -131060,206530 -51630,75460 -75460,135030 -127090,210500.04 -35750,51630 -63550,83400 -67520,142970 -11910,91350 -19860,95320 15890,178730"/><path d="m 9488387.2,892207.56 c 27800,47660 7950,27800 -3970,75460 -7940,55610.04 -23830,111210.04 -7940,166810.04"/><path d="m 8940307.2,741287.56 c 103260,142980 230350,254180 365390,369360.04 31770,27800 71490,35750 103260,67520"/><path d="m 8594777.2,1444267.6 c 39710,15890 75460,35740 115170,39710 222410,27810 436880,35750 647380,103270 27800,7940 51630,31770 83400,35740 -31770,15890 -63540,7950 -95320,0 -79430,-31770 -154890,-75460 -242270,-75460"/><path d="m 11414657,1865257.6 c -3970,15890 0,31770 -15880,43690 -87380,63550 -198580,35740 -278020,103260 -15880,15890 -15880,39720 -3970,59580"/><path d="m 11283557,2230647.6 c -71490,-11910 -142980,-39710 -166810,-115180"/><path d="m 11096857,2568237.5 c -39710,-31770 -71490,-75460 -79430,-123120 -15890,-95320 -39720,-186669.9 -31770,-281989.9 3970,-15880 15880,-23830 27800,-35740"/><path d="m 11315357,3080577.5 c -43680,91350 -15880,190640 23830,281990"/><path d="m 13467957,3632637.5 c -115180,15880 -222410,-15890 -337590,-31770 -107240,-11920 -214470,-39720 -317730,-75470 -27800,-11910 -63550,-3970 -95320,-3970"/><path d="m 13225657,3954337.5 c 11910,-27800 -15890,-43690 -27800,-59570 -71490,-67520 -131070,-142980 -218440,-186670 -75460,-35750 -146950,-71490 -222410,-95320 -166810,-55600 -349510,-7940 -496460,87380"/><path d="m 12697457,4891647.5 c -198580,0 -389220,11910 -587800,-35750 -31770,-11910 -55600,-39720 -83400,-59570"/><path d="m 11474257,6079157.5 c -47660,-11910 -103260,0 -146950,-23830 -107240,-51630 -210500,-83400 -309790,-146950 -47660,-27800 -103260,-67510 -107230,-127090"/><path d="m 12832557,6734477.5 c -63550,-27800 -131070,-27800 -202560,-47660 -79430,-19850 -170780,-7940 -250210,-35740 -103260,-35750 -210500,-55600 -301840,-127090 -63550,-47660 -139010,-79440 -182700,-146950"/><path d="m 12073957,6865547.5 c -107230,-15890 -190630,-87380 -281980,-150920 -23830,-15890 -47660,-31780 -63550,-63550 -3970,-7940 -27800,-3970 -35740,-15890 -19860,-27800 -27800,-59570 -23830,-95320"/><path d="m 10413757,7961717.5 c -11910,-39720 -51630,-51630 -67510,-83410 -35750,-75460 -51640,-158860 -103270,-222410 -43690,-55600 -91340,-111200 -103260,-170780 -7940,-59570 3970,-123120 3970,-186660"/><path d="m 10139757,7266677.5 c -51630,-35740 -103260,-67520 -158859.8,-79430"/><path d="m 10663957,6746397.5 c 31770,-31770 39710,-83410 71490,-111210 43680,-39710 67510,-91350 119140,-115170"/></g><g fill="none" stroke-width="7620"><path d="m 8531227.2,713487.56 c 111210,35740 206520,107230 301840,178720 142980,107240 262130,226380.04 417030,313760.04 27800,11920 55600,27800 87370,31770"/><path d="m 8408107.2,1543557.6 c 190640,19860 373330,43690 563970,71490 39720,7940 79430,-3970 115180,7940 51630,11920 103260,23830 150920,59580 55600,43680 127090,63540 198580,59570"/><path d="m 9964987.2,308377.56 c 0,146950 -23830,293900 -39720,440850 -3970,71490 -19860,142980 -39710,214470 -35750,123120.04 -131070,202550.04 -194610,309790.04 -23830,47660 -35750,95320 -55610,142980 h 7950"/><path d="m 10179457,1714337.6 c 23830,51630 -3970,103260 -19860,150920 -31770,87380 -55600,178730 -67520,270070 -15890,115180 7940,226390 27800,345530 11920,63550 0,123129.9 -23830,186669.9"/><path d="m 11724457,1341007.6 c -103260,43680 -210500,79430 -301840,150920 -131070,103260 -202560,250210 -278020,393190"/><path d="m 12137457,1817597.6 c -47660,19860 -83400,59580 -131060,71490 -95320,31770 -190640,47660 -281990,91350 -15890,7940 -39720,0 -55600,3970 -11920,3970 -23830,19860 -35750,23830 -131060,59570 -270070,23830 -405100,35750"/><path d="m 12165257,2556327.5 c -23830,55600 -79430,79430 -123120,119140 -99290,91350 -166810,202560 -274040,289930 -99290,75460 -194610,142980 -289930,226390 -15890,15880 -27800,35740 -31770,59570"/><path d="m 13039057,3493627.5 c 43690,-19860 87380,-23830 139010,-31770 19860,-3970 35740,-39720 55600,-47660 15890,-7940 39720,0 55600,-3970 87380,-27800 174760,-27800 262130,-27800 71490,-67520 166810,19850 238300,63540 55600,35750 115180,63550 182690,67520"/><path d="m 12884157,3616747.5 c 75460,-15880 142980,19860 218440,31770 59570,11920 107230,39720 162830,67520 19860,11920 47660,23830 79440,27800 35740,7950 55600,43690 91340,55610 99290,35740 186670,95320 293900,99290"/><path d="m 12336057,3763697.5 c 83410,-11910 162840,11920 250220,-11910 87370,-19860 166800,7940 238290,47660 83410,47660 158870,99290 242270,135030"/><path d="m 13015157,4085397.5 c 19860,-3970 47660,0 67520,7950 91350,43690 186670,83400 250210,166810 7940,7940 7940,31770 11920,35740 87370,91350 166810,186670 281980,230360"/><path d="m 11867357,4025827.5 c 115180,23830 198580,103260 309790,135040 146950,39710 250210,146950 361420,242260"/><path d="m 13007257,4450787.5 c -47660,166810 -238300,214470 -393190,238300 -3980,0 -3980,19860 -7950,19860 -91340,11920 -182690,39720 -246240,107230 h 3970"/><path d="m 13336857,5114057.5 c -174750,15880 -349500,11910 -524250,0 -111210,-3970 -210500,-55610 -325680,-75460 -142970,-27810 -285950,-35750 -397160,-131070"/><path d="m 11883257,5121997.5 c -11920,11920 -7950,35750 -23830,43690 -23830,19860 -27800,47660 -47660,71490 -87380,99290 -218440,83400 -337590,67520 h 7940"/><path d="m 12228857,5880577.5 c -71490,-11910 -139010,-43690 -210500,-55600 -115180,-11920 -230350,-27800 -349500,-39720 -99290,-11910 -186670,11920 -281990,35750 -95320,19860 -194610,15880 -281980,-23830"/><path d="m 13090657,6662987.5 c -67520,0 -123120,-23830 -186660,-31770 -43690,-7940 -87380,-11910 -123130,-35740 -39710,-27810 -71480,-51640 -111200,-67520 -35750,-11920 -75460,-15890 -111210,-31770 -194610,-91350 -393190,-190640 -607660,-198590"/><path d="m 12963557,7111787.5 c -51630,-15890 -99290,-15890 -146950,-75460 -39720,-47660 -107230,-47660 -162840,-83410 -103260,-67510 -194610,-135030 -305810,-186660 -210500,-99290 -428940,-166810 -639440,-262130 -43680,-19860 -91340,-51630 -135030,-83410 -95320,-75460 -174750,-154890 -266100,-234320 -39720,-35750 -87380,-59580 -135040,-87380"/><path d="m 11847557,6794057.5 c 79430,119150 43690,270070 83410,401130 27800,79440 99290,135040 158860,198580 7940,7950 15890,39720 23830,55610 35750,59570 95320,107230 107240,182690"/><path d="m 11132657,6230087.5 c 99290,146950 230350,278010 262130,456730 35740,186670 -3980,377310 59570,556030"/><path d="m 10675957,6595477.5 c -55600,19850 -107230,43680 -166810,47660 -174750,11910 -345530,15880 -524249.8,43680 -91350,15890 -198580,39720 -246240,131070"/><path d="m 10898357,6659017.5 c -47660,131070 -75460,270070 -170780,385250 -63540,75460 -162840,107230 -238300,170780"/><path d="m 10103957,7183277.5 c 43680,19860 83400,43690 123120,75460 23830,19860 35740,47660 55600,67520 55600,43680 115180,71490 162840,119150 103260,95310 154890,218440 254180,317730 23830,19850 27800,55600 47660,79430 71490,91350 131060,182690 162840,285960 19860,63540 23830,135030 3970,202550 -7940,31770 -15890,55600 -15890,83400"/><path d="m 9992787.2,7326257.5 c 15889.8,19850 15889.8,47660 15889.8,71490 11910,127090 -15889.8,254180 3970,385240 3970,43690 15880,91350 27800,135040 31770,87380 63550,166810 111210,254180 15880,27810 7940,71490 15880,111210 7950,55600 63550,51630 95320,83400 v -3970"/><path d="m 9563847.2,7520867.5 c -19850,111200 -51630,214460 -39710,301840 7940,71490 19860,139010 39710,206530 23830,63540 79440,103260 99290,166800 11920,35750 19860,75470 39720,111210"/><path d="m 10751357,1908947.6 c -31770,27800 -55600,59570 -67520,103260 -23830,119150 -63540,230360 -51630,349509.9 15890,131060 75460,250210 95320,385240 15890,99290 -19860,190640 -71490,270080"/><path d="m 11088957,2258447.6 c 7940,67520 35740,127100 83400,170779.9 31780,27800 67520,39720 103270,47660 99290,15890 202550,11920 297870,-23830"/><path d="m 11267657,4121147.5 c 39720,0 79440,15890 111210,35740"/><path d="m 11549657,4299867.5 c 31770,3970 51630,27800 67520,43690 75460,71490 139000,158870 170780,258160"/></g><g stroke-width="15240"><path d="m 3729527.2,10162047 c 242270,-95320 484540,-182689.5 722840,-297869.5 142970,-71490 476590,-103260 405100,135040 -7940,27800.5 -75460,67510.5 -123120,87369.5 -127090,51630 -262130,55600 -401130,79430 -206530,35750 -409080,15890 -619580,3980 15890,3970 15890,-7950 15890,-7950 z" fill="#fde805"/><path d="m 4364987.2,9852207.5 c 182690,-87370 385250,-127090 591770,-107230" fill="none"/><path d="m 4694627.2,9701287.5 c 107240,-11910 210500,-51630 289930,-123120" fill="none"/><path d="m 5071937.2,9737037.5 c 262130,-552060 830070,-925390 1120000,-1008800 468650,-246240 865820,-301840 977020,-274040" fill="none"/></g></g><g transform="matrix(4.891997e-5,0,0,4.891997e-5,-1.9031518,-1.9031467)" stroke="#1f1a17"><g fill="#fde805" stroke-width="20320"><path d="m 2470517.2,3894767.5 c -230350,75460 -452760,139000 -675180,226380 -91340,35740 -178720,95320 -238290,166810 -83410,103260 -182700,174750 -258160,270070 234330,23830 476600,47660 699010,-35750 234320,-87370 389220,-278010 540140,-488510 39720,-59570 3970,-99290 -31770,-146950 0,-3970 -23830,3970 -35750,7950 z"/><path d="m 1723847.2,3950367.5 c -150920,55600 -266090,158860 -373330,274040 -206520,218440 -460709.99,405110 -770489.98,436880 -39720,3970 -67520,51630 -95320,91350 43680,-281990 238290,-508370 460709.99,-683120 107229.99,-83410 206519.99,-174750 341559.99,-210500 79430,-19860 158860,-43690 246240,-27800 79430,11910 131060,71490 190630,119150 z"/><path d="m 3094067.2,4049657.5 c -99290,-71490 -250220,-83400 -357450,15890 -91350,87370 -210500,154890 -242270,285950 -3970,15890 -27800,23830 -35740,43690 -63550,111210 -3970,226380 -15890,341560 95320,-15880 162840,-83400 242270,-131060 150920,-99290 258160,-234330 385250,-357450 47660,-51630 67520,-162840 23830,-198580 z"/><path d="m 4237897.2,2552347.5 c -19860,-7940 -3970,-39710 -27800,-39710 7940,-63550 0,-135040 -43690,-182700 -83410,-87369.9 -162840,-178719.9 -285960,-214469.9 -107230,-31770 -214470,-39710 -321700,-51630 -23830,-3970 -47660,-7940 -71490,-19850 11910,11910 11910,31770 15890,43680 7940,27800 15880,63550 23830,95320 31770,146950 47650,182699.9 107230,317729.9 11910,19860 67520,83410 79430,103270 7950,15880 47660,23830 59580,39710 51630,71490 158860,83410 226380,51630 111210,-55600 162840,-23830 246240,-119150 3970,-7940 -3970,-23830 -7940,-23830 z"/><path d="m 1092367.2,4021857.5 c 119140,0 242270,3970 357440,-43690 135040,-51630 274040,-83400 413050,-127090 95320,-31780 190640,-43690 289930,-31780 119150,11920 222410,75470 321700,135040 266100,150920 381280,436880 556030,695040 107240,158860 218440,301840 365390,420990 -254180,-7940 -444820,-166810 -651350,-270070 -103260,-51630 -218440,-67520 -329640,-55600 -87380,11910 -190640,27800 -234330,-19860 -91350,-87380 -190640,-146950 -305810,-202560 -202560,-99290 -432910,-107230 -647380,-170780 23830,222420 166810,421000 361420,524260 -281990,-79430 -504400,127090 -774469.99,190640 -31770,7940 -63540,3970 -95319.99,3970 67520,59570 146949.99,107230 226389.99,158860 119139.99,75470 254179.99,99300 393189.99,79440 254180,-31780 500420,-79440 746660,-158870 162840,-55600 242270,-242270 413050,-274040 139010,-27800 285960,23830 405110,91350 178720,103260 345530,202550 512340,321700 166810,448790 281990,845960 520280,1266950 63550,107230 285960,393190 401140,484540 -115180,51630 -250210,95320 -369360,139010 -103270,39710 -166810,119150 -234330,214460 -142980,198590 -333620,345540 -385250,587810 -47660,206520 -15880,409070 47660,603680 79430,-7940 154900,-7940 214470,-59570 119150,-103260 230350,-381280 266100,-532200 -7940,71490 -27800,293900 11910,329650 47660,43680 63550,115170 83410,178720 401130,-139010 504400,-778440 496450,-1294750 63550,43690 115180,107230 218440,206520 3970,59580 -7940,127090 -31770,158870 -123120,190640 -135040,103260 -166810,337590 -15890,87370 -19860,158860 15890,238290 35740,79440 19850,190640 63540,262130 19860,31780 63550,-47660 87380,-79430 123120,-154890 139010,-95320 222410,-274040 23830,-47660 51630,-107240 27800,-158870 -39720,-103260 -35740,-214470 -47660,-317730 31770,31770 71490,59580 79430,107240 7950,-7950 63550,-11920 43690,-27810 266100,170780 492480,353480 766530,480570 162830,79430 313760,174750 500420,210500 131070,23830 246240,67520 373340,67520 l 27800,27800 c 75460,27800 194610,35740 278010,51630 170780,35740 333620,-7950 591770,59570 234330,59580 440860,127090 643410,266100 11910,7950 7940,39720 19860,47660 270070,214470 587800,305820 794320,599720 139010,198580 186670,424960 361420,587799.5 91350,83400 194610,142980 305820,186670 142980,59570 297870,55600 452759.8,51630 174750,79430 377310,63540 563970,7940 55610,-15890 115180,-39720 146950,-83400 19860,-31780 19860,-95320 -11910,-131070 -3970,-3970 -19860,-39710 -3970,-35740 -524260,-83409.5 -1266949.8,-607659.5 -1350359.8,-635459.5 -742690,-663270 -1286800,-1163690 -3419570,-1461560 -1695890,-695040 -2978720,-2700710 -2220140,-4348940 552050,-1382129.9 1918300,-1497309.9 1918300,-1497309.9 218440,0 385240,-166810 385240,-166810 -663260,-27800 -1298720,278020 -1298720,278020 -19860,-135040 91350,-397160 218440,-436880 194610,-59580 365390,123120 560000,51630 71490,-23830 131060,-63550 190640,-111210 103260,-79430 210490,-135030 281980,-242270 -107230,-7940 -214460,-31770 -317730,-55600 39720,-95320 218440,-135030 270070,-242270 35750,-75460 -246240,-123120 -337580,-142980 35740,-51630.04 39710,-135030.04 75460,-206520.04 63540,-127090 178720,-230360 321700,-262130 -107240,-39720 -222410,-43690 -329650,-19860 -127090,31780 -250210,87380 -357440,170780 23830,-95320 142980,-115170 158860,-206520 23830,-127090 99290,-238300 31780,-361420 -238300,222410 -667240,361420 -742700,710920 -123120,-206520 -417020,-417020 -317730,-667230 -27800,23830 -51630,51630 -79430,79430 -19860,27800 -79440,-150920 -99290,-119150 -71490,103260 -95320,428940 -127100,552060 -51630,182690 -39710,369360.04 23830,544110.04 15890,47660 51640,99290 91350,139010 103260,91350 246240,67520 369360,115180 -59570,55600 -127090,99290 -190640,154890 -11910,11910 -7940,51630 0,59570 59580,35750 131070,59580 182700,99300 19860,15880 47660,83400 27800,123120 -39720,99290 -63540,202550 -75460,305810 -19860,131070 -127090,186669.9 -246240,194609.9 -43690,127090 -178720,142980 -230360,238300 -31770,51630 -79430,83400 -115170,123120 -139010,162840 -305820,293900 -424970,480570 -111200,182690 -119150,385250 -170780,575880 -15880,-27800 -15880,-63540 -31770,-91340 -23830,-55610 -71490,-99290 -83400,-154900 -51640,-214460 -55610,-420990 -51640,-635460 3980,-158860 19860,-313760 67520,-464680 11920,-47660 19860,-99290 39720,-142980 23830,-59570 15880,-135029.9 0,-202549.9 -23830,-103260 -103260,-178720 -127090,-278020 -19860,-91340 35740,-190630 0,-270070 -135040,-301840 -508370,-329640 -806240,-377300 0,27800 23820,43690 35740,67520 15890,39710 75460,59570 99290,99290 43690,71490 83400,142980 119150,214470 27800,47650 83400,71480 115180,115170 23830,27800 31770,63550 47660,95320 -266100,-127090 -560000,-27800 -830070,-123120 71480,47660 95310,127090 146950,186670 111200,123120 278010,162830 424960,246240 123120,71490 278010,15890 409080,75460 -111210,71490 -242270,87380 -361420,146949.9 -31770,15890 -71490,3970 -107230,3970 39710,51630 47660,135040 99290,158870 119150,51630 242270,111200 381270,87370 55610,-7940 95320,-47660 154900,-51630 -27800,198580 43680,393190 35740,595750 -15890,238300 -3970,476590 63550,714890 19860,55600 91340,79430 135030,123120 -35740,79430 -51630,139010 -43690,206530 -99290,-51630 -135030,-154900 -198580,-238300 -75460,-103260 -111200,-230360 -123120,-353480 -23830,-210490 35750,-409070 71490,-619570 27800,-150920 -7940,-337590 -190640,-333620 43690,127090 127100,246240 71490,369360 -11910,31780 -47660,-35740 -59570,-47660 -226380,-242270 -512340,-349500 -798300,-500420 -43690,-23830 -63550,-71490 -95320,-111210 31770,11920 31770,55610 31770,71490 -7940,289930 39720,583830 274050,782410 59570,51630 131060,71490 206520,95320 111210,35750 234330,7950 337590,51630 11920,3980 35750,19860 39720,35750 115170,337590 71490,766520 393190,992910 -71490,142980 15890,270070 39710,401130 -83400,-35740 -146950,-91350 -198580,-158860 -31770,0 -51630,-15890 -59570,-35750 -67520,-139010 -131060,-270070 -190640,-409080 -55600,-135030 -158860,-234320 -274040,-329640 -190640,-158870 -405110,-258160 -655320,-309790 -39720,-7940 -59580,-43690 -99290,-51630 -206530,-43690 -381280,-79430 -587800,-119150 -142980,-27800 -254190,-103260 -389219.99,-142980 -107240,-31770 -222409.99,-63540 -329649.99,-23830 -174750,67520 -317730,198580 -440850,337590 67520,67520 162840,91350 250210,115180 135040,39710 270070,-51630 409079.99,-47660 -39710,-7950 -59570,27800 -75460,47660 -119149.99,115180 -254179.99,194610 -393189.99,270070 71490,15890 131060,75460 194610,75460 174750,-7940 349499.99,-47660 524249.98,-55600 27810,0 55610,23830 83410,35740"/><path d="m 3634207.2,5121997.5 c 7940,67520 35740,170780 59570,246240 19860,63550 -91340,95320 -150920,123120 -194610,87380 -393190,190640 -615600,146950 -190640,-39710 -361420,-87370 -552060,-51630 -230350,43690 -389220,214470 -595740,309790 186660,35740 357440,99290 540140,142980 158860,39710 321700,31770 480570,35740 -103270,59580 -202560,127090 -317730,131070 -95320,0 -190640,-51640 -285960,-79440 -11920,-3970 -7940,-43680 -15890,-47660 -63540,-15880 -131060,-3970 -190640,27810 -15880,7940 -19850,43680 -31770,47650 -361420,75470 -583830,357450 -881700,528230 123120,27800 254180,27800 385250,55600 -71490,150930 -162840,297880 -234330,452770 194610,-43690 397160,-47660 575890,-135030 119150,-55610 234320,-103270 353470,-178730 15890,-7940 43690,-3970 63550,-3970 -270070,262130 -353480,699010 -150920,1020710 87370,-230350 289930,-377310 440850,-579860 39710,-55600 71490,-115180 75460,-178720 11910,-131070 -51630,-270070 -7940,-393190 47660,-142980 166800,-250220 266090,-365390 0,19850 210500,-139010 202560,-123120 -83410,170780 -353480,472620 -361420,663260 0,55600 -7940,158860 0,214470 7940,103260 139010,365390 131060,405100 75460,-43680 99290,-270070 210500,-341560 51630,-35740 95320,-99290 115180,-170780 39710,-146950 -55610,-278010 -47660,-424960 3970,-47660 23830,-95320 43690,-135040 27800,-67520 87370,-111200 127090,-178720 67520,-107240 194610,-142980 274040,-258160 643400,-587800 218440,-901560 83400,-1048510 -11910,39720 7950,103260 7950,139010 z"/><path d="m 4329237.2,2790647.5 c -11910,162840 7950,397170 -178720,456740 -202550,67520 -405100,-15890 -563970,-127090 -87380,-59580 -170780,-139010 -226380,-234330 -43690,-79430 -43690,-190640 -7950,-266100 131070,-293899.9 99290,-611629.9 150930,-917449.9 158860,115180 242270,285960 333610,448800 63550,107230 127090,222409.9 103260,353469.9 -19850,119150 3980,158870 -55600,266100 -23830,39720 -150920,238300 -103260,266100 47660,27800 39720,71490 254180,119150 63550,-103260 111210,-170780 190640,-262130 27800,-27800 55610,-79430 103260,-103260 z"/><path d="m 4305407.2,2742987.5 c -3970,-11910 -19850,-15880 -23820,-23830 -11920,-99290 55600,-182690 87370,-270070 19860,-47660 39720,-107230 31770,-162839.9 -3970,-63540 -11910,-127090 -19850,-190630 -3980,-51630 -23830,-95320 -47660,-139010 -3980,-11920 -19860,-19860 -23830,-27800 -43690,-115180 -111210,-218440 -158870,-333620 -15890,-39720 -27800,-83400 -47660,-123120 3970,27800 -7940,51630 -11910,75460 0,3970 -19860,3970 -19860,7940 -3970,51640 -7940,99300 -19860,150930 -55600,226380 -111210,436880 -63550,667229.9 35750,170780 107240,333620 274050,401140 23830,7940 59570,0 43680,-31780 z"/><path d="m 3530947.2,6043417.5 c -11920,19860 -135040,230350 -71490,353470 71490,146950 293900,95320 444820,55610 194610,-51630 409080,-91350 575890,39710 83400,67520 127090,162840 170780,250220 27800,47660 27800,119150 59570,170780 15890,27800 47660,51630 75460,71490 -43690,-3980 -91350,0 -139000,-3980 -266100,-35740 -849930,-15880 -961140,-210490 71490,103260 246240,234320 297870,353470 7950,11920 15890,31780 15890,43690 -27800,-3970 -67520,27800 -83400,39720 -99300,71490 -158870,146950 -230360,242270 -170780,-67520 -305820,-238300 -361420,-409080 -3970,-11920 -31770,-43690 -35740,-55600 -63550,-206530 47660,-405110 55600,-607660 3970,-51630 -75460,-123120 -31770,-150930 55600,-39710 127090,-99290 210490,-178720 z"/><path d="m 2510237.2,4927387.5 c -47660,83400 59570,131060 111200,150920 115180,39720 218440,-7940 333620,-23830 23830,-3970 35750,59580 23830,95320 -59570,202560 -281990,357450 -476600,293900 -59570,-19860 -115170,-83400 -146950,-142980 -87370,-154890 35750,-289930 142980,-397160 3970,7940 11920,19860 11920,23830 z"/></g><g fill="none" stroke-width="15240"><path d="m 5643847.2,1070937.6 c -67510,39710 -135030,79430 -206520,111200 -194610,83410 -393190,135040 -591770,210500 -23830,7940 -31780,43690 -63550,51630"/><path d="m 4416617.2,328237.56 c 0,23830 43690,278010 59580,301840 19850,43690 99290,166810 127090,206530 55600,75460 79430,135030 127090,210500.04 39720,51630 63550,83400 71490,142970 7940,91350 19860,95320 -19860,178730"/><path d="m 4817757.2,892207.56 c -27810,47660 -7950,27800 3970,75460 11910,55610.04 27800,111210.04 11910,166810.04"/><path d="m 5369807.2,741287.56 c -103260,142980 -234320,254180 -369360,369360.04 -27800,27800 -71490,35750 -99290,67520"/><path d="m 5715337.2,1444267.6 c -39710,15890 -79430,35740 -119150,39710 -218430,27810 -432900,35750 -647370,103270 -27800,7940 -51630,31770 -83410,35740 31780,15890 67520,7950 95320,0 79440,-31770 154900,-75460 242270,-75460"/><path d="m 2895487.2,1865257.6 c 3970,15890 0,31770 11910,43690 91350,63550 202550,35740 281990,103260 15880,15890 11910,39720 0,59580"/><path d="m 3026547.2,2230647.6 c 71490,-11910 139010,-39710 162840,-115180"/><path d="m 3213217.2,2568237.5 c 35740,-31770 67510,-75460 75460,-123120 15880,-95320 39710,-186669.9 31770,-281989.9 0,-15880 -15890,-23830 -27800,-35740"/><path d="m 2990807.2,3080577.5 c 47650,91350 15880,190640 -19860,281990"/><path d="m 838177.21,3632637.5 c 115180,15880 226379.99,-15890 337589.99,-31770 111210,-11920 214470,-39720 321700,-75470 27800,-11910 59580,-3970 95320,-3970"/><path d="m 1080447.2,3954337.5 c -7940,-27800 15890,-43690 31770,-59570 71490,-67520 131070,-142980 218440,-186670 71490,-35750 142980,-71490 218440,-95320 170780,-55600 353480,-7940 496460,87380"/><path d="m 1612647.2,4891647.5 c 194610,0 389220,11910 583830,-35750 31770,-11910 55600,-39720 83400,-59570"/><path d="m 2831937.2,6079157.5 c 51630,-11910 103260,0 150920,-23830 103260,-51630 206530,-83400 309790,-146950 43690,-27800 99290,-67510 103260,-127090"/><path d="m 1473637.2,6734477.5 c 67520,-27800 131070,-27800 202560,-47660 79430,-19850 170780,-7940 250210,-35740 107230,-35750 214470,-55600 305810,-127090 63550,-47660 135040,-79440 178730,-146950"/><path d="m 2232217.2,6865547.5 c 111210,-15890 194610,-87380 285960,-150920 19860,-15890 47660,-31780 63550,-63550 3970,-7940 27800,-3970 35740,-15890 15890,-27800 23830,-59570 19860,-95320"/><path d="m 3892367.2,7961717.5 c 11910,-39720 55600,-51630 67510,-83410 35750,-75460 51630,-158860 103270,-222410 43680,-55600 91340,-111200 103260,-170780 11910,-59570 -3970,-123120 -3970,-186660"/><path d="m 4170377.2,7266677.5 c 47660,-35740 99290,-67520 158860,-79430"/><path d="m 3646117.2,6746397.5 c -31770,-31770 -39710,-83410 -71490,-111210 -43680,-39710 -67510,-91350 -123120,-115170"/></g><g fill="none" stroke-width="7620"><path d="m 5774917.2,713487.56 c -111210,35740 -202550,107230 -297870,178720 -146950,107240 -266100,226380.04 -421000,313760.04 -23830,11920 -55600,27800 -87370,31770"/><path d="m 5902007.2,1543557.6 c -190640,19860 -373330,43690 -567940,71490 -39720,7940 -79440,-3970 -115180,7940 -51630,11920 -103260,23830 -146950,59580 -55600,43680 -127090,63540 -198580,59570"/><path d="m 4341157.2,308377.56 c 0,146950 27800,293900 39720,440850 7940,71490 23830,142980 43680,214470 31780,123120.04 127100,202550.04 190640,309790.04 27800,47660 35750,95320 59580,142980 h -7950"/><path d="m 4126687.2,1714337.6 c -23830,51630 3970,103260 19860,150920 35740,87380 59570,178730 71490,270070 15890,115180 -7940,226390 -31770,345530 -11920,63550 3970,123129.9 23830,186669.9"/><path d="m 2585697.2,1341007.6 c 103260,43680 206520,79430 297870,150920 135040,103260 206530,250210 278020,393190"/><path d="m 2168677.2,1817597.6 c 47660,19860 83400,59580 135030,71490 95320,31770 190640,47660 281990,91350 15890,7940 35740,0 51630,3970 15890,3970 23830,19860 35740,23830 131070,59570 270080,23830 409080,35750"/><path d="m 2140877.2,2556327.5 c 23830,55600 83400,79430 127090,119140 99290,91350 166810,202560 274040,289930 95320,75460 190640,142980 289930,226390 15890,15880 23830,35740 27800,59570"/><path d="m 1267117.2,3493627.5 c -43690,-19860 -87380,-23830 -139010,-31770 -19860,-3970 -31770,-39720 -55600,-47660 -15890,-7940 -35750,0 -51630,-3970 -87379.99,-27800 -174759.98,-27800 -262129.98,-27800 -75460,-67520 -170780,19850 -238300,63540 -55600,35750 -119150,63550 -182690,67520"/><path d="m 1425977.2,3616747.5 c -75460,-15880 -146950,19860 -218440,31770 -59570,11920 -111200,39720 -162830,67520 -23830,11920 -51639.99,23830 -79439.99,27800 -35740,7950 -59570,43690 -91339.99,55610 -103270,35740 -190640,95320 -297880,99290"/><path d="m 1970097.2,3763697.5 c -83410,-11910 -162840,11920 -250220,-11910 -83400,-19860 -162830,7940 -238290,47660 -79440,47660 -154900,99290 -242270,135030"/><path d="m 1294917.2,4085397.5 c -23830,-3970 -47660,0 -67520,7950 -95320,43690 -186670,83400 -254179.99,166810 -3970,7940 -3970,31770 -11920,35740 -83399.99,91350 -166809.99,186670 -281979.99,230360"/><path d="m 2438747.2,4025827.5 c -111210,23830 -194610,103260 -309790,135040 -142980,39710 -246240,146950 -357450,242260"/><path d="m 1302857.2,4450787.5 c 47660,166810 234330,214470 393190,238300 l 3980,19860 c 91340,11920 186660,39720 250210,107230 h -7950"/><path d="m 969247.21,5114057.5 c 174749.99,15880 349499.99,11910 524249.99,0 115180,-3970 214470,-55610 325670,-75460 142980,-27810 285960,-35750 401140,-131070"/><path d="m 2426827.2,5121997.5 c 11920,11920 3980,35750 19860,43690 27800,19860 27800,47660 47660,71490 91350,99290 222410,83400 337590,67520 h -7940"/><path d="m 2081297.2,5880577.5 c 71490,-11910 135040,-43690 206530,-55600 119150,-11920 234320,-27800 353470,-39720 95320,-11910 186670,11920 281990,35750 95320,19860 190640,15880 281980,-23830"/><path d="m 1219457.2,6662987.5 c 63540,0 123120,-23830 182690,-31770 43690,-7940 87380,-11910 127100,-35740 35740,-27810 67510,-51640 111200,-67520 35750,-11920 75460,-15890 107230,-31770 194610,-91350 393200,-190640 607660,-198590"/><path d="m 1342577.2,7111787.5 c 51630,-15890 99290,-15890 150920,-75460 35750,-47660 107230,-47660 158870,-83410 107230,-67510 198580,-135030 305810,-186660 210500,-99290 432910,-166810 643410,-262130 43680,-19860 87370,-51630 131060,-83410 95320,-75460 174750,-154890 270070,-234320 39720,-35750 87380,-59580 131060,-87380"/><path d="m 2458607.2,6794057.5 c -79440,119150 -43690,270070 -83410,401130 -23830,79440 -99290,135040 -158860,198580 -7950,7950 -11920,39720 -19860,55610 -39720,59570 -95320,107230 -107240,182690"/><path d="m 3177467.2,6230087.5 c -99290,146950 -234320,278010 -266100,456730 -35740,186670 7950,377310 -59570,556030"/><path d="m 3630237.2,6595477.5 c 55600,19850 111200,43680 166810,47660 174750,11910 345530,15880 524250,43680 95320,15890 198580,39720 250210,131070"/><path d="m 3411797.2,6659017.5 c 47660,131070 71490,270070 166810,385250 67510,75460 162830,107230 238290,170780"/><path d="m 4206117.2,7183277.5 c -47660,19860 -87370,43690 -123120,75460 -23830,19860 -35740,47660 -59570,67520 -51630,43680 -111210,71490 -162840,119150 -103260,95310 -154890,218440 -254180,317730 -19860,19850 -23830,55600 -43690,79430 -71490,91350 -131060,182690 -166810,285960 -19860,63540 -23830,135030 -3970,202550 7940,31770 15890,55600 19860,83400"/><path d="m 4313357.2,7326257.5 c -15890,19850 -11920,47660 -15890,71490 -11910,127090 15890,254180 0,385240 -7940,43690 -15880,91350 -31770,135040 -27800,87380 -63550,166810 -111210,254180 -15880,27810 -3970,71490 -11910,111210 -7950,55600 -67520,51630 -95320,83400 v -3970"/><path d="m 4742287.2,7520867.5 c 19860,111200 55610,214460 39720,301840 -7940,71490 -15890,139010 -39720,206530 -19850,63540 -75460,103260 -95310,166800 -11920,35750 -23830,75470 -43690,111210"/><path d="m 3554777.2,1908947.6 c 31770,27800 59570,59570 67510,103260 23830,119150 67520,230360 51640,349509.9 -15890,131060 -75470,250210 -95320,385240 -15890,99290 19850,190640 75460,270080"/><path d="m 3217187.2,2258447.6 c -7950,67520 -31770,127100 -83410,170779.9 -27800,27800 -63540,39720 -103260,47660 -99290,15890 -202550,11920 -293900,-23830"/><path d="m 3038457.2,4121147.5 c -39710,0 -75460,15890 -111200,35740"/><path d="m 2756477.2,4299867.5 c -27800,3970 -47660,27800 -67520,43690 -71490,71490 -139010,158870 -166810,258160"/></g><g stroke-width="15240"><path d="m 10576657,10162047 c -242270,-95320 -484540,-182689.5 -718869.8,-297869.5 -146950,-71490 -480560,-103260 -409070,135040 7940,27800.5 75460,67510.5 123120,87369.5 131060,51630 262120,55600 401130,79430 210499.8,35750 413049.8,15890 619579.8,3980 -11920,3970 -11920,-7950 -15890,-7950 z" fill="#fde805"/><path d="m 9945127.2,9852207.5 c -186670,-87370 -389220,-127090 -591770,-107230" fill="none"/><path d="m 9615487.2,9701287.5 c -107240,-11910 -210500,-51630 -289930,-123120" fill="none"/><path d="m 7137187.2,8454197.5 c 111200,-27800 512340,27800 980990,274040 289930,83410 853900,456740 1116030,1008800" fill="none"/></g></g><g transform="matrix(4.891997e-5,0,0,4.891997e-5,-1.9031518,-1.9031467)" stroke="#1f1a17" stroke-width="17780"><path d="m 4932927.2,7262707.5 c 150920,-11910 309790,39720 452770,87380 51630,19850 135030,47660 135030,107230 0,142980 135040,230360 182700,357450 27800,79430 23830,170780 59570,242270 27800,55600 39720,115170 91350,154890 47660,35750 107230,3970 150920,43690 -131060,63540 -254180,258150 -452760,186670 -103270,-39720 -111210,-178730 -111210,-285960 -266100,-31780 -341560,-258160 -409080,-508370 -35740,-131070 -115170,-258160 -99290,-385250 z" fill="#006233"/><path d="m 5473067.2,8168237.5 c 107240,39720 222420,47660 337590,55610" fill="none"/><g fill="#006233"><path d="m 5445267.2,9355757.5 c -7940,-19860 -11910,139010 71490,278010 43690,75470 107240,135040 182700,158870 35740,11920 87370,-11910 131060,11920 67520,43680 59580,91340 35750,162830 -11920,47660.5 -111210,67520.5 -158870,47660.5 -67520,-19860.5 -39720,-87370.5 -79430,-131060.5 -83410,-95320 -357450,-59580 -385250,-218440 -7940,-47660 27800,-115180 67520,-158870 43690,-55600 75460,-107230 127090,-150920 z"/><path d="m 6926687.2,8497887.5 c -27800,95320 -27800,230350 -63540,321700 -35750,95320 -31780,198580 -91350,285960 -71490,111200 -218440,87370 -325680,43690 -174750,-71490 -293900,-198590 -405100,-349510 -39720,-47660 -59580,-107230 -95320,-154890 -67520,-79430 -170780,-115180 -274040,-123120 -444830,-43690 -877730,-123120 -1322560,-107240 -127090,3980 -254180,59580 -369360,123120 -59570,31780 -119150,75470 -170780,127100 -107230,95320 -266100,103260 -377300,190640 -55610,51630 -71490,139000 -111210,214460 -51630,99290 -71490,214470 -23830,309790 75460,139010 218440,210500 365390,262130 281990,95320 552060,-35750 814190,-146950 79430,-31780 135030,31770 210490,7940 254190,-79430 309790,-222410 456740,-329640 -115180,-47660 -218440,-127100 -341560,-154900 -170780,-43690 -305820,63550 -456740,123120 -67520,27800 -150920,35750 -230350,19860 -63550,-15890 -123120,-43690 -174760,-83400 -7940,-7950 -15880,-43690 11920,-47660 87380,-23830 174750,-7950 258160,-11920 214460,-15880 417020,-99290 635460,-63540 127090,19850 242270,79430 349500,142970 91350,51640 178720,107240 266100,166810 23830,15890 55600,135040 79430,150930 218440,146950 420990,198580 663260,317730 107240,51630 321710,71490 428940,-7950 250210,-186660 242270,-127090 365390,-250210 127090,-131060 139010,-218440 230360,-381280 95310,-174750 59570,-285950 27800,-484540 -15890,-99290 -99290,-83400 -79440,-99290 -95320,7950 -119140,11920 -206520,-3970 -91350,-19860 -7940,15890 -7940,15890 z"/></g><g fill="none"><path d="m 3904277.2,9057887.5 c -123120,7940 -238300,-23830 -365390,-51630 -75460,-19860 -154890,0 -198580,63540"/><path d="m 4325267.2,9169087.5 c -174750,107240 -91340,43690 -178720,178730 -19860,31770 -23830,67520 -43690,103260 -23830,39720 -63540,59570 -91350,99290 -27800,43690 -75460,63550 -115170,83400 -39720,15890 -87380,11920 -131070,15890"/><path d="m 5496897.2,9244547.5 c 3980,-71480 11920,-139000 15890,-206520 3970,-35740 15890,-71490 27800,-103260 35750,-79430 75460,-150920 127090,-226390 19860,-35740 55610,-55600 83410,-87370 11910,-11920 3970,-31770 15890,-47660"/><path d="m 6716187.2,9153207.5 c 182700,-91350 202560,7940 365390,-99290 158870,-103270 202560,-107240 210500,-119150"/></g></g><g transform="matrix(4.891997e-5,0,0,4.891997e-5,-1.9031518,-1.9031467)" stroke="#1f1a17" stroke-width="17780"><path d="m 9381157.2,7262707.5 c -146950,-11910 -309790,39720 -452770,87380 -51630,19850 -135030,47660 -135030,107230 0,142980 -135040,230360 -182700,357450 -27800,79430 -23830,170780 -59570,242270 -27800,55600 -39720,115170 -91350,154890 -47660,35750 -107230,3970 -150920,43690 142980,71490 278010,250210 452760,186670 103270,-39720 115180,-178730 111210,-285960 266100,-31780 341560,-258160 409080,-508370 35740,-131070 115180,-258160 99290,-385250 z" fill="#d7110e"/><path d="m 8841017.2,8168237.5 c -107240,39720 -222410,47660 -337590,55610" fill="none"/><path d="m 8888677.2,9371647.5 c 7940,-19860 11910,142980 -75460,281980 -43690,71490 -107240,131070 -178730,154900 -35740,11910 -91350,-11920 -131060,11910 -71490,43690 -59580,95320 -39720,162840 15890,51630.5 111210,67520.5 162840,51630.5 67520,-23830 39720,-91350.5 75460,-131060.5 87380,-99290 361420,-63550 385250,-222420 7940,-47660 -27800,-115170 -63550,-158860 -47660,-55600 -75460,-107230 -131060,-146950 z" fill="#d7110e"/><path d="m 7462857.2,8557457.5 c 23830,95320 -11910,170780 23830,262130 35750,95320 31770,198580 91350,285960 71490,111200 218440,87370 325670,43690 170780,-71490 293900,-198590 405110,-349510 35740,-47660 55600,-107230 95320,-154890 67520,-79430 170780,-115180 274040,-123120 444820,-43690 877730,-123120 1322549.8,-107240 127100,3980 254190,59580 369370,123120 59570,31780 119140,75470 170780,127100 107230,95320 266090,103260 373330,190640 59570,51630 75460,139000 115180,214460 51630,99290 71490,214470 23830,309790 -75470,139010 -218440,210500 -365390,262130 -281990,95320 -552060,-35750 -814189.8,-146950 -79430,-31780 -174750,63540 -246240,31770 -218440,-103260 -301840,-230350 -444820,-337590 115170,-43690 242270,-142980 361420,-170780 174750,-43690 305810,63550 460709.8,123120 67510,27800 150920,35750 230350,19860 63550,-15890 123120,-43690 174750,-83400 7940,-7950 15890,-43690 -11910,-47660 -87380,-23830 -174760,-7950 -258160,-11920 -214469.8,-15880 -417019.8,-99290 -635459.8,-63540 -127090,19850 -242270,79430 -349500,142970 -91350,51640 -182700,107240 -266100,166810 -23830,15890 -55610,135040 -79440,150930 -218440,146950 -420990,198580 -663260,317730 -107230,51630 -301840,39710 -428930,-7950 -146950,-55600 -230360,-43690 -349510,-166810 -127090,-135030 -71490,-150920 -162830,-313760 -99300,-174750 -75470,-254180 -83410,-456730 -7940,-182700 -63540,-250220 -87370,-266100 95310,11910 150920,-7950 246240,11910 95320,19860 55600,-27800 135030,19860 z" fill="#d7110e"/><g fill="none"><path d="m 10445557,9057887.5 c 123120,7940 238290,-23830 365390,-51630 75460,-19860 150920,0 198580,63540"/><path d="m 10024557,9169087.5 c 174750,107240 91350,43690 178730,178730 19850,31770 23830,67520 43680,103260 23830,39720 63550,59570 91350,99290 27800,43690 71490,63550 115180,83400 39720,15890 83400,11920 127090,15890"/><path d="m 8852927.2,9244547.5 c -3970,-71480 -11910,-139000 -15880,-206520 -3980,-35740 -15890,-71490 -31780,-103260 -31770,-79430 -75460,-150920 -123120,-226390 -23830,-35740 -55600,-55600 -83400,-87370 -11920,-11920 -3970,-31770 -15890,-47660"/><path d="m 7728957.2,9200867.5 c -254180,-3970 -345530,0 -532200,-63550 -11910,-3970 -19860,-23830 -27800,-39720"/></g></g><g transform="matrix(4.891997e-5,0,0,4.891997e-5,-1.9031518,-1.9031467)" stroke="#1f1a17" stroke-width="17780"><path d="m 7033927.2,8509797.5 c 0,0 -154900,55610 -222420,-139000 -67510,-190640 -194610,-317730 -194610,-317730 0,0 127100,-39720 206530,-11920 0,0 250210,39720 278010,111210 27800,67510 123120,234320 55610,341560 -71490,111200 -123120,15880 -123120,15880 z" fill="#d7110e"/><path d="m 6922717.2,8275477.5 c 0,0 95320,83400 95320,218440" fill="none"/><path d="m 7331797.2,8513767.5 c 0,0 238300,51640 254180,-206520 15890,-202550 -79430,-246240 -79430,-246240 0,0 -158870,-35750 -230360,15890 0,0 -218430,11910 -174750,75460 55610,79430 11920,266100 111210,353470 95320,87380 119150,7940 119150,7940 z" fill="#006233"/><path d="m 7375487.2,8219867.5 c 0,0 83400,150930 -23830,278020" fill="none"/></g><g transform="matrix(4.891997e-5,0,0,4.891997e-5,-1.9031518,-3.8131467)" fill="#ffe805"><path d="M 9574605.7,6659741.6 C 8641522.4,6631904.3 4363168.9,3971594.2 4333835,3548201 l 236253.2,-392463.1 c 424378.9,614239.2 4798252,3201238.7 5227805.9,3109533 l -223288.4,394470.7"/><path d="m 4520489.7,3102478.1 c -83699.3,224381.1 1116442.3,963453.7 2560382.3,1838240.5 1443912.8,874732.6 2688941.1,1415308.3 2781219.7,1337792.8 5638.1,-10011.8 45404,-78167.2 41754.4,-77624.6 -17295.4,25965.6 -59403.8,34159.1 -125099.3,15302.4 C 9388659.1,6104107.5 8371195.3,5638903.9 7111159.5,4877772.6 5851150.9,4116587.2 4754890.9,3415146.1 4584496.6,3117102.2 c -11848.1,-20647.4 -20291.5,-58333.4 -18575.4,-87636.1 l -4140.2,-61.7 -36279.7,63163.2 -4984.2,9903.1 h -27.4 z m 5076232.2,3569716.7 c -15824.3,28597.4 -45322.1,29547.1 -101348.4,23415.1 C 9146386.4,6657136.8 8087386.3,6144181.1 6834323.2,5396995.7 5376220.1,4527499.7 4171992.8,3735411 4302811.9,3528286.1 l 35544.2,-62593.4 6999.7,2172.4 c -117472.8,350869.5 2376478.7,1771306 2523286,1861872.5 1443041.1,890523.3 2659579.3,1410532.8 2767247.1,1275416.4 l -39167,67096.9 v -61.6 z" stroke="#1f1a17" stroke-width="17656.5" stroke-linecap="round" stroke-linejoin="round"/><path d="m 7163399.7,3804678.8 c 933846.5,-7352.9 2086214.8,-127113.1 2749407.2,-390401.1 l -142885,-231244.9 C 9377927.8,3399138.1 8219213.3,3541255.2 7155501.4,3562499.7 5897399.3,3550968.5 5009366,3434274.3 4564395.6,3136881.2 l -134877.3,246249.3 c 817925.7,344765.2 1656088.4,417994.2 2733881.4,421548.3"/><path d="m 9951429,3419541.4 c -22824.3,36356.7 -455320.3,184931.2 -1092474.1,294571.1 -432005.1,65604.9 -995510.9,121686.7 -1698768.8,122364.9 C 6492064,3837103 5946289.6,3789729 5533077.8,3733945.8 4864247,3629487.9 4519046,3484142.4 4391441.2,3432781.9 c 12201.8,-24174.6 20046.1,-41131.9 31812.5,-63705.8 367371.8,145698.3 714180.3,233551.7 1120446.7,295819.1 410488.1,55376.5 949697.9,103426.9 1614497.6,102802.9 699962,-705.7 1257257.5,-61046.9 1686757.1,-124698.2 653359.9,-104973.4 1010245.9,-240063.3 1060389.2,-302792 l 46139.3,79333.5 h -61.6 z m -125398.8,-234501.1 c -70815.9,56651.3 -423671.1,181295.5 -1044482.6,280055.5 -414301.5,59147.8 -941118.7,112082 -1614171,112733.1 -639414.7,625.5 -1161846.4,-42298.3 -1559179.4,-99953.8 -630481,-82019.6 -966012.8,-229969.9 -1086999.4,-273109.7 12038.5,-20729 24295.4,-41294.7 36878.7,-61942.3 94131.1,47209.7 417951.4,178148.4 1057039.1,268334.4 392838.7,55484.9 916060.2,96834.1 1552288.1,96183 669892.9,-681 1190690.9,-54644 1602377.5,-113465.8 624026,-85519.8 959802.8,-244485.4 1010763.3,-284288.1 l 45485.7,75399.5 v 61.6 z" stroke="#1f1a17" stroke-width="17656.5" stroke-linecap="round" stroke-linejoin="round"/><path d="m 4097009.6,4925307.8 c 574372.8,307730 1850124.3,462815.9 3057347.7,473478.5 1099201.8,1734.9 2531211.7,-169249 3066717.7,-451908.6 l -14735,-308001.4 C 10038805,4899668 8504220.6,5149824.2 7142455,5139595.4 5780688.8,5129366.6 4516131.6,4919854 4094585.2,4648643.7 l 2452.8,276609.6"/><path d="m 10250436,4881055.6 27,73445.9 c -80485,95857.3 -585130.9,240741.5 -1217981.5,342757.4 -481631,73554.6 -1109579.1,129039.5 -1892014.6,129039.5 -743351.2,0 -1336136.3,-52798.5 -1795868.6,-123097.3 -726681.9,-105407.6 -1191480.7,-289986 -1284767.2,-345091 l 406.8,-85682.5 c 280268.1,185609.5 1039580,321377.3 1294572.2,362943.2 456709.2,69837.8 1045980.8,122229.6 1785627.5,122229.6 778785.9,0 1403193.1,-55105 1881801,-128171.2 454040,-65333.8 1100835.4,-235233.5 1228168.4,-348373.6 h 27 z m 308,-261253.3 27,73446.2 c -80484,95802.8 -585130.7,240687 -1217981.4,342703.1 -481631,73554.7 -1109579,129039.6 -1892014.9,129039.6 -743350.8,0 -1336135.9,-52744.3 -1795868.2,-123097.7 -726682,-105353 -1191480.7,-289931.4 -1284767.2,-345036.4 l 406.7,-85682.2 c 280268.1,185581.8 1039580.1,321377 1294572.6,362888.9 456708.8,69891.8 1045980.5,122310.7 1785627.1,122310.7 778786.3,0 1403193.2,-55132.1 1881800.7,-128252.9 454040.3,-65333.4 1100836.6,-235233.5 1228169.6,-348373.6 l 26,61.7 z" stroke="#1f1a17" stroke-width="17656.5" stroke-linecap="round" stroke-linejoin="round"/><path d="M 7151660.7,6606943 C 5830696.1,6599101.7 4698810.4,6248259 4459805.5,6190278.4 l 174289.6,271780.1 c 422200,176900.1 1526413.1,440540.6 2530258,411347 1003845.5,-29166.9 1881147.7,-106628.5 2499399.2,-406409 l 178701.5,-281656.3 c -421328.3,197655.9 -1855135.9,419595 -2690793.1,421602.8"/><path d="m 9730918.5,6403833.6 c -26256.1,39965.3 -53030.5,79442 -80185.5,117806.6 -291598.8,102422.9 -751086.1,209946.4 -944958.7,241311.3 -396052.7,81287.1 -1008829.7,141329.8 -1552669.9,141601.2 -1170208.5,-17065.8 -2128077.4,-245245 -2578712.7,-439889.5 l -36361.4,-62267.7 5937.6,-9360.4 61664.7,23821.8 c 801392.8,285590.3 1701437.6,399517.1 2554063.5,419974.9 541633.9,1898.2 1083867.2,-61833.8 1522355,-139946.8 672371.3,-134194.5 944250.3,-235342 1027677.2,-281194.7 l 21217.7,-11856.7 z m 154950.9,-254578.7 c 681,788.9 1362,1546.9 2018.4,2388.1 -19637.6,33019.3 -39874.8,66608.6 -60602.3,100360.5 -155522.8,55376.5 -577586.9,178392.5 -1193959,264237.7 -406103,55104.7 -658507.8,108473.3 -1466355.7,124101.3 -1513802.8,-38364.3 -2493897,-333206.9 -2726745.9,-405920.3 l -34509.4,-65930.3 c 877302.5,228124.7 1773425.4,387361.8 2761282.4,403641 739101.9,-15682 1053525,-69891.5 1456250.8,-124589.4 718701.7,-111322.1 1080816.8,-229183.2 1189519.4,-263206.9 -1362,-1953.7 -2970.5,-4015.4 -4766.4,-6131.8 l 77924.7,-29003.8 -61.6,61.6 z" stroke="#1f1a17" stroke-width="16947.801" stroke-linecap="round" stroke-linejoin="round"/><path d="m 7153322.5,2014922.8 c 1516934.8,0 2741725.9,1228586.8 2741725.9,2739915.2 0,1511273.8 -1224818.6,2731612.9 -2741725.9,2731612.9 -1516935,0 -2745866.3,-1224435.8 -2745866.3,-2735763.9 0,-1511328.4 1228931.3,-2735710 2745866.3,-2735710 v -61.6 z m 0,-270722.2 c 1662053.2,0 3017636.5,1350545 3017636.5,3006486.4 0,1655913.7 -1355583.3,3006513.2 -3017636.5,3006513.2 -1662053.4,0 -3017636.5,-1350572.1 -3017636.5,-3006513.2 0,-1655941.4 1355583.1,-3006486.4 3017636.5,-3006486.4"/><path d="m 7155365.2,1708061.1 c 1684223.9,0 3057865.8,1368451.7 3057865.8,3046288.5 0,1677782.8 -1373669,3046234.2 -3057865.8,3046234.2 -1684224.5,0 -3057865.3,-1368397.5 -3057865.3,-3046234.2 0,-1677836.8 1373668.2,-3046288.5 3057865.3,-3046288.5 z m 0,67016.2 c 1639827.8,0 2990617.8,1340749.8 2990617.8,2979272.3 0,1638468.5 -1350762.3,2979218.3 -2990617.8,2979218.3 -1639828.1,0 -2990590.3,-1340749.8 -2990590.3,-2979218.3 0,-1638468.3 1350762.2,-2979272.3 2990590.3,-2979272.3 z" stroke="#1f1a17" stroke-width="17656.5" stroke-linecap="round" stroke-linejoin="round"/><path d="m 7158061.8,1961255.9 c 1535891.5,0 2800993.8,1255800.4 2800993.8,2790380.5 0,1534607.5 -1265102.3,2790353.3 -2800993.8,2790353.3 -1535864.8,0 -2800994.1,-1255745.8 -2800994.1,-2790353.3 0,-1534580.1 1265129.3,-2790380.5 2800994.1,-2790380.5 z m 0,67015.9 c 1499012.8,0 2733718.1,1225602.5 2733718.1,2723364.6 0,1497735 -1234732.4,2723337.4 -2733718.1,2723337.4 -1498986.1,0 -2733718.5,-1225602.4 -2733718.5,-2723337.4 0,-1497762.1 1234705.6,-2723364.6 2733718.5,-2723364.6 z" stroke="#1f1a17" stroke-width="17656.5" stroke-linecap="round" stroke-linejoin="round"/><path d="m 7031600.4,7823130.5 h 266050.8 V 1693735.3 h -266050.8 z" stroke="#1f1a17" stroke-width="17656.5" stroke-linecap="round" stroke-linejoin="round"/><path d="m 7254834.3,1660933.1 h 66703.7 l 573.2,6191228.4 h -66758 l -493,-6191228.4 h -27.5 z m -260085.5,55.4 h 67220.8 l 92.5,6191120 h -67275.4 v -6191120 h -27.1 z" stroke="#1f1a17" stroke-width="17656.5" stroke-linecap="round" stroke-linejoin="round"/><path d="m 4086550.7,4624631.8 c 383469.1,-351656.2 1798292.1,-579672.8 3053588.9,-573758 1255296.9,5887.7 2741916.9,262799.6 3065328.4,566269.8 l 3241,262257 c -270843.7,-253764.9 -1425826.9,-556393.9 -3066090.7,-559785.3 -1640290.6,-3391.7 -2831226.5,307567 -3056122.1,566568.4 l 61.6,-261551.9" stroke="#1f1a17" stroke-width="17656.5" stroke-linecap="round" stroke-linejoin="round"/><path d="m 7156836,4282661.7 c 722160.5,-1328.1 1422831.3,68155.1 1978601.2,175950.1 573501.3,114198.3 977070.8,257047.8 1115080.8,417505.8 l -154,79442 c -166417,-199663.5 -709494.6,-346040 -1127827.5,-429715 -551520.9,-106872.4 -1247506.7,-175869.1 -1965690.4,-174539.4 -757841.2,1411.3 -1463496.4,72903.2 -2006982.2,178528 -436090.8,86198 -1017654,257427.4 -1090268.2,426323.6 v -82725.3 c 39875.1,-116911.1 472915.2,-291613.8 1080462.8,-412757.6 547544.7,-106357.3 1254506.7,-176628.4 2016787.6,-178012.2 z m 308.1,-261253.3 c 722160.6,-1300.4 1422831.3,68209.6 1978601.2,175950.4 573501.6,114252.5 977070.7,257047.5 1115080.7,417505.8 l -154,79442.3 c -166418,-199609.5 -709495.1,-345986.4 -1127827.9,-429661 -551520.7,-106926.7 -1247506.7,-175923.4 -1965690.7,-174539.5 -757840.9,1355.8 -1460091.2,72903.6 -2003604.5,178473.8 -420838.3,79468.8 -1026152.2,257481.4 -1093672.8,426377.5 v -82779.2 c 39874.8,-115636 481685.6,-296605.7 1080489.9,-412757.6 547544.7,-106357.3 1254506.8,-176574.4 2016787.4,-178012.5 z" stroke="#1f1a17" stroke-width="17656.5" stroke-linecap="round" stroke-linejoin="round"/><path d="m 7142128.4,2688933.8 c 1138040.9,-5670.8 2130691.9,158504.3 2584841,390238 l 165655.1,285454.7 c -394717.8,-211900.4 -1465647.9,-432238.3 -2748862.4,-399273.3 -1045544.7,6403.2 -2162722.9,114659.5 -2723259.5,412541 l 197767.5,-329462.6 C 5078302.3,2810810 6163150.2,2690263.1 7142128.4,2688987.7" stroke="#1f1a17" stroke-width="17687.301" stroke-linecap="round" stroke-linejoin="round"/><path d="m 7157190,2924655.7 c 649083.9,-1710.2 1276296.4,34755.9 1775114,124399.6 464526.4,86116.9 907535.2,215373.1 970861.1,284885.3 l 49108.6,86442 C 9798221.3,3320184.5 9414861,3208618.1 8922634.5,3115637.3 8428311.2,3023090 7801534.6,2992431.1 7156045.9,2994113.3 c -732619.5,-2496 -1301844.4,36031.3 -1790311.8,120872.9 -516630.7,96290.9 -875069.1,233849.3 -963507.3,299210.2 l 48127.7,-91380.1 c 171810.9,-87310.7 444425.3,-192555.2 902523.6,-274710.7 505163.8,-91922.7 1080407.9,-119488.8 1804339,-123449.9 z m -277.3,-261009 c 621165.9,-1627 1234514.8,32856.9 1712577.6,118458 377068.6,73120.5 749969.7,187264.2 886508.8,288845.9 l 71823.8,113682.7 c -122103.6,-135198.1 -581727.1,-263314.8 -987475.8,-335078.8 -474413,-81504.1 -1062268.5,-113764.1 -1683434.4,-118918.7 -651889.5,1818 -1254370.6,41593 -1721865.6,126380 -446004.9,84543.3 -733817.8,184632.7 -855594.5,262799.6 l 63162.6,-94961.6 c 168052.1,-88124.5 439549.9,-169058.9 781455.3,-235233.8 470954.5,-85411 1077112.7,-124155.5 1732842.2,-125973.3 z" stroke="#1f1a17" stroke-width="17656.5" stroke-linecap="round" stroke-linejoin="round"/><path d="m 8676168,6020649.8 c -562634,-104620.5 -1126330,-119814.7 -1520012.7,-115202.1 -1896509.2,22139.7 -2509150,387904.8 -2583915.4,498657 l -141741.1,-230159.9 c 482829.3,-348617.4 1515573,-544103.1 2735924.7,-524133.9 633667.5,10337.2 1180503.8,52256.2 1640536.2,141004.4 l -130819.4,229888.5" stroke="#1f1a17" stroke-width="17656.5" stroke-linecap="round" stroke-linejoin="round"/><path d="m 7145314.9,5872970.8 c 527552.4,7841 1045408.9,29546.5 1545233.8,122392 l -36197.7,63651.6 c -464226.9,-85357.1 -959095,-118023.8 -1507238.7,-115364.9 -699935.3,-5453.4 -1407850.4,59663.1 -2024195.7,235857.5 -194471.7,53911 -516412.5,178446.4 -549233,281357.4 l -36007.3,-59147.4 c 10377.3,-60829.7 204958,-187074.4 568707.5,-288872.7 705954.8,-201373.4 1366287,-235315.2 2038931.1,-239927.8 v 61.7 z m 23940.7,-264454.6 c 546591.3,10174.2 1111049.9,35352.8 1659711.3,143609.1 l -37695.9,66256.3 c -495440.4,-97973.6 -968791,-130640.3 -1618801.1,-140597.9 -702141.3,1272.6 -1446963.2,51143.5 -2124155.4,247253.2 -218631.1,63434.3 -595971.6,200586 -608555.2,309168.1 l -36006.9,-63542.9 c 8197.8,-98624.7 334850.8,-227283.7 628737.5,-312424.2 682421.7,-197628.2 1429177.2,-248446.6 2136765.7,-249721.7 z" stroke="#1f1a17" stroke-width="16947.801" stroke-linecap="round" stroke-linejoin="round"/><path d="m 4591714.2,3044361.6 c 939456.8,-12154.9 5278358,2641019 5291132.1,3129583.2 L 9614045,6584369.2 C 9492867.7,6017203.9 5090123.5,3435332.1 4363822.8,3483979.7 l 227891.4,-439618.1" stroke="#1f1a17" stroke-width="17656.5" stroke-linecap="round" stroke-linejoin="round"/><path d="m 4336939.9,3468243.2 c 174370.9,-117806.6 1455842.2,450850.7 2796717.4,1256207.4 1337307.2,807662.2 2615183.4,1720352.3 2499834.8,1891147.2 l -37941.1,59446.1 -17404.5,13674.7 c 3731.6,-2659.3 22960.6,-26073.7 -1879.7,-89399.6 C 9519287.8,6412570 8612841.5,5692055.2 7108817,4787477.6 5642597.5,3916597.7 4420612,3391704.5 4298453.9,3541743.6 l 38513.4,-73500.4 z M 9909756.3,6203952.9 C 10020012,5987006.3 8831391,5095099.1 7357735.4,4226715.8 5850197.5,3375614.9 4763660.9,2874624.6 4565185.6,3024012.6 l -44096.6,79957.8 c -385.2,4395.3 1605.4,-5453.5 10921.8,-12616.2 36088.9,-31364.5 95901.4,-29248.2 122893.4,-29736.6 341742.1,5100.6 1317723.9,452505.4 2687116,1234501.2 600002.7,348102.5 2534698,1584042.2 2527316.5,1931628.4 520.8,29872.5 2480.6,36031.7 -8797.4,50818.5 l 49217,-74558.6 v -61.6 z" stroke="#1f1a17" stroke-width="17656.5" stroke-linecap="round" stroke-linejoin="round"/></g><g transform="matrix(1.5074282,0,0,1.5074282,-13.583152,-74.163147)"><g stroke="#1f1a17"><path d="m 180.596,211.007 c 0,16.271 6.663,30.987 17.458,41.743 10.814,10.778 25.511,17.579 41.808,17.579 16.382,0 31.247,-6.653 42.016,-17.39 10.769,-10.735 17.443,-25.552 17.446,-41.88 h -0.002 V 131.87 l -118.74,-0.14 0.012,79.277 z" fill="#fff" stroke-width=".67"/><path d="m 182.819,211.12 v 0.044 c 0,15.557 6.441,29.724 16.774,40.01 10.354,10.304 24.614,16.712 40.214,16.712 15.682,0 29.912,-6.361 40.222,-16.626 10.308,-10.265 16.698,-24.433 16.7,-40.044 h -0.003 V 134.39 l -113.838,-0.019 -0.07,76.748 m 91.023,-53.746 0.004,48.89 -0.042,5.172 h 10e-4 c 0,1.36 -0.082,2.912 -0.24,4.233 -0.926,7.73 -4.48,14.467 -9.746,19.708 -6.163,6.136 -14.67,9.941 -24.046,9.941 -9.328,0 -17.64,-3.937 -23.83,-10.1 -6.35,-6.32 -10.03,-14.986 -10.03,-23.946 l -0.013,-54.023 67.94,0.123 0.003,0.002 z" fill="#d7110e" stroke-width=".507"/></g><use xlink:href="#a" transform="translate(0,26.0165)"/><use xlink:href="#a" transform="translate(-0.06747,51.79972)"/><use xlink:href="#a" transform="translate(-20.79887,26.0165)"/><use xlink:href="#a" transform="translate(20.81827,26.0165)"/><g id="a"><path d="m 232.63049,176.38549 0,0.005 c 0,2.21192 0.84927,4.22717 2.21182,5.68943 1.36519,1.46667 3.24541,2.37772 5.30202,2.37772 2.06718,0 3.94388,-0.90487 5.3029,-2.36537 1.35813,-1.45874 2.20212,-3.47222 2.20212,-5.69296 l 0,0 0,-10.76766 -14.99152,-0.0123 -0.0273,10.7659" fill="#002c77"/><path d="m 236.26658,169.71446 v 0 m 8.11617,0 v 0 m -4.167,4.00139 v 0 m -3.94917,4.1685 v 0 m 8.11617,0 v 0" stroke="#fff" stroke-width="2.97205" stroke-linecap="round"/></g><g id="e"><path d="m 190.191,154.434 c 0.135,-5.521 4.053,-6.828 4.081,-6.848 0.028,-0.018 4.231,1.408 4.217,6.899 l -8.298,-0.051" fill="#ffe805"/><path d="m 186.81,147.686 -0.682,6.345 4.14,0.009 c 0.04,-5.25 3.974,-6.123 4.07,-6.103 0.088,-0.005 3.988,1.16 4.092,6.103 h 4.151 l -0.75,-6.393 -15.022,0.038 v 0.002 z" fill="#ffe805" stroke="#1f1a17" stroke-width=".499"/><path d="m 185.85,154.06 h 16.946 c 0.358,0 0.65,0.353 0.65,0.784 v 0 c 0,0.43 -0.292,0.781 -0.65,0.781 h -16.945 c -0.358,0 -0.65,-0.35 -0.65,-0.781 v 0 c 0,-0.431 0.292,-0.784 0.65,-0.784 z" fill="#ffe805" stroke="#1f1a17" stroke-width=".499"/><path d="m 192.014,154.03 c 0.019,-3.314 2.262,-4.251 2.274,-4.25 0,0 2.342,0.967 2.36,4.25 h -4.634" fill="none" stroke="#1f1a17" stroke-width=".497"/><path d="m 186.208,145.054 h 16.245 c 0.342,0 0.622,0.319 0.622,0.705 v 0 c 0,0.387 -0.28,0.705 -0.622,0.705 h -16.245 c -0.342,0 -0.623,-0.316 -0.623,-0.705 v 0 c 0,-0.386 0.28,-0.705 0.623,-0.705 z" fill="#ffe805" stroke="#1f1a17" stroke-width=".499"/><path d="m 186.55,146.466 h 15.54 c 0.326,0 0.594,0.316 0.594,0.703 v 0 c 0,0.388 -0.268,0.705 -0.595,0.705 h -15.538 c -0.327,0 -0.595,-0.317 -0.595,-0.705 v 0 c 0,-0.387 0.268,-0.703 0.595,-0.703 z" fill="#ffe805" stroke="#1f1a17" stroke-width=".499"/><path d="m 191.572,135.882 1.226,0.002 v 0.872 h 0.895 v -0.891 l 1.257,0.004 v 0.887 h 0.898 v -0.89 h 1.258 l -0.002,2.01 c 0,0.317 -0.254,0.521 -0.549,0.521 h -4.411 c -0.297,0 -0.57,-0.237 -0.57,-0.526 l -0.004,-1.988 h 0.001 z" fill="#ffe805" stroke="#1f1a17" stroke-width=".5"/><path d="m 196.193,138.574 0.277,6.451 -4.303,-0.016 0.285,-6.452 3.74,0.017" fill="#ffe805" stroke="#1f1a17" stroke-width=".499"/><use xlink:href="#b" transform="translate(10.60889)"/><use xlink:href="#c" transform="translate(10.60889,-0.010585)"/><path id="c" d="m 186.302,139.045 1.2,0.003 v 0.872 h 0.877 v -0.892 l 1.23,0.004 v 0.889 h 0.879 v -0.893 l 1.23,0.002 -0.002,2.012 c 0,0.314 -0.249,0.518 -0.536,0.518 h -4.317 c -0.29,0 -0.558,-0.235 -0.56,-0.525 l -0.002,-1.99 v 0 z" fill="#ffe805" stroke="#1f1a17" stroke-width=".5" stroke-opacity="1"/><path id="b" d="m 190.94,141.56 0.132,3.477 -4.126,0.002 0.116,-3.48 h 3.879 z" fill="#ffe805" stroke="#1f1a17" stroke-width=".501"/><path d="m 193.898,140.61 c -0.026,-0.627 0.877,-0.634 0.866,0 v 1.537 h -0.866 v -1.537" fill="#1f1a17"/><use xlink:href="#d" transform="translate(10.64108)"/><path id="d" d="m 188.566,142.844 c -0.003,-0.606 0.837,-0.618 0.826,0 v 1.187 h -0.826 v -1.187" fill="#1f1a17" fill-rule="evenodd" stroke="none"/></g><use xlink:href="#e" transform="translate(45.45939,-8.306632e-5)"/><use xlink:href="#e" transform="translate(90.918789,-8.306632e-5)"/><use xlink:href="#e" transform="translate(-1.4901161e-8,46.31963)"/><use xlink:href="#e" transform="translate(90.84999,46.31963)"/><use xlink:href="#e" transform="rotate(-45,313.3272,179.94171)"/><use xlink:href="#e" transform="rotate(45,120.81947,289.99293)"/></g></svg>