<?xml version="1.0" encoding="UTF-8" standalone="no"?>
<svg
   xmlns:dc="http://purl.org/dc/elements/1.1/"
   xmlns:cc="http://creativecommons.org/ns#"
   xmlns:rdf="http://www.w3.org/1999/02/22-rdf-syntax-ns#"
   xmlns:svg="http://www.w3.org/2000/svg"
   xmlns="http://www.w3.org/2000/svg"
   xmlns:xlink="http://www.w3.org/1999/xlink"
   xmlns:sodipodi="http://sodipodi.sourceforge.net/DTD/sodipodi-0.dtd"
   xmlns:inkscape="http://www.inkscape.org/namespaces/inkscape"
   version="1.0"
   id="Layer_1"
   x="0px"
   y="0px"
   width="354px"
   height="488px"
   viewBox="0 0 354 488"
   enable-background="new 0 0 354 488"
   xml:space="preserve"
   inkscape:version="0.92.3 (2405546, 2018-03-11)"
   sodipodi:docname="Coat_of_arms_of_Iraq.svg"><metadata
   id="metadata221"><rdf:RDF><cc:Work
       rdf:about=""><dc:format>image/svg+xml</dc:format><dc:type
         rdf:resource="http://purl.org/dc/dcmitype/StillImage" /><dc:title></dc:title></cc:Work></rdf:RDF></metadata><defs
   id="defs219"><path
     style="fill:none;stroke:#000000;stroke-width:1.15379965px;stroke-linecap:butt;stroke-linejoin:miter;stroke-opacity:1"
     d="m 179.10644,436.79604 c -37.78241,86.99142 -34.31593,172.868 0,257.9108"
     id="path3202-1"
     inkscape:connector-curvature="0"
     sodipodi:nodetypes="cc" /><path
     style="fill:none;stroke:#000000;stroke-width:1px;stroke-linecap:butt;stroke-linejoin:miter;stroke-opacity:1"
     d="m -345.06811,280.7398 c 112.87437,39.25927 178.93779,40.34159 290.968446,-0.36554"
     id="path3285-4"
     inkscape:connector-curvature="0"
     sodipodi:nodetypes="cc" /></defs><sodipodi:namedview
   pagecolor="#ffffff"
   bordercolor="#666666"
   borderopacity="1"
   objecttolerance="10"
   gridtolerance="10"
   guidetolerance="10"
   inkscape:pageopacity="0"
   inkscape:pageshadow="2"
   inkscape:window-width="1440"
   inkscape:window-height="837"
   id="namedview217"
   showgrid="false"
   inkscape:zoom="1.9344262"
   inkscape:cx="144.74741"
   inkscape:cy="181.68905"
   inkscape:window-x="-8"
   inkscape:window-y="-8"
   inkscape:window-maximized="1"
   inkscape:current-layer="Layer_1" />
<polygon
   fill="#F6C314"
   stroke="#201B17"
   stroke-width="0.013"
   points="144.612,387.938 204.413,388.958 186.523,296.957   167.102,296.447 "
   id="polygon3" />
<path
   fill="#F6C314"
   stroke="#201B17"
   d="M229.559,279.753c3.522,5.906,22.69,29.013,22.69,29.013  c4.56,12.646,21.862,23.729,21.862,23.729c1.761,8.808,20.515,21.759,20.515,21.759c4.663,12.229,24.556,23.729,24.556,23.729  c11.19,16.063,24.66,25.486,24.66,25.486l-12.848-284.31c0,0-1.244-16.371-17.614-23.416c-16.371-7.046-26.938,0-36.368,3.522  c-9.324,3.522-22.479,14.091-33.984,16.371c-11.707,2.383-19.894,2.383-66.825-11.708c-46.832,14.091-55.018,14.091-66.725,11.708  c-11.502-2.28-24.66-12.849-34.089-16.371c-9.325-3.524-19.894-10.57-36.265-3.524c-16.474,7.045-17.613,23.416-17.613,23.416  L8.658,403.466c0,0,13.469-9.429,24.556-25.489c0,0,19.997-11.5,24.659-23.727c0,0,18.754-12.951,20.516-21.759  c0,0,17.303-11.087,21.758-23.728c0,0,19.272-23.104,22.795-29.017L229.559,279.753L229.559,279.753z"
   id="path5" />
<path
   fill="#201B17"
   stroke="#201B17"
   stroke-width="0.013"
   d="M319.182,377.977c10.057,15.543,24.659,25.489,24.659,25.489  l-12.848-284.31c0,0-10.258-8.6-19.997-9.117v0.104L319.182,377.977L319.182,377.977L319.182,377.977z"
   id="path7" />
<path
   fill="#201B17"
   stroke="#201B17"
   stroke-width="0.013"
   d="M286.753,124.75c6.733-7.875,13.158-13.262,20.204-14.92  l7.563,264.313c0,0-12.848-5.906-19.894-19.894L286.753,124.75L286.753,124.75z"
   id="path9" />
<path
   fill="#201B17"
   stroke="#201B17"
   stroke-width="0.013"
   d="M274.111,332.492l-5.284-184.015l0.933-1.45  c5.077-4.248,9.016-8.496,13.159-17.511l0.519-1.243c2.225,74.208,4.57,148.152,6.791,222.36  C284.563,345.355,279.216,341.957,274.111,332.492L274.111,332.492z"
   id="path11" />
<path
   fill="#201B17"
   stroke="#201B17"
   stroke-width="0.013"
   d="M252.249,308.764l-4.56-149.719l0.312-0.622  c6.01-1.243,10.672-1.657,15.853-5.388l0.83-0.414l4.978,175.518C269.654,328.139,259.502,324.927,252.249,308.764L252.249,308.764z  "
   id="path13" />
<path
   fill="#201B17"
   stroke="#201B17"
   stroke-width="0.013"
   d="M247.482,302.34l-3.834-133.866l-0.313-0.622  c-9.321,4.767-24.864,1.762-24.864,1.762l11.088,110.139C233.081,286.798,247.482,302.34,247.482,302.34L247.482,302.34z"
   id="path15" />
<g
   id="_43634128">
	<path
   id="_72135048"
   fill="#201B17"
   stroke="#201B17"
   stroke-width="0.013"
   d="M33.214,377.977   c-9.946,15.543-24.556,25.489-24.556,25.489l12.848-284.31c0,0,10.258-8.6,19.894-9.117v0.104L33.214,377.977L33.214,377.977   L33.214,377.977z" />
	<path
   id="_25080000"
   fill="#201B17"
   stroke="#201B17"
   stroke-width="0.013"
   d="M65.748,124.75   c-6.734-7.875-19.993-22.154-20.204-14.92c-2.583,88.412-5.167,176.654-7.751,265.064c7.944-5.771,16.687-13.649,20.08-20.646   L65.748,124.75L65.748,124.75z" />
	<path
   id="_69121184"
   fill="#201B17"
   stroke="#201B17"
   stroke-width="0.013"
   d="M78.389,332.492l5.284-184.015l-1.036-1.45   c-4.974-4.248-9.015-8.496-13.055-17.511l-0.622-1.243l-7.109,222.829C67.92,346.012,72.516,342.927,78.389,332.492L78.389,332.492   z" />
	<path
   id="_72114080"
   fill="#201B17"
   stroke="#201B17"
   stroke-width="0.013"
   d="M100.147,308.764l4.56-149.719l-0.208-0.622   c-6.009-1.243-10.672-1.657-15.956-5.388l-0.828-0.414L82.74,328.139C82.74,328.139,92.998,324.927,100.147,308.764   L100.147,308.764z" />
	<path
   id="_69112560"
   fill="#201B17"
   stroke="#201B17"
   stroke-width="0.013"
   d="M105.017,302.34l3.834-133.866l0.311-0.622   c9.325,4.767,24.866,1.762,24.866,1.762l-11.086,110.139C119.419,286.798,105.017,302.34,105.017,302.34L105.017,302.34z" />
</g>
<path
   fill="#FFFFFF"
   stroke="#201B17"
   d="M176.198,477.858c88.483,0,131.271-19.896,131.271-19.896l-1.14-8.808  c0,0,0.725-0.521,5.284-1.767c4.144-1.14,5.595-9.319,5.283-12.946c-0.313-3.216,2.896-11.396,4.658-12.854  c0,0-7.354-2.59-9.941-5.595c-4.248-4.663-8.496-9.325-15.231-5.803c-2.59,1.348-1.14-10.882-1.14-10.882  s-40.311,19.896-118.842,18.757c-78.537-1.143-119.153-18.755-119.153-18.755s1.451,12.229-1.139,10.882  c-6.735-3.522-10.983,1.14-15.231,5.803c-2.694,3.005-9.946,5.595-9.946,5.595c1.761,1.451,4.973,9.641,4.662,12.854  c-0.311,3.627,1.14,11.813,5.284,12.946c4.559,1.243,5.284,1.767,5.284,1.767l-1.243,8.808  C44.923,457.965,87.715,477.858,176.198,477.858L176.198,477.858z"
   id="path23" />
<path
   d="M176.819,472.781c84.34,0,126.199-18.028,126.199-18.028l-1.14-8.186  c0,0,1.349-1.45,5.699-2.389c3.833-0.933,5.284-6.838,4.973-9.429c-0.311-2.383,2.591-10.771,5.077-11.708  c0,0-6.009-0.829-7.771-2.383c-3.315-2.798-7.046-10.154-16.895-6.01c-1.237,0.622-1.653-8.496-1.653-8.496  s-39.578,19.271-114.392,18.339C102.112,423.668,62.326,407.4,62.326,407.4s1.45,7.563-1.14,6.729  c-9.222-3.104-11.501,1.554-16.268,5.394c-1.554,1.237-7.771,4.036-7.771,4.036c1.762,1.145,2.072,4.247,2.798,6.526  c0.932,3.212-0.726,10.153,2.59,12.329c2.383,1.451,7.979,3.005,7.979,3.005l-1.141,9.325  C49.377,454.753,92.48,472.781,176.819,472.781L176.819,472.781z"
   id="path25"
   stroke="#201B17"
   fill="#039E60"
   style="fill:#007a3d;fill-opacity:1" />
<path
   fill="#F6C314"
   stroke="#201B17"
   d="M227.176,232.92l44.553,159.355c0,0-35.123,12.945-62.063,10.563l-22.275-114.9  L227.176,232.92L227.176,232.92z"
   id="path27" />
<path
   fill="none"
   stroke="#201B17"
   stroke-width="0.013"
   d="M241.266,287.938c0,0,1.146,9.435-1.14,14.092  c0,0-10.567-12.848-10.567-22.271"
   id="path29" />
<path
   fill="none"
   stroke="#201B17"
   d="M241.266,287.938c0,0,1.146,9.435-1.14,14.092c0,0-10.567-12.848-10.567-22.271"
   id="path31" />
<path
   fill="none"
   stroke="#201B17"
   stroke-width="0.013"
   d="M221.373,289.182c0,0,2.279,17.51-4.663,23.416  c0,0-15.229-14.092-12.951-21.137"
   id="path33" />
<path
   fill="none"
   stroke="#201B17"
   d="M221.373,289.182c0,0,2.279,17.51-4.663,23.416c0,0-15.229-14.092-12.951-21.137"
   id="path35" />
<path
   fill="none"
   stroke="#201B17"
   d="M202.619,300.889c0,0-1.141,23.416-5.906,24.557c0,0-2.279-5.803-2.279-9.319"
   id="path37" />
<path
   fill="none"
   stroke="#201B17"
   stroke-width="0.013"
   d="M253.596,328.969l-0.621,4.766c0,0-10.563-4.766-13.988-23.52"
   id="path39" />
<path
   fill="none"
   stroke="#201B17"
   d="M253.596,328.969l-0.621,4.766c0,0-10.563-4.766-13.988-23.52"
   id="path41" />
<path
   fill="none"
   stroke="#201B17"
   stroke-width="0.013"
   d="M220.751,318.503c2.901,12.849,11.708,19.271,13.47,18.753  c5.284-1.761,4.146-30.564,4.146-30.564"
   id="path43" />
<path
   fill="none"
   stroke="#201B17"
   d="M220.751,318.503c2.901,12.849,11.708,19.271,13.47,18.753  c5.284-1.761,4.146-30.564,4.146-30.564"
   id="path45" />
<path
   fill="none"
   stroke="#201B17"
   stroke-width="0.013"
   d="M216.71,320.782c0,0-2.383,25.799-7.045,28.183  c-4.767,2.279-12.951-23.521-12.951-23.521"
   id="path47" />
<path
   fill="none"
   stroke="#201B17"
   d="M216.71,320.782c0,0-2.383,25.799-7.045,28.183c-4.767,2.279-12.951-23.521-12.951-23.521"
   id="path49" />
<path
   fill="none"
   stroke="#201B17"
   stroke-width="0.013"
   d="M234.221,343.061c0,0-1.14,29.321-4.662,30.461  c-3.521,1.244-10.563-10.563-11.707-14.09"
   id="path51" />
<path
   fill="none"
   stroke="#201B17"
   d="M234.221,343.061c0,0-1.14,29.321-4.662,30.461c-3.521,1.244-10.563-10.563-11.707-14.09"
   id="path53" />
<path
   fill="none"
   stroke="#201B17"
   stroke-width="0.013"
   d="M213.188,356.011c0,0,0,22.173-4.767,24.558l-4.662-9.32"
   id="path55" />
<path
   fill="none"
   stroke="#201B17"
   d="M213.188,356.011c0,0,0,22.173-4.767,24.558l-4.662-9.32"
   id="path57" />
<path
   fill="none"
   stroke="#201B17"
   stroke-width="0.013"
   d="M264.684,377.044c0,0,0,14.091-3.521,15.229  c-3.419,1.244-9.325-19.896-9.325-19.896"
   id="path59" />
<path
   fill="none"
   stroke="#201B17"
   d="M264.684,377.044c0,0,0,14.091-3.521,15.229c-3.419,1.244-9.325-19.896-9.325-19.896"
   id="path61" />
<path
   fill="none"
   stroke="#201B17"
   stroke-width="0.013"
   d="M248.313,374.766c0,0-2.383,22.172-7.045,23.416  c-4.664,1.146-14.092-17.613-12.849-21.137"
   id="path63" />
<path
   fill="none"
   stroke="#201B17"
   d="M248.313,374.766c0,0-2.383,22.172-7.045,23.416c-4.664,1.146-14.092-17.613-12.849-21.137"
   id="path65" />
<path
   fill="none"
   stroke="#201B17"
   stroke-width="0.013"
   d="M227.176,387.611c0,0-1.035,12.02-4.662,12.849  c-4.662,1.243-11.709-5.803-12.849-12.849"
   id="path67" />
<path
   fill="none"
   stroke="#201B17"
   d="M227.176,387.611c0,0-1.035,12.02-4.662,12.849c-4.662,1.243-11.709-5.803-12.849-12.849"
   id="path69" />
<path
   fill="none"
   stroke="#201B17"
   stroke-width="0.013"
   d="M256.497,341.92c0,0,1.243,24.557-3.522,25.801  c-4.662,1.139-13.988-8.289-16.371-16.476"
   id="path71" />
<path
   fill="none"
   stroke="#201B17"
   d="M256.497,341.92c0,0,1.243,24.557-3.522,25.801c-4.662,1.139-13.988-8.289-16.371-16.476"
   id="path73" />
<g
   id="_70127824">
	<path
   id="_44192000"
   fill="#F6C314"
   stroke="#201B17"
   d="M298.148,388.751c2.383,3.419-1.146,8.187-2.901,10.568   c-1.761,2.381-32.327,9.941-49.837,12.945c-21.24,3.523-49.319,5.394-57.506,6.43c-4.661,0.519-7.563-3.522-7.563-8.188   c0-6.521,5.284-7.668,8.187-7.668c0,0,3.521-0.621,3.521,1.762c0,0,2.901-2.896,5.906-2.896c2.898,0,5.283,1.14,5.283,3.521   c0,0,2.279-4.145,5.182-4.767c3.005-0.52,7.045,0,7.667,2.383c0,0,3.521-0.621,6.425-2.383c2.902-1.762,7.047-1.762,9.43,0.622   c0,0,6.428-2.384,9.324-2.901c2.9-0.622,8.812-1.762,9.43,0.521c0,0,1.765-4.662,4.662-5.183c2.899-0.623,9.947-3.521,12.852-0.623   c0,0,2.384-3.521,4.146-3.521s5.903-1.142,6.424,0.621c0,0,2.387-4.146,7.668-4.767C291.725,384.71,295.247,384.71,298.148,388.751   L298.148,388.751z" />
	<path
   id="_68491936"
   fill="#EE9B21"
   stroke="#201B17"
   d="M295.249,392.898c-1.14,1.761-3.005,5.802-0.622,9.319   c2.383,3.522,2.9,5.905,0,8.288c0,0,8.807-1.761,8.186-11.812C302.189,388.754,297.01,389.997,295.249,392.898L295.249,392.898z" />
	<path
   id="_69644440"
   fill="#EE9B21"
   stroke="#201B17"
   d="M241.889,400.461c-3.521,0.622-3.521,3.523-1.762,8.289   c1.762,4.662,4.662,8.703,2.9,12.227c0,0,9.947-5.279,7.046-13.982C247.173,398.182,245.411,399.942,241.889,400.461   L241.889,400.461z" />
	<path
   id="_72616856"
   fill="#EE9B21"
   stroke="#201B17"
   d="M188.527,408.129c-2.693-1.14-8.188,4.456-8.188,7.563   c0,5.279,2.901,10.563,8.188,12.329c0,0-2.383-10.567,0-11.091C190.911,416.314,194.436,410.512,188.527,408.129z" />
</g>
<g
   id="_69129936">
	<path
   id="_72092440"
   fill="none"
   stroke="#201B17"
   d="M286.441,385.23c0,0-5.284,4.767-0.623,6.521c0,0,2.384-1.238,5.285-1.238" />
	<path
   id="_72083592"
   fill="none"
   stroke="#201B17"
   d="M274.111,396.938c0,0-4.662-1.14-5.905,1.243c0,0,2.383-4.661,0-5.284" />
	<path
   id="_71898952"
   fill="none"
   stroke="#201B17"
   d="M257.119,393.52c0,0-3.523,3.418-0.622,5.186c0,0,3.522-2.279,5.284-0.521" />
	<path
   id="_70075752"
   fill="none"
   stroke="#201B17"
   d="M230.18,405.745c0,0-9.945,0-9.945,2.383c0,0,4.662-8.186,2.279-7.667" />
	<path
   id="_68552720"
   fill="none"
   stroke="#201B17"
   d="M210.184,401.082c0,0-3.521,2.901-1.762,5.905" />
</g>
<path
   fill="#F6C314"
   stroke="#201B17"
   d="M125.222,232.92L80.668,392.275c0,0,35.229,12.945,62.168,10.563l22.276-114.9  L125.222,232.92L125.222,232.92z"
   id="path86" />
<path
   fill="none"
   stroke="#201B17"
   d="M118.176,271.566c0,0,7.045-7.045,9.428-11.707c0,0-2.383,19.894,2.279,21.137  c4.767,1.141,5.906-4.766,5.906-4.766"
   id="path88" />
<path
   fill="none"
   stroke="#201B17"
   d="M111.131,287.938c0,0-1.141,9.435,1.243,14.092c0,0,10.567-12.848,10.567-22.271"
   id="path90" />
<path
   fill="none"
   stroke="#201B17"
   d="M131.127,289.182c0,0-2.383,17.51,4.662,23.416c0,0.002,15.231-14.093,12.848-21.137"
   id="path92" />
<path
   fill="none"
   stroke="#201B17"
   d="M149.881,300.889c0,0,1.141,23.418,5.803,24.557c0,0,2.383-5.803,2.383-9.319"
   id="path94" />
<path
   fill="none"
   stroke="#201B17"
   d="M98.904,328.969l0.518,4.766c0,0,10.568-4.766,14.092-23.52"
   id="path96" />
<path
   fill="none"
   stroke="#201B17"
   d="M131.646,318.503c-2.901,12.849-11.708,19.271-13.47,18.753  c-5.284-1.761-4.041-30.564-4.041-30.564"
   id="path98" />
<path
   fill="none"
   stroke="#201B17"
   d="M135.789,320.782c0,0,2.384,25.799,7.046,28.183c4.663,2.279,12.848-23.521,12.848-23.521"
   id="path100" />
<path
   fill="none"
   stroke="#201B17"
   d="M118.176,343.061c0,0,1.243,29.321,4.766,30.461c3.523,1.244,10.465-10.563,11.708-14.09"
   id="path102" />
<path
   fill="none"
   stroke="#201B17"
   d="M139.313,356.011c0,0,0,22.173,4.662,24.558l4.663-9.32"
   id="path104" />
<path
   fill="none"
   stroke="#201B17"
   d="M87.714,377.044c0,0,0,14.091,3.522,15.229c3.523,1.244,9.429-19.896,9.429-19.896"
   id="path106" />
<path
   fill="none"
   stroke="#201B17"
   d="M104.188,374.766c0,0,2.279,22.172,6.942,23.416c4.767,1.146,14.091-17.613,12.952-21.137"
   id="path108" />
<path
   fill="none"
   stroke="#201B17"
   d="M125.222,387.611c0,0,1.14,12.02,4.662,12.849c4.767,1.243,11.812-5.803,12.952-12.849"
   id="path110" />
<path
   fill="none"
   stroke="#201B17"
   d="M95.899,341.92c0,0-1.14,24.557,3.522,25.801c4.767,1.139,14.092-8.289,16.475-16.476"
   id="path112" />
<path
   fill="#F6C314"
   stroke="#201B17"
   d="M54.352,388.751c-2.383,3.419,1.139,8.187,2.9,10.568  c1.761,2.382,32.224,9.941,49.838,12.945c21.24,3.523,49.318,5.394,57.4,6.43c4.662,0.519,7.668-3.522,7.668-8.188  c0-6.521-5.285-7.668-8.186-7.668c0,0-3.523-0.621-3.523,1.762c0,0-3.004-2.896-5.906-2.896c-2.9,0-5.283,1.14-5.283,3.521  c0,0-2.279-4.145-5.285-4.767c-2.9-0.52-7.045,0-7.563,2.383c0,0-3.523-0.621-6.528-2.383c-2.901-1.762-6.942-1.762-9.325,0.622  c0,0-6.424-2.384-9.428-2.901c-2.902-0.622-8.704-1.762-9.326,0.521c0,0-1.761-4.662-4.662-5.183  c-3.005-0.623-9.947-3.521-12.951-0.623c0,0-2.279-3.521-4.041-3.521c-1.762,0-5.906-1.142-6.527,0.621c0,0-2.279-4.146-7.564-4.767  C60.775,384.71,57.252,384.71,54.352,388.751L54.352,388.751z"
   id="path114" />
<path
   fill="#EE9B21"
   stroke="#201B17"
   d="M57.252,392.898c1.14,1.761,2.901,5.802,0.622,9.319c-2.384,3.522-3.005,5.905,0,8.288  c0,0-8.808-1.761-8.186-11.812C50.207,388.754,55.49,389.997,57.252,392.898L57.252,392.898z"
   id="path116" />
<path
   fill="#EE9B21"
   stroke="#201B17"
   d="M110.611,400.461c3.523,0.622,3.523,3.523,1.762,8.289  c-1.762,4.662-4.662,8.703-2.9,12.227c0,0-10.051-5.279-7.046-13.982C105.328,398.182,107.089,399.942,110.611,400.461  L110.611,400.461z"
   id="path118" />
<path
   fill="#EE9B21"
   stroke="#201B17"
   d="M163.972,408.129c2.694-1.14,8.186,4.456,8.186,7.563c0,5.279-3.005,10.563-8.186,12.329  c0,0,2.279-10.567,0-11.091C161.589,416.314,158.066,410.512,163.972,408.129z"
   id="path120" />
<g
   id="_44279976">
	<path
   id="_69936256"
   fill="none"
   stroke="#201B17"
   d="M66.059,385.23c0,0,5.285,4.767,0.622,6.521c0,0-2.384-1.238-5.284-1.238" />
	<path
   id="_45811336"
   fill="none"
   stroke="#201B17"
   d="M78.389,396.938c0,0,4.662-1.14,5.802,1.243c0,0-2.279-4.661,0-5.284" />
	<path
   id="_69905464"
   fill="none"
   stroke="#201B17"
   d="M95.381,393.52c0,0,3.523,3.418,0.519,5.186c0,0-3.522-2.279-5.181-0.521" />
	<path
   id="_68862032"
   fill="none"
   stroke="#201B17"
   d="M122.32,405.745c0,0,9.946,0,9.946,2.383c0,0-4.663-8.186-2.383-7.667" />
	<path
   id="_44279072"
   fill="none"
   stroke="#201B17"
   d="M142.213,401.082c0,0,3.523,2.901,1.762,5.905" />
</g>
<g
   id="_70413008">
	<polygon
   id="_68989816"
   fill="#201B17"
   stroke="#201B17"
   stroke-width="0.013"
   points="162.729,297.988 145.736,388.751    152.782,399.942 162.211,389.374 171.535,305.552 168.013,299.128  " />
	<polygon
   id="_45721920"
   fill="#201B17"
   stroke="#201B17"
   stroke-width="0.013"
   points="189.668,297.988 206.66,388.751    201.479,399.942 190.289,389.374 180.965,305.552 184.486,299.128  " />
	<polygon
   id="_68989792"
   fill="#201B17"
   stroke="#201B17"
   stroke-width="0.013"
   points="166.252,389.374 176.198,403.466    186.145,389.996 176.819,293.432  " />
</g>
<path
   fill="#F6C314"
   stroke="#201B17"
   d="M207.902,135.629c1.763,0.104-2.383-9.429-2.383-9.429  c4.662,4.767,22.271,5.906,22.271,5.906c-10.563-4.663-21.139-39.891-19.896-67.97c1.144-28.182-4.041-39.269-8.188-43.413  c-5.284-5.284-22.276-9.946-33.466-10.568c-6.32-0.313-5.285,4.767-5.285,4.767c-11.707-3.005-23.416-4.145-28.7-0.622  c-4.974,3.315-6.009,19.894-2.383,16.992c8.808-7.046,16.475-0.622,21.759,7.046c4.662,6.734,4.352,25.799-2.383,48.076  c-7.046,23.416-26.318,46.832-26.318,46.832c10.465,0,25.178-9.325,25.178-9.325l-3.522,14.609  c11.087-5.284,19.894-13.47,19.894-13.47l10.568,11.086c3.521-4.662,10.568-11.086,10.568-11.086S194.434,134.386,207.902,135.629  L207.902,135.629z"
   id="path132" />
<path
   fill="none"
   stroke="#201B17"
   d="M165.111,68.178c0,0-5.906,43.414-16.992,55.744"
   id="path134" />
<path
   fill="none"
   stroke="#201B17"
   d="M174.437,67.039c0,0-2.279,43.931-9.946,58.021"
   id="path136" />
<path
   fill="none"
   stroke="#201B17"
   d="M182.727,68.799c0,0,0,48.076,2.9,56.262"
   id="path138" />
<path
   fill="none"
   stroke="#201B17"
   d="M193.189,71.183c0,0,2.384,40.409,12.33,55.018"
   id="path140" />
<path
   fill="#201B17"
   stroke="#201B17"
   stroke-width="0.013"
   d="M154.439,47.145c-0.518-3.834-1.45-6.838-2.797-8.807  c-5.284-7.668-12.951-14.092-21.759-7.046c0,0,3.005-9.325,9.429-9.636c4.973-0.313,16.268,3.729,26.214,20.723  c0,0-7.356-1.658-9.118-0.104C153.093,45.176,154.439,47.145,154.439,47.145L154.439,47.145z"
   id="path142" />
<path
   fill="#201B17"
   stroke="#201B17"
   stroke-width="0.013"
   d="M128.951,19.791c0.725-2.383,1.865-4.559,3.315-5.491  c5.284-3.522,16.992-2.384,28.7,0.622c0,0-1.036-5.077,5.284-4.767c11.19,0.622,28.184,5.284,33.467,10.568  c1.243,1.347,2.694,3.315,3.938,6.32h-0.201c-2.596-3.626-9.947-3.419-11.715-3.212c-2.797,0.311-4.559,0.207-8.282,1.14  c-1.767,0.415-4.456,0.933-5.906,2.072c-1.14,0.933-2.072,4.352-3.834,4.352c-2.797,0-2.59-0.726-3.315-1.554  c-0.933-1.141-1.45-2.798-2.383-2.694c-2.901,0.519-7.563-1.761-13.47-6.424c-5.907-4.663-8.186-5.802-15.853-5.284  c-7.563,0.621-9.946,4.869-9.946,4.869L128.951,19.791L128.951,19.791z"
   id="path144" />
<path
   fill="#F6C314"
   stroke="#201B17"
   stroke-width="0.013"
   d="M172.262,26.63c1.761,0,3.107-1.347,3.107-3.108  s-1.347-3.108-3.107-3.108c-1.658,0-3.109,1.347-3.109,3.108S170.604,26.63,172.262,26.63z"
   id="path146" />
<path
   fill="none"
   stroke="#201B17"
   d="M233.514,273.939c0,0-7.047-7.047-9.431-11.709c0,0,2.384,19.894-2.278,21.137  c-4.767,1.141-5.906-4.766-5.906-4.766"
   id="path148" />
<path
   id="_45058936"
   fill="#FFFFFF"
   stroke="#201B17"
   d="M176.197,311.688c81.013-62.31,74.065-153.583,74.065-153.583  c-2.137,0.428-4.168,0.642-6.306,0.642c-16.993,0-57.524-9.722-66.979-22.07c-10.129,11.177-51.548,22.07-68.435,22.07  c-2.138,0-4.275-0.214-6.307-0.642C102.236,158.104,95.184,249.379,176.197,311.688L176.197,311.688z" />
<linearGradient
   id="_71262752_1_"
   gradientUnits="userSpaceOnUse"
   x1="176.2456"
   y1="1057.6338"
   x2="176.2456"
   y2="1226.687"
   gradientTransform="matrix(1, 0, 0, 1, 0, -915)">
	<stop
   offset="0.3"
   style="stop-color:#CE2028"
   id="stop152" />
	<stop
   offset="0.3"
   style="stop-color:#FDF4F0"
   id="stop154" />
	<stop
   offset="0.3356"
   style="stop-color:#FEF9F6"
   id="stop156" />
	<stop
   offset="0.4163"
   style="stop-color:#FFFEFD"
   id="stop158" />
	<stop
   offset="0.6404"
   style="stop-color:#FFFFFF"
   id="stop160" />
	<stop
   offset="0.6404"
   style="stop-color:#FDFDFD"
   id="stop162" />
	<stop
   offset="0.6404"
   style="stop-color:#F6F6F6"
   id="stop164" />
	<stop
   offset="0.6404"
   style="stop-color:#EBEBEB"
   id="stop166" />
	<stop
   offset="0.6404"
   style="stop-color:#DADADA"
   id="stop168" />
	<stop
   offset="0.6404"
   style="stop-color:#C4C4C4"
   id="stop170" />
	<stop
   offset="0.6404"
   style="stop-color:#A8A8A8"
   id="stop172" />
	<stop
   offset="0.6404"
   style="stop-color:#888888"
   id="stop174" />
	<stop
   offset="0.6404"
   style="stop-color:#626262"
   id="stop176" />
	<stop
   offset="0.6404"
   style="stop-color:#373737"
   id="stop178" />
	<stop
   offset="0.6404"
   style="stop-color:#090909"
   id="stop180" />
	<stop
   offset="0.6404"
   style="stop-color:#000000"
   id="stop182" />
</linearGradient>
<path
   id="_71262752"
   fill="url(#_71262752_1_)"
   d="M246.134,162.994c-0.721,0.045-1.446,0.066-2.177,0.066  c-15.93,0-52.932-8.172-67.191-20.426c-14.939,11.319-52.551,20.426-68.223,20.426c-0.734,0-1.461-0.09-2.182-0.222  c-0.035,3.571,0.15,7.271,0.371,10.638c0.83,12.58,3.036,25.205,6.387,37.354c10.545,38.236,32.13,70.73,63.078,95.38  c30.975-24.67,52.583-57.192,63.153-95.458c3.354-12.146,5.567-24.771,6.404-37.352C245.975,170.104,246.158,166.49,246.134,162.994  L246.134,162.994z" />
<path
   fill="none"
   d="M246.134,162.994c-0.721,0.045-1.446,0.066-2.177,0.066c-15.93,0-52.932-8.172-67.191-20.426  c-14.939,11.319-52.551,20.426-68.223,20.426c-0.734,0-1.461-0.09-2.182-0.222c-0.035,3.571,0.15,7.271,0.371,10.638  c0.83,12.58,3.036,25.205,6.387,37.354c10.545,38.236,32.13,70.73,63.078,95.38c30.975-24.67,52.583-57.192,63.153-95.458  c3.354-12.146,5.567-24.771,6.404-37.352C245.975,170.104,246.158,166.49,246.134,162.994L246.134,162.994z"
   id="path185" />
<path
   fill="none"
   d="M246.134,162.994c-0.721,0.045-1.446,0.066-2.177,0.066c-15.93,0-52.932-8.172-67.191-20.426  c-14.939,11.319-52.551,20.426-68.223,20.426c-0.734,0-1.461-0.09-2.182-0.222c-0.035,3.571,0.15,7.271,0.371,10.638  c0.83,12.58,3.036,25.205,6.387,37.354c10.545,38.236,32.13,70.73,63.078,95.38c30.975-24.67,52.583-57.192,63.153-95.458  c3.354-12.146,5.567-24.771,6.404-37.352C245.975,170.104,246.158,166.49,246.134,162.994L246.134,162.994z"
   id="path187" />
<path
   fill="none"
   stroke="#201B17"
   d="M246.134,162.994c-0.721,0.045-1.446,0.066-2.177,0.066c-15.93,0-52.932-8.172-67.191-20.426  c-14.939,11.319-52.551,20.426-68.223,20.426c-0.734,0-1.461-0.09-2.182-0.222c-0.035,3.571,0.15,7.271,0.371,10.638  c0.83,12.58,3.036,25.205,6.387,37.354c10.545,38.236,32.13,70.73,63.078,95.38c30.975-24.67,52.583-57.192,63.153-95.458  c3.354-12.146,5.567-24.771,6.404-37.352C245.975,170.104,246.158,166.49,246.134,162.994L246.134,162.994z"
   id="path189" />

<g
   id="g193"
   style="fill:#007a3d;fill-opacity:1">
	<g
   id="g195"
   style="fill:#007a3d;fill-opacity:1">
		<g
   id="g197"
   style="fill:#007a3d;fill-opacity:1">
			<path
   fill="#119B4A"
   d="M199.328,212.763c-0.318-0.167-0.676-0.437-0.795-0.6c-0.18-0.25-0.074-0.259,0.662-0.06     c1.322,0.358,2.174,0.219,3.02-0.497l0.744-0.628l0.878,0.447c0.483,0.244,0.996,0.413,1.144,0.374     c0.381-0.1,1.168-1.111,1.145-1.461c-0.029-0.432,0.335-0.324,0.512,0.15c0.35,0.929-0.16,1.996-1.063,2.232     c-0.441,0.115-0.851,0.072-1.517-0.16c-0.82-0.286-0.959-0.282-1.371,0.033C201.764,213.299,200.48,213.364,199.328,212.763z"
   id="path199"
   style="fill:#007a3d;fill-opacity:1" />
			<path
   fill="#119B4A"
   d="M202.594,209.775c-0.32-0.408-0.705-1.95-0.58-2.329c0.108-0.328,0.221-0.393,0.521-0.3     c0.521,0.164,0.645,0.524,0.564,1.746C203.038,209.888,202.891,210.149,202.594,209.775z"
   id="path201"
   style="fill:#007a3d;fill-opacity:1" />
		</g>
		<path
   fill="#119B4A"
   d="M164.126,208.668c-0.105,0.747,1.325,2.602,1.97,2.938c-0.438,0.196-0.984,0.107-1.387,0.329    c-2.249,2.25-10.464,10.259-11.965,12.173c4.444,0.088,9.373-0.061,13.539-0.251c-0.004-3.019,2.859-3.175,4.775-4.275    c0.986,1.553,3.461,1.434,3.771,3.771c0,2.797,0.005,7.011,0.005,10.054c-12.568,0-25.392,0-37.96,0    c-0.668,2.948-3.33,5.198-7.039,4.273c1.147-1.198,3.081-1.611,3.771-3.268c0.584-3.627-1.165-5.866-2.296-7.924    c1.871-0.681,2.155-0.851,4.057-2.129c-1.334,4.057,3.471,3.611,7.039,3.519c0.121-1.378,0.051-3.004-1.006-3.204    c1.365-0.496,1.592-0.666,3.771-2.514c0,1.676,0,3.979,0,5.652c0.579,0,26.288,0.065,26.288,0.065    c0-1.711,0.454-4.774-0.901-4.774c-1.292,0-0.061,3.518-1.065,3.518s-13.514,0-20.3,0c0-0.757-0.02-2.339-0.02-3.479    c0.86-0.861,0.758-0.786,6.637-6.665C156.394,215.894,160.517,212.168,164.126,208.668z"
   id="path203"
   style="fill:#007a3d;fill-opacity:1" />
		<path
   fill="#119B4A"
   d="M214.869,208.523c1.417,0.763,2.539,1.818,4.273,2.263c-0.201,0.718-0.841,1.002-1.009,1.759    c0,5.111,0,10.222,0,15.333c1.938,0.427,2.349-0.672,3.271-1.257c0.252,2.454,1.813,4.86,1.76,6.786c-2.764,0-5.53,0-8.295,0    C214.869,225.114,214.869,216.819,214.869,208.523z"
   id="path205"
   style="fill:#007a3d;fill-opacity:1" />
		<path
   fill="#119B4A"
   d="M203.811,216.734c0,0,3.018-2.547,3.018-2.645c0,4.356,0,9.024,0,13.381l2.174-0.003    c0-5.099-0.066-10.27-0.066-15.007c0.883-0.882,2.608-2.161,3.041-3.053c0,9.109,0,16.818,0,23.964    c-6.123,0-17.545,0.007-19.056,0.007c-0.278-4.975-0.329-10.125,5.47-9.018c0-0.849,0-1.35,0-2.03    c-0.177-0.347-0.494,0.083-0.568-0.368c0.922-0.921,1.232-1.156,3.727-3.333c0,2.628,0.047,8.831,0.047,8.831    c0.609,0,1.797,0.003,2.197,0.003C203.789,227.464,203.811,217.078,203.811,216.734z M196.443,227.397    c0.512,0.766,2.248,0.751,2.164-0.538C198.314,225.796,196.034,226.202,196.443,227.397z"
   id="path207"
   style="fill:#007a3d;fill-opacity:1" />
		<circle
   fill="#119B4A"
   cx="141.497"
   cy="236.232"
   r="1.164"
   id="circle209"
   style="fill:#007a3d;fill-opacity:1" />
		<path
   fill="#119B4A"
   d="M208.244,227.644"
   id="path211"
   style="fill:#007a3d;fill-opacity:1" />
		<path
   fill="#119B4A"
   d="M201.564,227.644"
   id="path213"
   style="fill:#007a3d;fill-opacity:1" />
		<path
   fill="#119B4A"
   d="M177.404,208.547c1.418,0.763,2.54,1.818,4.274,2.263c-0.201,0.718-0.84,1.002-1.008,1.759    c0,5.111,0,10.222,0,15.333c1.938,0.428,2.348-0.671,3.27-1.257c0.252,2.454,1.813,4.86,1.761,6.787c-2.765,0-5.53,0-8.295,0    C177.404,225.138,177.404,216.843,177.404,208.547z"
   id="path215"
   style="fill:#007a3d;fill-opacity:1" />
	</g>
</g>
<text
   xml:space="preserve"
   style="font-style:normal;font-weight:normal;font-size:16px;line-height:0%;font-family:sans-serif;letter-spacing:0px;word-spacing:0px;fill:#000000;fill-opacity:1;stroke:none"
   id="text3198-7"
   transform="matrix(-0.12699207,-0.99353287,1.1111975,-0.11354489,-486.37913,818.28264)"><textPath
     xlink:href="#path3202-1"
     id="textPath3204-4"
     style="font-family:sans-serif"><tspan
   style="font-style:normal;font-variant:normal;font-weight:normal;font-stretch:normal;font-size:40px;font-family:AL-Battar;-inkscape-font-specification:AL-Battar"
   id="tspan3200-0" /></textPath></text>


<g
   transform="translate(376.22711,147.56724)"
   style="font-size:16px;font-style:normal;font-weight:normal;text-align:center;line-height:125%;letter-spacing:0px;word-spacing:0px;text-anchor:middle;fill:#000000;fill-opacity:1;stroke:none;font-family:Sans;-inkscape-font-specification:Sans"
   id="text3281-9"><path
     d="m -84.623674,290.81938 -1.703211,0.50948 c 0.161441,0.38468 0.331452,0.72041 0.510033,1.00719 l 0.267847,0.43017 0.455088,0.51334 c 0.473447,0.60062 1.111592,1.10558 1.914439,1.5149 -0.454209,0.13586 -0.918951,0.1589 -1.394225,0.0691 l -0.753336,-0.19217 -0.825574,-0.35612 c -0.951813,-0.44207 -1.674871,-1.2309 -2.169177,-2.36651 l -15.00955,4.48976 -1.01895,-3.40642 14.456005,-4.32418 -0.643957,-1.22228 c -0.328754,-0.58204 -0.88459,-1.09616 -1.66751,-1.54237 -0.441091,-0.28556 -1.085187,-0.44855 -1.932289,-0.48898 -0.32779,-0.0102 -0.809576,0.0334 -1.445359,0.13081 l -0.968608,0.17376 -2.21199,0.59208 c -1.595372,0.50816 -2.676072,0.66906 -3.242102,0.4827 -0.55184,-0.19058 -0.93602,-0.6478 -1.15255,-1.37168 l -0.95526,-3.19352 0.97023,0.45202 c 0.32341,0.15069 1.02143,0.31302 2.09406,0.48698 l 0.60449,0.005 0.670548,-0.0846 0.89837,-0.17595 0.553543,-0.16558 c 1.334176,-0.39907 2.178622,-0.57435 2.533341,-0.52583 0.701048,-0.086 1.305538,-0.0813 1.813474,0.0142 0.672535,0.0772 1.282542,0.2813 1.830022,0.61235 0.534721,0.2885 1.174323,0.74664 1.918808,1.37442 l 1.197129,1.52071 c 0.184252,0.25416 0.645522,1.02079 1.383812,2.29989 l 2.022563,-0.605 0.999846,3.34255 m -5.64054,7.97311 -1.715995,3.18074 -3.063735,-1.63502 1.618098,-3.19784 3.161632,1.65212"
     style="font-size:40px;font-style:normal;font-variant:normal;font-weight:normal;font-stretch:normal;font-family:AlBattar;-inkscape-font-specification:AlBattar"
     id="path3351" /><path
     d="m -103.3618,296.43752 -4.64837,1.19693 c -0.0279,1.13925 -0.37275,2.17652 -1.03449,3.11182 -0.64373,0.94595 -1.53945,1.56669 -2.68719,1.86223 -1.27687,0.32879 -2.49893,0.27631 -3.66618,-0.15744 -0.89252,-0.19853 -1.77988,-0.94146 -2.66209,-2.22881 l -3.35716,0.86445 -0.87553,-3.4002 3.31412,-0.85336 c 0.002,-1.23967 0.39872,-2.31324 1.19003,-3.22071 0.38847,-0.45188 0.87085,-0.83616 1.44713,-1.15283 0.58693,-0.3347 1.11711,-0.56301 1.59056,-0.68493 1.07601,-0.27705 2.10048,-0.21959 3.07341,0.1724 0.97292,0.392 1.88202,1.15994 2.7273,2.30381 l 4.71293,-1.21356 0.87553,3.4002 m -7.8942,0.26579 c -0.14778,-0.57387 -0.49804,-1.07266 -1.05077,-1.49636 -0.55276,-0.4237 -1.17345,-0.54689 -1.86209,-0.36957 -0.60257,0.15516 -1.0868,0.53227 -1.45268,1.13131 -0.0954,0.22345 -0.17078,0.49527 -0.22602,0.81545 -0.0409,0.3165 -0.017,0.6469 0.0717,0.99122 0.15515,0.60257 0.49106,1.10505 1.00773,1.50745 0.52361,0.37 1.15127,0.46081 1.88296,0.2724 0.73168,-0.18841 1.22677,-0.55301 1.48528,-1.09381 0.25849,-0.5408 0.30646,-1.12683 0.14393,-1.75809"
     style="font-size:40px;font-style:normal;font-variant:normal;font-weight:normal;font-stretch:normal;font-family:AlBattar;-inkscape-font-specification:AlBattar"
     id="path3353" /><path
     d="m -121.38966,301.27163 -13.42947,2.65235 1.48118,7.49958 -0.62793,0.14666 c -0.27616,0.0545 -0.44043,0.10208 -0.49281,0.14264 -0.84299,0.16648 -1.4039,0.23196 -1.68272,0.19643 l -0.42714,0.0164 c -0.13082,0.0258 -0.26153,0.0139 -0.39215,-0.0358 l -0.38784,-0.014 -0.42256,-0.0751 c -0.65655,-0.0365 -1.18363,-0.14376 -1.58123,-0.32195 l -0.79694,-0.25033 -1.0058,-0.39029 c -1.06528,-0.42385 -1.98485,-1.02748 -2.75871,-1.8109 -0.70139,-0.72223 -1.35422,-1.69567 -1.95851,-2.92031 l -4.25121,0.83962 -0.68031,-3.44457 4.36022,-0.86115 c -0.22391,-1.13365 -0.17309,-2.32911 0.15243,-3.58639 l 0.47401,-1.38475 c 0.19003,-0.49055 0.42644,-0.93742 0.70924,-1.34061 0.41989,-0.62655 1.13647,-1.39477 2.14975,-2.30465 0.5819,-0.34143 1.53748,-0.81708 2.86673,-1.42694 l -0.28848,-1.46068 -1.35674,-1.24969 3.61663,-3.36451 1.05922,5.36307 c 0.50868,-0.10046 0.78769,-0.14046 0.83705,-0.12002 0.1744,-0.0344 0.37922,-0.0296 0.61447,0.0145 l 0.71028,0.0409 0.98023,0.14617 c 1.77742,0.28321 3.33003,1.03364 4.65781,2.25129 l 0.84321,0.94338 0.27802,0.37547 0.45592,0.70276 c 0.41946,0.74771 0.72107,1.58665 0.9048,2.51682 l 4.70904,-0.93004 0.68031,3.44457 m -8.57231,-1.88588 c -0.44782,-2.26731 -1.83173,-3.69284 -4.15175,-4.27661 -1.01686,-0.0257 -1.65169,-0.0287 -1.90449,-0.009 -0.2471,0.0488 -0.38957,0.092 -0.42741,0.12971 l 1.03338,5.23227 5.45027,-1.07644 m -8.63323,1.70508 -1.05061,-5.31947 c -0.85751,0.16937 -1.58333,0.54679 -2.17743,1.13224 -1.57205,1.29206 -2.14565,3.0136 -1.72081,5.16463 l 4.94885,-0.9774 m 1.50271,7.60858 -0.8224,-4.16401 -4.57823,0.90421 c 0.2946,0.72707 0.64627,1.2843 1.05501,1.6717 0.35078,0.32335 1.00354,0.72296 1.95829,1.19884 l 1.16271,0.38196 c 0.37177,0.0474 0.77997,0.0498 1.22462,0.007"
     style="font-size:40px;font-style:normal;font-variant:normal;font-weight:normal;font-stretch:normal;font-family:AlBattar;-inkscape-font-specification:AlBattar"
     id="path3355" /><path
     d="m -150.18073,306.79528 -4.03296,0.52248 0.0828,0.63911 c 0.15987,1.23413 0.0289,2.35655 -0.39285,3.36727 -0.40521,1.0235 -1.18204,1.94576 -2.3305,2.7668 -1.14659,0.83571 -2.24144,1.32114 -3.28457,1.45629 -1.4839,0.19224 -2.98013,-0.11436 -4.48871,-0.9198 l -0.62723,-0.34449 0.99331,0.22984 0.79703,0.0984 0.86805,-0.0452 c 1.1019,-0.14276 2.11621,-0.558 3.04295,-1.24572 0.92862,-0.67304 1.56641,-1.45779 1.91338,-2.35424 0.34695,-0.89645 0.46428,-1.77809 0.35199,-2.64492 l -0.0771,-0.59502 -7.75739,1.005 -0.39686,-3.06329 -0.0873,-1.01946 c -0.0171,-0.13223 -0.0333,-0.25711 -0.0485,-0.37465 -0.0171,-0.13222 -0.0269,-0.2654 -0.0293,-0.39954 0.0122,-0.13603 0.0162,-0.27846 0.0119,-0.42729 0.0103,-0.15072 0.0431,-0.4164 0.0984,-0.79703 0.0533,-0.39531 0.23989,-0.80041 0.55961,-1.2153 0.3363,-0.40209 0.78144,-0.71371 1.33539,-0.93488 l 0.34976,-0.0677 0.30853,-0.04 0.24242,-0.0314 0.11019,-0.0143 c -0.12866,-0.41654 -0.21679,-0.80847 -0.26437,-1.17578 -0.0666,-0.51421 -0.0964,-0.80165 -0.0893,-0.86234 l 0.029,-0.29506 c 0.0776,-0.32375 0.31742,-0.72082 0.71958,-1.19121 0.15536,-0.18444 0.35957,-0.33787 0.61261,-0.4603 l 0.85092,-0.17746 0.26445,-0.0343 0.78481,-0.16889 1.75653,-0.45165 c 0.33737,-0.1632 0.77162,-0.44354 1.30274,-0.84101 l 0.64526,-0.55416 1.25911,9.71877 4.16519,-0.53961 0.4511,3.48201 m -7.70162,-2.54268 -0.65382,-5.04671 c -0.13224,0.0171 -0.22583,0.0442 -0.28079,0.0812 l -0.4926,0.17586 c -0.0882,0.0114 -0.24311,0.0838 -0.46485,0.21708 l -0.48974,0.19789 c -0.10285,0.0133 -0.21182,0.0947 -0.32691,0.24403 -0.11701,0.13467 -0.20817,0.29587 -0.27347,0.48358 l -0.005,0.65053 c 0.059,0.45546 0.2765,0.80822 0.65249,1.05827 -0.20052,-0.0487 -0.41097,-0.0588 -0.63134,-0.0303 -0.76399,0.099 -1.28491,0.51753 -1.56274,1.25564 -0.0346,0.0792 -0.0593,0.29152 -0.0743,0.63705 l 0.0314,0.24241 0.0102,0.42444 4.56188,-0.59101"
     style="font-size:40px;font-style:normal;font-variant:normal;font-weight:normal;font-stretch:normal;font-family:AlBattar;-inkscape-font-specification:AlBattar"
     id="path3357" /><path
     d="m -170.01497,312.05676 c -0.15995,0.85842 -0.39197,1.54387 -0.69606,2.05635 -1.42975,2.58544 -3.60736,3.98533 -6.53284,4.19966 -0.70922,0.0519 -1.41537,0.0443 -2.11846,-0.0231 l -1.14654,-0.13882 -0.65733,-0.15238 c -0.29984,-0.0375 -0.50418,-0.0893 -0.61301,-0.15563 l -1.0898,-0.27667 1.16384,0.0707 c 0.44325,-0.0325 0.68073,-0.035 0.71245,-0.008 0.2955,-0.0217 0.45173,-0.0182 0.46867,0.0102 2.00942,-0.14722 3.70384,-0.84325 5.08324,-2.0881 1.46263,-1.32522 2.22756,-2.94841 2.29479,-4.86957 l -0.0249,-0.64434 c -0.0855,-1.16724 -0.43896,-2.24058 -1.06032,-3.22003 -0.62247,-0.99421 -1.30651,-1.61255 -2.05213,-1.85502 l -1.15791,-0.29396 c 0.50159,-0.45267 0.92983,-1.19705 1.28471,-2.23317 l 0.15506,-0.92491 0.0237,-0.89301 c -0.0173,-0.23639 -0.0828,-0.52126 -0.1963,-0.85461 l -0.14816,-0.50162 -0.24168,-0.56162 0.58654,0.40266 c 0.45229,0.29368 0.87611,0.60428 1.27148,0.93181 0.39535,0.32756 0.78549,0.68519 1.17041,1.07291 0.72224,0.73439 1.39893,1.65778 2.03005,2.77019 0.40872,0.71279 0.77366,1.43621 1.09483,2.17025 0.27898,0.76686 0.44825,1.5566 0.5078,2.36924 l 0.0211,0.28811 0.0195,0.26596 0.0146,0.19946 c 0.013,0.17731 0.0191,0.36254 0.0184,0.5557 0.0151,0.20685 0.009,0.42271 -0.0194,0.64759 0.0206,0.28073 0.006,0.59371 -0.0426,0.93896 l -0.12372,0.74436"
     style="font-size:40px;font-style:normal;font-variant:normal;font-weight:normal;font-stretch:normal;font-family:AlBattar;-inkscape-font-specification:AlBattar"
     id="path3359" /><path
     d="m -187.28288,310.35725 -10.26367,0.2477 -0.0847,-3.51009 6.86467,-0.16567 -0.11581,-4.7986 -1.33378,-0.92365 4.59661,-4.80118 0.3367,13.95149 m 0.0982,5.91046 -2.29794,-2.18964 -4.39828,4.72972 -2.32231,-2.27797 2.21186,-2.29848 4.61917,4.42318 2.1875,-2.38681"
     style="font-size:40px;font-style:normal;font-variant:normal;font-weight:normal;font-stretch:normal;font-family:AlBattar;-inkscape-font-specification:AlBattar"
     id="path3361" /><path
     d="m -203.47853,291.09059 -2.33692,-2.52651 -5.1264,4.93874 -2.3791,-2.61649 2.50597,-2.40413 4.8721,5.12472 2.46435,-2.51633 m 5.95174,19.57883 -16.23926,-0.41038 0.10778,-4.2653 0.0168,-0.66645 0.0897,-0.90914 0.0824,-0.62034 0.21566,-0.61697 0.16673,-0.44037 0.30283,-0.54809 c 0.24894,-0.46792 0.55581,-0.88252 0.92061,-1.2438 1.24698,-1.25778 2.70724,-1.86553 4.38079,-1.82325 l 0.62146,0.0379 c 0.35543,0.009 0.58424,0.0444 0.68642,0.10626 0.25177,0.006 0.40634,0.0473 0.46371,0.12286 l 0.61641,0.23787 0.0657,-2.59917 -1.21374,-1.23105 4.86327,-3.32265 -0.36827,14.57313 4.30974,0.1089 -0.0887,3.51 m -7.75324,-3.70816 0.10498,-4.15423 c -0.52345,-0.39853 -1.1332,-0.60659 -1.82926,-0.62419 -0.859,-0.0217 -1.62236,0.27763 -2.29009,0.89799 -0.66736,0.60556 -1.01209,1.34524 -1.03416,2.21903 l -0.0387,1.53284 5.08727,0.12856"
     style="font-size:40px;font-style:normal;font-variant:normal;font-weight:normal;font-stretch:normal;font-family:AlBattar;-inkscape-font-specification:AlBattar"
     id="path3363" /><path
     d="m -225.93423,289.12634 -1.62341,0.79293 -1.97299,19.09836 -3.18306,-0.32883 2.55758,-24.75714 4.22188,5.19468"
     style="font-size:40px;font-style:normal;font-variant:normal;font-weight:normal;font-stretch:normal;font-family:AlBattar;-inkscape-font-specification:AlBattar"
     id="path3365" /><path
     d="m -236.57137,308.19757 -7.68967,-1.00876 0.45669,-3.48128 4.56092,0.59831 2.0493,-15.62171 -1.45923,-1.17758 5.32793,-4.05254 -3.24594,24.74356"
     style="font-size:40px;font-style:normal;font-variant:normal;font-weight:normal;font-stretch:normal;font-family:AlBattar;-inkscape-font-specification:AlBattar"
     id="path3367" /><path
     d="m -244.26198,307.34701 -11.00348,-1.9662 -1.52643,-1.94325 -1.88619,1.33345 -9.45031,-1.68867 0.61762,-3.45637 8.57528,1.53232 7.06884,-4.31271 -0.22259,-0.64928 -0.21012,-0.46645 c -0.0521,-0.1297 -0.16249,-0.26982 -0.33122,-0.42038 -0.0531,-0.0396 -0.13412,-0.0917 -0.24296,-0.15628 -0.0943,-0.062 -0.23829,-0.14039 -0.43203,-0.23522 l -0.19688,-0.0352 -0.32032,-0.10239 c -0.12605,-0.0526 -0.2336,-0.1245 -0.32265,-0.21567 l -0.35467,-0.28912 -0.42105,-0.54929 -0.29529,-0.36881 -0.39068,0.29138 -0.41255,0.28747 -0.61335,0.27416 -0.91021,0.0405 c -0.26252,-0.0469 -0.67973,0.014 -1.25165,0.18268 l -0.44225,0.32731 -0.34692,0.2992 -0.15862,0.12968 2.37792,2.86292 -2.56358,1.46072 -1.69594,-2.13156 c -0.10781,-0.1547 -0.29114,-0.30785 -0.54998,-0.45946 -0.25625,-0.16618 -0.54479,-0.27793 -0.86563,-0.33527 -0.61097,-0.0339 -1.19698,0.2978 -1.75802,0.99516 l -0.2023,-0.5102 0.008,-0.67582 c 0.0808,-0.45209 0.31157,-0.81719 0.69235,-1.09529 0.39536,-0.27548 0.81909,-0.37284 1.2712,-0.29206 l 0.36407,0.1102 -0.0226,-0.25236 -0.0132,-0.43127 c 0.0808,-0.45209 0.4543,-0.94218 1.12054,-1.47026 0.45475,-0.35517 0.87876,-0.58039 1.27202,-0.67567 l 1.50792,-0.22719 c 0.66098,-0.0775 1.11986,-0.16107 1.37667,-0.25064 0.37085,-0.0541 0.83991,-0.27881 1.40718,-0.67409 l 0.43834,-0.30543 0.40241,-0.35701 0.38835,-0.40466 0.4118,-0.53592 c 0.0983,0.9657 0.36544,1.66056 0.80136,2.08458 l 0.62576,0.54072 0.6992,0.5087 1.40388,0.86037 0.44217,0.30475 c 0.14061,0.0552 0.30259,0.15943 0.48593,0.31257 0.25883,0.15161 0.5885,0.49646 0.989,1.03455 0.51087,0.67822 0.72071,1.27255 0.62952,1.78297 -0.0287,0.16043 -0.0998,0.30574 -0.21335,0.43594 l -0.17425,0.21718 0.65003,0.0259 c 0.36458,0.0652 0.65884,0.31338 0.88278,0.74467 0.089,0.0912 0.15386,0.27582 0.19448,0.55396 0.0578,0.26617 0.0632,0.53051 0.0163,0.79301 -0.0261,0.14584 -0.21727,0.45782 -0.57357,0.93592 -0.0463,-0.41461 -0.16323,-0.72896 -0.3507,-0.94306 -0.15312,-0.23804 -0.47369,-0.42325 -0.9617,-0.55561 -0.55421,-0.099 -1.07872,-0.0272 -1.57355,0.21546 l -4.33333,2.52152 11.09099,1.98184 -0.61762,3.45636"
     style="font-size:40px;font-style:normal;font-variant:normal;font-weight:normal;font-stretch:normal;font-family:AlBattar;-inkscape-font-specification:AlBattar"
     id="path3369" /><path
     d="m -268.1063,302.9863 -3.33393,-0.77237 c -0.16719,0.72163 -0.5116,1.58468 -1.03323,2.58917 -0.41712,0.8158 -0.85183,1.44503 -1.30413,1.88771 -2.13277,2.18236 -4.63519,2.94086 -7.50726,2.2755 -1.3278,-0.30762 -2.71413,-0.98616 -4.159,-2.03562 l -0.43113,-0.30518 0.54122,0.12539 c 2.09272,0.48481 4.09152,0.42322 5.99641,-0.18476 1.91597,-0.59023 3.33065,-1.90486 4.24405,-3.94392 l 0.18373,-0.59613 c 0.27416,-1.18348 0.25071,-2.32945 -0.0704,-3.43792 -0.30331,-1.11955 -0.77679,-1.89836 -1.42045,-2.33642 l -1.01382,-0.64546 c 0.61319,-0.28374 1.24107,-0.86062 1.88364,-1.73064 l 0.44878,-0.85409 0.26055,-0.82926 0.0787,-0.43799 c 0.0368,-0.15875 0.0502,-0.31531 0.0404,-0.46967 l 0.002,-0.50135 c 0.003,-0.21208 -0.0269,-0.40921 -0.0911,-0.59138 l 0.7786,1.07 0.94652,1.42825 0.49901,0.79993 c 0.62643,1.10318 1.05558,2.43438 1.28745,3.9936 l 0.1339,1.19437 3.83184,0.88772 -0.79242,3.42052"
     style="font-size:40px;font-style:normal;font-variant:normal;font-weight:normal;font-stretch:normal;font-family:AlBattar;-inkscape-font-specification:AlBattar"
     id="path3371" /><path
     d="m -282.9004,278.79127 -1.72488,0.53756 -4.84649,18.57826 -3.09638,-0.80775 6.28249,-24.08292 3.38526,5.77485"
     style="font-size:40px;font-style:normal;font-variant:normal;font-weight:normal;font-stretch:normal;font-family:AlBattar;-inkscape-font-specification:AlBattar"
     id="path3373" /><path
     d="m -291.63842,277.08296 -1.48212,-2.78946 -5.63459,3.15635 -1.56132,-2.83554 2.82936,-1.53997 3.0985,5.59468 2.75017,-1.58606 m -4.76709,19.16377 c -0.25982,0.89644 -0.66376,1.70484 -1.21184,2.4252 -0.53388,0.72446 -1.2383,1.34553 -2.11325,1.86319 -1.98069,1.24606 -4.25878,1.49589 -6.83427,0.74951 -1.84982,-0.53609 -3.4156,-1.6531 -4.69732,-3.35104 -1.42136,-1.90809 -1.84337,-3.85818 -1.26605,-5.85028 0.15257,-0.52649 0.39372,-1.06587 0.72344,-1.61814 l 0.76369,-0.95864 0.63223,-0.9042 c 0.37838,-0.50732 0.6253,-0.96019 0.74078,-1.35861 0.0536,-0.18498 0.0797,-0.3548 0.0782,-0.50947 0.0454,-0.15652 -0.025,-0.39284 -0.21099,-0.70897 -0.16768,-0.32623 -0.39381,-0.53058 -0.67839,-0.61306 -0.1423,-0.0412 -0.30408,-0.0418 -0.48534,-0.002 -0.78796,0.11099 -1.2974,0.5649 -1.52833,1.36174 l -0.0882,-0.095 c -0.26379,-0.73969 -0.28847,-1.4795 -0.074,-2.21943 0.24742,-0.85376 0.7582,-1.39212 1.53234,-1.61508 l 0.59546,-0.0588 0.56453,0.0479 -0.0319,-0.44884 0.0699,-0.72012 0.23104,-0.55773 c 0.088,-0.14414 0.22497,-0.29727 0.41077,-0.45937 0.20414,-0.1722 0.43768,-0.31275 0.70061,-0.42165 l 1.46559,-0.10741 0.47297,0.0445 -0.37148,0.56331 -0.43673,0.86831 -0.0133,1.08358 -2.7e-4,0.87911 c -0.0268,0.62464 -0.17419,1.39942 -0.44223,2.32432 -0.0577,0.19921 -0.54314,1.02256 -1.4562,2.47006 -0.91308,1.44749 -1.50363,2.63369 -1.77167,3.5586 l -0.19019,1.05544 c -0.0247,1.14967 0.47678,2.26673 1.50443,3.3512 l 0.21282,0.22363 0.48072,0.41696 c 0.0487,0.0449 0.19787,0.14217 0.44761,0.29167 0.11569,0.0798 0.24056,0.15455 0.37461,0.22425 l 0.82562,0.42436 c 0.22952,0.11278 0.55061,0.22897 0.96327,0.34857 1.43715,0.41648 2.79881,0.34837 4.08499,-0.20435 0.44417,-0.14892 0.96331,-0.47663 1.55742,-0.98312 l 0.30962,-0.34987 0.35911,-0.52062 c 0.14123,-0.22128 0.24052,-0.3776 0.29786,-0.46895 0.15361,-0.26398 0.24691,-0.45288 0.27992,-0.56671 l -7.40637,-2.14639 0.8598,-2.96682 0.26877,-0.84757 0.12989,-0.44822 c 0.0495,-0.17075 0.12948,-0.34037 0.24002,-0.50886 0.15401,-0.37182 0.35259,-0.68446 0.59572,-0.93791 0.0532,-0.0771 0.23899,-0.23923 0.55739,-0.4863 l 0.67988,-0.58961 c 0.23671,-0.17818 0.5281,-0.27883 0.87415,-0.30194 l 0.58587,0.0541 0.50947,0.0782 0.38419,0.11134 0.0652,-0.305 0.0411,-0.38141 0.14227,-0.49091 c 0.10308,-0.35573 0.29588,-0.75487 0.57839,-1.19744 0.30084,-0.45266 0.71924,-0.77871 1.25521,-0.97816 l 0.42131,-0.0167 0.54937,0.0204 0.77796,0.10977 0.94532,0.25083 c 0.5407,0.1567 1.16905,0.27711 1.88507,0.3612 0.73021,0.0882 1.26854,0.0669 1.61501,-0.0641 l 0.34211,-0.0628 -3.64949,12.59295 -0.0254,0.24715 m -2.24501,-4.46815 1.45361,-5.01583 -0.39099,0.0718 -0.75662,-0.10359 c -0.29884,-0.0866 -0.57053,-0.0805 -0.81508,0.0183 -0.39328,0.13282 -0.67238,0.48382 -0.83731,1.05299 l -0.0996,0.50329 c 0.001,0.15466 0.0527,0.32376 0.15376,0.50729 l -0.43585,-0.17259 -0.34769,-0.0776 c -0.0712,-0.0206 -0.23707,-0.007 -0.49771,0.0408 -0.24232,0.0378 -0.55937,0.20037 -0.95116,0.48786 l -0.24838,0.2982 -0.2861,0.58805 -0.0816,0.60103 4.14074,1.2"
     style="font-size:40px;font-style:normal;font-variant:normal;font-weight:normal;font-stretch:normal;font-family:AlBattar;-inkscape-font-specification:AlBattar"
     id="path3375" /></g></svg>