<?xml version="1.0" encoding="UTF-8" standalone="no"?>
<!-- Created with Inkscape (http://www.inkscape.org/) -->
<svg width="500" height="500" viewBox="0 0 132.29167 132.29167" version="1.1" id="svg5" xml:space="preserve" xmlns="http://www.w3.org/2000/svg" xmlns:svg="http://www.w3.org/2000/svg" xmlns:rdf="http://www.w3.org/1999/02/22-rdf-syntax-ns#" xmlns:cc="http://creativecommons.org/ns#" xmlns:dc="http://purl.org/dc/elements/1.1/"><title id="title17775">National Emblem of Bangladesh - বাংলাদেশের জাতীয় প্রতীক</title><defs id="defs2"/><g id="layer1" transform="translate(426.09716,-80.454912)"><g id="g16727" transform="translate(0.26458,0.264581)"><g id="g15922"><path id="circle49470" style="fill:#ce7218;fill-rule:evenodd;stroke-width:0.39215;stop-color:#000000" d="m -294.33465,146.33617 a 65.881252,65.881252 0 0 1 -65.88125,65.88125 65.881252,65.881252 0 0 1 -65.88126,-65.88125 65.881252,65.881252 0 0 1 65.88126,-65.881258 65.881252,65.881252 0 0 1 65.88125,65.881258 z"/><path id="path49468" style="fill:#fff500;fill-rule:evenodd;stroke-width:0.381661;stop-color:#000000" d="m -296.09677,146.33617 a 64.119131,64.119131 0 0 1 -64.11913,64.11912 64.119131,64.119131 0 0 1 -64.11914,-64.11912 64.119131,64.119131 0 0 1 64.11914,-64.119136 64.119131,64.119131 0 0 1 64.11913,64.119136 z"/><path id="path47193" style="fill:#ffffff;fill-opacity:1;fill-rule:evenodd;stroke-width:0.249428;stop-color:#000000" d="m -297.85889,146.33617 a 62.357016,62.357016 0 0 1 -62.35701,62.35701 62.357016,62.357016 0 0 1 -62.35702,-62.35701 62.357016,62.357016 0 0 1 62.35702,-62.357019 62.357016,62.357016 0 0 1 62.35701,62.357019 z"/></g><path id="circle9402" style="font-variation-settings:normal;fill:#fff500;fill-opacity:1;fill-rule:evenodd;stroke:none;stroke-width:0.105833;stroke-linecap:butt;stroke-linejoin:miter;stroke-miterlimit:4;stroke-dasharray:none;stroke-dashoffset:0;stroke-opacity:1;stop-color:#000000" d="m -399.93136,163.22182 v 5.1e-4 c -1.35402,0.006 -2.70607,0.26671 -3.98581,0.77412 l -0.008,0.003 c 0.40986,1.02305 0.86008,2.03038 1.34152,3.02358 0.86024,-0.32529 1.76365,-0.49339 2.66858,-0.49764 v 5.2e-4 5.1e-4 c 1.11402,-0.005 2.22961,0.23277 3.26543,0.71469 l -0.0129,-0.007 c 2.95001,1.4067 6.37575,1.4231 9.33897,0.0444 0.005,-0.002 0.0104,-0.005 0.015,-0.007 2.06242,-0.98345 4.45357,-0.99428 6.52518,-0.0305 2.94678,1.39986 6.36816,1.41363 9.32657,0.0372 0.004,-0.002 0.009,-0.005 0.0129,-0.007 2.06242,-0.98344 4.45309,-0.99438 6.52466,-0.0305 l -0.0129,-0.006 c 1.4908,0.71088 3.10363,1.06504 4.71651,1.06505 1.61288,-1e-5 3.22519,-0.35417 4.71599,-1.06505 l -0.0129,0.006 c 2.07159,-0.96385 4.46276,-0.95291 6.52519,0.0305 0.004,0.002 0.009,0.005 0.0129,0.007 2.95841,1.37639 6.37979,1.36262 9.32656,-0.0372 2.07162,-0.96384 4.46277,-0.95301 6.52518,0.0305 0.005,0.002 0.01,0.005 0.0145,0.007 2.96321,1.37864 6.38948,1.36224 9.33948,-0.0444 l -0.0129,0.007 c 1.03581,-0.48192 2.15141,-0.71985 3.26544,-0.71469 v -5.1e-4 -5.2e-4 c 0.90493,0.004 1.80832,0.17235 2.66857,0.49764 0.48145,-0.9932 0.93114,-2.00053 1.341,-3.02358 l -0.007,-0.003 c -1.27974,-0.50742 -2.63179,-0.76763 -3.98581,-0.77412 l -10e-4,-5.1e-4 c -1.59581,-0.007 -3.19421,0.33341 -4.67569,1.02267 -0.004,0.002 -0.009,0.005 -0.0129,0.007 -2.0576,0.98116 -4.44242,0.99427 -6.51072,0.0372 -2.95,-1.40668 -6.37778,-1.42255 -9.34103,-0.0439 -0.005,0.002 -0.0103,0.005 -0.015,0.007 -2.05754,0.98115 -4.4419,0.99427 -6.51019,0.0372 -2.95003,-1.40669 -6.3763,-1.42255 -9.33949,-0.0439 -0.005,0.002 -0.0103,0.004 -0.015,0.006 -1.04248,0.4971 -2.16878,0.74474 -3.29541,0.74465 -1.12663,9e-5 -2.25293,-0.24755 -3.2954,-0.74465 -0.005,-0.002 -0.01,-0.004 -0.0145,-0.006 -2.96319,-1.37865 -6.38997,-1.36279 -9.34,0.0439 -2.06831,0.95703 -4.45267,0.94391 -6.5102,-0.0372 -0.005,-0.002 -0.01,-0.005 -0.0145,-0.007 -2.96325,-1.37865 -6.39102,-1.36278 -9.34103,0.0439 -2.06829,0.95704 -4.45312,0.94393 -6.51071,-0.0372 -0.004,-0.002 -0.009,-0.005 -0.0129,-0.007 -1.48148,-0.68926 -3.0804,-1.03017 -4.6762,-1.02267 z m 47.70044,6.62957 v 0.002 c -1.59578,-0.007 -3.19308,0.33333 -4.67465,1.02268 -0.005,0.002 -0.01,0.004 -0.0145,0.006 -1.04248,0.4971 -2.16878,0.74475 -3.29541,0.74466 v 0.002 h -5.2e-4 c -1.12663,1e-4 -2.25293,-0.24756 -3.2954,-0.74466 -0.005,-0.002 -0.01,-0.004 -0.0145,-0.006 -2.96315,-1.37868 -6.38997,-1.3628 -9.34,0.0439 -2.0683,0.95704 -4.45266,0.94341 -6.5102,-0.0377 -0.005,-0.002 -0.01,-0.004 -0.0145,-0.006 -2.96325,-1.37867 -6.39154,-1.36279 -9.34155,0.0439 -2.0683,0.95703 -4.4526,0.9434 -6.51019,-0.0377 -0.004,-0.002 -0.009,-0.004 -0.0129,-0.006 -1.48148,-0.68927 -3.0804,-1.03017 -4.6762,-1.02268 v -0.003 c -0.37595,0.002 -0.7518,0.0246 -1.12603,0.0651 0.64439,1.12304 1.33578,2.22255 2.07429,3.29385 0.79883,0.0942 1.58666,0.31207 2.33319,0.65939 l -0.0129,-0.006 c 2.95001,1.40671 6.37627,1.42464 9.33948,0.046 0.005,-0.003 0.01,-0.005 0.0145,-0.008 1.0312,-0.49172 2.14467,-0.74036 3.25923,-0.74569 v 5.2e-4 c 1.11456,-0.005 2.23016,0.23277 3.26595,0.71469 2.94678,1.39986 6.36816,1.41562 9.32657,0.0393 0.004,-0.003 0.009,-0.005 0.0129,-0.008 2.06242,-0.98346 4.4536,-0.99482 6.52518,-0.031 1.48723,0.70681 3.09481,1.05996 4.70307,1.0604 v -0.003 h 5.2e-4 v 0.001 c 0.0126,0 0.0251,-9.9e-4 0.0377,-0.001 h 0.0346 v -0.001 c 1.58872,-0.0109 3.17566,-0.36377 4.64416,-1.06402 l -0.0129,0.006 c 2.0716,-0.96384 4.46225,-0.95248 6.52466,0.031 0.004,0.003 0.009,0.006 0.0129,0.008 2.95841,1.3764 6.37979,1.36106 9.32657,-0.0388 1.03581,-0.48193 2.15138,-0.72002 3.26595,-0.71469 v -5.2e-4 c 1.11455,0.005 2.22801,0.25398 3.25923,0.74569 0.005,0.003 0.0103,0.006 0.015,0.008 2.9632,1.37864 6.38895,1.36122 9.33896,-0.0455 l -0.0129,0.007 c 0.74651,-0.34733 1.53489,-0.56574 2.33371,-0.65991 0.73852,-1.0713 1.42938,-2.17029 2.07377,-3.29334 -0.37422,-0.0404 -0.74956,-0.0632 -1.12551,-0.0651 l -5.1e-4,-5.2e-4 c -1.59581,-0.007 -3.19474,0.33341 -4.67621,1.02268 -0.004,0.002 -0.009,0.004 -0.0129,0.006 -2.0576,0.98116 -4.4419,0.99426 -6.5102,0.0372 -2.95001,-1.40669 -6.37831,-1.42257 -9.34155,-0.0439 -0.005,0.002 -0.01,0.004 -0.0145,0.006 -2.05755,0.98116 -4.44189,0.99428 -6.5102,0.0372 -1.47501,-0.70335 -3.06956,-1.05914 -4.66535,-1.0666 z m -31.83526,6.63318 5.1e-4,5.2e-4 c -1.59611,0.007 -3.19034,0.36326 -4.66534,1.0666 -2.06829,0.95702 -4.45312,0.94409 -6.51072,-0.0372 -0.004,-0.002 -0.009,-0.005 -0.0129,-0.007 -0.20124,-0.0932 -0.40503,-0.17849 -0.6103,-0.2589 1.31455,1.52672 2.72601,2.965 4.223,4.3093 1.47646,-0.0407 2.94732,-0.3754 4.3186,-1.01338 0.005,-0.002 0.01,-0.006 0.0145,-0.008 2.06172,-0.98314 4.45196,-0.99497 6.52312,-0.032 l 0.002,10e-4 c 2.94678,1.39988 6.36822,1.41573 9.32657,0.0393 0.004,-0.002 0.009,-0.006 0.0129,-0.008 2.06236,-0.98346 4.45303,-0.99484 6.52466,-0.031 l -0.0129,-0.007 c 1.49077,0.71089 3.10312,1.06563 4.716,1.06608 v -0.003 h 10e-4 v 0.004 c 1.61287,-4.5e-4 3.22522,-0.3552 4.71599,-1.06609 l -0.0129,0.007 c 2.07165,-0.96387 4.46282,-0.95247 6.52518,0.031 0.004,0.002 0.009,0.006 0.0129,0.009 2.95836,1.37644 6.37928,1.36057 9.32605,-0.0393 l 0.002,-0.001 c 2.07115,-0.96292 4.46139,-0.95106 6.52311,0.032 0.005,0.002 0.0103,0.006 0.015,0.008 1.37128,0.63798 2.84161,0.97267 4.31808,1.01338 1.49699,-1.34429 2.90896,-2.78258 4.22352,-4.3093 -0.20527,0.0804 -0.40905,0.16572 -0.6103,0.2589 -0.004,0.002 -0.009,0.004 -0.0129,0.007 -2.0576,0.98125 -4.44243,0.99469 -6.51072,0.0377 -1.47499,-0.70334 -3.06974,-1.0591 -4.66586,-1.0666 -1.59613,-0.007 -3.19354,0.3334 -4.67517,1.02267 -0.005,0.002 -0.0104,0.004 -0.015,0.007 -2.05759,0.98118 -4.4419,0.99373 -6.5102,0.0367 -0.002,-8e-4 -0.003,-0.002 -0.005,-0.002 -0.003,-0.002 -0.007,-0.002 -0.009,-0.004 -1.47094,-0.69874 -3.0598,-1.05296 -4.65037,-1.0604 l -5.1e-4,-0.002 c -1.59578,-0.007 -3.19252,0.33337 -4.67414,1.02267 -0.005,0.002 -0.0104,0.004 -0.015,0.007 -1.04236,0.49704 -2.16836,0.74462 -3.29489,0.74466 h -10e-4 v -5.2e-4 c -1.12653,-4e-5 -2.25254,-0.24762 -3.29489,-0.74466 -0.005,-0.002 -0.01,-0.004 -0.0145,-0.007 -2.95834,-1.37635 -6.37886,-1.36261 -9.32553,0.0372 -2.07167,0.96385 -4.46225,0.95303 -6.52467,-0.0305 -0.005,-0.002 -0.0103,-0.004 -0.015,-0.007 -1.48162,-0.68927 -3.07903,-1.0302 -4.67516,-1.02268 z m 15.8657,6.63319 v 0.001 5.2e-4 c -1.59577,0.007 -3.18983,0.36327 -4.66484,1.0666 -2.0683,0.95701 -4.45318,0.94404 -6.51071,-0.0372 -0.005,-0.002 -0.01,-0.005 -0.0145,-0.007 -2.90333,-1.35068 -6.25127,-1.35932 -9.16016,-0.0362 1.12873,0.85045 2.29528,1.6496 3.49591,2.3952 1.44011,-0.1979 2.92295,0.0131 4.27105,0.64027 l -0.0145,-0.008 c 2.95003,1.40667 6.37777,1.42407 9.34103,0.0455 0.004,-0.002 0.009,-0.004 0.0129,-0.007 2.06242,-0.98339 4.45309,-0.9942 6.52466,-0.0305 l -0.0124,-0.009 c 1.4908,0.71088 3.10311,1.06565 4.71599,1.06608 v -0.004 h 5.2e-4 v 0.006 c 1.61288,-4.3e-4 3.22571,-0.3552 4.71651,-1.06608 l -0.0129,0.009 c 2.0716,-0.96376 4.46225,-0.95297 6.52466,0.0305 0.004,0.002 0.009,0.004 0.0129,0.007 2.96325,1.37858 6.391,1.3612 9.34104,-0.0455 l -0.0145,0.008 c 1.3481,-0.62716 2.83146,-0.83817 4.27157,-0.64027 1.20063,-0.7456 2.36718,-1.54474 3.49591,-2.3952 -2.9089,-1.32312 -6.25736,-1.31448 -9.16068,0.0362 -0.005,0.002 -0.01,0.004 -0.0145,0.007 -2.05754,0.98122 -4.44189,0.99521 -6.5102,0.0382 -1.47501,-0.70334 -3.06958,-1.05963 -4.66535,-1.06712 v -0.002 c -1.59577,-0.007 -3.19308,0.33335 -4.67465,1.02268 -0.005,0.002 -0.01,0.004 -0.0145,0.007 -1.02542,0.48896 -2.13197,0.73523 -3.24012,0.74311 h -0.0558 c -1.12663,1.1e-4 -2.25293,-0.24757 -3.2954,-0.74466 -0.005,-0.002 -0.01,-0.004 -0.0145,-0.007 -1.48156,-0.68934 -3.07887,-1.03015 -4.67465,-1.02268 z m 0,6.63525 c -1.59578,0.007 -3.18983,0.36327 -4.66484,1.06661 -0.53585,0.24792 -1.09325,0.42955 -1.66036,0.54725 l -0.0119,0.002 c 4.59562,1.474 9.40023,2.2395 14.24874,2.25309 v 0.001 h 0.0729 5.2e-4 v 0.001 c 0.0243,-3e-5 0.0486,-9.7e-4 0.0729,-0.001 4.84852,-0.0135 9.65313,-0.77909 14.24875,-2.25309 l -0.0119,-0.002 c -0.56711,-0.11769 -1.12399,-0.29932 -1.65985,-0.54725 -1.47501,-0.70334 -3.06957,-1.0586 -4.66535,-1.06609 v -5.1e-4 c -1.59577,-0.007 -3.19306,0.33334 -4.67465,1.02267 -0.005,0.002 -0.01,0.004 -0.0145,0.007 -1.02542,0.48899 -2.13197,0.73575 -3.24012,0.74363 h -0.0558 c -1.12663,1e-4 -2.25293,-0.24753 -3.2954,-0.74466 -0.005,-0.002 -0.01,-0.004 -0.0145,-0.007 -1.48159,-0.68933 -3.07888,-1.03015 -4.67465,-1.02268 z"/><g id="g6103" style="stroke:none" transform="matrix(0.83249756,0,0,0.83249756,-465.15087,93.230281)"><g id="g4173" style="stroke:none"><path style="opacity:1;fill:#fff500;fill-opacity:1;stroke:none;stroke-width:0.079375;stroke-linecap:round;stroke-linejoin:round;stroke-opacity:1" d="m 126.04838,85.275205 h -1.6639 v -1.422366 a 2.3900061,2.3900061 0 0 0 -2.47535,-2.388482 l -14.09319,0.503559 C 103.4766,82.122963 99.728871,79.814891 95.834288,77.311247 85.833472,70.882194 76.901504,64.112321 70.435611,55.297916 80.277172,56.13004 90.624664,58.403331 101.52564,62.253248 95.607748,54.655496 91.019302,46.531012 88.024582,37.775086 c 7.221803,2.640173 13.930848,6.442137 20.164648,11.320894 -1.4692,-6.757991 -2.1915,-13.587021 -1.85231,-20.517014 4.95092,3.909301 9.14745,8.672508 12.74763,14.11074 1.18324,-7.264266 3.44155,-14.101999 6.96383,-20.43825 z" id="path933"/><path id="path3915" style="opacity:1;fill:#ef9b11;fill-opacity:1;stroke:none;stroke-width:0.079375;stroke-linecap:round;stroke-linejoin:round;stroke-opacity:1" d="m 106.33701,28.579134 11.11973,27.07535 5.2e-4,5.17e-4 c 0.29033,-4.33669 0.82494,-8.659003 1.62729,-12.9651 -3.60018,-5.438212 -7.79666,-10.201478 -12.74754,-14.110767 z m -18.312581,9.195822 29.256611,30.485477 0.002,10e-4 c -0.13753,-3.699856 -0.11263,-7.389815 0.0847,-11.069609 h -0.004 c -4.52895,-4.370803 -7.02789,-6.433461 -9.17463,-8.09563 -6.23376,-4.878737 -12.942886,-8.681111 -20.164661,-11.321272 z m -17.58859,17.522961 47.492711,22.013127 c -0.2638,-2.511999 -0.45453,-5.01953 -0.57723,-7.523055 h -0.005 C 111.77376,66.587627 106.42886,63.912405 101.52541,62.253048 90.624494,58.403147 80.27736,56.130037 70.435839,55.297917 Z"/></g><g id="g4179" transform="matrix(-1,0,0,1,252.09676,0)" style="stroke:none"><path style="opacity:1;fill:#ef9b11;fill-opacity:1;stroke:none;stroke-width:0.079375;stroke-linecap:round;stroke-linejoin:round;stroke-opacity:1" d="m 126.04838,85.275205 h -1.6639 v -1.422366 a 2.3900061,2.3900061 0 0 0 -2.47535,-2.388482 l -14.09319,0.503559 C 103.4766,82.122963 99.728871,79.814891 95.834288,77.311247 85.833472,70.882194 76.901504,64.112321 70.435611,55.297916 80.277172,56.13004 90.624664,58.403331 101.52564,62.253248 95.607748,54.655496 91.019302,46.531012 88.024582,37.775086 c 7.221803,2.640173 13.930848,6.442137 20.164648,11.320894 -1.4692,-6.757991 -2.1915,-13.587021 -1.85231,-20.517014 4.95092,3.909301 9.14745,8.672508 12.74763,14.11074 1.18324,-7.264266 3.44155,-14.101999 6.96383,-20.43825 z" id="path4175"/><path id="path4177" style="opacity:1;fill:#fff500;fill-opacity:1;stroke:none;stroke-width:0.079375;stroke-linecap:round;stroke-linejoin:round;stroke-opacity:1" d="m 106.33701,28.579134 11.11973,27.07535 5.2e-4,5.17e-4 c 0.29033,-4.33669 0.82494,-8.659003 1.62729,-12.9651 -3.60018,-5.438212 -7.79666,-10.201478 -12.74754,-14.110767 z m -18.312581,9.195822 29.256611,30.485477 0.002,10e-4 c -0.13753,-3.699856 -0.11263,-7.389815 0.0847,-11.069609 h -0.004 c -4.52895,-4.370803 -7.02789,-6.433461 -9.17463,-8.09563 -6.23376,-4.878737 -12.942886,-8.681111 -20.164661,-11.321272 z m -17.58859,17.522961 47.492711,22.013127 c -0.2638,-2.511999 -0.45453,-5.01953 -0.57723,-7.523055 h -0.005 C 111.77376,66.587627 106.42886,63.912405 101.52541,62.253048 90.624494,58.403147 80.27736,56.130037 70.435839,55.297917 Z"/></g></g><g id="g31959" transform="matrix(0.83249756,0,0,0.83249756,-465.1581,93.230281)" style="stroke:#ce7218;stroke-width:0.127127;stroke-linecap:square;stroke-linejoin:round;stroke-dasharray:none;stroke-opacity:1"><g id="g29159" style="display:inline;stroke:#ce7218;stroke-width:0.127127;stroke-linecap:square;stroke-linejoin:round;stroke-dasharray:none;stroke-opacity:1"><g id="g16919" style="fill:#fff500;fill-opacity:1;stroke:#ce7218;stroke-width:0.127127;stroke-linecap:square;stroke-linejoin:round;stroke-dasharray:none;stroke-opacity:1"><path style="opacity:1;fill:#fff500;fill-opacity:1;stroke:#ce7218;stroke-width:0.127127;stroke-linecap:square;stroke-linejoin:round;stroke-dasharray:none;stroke-opacity:1" d="m 80.659905,19.502437 c -1.462552,4.308496 -4.869327,7.482219 -9.554105,8.041482 0.585051,-5.540988 3.736684,-8.097667 9.554105,-8.041482 z" id="path6919"/><path id="path16914" style="opacity:1;fill:#ef9b11;fill-opacity:1;stroke:#ce7218;stroke-width:0.127127;stroke-linecap:square;stroke-linejoin:round;stroke-dasharray:none;stroke-opacity:1" d="m 80.660021,19.502686 c -3.488356,2.359281 -6.673008,5.040099 -9.554456,8.04137 4.684774,-0.559263 8.091905,-3.732878 9.554456,-8.04137 z"/></g><g id="g16476" style="display:inline;stroke:#ce7218;stroke-width:0.127127;stroke-linecap:square;stroke-linejoin:round;stroke-dasharray:none;stroke-opacity:1"><path style="opacity:1;fill:#fff500;fill-opacity:1;stroke:#ce7218;stroke-width:0.127127;stroke-linecap:square;stroke-linejoin:round;stroke-dasharray:none;stroke-opacity:1" d="m 72.698063,20.019962 c 1.844607,6.610425 -1.387783,9.212671 -3.10515,10.987352 -0.104552,-3.455311 -2.194191,-8.037864 3.10515,-10.987352 z" id="path6622"/><path id="path16471" style="opacity:1;fill:#ef9b11;fill-opacity:1;stroke:#ce7218;stroke-width:0.127127;stroke-linecap:square;stroke-linejoin:round;stroke-dasharray:none;stroke-opacity:1" d="m 72.698233,20.019967 c -1.375786,1.805029 -1.829155,3.791073 -1.698604,6.010486 0.114093,1.939637 -0.528867,3.577446 -1.406633,4.976957 1.717365,-1.774679 4.949842,-4.377025 3.105237,-10.987443 z"/></g><g id="g16033" style="display:inline;stroke:#ce7218;stroke-width:0.127127;stroke-linecap:square;stroke-linejoin:round;stroke-dasharray:none;stroke-opacity:1"><path style="opacity:1;fill:#fff500;fill-opacity:1;stroke:#ce7218;stroke-width:0.127127;stroke-linecap:square;stroke-linejoin:round;stroke-dasharray:none;stroke-opacity:1" d="m 73.295228,26.867114 c -4.646246,1.755575 -6.887186,5.017476 -6.329628,10.031942 4.690372,-1.985514 6.942705,-5.254499 6.329628,-10.031942 z" id="path6388"/><path id="path16028" style="opacity:1;fill:#ef9b11;fill-opacity:1;stroke:#ce7218;stroke-width:0.127127;stroke-linecap:square;stroke-linejoin:round;stroke-dasharray:none;stroke-opacity:1" d="m 73.295096,26.867094 c -0.490683,1.315939 -1.131071,2.467433 -1.943034,3.392041 -1.626143,1.851739 -3.166867,4.262956 -4.386296,6.639905 4.690368,-1.985512 6.942406,-5.254508 6.32933,-10.031946 z"/></g><g id="g15590" style="display:inline;stroke:#ce7218;stroke-width:0.127127;stroke-linecap:square;stroke-linejoin:round;stroke-dasharray:none;stroke-opacity:1"><path style="opacity:1;fill:#fff500;fill-opacity:1;stroke:#ce7218;stroke-width:0.127127;stroke-linecap:square;stroke-linejoin:round;stroke-dasharray:none;stroke-opacity:1" d="m 65.014828,27.504231 c -0.03868,1.82589 -0.6336,3.238732 -1.161339,4.516914 -1.506013,3.647555 0.535324,5.655334 1.997422,7.744142 2.714491,-3.663629 2.969792,-6.655094 1.154641,-9.115954 -0.77785,-1.054558 -1.436748,-2.128062 -1.990724,-3.145102 z" id="path6154"/><path id="path15585" style="opacity:1;fill:#ef9b11;fill-opacity:1;stroke:#ce7218;stroke-width:0.127127;stroke-linecap:square;stroke-linejoin:round;stroke-dasharray:none;stroke-opacity:1" d="m 65.014981,27.504265 c 1.726165,4.208796 1.950671,8.291472 0.836125,12.261267 2.714488,-3.663626 2.9696,-6.655382 1.154451,-9.11624 -0.777849,-1.054557 -1.436601,-2.127988 -1.990576,-3.145027 z"/></g><g id="g15147" style="display:inline;stroke:#ce7218;stroke-width:0.127127;stroke-linecap:square;stroke-linejoin:round;stroke-dasharray:none;stroke-opacity:1"><path style="opacity:1;fill:#fff500;fill-opacity:1;stroke:#ce7218;stroke-width:0.127127;stroke-linecap:square;stroke-linejoin:round;stroke-dasharray:none;stroke-opacity:1" d="m 70.07075,34.271743 c 1.408307,6.668705 -2.332595,8.235025 -6.011333,9.156171 0.140878,-2.448939 1.108306,-4.935986 2.625661,-6.580491 1.120796,-1.214716 2.618143,-1.73353 3.385672,-2.57568 z" id="path5920"/><path id="path15142" style="opacity:1;fill:#ef9b11;fill-opacity:1;stroke:#ce7218;stroke-width:0.127127;stroke-linecap:square;stroke-linejoin:round;stroke-dasharray:none;stroke-opacity:1" d="m 70.071003,34.27181 c -0.494696,1.079879 -0.985084,2.12738 -1.438672,3.158464 -0.681563,1.549314 -1.615436,2.815346 -2.860807,3.752226 -0.817082,0.614682 -1.379905,1.363739 -1.71204,2.245341 3.678734,-0.921146 7.419825,-2.487332 6.011519,-9.156031 z"/></g><g id="g14704" style="display:inline;stroke:#ce7218;stroke-width:0.127127;stroke-linecap:square;stroke-linejoin:round;stroke-dasharray:none;stroke-opacity:1"><path style="opacity:1;fill:#fff500;fill-opacity:1;stroke:#ce7218;stroke-width:0.127127;stroke-linecap:square;stroke-linejoin:round;stroke-dasharray:none;stroke-opacity:1" d="m 61.272825,34.152416 c 0.495751,1.70618 0.350847,3.394365 -0.05883,5.116518 -0.848407,3.566431 0.156027,6.489115 2.367852,8.896345 5.47916,-5.816831 -1.570313,-12.642241 -2.309022,-14.012863 z" id="path5623"/><path id="path14699" style="opacity:1;fill:#ef9b11;fill-opacity:1;stroke:#ce7218;stroke-width:0.127127;stroke-linecap:square;stroke-linejoin:round;stroke-dasharray:none;stroke-opacity:1" d="m 61.272574,34.152438 c 1.179328,3.621724 2.376308,7.199509 2.309419,14.013098 5.479155,-5.816825 -1.570711,-12.642478 -2.309419,-14.013098 z"/></g><g id="g14261" style="display:inline;stroke:#ce7218;stroke-width:0.127127;stroke-linecap:square;stroke-linejoin:round;stroke-dasharray:none;stroke-opacity:1"><path style="opacity:1;fill:#fff500;fill-opacity:1;stroke:#ce7218;stroke-width:0.127127;stroke-linecap:square;stroke-linejoin:round;stroke-dasharray:none;stroke-opacity:1" d="m 67.005552,43.70652 c -5.162938,1.954854 -7.495306,5.097249 -6.409531,9.673696 2.479451,-1.016371 4.141777,-2.769874 4.859383,-5.479679 0.381414,-1.440283 0.85724,-2.853919 1.550148,-4.194017 z" id="path4861"/><path id="path14256" style="opacity:1;fill:#ef9b11;fill-opacity:1;stroke:#ce7218;stroke-width:0.127127;stroke-linecap:square;stroke-linejoin:round;stroke-dasharray:none;stroke-opacity:1" d="m 67.005557,43.706376 c -3.145306,2.520874 -5.259683,5.760949 -6.409428,9.673829 2.479449,-1.01637 4.14153,-2.769967 4.859135,-5.479769 0.381414,-1.440282 0.857386,-2.853963 1.550293,-4.19406 z"/></g><g id="g13385" style="display:inline;stroke:#ce7218;stroke-width:0.127127;stroke-linecap:square;stroke-linejoin:round;stroke-dasharray:none;stroke-opacity:1"><path style="opacity:1;fill:#fff500;fill-opacity:1;stroke:#ce7218;stroke-width:0.127127;stroke-linecap:square;stroke-linejoin:round;stroke-dasharray:none;stroke-opacity:1" d="m 57.849382,44.82121 c 0.685796,0.836329 1.507619,1.446218 2.189427,2.189427 3.486486,3.800465 3.966552,7.461941 0.995098,10.708746 -2.082305,-2.30208 -3.343363,-5.162909 -3.264165,-8.519319 0.03242,-1.374186 0.21313,-2.841292 0.07964,-4.378854 z" id="path4562"/><path id="path13380" style="opacity:1;fill:#ef9b11;fill-opacity:1;stroke:#ce7218;stroke-width:0.127127;stroke-linecap:square;stroke-linejoin:round;stroke-dasharray:none;stroke-opacity:1" d="m 57.849527,44.821037 c 1.429475,2.836384 3.146159,4.530264 3.184302,12.898438 2.971451,-3.246802 2.491711,-6.908446 -0.994772,-10.708907 -0.681807,-0.743209 -1.503735,-1.353203 -2.18953,-2.189531 z"/></g><g id="g12075" style="display:inline;stroke:#ce7218;stroke-width:0.127127;stroke-linecap:square;stroke-linejoin:round;stroke-dasharray:none;stroke-opacity:1"><path style="opacity:1;fill:#fff500;fill-opacity:1;stroke:#ce7218;stroke-width:0.127127;stroke-linecap:square;stroke-linejoin:round;stroke-dasharray:none;stroke-opacity:1" d="m 65.850911,49.837181 c -3.652516,2.734374 -6.753553,6.091608 -6.528858,11.186583 2.532563,-1.076791 5.339626,-1.65472 5.922445,-6.718123 0.158546,-1.377413 0.338377,-2.890485 0.606413,-4.46846 z" id="path4265"/><path id="path12070" style="opacity:1;fill:#ef9b11;fill-opacity:1;stroke:#ce7218;stroke-width:0.127127;stroke-linecap:square;stroke-linejoin:round;stroke-dasharray:none;stroke-opacity:1" d="m 65.851106,49.837268 c -0.754705,0.876355 -1.583223,1.371945 -2.093413,3.605982 -0.32685,1.431228 -1.039139,2.388449 -1.728576,3.360518 -1.054472,1.486749 -1.868798,2.856229 -2.706812,4.219898 2.532561,-1.07679 5.339301,-1.654539 5.922119,-6.717937 0.158546,-1.377411 0.338646,-2.890487 0.606682,-4.468461 z"/></g><g id="g11632" style="display:inline;stroke:#ce7218;stroke-width:0.127127;stroke-linecap:square;stroke-linejoin:round;stroke-dasharray:none;stroke-opacity:1"><path style="opacity:1;fill:#fff500;fill-opacity:1;stroke:#ce7218;stroke-width:0.127127;stroke-linecap:square;stroke-linejoin:round;stroke-dasharray:none;stroke-opacity:1" d="m 57.252217,54.813199 c 0.600816,0.839321 1.362981,1.514447 2.069836,2.269332 3.565569,3.807847 3.413531,8.054106 1.990725,12.301008 -3.226854,-4.985935 -4.551565,-9.284329 -4.060561,-14.57034 z" id="path3968"/><path id="path11626" style="opacity:1;fill:#ef9b11;fill-opacity:1;stroke:#ce7218;stroke-width:0.127127;stroke-linecap:square;stroke-linejoin:round;stroke-dasharray:none;stroke-opacity:1" d="m 57.252147,54.813192 c 0.185285,1.550757 0.865906,2.858889 1.55236,4.180107 1.648588,3.173036 1.950372,6.832325 2.508374,10.390063 1.422805,-4.246898 1.57499,-8.493215 -1.990576,-12.301058 -0.706854,-0.754884 -1.469342,-1.429792 -2.070158,-2.269112 z"/></g><g id="g11188" style="display:inline;stroke:#ce7218;stroke-width:0.127127;stroke-linecap:square;stroke-linejoin:round;stroke-dasharray:none;stroke-opacity:1"><path style="opacity:1;fill:#fff500;fill-opacity:1;stroke:#ce7218;stroke-width:0.127127;stroke-linecap:square;stroke-linejoin:round;stroke-dasharray:none;stroke-opacity:1" d="m 64.776173,59.630204 c 0.467085,5.027406 -1.400657,8.976229 -5.653087,11.823435 -1.169655,-4.94625 0.603711,-8.923924 5.653087,-11.823435 z" id="path3438"/><path id="path11183" style="opacity:1;fill:#ef9b11;fill-opacity:1;stroke:#ce7218;stroke-width:0.127127;stroke-linecap:square;stroke-linejoin:round;stroke-dasharray:none;stroke-opacity:1" d="m 64.776236,59.629952 c -1.999056,4.32249 -3.965037,7.68649 -5.653402,11.823568 4.252426,-2.847203 6.120486,-6.796167 5.653402,-11.823568 z"/></g><g id="g10746" style="display:inline;stroke:#ce7218;stroke-width:0.127127;stroke-linecap:square;stroke-linejoin:round;stroke-dasharray:none;stroke-opacity:1"><path style="opacity:1;fill:#fff500;fill-opacity:1;stroke:#ce7218;stroke-width:0.127127;stroke-linecap:square;stroke-linejoin:round;stroke-dasharray:none;stroke-opacity:1" d="m 55.65969,62.974272 c 0.652192,0.910885 1.462185,1.621802 2.265934,2.342587 2.973336,2.666428 3.798956,5.947424 2.073233,9.679815 -2.475497,-1.574865 -3.955838,-4.066643 -4.062928,-7.415453 -0.04887,-1.528196 0.04366,-3.059219 -0.276239,-4.606949 z" id="path3141"/><path id="path10741" style="opacity:1;fill:#ef9b11;fill-opacity:1;stroke:#ce7218;stroke-width:0.127127;stroke-linecap:square;stroke-linejoin:round;stroke-dasharray:none;stroke-opacity:1" d="m 55.65948,62.974451 c 0.945371,1.696655 1.90932,3.361492 3.160013,4.934066 1.299402,1.633817 0.856969,4.668049 1.179257,7.087939 1.725721,-3.732387 0.900074,-7.013087 -2.073259,-9.679512 -0.803748,-0.720785 -1.61382,-1.431609 -2.266011,-2.342493 z"/></g><g id="g9870" style="display:inline;stroke:#ce7218;stroke-width:0.127127;stroke-linecap:square;stroke-linejoin:round;stroke-dasharray:none;stroke-opacity:1"><path style="opacity:1;fill:#fff500;fill-opacity:1;stroke:#ce7218;stroke-width:0.127127;stroke-linecap:square;stroke-linejoin:round;stroke-dasharray:none;stroke-opacity:1" d="m 64.855548,67.034833 c -0.872488,1.203172 -1.85223,1.525252 -2.584719,2.040689 -3.628724,2.553458 -3.967421,6.066864 -3.028151,9.623467 3.516215,-1.136172 5.719926,-3.624466 5.413904,-8.399727 -0.06889,-1.074985 -0.0054,-2.162775 0.198966,-3.264429 z" id="path2611"/><path id="path9865" style="opacity:1;fill:#ef9b11;fill-opacity:1;stroke:#ce7218;stroke-width:0.127127;stroke-linecap:square;stroke-linejoin:round;stroke-dasharray:none;stroke-opacity:1" d="m 64.855301,67.034668 c -0.534017,1.19824 -0.921667,2.380942 -1.205611,3.555856 -0.416525,1.723504 -1.254368,3.272122 -2.336809,4.684985 -0.766733,1.000784 -1.474322,2.14653 -2.070158,3.423564 3.516212,-1.136171 5.719645,-3.624748 5.413624,-8.400004 -0.06889,-1.074984 -0.0054,-2.162748 0.198954,-3.264401 z"/></g><g id="g8994" style="display:inline;stroke:#ce7218;stroke-width:0.127127;stroke-linecap:square;stroke-linejoin:round;stroke-dasharray:none;stroke-opacity:1"><path style="opacity:1;fill:#fff500;fill-opacity:1;stroke:#ce7218;stroke-width:0.127127;stroke-linecap:square;stroke-linejoin:round;stroke-dasharray:none;stroke-opacity:1" d="m 55.898609,73.046166 c 0.103967,5.085278 2.196888,8.709818 6.449219,10.748433 0.793138,-5.483091 -1.279182,-9.115893 -6.449219,-10.748433 z" id="path2314"/><path id="path8989" style="opacity:1;fill:#ef9b11;fill-opacity:1;stroke:#ce7218;stroke-width:0.127127;stroke-linecap:square;stroke-linejoin:round;stroke-dasharray:none;stroke-opacity:1" d="m 55.898742,73.046188 c 2.980109,3.030318 5.118487,6.620446 6.449218,10.748181 0.793137,-5.483086 -1.279187,-9.115643 -6.449218,-10.748181 z"/></g><g id="g8551" style="display:inline;stroke:#ce7218;stroke-width:0.127127;stroke-linecap:square;stroke-linejoin:round;stroke-dasharray:none;stroke-opacity:1"><path style="opacity:1;fill:#fff500;fill-opacity:1;stroke:#ce7218;stroke-width:0.127127;stroke-linecap:square;stroke-linejoin:round;stroke-dasharray:none;stroke-opacity:1" d="m 65.691632,74.837395 c -0.237776,1.137576 -0.370691,2.284971 -0.326537,3.434905 0.141215,3.677734 -0.671927,6.584837 -2.460055,8.826416 -2.242735,-1.877603 -2.542298,-6.677365 -0.119327,-9.235811 0.92491,-0.976625 1.988783,-1.86109 2.905919,-3.02551 z" id="path1078"/><path id="path8546" style="opacity:1;fill:#ef9b11;fill-opacity:1;stroke:#ce7218;stroke-width:0.127127;stroke-linecap:square;stroke-linejoin:round;stroke-dasharray:none;stroke-opacity:1" d="m 65.691425,74.837293 c -0.585167,0.97804 -1.111213,1.870215 -1.113627,3.096968 -0.0064,3.268026 -0.945952,6.213095 -1.672766,9.164299 1.788126,-2.241577 2.60153,-5.148604 2.460315,-8.826335 -0.04415,-1.149933 0.0883,-2.297357 0.326078,-3.434932 z"/></g><g id="g8108" style="display:inline;stroke:#ce7218;stroke-width:0.127127;stroke-linecap:square;stroke-linejoin:round;stroke-dasharray:none;stroke-opacity:1"><path style="opacity:1;fill:#fff500;fill-opacity:1;stroke:#ce7218;stroke-width:0.127127;stroke-linecap:square;stroke-linejoin:round;stroke-dasharray:none;stroke-opacity:1" d="m 57.052986,82.958516 c 0.452213,0.119766 0.899077,0.110503 1.435292,0.110503 5.13009,0 6.99822,4.576947 7.561599,7.731744 -3.861845,-0.522604 -7.668379,-2.407581 -8.996891,-7.842247 z" id="path4341"/><path id="path8103" style="opacity:1;fill:#ef9b11;fill-opacity:1;stroke:#ce7218;stroke-width:0.127127;stroke-linecap:square;stroke-linejoin:round;stroke-dasharray:none;stroke-opacity:1" d="m 57.053193,82.958761 c 4.387396,1.965675 7.247308,4.644343 8.996867,7.841899 -0.563379,-3.154794 -2.431728,-7.731828 -7.561812,-7.731828 -0.536215,0 -0.982842,0.0097 -1.435055,-0.110071 z"/></g><g id="g7231" style="display:inline;stroke:#ce7218;stroke-width:0.127127;stroke-linecap:square;stroke-linejoin:round;stroke-dasharray:none;stroke-opacity:1"><path style="opacity:1;fill:#fff500;fill-opacity:1;stroke:#ce7218;stroke-width:0.127127;stroke-linecap:square;stroke-linejoin:round;stroke-dasharray:none;stroke-opacity:1" d="m 68.119977,82.401303 c -5.179195,4.812553 -4.494625,9.244752 -1.870868,12.301006 0.164437,-2.497228 1.817366,-5.639059 2.21218,-7.745872 0.293789,-1.567722 -0.09365,-3.059858 -0.341312,-4.555134 z" id="path3550"/><path id="path7226" style="opacity:1;fill:#ef9b11;fill-opacity:1;stroke:#ce7218;stroke-width:0.127127;stroke-linecap:square;stroke-linejoin:round;stroke-dasharray:none;stroke-opacity:1" d="m 68.120218,82.401172 c -0.101486,1.208009 -0.218532,2.379638 -0.659908,3.402893 -1.348136,3.125423 -1.80996,6.039943 -1.211296,8.898165 0.164437,-2.497225 1.817455,-5.638969 2.212268,-7.74578 0.293789,-1.567721 -0.0934,-3.060003 -0.341064,-4.555278 z"/></g><g id="g6788" style="display:inline;stroke:#ce7218;stroke-width:0.127127;stroke-linecap:square;stroke-linejoin:round;stroke-dasharray:none;stroke-opacity:1"><path style="opacity:1;fill:#fff500;fill-opacity:1;stroke:#ce7218;stroke-width:0.127127;stroke-linecap:square;stroke-linejoin:round;stroke-dasharray:none;stroke-opacity:1" d="m 57.849117,89.088912 c 5.67752,-0.514666 9.17803,2.22222 10.907977,7.603593 -4.244517,0.724582 -7.416765,-0.783485 -8.915154,-4.994193 -0.415631,-1.167988 -0.746375,-2.237243 -1.992823,-2.6094 z" id="path3083"/><path id="path6783" style="opacity:1;fill:#ef9b11;fill-opacity:1;stroke:#ce7218;stroke-width:0.127127;stroke-linecap:square;stroke-linejoin:round;stroke-dasharray:none;stroke-opacity:1" d="m 59.139887,89.027641 c -0.417174,8.06e-4 -0.847321,0.02129 -1.290877,0.06149 1.823178,0.05013 3.638027,0.678918 4.602303,1.923914 1.093643,1.412023 1.642143,1.579933 2.910934,2.195731 1.391211,0.675215 2.421894,2.024552 3.394624,3.483509 -1.594793,-4.960949 -4.694321,-7.674159 -9.616984,-7.664649 z"/></g><g id="g5911" style="display:inline;stroke:#ce7218;stroke-width:0.127127;stroke-linecap:square;stroke-linejoin:round;stroke-dasharray:none;stroke-opacity:1"><path style="opacity:1;fill:#fff500;fill-opacity:1;stroke:#ce7218;stroke-width:0.127127;stroke-linecap:square;stroke-linejoin:round;stroke-dasharray:none;stroke-opacity:1" d="m 70.508636,88.133237 c -4.4646,4.958896 -4.314892,10.521516 -0.477838,11.903073 1.683536,-2.192014 2.42512,-4.891958 1.455132,-8.210067 -0.356929,-1.220973 -0.947113,-2.362364 -0.977294,-3.693006 z" id="path5904"/><path id="path5906" style="opacity:1;fill:#ef9b11;fill-opacity:1;stroke:#ce7218;stroke-width:0.127127;stroke-linecap:square;stroke-linejoin:round;stroke-dasharray:none;stroke-opacity:1" d="m 70.508702,88.133122 c -0.41947,0.8857 -0.702799,1.832181 -0.478007,2.785877 0.395121,1.676319 0.155831,3.123865 -0.325044,4.677233 -0.47354,1.529672 -0.01562,3.021057 0.325044,4.440038 1.683535,-2.19201 2.425196,-4.891728 1.455209,-8.209833 -0.356929,-1.220972 -0.947021,-2.362674 -0.977202,-3.693315 z"/></g><g id="g5466" style="display:inline;stroke:#ce7218;stroke-width:0.127127;stroke-linecap:square;stroke-linejoin:round;stroke-dasharray:none;stroke-opacity:1"><path style="opacity:1;fill:#fff500;fill-opacity:1;stroke:#ce7218;stroke-width:0.127127;stroke-linecap:square;stroke-linejoin:round;stroke-dasharray:none;stroke-opacity:1" d="m 62.029269,97.210823 c 5.148751,-1.331126 9.182599,-0.408775 11.146632,4.697147 -4.196232,1.05644 -7.886431,-0.64753 -11.146632,-4.697147 z" id="path2721"/><path id="path5461" style="opacity:1;fill:#ef9b11;fill-opacity:1;stroke:#ce7218;stroke-width:0.127127;stroke-linecap:square;stroke-linejoin:round;stroke-dasharray:none;stroke-opacity:1" d="m 65.878494,96.663351 c -1.192411,-5.88e-4 -2.481742,0.193673 -3.849377,0.547253 1.740665,1.496762 3.801586,2.49467 6.173266,2.601392 2.04629,0.09208 3.404734,0.224234 4.97334,2.095994 -1.442335,-3.749656 -4.000562,-5.243013 -7.297229,-5.244639 z"/></g><g id="g5023" style="display:inline;stroke:#ce7218;stroke-width:0.127127;stroke-linecap:square;stroke-linejoin:round;stroke-dasharray:none;stroke-opacity:1"><path style="opacity:1;fill:#fff500;fill-opacity:1;stroke:#ce7218;stroke-width:0.127127;stroke-linecap:square;stroke-linejoin:round;stroke-dasharray:none;stroke-opacity:1" d="m 72.738015,93.029613 c 0.242725,1.281533 -0.428755,2.172694 -1.012584,3.265551 -1.887289,3.532777 -0.905152,6.234856 1.490157,8.040626 2.209638,-3.04036 2.196308,-7.53 -0.477573,-11.306177 z" id="path2487"/><path id="path5018" style="opacity:1;fill:#ef9b11;fill-opacity:1;stroke:#ce7218;stroke-width:0.127127;stroke-linecap:square;stroke-linejoin:round;stroke-dasharray:none;stroke-opacity:1" d="m 72.738024,93.029464 c 0.450675,1.319041 0.571665,2.683694 0.170015,4.024044 -0.786711,2.625346 -0.58154,4.994032 0.307475,7.282242 2.209636,-3.04036 2.196388,-7.530113 -0.47749,-11.306286 z"/></g><g id="g4580" style="display:inline;stroke:#ce7218;stroke-width:0.127127;stroke-linecap:square;stroke-linejoin:round;stroke-dasharray:none;stroke-opacity:1"><path style="display:inline;opacity:1;fill:#fff500;fill-opacity:1;stroke:#ce7218;stroke-width:0.127127;stroke-linecap:square;stroke-linejoin:round;stroke-dasharray:none;stroke-opacity:1" d="m 65.93055,102.38528 c 2.762486,-0.57166 5.250607,-1.43802 8.664155,1.26037 1.779265,1.4065 2.95709,2.59272 2.482477,4.51231 -5.14753,0.42345 -8.756504,-1.67549 -11.146632,-5.77268" id="path2422"/><path id="path4574" style="display:inline;opacity:1;fill:#ef9b11;fill-opacity:1;stroke:#ce7218;stroke-width:0.127127;stroke-linecap:square;stroke-linejoin:round;stroke-dasharray:none;stroke-opacity:1" d="m 69.757844,101.78449 c -1.297918,-4e-5 -2.532243,0.33303 -3.827157,0.60099 4.282402,0.64307 7.976141,2.61612 11.146607,5.77226 0.474612,-1.91959 -0.703273,-3.10537 -2.482536,-4.51187 -1.813446,-1.43352 -3.36594,-1.86134 -4.836914,-1.86138 z"/></g><g id="g3702" style="display:inline;stroke:#ce7218;stroke-width:0.127127;stroke-linecap:square;stroke-linejoin:round;stroke-dasharray:none;stroke-opacity:1"><path style="opacity:1;fill:#fff500;fill-opacity:1;stroke:#ce7218;stroke-width:0.127127;stroke-linecap:square;stroke-linejoin:round;stroke-dasharray:none;stroke-opacity:1" d="m 77.077182,110.02909 c -3.226252,-0.46839 -4.394699,-6.13136 -1.831181,-11.226269 4.200879,4.251249 4.63936,7.968959 1.831181,11.226269 z" id="path2357"/><path id="path3697" style="opacity:1;fill:#ef9b11;fill-opacity:1;stroke:#ce7218;stroke-width:0.127127;stroke-linecap:square;stroke-linejoin:round;stroke-dasharray:none;stroke-opacity:1" d="m 75.245881,98.802755 c 0.855033,1.493115 0.966035,3.052655 0.768945,4.712895 -0.279453,2.35404 0.351138,4.47361 1.062468,6.51329 2.808176,-3.2573 2.369462,-6.97494 -1.831413,-11.226185 z"/></g><g id="g2850" style="display:inline;stroke:#ce7218;stroke-width:0.127127;stroke-linecap:square;stroke-linejoin:round;stroke-dasharray:none;stroke-opacity:1"><path style="opacity:1;fill:#fff500;fill-opacity:1;stroke:#ce7218;stroke-width:0.127127;stroke-linecap:square;stroke-linejoin:round;stroke-dasharray:none;stroke-opacity:1" d="m 79.425888,103.62009 c -2.586035,5.71234 -0.80398,9.21072 4.020873,10.9474 0.895593,-3.08526 0.803086,-5.93717 -1.353693,-7.85418 -1.104593,-0.98179 -2.181267,-1.79855 -2.66718,-3.09322 z" id="path2059"/><path id="path2844" style="opacity:1;fill:#ef9b11;fill-opacity:1;stroke:#ce7218;stroke-width:0.127127;stroke-linecap:square;stroke-linejoin:round;stroke-dasharray:none;stroke-opacity:1" d="m 79.425988,103.62003 c 0.06614,1.06392 0.518555,2.01519 1.11156,3.02617 1.461607,2.49182 2.362261,5.17948 2.909383,7.92148 0.895592,-3.08525 0.802854,-5.93729 -1.353923,-7.8543 -1.104592,-0.98179 -2.181108,-1.79868 -2.66702,-3.09335 z"/></g><g id="g2406" style="display:inline;stroke:#ce7218;stroke-width:0.127127;stroke-linecap:square;stroke-linejoin:round;stroke-dasharray:none;stroke-opacity:1"><path style="display:inline;opacity:1;fill:#fff500;fill-opacity:1;stroke:#ce7218;stroke-width:0.127127;stroke-linecap:square;stroke-linejoin:round;stroke-dasharray:none;stroke-opacity:1" d="m 69.274619,107.99868 c 2.40025,2.47318 4.796321,5.10128 7.263818,5.14557 1.893948,0.034 3.592111,-0.23379 5.156518,-0.64712 -0.806442,-3.38271 -3.125285,-5.11236 -6.51282,-4.49286 -1.991253,0.36415 -3.938344,0.47643 -5.907516,-0.006 z" id="path1762"/><path id="path2400" style="display:inline;opacity:1;fill:#ef9b11;fill-opacity:1;stroke:#ce7218;stroke-width:0.127127;stroke-linecap:square;stroke-linejoin:round;stroke-dasharray:none;stroke-opacity:1" d="m 76.546577,107.88024 c -0.43287,-0.004 -0.887886,0.0369 -1.364258,0.12402 -1.991251,0.36415 -3.93848,0.47623 -5.90765,-0.006 v 5.2e-4 c 1.791338,1.07605 3.584115,1.71922 5.405355,1.95802 2.562278,0.33597 5.061832,0.72697 7.015076,2.54041 -0.693036,-2.90701 -2.503206,-4.5932 -5.148523,-4.61677 z"/></g><g id="g2396" style="display:inline;stroke:#ce7218;stroke-width:0.127127;stroke-linecap:square;stroke-linejoin:round;stroke-dasharray:none;stroke-opacity:1"><path style="opacity:1;fill:#fff500;fill-opacity:1;stroke:#ce7218;stroke-width:0.127127;stroke-linecap:square;stroke-linejoin:round;stroke-dasharray:none;stroke-opacity:1" d="m 74.210951,112.45744 c 2.030971,0.559 4.023444,0.39854 6.090972,0.11959 5.011022,-0.67608 7.952947,0.93826 9.076267,3.94123 -3.964818,1.49111 -7.659181,1.41166 -10.87995,-0.73764 -1.528115,-1.01975 -2.904911,-2.20283 -4.287289,-3.32318 z" id="path1697"/><path id="path2389" style="opacity:1;fill:#ef9b11;fill-opacity:1;stroke:#ce7218;stroke-width:0.127127;stroke-linecap:square;stroke-linejoin:round;stroke-dasharray:none;stroke-opacity:1" d="m 82.500219,112.42466 c -0.682897,-0.003 -1.415344,0.0468 -2.198316,0.15245 -2.067526,0.27895 -4.060132,0.43911 -6.091101,-0.11989 3.010691,1.57401 6.582523,2.20792 10.174056,2.72386 1.702209,0.24454 3.428294,0.32168 4.993494,1.33739 -0.947801,-2.53375 -3.19049,-4.07891 -6.878133,-4.09381 z"/></g><g id="g1953" style="display:inline;stroke:#ce7218;stroke-width:0.127127;stroke-linecap:square;stroke-linejoin:round;stroke-dasharray:none;stroke-opacity:1"><path style="opacity:1;fill:#fff500;fill-opacity:1;stroke:#ce7218;stroke-width:0.127127;stroke-linecap:square;stroke-linejoin:round;stroke-dasharray:none;stroke-opacity:1" d="m 112.14903,129.53497 -12.937865,-4.81701 c -4.7089,-1.75321 -8.976192,-3.26815 -11.46519,-6.84715 -1.406219,-2.02204 -1.984487,-4.33485 -2.030147,-6.76751 2.671844,1.2351 5.374351,2.45217 6.065379,5.48396 0.856707,3.75868 4.199462,5.05892 7.593243,6.32683 4.55806,1.70289 9.1153,3.39716 13.88926,4.98866 0.41734,0.13913 -0.33557,1.9223 -1.11468,1.63222 z" id="path1305"/><path id="path1787" style="opacity:1;fill:#ef9b11;fill-opacity:1;stroke:#ce7218;stroke-width:0.127127;stroke-linecap:square;stroke-linejoin:round;stroke-dasharray:none;stroke-opacity:1" d="m 85.716043,111.1033 c 2.511552,5.03584 5.45455,9.1806 10.424186,10.46863 v 0 c -2.084145,-1.0419 -3.782751,-2.45705 -4.358874,-4.98471 -0.691027,-3.03179 -3.393422,-4.24881 -6.065263,-5.4839 z"/></g></g><g id="g31629" style="display:inline;stroke:#ce7218;stroke-width:0.127127;stroke-linecap:square;stroke-linejoin:round;stroke-dasharray:none;stroke-opacity:1" transform="matrix(-1,0,0,1,252.11413,0)"><g id="g31471" style="fill:#fff500;fill-opacity:1;stroke:#ce7218;stroke-width:0.127127;stroke-linecap:square;stroke-linejoin:round;stroke-dasharray:none;stroke-opacity:1"><path style="opacity:1;fill:#fff500;fill-opacity:1;stroke:#ce7218;stroke-width:0.127127;stroke-linecap:square;stroke-linejoin:round;stroke-dasharray:none;stroke-opacity:1" d="m 80.659905,19.502437 c -1.462552,4.308496 -4.869327,7.482219 -9.554105,8.041482 0.585051,-5.540988 3.736684,-8.097667 9.554105,-8.041482 z" id="path31467"/><path id="path31469" style="opacity:1;fill:#ef9b11;fill-opacity:1;stroke:#ce7218;stroke-width:0.127127;stroke-linecap:square;stroke-linejoin:round;stroke-dasharray:none;stroke-opacity:1" d="m 80.660021,19.502686 c -3.488356,2.359281 -6.673008,5.040099 -9.554456,8.04137 4.684774,-0.559263 8.091905,-3.732878 9.554456,-8.04137 z"/></g><g id="g31477" style="display:inline;stroke:#ce7218;stroke-width:0.127127;stroke-linecap:square;stroke-linejoin:round;stroke-dasharray:none;stroke-opacity:1"><path style="opacity:1;fill:#fff500;fill-opacity:1;stroke:#ce7218;stroke-width:0.127127;stroke-linecap:square;stroke-linejoin:round;stroke-dasharray:none;stroke-opacity:1" d="m 72.698063,20.019962 c 1.844607,6.610425 -1.387783,9.212671 -3.10515,10.987352 -0.104552,-3.455311 -2.194191,-8.037864 3.10515,-10.987352 z" id="path31473"/><path id="path31475" style="opacity:1;fill:#ef9b11;fill-opacity:1;stroke:#ce7218;stroke-width:0.127127;stroke-linecap:square;stroke-linejoin:round;stroke-dasharray:none;stroke-opacity:1" d="m 72.698233,20.019967 c -1.375786,1.805029 -1.829155,3.791073 -1.698604,6.010486 0.114093,1.939637 -0.528867,3.577446 -1.406633,4.976957 1.717365,-1.774679 4.949842,-4.377025 3.105237,-10.987443 z"/></g><g id="g31483" style="display:inline;stroke:#ce7218;stroke-width:0.127127;stroke-linecap:square;stroke-linejoin:round;stroke-dasharray:none;stroke-opacity:1"><path style="opacity:1;fill:#fff500;fill-opacity:1;stroke:#ce7218;stroke-width:0.127127;stroke-linecap:square;stroke-linejoin:round;stroke-dasharray:none;stroke-opacity:1" d="m 73.295228,26.867114 c -4.646246,1.755575 -6.887186,5.017476 -6.329628,10.031942 4.690372,-1.985514 6.942705,-5.254499 6.329628,-10.031942 z" id="path31479"/><path id="path31481" style="opacity:1;fill:#ef9b11;fill-opacity:1;stroke:#ce7218;stroke-width:0.127127;stroke-linecap:square;stroke-linejoin:round;stroke-dasharray:none;stroke-opacity:1" d="m 73.295096,26.867094 c -0.490683,1.315939 -1.131071,2.467433 -1.943034,3.392041 -1.626143,1.851739 -3.166867,4.262956 -4.386296,6.639905 4.690368,-1.985512 6.942406,-5.254508 6.32933,-10.031946 z"/></g><g id="g31489" style="display:inline;stroke:#ce7218;stroke-width:0.127127;stroke-linecap:square;stroke-linejoin:round;stroke-dasharray:none;stroke-opacity:1"><path style="opacity:1;fill:#fff500;fill-opacity:1;stroke:#ce7218;stroke-width:0.127127;stroke-linecap:square;stroke-linejoin:round;stroke-dasharray:none;stroke-opacity:1" d="m 65.014828,27.504231 c -0.03868,1.82589 -0.6336,3.238732 -1.161339,4.516914 -1.506013,3.647555 0.535324,5.655334 1.997422,7.744142 2.714491,-3.663629 2.969792,-6.655094 1.154641,-9.115954 -0.77785,-1.054558 -1.436748,-2.128062 -1.990724,-3.145102 z" id="path31485"/><path id="path31487" style="opacity:1;fill:#ef9b11;fill-opacity:1;stroke:#ce7218;stroke-width:0.127127;stroke-linecap:square;stroke-linejoin:round;stroke-dasharray:none;stroke-opacity:1" d="m 65.014981,27.504265 c 1.726165,4.208796 1.950671,8.291472 0.836125,12.261267 2.714488,-3.663626 2.9696,-6.655382 1.154451,-9.11624 -0.777849,-1.054557 -1.436601,-2.127988 -1.990576,-3.145027 z"/></g><g id="g31495" style="display:inline;stroke:#ce7218;stroke-width:0.127127;stroke-linecap:square;stroke-linejoin:round;stroke-dasharray:none;stroke-opacity:1"><path style="opacity:1;fill:#fff500;fill-opacity:1;stroke:#ce7218;stroke-width:0.127127;stroke-linecap:square;stroke-linejoin:round;stroke-dasharray:none;stroke-opacity:1" d="m 70.07075,34.271743 c 1.408307,6.668705 -2.332595,8.235025 -6.011333,9.156171 0.140878,-2.448939 1.108306,-4.935986 2.625661,-6.580491 1.120796,-1.214716 2.618143,-1.73353 3.385672,-2.57568 z" id="path31491"/><path id="path31493" style="opacity:1;fill:#ef9b11;fill-opacity:1;stroke:#ce7218;stroke-width:0.127127;stroke-linecap:square;stroke-linejoin:round;stroke-dasharray:none;stroke-opacity:1" d="m 70.071003,34.27181 c -0.494696,1.079879 -0.985084,2.12738 -1.438672,3.158464 -0.681563,1.549314 -1.615436,2.815346 -2.860807,3.752226 -0.817082,0.614682 -1.379905,1.363739 -1.71204,2.245341 3.678734,-0.921146 7.419825,-2.487332 6.011519,-9.156031 z"/></g><g id="g31501" style="display:inline;stroke:#ce7218;stroke-width:0.127127;stroke-linecap:square;stroke-linejoin:round;stroke-dasharray:none;stroke-opacity:1"><path style="opacity:1;fill:#fff500;fill-opacity:1;stroke:#ce7218;stroke-width:0.127127;stroke-linecap:square;stroke-linejoin:round;stroke-dasharray:none;stroke-opacity:1" d="m 61.272825,34.152416 c 0.495751,1.70618 0.350847,3.394365 -0.05883,5.116518 -0.848407,3.566431 0.156027,6.489115 2.367852,8.896345 5.47916,-5.816831 -1.570313,-12.642241 -2.309022,-14.012863 z" id="path31497"/><path id="path31499" style="opacity:1;fill:#ef9b11;fill-opacity:1;stroke:#ce7218;stroke-width:0.127127;stroke-linecap:square;stroke-linejoin:round;stroke-dasharray:none;stroke-opacity:1" d="m 61.272574,34.152438 c 1.179328,3.621724 2.376308,7.199509 2.309419,14.013098 5.479155,-5.816825 -1.570711,-12.642478 -2.309419,-14.013098 z"/></g><g id="g31507" style="display:inline;stroke:#ce7218;stroke-width:0.127127;stroke-linecap:square;stroke-linejoin:round;stroke-dasharray:none;stroke-opacity:1"><path style="opacity:1;fill:#fff500;fill-opacity:1;stroke:#ce7218;stroke-width:0.127127;stroke-linecap:square;stroke-linejoin:round;stroke-dasharray:none;stroke-opacity:1" d="m 67.005552,43.70652 c -5.162938,1.954854 -7.495306,5.097249 -6.409531,9.673696 2.479451,-1.016371 4.141777,-2.769874 4.859383,-5.479679 0.381414,-1.440283 0.85724,-2.853919 1.550148,-4.194017 z" id="path31503"/><path id="path31505" style="opacity:1;fill:#ef9b11;fill-opacity:1;stroke:#ce7218;stroke-width:0.127127;stroke-linecap:square;stroke-linejoin:round;stroke-dasharray:none;stroke-opacity:1" d="m 67.005557,43.706376 c -3.145306,2.520874 -5.259683,5.760949 -6.409428,9.673829 2.479449,-1.01637 4.14153,-2.769967 4.859135,-5.479769 0.381414,-1.440282 0.857386,-2.853963 1.550293,-4.19406 z"/></g><g id="g31513" style="display:inline;stroke:#ce7218;stroke-width:0.127127;stroke-linecap:square;stroke-linejoin:round;stroke-dasharray:none;stroke-opacity:1"><path style="opacity:1;fill:#fff500;fill-opacity:1;stroke:#ce7218;stroke-width:0.127127;stroke-linecap:square;stroke-linejoin:round;stroke-dasharray:none;stroke-opacity:1" d="m 57.849382,44.82121 c 0.685796,0.836329 1.507619,1.446218 2.189427,2.189427 3.486486,3.800465 3.966552,7.461941 0.995098,10.708746 -2.082305,-2.30208 -3.343363,-5.162909 -3.264165,-8.519319 0.03242,-1.374186 0.21313,-2.841292 0.07964,-4.378854 z" id="path31509"/><path id="path31511" style="opacity:1;fill:#ef9b11;fill-opacity:1;stroke:#ce7218;stroke-width:0.127127;stroke-linecap:square;stroke-linejoin:round;stroke-dasharray:none;stroke-opacity:1" d="m 57.849527,44.821037 c 1.429475,2.836384 3.146159,4.530264 3.184302,12.898438 2.971451,-3.246802 2.491711,-6.908446 -0.994772,-10.708907 -0.681807,-0.743209 -1.503735,-1.353203 -2.18953,-2.189531 z"/></g><g id="g31519" style="display:inline;stroke:#ce7218;stroke-width:0.127127;stroke-linecap:square;stroke-linejoin:round;stroke-dasharray:none;stroke-opacity:1"><path style="opacity:1;fill:#fff500;fill-opacity:1;stroke:#ce7218;stroke-width:0.127127;stroke-linecap:square;stroke-linejoin:round;stroke-dasharray:none;stroke-opacity:1" d="m 65.850911,49.837181 c -3.652516,2.734374 -6.753553,6.091608 -6.528858,11.186583 2.532563,-1.076791 5.339626,-1.65472 5.922445,-6.718123 0.158546,-1.377413 0.338377,-2.890485 0.606413,-4.46846 z" id="path31515"/><path id="path31517" style="opacity:1;fill:#ef9b11;fill-opacity:1;stroke:#ce7218;stroke-width:0.127127;stroke-linecap:square;stroke-linejoin:round;stroke-dasharray:none;stroke-opacity:1" d="m 65.851106,49.837268 c -0.754705,0.876355 -1.583223,1.371945 -2.093413,3.605982 -0.32685,1.431228 -1.039139,2.388449 -1.728576,3.360518 -1.054472,1.486749 -1.868798,2.856229 -2.706812,4.219898 2.532561,-1.07679 5.339301,-1.654539 5.922119,-6.717937 0.158546,-1.377411 0.338646,-2.890487 0.606682,-4.468461 z"/></g><g id="g31525" style="display:inline;stroke:#ce7218;stroke-width:0.127127;stroke-linecap:square;stroke-linejoin:round;stroke-dasharray:none;stroke-opacity:1"><path style="opacity:1;fill:#fff500;fill-opacity:1;stroke:#ce7218;stroke-width:0.127127;stroke-linecap:square;stroke-linejoin:round;stroke-dasharray:none;stroke-opacity:1" d="m 57.252217,54.813199 c 0.600816,0.839321 1.362981,1.514447 2.069836,2.269332 3.565569,3.807847 3.413531,8.054106 1.990725,12.301008 -3.226854,-4.985935 -4.551565,-9.284329 -4.060561,-14.57034 z" id="path31521"/><path id="path31523" style="opacity:1;fill:#ef9b11;fill-opacity:1;stroke:#ce7218;stroke-width:0.127127;stroke-linecap:square;stroke-linejoin:round;stroke-dasharray:none;stroke-opacity:1" d="m 57.252147,54.813192 c 0.185285,1.550757 0.865906,2.858889 1.55236,4.180107 1.648588,3.173036 1.950372,6.832325 2.508374,10.390063 1.422805,-4.246898 1.57499,-8.493215 -1.990576,-12.301058 -0.706854,-0.754884 -1.469342,-1.429792 -2.070158,-2.269112 z"/></g><g id="g31531" style="display:inline;stroke:#ce7218;stroke-width:0.127127;stroke-linecap:square;stroke-linejoin:round;stroke-dasharray:none;stroke-opacity:1"><path style="opacity:1;fill:#fff500;fill-opacity:1;stroke:#ce7218;stroke-width:0.127127;stroke-linecap:square;stroke-linejoin:round;stroke-dasharray:none;stroke-opacity:1" d="m 64.776173,59.630204 c 0.467085,5.027406 -1.400657,8.976229 -5.653087,11.823435 -1.169655,-4.94625 0.603711,-8.923924 5.653087,-11.823435 z" id="path31527"/><path id="path31529" style="opacity:1;fill:#ef9b11;fill-opacity:1;stroke:#ce7218;stroke-width:0.127127;stroke-linecap:square;stroke-linejoin:round;stroke-dasharray:none;stroke-opacity:1" d="m 64.776236,59.629952 c -1.999056,4.32249 -3.965037,7.68649 -5.653402,11.823568 4.252426,-2.847203 6.120486,-6.796167 5.653402,-11.823568 z"/></g><g id="g31537" style="display:inline;stroke:#ce7218;stroke-width:0.127127;stroke-linecap:square;stroke-linejoin:round;stroke-dasharray:none;stroke-opacity:1"><path style="opacity:1;fill:#fff500;fill-opacity:1;stroke:#ce7218;stroke-width:0.127127;stroke-linecap:square;stroke-linejoin:round;stroke-dasharray:none;stroke-opacity:1" d="m 55.65969,62.974272 c 0.652192,0.910885 1.462185,1.621802 2.265934,2.342587 2.973336,2.666428 3.798956,5.947424 2.073233,9.679815 -2.475497,-1.574865 -3.955838,-4.066643 -4.062928,-7.415453 -0.04887,-1.528196 0.04366,-3.059219 -0.276239,-4.606949 z" id="path31533"/><path id="path31535" style="opacity:1;fill:#ef9b11;fill-opacity:1;stroke:#ce7218;stroke-width:0.127127;stroke-linecap:square;stroke-linejoin:round;stroke-dasharray:none;stroke-opacity:1" d="m 55.65948,62.974451 c 0.945371,1.696655 1.90932,3.361492 3.160013,4.934066 1.299402,1.633817 0.856969,4.668049 1.179257,7.087939 1.725721,-3.732387 0.900074,-7.013087 -2.073259,-9.679512 -0.803748,-0.720785 -1.61382,-1.431609 -2.266011,-2.342493 z"/></g><g id="g31543" style="display:inline;stroke:#ce7218;stroke-width:0.127127;stroke-linecap:square;stroke-linejoin:round;stroke-dasharray:none;stroke-opacity:1"><path style="opacity:1;fill:#fff500;fill-opacity:1;stroke:#ce7218;stroke-width:0.127127;stroke-linecap:square;stroke-linejoin:round;stroke-dasharray:none;stroke-opacity:1" d="m 64.855548,67.034833 c -0.872488,1.203172 -1.85223,1.525252 -2.584719,2.040689 -3.628724,2.553458 -3.967421,6.066864 -3.028151,9.623467 3.516215,-1.136172 5.719926,-3.624466 5.413904,-8.399727 -0.06889,-1.074985 -0.0054,-2.162775 0.198966,-3.264429 z" id="path31539"/><path id="path31541" style="opacity:1;fill:#ef9b11;fill-opacity:1;stroke:#ce7218;stroke-width:0.127127;stroke-linecap:square;stroke-linejoin:round;stroke-dasharray:none;stroke-opacity:1" d="m 64.855301,67.034668 c -0.534017,1.19824 -0.921667,2.380942 -1.205611,3.555856 -0.416525,1.723504 -1.254368,3.272122 -2.336809,4.684985 -0.766733,1.000784 -1.474322,2.14653 -2.070158,3.423564 3.516212,-1.136171 5.719645,-3.624748 5.413624,-8.400004 -0.06889,-1.074984 -0.0054,-2.162748 0.198954,-3.264401 z"/></g><g id="g31549" style="display:inline;stroke:#ce7218;stroke-width:0.127127;stroke-linecap:square;stroke-linejoin:round;stroke-dasharray:none;stroke-opacity:1"><path style="opacity:1;fill:#fff500;fill-opacity:1;stroke:#ce7218;stroke-width:0.127127;stroke-linecap:square;stroke-linejoin:round;stroke-dasharray:none;stroke-opacity:1" d="m 55.898609,73.046166 c 0.103967,5.085278 2.196888,8.709818 6.449219,10.748433 0.793138,-5.483091 -1.279182,-9.115893 -6.449219,-10.748433 z" id="path31545"/><path id="path31547" style="opacity:1;fill:#ef9b11;fill-opacity:1;stroke:#ce7218;stroke-width:0.127127;stroke-linecap:square;stroke-linejoin:round;stroke-dasharray:none;stroke-opacity:1" d="m 55.898742,73.046188 c 2.980109,3.030318 5.118487,6.620446 6.449218,10.748181 0.793137,-5.483086 -1.279187,-9.115643 -6.449218,-10.748181 z"/></g><g id="g31555" style="display:inline;stroke:#ce7218;stroke-width:0.127127;stroke-linecap:square;stroke-linejoin:round;stroke-dasharray:none;stroke-opacity:1"><path style="opacity:1;fill:#fff500;fill-opacity:1;stroke:#ce7218;stroke-width:0.127127;stroke-linecap:square;stroke-linejoin:round;stroke-dasharray:none;stroke-opacity:1" d="m 65.691632,74.837395 c -0.237776,1.137576 -0.370691,2.284971 -0.326537,3.434905 0.141215,3.677734 -0.671927,6.584837 -2.460055,8.826416 -2.242735,-1.877603 -2.542298,-6.677365 -0.119327,-9.235811 0.92491,-0.976625 1.988783,-1.86109 2.905919,-3.02551 z" id="path31551"/><path id="path31553" style="opacity:1;fill:#ef9b11;fill-opacity:1;stroke:#ce7218;stroke-width:0.127127;stroke-linecap:square;stroke-linejoin:round;stroke-dasharray:none;stroke-opacity:1" d="m 65.691425,74.837293 c -0.585167,0.97804 -1.111213,1.870215 -1.113627,3.096968 -0.0064,3.268026 -0.945952,6.213095 -1.672766,9.164299 1.788126,-2.241577 2.60153,-5.148604 2.460315,-8.826335 -0.04415,-1.149933 0.0883,-2.297357 0.326078,-3.434932 z"/></g><g id="g31561" style="display:inline;stroke:#ce7218;stroke-width:0.127127;stroke-linecap:square;stroke-linejoin:round;stroke-dasharray:none;stroke-opacity:1"><path style="opacity:1;fill:#fff500;fill-opacity:1;stroke:#ce7218;stroke-width:0.127127;stroke-linecap:square;stroke-linejoin:round;stroke-dasharray:none;stroke-opacity:1" d="m 57.052986,82.958516 c 0.452213,0.119766 0.899077,0.110503 1.435292,0.110503 5.13009,0 6.99822,4.576947 7.561599,7.731744 -3.861845,-0.522604 -7.668379,-2.407581 -8.996891,-7.842247 z" id="path31557"/><path id="path31559" style="opacity:1;fill:#ef9b11;fill-opacity:1;stroke:#ce7218;stroke-width:0.127127;stroke-linecap:square;stroke-linejoin:round;stroke-dasharray:none;stroke-opacity:1" d="m 57.053193,82.958761 c 4.387396,1.965675 7.247308,4.644343 8.996867,7.841899 -0.563379,-3.154794 -2.431728,-7.731828 -7.561812,-7.731828 -0.536215,0 -0.982842,0.0097 -1.435055,-0.110071 z"/></g><g id="g31567" style="display:inline;stroke:#ce7218;stroke-width:0.127127;stroke-linecap:square;stroke-linejoin:round;stroke-dasharray:none;stroke-opacity:1"><path style="opacity:1;fill:#fff500;fill-opacity:1;stroke:#ce7218;stroke-width:0.127127;stroke-linecap:square;stroke-linejoin:round;stroke-dasharray:none;stroke-opacity:1" d="m 68.119977,82.401303 c -5.179195,4.812553 -4.494625,9.244752 -1.870868,12.301006 0.164437,-2.497228 1.817366,-5.639059 2.21218,-7.745872 0.293789,-1.567722 -0.09365,-3.059858 -0.341312,-4.555134 z" id="path31563"/><path id="path31565" style="opacity:1;fill:#ef9b11;fill-opacity:1;stroke:#ce7218;stroke-width:0.127127;stroke-linecap:square;stroke-linejoin:round;stroke-dasharray:none;stroke-opacity:1" d="m 68.120218,82.401172 c -0.101486,1.208009 -0.218532,2.379638 -0.659908,3.402893 -1.348136,3.125423 -1.80996,6.039943 -1.211296,8.898165 0.164437,-2.497225 1.817455,-5.638969 2.212268,-7.74578 0.293789,-1.567721 -0.0934,-3.060003 -0.341064,-4.555278 z"/></g><g id="g31573" style="display:inline;stroke:#ce7218;stroke-width:0.127127;stroke-linecap:square;stroke-linejoin:round;stroke-dasharray:none;stroke-opacity:1"><path style="opacity:1;fill:#fff500;fill-opacity:1;stroke:#ce7218;stroke-width:0.127127;stroke-linecap:square;stroke-linejoin:round;stroke-dasharray:none;stroke-opacity:1" d="m 57.849117,89.088912 c 5.67752,-0.514666 9.17803,2.22222 10.907977,7.603593 -4.244517,0.724582 -7.416765,-0.783485 -8.915154,-4.994193 -0.415631,-1.167988 -0.746375,-2.237243 -1.992823,-2.6094 z" id="path31569"/><path id="path31571" style="opacity:1;fill:#ef9b11;fill-opacity:1;stroke:#ce7218;stroke-width:0.127127;stroke-linecap:square;stroke-linejoin:round;stroke-dasharray:none;stroke-opacity:1" d="m 59.139887,89.027641 c -0.417174,8.06e-4 -0.847321,0.02129 -1.290877,0.06149 1.823178,0.05013 3.638027,0.678918 4.602303,1.923914 1.093643,1.412023 1.642143,1.579933 2.910934,2.195731 1.391211,0.675215 2.421894,2.024552 3.394624,3.483509 -1.594793,-4.960949 -4.694321,-7.674159 -9.616984,-7.664649 z"/></g><g id="g31579" style="display:inline;stroke:#ce7218;stroke-width:0.127127;stroke-linecap:square;stroke-linejoin:round;stroke-dasharray:none;stroke-opacity:1"><path style="opacity:1;fill:#fff500;fill-opacity:1;stroke:#ce7218;stroke-width:0.127127;stroke-linecap:square;stroke-linejoin:round;stroke-dasharray:none;stroke-opacity:1" d="m 70.508636,88.133237 c -4.4646,4.958896 -4.314892,10.521516 -0.477838,11.903073 1.683536,-2.192014 2.42512,-4.891958 1.455132,-8.210067 -0.356929,-1.220973 -0.947113,-2.362364 -0.977294,-3.693006 z" id="path31575"/><path id="path31577" style="opacity:1;fill:#ef9b11;fill-opacity:1;stroke:#ce7218;stroke-width:0.127127;stroke-linecap:square;stroke-linejoin:round;stroke-dasharray:none;stroke-opacity:1" d="m 70.508702,88.133122 c -0.41947,0.8857 -0.702799,1.832181 -0.478007,2.785877 0.395121,1.676319 0.155831,3.123865 -0.325044,4.677233 -0.47354,1.529672 -0.01562,3.021057 0.325044,4.440038 1.683535,-2.19201 2.425196,-4.891728 1.455209,-8.209833 -0.356929,-1.220972 -0.947021,-2.362674 -0.977202,-3.693315 z"/></g><g id="g31585" style="display:inline;stroke:#ce7218;stroke-width:0.127127;stroke-linecap:square;stroke-linejoin:round;stroke-dasharray:none;stroke-opacity:1"><path style="opacity:1;fill:#fff500;fill-opacity:1;stroke:#ce7218;stroke-width:0.127127;stroke-linecap:square;stroke-linejoin:round;stroke-dasharray:none;stroke-opacity:1" d="m 62.029269,97.210823 c 5.148751,-1.331126 9.182599,-0.408775 11.146632,4.697147 -4.196232,1.05644 -7.886431,-0.64753 -11.146632,-4.697147 z" id="path31581"/><path id="path31583" style="opacity:1;fill:#ef9b11;fill-opacity:1;stroke:#ce7218;stroke-width:0.127127;stroke-linecap:square;stroke-linejoin:round;stroke-dasharray:none;stroke-opacity:1" d="m 65.878494,96.663351 c -1.192411,-5.88e-4 -2.481742,0.193673 -3.849377,0.547253 1.740665,1.496762 3.801586,2.49467 6.173266,2.601392 2.04629,0.09208 3.404734,0.224234 4.97334,2.095994 -1.442335,-3.749656 -4.000562,-5.243013 -7.297229,-5.244639 z"/></g><g id="g31591" style="display:inline;stroke:#ce7218;stroke-width:0.127127;stroke-linecap:square;stroke-linejoin:round;stroke-dasharray:none;stroke-opacity:1"><path style="opacity:1;fill:#fff500;fill-opacity:1;stroke:#ce7218;stroke-width:0.127127;stroke-linecap:square;stroke-linejoin:round;stroke-dasharray:none;stroke-opacity:1" d="m 72.738015,93.029613 c 0.242725,1.281533 -0.428755,2.172694 -1.012584,3.265551 -1.887289,3.532777 -0.905152,6.234856 1.490157,8.040626 2.209638,-3.04036 2.196308,-7.53 -0.477573,-11.306177 z" id="path31587"/><path id="path31589" style="opacity:1;fill:#ef9b11;fill-opacity:1;stroke:#ce7218;stroke-width:0.127127;stroke-linecap:square;stroke-linejoin:round;stroke-dasharray:none;stroke-opacity:1" d="m 72.738024,93.029464 c 0.450675,1.319041 0.571665,2.683694 0.170015,4.024044 -0.786711,2.625346 -0.58154,4.994032 0.307475,7.282242 2.209636,-3.04036 2.196388,-7.530113 -0.47749,-11.306286 z"/></g><g id="g31597" style="display:inline;stroke:#ce7218;stroke-width:0.127127;stroke-linecap:square;stroke-linejoin:round;stroke-dasharray:none;stroke-opacity:1"><path style="display:inline;opacity:1;fill:#fff500;fill-opacity:1;stroke:#ce7218;stroke-width:0.127127;stroke-linecap:square;stroke-linejoin:round;stroke-dasharray:none;stroke-opacity:1" d="m 65.93055,102.38528 c 2.762486,-0.57166 5.250607,-1.43802 8.664155,1.26037 1.779265,1.4065 2.95709,2.59272 2.482477,4.51231 -5.14753,0.42345 -8.756504,-1.67549 -11.146632,-5.77268" id="path31593"/><path id="path31595" style="display:inline;opacity:1;fill:#ef9b11;fill-opacity:1;stroke:#ce7218;stroke-width:0.127127;stroke-linecap:square;stroke-linejoin:round;stroke-dasharray:none;stroke-opacity:1" d="m 69.757844,101.78449 c -1.297918,-4e-5 -2.532243,0.33303 -3.827157,0.60099 4.282402,0.64307 7.976141,2.61612 11.146607,5.77226 0.474612,-1.91959 -0.703273,-3.10537 -2.482536,-4.51187 -1.813446,-1.43352 -3.36594,-1.86134 -4.836914,-1.86138 z"/></g><g id="g31603" style="display:inline;stroke:#ce7218;stroke-width:0.127127;stroke-linecap:square;stroke-linejoin:round;stroke-dasharray:none;stroke-opacity:1"><path style="opacity:1;fill:#fff500;fill-opacity:1;stroke:#ce7218;stroke-width:0.127127;stroke-linecap:square;stroke-linejoin:round;stroke-dasharray:none;stroke-opacity:1" d="m 77.077182,110.02909 c -3.226252,-0.46839 -4.394699,-6.13136 -1.831181,-11.226269 4.200879,4.251249 4.63936,7.968959 1.831181,11.226269 z" id="path31599"/><path id="path31601" style="opacity:1;fill:#ef9b11;fill-opacity:1;stroke:#ce7218;stroke-width:0.127127;stroke-linecap:square;stroke-linejoin:round;stroke-dasharray:none;stroke-opacity:1" d="m 75.245881,98.802755 c 0.855033,1.493115 0.966035,3.052655 0.768945,4.712895 -0.279453,2.35404 0.351138,4.47361 1.062468,6.51329 2.808176,-3.2573 2.369462,-6.97494 -1.831413,-11.226185 z"/></g><g id="g31609" style="display:inline;stroke:#ce7218;stroke-width:0.127127;stroke-linecap:square;stroke-linejoin:round;stroke-dasharray:none;stroke-opacity:1"><path style="opacity:1;fill:#fff500;fill-opacity:1;stroke:#ce7218;stroke-width:0.127127;stroke-linecap:square;stroke-linejoin:round;stroke-dasharray:none;stroke-opacity:1" d="m 79.425888,103.62009 c -2.586035,5.71234 -0.80398,9.21072 4.020873,10.9474 0.895593,-3.08526 0.803086,-5.93717 -1.353693,-7.85418 -1.104593,-0.98179 -2.181267,-1.79855 -2.66718,-3.09322 z" id="path31605"/><path id="path31607" style="opacity:1;fill:#ef9b11;fill-opacity:1;stroke:#ce7218;stroke-width:0.127127;stroke-linecap:square;stroke-linejoin:round;stroke-dasharray:none;stroke-opacity:1" d="m 79.425988,103.62003 c 0.06614,1.06392 0.518555,2.01519 1.11156,3.02617 1.461607,2.49182 2.362261,5.17948 2.909383,7.92148 0.895592,-3.08525 0.802854,-5.93729 -1.353923,-7.8543 -1.104592,-0.98179 -2.181108,-1.79868 -2.66702,-3.09335 z"/></g><g id="g31615" style="display:inline;stroke:#ce7218;stroke-width:0.127127;stroke-linecap:square;stroke-linejoin:round;stroke-dasharray:none;stroke-opacity:1"><path style="display:inline;opacity:1;fill:#fff500;fill-opacity:1;stroke:#ce7218;stroke-width:0.127127;stroke-linecap:square;stroke-linejoin:round;stroke-dasharray:none;stroke-opacity:1" d="m 69.274619,107.99868 c 2.40025,2.47318 4.796321,5.10128 7.263818,5.14557 1.893948,0.034 3.592111,-0.23379 5.156518,-0.64712 -0.806442,-3.38271 -3.125285,-5.11236 -6.51282,-4.49286 -1.991253,0.36415 -3.938344,0.47643 -5.907516,-0.006 z" id="path31611"/><path id="path31613" style="display:inline;opacity:1;fill:#ef9b11;fill-opacity:1;stroke:#ce7218;stroke-width:0.127127;stroke-linecap:square;stroke-linejoin:round;stroke-dasharray:none;stroke-opacity:1" d="m 76.546577,107.88024 c -0.43287,-0.004 -0.887886,0.0369 -1.364258,0.12402 -1.991251,0.36415 -3.93848,0.47623 -5.90765,-0.006 v 5.2e-4 c 1.791338,1.07605 3.584115,1.71922 5.405355,1.95802 2.562278,0.33597 5.061832,0.72697 7.015076,2.54041 -0.693036,-2.90701 -2.503206,-4.5932 -5.148523,-4.61677 z"/></g><g id="g31621" style="display:inline;stroke:#ce7218;stroke-width:0.127127;stroke-linecap:square;stroke-linejoin:round;stroke-dasharray:none;stroke-opacity:1"><path style="opacity:1;fill:#fff500;fill-opacity:1;stroke:#ce7218;stroke-width:0.127127;stroke-linecap:square;stroke-linejoin:round;stroke-dasharray:none;stroke-opacity:1" d="m 74.210951,112.45744 c 2.030971,0.559 4.023444,0.39854 6.090972,0.11959 5.011022,-0.67608 7.952947,0.93826 9.076267,3.94123 -3.964818,1.49111 -7.659181,1.41166 -10.87995,-0.73764 -1.528115,-1.01975 -2.904911,-2.20283 -4.287289,-3.32318 z" id="path31617"/><path id="path31619" style="opacity:1;fill:#ef9b11;fill-opacity:1;stroke:#ce7218;stroke-width:0.127127;stroke-linecap:square;stroke-linejoin:round;stroke-dasharray:none;stroke-opacity:1" d="m 82.500219,112.42466 c -0.682897,-0.003 -1.415344,0.0468 -2.198316,0.15245 -2.067526,0.27895 -4.060132,0.43911 -6.091101,-0.11989 3.010691,1.57401 6.582523,2.20792 10.174056,2.72386 1.702209,0.24454 3.428294,0.32168 4.993494,1.33739 -0.947801,-2.53375 -3.19049,-4.07891 -6.878133,-4.09381 z"/></g><g id="g31627" style="display:inline;stroke:#ce7218;stroke-width:0.127127;stroke-linecap:square;stroke-linejoin:round;stroke-dasharray:none;stroke-opacity:1"><path style="opacity:1;fill:#fff500;fill-opacity:1;stroke:#ce7218;stroke-width:0.127127;stroke-linecap:square;stroke-linejoin:round;stroke-dasharray:none;stroke-opacity:1" d="m 112.14903,129.53497 -12.937865,-4.81701 c -4.7089,-1.75321 -8.976192,-3.26815 -11.46519,-6.84715 -1.406219,-2.02204 -1.984487,-4.33485 -2.030147,-6.76751 2.671844,1.2351 5.374351,2.45217 6.065379,5.48396 0.856707,3.75868 4.199462,5.05892 7.593243,6.32683 4.55806,1.70289 9.1153,3.39716 13.88926,4.98866 0.41734,0.13913 -0.33557,1.9223 -1.11468,1.63222 z" id="path31623"/><path id="path31625" style="opacity:1;fill:#ef9b11;fill-opacity:1;stroke:#ce7218;stroke-width:0.127127;stroke-linecap:square;stroke-linejoin:round;stroke-dasharray:none;stroke-opacity:1" d="m 85.716043,111.1033 c 2.511552,5.03584 5.45455,9.1806 10.424186,10.46863 v 0 c -2.084145,-1.0419 -3.782751,-2.45705 -4.358874,-4.98471 -0.691027,-3.03179 -3.393422,-4.24881 -6.065263,-5.4839 z"/></g></g></g><g id="g35508" transform="matrix(0.83249756,0,0,0.83249756,-465.50341,93.230281)"><g id="g35236"><g id="g34689" transform="matrix(0.26243683,0,0,0.26243683,119.64562,33.310079)"><path id="path32790" style="font-variation-settings:normal;opacity:1;fill:#fff500;fill-opacity:1;fill-rule:evenodd;stroke-width:0.264583;stroke-linecap:butt;stroke-linejoin:miter;stroke-miterlimit:4;stroke-dasharray:none;stroke-dashoffset:0;stroke-opacity:1;stop-color:#000000;stop-opacity:1" d="m -605.50001,-15.976565 -32.95703,-86.162115 -92.12891,-4.71875 71.75977,-57.96875 -23.98242,-89.07812 77.30859,50.33398 77.3086,-50.33398 -23.98243,89.07812 71.75977,57.96875 -92.12891,4.71875 z" transform="matrix(0.26458333,0,0,-0.26458333,46.390278,-93.397917)"/><g id="g33204"><path style="opacity:1;fill:#ef9b11;fill-opacity:1;stroke:none;stroke-width:0.079375;stroke-linecap:round;stroke-linejoin:round;stroke-opacity:1" d="m -113.81493,-54.432964 -8.71988,-11.940759 8.71988,-22.797061 z" id="path32906"/><path style="opacity:1;fill:#fff500;fill-opacity:1;stroke:none;stroke-width:0.079375;stroke-linecap:round;stroke-linejoin:round;stroke-opacity:1" d="m -113.81493,-54.432965 8.71988,-11.940759 -8.71988,-22.797061 z" id="path33054"/></g><g id="g33734"><path style="opacity:1;fill:#ef9b11;fill-opacity:1;stroke:none;stroke-width:0.079375;stroke-linecap:round;stroke-linejoin:round;stroke-opacity:1" d="m -80.719274,-65.125221 -24.375776,-1.248502 -8.71988,11.940759 z" id="path33206"/><path style="opacity:1;fill:#fff500;fill-opacity:1;stroke:none;stroke-width:0.079375;stroke-linecap:round;stroke-linejoin:round;stroke-opacity:1" d="m -80.719271,-65.125221 -33.095659,10.692257 14.109217,4.645308 z" id="path33728"/></g><g id="g33740" transform="matrix(-1,0,0,1,-227.62986,-1.3353581e-6)"><path style="opacity:1;fill:#fff500;fill-opacity:1;stroke:none;stroke-width:0.079375;stroke-linecap:round;stroke-linejoin:round;stroke-opacity:1" d="m -80.719274,-65.125221 -24.375776,-1.248502 -8.71988,11.940759 z" id="path33736"/><path style="opacity:1;fill:#ef9b11;fill-opacity:1;stroke:none;stroke-width:0.079375;stroke-linecap:round;stroke-linejoin:round;stroke-opacity:1" d="m -80.719271,-65.125221 -33.095659,10.692257 14.109217,4.645308 z" id="path33738"/></g><g id="g34205"><path style="opacity:1;fill:#fff500;fill-opacity:1;stroke:none;stroke-width:0.079375;stroke-linecap:round;stroke-linejoin:round;stroke-opacity:1" d="m -113.81493,-54.432964 -20.45456,28.213892 6.34535,-23.568584 z" id="path34199"/><path style="opacity:1;fill:#ef9b11;fill-opacity:1;stroke:none;stroke-width:0.079375;stroke-linecap:round;stroke-linejoin:round;stroke-opacity:1" d="m -113.81493,-54.432964 v 14.89636 l -20.45456,13.317532 z" id="path34201"/></g><g id="g34671" transform="matrix(-1,0,0,1,-227.62985,1.95319e-7)"><path style="opacity:1;fill:#ef9b11;fill-opacity:1;stroke:none;stroke-width:0.079375;stroke-linecap:round;stroke-linejoin:round;stroke-opacity:1" d="m -113.81493,-54.432964 -20.45456,28.213892 6.34535,-23.568584 z" id="path34667"/><path style="opacity:1;fill:#fff500;fill-opacity:1;stroke:none;stroke-width:0.079375;stroke-linecap:round;stroke-linejoin:round;stroke-opacity:1" d="m -113.81493,-54.432964 v 14.89636 l -20.45456,13.317532 z" id="path34669"/></g></g><g id="g35187" transform="matrix(0.26243683,0,0,0.26243683,193.03653,33.310079)"><path id="path35155" style="font-variation-settings:normal;opacity:1;fill:#fff500;fill-opacity:1;fill-rule:evenodd;stroke-width:0.264583;stroke-linecap:butt;stroke-linejoin:miter;stroke-miterlimit:4;stroke-dasharray:none;stroke-dashoffset:0;stroke-opacity:1;stop-color:#000000;stop-opacity:1" d="m -605.50001,-15.976565 -32.95703,-86.162115 -92.12891,-4.71875 71.75977,-57.96875 -23.98242,-89.07812 77.30859,50.33398 77.3086,-50.33398 -23.98243,89.07812 71.75977,57.96875 -92.12891,4.71875 z" transform="matrix(0.26458333,0,0,-0.26458333,46.390278,-93.397917)"/><g id="g35161"><path style="opacity:1;fill:#ef9b11;fill-opacity:1;stroke:none;stroke-width:0.079375;stroke-linecap:round;stroke-linejoin:round;stroke-opacity:1" d="m -113.81493,-54.432964 -8.71988,-11.940759 8.71988,-22.797061 z" id="path35157"/><path style="opacity:1;fill:#fff500;fill-opacity:1;stroke:none;stroke-width:0.079375;stroke-linecap:round;stroke-linejoin:round;stroke-opacity:1" d="m -113.81493,-54.432965 8.71988,-11.940759 -8.71988,-22.797061 z" id="path35159"/></g><g id="g35167"><path style="opacity:1;fill:#ef9b11;fill-opacity:1;stroke:none;stroke-width:0.079375;stroke-linecap:round;stroke-linejoin:round;stroke-opacity:1" d="m -80.719274,-65.125221 -24.375776,-1.248502 -8.71988,11.940759 z" id="path35163"/><path style="opacity:1;fill:#fff500;fill-opacity:1;stroke:none;stroke-width:0.079375;stroke-linecap:round;stroke-linejoin:round;stroke-opacity:1" d="m -80.719271,-65.125221 -33.095659,10.692257 14.109217,4.645308 z" id="path35165"/></g><g id="g35173" transform="matrix(-1,0,0,1,-227.62986,-1.3353581e-6)"><path style="opacity:1;fill:#fff500;fill-opacity:1;stroke:none;stroke-width:0.079375;stroke-linecap:round;stroke-linejoin:round;stroke-opacity:1" d="m -80.719274,-65.125221 -24.375776,-1.248502 -8.71988,11.940759 z" id="path35169"/><path style="opacity:1;fill:#ef9b11;fill-opacity:1;stroke:none;stroke-width:0.079375;stroke-linecap:round;stroke-linejoin:round;stroke-opacity:1" d="m -80.719271,-65.125221 -33.095659,10.692257 14.109217,4.645308 z" id="path35171"/></g><g id="g35179"><path style="opacity:1;fill:#fff500;fill-opacity:1;stroke:none;stroke-width:0.079375;stroke-linecap:round;stroke-linejoin:round;stroke-opacity:1" d="m -113.81493,-54.432964 -20.45456,28.213892 6.34535,-23.568584 z" id="path35175"/><path style="opacity:1;fill:#ef9b11;fill-opacity:1;stroke:none;stroke-width:0.079375;stroke-linecap:round;stroke-linejoin:round;stroke-opacity:1" d="m -113.81493,-54.432964 v 14.89636 l -20.45456,13.317532 z" id="path35177"/></g><g id="g35185" transform="matrix(-1,0,0,1,-227.62985,1.95319e-7)"><path style="opacity:1;fill:#ef9b11;fill-opacity:1;stroke:none;stroke-width:0.079375;stroke-linecap:round;stroke-linejoin:round;stroke-opacity:1" d="m -113.81493,-54.432964 -20.45456,28.213892 6.34535,-23.568584 z" id="path35181"/><path style="opacity:1;fill:#fff500;fill-opacity:1;stroke:none;stroke-width:0.079375;stroke-linecap:round;stroke-linejoin:round;stroke-opacity:1" d="m -113.81493,-54.432964 v 14.89636 l -20.45456,13.317532 z" id="path35183"/></g></g></g><g id="g35436" transform="translate(0.02100556)"><g id="g35304" transform="matrix(0.24396898,0.0967069,-0.0967069,0.24396898,129.83456,33.282821)"><path id="path35272" style="font-variation-settings:normal;opacity:1;fill:#fff500;fill-opacity:1;fill-rule:evenodd;stroke-width:0.264583;stroke-linecap:butt;stroke-linejoin:miter;stroke-miterlimit:4;stroke-dasharray:none;stroke-dashoffset:0;stroke-opacity:1;stop-color:#000000;stop-opacity:1" d="m -605.50001,-15.976565 -32.95703,-86.162115 -92.12891,-4.71875 71.75977,-57.96875 -23.98242,-89.07812 77.30859,50.33398 77.3086,-50.33398 -23.98243,89.07812 71.75977,57.96875 -92.12891,4.71875 z" transform="matrix(0.26458333,0,0,-0.26458333,46.390278,-93.397917)"/><g id="g35278"><path style="opacity:1;fill:#ef9b11;fill-opacity:1;stroke:none;stroke-width:0.079375;stroke-linecap:round;stroke-linejoin:round;stroke-opacity:1" d="m -113.81493,-54.432964 -8.71988,-11.940759 8.71988,-22.797061 z" id="path35274"/><path style="opacity:1;fill:#fff500;fill-opacity:1;stroke:none;stroke-width:0.079375;stroke-linecap:round;stroke-linejoin:round;stroke-opacity:1" d="m -113.81493,-54.432965 8.71988,-11.940759 -8.71988,-22.797061 z" id="path35276"/></g><g id="g35284"><path style="opacity:1;fill:#ef9b11;fill-opacity:1;stroke:none;stroke-width:0.079375;stroke-linecap:round;stroke-linejoin:round;stroke-opacity:1" d="m -80.719274,-65.125221 -24.375776,-1.248502 -8.71988,11.940759 z" id="path35280"/><path style="opacity:1;fill:#fff500;fill-opacity:1;stroke:none;stroke-width:0.079375;stroke-linecap:round;stroke-linejoin:round;stroke-opacity:1" d="m -80.719271,-65.125221 -33.095659,10.692257 14.109217,4.645308 z" id="path35282"/></g><g id="g35290" transform="matrix(-1,0,0,1,-227.62986,-1.3353581e-6)"><path style="opacity:1;fill:#fff500;fill-opacity:1;stroke:none;stroke-width:0.079375;stroke-linecap:round;stroke-linejoin:round;stroke-opacity:1" d="m -80.719274,-65.125221 -24.375776,-1.248502 -8.71988,11.940759 z" id="path35286"/><path style="opacity:1;fill:#ef9b11;fill-opacity:1;stroke:none;stroke-width:0.079375;stroke-linecap:round;stroke-linejoin:round;stroke-opacity:1" d="m -80.719271,-65.125221 -33.095659,10.692257 14.109217,4.645308 z" id="path35288"/></g><g id="g35296"><path style="opacity:1;fill:#fff500;fill-opacity:1;stroke:none;stroke-width:0.079375;stroke-linecap:round;stroke-linejoin:round;stroke-opacity:1" d="m -113.81493,-54.432964 -20.45456,28.213892 6.34535,-23.568584 z" id="path35292"/><path style="opacity:1;fill:#ef9b11;fill-opacity:1;stroke:none;stroke-width:0.079375;stroke-linecap:round;stroke-linejoin:round;stroke-opacity:1" d="m -113.81493,-54.432964 v 14.89636 l -20.45456,13.317532 z" id="path35294"/></g><g id="g35302" transform="matrix(-1,0,0,1,-227.62985,1.95319e-7)"><path style="opacity:1;fill:#ef9b11;fill-opacity:1;stroke:none;stroke-width:0.079375;stroke-linecap:round;stroke-linejoin:round;stroke-opacity:1" d="m -113.81493,-54.432964 -20.45456,28.213892 6.34535,-23.568584 z" id="path35298"/><path style="opacity:1;fill:#fff500;fill-opacity:1;stroke:none;stroke-width:0.079375;stroke-linecap:round;stroke-linejoin:round;stroke-opacity:1" d="m -113.81493,-54.432964 v 14.89636 l -20.45456,13.317532 z" id="path35300"/></g></g><g id="g35387" transform="matrix(-0.24396898,0.0967069,0.0967069,0.24396898,123.06712,33.282821)"><path id="path35355" style="font-variation-settings:normal;opacity:1;fill:#fff500;fill-opacity:1;fill-rule:evenodd;stroke-width:0.264583;stroke-linecap:butt;stroke-linejoin:miter;stroke-miterlimit:4;stroke-dasharray:none;stroke-dashoffset:0;stroke-opacity:1;stop-color:#000000;stop-opacity:1" d="m -605.50001,-15.976565 -32.95703,-86.162115 -92.12891,-4.71875 71.75977,-57.96875 -23.98242,-89.07812 77.30859,50.33398 77.3086,-50.33398 -23.98243,89.07812 71.75977,57.96875 -92.12891,4.71875 z" transform="matrix(0.26458333,0,0,-0.26458333,46.390278,-93.397917)"/><g id="g35361"><path style="opacity:1;fill:#ef9b11;fill-opacity:1;stroke:none;stroke-width:0.079375;stroke-linecap:round;stroke-linejoin:round;stroke-opacity:1" d="m -113.81493,-54.432964 -8.71988,-11.940759 8.71988,-22.797061 z" id="path35357"/><path style="opacity:1;fill:#fff500;fill-opacity:1;stroke:none;stroke-width:0.079375;stroke-linecap:round;stroke-linejoin:round;stroke-opacity:1" d="m -113.81493,-54.432965 8.71988,-11.940759 -8.71988,-22.797061 z" id="path35359"/></g><g id="g35367"><path style="opacity:1;fill:#ef9b11;fill-opacity:1;stroke:none;stroke-width:0.079375;stroke-linecap:round;stroke-linejoin:round;stroke-opacity:1" d="m -80.719274,-65.125221 -24.375776,-1.248502 -8.71988,11.940759 z" id="path35363"/><path style="opacity:1;fill:#fff500;fill-opacity:1;stroke:none;stroke-width:0.079375;stroke-linecap:round;stroke-linejoin:round;stroke-opacity:1" d="m -80.719271,-65.125221 -33.095659,10.692257 14.109217,4.645308 z" id="path35365"/></g><g id="g35373" transform="matrix(-1,0,0,1,-227.62986,-1.3353581e-6)"><path style="opacity:1;fill:#fff500;fill-opacity:1;stroke:none;stroke-width:0.079375;stroke-linecap:round;stroke-linejoin:round;stroke-opacity:1" d="m -80.719274,-65.125221 -24.375776,-1.248502 -8.71988,11.940759 z" id="path35369"/><path style="opacity:1;fill:#ef9b11;fill-opacity:1;stroke:none;stroke-width:0.079375;stroke-linecap:round;stroke-linejoin:round;stroke-opacity:1" d="m -80.719271,-65.125221 -33.095659,10.692257 14.109217,4.645308 z" id="path35371"/></g><g id="g35379"><path style="opacity:1;fill:#fff500;fill-opacity:1;stroke:none;stroke-width:0.079375;stroke-linecap:round;stroke-linejoin:round;stroke-opacity:1" d="m -113.81493,-54.432964 -20.45456,28.213892 6.34535,-23.568584 z" id="path35375"/><path style="opacity:1;fill:#ef9b11;fill-opacity:1;stroke:none;stroke-width:0.079375;stroke-linecap:round;stroke-linejoin:round;stroke-opacity:1" d="m -113.81493,-54.432964 v 14.89636 l -20.45456,13.317532 z" id="path35377"/></g><g id="g35385" transform="matrix(-1,0,0,1,-227.62985,1.95319e-7)"><path style="opacity:1;fill:#ef9b11;fill-opacity:1;stroke:none;stroke-width:0.079375;stroke-linecap:round;stroke-linejoin:round;stroke-opacity:1" d="m -113.81493,-54.432964 -20.45456,28.213892 6.34535,-23.568584 z" id="path35381"/><path style="opacity:1;fill:#fff500;fill-opacity:1;stroke:none;stroke-width:0.079375;stroke-linecap:round;stroke-linejoin:round;stroke-opacity:1" d="m -113.81493,-54.432964 v 14.89636 l -20.45456,13.317532 z" id="path35383"/></g></g></g></g><g id="g15106" transform="matrix(0.83249757,0,0,0.83249757,-465.17246,93.230989)" style="display:inline"><g id="g15078"><path id="path15072" style="opacity:1;fill:#fff500;fill-opacity:1;stroke:#593906;stroke-width:0.127127;stroke-linecap:square;stroke-linejoin:miter;stroke-dasharray:none;stroke-opacity:1" d="m 125.44642,2.5838219 c -0.15243,0.3762593 -0.20865,0.7523541 -0.18965,1.1286133 h 0.81752 0.81752 c 0.019,-0.3762592 -0.0367,-0.752354 -0.18913,-1.1286133 h -0.62839 z"/><path id="path15074" style="display:inline;opacity:1;fill:#fff500;fill-opacity:1;stroke:#593906;stroke-width:0.127127;stroke-linecap:square;stroke-linejoin:miter;stroke-dasharray:none;stroke-opacity:1" d="m 126.0743,-5.768123 c -0.76802,0.6412342 -1.22047,3.9573838 -0.74569,5.106665 h 0.74569 0.74569 c 0.47478,-1.1492812 0.0223,-4.4654308 -0.74569,-5.106665 z"/><path id="path15076" style="opacity:1;fill:#ef9b11;fill-opacity:1;stroke:#593906;stroke-width:0.127127;stroke-linecap:square;stroke-linejoin:miter;stroke-dasharray:none;stroke-opacity:1" d="m 126.0743,-0.71106738 c -0.56775,0 -0.74569,0.0496094 -0.74569,0.0496094 0.30655,1.012951 0.24084,2.12176048 0.11782,3.24527988 0,0 0.0829,0.073897 0.62787,0.073897 0.54497,0 0.62787,-0.073897 0.62787,-0.073897 -0.12302,-1.1235194 -0.18873,-2.23232888 0.11782,-3.24527988 0,0 -0.17794,-0.0496094 -0.74569,-0.0496094 z"/></g><g id="g15092"><g id="g15084"><path style="fill:#fff500;fill-opacity:1;stroke:#593906;stroke-width:0.127127;stroke-linecap:round;stroke-linejoin:round;stroke-dasharray:none;stroke-opacity:1" d="m 125.44643,2.5838217 c 0.96564,-4.4726998 -1.90372,-7.2621879 -5.77007,-8.0788677 -4.19267,-0.8856081 -6.66739,0.8141073 -8.59546,3.341405 2.01542,0.063672 5.80562,0.1141606 8.27603,0.990656 2.2664,0.80411535 4.16309,2.3079216 6.0895,3.7468067 z" id="path15080"/><path id="path15082" style="opacity:1;fill:#593906;fill-opacity:1;fill-rule:nonzero;stroke:none;stroke-width:0.157692;stroke-linecap:square;stroke-linejoin:miter;stroke-dasharray:none;stroke-opacity:1" d="m 117.61901,-3.6276852 c 0.0504,0.06605 0.17942,0.2731237 0.28887,0.4635376 0.0202,0.035171 0.041,0.071684 0.063,0.1105875 0.12103,0.2139792 0.24159,0.4401514 0.37104,0.7033163 0.0136,0.027579 0.0266,0.054868 0.0398,0.082165 0.14979,0.3092169 0.29388,0.6814537 0.44442,0.9348267 0.0869,0.025254 0.17291,0.051596 0.25735,0.078548 -0.0164,-0.05663 -0.0347,-0.1135575 -0.0553,-0.1674317 -0.10491,-0.2746283 -0.3072,-0.6256821 -0.47387,-0.9343099 -0.0146,-0.026979 -0.0295,-0.053834 -0.0444,-0.081132 -0.13876,-0.2539297 -0.27789,-0.4920969 -0.42013,-0.6914306 -0.0265,-0.037137 -0.0525,-0.072215 -0.078,-0.1049032 -0.16044,-0.2057291 -0.30636,-0.3257029 -0.39274,-0.3937744 z m -2.15284,0.077515 c 0.0173,0.1148015 0.0465,0.29883 0.11937,0.5136638 0.0809,0.2386925 0.19805,0.4892997 0.33434,0.732255 0.005,0.00939 0.0103,0.018675 0.0155,0.027905 0.0842,0.148117 0.17148,0.2974092 0.26045,0.4330485 0.0952,0.01185 0.19043,0.024315 0.28525,0.037207 -0.10076,-0.1878694 -0.23851,-0.3808907 -0.36587,-0.578776 -0.003,-0.0054 -0.0136,-0.020959 -0.017,-0.026355 -0.1576,-0.2448364 -0.2807,-0.4401849 -0.40566,-0.6717936 -0.1107,-0.2051665 -0.17923,-0.3461823 -0.22634,-0.467155 z m 4.88445,0.2423625 c 0.0759,0.091293 0.16681,0.2327897 0.23823,0.4335653 0.01,0.027755 0.0188,0.055522 0.0274,0.083199 0.0329,0.1056705 0.0587,0.2206593 0.078,0.3570842 0.021,0.1478714 0.0309,0.2930224 0.0429,0.4609537 0.0114,0.1597698 0.0231,0.3197149 0.0475,0.4769735 5.4e-4,0.00362 9.5e-4,0.00721 0.002,0.010852 0.008,0.048987 0.0216,0.1044784 0.0413,0.1674316 0.0198,0.063053 0.0463,0.1331455 0.0791,0.2092896 0.0652,0.15160385 0.15407,0.32102378 0.26303,0.49712724 0.0963,0.15570973 0.20093,0.3021616 0.30386,0.43356527 0.15379,0.08775403 0.30603,0.17836552731 0.45734,0.2707845 -0.0254,-0.04070793 -0.0456,-0.07686417 -0.0734,-0.11885579 -0.14486,-0.21895306 -0.29407,-0.42940098 -0.46561,-0.7198527 -0.10114,-0.17124986 -0.18446,-0.32876132 -0.24701,-0.46767172 -0.0312,-0.069301 -0.0557,-0.1304173 -0.0744,-0.1839681 -0.0187,-0.053607 -0.0311,-0.097374 -0.0382,-0.1322917 -5.2e-4,-0.00257 -0.001,-0.00526 -0.002,-0.00775 -0.0271,-0.1495557 -0.0442,-0.2944905 -0.0667,-0.4588867 -0.0226,-0.1655759 -0.0471,-0.3219044 -0.0858,-0.4743897 -0.0362,-0.1427414 -0.0805,-0.2652002 -0.13436,-0.3725871 -0.0141,-0.02819 -0.0296,-0.055873 -0.046,-0.083199 -0.11721,-0.1948936 -0.25892,-0.31186 -0.34727,-0.3813721 z"/></g><g id="g15090" transform="matrix(-1,0,0,1,252.1486,0)"><path style="fill:#ef9b11;fill-opacity:1;stroke:#593906;stroke-width:0.127127;stroke-linecap:round;stroke-linejoin:round;stroke-dasharray:none;stroke-opacity:1" d="m 125.44643,2.5838217 c 0.96564,-4.4726998 -1.90372,-7.2621879 -5.77007,-8.0788677 -4.19267,-0.8856081 -6.66739,0.8141073 -8.59546,3.341405 2.01542,0.063672 5.80562,0.1141606 8.27603,0.990656 2.2664,0.80411535 4.16309,2.3079216 6.0895,3.7468067 z" id="path15086"/><path id="path15088" style="opacity:1;fill:#593906;fill-opacity:1;fill-rule:nonzero;stroke:none;stroke-width:0.157692;stroke-linecap:square;stroke-linejoin:miter;stroke-dasharray:none;stroke-opacity:1" d="m 117.61901,-3.6276852 c 0.0504,0.06605 0.17942,0.2731237 0.28887,0.4635376 0.0202,0.035171 0.041,0.071684 0.063,0.1105875 0.12103,0.2139792 0.24159,0.4401514 0.37104,0.7033163 0.0136,0.027579 0.0266,0.054868 0.0398,0.082165 0.14979,0.3092169 0.29388,0.6814537 0.44442,0.9348267 0.0869,0.025254 0.17291,0.051596 0.25735,0.078548 -0.0164,-0.05663 -0.0347,-0.1135575 -0.0553,-0.1674317 -0.10491,-0.2746283 -0.3072,-0.6256821 -0.47387,-0.9343099 -0.0146,-0.026979 -0.0295,-0.053834 -0.0444,-0.081132 -0.13876,-0.2539297 -0.27789,-0.4920969 -0.42013,-0.6914306 -0.0265,-0.037137 -0.0525,-0.072215 -0.078,-0.1049032 -0.16044,-0.2057291 -0.30636,-0.3257029 -0.39274,-0.3937744 z m -2.15284,0.077515 c 0.0173,0.1148015 0.0465,0.29883 0.11937,0.5136638 0.0809,0.2386925 0.19805,0.4892997 0.33434,0.732255 0.005,0.00939 0.0103,0.018675 0.0155,0.027905 0.0842,0.148117 0.17148,0.2974092 0.26045,0.4330485 0.0952,0.01185 0.19043,0.024315 0.28525,0.037207 -0.10076,-0.1878694 -0.23851,-0.3808907 -0.36587,-0.578776 -0.003,-0.0054 -0.0136,-0.020959 -0.017,-0.026355 -0.1576,-0.2448364 -0.2807,-0.4401849 -0.40566,-0.6717936 -0.1107,-0.2051665 -0.17923,-0.3461823 -0.22634,-0.467155 z m 4.88445,0.2423625 c 0.0759,0.091293 0.16681,0.2327897 0.23823,0.4335653 0.01,0.027755 0.0188,0.055522 0.0274,0.083199 0.0329,0.1056705 0.0587,0.2206593 0.078,0.3570842 0.021,0.1478714 0.0309,0.2930224 0.0429,0.4609537 0.0114,0.1597698 0.0231,0.3197149 0.0475,0.4769735 5.4e-4,0.00362 9.5e-4,0.00721 0.002,0.010852 0.008,0.048987 0.0216,0.1044784 0.0413,0.1674316 0.0198,0.063053 0.0463,0.1331455 0.0791,0.2092896 0.0652,0.15160385 0.15407,0.32102378 0.26303,0.49712724 0.0963,0.15570973 0.20093,0.3021616 0.30386,0.43356527 0.15379,0.08775403 0.30603,0.17836552731 0.45734,0.2707845 -0.0254,-0.04070793 -0.0456,-0.07686417 -0.0734,-0.11885579 -0.14486,-0.21895306 -0.29407,-0.42940098 -0.46561,-0.7198527 -0.10114,-0.17124986 -0.18446,-0.32876132 -0.24701,-0.46767172 -0.0312,-0.069301 -0.0557,-0.1304173 -0.0744,-0.1839681 -0.0187,-0.053607 -0.0311,-0.097374 -0.0382,-0.1322917 -5.2e-4,-0.00257 -0.001,-0.00526 -0.002,-0.00775 -0.0271,-0.1495557 -0.0442,-0.2944905 -0.0667,-0.4588867 -0.0226,-0.1655759 -0.0471,-0.3219044 -0.0858,-0.4743897 -0.0362,-0.1427414 -0.0805,-0.2652002 -0.13436,-0.3725871 -0.0141,-0.02819 -0.0296,-0.055873 -0.046,-0.083199 -0.11721,-0.1948936 -0.25892,-0.31186 -0.34727,-0.3813721 z"/></g></g><g id="g15104"><g id="g15098" transform="translate(-6.5e-5)" style="stroke:#593906;stroke-opacity:1"><path style="opacity:1;fill:#fff500;fill-opacity:1;stroke:#593906;stroke-width:0.127127;stroke-linecap:round;stroke-linejoin:round;stroke-dasharray:none;stroke-opacity:1" d="m 126.07437,19.866828 c -0.57744,-0.485684 -0.95461,-1.531201 -1.3631,-2.157715 l -0.21424,0.557308 c -0.6922,-1.303068 -1.11351,-2.722471 -1.45759,-4.138946 l -0.42879,0.119555 c -0.46671,-1.461275 -0.34383,-3.107902 -0.34274,-4.6962536 l -0.49936,0.4377528 c -0.40127,-3.909691 1.10392,-6.5221578 4.30582,-6.5221578 z" id="path15094"/><path style="opacity:1;fill:#ef9b11;fill-opacity:1;stroke:#593906;stroke-width:0.127127;stroke-linecap:round;stroke-linejoin:round;stroke-dasharray:none;stroke-opacity:1" d="m 126.07437,19.866828 c 0.57744,-0.485684 0.95461,-1.531201 1.3631,-2.157715 l 0.21424,0.557308 c 0.6922,-1.303068 1.11351,-2.722471 1.45759,-4.138946 l 0.42879,0.119555 c 0.46671,-1.461275 0.34383,-3.107902 0.34274,-4.6962536 l 0.49936,0.4377528 c 0.40127,-3.909691 -1.10392,-6.5221578 -4.30582,-6.5221578 z" id="path15096"/></g><g id="g15102"><path id="path15100" style="fill:#593906;fill-opacity:1;fill-rule:nonzero;stroke:none;stroke-width:0.160637;stroke-linecap:square;stroke-linejoin:miter;stroke-dasharray:none;stroke-opacity:1" d="m 126.06778,6.4608514 c -0.1438,0.0056 -0.88202,0.4183439 -1.16249,0.6717936 -0.34819,0.3146416 -0.64113,0.7986993 -0.91862,1.2283488 0.36404,-0.3816322 0.71305,-0.6800151 1.11559,-1.0288778 0.20925,-0.1813558 0.6647,-0.4369184 0.89711,-0.5880778 0.0418,-0.027239 0.10847,-0.027228 0.15116,5.168e-4 0.23286,0.1512806 0.6872,0.406586 0.89601,0.587561 0.40254,0.3488627 0.75154,0.6472456 1.11558,1.0288778 -0.27749,-0.4296495 -0.57042,-0.9137072 -0.91862,-1.2283488 -0.28492,-0.2574728 -1.04245,-0.6793793 -1.1691,-0.6717936 -0.002,-1.186e-4 -0.004,-8.9e-5 -0.006,0 z m 0,2.9543416 c -0.13492,0.00656 -0.82023,0.4186443 -1.08083,0.671794 -0.32389,0.314641 -0.59648,0.798699 -0.85462,1.228348 0.33864,-0.381632 0.66334,-0.680015 1.03779,-1.028877 0.20456,-0.190594 0.66244,-0.4636723 0.86621,-0.6108158 0.0213,-0.015414 0.0562,-0.014815 0.0789,0.00155 0.20498,0.1475573 0.65971,0.4194388 0.86345,0.6092658 0.37444,0.348862 0.69915,0.647245 1.03779,1.028877 -0.25813,-0.429649 -0.53073,-0.913707 -0.85462,-1.228348 -0.26505,-0.2574737 -0.96964,-0.67938 -1.08745,-0.6717943 -0.002,-1.087e-4 -0.004,-7.19e-5 -0.006,0 z m 0.001,2.953825 c -0.11033,0.0068 -0.66917,0.418736 -0.88166,0.671793 -0.2642,0.314642 -0.48626,0.7987 -0.69682,1.228349 0.27622,-0.381632 0.5409,-0.680015 0.84634,-1.028877 0.16765,-0.191486 0.54393,-0.46624 0.70897,-0.612883 0.0161,-0.01435 0.0423,-0.01378 0.0596,0.0015 0.16607,0.147078 0.53978,0.42062 0.70675,0.611333 0.30544,0.348862 0.57013,0.647245 0.84635,1.028877 -0.21056,-0.429649 -0.43262,-0.913707 -0.69683,-1.228349 -0.21619,-0.257472 -0.79107,-0.679379 -0.88717,-0.671793 -0.002,-1.07e-4 -0.003,-6.9e-5 -0.005,0 z"/></g></g></g></g></g><metadata id="metadata17773"><rdf:RDF><cc:Work rdf:about=""><dc:title>National Emblem of Bangladesh - বাংলাদেশের জাতীয় প্রতীক</dc:title></cc:Work></rdf:RDF></metadata></svg>