<?xml version="1.0" encoding="UTF-8"?>
<svg xmlns="http://www.w3.org/2000/svg" xmlns:xlink="http://www.w3.org/1999/xlink" width="800.00006" height="1000" version="1.1" viewBox="0 0 211.66668 264.58333">
  <g style="mix-blend-mode:normal" transform="translate(-245.38773 -64.418794)">
    <g stroke-width=".259019" style="mix-blend-mode:normal" transform="translate(236.917 -70.285518) scale(2.03787)">
      <path fill="#c8102e" fill-rule="evenodd" d="M108.02341 66.100625v78.145045c0 20.13432-16.503975 51.68838-51.933367 51.68838-35.429393 0-51.9333781-31.55406-51.9333781-51.68838V66.100625z" stop-color="#c8102e" style="font-variation-settings:normal;mix-blend-mode:normal"/>
      <g stroke="#c8102e" stroke-width=".259019" style="mix-blend-mode:normal">
        <use xlink:href="#a" width="100%" height="100%" transform="translate(25.60625)"/>
        <g id="a" transform="translate(-.08181655)">
          <path fill="#fff" fill-rule="evenodd" stroke="#c8102e" stroke-width=".259019" d="M12.721867 71.48129c1.187268.815586 2.936737 1.235022 2.936737 1.235022s1.749469-.419436 2.936737-1.235022c-.408783 1.381189-.267074 3.174645-.267074 3.174645s.939522 1.534231 2.082077 2.41136c-1.43991.03803-3.101798.727016-3.101798.727016s-1.168812 1.367643-1.649942 2.725325c-.48113-1.357682-1.649942-2.725325-1.649942-2.725325s-1.661888-.688981-3.101798-.727016c1.142555-.877129 2.082077-2.41136 2.082077-2.41136s.14171-1.793456-.267074-3.174645z" stop-color="#c8102e" style="font-variation-settings:normal"/>
          <path fill="#fff" fill-rule="evenodd" stroke="#c8102e" stroke-width=".978971" d="M59.128906 270.58984a5.615987 5.615987 0 0 0-5.5625 5.61719 5.615987 5.615987 0 0 0 .38086 2.03125 5.616032 5.616032 0 0 0-1.814454-.99023 5.616032 5.616032 0 0 0-7.076171 3.60547 5.616032 5.616032 0 0 0 3.605468 7.07617 5.616032 5.616032 0 0 0 2.048829.26562 5.6159349 5.6159349 0 0 0-1.501954 1.41797 5.6159349 5.6159349 0 0 0 1.242188 7.8457 5.6159349 5.6159349 0 0 0 7.845703-1.24218 5.6159349 5.6159349 0 0 0 .884766-1.86914 5.6159349 5.6159349 0 0 0 .886718 1.86914 5.6159349 5.6159349 0 0 0 7.84375 1.24218 5.6159349 5.6159349 0 0 0 1.242188-7.8457 5.6159349 5.6159349 0 0 0-1.501953-1.41992 5.616032 5.616032 0 0 0 2.048828-.26367 5.616032 5.616032 0 0 0 3.607422-7.07617 5.616032 5.616032 0 0 0-7.078125-3.60547 5.616032 5.616032 0 0 0-1.8125.98828 5.615987 5.615987 0 0 0 .380859-2.0293 5.615987 5.615987 0 0 0-5.617187-5.61719 5.615987 5.615987 0 0 0-.05273 0zm.02344 9.51563a5.3366543 5.3366543 0 0 1 .0293 0 5.3366543 5.3366543 0 0 1 5.33789 5.33789 5.3366543 5.3366543 0 0 1-5.33789 5.33594 5.3366543 5.3366543 0 0 1-5.335938-5.33594 5.3366543 5.3366543 0 0 1 5.306641-5.33789z" stop-color="#c8102e" style="font-variation-settings:normal" transform="scale(.26458)"/>
        </g>
        <use xlink:href="#a" width="100%" height="100%" transform="translate(81.026498)"/>
        <use xlink:href="#a" width="100%" height="100%" transform="translate(70.670944 24.883889)"/>
        <use xlink:href="#a" width="100%" height="100%" transform="translate(0 32.455487)"/>
        <use xlink:href="#a" width="100%" height="100%" transform="translate(0 65.575224)"/>
        <use xlink:href="#a" width="100%" height="100%" transform="translate(25.60625 65.575224)"/>
        <use xlink:href="#a" width="100%" height="100%" transform="translate(81.026498 65.575224)"/>
        <use xlink:href="#a" width="100%" height="100%" transform="translate(40.513249 91.260981)"/>
      </g>
      <g stroke="#c8102e" stroke-width=".259019">
        <g stroke="#c8102e">
          <path fill="#ffc72c" fill-rule="evenodd" stroke-linecap="round" stroke-width=".259019" d="m17.386629 84.040265 1.044472-1.044473c.626519-.626518 1.635283-.626518 2.261802.000001l1.044472 1.044472c.626519.626519.626519 1.635283 0 2.261802l-1.044472 1.044472c-.626519.626519-1.635283.626519-2.261802.000001l-1.044472-1.044473c-.62652-.626519-.62652-1.635283 0-2.261802z" color="#000" style="mix-blend-mode:normal"/>
          <g>
            <path fill="#fff" fill-rule="evenodd" stroke-width=".978971" d="m163.45216 420.43262-45.97549-22.66092-9.05732-46.43674-1.94137-2.76855c11.03829-5.83219 14.21343-16.53054 14.21343-16.53054l-.28907-21.57493c-6.38179-4.25453-12.32226-9.58985-12.32226-9.58985-.4814.98175-.77958 1.92703-.95117 2.83399l-.0449.17383c.0106-.0634.0135-.1237.0254-.1875 0 0-3.90626 2.40346-3.90626 4.20898v1.47852c0-1.80553-3.904292-4.20899-3.904292-4.20899s-3.904297 2.40346-3.904297 4.20899v1.47851c0-1.80552-3.904297-4.20898-3.904297-4.20898s-3.904297 2.40346-3.904296 4.20898v1.47852c0-1.80552-3.904297-4.20899-3.904297-4.20899s-3.90625 2.40347-3.90625 4.20899v25.03515s1.096953-.53808 2.46875-1.54492c.245094 2.50106 1.498901 8.81376 8.03125 12.93945l-2.503614 2.77005 1.307634 56.692L141.2161 448.6211l28.31736-12.69885z" stop-color="#c8102e" style="font-variation-settings:normal;mix-blend-mode:normal" transform="scale(.26458)"/>
            <path fill="none" stroke-linecap="square" stroke-width=".978971" d="m103.20315 309.37891-.00003 23.99218c4.0529-3.64199 6.856-4.51438 6.856-4.51438s-1.10936-6.79479.63229-15.06765c0 0-4.69439-4.16012-3.58203-10.09765m-11.714819 7.16601.000104 26.51294s7.809255-3.83721 7.809255-10.15966m-15.617952-14.87476-.000563 25.03442s7.80926-3.83721 7.80926-10.15966m-13.150494 8.61547c2.266153-1.70061 5.341234-4.7603 5.341234-8.61547" stop-color="#c8102e" style="font-variation-settings:normal;mix-blend-mode:normal" transform="scale(.26458)"/>
            <path fill="#fff" fill-rule="evenodd" stroke-width=".259019" d="M33.330193 88.746077s3.876156-.896315 5.936576-.923646l48.214692-.639566c.831693-.01103 3.136046-1.118419 4.965892-2.141208-1.829846-1.02279-4.134199-1.871158-4.965892-1.88219l-48.214692-.639566c-2.06042-.02733-5.936576-.923646-5.936576-.923646z" stop-color="#c8102e" style="font-variation-settings:normal"/>
          </g>
        </g>
        <g fill="#ffc72c" fill-rule="evenodd" stroke="#c8102e" stroke-width=".259019">
          <path d="M31.258504 76.537283s.537577-.226123 1.890931-.226123 1.890931.226123 1.890931.226123c-1.151993 5.426953-.0044 8.504374-.0044 8.504374s-1.147593 2.818401.0044 8.245355c0 0-.537577.226122-1.890931.226122s-1.890931-.226122-1.890931-.226122c1.151993-5.426954.0044-8.245355.0044-8.245355s1.147593-3.077421-.0044-8.504374z" stop-color="#c8102e" style="font-variation-settings:normal;mix-blend-mode:normal"/>
          <path stroke-linecap="round" d="M23.274462 91.998497h5.830124c.469926 0 .848242.378316.848242.848242v.692484c0 .469927-.378316.848243-.848242.848243h-5.830124c-.469926 0-.848242-.378316-.848242-.848243v-.692484c0-.469926.378316-.848242.848242-.848242z" color="#000" style="mix-blend-mode:normal"/>
          <path d="M30.69525 107.65098c3.801706.42241 4.377721-2.07365 4.377721-2.07365-1.974722-.32536-3.228395-2.01255-3.417696-3.99372-2.18886.65282-2.726475 3.5713-2.726475 3.5713h-6.336174l.652818 5.10734 4.72333 2.22726c.787143-1.63845 1.671615-3.39209 2.726476-4.83853z" stop-color="#c8102e" style="font-variation-settings:normal;mix-blend-mode:normal"/>
        </g>
        <path fill="#c8102e" fill-rule="evenodd" stroke="none" d="m27.388672 88.306641-.166016-.205079c-1.340237 1.251031-1.506836 2.333008-1.506836 2.333008s.701998-1.234513 1.672852-2.127929z" color="#000" color-rendering="auto" dominant-baseline="auto" image-rendering="auto" shape-rendering="auto" solid-color="#000000" stop-color="#c8102e" style="font-feature-settings:normal;font-variant-alternates:normal;font-variant-caps:normal;font-variant-east-asian:normal;font-variant-ligatures:normal;font-variant-numeric:normal;font-variant-position:normal;font-variation-settings:normal;inline-size:0;isolation:auto;mix-blend-mode:normal;shape-margin:0;shape-padding:0;text-decoration-color:#000000;text-decoration-line:none;text-decoration-style:solid;text-indent:0;text-orientation:mixed;text-transform:none;white-space:normal"/>
        <g fill-rule="evenodd">
          <g stroke="#c8102e" stroke-width=".259019">
            <path fill="#ffc72c" d="M31.534441 174.7428s-7.494408-4.72474-9.395164-5.64796c-1.900755-.92322-2.715365-1.03184-3.964433-.27153-1.249068.7603-.325844 1.79214-.325844 1.79214-.923224.10861-1.900755-.38016-2.280906-1.4663-.380151-1.08615 1.086146-2.11799 1.086146-2.11799-.81461-.97753-.380152-2.49814 1.900755-3.04121s3.529975-1.5206 3.529975-1.5206.380151 1.5206-.760302 2.33521c0 0 2.335214.48877 5.213501 2.11799s7.711637 3.6929 7.711637 3.6929z" stop-color="#c8102e" style="font-variation-settings:normal"/>
            <path fill="#fff" d="M34.756674 170.59734s11.208374 6.29965 22.273712 6.29965 17.479232-2.49814 20.194598-3.6929c0 0 3.25844 3.25844 7.711639 3.47567-.738744.89235-9.747371 7.55115-24.632359 7.53939-16.484239-.013-28.37157-9.05999-28.37157-9.05999z" stop-color="#c8102e" style="font-variation-settings:normal"/>
            <path fill="#ffc72c" d="M33.21357 174.94892c-.615452 1.13876-1.941014 3.77598-1.941014 3.77598s1.328834.44761 1.161842 1.66246c-.166991 1.21485-1.296578 1.63841-2.336594 1.16409-1.040017-.47432-1.476185-1.48034-.857852-2.79075.618333-1.31042 1.746896-3.36934 2.298025-4.62157.551128-1.25223-.06995-2.21988-.06995-2.21988s1.443388-.905 1.949066-1.71786c.502202-.80728 2.017816-4.04477 2.017816-4.04477-.515152-.0192-1.40572-.48602-1.238644-1.70086s1.37338-1.48482 2.413396-1.0105c1.040017.47432 1.284178 1.59552.78105 2.75235-.50313 1.15681-1.746896 3.67655-2.298025 4.92879s-.04525 2.60388-.04525 2.60388-1.218411.0799-1.833863 1.21864z" stop-color="#c8102e" style="font-variation-settings:normal"/>
          </g>
          <path fill="#c8102e" stroke="none" d="M136.35156 626.48047s-1.73299 1.39241-3.81445.71875l1.32617 1.07812c1.62664-.28724 2.48828-1.79687 2.48828-1.79687zm-18.05468 49.03125c-1.64203.17953-2.59961 1.6289-2.59961 1.6289s1.819-1.27415 3.85156-.46484z" color="#000" color-rendering="auto" dominant-baseline="auto" image-rendering="auto" shape-rendering="auto" solid-color="#000000" stop-color="#c8102e" style="font-feature-settings:normal;font-variant-alternates:normal;font-variant-caps:normal;font-variant-east-asian:normal;font-variant-ligatures:normal;font-variant-numeric:normal;font-variant-position:normal;font-variation-settings:normal;inline-size:0;isolation:auto;mix-blend-mode:normal;shape-margin:0;shape-padding:0;text-decoration-color:#000000;text-decoration-line:none;text-decoration-style:solid;text-indent:0;text-orientation:mixed;text-transform:none;white-space:normal" transform="scale(.26458)"/>
        </g>
        <g style="mix-blend-mode:normal">
          <path fill="#ffc72c" fill-rule="evenodd" stroke="#c8102e" stroke-width=".259019" d="M90.170064 150.93677c-.484149 4.56281-3.156082 10.32354-5.426897 11.27707s-3.816817.0369-4.76692-.39554c-.9501-.43242-1.400473-.0001-1.620119.93876-1.75354-.0936-4.612275 2.52196-3.48781 4.89385.496255-.69418 1.295957-1.91777 3.000254-1.87717 0 0 .07226.88029.428476 1.26997.356214.39008 1.749172-.11977 4.068282-.23351 0 0-2.67194 1.5163-3.683733 1.50867-.998259-.008-1.496155.50823-1.315451 1.46934-1.964555.94973-2.944406 4.67628-.362586 6.4942-.05297-1.71913.282254-2.98804 1.79454-3.77499 0 0 .213121.8422 1.398399.94779 1.185279.10559 1.775466-1.56164 4.133497-2.43674-.440589 1.03047-1.395214 1.96101-1.323435 2.53783.04549.36553.482957.49808.846461.70384-.274355 1.973 1.207784 5.70534 4.847235 5.34977-.888054-.85658-2.14053-2.28804-1.677398-3.92872.537718-.23301.799741-.20528 1.254492-.42045.524664-.24824.267267-1.68949.734014-4.32288s1.41032-3.66557 1.901667-3.97843.531246.37471.936566.73308c.405318.35838 1.410767.0538 1.410767.0538.689235.74154.834851 1.59218.557004 2.69633 1.153377-.0821 2.162314-2.23018 1.519927-3.89642 0 0 .586109-.88954.157152-1.68093-.428958-.79138-2.101792-1.66509-.16378-5.16457.738376.33499 1.376831.0766 1.376831.0766l.49357-1.55134s-1.345026-.5781-1.270605-2.15368c.26672.35071.766782 1.21635 2.121471.91518l.664668-1.51497s-1.638968-.3998-1.496448-2.39304c0 0 .600615 1.59508 2.143412 1.41539l.820713-1.58668s-1.644022-.24628-1.676964-2.74479c0 0 1.063708 1.5335 2.458044 1.19523l.66214-1.43822s-2.893316-1.97801-.93472-5.44829l-1.790845-2.78696s-2.350047.19152-2.549155-1.92824c-.199109-2.11977.453736-4.44199 2.077467-7.07802 1.623733-2.63604 2.584443-6.1392 2.584443-6.1392l-2.956606-3.55539-7.209542 1.91408s-2.229692 3.64731-3.411039 9.07044c-1.111598 5.10294-2.214544 5.80897-3.195995 6.0422s-2.126531-.76166-2.126531-.76166l-.664667 1.51497s.773547 2.17712 3.03248 1.25258c-1.111174 1.99771.574745 2.47566.722141 4.90338 0 0 1.042589-.15776 1.463507-.10547 0 0 .599731-.71025.563438-1.94095 1.110195.29502 3.422337 1.50011 2.938188 6.06292z" color="#000" color-rendering="auto" dominant-baseline="auto" image-rendering="auto" shape-rendering="auto" solid-color="#000000" stop-color="#c8102e" style="font-feature-settings:normal;font-variant-alternates:normal;font-variant-caps:normal;font-variant-east-asian:normal;font-variant-ligatures:normal;font-variant-numeric:normal;font-variant-position:normal;font-variation-settings:normal;inline-size:0;isolation:auto;mix-blend-mode:normal;shape-margin:0;shape-padding:0;text-decoration-color:#000000;text-decoration-line:none;text-decoration-style:solid;text-indent:0;text-orientation:mixed;text-transform:none;white-space:normal" transform="rotate(43.113 70.985275 97.713642)"/>
          <path fill="#c8102e" fill-rule="evenodd" stroke="none" d="m50.509766 143.16406.208984.16211c.955849-1.24334 1.103137-2.34729 2.266602-2.72461-1.587368.22969-1.530909 1.48393-2.475586 2.5625zm4.605468 11.58203.230469.13086s.898534-1.55536.0029-2.68066c.563637 1.10196-.233398 2.5498-.233398 2.5498zm-2.929687 1.24414.224609.14063s.945719-1.48344.25-2.74415c.379511 1.19699-.474609 2.60352-.474609 2.60352zm-2.990235 1.3086.230469.13086c.39247-.81278.720434-1.95556.201172-2.66016.200954.96017-.02302 1.71766-.431641 2.5293zm-17.085937-1.49219-.08008.25195s1.028348.32595 2.095703.27246c-1.006301-.2071-2.015625-.52441-2.015625-.52441zm14.15625 3.82813.255859-.0625c-.20333-1.47282 1.128874-1.69947.339844-3.26661.328701 1.77523-.689125 1.54747-.595703 3.32911zm-15.669922.58398.06445.25586s1.886571-.48268 3.043945-1.07227c-1.223491.33204-3.108398.81641-3.108398.81641z" color="#000" color-rendering="auto" dominant-baseline="auto" image-rendering="auto" shape-rendering="auto" solid-color="#000000" stop-color="#c8102e" style="font-feature-settings:normal;font-variant-alternates:normal;font-variant-caps:normal;font-variant-east-asian:normal;font-variant-ligatures:normal;font-variant-numeric:normal;font-variant-position:normal;font-variation-settings:normal;inline-size:0;isolation:auto;mix-blend-mode:normal;shape-margin:0;shape-padding:0;text-decoration-color:#000000;text-decoration-line:none;text-decoration-style:solid;text-indent:0;text-orientation:mixed;text-transform:none;white-space:normal"/>
          <path fill="none" stroke="#c8102e" stroke-width=".259019" d="M68.897865 132.54603s-.977532.38015-1.574914 1.30337c0 0 3.434538.83052 4.932648 3.9842" stop-color="#c8102e" style="font-variation-settings:normal;mix-blend-mode:normal"/>
        </g>
        <path fill="#ffc72c" fill-rule="evenodd" stroke="#c8102e" stroke-width=".97896453" d="M326.41992 331.96094c-3.8179-.001-7.92614.38945-12.31836 1.27148-17.56888 3.52814-29.12334 19.94-30.27539 34.95313-1.19092 15.51953 8.25686 29.4754 17.75 35.33007 9.49315 5.85468 10.5441 7.24721 13.58203 9.01172-4.2955 2.48477-14.93771 6.94779-19.45312 15.56836-4.51554 8.62082-1.84731 14.5726 0 18.67774 1.8473 4.10509 1.00227 9.6326-1.02539 13.34179h22.57812s7.18377-7.38813 4.72071-19.29296c-2.46308-11.90487 5.0947-17.13255 7.62695-19.44532 6.56548 4.62078 10.7682 7.9539 14.51562 13.03321 6.83966 9.27053 8.42027 20.15776 3.4043 31.92578-4.85951 11.40087-14.89479 16.40482-23.29101 17.64258-8.71807 1.28519-15.23843.12369-24.85938-3.4629-9.62095-3.58646-25.83787-16.22636-39.38477-27.7207-13.54689-11.49434-23.39843-31.60937-23.39843-31.60937l-61.57618-.82227-11.20312 5.18164s-3.47147 9.88015-17.11133 17.19531c-13.63986 7.3152-29.64252 16.56593-43.47851 18.71289-13.835996 2.14697-21.599606-4.89508-26.115238-13.31054-4.361809-8.12882-6.309831-7.49756-9.646484-4.31055-6.414841-5.18332-18.817292-1.98705-20.935547 6.97852 3.057482-1.0263 8.828019-3.07956 13.957031.82031 0 0-2.340771 2.93358-2.113281 4.91602.227489 1.98243 5.396474 5.96288 14.427734 10.47851 0 0-8.063394-1.19416-15.492187-5.11523-7.175747-3.78751-8.805315-2.07703-9.998047 1.81445-8.216077-.71626-16.104532 8.24617-12.648438 18.30273 1.962812-2.55908 5.604467-7.07509 12.037109-6.70507 0 0-.919772 2.71479 1.197266 4.64257 2.117042 1.92783 8.663851-.41191 17.035156 3.00977-5.443948 1.73851-8.983874 2.48283-10.132812 4.35547-.728024 1.18662-.06837 2.35319.519531 3.81836-6.843572 4.60244-7.352879 16.53196 1.652344 22.1875-.07967-3.22417.06256-9.02541 5.300781-12.77735 2.137504.58054 2.828519 1.67292 5.734375 1.84375 2.905856.17084 6.224325-6.18027 10.701172-8.63867 4.47685-2.45851 8.041682-2.95628 10.21875-2.66601 2.177068.29026 1.160156 2.4679 1.160156 4.06445 0 1.59651 2.757813 2.4668 2.757813 2.4668-.145134 2.85853-1.740696 4.99668-5.369141 6.67578 2.612481 1.68238 10.207079 2.22119 12.480469-3.77344 0 0 3.774308.87211 4.499998-2.17578s1.74193-11.75586 20.0293-11.75586c0 0 .24089 2.75636 2.41797 4.49805 0 0 4.93526-.14504 8.27344-1.88672-.43514-7.55694 1.82249-6.97748 4.93359-11.75586 0 0-3.77258 6.67648 1.16211 11.17578l8.12695-2.17774c-1.32959-6.69883 1.08032-6.90509 4.20899-12.77148 0 0-3.48285 7.83717 3.6289 11.75586l7.25781-2.03125c-2.65114-7.24021-1.73038-7.65191 3.62696-14.07813-1.16111 2.75762-3.04636 9.28756 2.90429 12.91602l6.9668-1.5957c-1.71547-7.89865.55248-8.38058 2.90234-12.33789.00001 0-2.90343 6.82225 2.03126 11.03125 0 0 5.51629-.28972 7.69335-2.4668 0 0-.95645-3.56217.14454-5.80664 0 0 7.47333 7.62492 27.51367 13.13086 20.04033 5.50594 34.23212 10.71899 45.17773 21.52148 10.94561 10.8025 9.90638 19.42043 14.53711 31.58008 4.70823 12.36318 8.10049 20.04044 3.33789 24.38281-4.76259 4.34238-8.85351 2.61329-8.85351 2.61329s.21041 3.95507 1.95507 6.21289c.20527.1028 4.10511 2.77024 9.03125-.10352 0 0-.8212 4.72138 1.33399 7.28711 2.42005 1.95771 5.25574 1.83716 8.20898 1.12891-4.40479-7.03771 2.85275-13.2345-.92187-18.98633 0 0 7.2918 1.6532 14.11328 2.3789 6.82148.72567 17.42666 5.45417 20.91602 22.28516 3.48935 16.83099 2.87341 28.73546-6.56836 29.76172-5.9426.64592-11.78602-.64495-15.37696-2.2793-3.59093-1.63434-6.39081-3.36846-7.80664 1.75-8.23552-.43944-16.41203 9.42026-12.87304 17.92578 1.87561-2.62367 5.34762-7.66907 11.78906-7.51562 0 0-.1764 3.74789 1.16992 5.2207 1.34632 1.47432 5.22426 1.97032 13.57812.80078 0 0-6.63661 2.70923-11.8496 2.66992-5.14326-.0389-6.03191 1.95936-6.70704 7.14454-7.42509 3.58953-12.48657 19.22677-2.72851 26.09765-.64972-6.07665 2.42489-12.84601 8.14062-15.82031 0 0 .59888 2.80251 3.4043 3.375 2.80541.57275 8.32041-6.28485 16.9043-8.44141-1.66522 3.89466-5.27325 7.41166-5.00196 9.5918.17193 1.38153 1.82535 1.88248 3.19922 2.66016-1.03693 7.457 3.95905 17.91312 15.34571 17.94336-2.07479-2.46917-6.19964-8.73065-4.44922-14.93165 2.03232-.88066 3.25399-.4602 5.63086-2.14062 2.37686-1.68038 1.00572-8.71258 2.96875-13.42773 1.96295-4.71519 3.25817-8.25895 5.11523-9.44141s1.57746 1.25686 3.10938 2.61133c1.53191 1.3545 5.33203.20312 5.33203.20312 1.89403 2.34357 2.55599 6.57879 1.50586 10.75196 4.35922-.31042 9.15448-7.38014 6.72656-13.67774 0 0 4.72904-2.0963 2.61523-5.99609-2.11381-3.89976-6.8918-11.77683-2.87304-21.62696 4.66214 1.76342 7.33007-.49414 7.33007-.49414l.41016-7.59375c-6.18573.55023-6.45406-3.00679-11.08398-5.95312 6.36293 4.10513 10.46875 2.25781 10.46875 2.25781l1.02539-8.20898c-7.42184-.22606-8.18343-5.29617-11.69922-8.82618 6.56819 5.13139 11.28906 3.69336 11.28906 3.69336l.41016-8.20898c-6.38523-.31903-7.40599-4.52375-11.08399-6.97852 5.95243 3.48934 10.87891 1.23047 10.87891 1.23047v-8.41601c-3.69461.6158-7.79918-.61576-11.9043-4.51563s-3.69531-12.10937-3.69531-12.10937l-11.69922-6.77344c-13.75215 5.95242-20.25195-7.25195-20.25195-7.25195 3.89986.61576 5.74804-2.25782 5.74804-2.25782 1.08319-2.39463 1.17853-5.07922.61524-7.18359-7.01956 3.30849-8.56619-.82691-12.31641-3.08008 5.74717 3.6946 10.34766.41016 10.34766.41016 1.12163-3.50393-.084-7.59375-.084-7.59375-5.59882 2.94777-7.0672-1.17226-10.46875-2.87305 5.33666 1.84732 8.82618-1.84765 8.82618-1.84765 1.23153-2.46305.61523-6.56836.61523-6.56836-7.38921 4.31036-13.33008-4.76368-13.33008-4.76368s6.99316 2.18683 18.01172.5625c8.75646-1.29086 18.85915-5.79049 25.99024-14.76562 9.1366-4.21538 11.82421 3.26367 11.82421 3.26367 3.1314-3.2095 4.55274-6.91992 4.55274-6.91992s-.64106-8.64173-10.19922-7.16602c6.83536-10.35488 13.3418-4.05859 13.3418-4.05859 1.39503-4.26149 1.03515-8.2168 1.03515-8.2168s-4.08543-6.96064-11.49609-2.46875c.034-1.42541-.0166-2.84079-.12695-4.24609 5.74733-7.1763 11.77929-2.87695 11.77929-2.87695.41052-4.51563-.41015-7.59375-.41015-7.59375s-5.92064-7.35264-13.73633-.42579c-1.3787-3.78164-3.29345-7.38909-5.75-10.71874-4.01563-5.44286-8.40148-9.84241-14.35742-14.33204 1.79313-1.46018 5.78604-3.92896 11.88672-9.27343 6.59443-5.77705 13.40622-14.46179 16.03125-28.38477 2.71194-14.38405-2.62607-28.50156-13.46485-36.36328-5.96602-4.32735-14.79631-7.85364-26.25-7.85742zm1.78516 13.1289s8.41838 1.30567 5.51562 10.88477c0 0 4.49898.8713 7.54688-.58008 0 0 2.68748-4.82453-.21289-10.13281 1.9868.84326 3.81569 1.86647 5.45117 3.05273 7.31389 5.30501 11.32731 15.21077 9.30859 25.91797-2.10564 11.1682-8.00457 18.38569-15.83398 24.3457-3.83954 2.92279-8.48786 5.26628-12.78906 7.44336-4.65443-3.37379-7.95182-3.89249-17.44727-10.0625-9.49545-6.17-15.83592-16.78944-15.03906-27.17382.41065-5.3515 1.52276-9.58067 5.71484-14.64454 4.19207-5.06386 8.71756-1.16043 7.85156 2.9961 4.04881.12741 7.67774-.60938 7.67774-.60938s2.93728-5.36097-1.07227-10.07226c0 0 8.53814.66686 5.49024 9.81054 0 0 4.21005 1.15977 7.69336-.14648 0 0 4.35353-6.23975.14453-11.0293z" color="#000" color-rendering="auto" dominant-baseline="auto" image-rendering="auto" shape-rendering="auto" solid-color="#000000" stop-color="#c8102e" style="font-feature-settings:normal;font-variant-alternates:normal;font-variant-caps:normal;font-variant-east-asian:normal;font-variant-ligatures:normal;font-variant-numeric:normal;font-variant-position:normal;font-variation-settings:normal;inline-size:0;isolation:auto;mix-blend-mode:normal;shape-margin:0;shape-padding:0;text-decoration-color:#000000;text-decoration-line:none;text-decoration-style:solid;text-indent:0;text-orientation:mixed;text-transform:none;white-space:normal" transform="scale(.26458)"/>
        <path fill="#c8102e" fill-rule="evenodd" stroke="none" d="M302.8026 446.08412c4.16599 7.49875-1.11341 13.95885-1.11341 13.95885h2.08889s4.80439-6.43462.60236-13.99823-2.11587-12.66678.3129-15.80451c-3.37674 2.66778-6.05672 8.34513-1.89074 15.84389zM315 430.24023c-3.99552 3.28751-5.94781 7.07536-2.92773 15.625s-1.78286 14.17774-1.78286 14.17774h1.70048s4.81226-5.97808 1.37036-14.58971c-3.4419-8.61164-.78603-12.07923 1.63975-15.21303zm-119.44922 19.1543c-1.68308 3.46583-1.11585 6.82324.62305 8.96094-3.85918 7.75264-5.87696 12.52148-5.87695 12.52148l.92382.38282s2.17732-4.60274 6.09961-12.82227c-1.66641-2.0383-2.4687-5.36205-1.76953-9.04297zm-12.48437 7.83594c.2612 4.77377-2.62305 10.86328-2.62305 10.86328l.90039.43555s3.04766-6.16801 1.72266-11.29883zm-12.18946 3.05273c-.0421 3.06369-1.73691 6.27457-3.18945 8.79102l.86328.50195c1.46436-2.53689 3.34252-5.91925 2.32617-9.29297zm-14.36914 4.49805c-.60192 3.98914-3.36328 8.70117-3.36328 8.70117l.91602.39844s3.4226-6.07198 2.44726-9.09961zm-83.589841 1.76172-.244141.9668s2.808265.71203 7.101563.65625c-4.124701-.92667-6.857422-1.62305-6.857422-1.62305zm69.943361 2.5918c-.0147 3.27159-1.95606 5.72722-3.19531 8.08984l.88476.46484c1.65349-2.76378 3.23406-5.74922 2.31055-8.55468zm-15.23633 5.6582c-.0577 5.96137-3.46969 6.22542-3.64648 11.83594l1.0039-.0586c.24136-4.309 4.19278-7.60731 2.64258-11.77734zm-51.769531 5.41797c-3.455603.38524-11.050782 2.27734-11.050781 2.27734l.24414.97461s7.585909-1.89548 10.806641-3.25195zM305.85352 504.5957s2.84674 1.32423 5.55078 2.82032l.48828-.8711c-2.83609-1.56914-6.03906-1.94922-6.03906-1.94922zm1.25976 9.85742c-.56735-.0378-1.13425.008-1.69531.15626 2.61145.2211 4.35826 1.80298 6.18555 2.86132l.49609-.86328c-1.57585-1.16745-3.28426-2.04085-4.98633-2.1543zm2.73047 12.18555c-.16983-.003-.33945.002-.50977.0176 3.08796.94798 5.74428 3.12758 8.42774 3.40039l.0879-.99609c-2.94877-.33981-5.45839-2.37692-8.00586-2.42188zm34.99609 35.63086c-.35525.0134-.72358.0441-1.10546.0937 6.46058.90788 7.81513 3.93703 10.49218 5.4668l.4961-.8711c-2.13377-1.21928-4.55401-4.89038-9.88282-4.68945zm-.72851 11.49805c-.31296.006-.63214.0255-.95703.0605 4.77146.44036 8.18934 3.56664 10.3789 5.44336l.65039-.75976c-2.02512-1.7358-5.37785-4.82721-10.07226-4.74414zm1.65625 13.55859c3.7686 1.59383 5.27439 5.07526 8.03906 6.76758l.51758-.85547c-3.07192-1.88821-4.69658-5.71894-8.55664-5.91211zm.14453 13.4961c4.84336 1.04609 7.89203 5.72877 11.29101 7.34179l.41211-.9082c-4.00746-2.81061-6.96114-6.66063-11.70312-6.43359zm-27.57617 26.85156c-3.49281.82945-7.45508 2.00781-7.45508 2.00781l.28125.96094s3.99029-1.18576 7.17383-2.96875zm5.80273 9.57812c-3.3203 2.9105-6.37695 7.66602-6.37695 7.66602l.83984.53906s3.0519-4.72942 5.53711-8.20508z" color="#000" color-rendering="auto" dominant-baseline="auto" image-rendering="auto" shape-rendering="auto" solid-color="#000000" stop-color="#c8102e" style="font-feature-settings:normal;font-variant-alternates:normal;font-variant-caps:normal;font-variant-east-asian:normal;font-variant-ligatures:normal;font-variant-numeric:normal;font-variant-position:normal;font-variation-settings:normal;inline-size:0;isolation:auto;mix-blend-mode:normal;shape-margin:0;shape-padding:0;text-decoration-color:#000000;text-decoration-line:none;text-decoration-style:solid;text-indent:0;text-orientation:mixed;text-transform:none;white-space:normal" transform="scale(.26458)"/>
        <path fill="none" stroke="#c8102e" stroke-width=".259019" d="M87.208273 111.48933c.796963-.77745 1.411123-1.30582 2.278108-1.994m-6.100829-.34752c1.335271-.69821 1.962179-1.09734 3.183899-1.72137" stop-color="#c8102e" style="font-variation-settings:normal;mix-blend-mode:normal"/>
        <g fill-rule="evenodd">
          <path fill="#ffc72c" stroke="#c8102e" stroke-width=".259019" d="M38.167053 95.155178c-1.048337 1.701009-.785527 5.548662 3.776287 5.440052 4.561813-.10862 7.168565-.977535 10.318387.10861 3.149825 1.08615 3.692898 2.33522 3.692898 2.33522l.03181-1.47562s-3.111424-3.744473-8.922303-3.147094c-5.810883.597382-5.992439-.906187-5.890414-2.043912.102025-1.137724 1.545829-1.683525 1.545829-1.683525-.456884-1.084611-3.504158-1.23474-4.552494.466269z" stop-color="#c8102e" style="font-variation-settings:normal"/>
          <path fill="#ffc72c" stroke="#c8102e" stroke-width=".259019" d="M48.295349 80.814893c-1.958454 2.265663-2.290877 3.782648-2.290877 3.782648.192006.460814.30721.652819-.230405 1.574445-.537615.921623-2.611273 4.569727-2.611273 4.569727s.460814 1.152032 2.073659 1.80485c0 0 0 1.536042.576016 2.688074 0 0 .883224.268808 1.80485.422412 0 0-.0384 1.420839 1.036828 2.265662 0 0 .207912-2.493339 1.881652-3.293173s3.201983-.526803 4.253201 1.619433 1.273039 4.536669.06361 7.175539c-1.209415 2.63886-4.284663 2.00947-5.168236.58806s-.876636-2.78738-.723032-3.4786c0 0-1.177633-.0768-1.600045 2.03527 0 0-.806422.30721-1.651245.30721 0 0-.192005.46081-.0384 1.42084.153605.96002-1.344038 3.5329-3.648101 2.84168 0 0-.153606 1.11363.268806 1.95845 0 0 1.344037.92163 2.764877.38401-2.215644 1.15546-4.405459.76266-5.721759 2.49607 0 0 .576016 1.15203.537615 1.95846 2.1858-1.26066 4.150326-.35705 6.84819-1.68965 0 0-1.152032 1.76644-.460813 3.53289l1.843251.57602s-.0768-1.92005 1.881652-2.76487c0 0-.384011 1.80485.307209 3.07208.615279.28075 1.369511.46094 2.18886.53762 0 0-.691219-2.15046 1.459241-3.87851 0 0-.268808 2.64967 1.075229 3.8017.618649.21771 1.700445.27482 2.227262.11521-1.148104-1.86602.09044-2.18472.422412-4.72333.652366 1.55747.734051 3.15993 2.150459 4.30091.817456-.0459 1.355007-.0969 2.265663-.38401-1.565404-2.01107-.572218-3.14581-1.305636-5.03054 1.218385 1.54096 2.362841 2.63249 4.684929 2.53448.528776-.76244.858597-1.75208.960027-2.49608-3.321969-.40271-2.85631-1.97668-4.646528-4.10891 0 0 2.227261 2.22727 4.147314.92162l.422412-2.15045c-2.974053-.0587-2.124848-1.02279-4.396921-2.93768 1.459578.58404 2.57272 1.71896 4.166515 1.01762.307209-.92162.384011-2.38086.384011-2.38086-2.026573.0736-2.622876-.0957-4.032112-1.72805 0 0 2.112059 1.53604 3.494497.49921l.576015-2.073652c-1.839368.101941-2.36197.01915-3.840106-1.42084 0 0 1.80485 1.07523 3.148887-.0768l.268808-1.817652s-2.342465.268807-3.801705-1.305636c0 0 2.112058.499213 3.187288-.806423l.0384-1.881652s-1.536043.614417-2.726476.192004c0 0 .04995-1.274982.554869-3.076978l-1.834108-4.642597z" stop-color="#c8102e" style="font-variation-settings:normal;mix-blend-mode:normal"/>
          <path fill="#c8102e" stroke="none" d="M182.18359 321.51367c-.41484.041-.83296.18134-1.26757.41602.83638 0 2.5711.53162 3.7207 2.3789-.93383 1.7337-2.52414 4.68572.17474 7.49054-.79949.55388-1.57422.91482-2.57904 1.26337 0 0 4.00764.46498 8.74098-3.82782 0 0 3.33194 1.3091 5.72972.13251-4.91582.18765-8.85751-3.15294-10.97477-5.51203-1.58795-1.76931-2.30021-2.46461-3.54476-2.34149zm34.3418.24024c-2.77923 1.64429-6.70312 2.19336-6.70312 2.19336s4.23035.23223 7.24218-1.34375zm-31 3.49023s2.62102 2.62257 4.50781 3.20313c0 0-1.32878 1.58073-4.33697 3.00482 0 0-1.12201-1.20037-1.12201-3.01459s.95117-3.19336.95117-3.19336zm36.04688.22461c-1.8114.0623-3.55079 1.45703-3.55079 1.45703s3.16274-.63263 4.24805.66797c1.08532 1.3006.0332 3.90039.0332 3.90039s3.85652-2.53849 1.62891-5.0293c-.69613-.77837-1.53601-1.02442-2.35937-.99609zm8.46875 3.46094c-.94745 1.89489-2.25618 4.1304-4.8379 6.04492 3.41692-1.08417 4.78699-3.70482 5.72461-5.58008zm-6.28907 9.52929c5.35204 1.23124 9.09513 5.9006 13.48633 7.39649l.31055-.95117c-4.90201-2.12346-8.7464-6.17298-13.79688-6.44532zm-46.30859 5.82422c-.0169.73823.15786 1.44476-.91824 2.64415-1.07611 1.1994-4.11106 2.48671-4.11106 2.48671s2.84908-.027 4.72266-1.64258c1.87358-1.61569 1.02503-3.28302.30664-3.48828zm47.74805 5.7461c-.23645.002-.47312.0164-.71094.043 4.38506.46222 7.4209 3.88569 10.85351 5.21093l.35547-.9375c-3.54984-1.7496-6.95136-4.34845-10.49804-4.3164zm1.46289 12.38086c6.30617 1.06277 9.94922 4.8457 9.94922 4.8457l.71679-.69336s-3.90979-4.054-10.66601-4.15234zm2.0957 12.80664c-.66538.02-1.3636.0997-2.0918.25586 5.49515-.20187 9.09766 3.12304 9.09766 3.12304l.67187-.73242s-3.02006-2.7866-7.67773-2.64648zm.69727 12.82226c-.427-.01-.87464.008-1.33985.0605 3.39006.56765 5.73633 2.22461 5.73633 2.22461l.57617-.81836s-1.9837-1.39978-4.97265-1.4668zm-2.78907 13.99414c4.38703 1.05083 6.41016 3.91992 6.41016 3.91992l.82031-.58398s-2.32867-3.22565-7.23047-3.33594zm-51.23437 7.40039c-2.07111 2.75864-5.29297 3.87891-5.29297 3.87891l.32422.95117s3.55655-1.20267 4.96875-4.83008zm4.93359 5.36914c-.49827 5.73925-4.11523 9.06446-4.11523 9.06446l.67969.73828s3.93382-3.64071 3.43554-9.80274zm43.39453 1.01954c3.99528 2.13698 5.5 5.43359 5.5 5.43359l.90821-.42188s-1.69521-3.66541-6.40821-5.01171zm-32.21679 2.02929c1.05728 7.14788-2.96485 11.10938-2.96485 11.10938l.70117.70898s4.39943-4.45247 2.26368-11.81836zm11.90234.43555c2.49073 5.39939 0 9.76562 0 9.76562l.87109.4961s2.73397-4.92095-.87109-10.26172zm11.75195 2.75781c2.00035 1.88818 2.25977 4.26172 2.25977 4.26172l.99609-.10937s-.32155-2.84747-3.25586-4.15235z" color="#000" color-rendering="auto" dominant-baseline="auto" image-rendering="auto" shape-rendering="auto" solid-color="#000000" stop-color="#c8102e" style="font-feature-settings:normal;font-variant-alternates:normal;font-variant-caps:normal;font-variant-east-asian:normal;font-variant-ligatures:normal;font-variant-numeric:normal;font-variant-position:normal;font-variation-settings:normal;inline-size:0;isolation:auto;mix-blend-mode:normal;shape-margin:0;shape-padding:0;text-decoration-color:#000000;text-decoration-line:none;text-decoration-style:solid;text-indent:0;text-orientation:mixed;text-transform:none;white-space:normal" transform="scale(.26458)"/>
          <path fill="#ffc72c" stroke="#c8102e" stroke-width=".899008" d="M7.3422043 39.675995C7.5474326 23.66603.43908773 1.089291.43908773 1.089291 4.1451034-.15689481 10.367528 1.4371965 11.904965 7.6806094c4.837984.07166 8.913335 2.7191096 9.271256 9.4856236-2.410469.0011-4.822753-.0565-5.614564 2.520586-.791848 2.577086.454643 4.314164 2.737875 4.107108 2.283231-.207055 3.267097-4.23967 3.267097-4.23967l4.906146-.03247s0 4.414254 3.338155 4.414254c3.338192 0 4.421555-3.901115 1.663937-6.658734-2.757619-2.757596-6.531213-.222841-6.531213-.222841-1.761297-7.2601591 2.646199-9.731089 6.095773-9.3738481 1.537436-6.2433977 5.873084-7.83750411 6.901682-8.33297372 1.028598.49546961 5.364246 2.52498892 6.901682 8.76838662 3.304441.078161 7.131363 3.8553452 5.660371 9.0835732 0 0-3.338192-2.389618-6.095811.367974-2.757618 2.757619-1.674255 6.368459 1.663937 6.368459 3.338155 0 3.773556-4.414254 3.773556-4.414254l5.250595.362155s-.204472 4.565892 2.216996 5.070893c2.421392.505002 3.871559-1.011957 3.702387-3.70264-.168945-2.69068-2.81862-3.632459-6.178394-3.615024 1.490268-6.931997 5.489991-9.2820055 11.517619-7.062603 3.243536-5.0181184 10.244145-5.6671517 13.557468-3.5912462 0 0-10.302625 18.6841952-14.271166 36.3327212l-9.260307-.669874c-.371527-3.573007-1.610041-6.183542-3.188031-7.325439-7.526138.446465-8.468296 4.130774-10.889726 6.300752z" stop-color="#c8102e" style="font-variation-settings:normal;mix-blend-mode:normal" transform="matrix(.2655 .1119 -.1119 .2655 50.785645 69.459341)"/>
        </g>
      </g>
    </g>
  </g>
</svg>