<svg clip-rule="evenodd" fill-rule="evenodd" height="317.732086" image-rendering="optimizeQuality" shape-rendering="geometricPrecision" text-rendering="geometricPrecision" viewBox="0 0 7647.1 7719.52" width="314.730568" xmlns="http://www.w3.org/2000/svg"><path d="m1732.93 7299.78a11660.592 11660.592 0 0 0 120.64 9.39c563.42 40.9 1159.46 41.73 1748.42-20.98 514.12-54.74 1022.85-157.94 1499.8-325.2 849.34-297.85 1491.97-801.12 1919.05-1409.56 322.67-459.69 522.28-979.39 595.05-1515.91 72.75-536.41 18.65-1089.6-166.08-1616.37-246.59-703.18-725.83-1359.17-1446.71-1865.17-30.12-21.14-49.31-32.35-59.32-36.07-18.87-7-31.27-1.77-37.64 13.71-4.04 9.81-1.87 20.24 5.93 30.75 7.54 10.15 25.52 27.54 50.15 47.57 496.05 403.46 841.89 915.82 1040.35 1471.14 197.81 553.49 249.2 1149.55 156.99 1722.95-92.21 573.31-327.96 1124.02-704.45 1586.9-365.19 448.98-862.98 815.42-1490.86 1039.81-422.65 151.05-936.03 247.14-1457.18 293.61-570.34 50.86-1149.86 42.39-1630.16-18.42-66.41-8.41-132.4-17.72-197.91-27.91-35.57-5.54-71.12-11.36-106.66-17.47-27.72-11.46-57.44-19.75-88.69-24.3-87.93-12.79-172.7 6.31-240.74 48.03-53.34-59.38-129.21-101.86-217.22-114.67-87.92-12.79-172.7 6.31-240.74 48.03-53.35-59.38-129.21-101.86-217.22-114.67-94.07-13.69-184.55 9.13-254.77 57.11-71.06 48.54-121.45 122.79-134.32 211.23a299.528 299.528 0 0 0 -1.31 76.46c-41.14 257.36-90.73 494.29 19.07 647.38 180.81 252.09 1214.58 280.24 1390.26 132.92 110.78-92.9 126.01-201.43 144.7-330.42l1.55.13zm-341.65-25.27c77.4 11.26 152.37-2.2 215.62-34.04l-8.3 57.06c-48.72 334.77-577.43 269.88-828.08 235.02-293.8-40.86-576.88-153.29-525.53-461.6l6.96-51.49c53.59 63.08 131.94 108.45 223.42 121.76 87.92 12.79 172.7-6.31 240.73-48.03 53.35 59.38 129.21 101.86 217.22 114.67h.01c87.92 12.79 172.69-6.31 240.73-48.03 53.34 59.38 129.21 101.86 217.22 114.67z" fill="#373435"/><path d="m1763.31 7193.02 338.5-163.63-310.03-210.7-5.29 69.51 189.96 129.1 4.76 3.23-212.59 102.77-5.3 69.73zm-1086.65-153.62c-54.48 31.92-121.84 46.24-191.93 36.04-77.03-11.21-142.47-49.93-185.99-103.48-42.88-52.77-64.37-120.03-54.29-189.29 10.05-69.09 49.81-127.36 105.98-165.73 57-38.94 130.82-57.41 207.96-46.19 69.99 10.18 130.4 43.08 173.5 89.18-50.22 46.8-84.91 108.8-95.27 180.02-10.34 71.07 5.25 140.31 40.05 199.46zm-162.65-415.46c-102.05-8.89-194.65 64.02-209.72 167.54-15.06 103.52 52.91 199.8 153.27 220.36-48.3-54.33-73.18-129.11-61.84-207.05s56.51-142.53 118.29-180.84zm428.67 518.14c-77.03-11.21-142.47-49.94-185.99-103.48-42.89-52.76-64.37-120.03-54.3-189.29 10.05-69.09 49.82-127.36 105.98-165.73 57-38.94 130.82-57.41 207.96-46.19 69.99 10.19 130.4 43.08 173.5 89.18-50.22 46.8-84.91 108.8-95.27 180.02-10.34 71.07 5.25 140.31 40.05 199.46-54.49 31.92-121.84 46.24-191.94 36.04zm29.28-451.49c-102.05-8.9-194.65 64.01-209.71 167.53s52.91 199.8 153.27 220.36c-48.29-54.33-73.18-129.11-61.84-207.05s56.51-142.53 118.29-180.84zm636.14 472.28c-56.93 38.71-130.55 57.04-207.46 45.85-77.03-11.21-142.46-49.94-185.99-103.48-42.89-52.77-64.37-120.04-54.3-189.29 10.05-69.09 49.82-127.37 105.98-165.73 57-38.94 130.82-57.41 207.96-46.18 64.35 9.36 120.6 37.93 162.75 78.3zm-178.19-405.64c-102.05-8.9-194.65 64.02-209.71 167.53-15.06 103.52 52.91 199.8 153.27 220.36-48.29-54.33-73.18-129.11-61.84-207.05 11.35-77.94 56.51-142.53 118.29-180.84zm418.09-2.87c7.55.98 15.1 1.95 22.66 2.91 76.05 9.63 154.56 17.95 235.11 24.95 139.75 66.54 286.25 127.01 439.52 180.76 350.53 122.93 718.23 211.25 1092.62 271.17a8224.21 8224.21 0 0 1 -41.19 4.5c-585.65 62.36-1178.75 61.5-1739.65 20.78-10.29-.75-20.83-1.53-31.63-2.35l445.34-215.28-19.03-12.93-274.98-186.87c-41.02-27.87-82.04-55.74-128.78-87.64zm2168.72-39.96c346-53.99 676.04-131.65 964.29-234.67 636.79-227.57 1141.91-599.53 1512.7-1055.41 382.14-469.83 621.41-1028.72 714.98-1610.5 93.55-581.7 41.46-1186.26-159.13-1747.52-162.48-454.66-422.44-880.98-781.32-1243.85 550.13 462.21 926.48 1021.7 1134.56 1615.07 182.11 519.3 235.45 1064.61 163.74 1593.36-71.69 528.64-268.43 1040.78-586.46 1493.87-343.8 489.8-829.43 910.58-1452.12 1208.7-426.7 36.47-910.52 35.48-1387.94-7.1-41.17-3.67-82.28-7.65-123.31-11.95zm-2297.49 23.03.18.02c9.15.7 17.19 5.05 22.77 11.51s8.71 15.04 8.06 24.21l-33.99 447c-.7 9.23-5.12 17.35-11.67 23.01-6.55 5.65-15.23 8.83-24.47 8.18l-.18-.01c-9.15-.7-17.19-5.05-22.77-11.52-5.58-6.46-8.71-15.04-8.06-24.21l34-447c.7-9.23 5.12-17.35 11.67-23.01 6.54-5.65 15.23-8.83 24.47-8.18z" fill="#fefefe"/><path d="m5914.16 7299.78a11660.592 11660.592 0 0 1 -120.64 9.39c-563.42 40.9-1159.46 41.73-1748.42-20.98-514.12-54.74-1022.85-157.94-1499.8-325.2-849.34-297.85-1491.97-801.12-1919.05-1409.56-322.67-459.69-522.28-979.39-595.05-1515.91-72.75-536.41-18.65-1089.6 166.08-1616.37 246.59-703.18 725.83-1359.17 1446.71-1865.17 30.12-21.14 49.31-32.35 59.32-36.07 18.87-7 31.27-1.77 37.64 13.71 4.04 9.81 1.87 20.24-5.93 30.75-7.54 10.15-25.52 27.54-50.15 47.57-496.05 403.46-841.89 915.82-1040.35 1471.14-197.81 553.49-249.2 1149.55-156.99 1722.95 92.21 573.31 327.96 1124.02 704.45 1586.9 365.19 448.98 862.98 815.42 1490.86 1039.81 422.65 151.05 936.03 247.14 1457.18 293.61 570.34 50.86 1149.86 42.39 1630.16-18.42 66.41-8.41 132.4-17.72 197.91-27.91 35.57-5.54 71.12-11.36 106.66-17.47 27.72-11.46 57.44-19.75 88.69-24.3 87.93-12.79 172.7 6.31 240.74 48.03 53.34-59.38 129.21-101.86 217.22-114.67 87.92-12.79 172.7 6.31 240.74 48.03 53.35-59.38 129.21-101.86 217.22-114.67 94.07-13.69 184.55 9.13 254.77 57.11 71.06 48.54 121.45 122.79 134.32 211.23 3.77 25.86 4.09 51.48 1.31 76.46 41.14 257.36 90.73 494.29-19.07 647.38-180.81 252.09-1214.58 280.24-1390.26 132.92-110.78-92.9-126.01-201.43-144.7-330.42l-1.55.13zm341.65-25.27c-77.4 11.26-152.37-2.2-215.62-34.04l8.3 57.06c48.72 334.77 577.43 269.88 828.08 235.02 293.8-40.86 576.88-153.29 525.53-461.6l-6.96-51.49c-53.59 63.08-131.94 108.45-223.42 121.76-87.92 12.79-172.7-6.31-240.73-48.03-53.35 59.38-129.21 101.86-217.22 114.67h-.01c-87.92 12.79-172.69-6.31-240.73-48.03-53.34 59.38-129.21 101.86-217.22 114.67z" fill="#373435"/><path d="m5883.78 7193.02-338.5-163.63 310.03-210.7 5.29 69.51-189.96 129.1-4.76 3.23 212.59 102.77 5.3 69.73zm1086.65-153.62c54.48 31.92 121.84 46.24 191.93 36.04 77.03-11.21 142.47-49.93 185.99-103.48 42.88-52.77 64.37-120.03 54.29-189.29-10.05-69.09-49.81-127.36-105.98-165.73-57-38.94-130.82-57.41-207.96-46.19-69.99 10.18-130.4 43.08-173.5 89.18 50.22 46.8 84.91 108.8 95.27 180.02 10.34 71.07-5.25 140.31-40.05 199.46zm162.65-415.46c102.05-8.89 194.65 64.02 209.72 167.54 15.06 103.52-52.91 199.8-153.27 220.36 48.3-54.33 73.18-129.11 61.84-207.05s-56.51-142.53-118.29-180.84zm-428.67 518.14c77.03-11.21 142.47-49.94 185.99-103.48 42.89-52.76 64.37-120.03 54.3-189.29-10.05-69.09-49.82-127.36-105.98-165.73-57-38.94-130.82-57.41-207.96-46.19-69.99 10.19-130.4 43.08-173.5 89.18 50.22 46.8 84.91 108.8 95.27 180.02 10.34 71.07-5.25 140.31-40.05 199.46 54.49 31.92 121.84 46.24 191.94 36.04zm-29.28-451.49c102.05-8.9 194.65 64.01 209.71 167.53s-52.91 199.8-153.27 220.36c48.29-54.33 73.18-129.11 61.84-207.05s-56.51-142.53-118.29-180.84zm-636.14 472.28c56.93 38.71 130.55 57.04 207.46 45.85 77.03-11.21 142.46-49.94 185.99-103.48 42.89-52.77 64.37-120.04 54.3-189.29-10.05-69.09-49.82-127.37-105.98-165.73-57-38.94-130.82-57.41-207.96-46.18-64.35 9.36-120.6 37.93-162.75 78.3zm178.19-405.64c102.05-8.9 194.65 64.02 209.71 167.53 15.06 103.52-52.91 199.8-153.27 220.36 48.29-54.33 73.18-129.11 61.84-207.05-11.35-77.94-56.51-142.53-118.29-180.84zm-418.09-2.87c-7.55.98-15.1 1.95-22.66 2.91-483.62 61.23-1066.89 69.79-1640.69 18.61-525.57-46.87-1043.33-143.79-1469.66-296.15-636.79-227.57-1141.91-599.53-1512.7-1055.41-382.14-469.83-621.41-1028.72-714.98-1610.5-93.55-581.7-41.46-1186.26 159.13-1747.52 162.48-454.66 422.44-880.98 781.32-1243.85-550.13 462.21-926.48 1021.7-1134.56 1615.07-182.11 519.3-235.45 1064.61-163.74 1593.36 71.69 528.64 268.43 1040.78 586.46 1493.87 421.41 600.36 1055.85 1097.07 1894.67 1391.23 473.07 165.9 978.06 268.3 1488.69 322.67 585.65 62.36 1178.75 61.5 1739.65 20.78 10.29-.75 20.83-1.53 31.63-2.35l-445.34-215.28 19.03-12.93 274.98-186.87c41.02-27.87 82.04-55.74 128.78-87.64zm128.77-16.93-.18.02c-9.15.7-17.19 5.05-22.77 11.51s-8.71 15.04-8.06 24.21l33.99 447c.7 9.23 5.12 17.35 11.67 23.01 6.55 5.65 15.23 8.83 24.47 8.18l.18-.01c9.15-.7 17.19-5.05 22.77-11.52 5.58-6.46 8.71-15.04 8.06-24.21l-34-447c-.7-9.23-5.12-17.35-11.67-23.01-6.54-5.65-15.23-8.83-24.47-8.18z" fill="#fefefe"/><path d="m3417.9 915.84c7.65-36.95 20.31-72.38 37.36-105.4l-509.26-295.94 19.97-34.48 509.24 295.94c3.12-4.84 6.35-9.63 9.67-14.33a413.11 413.11 0 0 1 31.14-38.95l-216.38-217.61 28.24-28.08 216.23 217.45a411.509 411.509 0 0 1 54.12-41.73l-292.71-510.31 34.64-19.81 292.6 510.12c19.89-10.27 40.81-19 62.63-26l-78.59-296.64 38.54-10.14 78.53 296.44c5.95-1.29 11.94-2.48 18-3.52 16.59-2.86 33.12-4.69 49.52-5.54l1.66-587.29h41.02l1.66 587.29c16.4.84 32.93 2.67 49.52 5.54 6.06 1.05 12.05 2.23 18 3.52l78.53-296.44 38.54 10.14-78.59 296.64a410.36 410.36 0 0 1 62.63 26l292.6-510.12 34.64 19.81-292.71 510.31a412.17 412.17 0 0 1 54.12 41.73l216.23-217.45 28.24 28.08-216.38 217.61a414.396 414.396 0 0 1 31.14 38.95c3.32 4.71 6.54 9.49 9.67 14.33l509.24-295.94 19.97 34.48-509.26 295.94c17.05 33.02 29.71 68.45 37.36 105.4 41.47-14.99 80.9-32.61 115.28-55.82 30.36-20.49 52.13-41.95 89.3-49.48 44.19-8.96 82.77 7.46 117.23 26.07l29.28-12.09c15.4-6.36 19.39 1.74 26.02 14l358.26 662.62c1.34 2.48 2.52 4.57 2.99 7.49.13.81.2 1.65.2 2.5 0 4.68-2.06 8.87-5.33 11.73-1.57 1.38-3.45 2.37-5.34 3.15l-1133.54 468.16-548.69-226.61-784.97 412.65c-8.75 4.6-15.76 7.69-21.88 15.18-6.32 7.75-9.79 16.63-9.79 26.94v23.37l-.02 102.29c0 10.66 6.19 20.62 16.58 23.99 11.29 3.66 19.28-1.05 28.77-6.01 73.41-38.39 215.58-114.4 299.96-106.67 11.33-13.5 34.97-29.16 49.85-39.21 15.54-10.5 31.38-20.09 47.34-28.36 35.03-18.15 68.32-28.95 98.61-34.91 20.05-3.94 38.73-5.77 55.69-6.21-26.53 28.63-55.75 56.09-85.67 81.15-30.43 25.47-63.49 49.04-97.67 66.76-30.72 15.92-62.7 27.63-96.84 33.67-43.03 44.57-95.19 86.77-147.41 120.12-40.05 25.57-80.85 46.73-125.83 68.62-13.36 6.49-28.22 11.46-36.58 24.42-4.27 6.62-6.78 14.53-6.78 22.92 0 54.04-.02 108.09-.02 162.14 0 13.84 11.11 25.52 25.09 25.52 7.93 0 15.1-4.79 21.92-8.37l1302.62-685.18-699.29 699.29c-43.57 43.58-70.86 87.9-87.37 136.59-16.22 47.83-21.58 98.63-21.58 156.4v907.68c-335.52 67.73-664.06 177.28-976.97 328.67-6.01-44.82-17.74-94.2-31.72-141.88-6.5-22.18-13.49-43.99-20.62-64.82 17.46 24.84 37.46 54.01 56.95 52.77 42.36-2.71 24.87-105.44 20.59-139.43-8.41-66.6-22.51-153.64-45.13-216.46-39.04-108.38-100.21-219.98-199.39-282.83-.97-40.99-3.44-78.92-6.44-109.28-.85-8.6-1.18-15.58-6.4-23.31-7.44-11.03-20.48-16.05-33.39-13.36 8.53-31.96 15.58-65.82 21.31-99.33 3.36-19.69 6.27-39.33 8.76-58.42 1.02 7.79 1.59 15.65 1.65 23.58.15 17-2.75 35.73 18.19 41.59 22.16 6.21 30.18-12.22 38.61-28.25 145.52-276.44 133.68-474.35 41.17-627.31 20.5-43.25 37.81-84.95 50.18-118.19 3.14-8.45 6.2-15.22 4.86-24.78-.86-6.12-3.41-11.92-7.73-16.8-4.36-4.92-10-8.36-16.4-9.91 4.7-5.42 9.37-10.95 14.03-16.58 5.36 9.06 14.38 16.31 28.27 21.04 28.37 9.65 59.18-4.69 80.48-23.25 127.14-110.87 219.23-233.44 267.55-361.46 28.23-74.78 40.69-149.36 38.33-222.56 43.05-33.43 82.21-67.59 111.18-95.01 7.76-7.34 15.06-14.3 17.78-23.46 12.06-10.33 24.29-20.48 36.64-30.46 12.76-10.31 25.63-20.45 38.58-30.44 41.46-32 62.91-54.53 69.6-67.53 3.5-6.8 3.38-11.77.19-14.84-2.89-2.78-8.17-3.37-15.35-1.75-16.95 3.82-47.54 20.25-83.49 49.11-11.83 9.5-23.49 19.06-34.96 28.69-11 9.23-22.03 18.69-33.07 28.35-4.56-1.56-9.52-2.67-14.64-3.79-34.25-7.54-77.83-15.49-124.48-21.68 21.66-34.47 41.93-73.21 59.94-111.83 26.53-56.9 48.66-114.57 63.17-158.11 1.82-5.45 3.46-10.65 4.26-15.68a2338.357 2338.357 0 0 1 189.01-125.65c45.33-27.04 72.09-49.3 81.65-63.01 4.39-6.3 5.49-11.42 3.42-15.03-2.1-3.66-7.04-5.21-14.69-4.33-16.21 1.86-47.89 14.69-93.54 41.9a2377.351 2377.351 0 0 0 -99.45 62.68 2388.433 2388.433 0 0 0 -95.35 66.87c-7.62-.3-15.56 1.99-23.82 4.3-43.72 12.26-101.31 31.18-158.73 54.5-22.14 8.99-45.62 18.93-68.98 30.06-11.14-12.1-22.35-23.02-33.05-31.58-19.41-15.54-37.15-23.33-49.9-16.4-30 16.32-13.67 46.2-7.52 72.14 1.87 7.87 3.68 15.96 5.45 24.21-13.81 9.68-26.77 20.02-38.43 31.11-36.92 35.1-67.87 82.14-73.7 133.75-4.94-48.53-12.48-97.78-22.38-146.06 9.97-9.46 20.05-18.86 30.22-28.22 13.27-12.2 26.77-24.34 40.48-36.41 28.7-25.28 57.88-49.88 87.52-73.76 29.66-23.9 59.87-47.16 90.6-69.75 14.86-10.92 26.91-20.84 36.21-29.41 10.53-9.7 17.59-17.76 21.2-23.64v-.01c1.79-2.91 2.88-5.58 3.31-7.97.5-2.83.07-5.32-1.26-7.41-1.44-2.25-3.62-3.69-6.54-4.24-2.42-.46-5.35-.27-8.76.59-6.21 1.58-15.39 5.72-27.43 12.78-10.62 6.23-23.51 14.76-38.61 25.85a2631.246 2631.246 0 0 0 -92.48 71.11c-30.4 24.46-60.18 49.52-89.3 75.16a2691.947 2691.947 0 0 0 -34.56 30.96c-6.89 6.29-13.78 12.64-20.65 19.04-.59-2.48-1.19-4.96-1.8-7.44-1.75-7.14-3.04-12.96-7.85-19.16 42.37-34.23 80.38-68.72 107.4-95.44 8.81-8.53 12.54-20.82 9.09-32.71-1.81-6.25-5.32-11.52-10.3-15.7 31.69-14.78 64.26-32.51 95.59-51.19 52.27-31.15 100.93-64.78 136.31-91.6 13.43-10.18 26.48-19.41 23.21-39.31l-.1-.55c41.49-29.69 83.82-58.18 126.92-85.4 43.6-27.54 88.1-53.87 133.47-78.93 60.4-33.37 92.96-56.24 104.94-69.46 6.53-7.21 7.64-12.57 4.21-16.07-2.84-2.89-9.15-3.53-18.23-2.01-22.94 3.85-67.52 21.22-119.87 50.33-46.77 26.01-92.7 53.38-137.73 82.06a2701.82 2701.82 0 0 0 -131.33 89.16c-34.59-11.46-78.36-24.21-124.9-35.26 27.42-33.25 54.15-72.5 78.33-112.1 34.86-57.06 64.57-115.02 83.38-156.64 1.05-2.29 1.83-4.66 2.36-7.07 12.36-7.63 24.83-15.2 37.41-22.7a3059.69 3059.69 0 0 1 38.98-22.86 2935.268 2935.268 0 0 1 220.52-114.86c59.98-28.06 95.14-50.54 108.59-64.48 6.3-6.53 8.32-11.91 6.32-15.84-1.96-3.88-7.52-5.59-16.42-4.88-19.57 1.55-59.13 14.4-115.13 41.57-39.5 19.16-78.81 38.57-117.72 58.68-38.91 20.1-77.37 40.88-115.15 62.76-12.39 7.17-24.84 14.51-37.36 22.01a3008.81 3008.81 0 0 0 -36.15 21.99c-7.95-1-16.59.57-25.49 2.05-43.75 7.23-101.07 19.27-158.91 35.52-49.68 13.95-99.89 31.09-142.42 51.09-21.09 9.91-40.72 21.74-58.22 35-37.2 28.17-70.33 66.77-84.15 112.04-.81-55.76-4.45-112.8-11.69-168.28-.59-4.49-1.16-8.82-2.03-12.89 52.16-43.1 105.72-84.6 160.6-124.42a3215.6 3215.6 0 0 1 169.48-114.9c41.8-26.44 65.8-47.74 74.05-60.85 3.95-6.28 4.64-11.31 2.26-14.79-2.33-3.41-7.3-4.77-14.73-3.83-16.34 2.07-47.71 15.43-91.58 43.29a3267.313 3267.313 0 0 0 -175.24 119.46 3264.812 3264.812 0 0 0 -166.64 130.15c-7.76 2.99-14.39 9.12-21.4 15.34-33.48 29.72-76.14 71.06-116.64 116.05-34.49 38.3-67.74 79.62-93.07 119.35-4.8 7.53-9.27 15.21-13.4 23-8.73-10.3-22.35-14.03-35.07-9.45-10.05 3.6-15.39 10.92-22.13 18.51-29.68 33.42-67.26 79.67-102.4 129.51-29.79 42.25-57.95 87.24-78.28 129.48-3.87 8.04-7.4 16.21-10.59 24.45-5.05-4.68-10.91-7.6-17.92-8.45-7.08-.86-14.66.96-20.69 4.64-6.48 3.96-9.56 8.89-13.89 15.06-26.05 37.08-59.36 89.46-89.53 145.29-24.6 45.53-47.23 93.56-62.41 137.91-2.88 8.4-5.4 16.87-7.58 25.36-10.71-7.81-25.22-8.11-36.27-.83-4.68 3.08-8.55 7.34-11.26 12.35-22.09 40.4-50.56 99.1-74.95 160.79-2.35 5.94-4.66 11.92-6.93 17.91-2.35-15.46-3.11-31.41-2.07-47.92 0-13.38-5.95-24.59-19.61-28.17-6.9-1.81-14.57-.76-21.12 3.93-9.45 6.75-34.22 57.66-40.57 70.17-90.19 177.63-116.82 322.96-98.39 443.39 2.37 15.5 5.49 30.57 9.3 45.23l-.03.31c-.82 8.89-1.29 17.73-1.41 26.48a31.877 31.877 0 0 0 -35.55 7.71c-6.49 6.96-8.04 14.55-10.28 23.2-11.3 43.52-23.95 103.3-32.63 165.4-7.14 51.14-11.58 103.98-10.32 150.89.24 8.92.83 17.79 1.77 26.55-12.9-3.66-26.47 1.07-34.38 11.87-6.32 8.63-6.81 19.1-8.15 29.3-5.77 43.96-10.89 102.6-12.1 163.07-1.04 51.95.8 105.05 7.56 151.15 1.29 8.8 2.92 17.51 4.89 26.08-6.69-1.04-13.37.05-19.4 3.14-11.06 5.67-17.31 16.57-17.58 28.87-.24 9.82-.36 20.53-.33 31.96-.62-1.52-1.26-3.02-1.85-4.56-6.61-17.42-7.17-42.18-31.65-43.47-22.72-1.19-27.47 18.46-30.71 35.67-13.85 73.61-7.58 184.32 1.02 260.49 9.67 85.65 29.66 170.51 70.05 246.4 9.68 18.2 20.48 35.56 32.42 51.92 10.64 45.57 23.78 90.86 39.48 129.8a332.27 332.27 0 0 0 10.94 24.29c-13.53 1.15-24.39 10.02-28.09 23.11-2.86 10.13.16 19.63 2.42 29.48 9.92 43.31 25.67 100.37 45.75 157.78 17.13 48.97 37.4 98.08 59.88 139.03a330.4 330.4 0 0 0 13.69 22.72c-13.09 2.7-22.99 13.19-25.07 26.36-1.61 10.26 2 18.14 5.3 27.42 14.96 41.91 37.57 97.33 64.72 152.77 22.82 46.6 48.75 92.95 75.9 130.89 5.18 7.23 10.63 14.24 16.32 20.98-6.43 2.14-11.98 6.16-15.94 11.68-7.07 9.85-7.66 22.92-2.38 33.7 14.93 30.87 36.24 70.79 61.32 112.56-6.97-2.5-13.92-4.98-20.86-7.22-32.47-10.49-44.98 14.44-34.07 41.94 32.71 82.36 142.72 270.65 230.37 383 42.73 54.77 74.31 85.92 135.03 119.01 105.87 57.69 234.37 73.1 364.34 63.05a3039.11 3039.11 0 0 0 77.31 79.39l-147.85 179.57c136.36 131.65 276.89 247.46 432.19 356.21l147.83-179.55c135.29 92.13 277.81 173.31 426.13 242.57l-78.64 219.22c172.78 77.95 344.23 139.3 527.21 188.96l78.57-219.04c158.47 40.81 320.09 68.89 483.06 83.75v232.56c94.63 7.38 187.47 11.07 280.33 11.07 92.85 0 185.7-3.69 280.33-11.07v-232.56c162.97-14.86 324.59-42.93 483.06-83.75l78.57 219.04c182.98-49.66 354.43-111.01 527.21-188.96l-78.64-219.22c148.32-69.25 290.83-150.44 426.13-242.57l147.83 179.55c155.31-108.75 295.83-224.57 432.19-356.21l-147.85-179.57c26.33-26.08 52.1-52.54 77.31-79.39 129.97 10.05 258.47-5.36 364.34-63.05 60.72-33.09 92.3-64.24 135.03-119.01 87.66-112.35 197.66-300.64 230.37-383 10.9-27.5-1.6-52.43-34.07-41.94-6.93 2.24-13.89 4.73-20.86 7.22 25.08-41.76 46.4-81.69 61.32-112.56 5.28-10.78 4.69-23.85-2.38-33.7-3.96-5.52-9.5-9.54-15.94-11.68 5.69-6.74 11.14-13.75 16.32-20.98 27.15-37.94 53.08-84.29 75.9-130.89 27.15-55.44 49.76-110.86 64.72-152.77 3.31-9.28 6.92-17.16 5.3-27.42-2.08-13.17-11.98-23.67-25.07-26.36a334.43 334.43 0 0 0 13.69-22.72c22.48-40.95 42.75-90.06 59.88-139.03 20.08-57.41 35.82-114.47 45.75-157.78 2.26-9.85 5.28-19.35 2.42-29.48-3.7-13.1-14.56-21.96-28.09-23.11 3.94-7.9 7.6-16.01 10.94-24.29 15.7-38.93 28.84-84.22 39.48-129.8 11.95-16.35 22.74-33.72 32.42-51.92 40.38-75.89 60.37-160.75 70.05-246.4 8.6-76.17 14.87-186.88 1.02-260.49-3.24-17.21-7.99-36.86-30.71-35.67-24.48 1.29-25.04 26.06-31.65 43.47-.58 1.54-1.22 3.04-1.85 4.56.03-11.42-.09-22.14-.33-31.96-.28-12.29-6.52-23.2-17.58-28.87-6.03-3.09-12.71-4.18-19.4-3.14 1.96-8.57 3.6-17.28 4.89-26.08 6.76-46.09 8.6-99.19 7.56-151.15-1.21-60.47-6.32-119.11-12.1-163.07-1.34-10.2-1.83-20.67-8.15-29.3-7.91-10.8-21.48-15.53-34.38-11.87.94-8.76 1.53-17.63 1.77-26.55 1.26-46.91-3.18-99.75-10.32-150.89-8.68-62.1-21.33-121.88-32.63-165.4-2.25-8.65-3.79-16.24-10.28-23.2a31.857 31.857 0 0 0 -35.55-7.71c-.12-8.76-.59-17.6-1.41-26.48l-.03-.31c3.81-14.66 6.93-29.73 9.3-45.23 18.43-120.43-8.2-265.76-98.39-443.39-6.35-12.51-31.12-63.41-40.57-70.17-6.55-4.69-14.22-5.74-21.12-3.93-13.66 3.59-19.61 14.8-19.61 28.17 1.04 16.51.28 32.46-2.07 47.92-2.27-6-4.58-11.98-6.93-17.91-24.39-61.69-52.86-120.4-74.95-160.79-2.71-5.01-6.59-9.27-11.26-12.35-11.05-7.28-25.56-6.99-36.27.83-2.18-8.49-4.7-16.96-7.58-25.36-15.18-44.35-37.81-92.39-62.41-137.91-30.17-55.83-63.48-108.21-89.53-145.29-4.33-6.17-7.41-11.11-13.89-15.06-6.03-3.68-13.62-5.5-20.69-4.64-7.01.85-12.86 3.77-17.92 8.45-3.18-8.24-6.72-16.41-10.59-24.45-20.33-42.24-48.48-87.23-78.28-129.48-35.14-49.84-72.72-96.09-102.4-129.51-6.74-7.59-12.09-14.9-22.13-18.51-12.72-4.58-26.34-.85-35.07 9.45a336.98 336.98 0 0 0 -13.4-23c-25.32-39.73-58.58-81.05-93.07-119.35-40.5-44.98-83.16-86.32-116.64-116.05-7.01-6.22-13.64-12.35-21.4-15.34a3276.116 3276.116 0 0 0 -166.64-130.15 3259.318 3259.318 0 0 0 -175.24-119.46c-43.87-27.86-75.25-41.22-91.58-43.29-7.43-.94-12.4.43-14.73 3.83-2.38 3.48-1.69 8.5 2.26 14.79 8.25 13.11 32.25 34.41 74.05 60.85a3223.919 3223.919 0 0 1 169.48 114.9 3221.973 3221.973 0 0 1 160.6 124.42c-.87 4.07-1.44 8.4-2.03 12.89-7.24 55.48-10.88 112.52-11.69 168.28-13.82-45.26-46.95-83.87-84.15-112.04-17.51-13.26-37.14-25.09-58.22-35-42.54-20-92.74-37.14-142.42-51.09-57.84-16.25-115.16-28.29-158.91-35.52-8.9-1.47-17.54-3.04-25.49-2.05a2859 2859 0 0 0 -36.15-21.99c-12.52-7.5-24.97-14.83-37.36-22.01-37.78-21.88-76.24-42.66-115.15-62.76-38.9-20.1-78.22-39.51-117.72-58.68-56-27.17-95.56-40.01-115.13-41.57-8.9-.71-14.46 1.01-16.42 4.88-1.99 3.93.02 9.31 6.32 15.84 13.45 13.94 48.61 36.42 108.59 64.48 37.43 17.51 74.58 35.87 111.41 55.06 37 19.27 73.38 39.22 109.11 59.8a2970.212 2970.212 0 0 1 76.39 45.56c.53 2.41 1.31 4.78 2.36 7.07 18.81 41.62 48.52 99.58 83.38 156.64 24.18 39.6 50.92 78.85 78.33 112.1-46.54 11.05-90.32 23.8-124.9 35.26a2696.95 2696.95 0 0 0 -131.33-89.16 2691.194 2691.194 0 0 0 -137.73-82.06c-52.35-29.11-96.93-46.48-119.87-50.33-9.08-1.53-15.39-.89-18.23 2.01-3.44 3.49-2.33 8.85 4.21 16.07 11.97 13.21 44.53 36.09 104.94 69.46 45.37 25.06 89.87 51.39 133.47 78.93 43.1 27.22 85.42 55.71 126.92 85.4l-.1.55c-3.27 19.91 9.79 29.13 23.21 39.31 35.37 26.82 84.04 60.44 136.31 91.6 31.33 18.67 63.9 36.41 95.59 51.19-4.98 4.18-8.49 9.44-10.3 15.7-3.45 11.89.28 24.17 9.09 32.71 27.02 26.72 65.03 61.21 107.4 95.44-4.81 6.2-6.1 12.02-7.85 19.16-.61 2.48-1.2 4.95-1.8 7.44a2598.48 2598.48 0 0 0 -55.21-50c-29.13-25.64-58.9-50.7-89.3-75.16-30.3-24.38-61.14-48.09-92.48-71.11-15.1-11.09-27.99-19.61-38.61-25.85-12.03-7.06-21.21-11.2-27.43-12.78-3.41-.87-6.34-1.05-8.76-.59-2.92.55-5.11 1.99-6.54 4.24-1.33 2.09-1.76 4.58-1.26 7.41.42 2.38 1.52 5.06 3.31 7.97v.01c3.61 5.88 10.67 13.93 21.2 23.64 9.29 8.56 21.35 18.48 36.21 29.41 30.73 22.6 60.94 45.85 90.6 69.75 29.64 23.88 58.82 48.48 87.52 73.76 13.71 12.08 27.21 24.22 40.48 36.41a2471.85 2471.85 0 0 1 30.22 28.22c-9.91 48.28-17.44 97.53-22.38 146.06-5.83-51.61-36.78-98.65-73.7-133.75-11.66-11.09-24.62-21.43-38.43-31.11 1.76-8.25 3.58-16.33 5.45-24.21 6.15-25.95 22.48-55.82-7.52-72.14-12.74-6.93-30.49.86-49.9 16.4-10.7 8.56-21.9 19.48-33.05 31.58-23.36-11.13-46.84-21.07-68.98-30.06-57.42-23.32-115.01-42.25-158.73-54.5-8.27-2.31-16.2-4.6-23.82-4.3a2398.804 2398.804 0 0 0 -95.35-66.87 2370.83 2370.83 0 0 0 -99.45-62.68c-45.65-27.22-77.33-40.05-93.54-41.9-7.65-.88-12.59.67-14.69 4.33-2.07 3.61-.97 8.73 3.42 15.03 9.56 13.71 36.32 35.97 81.65 63.01 32.58 19.44 64.75 39.73 96.45 60.81 31.39 20.88 62.27 42.51 92.56 64.84.8 5.04 2.44 10.23 4.26 15.68 14.51 43.54 36.64 101.21 63.17 158.11 18.01 38.62 38.28 77.35 59.94 111.83-46.65 6.2-90.22 14.14-124.48 21.68-5.12 1.13-10.08 2.23-14.64 3.79-11.04-9.67-22.07-19.12-33.07-28.35-11.47-9.63-23.13-19.2-34.96-28.69-35.95-28.87-66.54-45.3-83.49-49.11-7.18-1.62-12.46-1.03-15.35 1.75-3.18 3.07-3.31 8.04.19 14.84 6.7 13.01 28.15 35.54 69.6 67.53 12.95 9.99 25.82 20.13 38.58 30.44 12.35 9.98 24.58 20.13 36.64 30.46 2.71 9.16 10.02 16.12 17.78 23.46 28.97 27.42 68.13 61.58 111.18 95.01-2.36 73.21 10.1 147.78 38.33 222.56 48.32 128.03 140.41 250.6 267.55 361.46 21.29 18.57 52.11 32.9 80.48 23.25 13.9-4.73 22.92-11.98 28.27-21.04 4.65 5.63 9.33 11.16 14.03 16.58-6.39 1.55-12.03 4.99-16.4 9.91-4.32 4.89-6.87 10.69-7.73 16.8-1.34 9.56 1.72 16.34 4.86 24.78 12.37 33.24 29.68 74.94 50.18 118.19-92.52 152.96-104.35 350.87 41.17 627.31 8.43 16.03 16.45 34.45 38.61 28.25 20.94-5.86 18.04-24.58 18.19-41.59.07-7.93.63-15.79 1.65-23.58 2.49 19.09 5.4 38.72 8.76 58.42 5.72 33.51 12.77 67.37 21.31 99.33-12.9-2.69-25.95 2.33-33.39 13.36-5.22 7.73-5.55 14.71-6.4 23.31-3.01 30.36-5.47 68.29-6.44 109.28-99.17 62.85-160.35 174.45-199.39 282.83-22.63 62.82-36.73 149.86-45.13 216.46-4.29 33.99-21.77 136.72 20.59 139.43 19.49 1.24 39.5-27.93 56.95-52.77-7.13 20.82-14.12 42.64-20.62 64.82-13.97 47.68-25.71 97.06-31.72 141.88-312.91-151.39-641.46-260.93-976.97-328.67v-907.68c0-57.76-5.36-108.56-21.58-156.4-16.51-48.68-43.8-93.01-87.37-136.59l-699.29-699.29 1302.62 685.18c6.82 3.59 13.99 8.37 21.92 8.37 13.98 0 25.09-11.68 25.09-25.52 0-54.05-.02-108.09-.02-162.14 0-8.38-2.51-16.29-6.78-22.92-8.36-12.97-23.22-17.93-36.58-24.42-44.98-21.88-85.78-43.05-125.83-68.62-52.22-33.34-104.38-75.55-147.41-120.12-34.14-6.04-66.12-17.75-96.84-33.67-34.18-17.72-67.24-41.29-97.67-66.76-29.92-25.05-59.14-52.51-85.67-81.15 16.96.44 35.64 2.26 55.69 6.21 30.29 5.95 63.58 16.75 98.61 34.91 15.96 8.27 31.79 17.86 47.34 28.36 14.88 10.05 38.53 25.71 49.85 39.21 84.38-7.74 226.55 68.28 299.96 106.67 9.49 4.96 17.48 9.67 28.77 6.01 10.39-3.37 16.58-13.33 16.58-23.99l-.02-102.29v-23.37c0-10.31-3.47-19.19-9.79-26.94-6.12-7.49-13.13-10.58-21.88-15.18l-784.97-412.65-548.69 226.61-1133.54-468.16c-1.89-.78-3.77-1.77-5.34-3.15a15.53 15.53 0 0 1 -5.33-11.73c0-.85.07-1.69.2-2.5.47-2.92 1.65-5 2.99-7.49l358.26-662.62c6.63-12.26 10.62-20.37 26.02-14l29.28 12.09c34.46-18.61 73.04-35.03 117.23-26.07 37.17 7.54 58.94 29 89.3 49.48 34.38 23.2 73.81 40.83 115.28 55.82zm405.65 3570.04c-448.13 0-896.22 87.36-1315.89 262.02 376.12 329.1 845.98 493.66 1315.89 493.66s939.77-164.56 1315.89-493.66c-419.67-174.67-867.76-262.02-1315.89-262.02z" fill="#373435"/><path d="m2117.61 1435.87c34.26 149.85 47.76 307.25 20.95 459.22-39.43-36.37-70.73-64.06-119.32-91.63-47.96-27.22-110.93-52.6-177.13-50.75 59.27 96.42 127.45 217.68 157.23 339.09 29.81 121.51 16.39 159.72-21.02 269.74-15.21 44.72 5.12 42.35 31.56 19.3 145.79-127.12 275.69-298.91 289.21-498.3 12.41-182.98-68.55-311.27-181.48-446.66zm948.56 1618.77v894.78c17.16-3.17 34.34-6.21 51.53-9.17v-840.55c0-102.2 19.78-180.22 93.19-254.99l612.66-624.08 612.67 624.08c73.4 74.76 93.18 152.79 93.18 254.99v840.55c17.19 2.96 34.37 5.99 51.53 9.17v-894.78c0-100.34-16.5-172.97-89.44-245.92l-667.93-667.93-667.93 667.93c-72.95 72.95-89.44 145.58-89.44 245.92zm108.11 45.07v831.21a4151.733 4151.733 0 0 1 233.05-30.03v-246.92h276.93v-223.99h276.94v-223.99h511.62v-106.28c0-87.41-13.83-151.25-76.83-215.43l-572.44-583.11-572.44 583.11c-63 64.17-76.83 128.01-76.83 215.43zm1298.53 831.21v-223.69h-1012.23v188.65a4169.714 4169.714 0 0 1 362.96-15.83c217.16 0 434.32 16.97 649.27 50.87zm0-276.95v-170.74h-735.29v170.74zm0-223.99v-170.74h-458.36v170.74zm1056.67-1994.12c-34.26 149.85-47.76 307.25-20.95 459.22 39.43-36.37 70.73-64.06 119.32-91.63 47.96-27.22 110.93-52.6 177.13-50.75-59.27 96.42-127.45 217.68-157.23 339.09-29.81 121.51-16.39 159.72 21.02 269.74 15.21 44.72-5.12 42.35-31.56 19.3-145.79-127.12-275.69-298.91-289.21-498.3-12.41-182.98 68.55-311.27 181.48-446.66zm-1705.94-809.22c21.42-.06 43.14 1.73 64.98 5.5 101.41 17.52 186.11 74.49 241.08 152.42 30.17 42.78 51.38 91.87 61.49 144.24-23.16 7.46-46.67 14.4-70.03 21.29-70.29 20.74-139.3 41.1-196.19 74.08-36.32 21.05-88.17 61.76-101.34 103.74-13.17-41.98-65.02-82.69-101.34-103.74-56.89-32.98-125.9-53.34-196.19-74.08-23.36-6.89-46.86-13.83-70.03-21.29 10.11-52.36 31.33-101.46 61.49-144.24 54.97-77.93 139.67-134.89 241.08-152.42 21.84-3.77 43.56-5.56 64.98-5.5zm2898.55 4154.03c-44.52 90.25-103.15 180.22-156.86 265.33-25 39.62-51.66 79.26-82.88 112.08-17.27 18.16-35.32 33.26-55.92 47.4-109.55 75.2-254.89 91.71-401.01 76.27-132.52-14-265.36-54.19-373.46-101.02-97.25-42.13-173.6-89.03-210.57-126.35-5.84-5.89-21.35-22.6-20.57-29.92.89-8.48 35.15-13.12 73.75-18.35 25.04-3.39 51.48-6.98 75.59-13.81 28.61-8.11 32.9-12.51 49.52-33.86 34.27-44.02 200.42-257.38 252.97-324.22 84.54 50.31 424.73 238.66 775.2 166.28 25.26-5.21 49.88-11.42 74.24-19.84zm-2898.55-854.03c686.55 0 1373.02 171.2 1987.31 513.6 17.53 9.77 38.59 20.31 55.4 30.81 11.06 6.91 20.56 15.43 24.48 28.92 5.89 20.27-6.36 36.52-18.83 52.93-53.06 69.81-281 369.66-281 369.66-542.08-322.17-1154.74-483.29-1767.36-483.29s-1225.28 161.12-1767.36 483.29c0 0-227.93-299.85-281-369.66-12.48-16.42-24.72-32.67-18.83-52.93 3.92-13.49 13.42-22.01 24.48-28.92 16.81-10.5 37.87-21.04 55.4-30.81 614.29-342.4 1300.75-513.6 1987.31-513.6zm0 1361.52c487.74 0 975.47-173.42 1363.17-520.14a3377.754 3377.754 0 0 1 267.69 130.5c-13.44 18.85-55.29 71.26-71.17 97.35-20.1 33-2.59 62.41 21.73 87.74 40.5 42.19 123.73 94.28 228.61 139.72 103.99 45.05 230.18 84.18 357.77 101.15-26.84 27.83-54.15 55.06-81.89 82.16l147.6 179.26c-112.88 107.55-233.39 206.93-360.5 297.21l-147.6-179.27c-158.47 109.54-317.85 200.36-492.92 280.61l78.47 218.75c-142.73 63.26-289.47 115.7-439.87 157.57l-78.4-218.57c-186.29 49.35-366.98 80.66-558.95 96.78v232.18a3288.181 3288.181 0 0 1 -467.46 0v-232.18c-191.97-16.12-372.66-47.43-558.95-96.78l-78.4 218.57c-150.4-41.86-297.14-94.31-439.87-157.57l78.47-218.75c-175.07-80.25-334.45-171.07-492.92-280.61l-147.6 179.27c-127.11-90.28-247.62-189.66-360.5-297.21l147.6-179.26c-27.74-27.09-55.05-54.33-81.89-82.16 127.6-16.98 253.78-56.1 357.77-101.15 104.88-45.44 188.11-97.53 228.61-139.72 24.31-25.33 41.82-54.74 21.73-87.74-15.88-26.09-57.73-78.5-71.17-97.35a3374.294 3374.294 0 0 1 267.69-130.5c387.7 346.72 875.44 520.14 1363.17 520.14zm1535.01-3686.33c-15.29-26.49-29.96-55.32-43.51-84.39-22.94-49.2-42.31-98.3-56.08-137.76 40.29 11.8 90.38 28.66 140.46 49 18.55 7.53 37.08 15.54 55.07 23.93-31.53 39.83-57.74 80.24-63.56 89.78-11.95 19.57-22.74 39.39-32.38 59.43zm202.56-87.25c5.65 4.57 11.05 9.31 16.18 14.18 35.18 33.45 68.63 84.6 58.22 135.47-28.57-12.59-59.59-20.44-90.73-23.94 3.68-42.58 9.32-85.39 16.33-125.71zm254.09-510.35c-13.02-4.14-26.63-7.37-40.64-9.68-21.81-3.59-44.66-4.92-67.71-3.87-40.42 1.84-84.88 8.21-128.66 16.85-2.43-2.6-4.81-5.25-7.15-7.95-28.81-33.25-57.42-74.84-83.24-117.1-27.57-45.13-51.84-90.91-69.73-128.15 40.74 7.13 91.4 18.08 142.27 32.36 47.78 13.42 95.61 29.69 135.33 48.36 17.78 8.36 34.59 18.53 49.85 30.09 29.21 22.12 51.81 48.83 63.52 76.95 8.48 20.35 11.13 41.53 6.16 62.14zm49.48 225c-56.26 2.68-112.91 9.37-168.43 18.69a293.68 293.68 0 0 1 -20.83-7.23c-85.28-33.26-176.15-91.13-249.7-145.67 92.39-29.74 248.13-69.95 341.38-54.61 34.91 5.75 72.23 19.32 98.31 44.04 4.71 32.57 13.85 64.47 28.17 94.13-4.37 19.79-13.64 37.01-28.91 50.65zm193.77 13.79c-86.42 13.06-135.62-90.17-146.45-161.89-13.7-90.62-8.87-198.06 1.75-289.11 53.91 48.99 106.77 103.98 151.87 161.38 30.05 38.25 57.46 77.18 71.4 124.41-9.92 46.13-17.92 92.95-23.41 139.84-14.9 13.5-35.39 22.38-55.16 25.37zm65.07 195.59c-6.68 19.15-17.87 35.08-34.67 46.82-56.21-4.02-113.25-4.08-169.51-1.38a288.29 288.29 0 0 1 -19.87-9.66c-38.76-20.7-80.36-49.29-119.6-79.51-41.97-32.33-81.03-66.38-111.04-94.71 40.72-7.96 91.97-15.89 144.4-20.76 61.59-5.71 140.81-10.52 201.02 6.92 33.98 9.84 69.57 27.78 92.5 55.45.82 33.08 5.97 65.48 16.75 96.83zm156.13 83.55c-28.71.89-53.47-11.18-73.12-31.53-21.21-21.97-36.78-53.33-45.47-88.88-4.52-18.46-7.17-37.93-7.78-57.69-1.37-44.02 2.67-94.37 9.31-143.47 7.1-52.42 17.15-103.24 26.76-143.42 27.05 31.18 59.42 71.62 89.93 114.88 28.55 40.48 55.37 83.28 74.46 122.92 11.01 22.88 19.15 47.31 23.42 72.36-15.3 44.64-28.75 90.17-39.78 136.06-16.25 11.53-37.91 18.16-57.73 18.78zm41.33 201.94c-8.88 18.14-21.88 32.62-39.84 42.28-55.38-10.71-112.06-17.5-168.28-21.46-6.28-3.71-12.48-7.69-18.54-11.92-36.01-25.14-73.94-58.46-109.33-93.14-37.8-37.04-72.57-75.52-99.06-107.27 41.22-3.05 93.03-4.83 145.98-3.43 49.26 1.31 99.53 5.4 143 13.85 52.1 10.13 111.41 37.29 140.87 82.85-3.12 32.82-1.79 65.99 5.2 98.24zm145.03 101.3c-66.44-5.84-96.22-75.39-103.3-133.52-7.58-62.4 9.76-139.51 25.3-199.55 13.21-51.01 29.26-100.34 43.63-139.25 23.12 34.13 50.45 78.09 75.63 124.71 23.53 43.54 45.07 89.18 59.32 130.82 8.23 24.05 13.41 49.44 14.66 74.85-20.48 42.45-39.26 86.03-55.62 130.25-17.58 9.55-39.81 13.44-59.63 11.7zm17.25 205.31c-10.98 17.03-25.62 29.94-44.67 37.44-53.67-17.18-109.08-30.64-164.39-41.25-5.83-4.45-11.54-9.15-17.08-14.1-32.96-29.4-66.65-66.94-97.57-105.42-33.25-41.39-63.19-83.67-85.66-118.21 41.07 1.86 92.66 6.25 145.33 13.95 61.65 9.02 138.86 22.7 193.67 54.05 30.69 17.56 61.08 43.25 76.87 75.52-6.95 32.16-9.58 65.23-6.51 98.03zm52.6 31.31c-5.17-19.26-7.41-39.46-7.45-58.19-.13-62.87 26.33-137.32 48.88-195.11 19.27-49.35 41.01-96.39 59.79-133.16 18.84 36.5 40.73 83.38 60.3 132.89 9.57 24.22 18.54 48.92 26.21 73.14-35.31 67.6-103.2 125.67-187.74 180.43zm-234.26 132.31-.35-.57c-28.07-44.98-52.79-90.52-71.02-127.53 40.64 6.73 91.38 17.2 142.65 31.07 21.86 5.91 45.74 12.69 69.71 20.74-44.98 25.43-92.5 50.6-140.81 76.18l-.19.1zm391.85 496.71c-14.68 13.98-31.94 23.02-52.23 25.78-26-15.83-52.73-30.73-79.91-44.76 54.72-29.35 107.09-60.73 154.84-96.03 1.77 4.38 3.31 8.76 4.6 13.16.79 2.68 1.48 5.35 2.07 8.03-14.32 29.6-24.63 61.24-29.38 93.82zm100.52 145.69c-25.89-12.33-42.36-34.36-50.49-61.39-8.83-29.31-8.32-64.36.22-99.96 14.58-60.74 58.09-127.53 93.39-178.05 30.19-43.21 62.43-83.82 89.47-115.25 9.8 40.17 20.08 90.95 27.39 143.27 6.86 49.13 11.13 99.48 9.96 143.42-.68 25.36-4.66 50.86-12.31 75.07-34.04 32.67-66.85 66.97-97.64 102.72-20.01 2.85-41.82-1.21-59.97-9.85zm-55.64 198.56c-16.23 12.03-34.47 18.96-54.86 19.32-44.32-34.82-91.6-66.84-139.71-96.12-27.7-44.08-49.33-102.69-65.65-151.89-9.03-27.23-17.08-54.5-24.01-80.23 18.89-9.17 37.69-18.42 56.3-27.83 19.55 9.58 39.81 20.03 60.04 31.12 54.18 29.73 122.58 70.08 162.68 118.2 22.65 27.19 42.08 61.98 45.59 97.76-17.81 27.8-31.79 57.76-40.38 89.67zm82.57 156.5c-24.19-15.27-37.91-39.13-42.8-67.02-5.27-30.05-.6-64.78 12.12-99.17 21.84-59.03 72.4-119.37 113.76-165.71 35.24-39.48 72.05-75.98 102.52-103.91 4.98 41.13 9.19 92.83 10.24 145.59.99 49.26-.77 99.66-7.2 143.5-3.68 25.13-10.68 50.03-21.16 73.19-37.62 28.38-74.22 58.52-109.01 90.34-19.94.46-41.71-6.22-58.48-16.81zm-188.34 153.47c-25.28-22.51-50.83-43.64-74.47-62.16-22.34-46.91-36.82-108.04-47.17-158.72-10.56-51.7-17.81-103.02-21.98-144.21 35.97 20.6 79.92 48.13 122.82 78.8 50.47 36.08 113.21 83.93 147.45 136.68 19.27 29.69 34.44 66.47 33.71 102.41a351.775 351.775 0 0 0 -17.8 23.54c-44.87 9.18-92.73 16.82-142.56 23.66zm216.53-41.1c23.55-25.89 50.67-51.89 78.41-76.38 39.59-34.96 80.49-66.84 114.12-90.99.03 22.18-.53 47.41-1.87 74.19-44.76 42.21-110.89 71.42-190.66 93.17zm-347.69 57.37c-.62-22.9-.69-44.44-.36-63.65 20.99 15.62 44.95 34.48 69.77 55.4-22.87 2.83-46.03 5.55-69.41 8.25zm246.83 537.38c-9.05-9.33-15.58-19.88-19.85-31.26 75.13-18.6 145.64-43.73 208.11-78.64 15.89-8.88 30.78-18.9 44.71-29.94-4.71 14.52-9.73 28.51-15.06 41.72-9.49 23.52-22.11 46.05-37.74 66.06-43.31 18.73-86.03 39.41-127.37 62.17-19.58-4.27-38.93-15.81-52.8-30.12zm-121.28 166.6c-19.46 5.69-38.89 5.85-58.2-.98-29.37-48.13-62.49-94.56-97.41-138.78-1.11-5.32-2.08-10.69-2.89-16.11 73.26-7.37 145.79-17.16 215.09-31.74 1.35 3.38 2.62 6.78 3.81 10.17 11.75 33.41 17.82 72.75 8.65 107.53-26.35 19.81-49.89 43.04-69.05 69.91zm22.68 175.52c-17.38-22.81-21.92-49.97-16.78-77.8 5.54-29.95 22.02-60.82 45.91-88.57 12.36-14.35 26.69-27.83 42.53-39.9 35.01-26.69 78.29-52.63 122.04-75.71 46.86-24.73 94.06-46.08 132.29-61.59-9.68 40.27-23.79 90.18-41.22 140-16.29 46.58-35.52 93.21-56.78 131.93-12.24 22.29-27.41 43.15-45.36 61.2-34.36 10.25-73.11 23.13-111.95 38.05-7.26 2.79-14.51 5.65-21.74 8.57-18.75-6.47-36.91-20.38-48.94-36.18zm-140.18 151.06c-19.92 3.33-39.42 1.15-57.71-7.85-23.46-51.28-50.86-101.38-80.28-149.45-.63-7.24-.99-14.56-1.07-21.92-.46-44.09 4.61-94.34 12.25-143.24 8.13-52.03 19.27-102.7 29.77-142.84 26.28 31.61 57.77 72.68 87.51 116.76 27.79 41.19 53.75 84.54 71.93 124.38 8.24 18.07 14.5 36.68 18.61 55.13 7.69 34.53 9.1 74.37-4.12 107.79-28.5 16.52-54.69 36.87-76.89 61.25zm1.69 177.03c-14.55-24.7-15.84-52.22-7.42-79.27 15.37-49.38 59.12-91.3 102.96-117.12 38.06-22.42 84.1-43.06 130.2-60.77 49.26-18.92 98.72-34.52 138.69-45.42-14.42 38.93-34.34 86.84-57.49 134.13-21.7 44.32-46.34 88.36-72.08 124.33-14.75 20.62-32.23 39.49-52.11 55.24-46.54 8.02-93 18.08-138.57 30.48-18-8.74-34.08-24.46-44.18-41.61zm-157.21 133.27c-20.23.91-39.18-3.52-56.31-14.7-17.24-53.64-38.46-106.6-61.92-157.78.23-7.3.75-14.67 1.55-22.05 4.75-43.72 15.75-92.98 29.13-140.63 14.28-50.82 31.32-99.77 46.46-138.29 22.46 34.65 48.9 79.2 73.09 126.28 28.43 55.31 62.24 126.26 68.55 188.96 3.55 35.21.24 74.89-16.86 106.52-30.39 13.11-58.68 30-83.7 51.69zm6.4 59.44c11.62-13.82 25.83-26.76 41.95-38.33 51.31-36.8 126.66-58.32 187.06-73.61 51.31-12.99 102.25-22.62 143.13-28.7-18.85 36.77-44.29 81.89-73 126.27l-2.16 3.33c-101.41 23.86-202.64 23.98-296.98 11.04zm-1054.9-2985.65c-27.28-22.1-52.32-43.93-73.14-63.16 26.27-5.46 57.01-10.97 89.76-15.7-7.47 26.02-13.03 52.33-16.62 78.86zm236.17-89.47c14.36 1.7 28.37 4.45 41.77 8.17 30.99 8.59 58.62 22.28 79.51 40.15-50.86 20.85-93.27 48.8-120.71 69.34-2.68-36.34-2.68-76.42-.56-117.66zm313.63 244.92c-29.22 1.25-54.56-10.75-74.78-31.22a139.27 139.27 0 0 1 -4.23-4.48c20.44-38.73 42.58-76.7 64.85-113.1 10.3-16.85 28.14-36.66 17.3-57.47-5.14-9.85-14.82-16.87-26.69-17.39-37.05-4.39-73.35-.93-107.46 7.15.59-34.78 3.7-72.04 8.23-108.71 6.63-53.66 16.29-105.58 25.59-146.47 27.96 31.46 61.49 72.32 93.03 115.97 29.36 40.63 57.05 83.71 76.94 123.85 11.9 24.02 20.71 49.76 25.19 76.22-17.18 45.73-32.39 92.49-45.08 139.67-15.38 9.53-34.8 15.21-52.89 15.98zm29.59 215.08c-10.53 20.55-26.12 36.02-47.61 45.17-50.97-12.76-103.26-22.29-155.4-29.33 6.11-51.05 21.68-103.92 42.9-156.7 6.08-15.12 12.62-30.24 19.55-45.31 18.38 4.25 35.95 10.13 52.18 17.41 32.81 14.73 66.08 37.81 85.23 68.94-3.88 33.44-3.27 66.72 3.16 99.82zm144.49 106.24c-67.19-7.33-96.31-78.94-102.24-138-6.38-63.54 12.94-141.31 30.01-201.97 14.68-52.17 32.05-102.04 47.38-140.99 22.94 35.35 49.94 80.84 74.53 128.72 22.95 44.69 43.84 91.47 57.41 134.03 8.12 25.46 12.89 52.39 13.35 79.14-23.88 42.64-45.98 86.61-65.64 131.35-16.65 7.1-36.89 9.68-54.8 7.72zm-157.87 217.17c-21.25-6.99-41.99-13.29-61.47-18.83-37.27-32.94-73.17-78.99-102.57-119.65-10.51-27.3-21.37-48.57-25.67-80.67-1.84-13.73-2.73-27.71-2.75-41.88 29.11 3.99 60.49 9.13 91.98 15.47 61.67 12.43 139.83 30.82 193.39 65.39 26.41 17.05 48.3 37.78 62.9 60.43-56.44 36.83-109.37 76.31-155.8 119.76zm240.91-172.13c6.48-16.09 13.43-32.22 20.63-48.12 22.33-49.24 47.04-95.94 68.13-132.21 13.68 30.33 28.96 67.43 43.27 107.1-44.3 23.68-88.71 47.92-132.03 73.23zm-321.58 261.23c-11.92-26.3-22.38-51.31-30.95-73.33 22.42 5.71 47.85 12.84 74.64 21.19-15.61 16.77-30.21 34.14-43.69 52.14zm432.87 396.35c-26.75-11.68-44.24-33.56-53.43-60.81-2.5-7.4-4.4-15.19-5.74-23.3 68.93-39.75 144.26-75.63 219.7-111.56l6.39-3.05c1.18 35.38-1.29 70.4-10.53 101.85-35.51 33.57-69.73 68.94-101.83 105.79-17.98 1.8-38.08-1.73-54.56-8.93zm-67.73 206.35c-18.47 13.73-39.31 20.81-62.55 19.64-43.67-36.82-90.47-70.8-138.23-102.07-6.48-10.73-12.63-22.2-18.45-34.13 41.31-46.35 95.43-89.15 154.1-128.17 5.95 4.34 11.72 8.71 17.28 13.09 15.99 12.6 30.31 26.47 42.49 41.09 23.06 27.66 42.82 63.05 46.36 99.46-18.09 28.3-32.27 58.62-40.99 91.09zm83.32 158.84c-57.22-36.1-51.89-113.27-31.29-168.99 6.7-18.12 15.53-36 26.24-52.97 23.75-37.64 55.76-77.68 89.29-115.27 36.09-40.45 73.56-77.63 104.41-105.9 5.1 41.84 9.41 94.56 10.5 148.37 1.44 71.38.74 156.9-29.99 222.66-40.11 27.79-79.23 57.55-116.47 89.09-17.99-.91-37.51-7.43-52.68-17zm-245.11 118.2a1583.28 1583.28 0 0 0 -39.02-36.19c-19.71-47.48-31.88-107.02-40.51-157.55-9.11-53.37-14.82-105.83-17.69-147.59l.06-.1c78.93 48.66 168.56 113.07 231.86 180.73 30.01 32.07 57 76.37 64.66 121.11-69 10.46-138 23.26-199.37 39.59zm315.84-55.39c7.82-6.79 15.75-13.5 23.73-20.09 41.86-34.61 84.52-65.74 119.25-89.01-.83 27.39-2.7 59.4-5.87 93.28-41.27 4.68-87.99 9.8-137.1 15.83zm-418.9 89.92c.9-22.13 2.22-42.98 3.79-61.66 14.71 12.48 30.88 26.78 47.69 42.37-18.29 6.01-35.54 12.43-51.48 19.3zm214.51 563.94c-24.04-28.24-26.73-63.84-17.23-98.27 54.06-4.98 110.64-8.85 168.33-12.78 30.24-2.06 60.78-4.14 91.42-6.42-15.36 36.69-34.48 71.62-59.47 98.97-46.59 14.62-92.8 31.45-137.8 50.45-16.84-6.19-33.69-18.35-45.26-31.95zm-151.28 155.63c-22.67 4.34-44.51 1.56-64.93-9.74-23.14-52.23-50.27-103.35-79.44-152.42-1.15-12.74-1.64-26.06-1.62-39.65 55.75-20.52 122.86-33.66 196.91-43.1 12.06 23.75 21.98 47.91 27.74 71.4 8.58 34.95 10.84 75.43-1.92 109.69-28.66 17.47-54.67 38.49-76.73 63.81zm5.12 179.38c-15.33-24.79-17.23-52.79-9.23-80.55 8.57-29.77 28.27-59.35 55.15-85.03 14.01-13.38 29.81-25.59 46.87-36.15 38.12-23.57 84.37-45.5 130.74-64.47 49.76-20.35 99.9-37.33 140.4-49.28-13.72 39.62-32.97 88.82-55.73 137.94-21.1 45.54-45.13 90.77-70.35 127.67-11.39 16.66-24.28 31.87-38.15 45.12a254.34 254.34 0 0 1 -15.98 14.06c-48.28 7.45-96.44 17.07-143.81 29.05-15.73-8.69-30.44-23.07-39.91-38.38zm-290.55-59.64c4.24-51.19 18.78-105.93 31.92-150.78 15.2-51.88 33.12-101.58 48.9-140.44 22.57 35.62 49.1 81.4 73.18 129.56 28.1 56.19 61.77 129.19 67.45 192.6 2.42 27 .83 56.53-7.68 83.11-7.88-4.41-16.1-8.6-24.34-13.27-62.41-35.36-125.59-68.94-189.42-100.78zm263.63 165.97c29.67-10.09 61.43-18.96 93.06-26.6 52.38-12.64 104.42-21.87 146.1-27.57-19.6 37.25-46.05 83.02-75.81 127.94-24.79 37.41-51.86 74.21-79.12 104.95-52.16-24.19-92.14-46.63-115.68-60.49 10.9-17.1 28.73-43.07 34-61.47 5.34-18.69 4.37-38.75-2.54-56.76zm166.06 213.56a1193.27 1193.27 0 0 1 17.07-43.47c20.24-48.84 42.93-95.4 62.48-131.78 18.3 37.24 39.32 84.68 57.68 134.06 11.47 30.86 21.96 62.59 30.15 93.2-60.82-14.12-117.34-32.59-167.37-52.01zm-2250.03-2858.72c18.13-45.03 57.75-105.57 144.09-144.88 0 0 107.43-53.99 280.31-99.8 0 0 243.78-65.45 405.75-188.69l-248.41-557.9s43.08-17.86 82.35 11.59l335.12 618.56-961.5 398.82-37.7-37.7zm-4.35-77.26c30.73-38.9 98.34-106.33 219.34-145.05l238.32-75.8s238.32-72.54 324.48-150.52l-235.59-525.99c-155.13 138.26-446.28 112.39-546.55 277.08zm484.11 29.36 820.67 431.42c1.93.79 3.31 2.82 3.31 5.19v46.74c0 6.12-5.14 6.13-9.09 4.06-107.71-56.31-187.62-99.2-291.76-105.11-29.89-24.29-62.21-46.72-95.89-64.18-73.8-38.25-140.33-45.5-188.92-42.99-7.53-4.96-15.25-9.56-23.12-13.63-79.19-41.04-142.54-14.42-142.54-14.42s65.03 93.17 144.22 134.21c7.86 4.07 15.56 7.47 23.07 10.31 49.37 53.29 116.68 115.41 190.47 153.66 33.68 17.46 65.84 28.44 95.48 35.01 103.8 101.1 187.06 145.38 294.72 197.05 1.96.78 3.36 2.82 3.36 5.22v44.62c0 4.51.02 9.02.02 13.53 0 3.07-2.29 5.55-5.12 5.55-1.39 0-2.2-.54-3.37-1.16l-1259.07-661.89zm2783.98 1410.59c1.1 26.4.94 55.23.06 82.87-3.59 112.91-18.37 234.37-72.11 335.36-29.79 55.99-70.54 102.73-126.3 133.89-176.32 98.52-427.2 115.63-660.34 131.54-206.61 14.09-399.7 27.27-522.85 95.63-35.69 19.81-66.89 44.95-90.53 78.19 5.46-74.5 22.43-186.29 47.89-256.97 22.49-62.43 50.94-121.02 87.07-169.79 35.29-47.65 77.95-85.85 129.59-108.84 94.14-41.91 204.22-58.29 314.82-74.76 79.57-11.84 159.2-21.09 239.11-30.19 288.81-32.88 557-63.44 653.58-216.93zm-321.09-1364.7c84.05 166.62 109.09 301.56 92.17 412.14-18.23 119.12-85.82 210.96-180.8 284.37-96.31 74.43-217.5 132.16-338.4 189.74-90.3 43.01-180.46 85.95-261.66 136.51-78.1 48.63-152 103.93-205.65 165.95-37.96 43.89-65.79 91.09-78.07 141.66-248.66-527.54 149.31-738.38 504.69-926.59 223.9-118.58 431.71-228.68 467.73-403.78zm-5866.16 2949.07c44.52 90.25 103.15 180.22 156.86 265.33 25 39.62 51.66 79.26 82.88 112.08 17.27 18.16 35.32 33.26 55.92 47.4 109.55 75.2 254.89 91.71 401.01 76.27 132.52-14 265.36-54.19 373.46-101.02 97.25-42.13 173.6-89.03 210.57-126.35 5.84-5.89 21.35-22.6 20.57-29.92-.89-8.48-35.15-13.12-73.75-18.35-25.04-3.39-51.48-6.98-75.59-13.81-28.61-8.11-32.9-12.51-49.52-33.86-34.27-44.02-200.42-257.38-252.97-324.22-84.54 50.31-424.73 238.66-775.2 166.28-25.26-5.21-49.88-11.42-74.24-19.84zm1363.53-3178.84c15.29-26.49 29.96-55.32 43.51-84.39 22.94-49.2 42.31-98.3 56.08-137.76-40.29 11.8-90.38 28.66-140.46 49-18.55 7.53-37.08 15.54-55.07 23.93 31.53 39.83 57.74 80.24 63.56 89.78 11.95 19.57 22.74 39.39 32.38 59.43zm-202.56-87.25c-5.65 4.57-11.05 9.31-16.18 14.18-35.18 33.45-68.63 84.6-58.22 135.47 28.57-12.59 59.59-20.44 90.73-23.94-3.68-42.58-9.32-85.39-16.33-125.71zm-254.09-510.35c13.02-4.14 26.63-7.37 40.64-9.68 21.81-3.59 44.66-4.92 67.71-3.87 40.42 1.84 84.88 8.21 128.66 16.85 2.43-2.6 4.81-5.25 7.15-7.95 28.81-33.25 57.42-74.84 83.24-117.1 27.57-45.13 51.84-90.91 69.73-128.15-40.74 7.13-91.4 18.08-142.27 32.36-47.78 13.42-95.61 29.69-135.33 48.36-17.78 8.36-34.59 18.53-49.85 30.09-29.21 22.12-51.81 48.83-63.52 76.95-8.48 20.35-11.13 41.53-6.16 62.14zm-49.48 225c56.26 2.68 112.91 9.37 168.43 18.69a293.68 293.68 0 0 0 20.83-7.23c85.28-33.26 176.15-91.13 249.7-145.67-92.39-29.74-248.13-69.95-341.38-54.61-34.91 5.75-72.23 19.32-98.31 44.04-4.71 32.57-13.85 64.47-28.17 94.13 4.37 19.79 13.64 37.01 28.91 50.65zm-193.77 13.79c86.42 13.06 135.62-90.17 146.45-161.89 13.7-90.62 8.87-198.06-1.75-289.11-53.91 48.99-106.77 103.98-151.87 161.38-30.05 38.25-57.46 77.18-71.4 124.41 9.92 46.13 17.92 92.95 23.41 139.84 14.9 13.5 35.39 22.38 55.16 25.37zm-65.07 195.59c6.68 19.15 17.87 35.08 34.67 46.82 56.21-4.02 113.25-4.08 169.51-1.38 6.7-2.94 13.33-6.17 19.87-9.66 38.76-20.7 80.36-49.29 119.6-79.51 41.97-32.33 81.03-66.38 111.04-94.71-40.72-7.96-91.97-15.89-144.4-20.76-61.59-5.71-140.81-10.52-201.02 6.92-33.98 9.84-69.57 27.78-92.5 55.45-.82 33.08-5.97 65.48-16.75 96.83zm-156.13 83.55c28.71.89 53.47-11.18 73.12-31.53 21.21-21.97 36.78-53.33 45.47-88.88 4.52-18.46 7.17-37.93 7.78-57.69 1.37-44.02-2.67-94.37-9.31-143.47-7.1-52.42-17.15-103.24-26.76-143.42-27.05 31.18-59.42 71.62-89.93 114.88-28.55 40.48-55.37 83.28-74.46 122.92-11.01 22.88-19.15 47.31-23.42 72.36 15.3 44.64 28.75 90.17 39.78 136.06 16.25 11.53 37.91 18.16 57.73 18.78zm-41.33 201.94c8.88 18.14 21.88 32.62 39.84 42.28 55.38-10.71 112.06-17.5 168.28-21.46 6.28-3.71 12.48-7.69 18.54-11.92 36.01-25.14 73.94-58.46 109.33-93.14 37.8-37.04 72.57-75.52 99.06-107.27-41.22-3.05-93.03-4.83-145.98-3.43-49.26 1.31-99.53 5.4-143 13.85-52.1 10.13-111.41 37.29-140.87 82.85 3.12 32.82 1.79 65.99-5.2 98.24zm-145.03 101.3c66.44-5.84 96.22-75.39 103.3-133.52 7.58-62.4-9.76-139.51-25.3-199.55-13.21-51.01-29.26-100.34-43.63-139.25-23.12 34.13-50.45 78.09-75.63 124.71-23.53 43.54-45.07 89.18-59.32 130.82-8.23 24.05-13.41 49.44-14.66 74.85 20.48 42.45 39.26 86.03 55.62 130.25 17.58 9.55 39.81 13.44 59.63 11.7zm-17.25 205.31c10.98 17.03 25.62 29.94 44.67 37.44 53.67-17.18 109.08-30.64 164.39-41.25 5.83-4.45 11.54-9.15 17.08-14.1 32.96-29.4 66.65-66.94 97.57-105.42 33.25-41.39 63.19-83.67 85.66-118.21-41.07 1.86-92.66 6.25-145.33 13.95-61.65 9.02-138.86 22.7-193.67 54.05-30.69 17.56-61.08 43.25-76.87 75.52 6.95 32.16 9.58 65.23 6.51 98.03zm-52.6 31.31c5.17-19.26 7.41-39.46 7.45-58.19.13-62.87-26.33-137.32-48.88-195.11-19.27-49.35-41.01-96.39-59.79-133.16-18.84 36.5-40.73 83.38-60.3 132.89-9.57 24.22-18.54 48.92-26.21 73.14 35.31 67.6 103.2 125.67 187.74 180.43zm234.26 132.31.35-.57c28.07-44.98 52.79-90.52 71.02-127.53-40.64 6.73-91.38 17.2-142.65 31.07-21.86 5.91-45.74 12.69-69.71 20.74 44.98 25.43 92.5 50.6 140.81 76.18l.19.1zm-391.85 496.71c14.68 13.98 31.94 23.02 52.23 25.78 26-15.83 52.73-30.73 79.91-44.76-54.72-29.35-107.09-60.73-154.84-96.03-1.77 4.38-3.31 8.76-4.6 13.16-.79 2.68-1.48 5.35-2.07 8.03 14.32 29.6 24.63 61.24 29.38 93.82zm-100.52 145.69c25.89-12.33 42.36-34.36 50.49-61.39 8.83-29.31 8.32-64.36-.22-99.96-14.58-60.74-58.09-127.53-93.39-178.05-30.19-43.21-62.43-83.82-89.47-115.25-9.8 40.17-20.08 90.95-27.39 143.27-6.86 49.13-11.13 99.48-9.96 143.42.68 25.36 4.66 50.86 12.31 75.07 34.04 32.67 66.85 66.97 97.64 102.72 20.01 2.85 41.82-1.21 59.97-9.85zm55.64 198.56c16.23 12.03 34.47 18.96 54.86 19.32 44.32-34.82 91.6-66.84 139.71-96.12 27.7-44.08 49.33-102.69 65.65-151.89 9.03-27.23 17.08-54.5 24.01-80.23-18.89-9.17-37.69-18.42-56.3-27.83-19.55 9.58-39.81 20.03-60.04 31.12-54.18 29.73-122.58 70.08-162.68 118.2-22.65 27.19-42.08 61.98-45.59 97.76 17.81 27.8 31.79 57.76 40.38 89.67zm-82.57 156.5c24.19-15.27 37.91-39.13 42.8-67.02 5.27-30.05.6-64.78-12.12-99.17-21.84-59.03-72.4-119.37-113.76-165.71-35.24-39.48-72.05-75.98-102.52-103.91-4.98 41.13-9.19 92.83-10.24 145.59-.99 49.26.77 99.66 7.2 143.5 3.68 25.13 10.68 50.03 21.16 73.19 37.62 28.38 74.22 58.52 109.01 90.34 19.94.46 41.71-6.22 58.48-16.81zm188.34 153.47c25.28-22.51 50.83-43.64 74.47-62.16 22.34-46.91 36.82-108.04 47.17-158.72 10.56-51.7 17.81-103.02 21.98-144.21-35.97 20.6-79.92 48.13-122.82 78.8-50.47 36.08-113.21 83.93-147.45 136.68-19.27 29.69-34.44 66.47-33.71 102.41 6.29 7.64 12.22 15.47 17.8 23.54 44.87 9.18 92.73 16.82 142.56 23.66zm-216.53-41.1c-23.55-25.89-50.67-51.89-78.41-76.38-39.59-34.96-80.49-66.84-114.12-90.99-.03 22.18.53 47.41 1.87 74.19 44.76 42.21 110.89 71.42 190.66 93.17zm347.69 57.37c.62-22.9.69-44.44.36-63.65-20.99 15.62-44.95 34.48-69.77 55.4 22.87 2.83 46.03 5.55 69.41 8.25zm-246.83 537.38c9.05-9.33 15.58-19.88 19.85-31.26-75.13-18.6-145.64-43.73-208.11-78.64a335.025 335.025 0 0 1 -44.71-29.94c4.71 14.52 9.73 28.51 15.06 41.72 9.49 23.52 22.11 46.05 37.74 66.06 43.31 18.73 86.03 39.41 127.37 62.17 19.58-4.27 38.93-15.81 52.8-30.12zm121.28 166.6c19.46 5.69 38.89 5.85 58.2-.98 29.37-48.13 62.49-94.56 97.41-138.78 1.11-5.32 2.08-10.69 2.89-16.11-73.26-7.37-145.79-17.16-215.09-31.74-1.35 3.38-2.62 6.78-3.81 10.17-11.75 33.41-17.82 72.75-8.65 107.53 26.35 19.81 49.89 43.04 69.05 69.91zm-57.34 205.36c6.46-3.55 12.75-7.91 18.8-13.11v-.09c6.28-5.4 11.55-10.96 15.87-16.63 17.38-22.81 21.92-49.97 16.78-77.8-5.54-29.95-22.02-60.82-45.91-88.57-12.36-14.35-26.69-27.83-42.53-39.9-35.01-26.69-78.29-52.63-122.04-75.71-46.86-24.73-94.06-46.08-132.29-61.59 9.68 40.27 23.79 90.18 41.22 140 16.29 46.58 35.52 93.21 56.78 131.93 9.6 17.48 20.77 33.63 33.05 47.89 3.99 4.64 8.1 9.08 12.31 13.31 34.36 10.25 73.11 23.13 111.95 38.05 7.26 2.79 14.51 5.65 21.74 8.57 4.83-1.67 9.6-3.77 14.28-6.34zm174.84 121.22c19.92 3.33 39.42 1.15 57.71-7.85 23.46-51.28 50.86-101.38 80.28-149.45.63-7.24.99-14.56 1.07-21.92.46-44.09-4.61-94.34-12.25-143.24-8.13-52.03-19.27-102.7-29.77-142.84-26.28 31.61-57.77 72.68-87.51 116.76-27.79 41.19-53.75 84.54-71.93 124.38-8.24 18.07-14.5 36.68-18.61 55.13-7.69 34.53-9.1 74.37 4.12 107.79 28.5 16.52 54.69 36.87 76.89 61.25zm-1.69 177.03c14.55-24.7 15.84-52.22 7.42-79.27-15.37-49.38-59.12-91.3-102.96-117.12-38.06-22.42-84.1-43.06-130.2-60.77-49.26-18.92-98.72-34.52-138.69-45.42 14.42 38.93 34.34 86.84 57.49 134.13 21.7 44.32 46.34 88.36 72.08 124.33 14.75 20.62 32.23 39.49 52.11 55.24 46.54 8.02 93 18.08 138.57 30.48 18-8.74 34.08-24.46 44.18-41.61zm157.21 133.27c20.23.91 39.18-3.52 56.31-14.7 17.24-53.64 38.46-106.6 61.92-157.78-.23-7.3-.75-14.67-1.55-22.05-4.75-43.72-15.75-92.98-29.13-140.63-14.28-50.82-31.32-99.77-46.46-138.29-22.46 34.65-48.9 79.2-73.09 126.28-28.43 55.31-62.24 126.26-68.55 188.96-3.55 35.21-.24 74.89 16.86 106.52 30.39 13.11 58.68 30 83.7 51.69zm-6.4 59.44c-11.62-13.82-25.83-26.76-41.95-38.33-51.31-36.8-126.66-58.32-187.06-73.61-51.31-12.99-102.25-22.62-143.13-28.7 18.85 36.77 44.29 81.89 73 126.27l2.16 3.33c101.41 23.86 202.64 23.98 296.98 11.04zm1054.9-2985.65c27.28-22.1 52.32-43.93 73.14-63.16-26.27-5.46-57.01-10.97-89.76-15.7 7.47 26.02 13.03 52.33 16.62 78.86zm-236.17-89.47c-14.36 1.7-28.37 4.45-41.77 8.17-30.99 8.59-58.62 22.28-79.51 40.15 50.86 20.85 93.27 48.8 120.71 69.34 2.68-36.34 2.68-76.42.56-117.66zm-313.63 244.92c29.22 1.25 54.56-10.75 74.78-31.22 1.43-1.45 2.84-2.94 4.23-4.48-20.44-38.73-42.58-76.7-64.85-113.1-10.3-16.85-28.14-36.66-17.3-57.47 5.14-9.85 14.82-16.87 26.69-17.39 37.05-4.39 73.35-.93 107.46 7.15-.59-34.78-3.7-72.04-8.23-108.71-6.63-53.66-16.29-105.58-25.59-146.47-27.96 31.46-61.49 72.32-93.03 115.97-29.36 40.63-57.05 83.71-76.94 123.85-11.9 24.02-20.71 49.76-25.19 76.22 17.18 45.73 32.39 92.49 45.08 139.67 15.38 9.53 34.8 15.21 52.89 15.98zm-29.59 215.08c10.53 20.55 26.12 36.02 47.61 45.17 50.97-12.76 103.26-22.29 155.4-29.33-6.11-51.05-21.68-103.92-42.9-156.7-6.08-15.12-12.62-30.24-19.55-45.31-18.38 4.25-35.95 10.13-52.18 17.41-32.81 14.73-66.08 37.81-85.23 68.94 3.88 33.44 3.27 66.72-3.16 99.82zm-144.49 106.24c67.19-7.33 96.31-78.94 102.24-138 6.38-63.54-12.94-141.31-30.01-201.97-14.68-52.17-32.05-102.04-47.38-140.99-22.94 35.35-49.94 80.84-74.53 128.72-22.95 44.69-43.84 91.47-57.41 134.03-8.12 25.46-12.89 52.39-13.35 79.14 23.88 42.64 45.98 86.61 65.64 131.35 16.65 7.1 36.89 9.68 54.8 7.72zm157.87 217.17c21.25-6.99 41.99-13.29 61.47-18.83 37.27-32.94 73.17-78.99 102.57-119.65 10.51-27.3 21.37-48.57 25.67-80.67 1.84-13.73 2.73-27.71 2.75-41.88-29.11 3.99-60.49 9.13-91.98 15.47-61.67 12.43-139.83 30.82-193.39 65.39-26.41 17.05-48.3 37.78-62.9 60.43 56.44 36.83 109.37 76.31 155.8 119.76zm-240.91-172.13c-6.48-16.09-13.43-32.22-20.63-48.12-22.33-49.24-47.04-95.94-68.13-132.21-13.68 30.33-28.96 67.43-43.27 107.1 44.3 23.68 88.71 47.92 132.03 73.23zm321.58 261.23c11.92-26.3 22.38-51.31 30.95-73.33-22.42 5.71-47.85 12.84-74.64 21.19 15.61 16.77 30.21 34.14 43.69 52.14zm-432.87 396.35c26.75-11.68 44.24-33.56 53.43-60.81 2.5-7.4 4.4-15.19 5.74-23.3-68.93-39.75-144.26-75.63-219.7-111.56l-6.39-3.05c-1.18 35.38 1.29 70.4 10.53 101.85 35.51 33.57 69.73 68.94 101.83 105.79 17.98 1.8 38.08-1.73 54.56-8.93zm67.73 206.35c18.47 13.73 39.31 20.81 62.55 19.64 43.67-36.82 90.47-70.8 138.23-102.07 6.48-10.73 12.63-22.2 18.45-34.13-41.31-46.35-95.43-89.15-154.1-128.17-5.95 4.34-11.72 8.71-17.28 13.09-15.99 12.6-30.31 26.47-42.49 41.09-23.06 27.66-42.82 63.05-46.36 99.46 18.09 28.3 32.27 58.62 40.99 91.09zm-83.32 158.84c57.22-36.1 51.89-113.27 31.29-168.99-6.7-18.12-15.53-36-26.24-52.97-23.75-37.64-55.76-77.68-89.29-115.27-36.09-40.45-73.56-77.63-104.41-105.9-5.1 41.84-9.41 94.56-10.5 148.37-1.44 71.38-.74 156.9 29.99 222.66 40.11 27.79 79.23 57.55 116.47 89.09 17.99-.91 37.51-7.43 52.68-17zm245.11 118.2a1583.28 1583.28 0 0 1 39.02-36.19c19.71-47.48 31.88-107.02 40.51-157.55 9.11-53.37 14.82-105.83 17.69-147.59l-.06-.1c-78.93 48.66-168.56 113.07-231.86 180.73-30.01 32.07-57 76.37-64.66 121.11 69 10.46 138 23.26 199.37 39.59zm-315.84-55.39c-7.82-6.79-15.75-13.5-23.73-20.09-41.86-34.61-84.52-65.74-119.25-89.01.83 27.39 2.7 59.4 5.87 93.28 41.27 4.68 87.99 9.8 137.1 15.83zm418.9 89.92c-.9-22.13-2.22-42.98-3.79-61.66-14.71 12.48-30.88 26.78-47.69 42.37 18.29 6.01 35.54 12.43 51.48 19.3zm-214.51 563.94c18.92-22.22 25.02-49.62 21.31-78.26-.86-6.61-2.23-13.3-4.08-20.02-54.06-4.98-110.64-8.85-168.33-12.78-30.24-2.06-60.78-4.14-91.42-6.42 15.36 36.69 34.48 71.62 59.47 98.97 46.59 14.62 92.8 31.45 137.8 50.45 16.84-6.19 33.69-18.35 45.26-31.95zm151.28 155.63c22.67 4.34 44.51 1.56 64.93-9.74 23.14-52.23 50.27-103.35 79.44-152.42 1.15-12.74 1.64-26.06 1.62-39.65-55.75-20.52-122.86-33.66-196.91-43.1-12.06 23.75-21.98 47.91-27.74 71.4-8.58 34.95-10.84 75.43 1.92 109.69 28.66 17.47 54.67 38.49 76.73 63.81zm-37.26 212.98c6.14-4.19 12.06-9.23 17.72-15.15 5.79-6.06 10.58-12.23 14.42-18.45 15.33-24.79 17.23-52.79 9.23-80.55-8.57-29.77-28.27-59.35-55.15-85.03-14.01-13.38-29.81-25.59-46.87-36.15-38.12-23.57-84.37-45.5-130.74-64.47-49.76-20.35-99.9-37.33-140.4-49.28 13.72 39.62 32.97 88.82 55.73 137.94 21.1 45.54 45.13 90.77 70.35 127.67 11.39 16.66 24.28 31.87 38.15 45.12 5.2 4.97 10.54 9.67 15.98 14.06 48.29 7.45 96.43 17.07 143.81 29.05a95.9 95.9 0 0 0 7.76-4.78zm322.69-93.23c-4.24-51.19-18.78-105.93-31.92-150.78-15.2-51.88-33.12-101.58-48.9-140.44-22.57 35.62-49.1 81.4-73.18 129.56-28.1 56.19-61.77 129.19-67.45 192.6-2.42 27-.83 56.53 7.68 83.11 7.88-4.41 16.1-8.6 24.34-13.27 62.41-35.36 125.59-68.94 189.42-100.78zm-263.63 165.97c-29.67-10.09-61.43-18.96-93.06-26.6-52.38-12.64-104.42-21.87-146.1-27.57 19.6 37.25 46.05 83.02 75.81 127.94 24.79 37.41 51.86 74.21 79.12 104.95 52.16-24.19 92.14-46.63 115.68-60.49-10.9-17.1-28.73-43.07-34-61.47-5.34-18.69-4.37-38.75 2.54-56.76zm-166.06 213.56a1193.27 1193.27 0 0 0 -17.07-43.47c-20.24-48.84-42.93-95.4-62.48-131.78-18.3 37.24-39.32 84.68-57.68 134.06-11.47 30.86-21.96 62.59-30.15 93.2 60.82-14.12 117.34-32.59 167.37-52.01zm2250.03-2858.72c-18.13-45.03-57.75-105.57-144.09-144.88 0 0-107.43-53.99-280.31-99.8 0 0-243.78-65.45-405.75-188.69l248.41-557.9s-43.08-17.86-82.35 11.59l-335.12 618.56 961.5 398.82 37.7-37.7zm4.35-77.26c-30.73-38.9-98.34-106.33-219.34-145.05l-238.32-75.8s-238.32-72.54-324.48-150.52l235.59-525.99c155.13 138.26 446.28 112.39 546.55 277.08zm-484.11 29.36-820.67 431.42c-1.93.79-3.31 2.82-3.31 5.19v46.74c0 6.12 5.14 6.13 9.09 4.06 107.71-56.31 187.62-99.2 291.76-105.11 29.89-24.29 62.21-46.72 95.89-64.18 73.8-38.25 140.33-45.5 188.92-42.99 7.53-4.96 15.25-9.56 23.12-13.63 79.19-41.04 142.54-14.42 142.54-14.42s-65.03 93.17-144.22 134.21c-7.86 4.07-15.56 7.47-23.07 10.31-49.37 53.29-116.68 115.41-190.47 153.66-33.68 17.46-65.84 28.44-95.48 35.01-103.8 101.1-187.06 145.38-294.72 197.05-1.96.78-3.36 2.82-3.36 5.22v44.62c0 4.51-.02 9.02-.02 13.53 0 3.07 2.29 5.55 5.12 5.55 1.39 0 2.2-.54 3.37-1.16l1259.07-661.89zm-2783.98 1410.59c-1.1 26.4-.94 55.23-.06 82.87 3.59 112.91 18.37 234.37 72.11 335.36 29.79 55.99 70.54 102.73 126.3 133.89 176.32 98.52 427.2 115.63 660.34 131.54 206.61 14.09 399.7 27.27 522.85 95.63 35.69 19.81 66.89 44.95 90.53 78.19-5.46-74.5-22.43-186.29-47.89-256.97-22.49-62.43-50.94-121.02-87.07-169.79-35.29-47.65-77.95-85.85-129.59-108.84-94.14-41.91-204.22-58.29-314.82-74.76l-7.67-1.14c-76.94-11.46-154.94-20.34-231.44-29.05-288.81-32.88-557-63.44-653.58-216.93zm321.09-1364.7c-84.05 166.62-109.09 301.56-92.17 412.14 18.23 119.12 85.82 210.96 180.8 284.37 96.31 74.43 217.5 132.16 338.4 189.74 90.3 43.01 180.46 85.95 261.66 136.51 78.1 48.63 152 103.93 205.65 165.95 37.96 43.89 65.79 91.09 78.07 141.66 248.66-527.54-149.31-738.38-504.69-926.59-223.9-118.58-431.71-228.68-467.73-403.78z" fill="#fefefe"/><g fill="#373435"><path d="m2538.46 4949.97-47.13 18.99-11.22-61.44 47.89-17.76zm63.42 46.04-47.59 18.61-11.23-61.44 47.67-17.94z" fill-rule="nonzero"/><path d="m2687.29 5165.23c-23.97 21.38-56.11 39.23-85.42 50.09-74.11-25.56-152.68-72.87-214.38-123.89-30.16-24.94-68.26-62.56-73.5-106.53-4.68-37.12 19.44-78.85 45.07-102.03 22.18-20.2 42.04-30.31 66.76-44.33l5.1 10.02c-20.61 15.04-41.37 33.91-46.13 61.98-7.81 49.74 46.37 102.09 77.59 127.9 49.15 40.64 121.7 90.3 181.07 111.14 10.79-23.99 13.65-58.47 13.36-84.88l69.27-31.86c-.98 42.29-18.11 97.4-38.78 132.41zm1372.38 581.85-25.42 47.47-44.67-38.88 26.73-47.07zm76.1-9.41-25.99 47.51-44.67-38.89 26.44-47.05z" fill-rule="nonzero"/><path d="m3874.89 5985.82c-20.26-40.78-20.83-312.9-43.88-407.79l54.25-77.66c12.84 117.86 14.8 226.68 14.37 336.67-.57 146.18 117.73 148.37 159.83 20.68l10.49-.6c40.24 127.44 159.96 77.5 169.17-11.33l11.68-1.94c4.99 19.19 13.15 33.7 24.17 43.4 20.73 17.98 49.95 16.52 63.48-10.71 5.82-12.18 8.37-28.3 7.46-48.5l11.25-1.87c6.13 19.01 14.57 33.47 25.3 43.21 10.59 9.78 22.73 13.53 36.39 11.26 11.61-2.41 20.25-9.77 26.12-21.64 5.86-11.87 8.41-27.99 7.79-48.24l11.25-1.87c3.19 11.01 7.78 20.5 13.73 28.16 5.97 7.82 12.75 14.06 20.47 18.55 31.22 18.15 105.67-15.36 133.78-37.83-7.63-23.29-35.23-50.22-53.78-65.57l23.2-77.61c29.28 25.75 60.17 74.91 68.94 114.26 5.39 24.2-9.74 82.67-18.78 104.79-9.72 9.87-19.34 17.91-29.71 24.66-19.91 12.94-54.05 25.91-76.53 30.86-26.18 5.77-52.02 3.05-68.39-28.34l-7.55 1.25c-4.81 26.8-15.88 49.1-42.31 53.49-26.11 4.34-46.81-12.56-58.28-37.25l-6.98 1.16c-5.77 29.48-17.47 48.88-45.93 53.61-26.3 4.37-44.25-12.02-55.45-36.76l-6.69 1.11c-29.59 82.2-152.74 89.36-180.92 8.42l-5.46.31c-28.94 80.35-155.14 94.87-192.48 19.67zm242.62-636.94-28.24 54.03-50.2-41.86 28.1-54.02z" fill-rule="nonzero"/><path d="m4262.94 5432.22c2.98 45.06-5.85 98.41-21.2 140.8-49.79 70.75-209.58 122.23-270.11 50.69-49.85-58.04-37.33-175.76-6.12-243.3l9.83 2.17c-3.03 17.62-5.15 33.56-6.38 47.81-5.03 58.54 5.03 112.5 64.58 128.05 50.47 13.76 160.45-15.67 195.29-64.62-4.03-43.64-29.55-77.76-56.3-107.78l34.6-73.73c27.26 33.57 52.71 73.21 55.8 119.9zm260.6 179.45-19.71 58.03-55.96-32.8 19.56-57.99zm-849.23 386.24c-20.43 14.85-42.8 12.64-62.93-1-13.38-9.07-24.38-22.84-30.12-38.49l-5.85-.78c-13.39 24.31-33.06 40.05-59.69 36.51-25.89-3.44-38.76-26.9-46.33-52.02l-6.28-.83c-11.61 16.89-28.89 26.75-47.46 30.94-38.94 8.98-98.84.52-126.59-35.47-19.96-26.08-15.03-68.97-9.73-100.8 3.95-23.71 10.04-50.43 14.53-69.63-33.86 53.72-96.68 150.07-155.98 169.96-16.4 5.44-34.23 5.58-53.32.29-31.31-8.67-77.25-29.82-106.75-45.3l2.55-10.92c55.67-5.79 119.22-25.34 169.77-51.2 17.72-9.17 34.71-20.34 50.82-33.4-7.74-76.26-36.52-144.8-73.28-208.94l-12.55 23.86c-19.28-21.42-53.92-56.88-57.41-88.28-2.03-16.13 2.16-32.79 8.66-47.22 4.55-10.21 20.92-42.86 32.28-43.61 23.16 27.21 45.32 58.08 66.38 92.4 33.33 54.37 60.64 118.85 63.17 185.5.83 21.85 1.01 42.69.35 62.65 31.68-32.12 72.18-70.01 84.41-115.62 10.24-38.23 21.39-106.21 20.89-145.73l70.81-59.95c-.91 5.15-2.69 14.65-5.46 28.45-11.33 56.37-31.87 137.04-43.58 193.31-9.23 44.39-20.92 91.99-27.39 136.34-14.68 77.76 53.54 89.73 102.42 71.63 22.45-8.48 37.04-25.63 46.39-49.3l11.7 1.55c1.11 7.98 2.4 15.66 4.01 23.07 7.1 34.47 38.94 58.24 66.56 29.77 9.19-9.33 15.83-24.27 20.2-44.63l12.56 1.67c3.75 19.04 11.08 34.71 21.92 47.5 10.87 12.63 23.08 19.84 36.78 21.66 9.32 1.24 27.02 2.25 34.13-5.7-2.63-18.87-23.84-51.15-34.98-65.06l48.81-59.05c19.61 36.23 29.68 78.07 24.94 118.99-4.09 35.3-21.88 76.87-49.38 96.86z" fill-rule="nonzero"/><path d="m2767.05 5719.31c-21.03-15.78-48.62-21.1-63.96 12.28-4.57 9.93 67.9 49.19 78.39 66.17 4.92 7.96 7.6 16.35 3.37 25.53-10.28 22.33-41.33 52.77-59.9 66.47-76.24 56.28-321.01-30.39-299.19-152.99 4.46-26.42 16.28-54.84 32.27-75.35 18.36-23.7 37.89-39.36 60.21-58.1l7.67 7.8c-11.55 13.21-23.63 28.18-33.02 44.09-35.47 60.06 17.1 127.43 67.3 155.23 38.56 21.36 116.98 28.62 161.11 27.48-18.14-17.26-45.81-45.7-62.61-64.75-18.74-21.75-5.79-52.07 10.3-70.97 78.23-87.61 105.57-37.19 185.62-32.54 5 .24 9.58-1.39 13.88-4.85 25.1-19.68 46.8-43.68 72.15-63.43 33.01-25.46 88.75-18.1 98.4 27.16 5.19 26.05.78 64.45-3.73 90.84-4.51 28.22-10.94 63.78-30.69 84.32-12.89 13.41-28.09 19.85-44.58 11.18-24.94-13.12-51.36-42.03-67.9-64.32-6.87-9.25-12.18-17.4-15.95-24.62-7.18 5.6-12.12 11.51-18.22 16.27-30.02 23.44-63.27-2.18-90.9-22.9zm162.26-59.23c9 21.14 35.07 54.24 54.64 66 3.86-20.72 1.65-53.99-5.32-73.05-10.62-29.05-35.58-6.05-49.32 7.05zm855.97-139.8c6.46 102.75 18.78 244.24 17.7 357.45-.34 35.7-7.52 90.36-18.15 128.97-.71 2.58-3.21 12.83-4.82 14.54-.76.81-1.83 1.39-3.31 1.34-3.18-.11-7.72-.29-8.76-.31-.27-2.22-.35-8.57-.4-18.87-.48-111.15-8.98-295.47-35.26-401.81z" fill-rule="nonzero"/><path d="m3724.5 6104.06c-11.06 4.25-15.5 6.63-22.61 17.35l-34.38 51.84c-3.54 5.34-6.78 8.72 2.18 5.28 45.87-17.64 91.74-35.27 137.61-52.91 11.06-4.25 15.5-6.63 22.61-17.35l34.38-51.84c3.54-5.34 6.78-8.72-2.18-5.28-45.87 17.63-91.74 35.27-137.61 52.91z"/><path d="m2211.25 5416.37c-3.06-9.55-3.77-19.97-2.41-31.09 6.14-52.41 60.14-118.1 86.79-161.96 30.36-49.28 56.65-98.97 76.17-154.55l85.18-27.9c-6.25 10.74-14.41 24.87-24.74 41.99-46.21 78.01-105.82 159.12-147.47 236.35-8.87 15.73-11.24 29.98-7.47 42.47 6.89 23.58 49.88 55.03 71.29 43.89 34.63-17.48 69.33-46.47 105.78-56.93 58.98-16.93 74.18 39.43 64.48 88.75-7.34 35.5-28.66 104.69-52.48 125.81-11.56 10.66-34.09 22.9-48.54 12.98-27.87-19.15-61.2-73.32-72.27-108.92-9.38 4.69-17.28 12.38-27.54 15.14-18.92 5.11-41.31-1.71-60.47-13.28-18.69-11.29-39.01-29.95-46.32-52.75zm197.81-2.84c5.23 22.91 24.9 60.49 42.17 76.23 7.1-18.85 15.75-76.58.19-87.27-12.74-8.75-30.9 3.74-42.36 11.04zm-295.51 19.03c-32.75 26.48-71.86 46.5-107.88 48.77-31.07 1.96-43.34-15.5-63.51-38.14-20.86-23.42-40.48-49.5-60.79-72.42l6.18-8.42c14.49 6.47 28.8 12.15 42.93 17.03 39.63 13.68 85.61 24.25 127.04 22.28 22.56-1.08 47.63-6.41 59.98-23.25 12.44-16.95 11.16-95.57 9.46-117.34l74.4-32.08c-.96 33.66-4.86 73.17-16.39 107.7-13.78 41.27-39.6 70.14-71.42 95.87z" fill-rule="nonzero"/><path d="m2481.98 5254.09c-9.51-.8-13.53-.63-22.18 4.72l-41.79 25.87c-4.3 2.66-7.76 4-.07 4.64 39.42 3.31 78.84 6.62 118.27 9.92 9.51.8 13.53.63 22.18-4.72l41.78-25.87c4.31-2.66 7.76-4 .07-4.64-39.42-3.31-78.84-6.62-118.26-9.92z"/><path d="m5557.89 5287.21c19.3 31.87 25.47 92.81 23.88 130.83-24 34.56-89.77 103.59-126 108.76-6.14.74-12.05-.42-17.83-3.38-15.8-8.51-43.01-63.71-51.55-84.86l8.39-6.2c5.53 7.03 13.59 12.97 22.37 11.45 35.65-7.79 101.15-63.62 125.7-91.79-24.61-23.79-119.8-27.37-149.28-17.37l-17.38-96.61c39.54-.21 157.99 9.98 181.72 49.17zm-416.92-170.64c100.62 148.36 200.94 300.7 233.06 452.97.55 2.62 3.03 12.87 2.41 15.25-.3 1.13-.96 2.22-2.26 3.01-2.8 1.68-6.81 4.07-7.72 4.64-1.24-1.77-4.18-7.2-8.89-16.08-50.71-95.7-154.78-282.82-225.65-359.94l9.04-99.86zm-47.93 166.31-7.38 61.35-61.31-18.03 7.25-61.28zm-188.78 153.22-12.65 60.33-59.44-24.4 12.51-60.27z" fill-rule="nonzero"/><path d="m4805.99 5858.29c-10.86 1.62-20.72.91-29.53-2-24.99-8.24-41.7-37.5-51.69-62.5-50.81-127.04-62.96-219.96-136.65-347.43l30.73-91.86c52.65 121.49 84.82 236.06 130.75 379.52 6.17 17.11 15.16 27.59 26.54 31.59 17.82 6.47 39.57.3 56.1-7.32 17.39-8 39.45-18.26 55.65-28.58-20-8.1-37.43-17.56-59.99-14.62l4.93-107.34c37.34-41.12 124.96-90.61 177.97-66.05 33.37 15.03 35.23 91.23 20.27 122.54 26.82-.57 71.62-24.44 96.14-38.25 24.62-13.88 92.63-56.14 106.83-81.69-2.18-4.75-4.52-9.67-7.38-13.95-25.83 21.57-62.99 52.68-96.22 47.11-33.53-5.03-45.25-45.4-51.1-77.07-8.5-48.84-3.67-128.62 56.36-127.49 50.35 1.35 98.25 68.14 118.14 111.41 14.35 31.22 27.27 82.78 24.61 118.28-45.17 84.06-196.35 156.1-281.41 158.57-7.56.07-16.02-.65-25.26-2.24-5.32 7.26-12.3 15.08-21.04 23.16-39.69 36.65-93.63 69.33-144.75 76.23zm369.59-377.51c3.28-2.37 6.29-4.61 9.11-6.91-3.42-3.93-7.75-7.36-12.71-10.07-21.93-11.96-50.64-12.03-61.64 16.8-1.6 3.93-4.75 13.94-2.9 17.97 3.48 7.58 16.49 6.54 22.75 5.24 15.97-3.29 33.72-14.61 45.39-23.03zm-215.97 186.26c4.23-4.23 8.21-8.69 12.05-13.6 5.93-7.12 12.85-16.87 16.6-25.63 3.68-8.59.3-11.62-7.49-13.24-16.12-3.18-40.14 1.37-61.3 9.83-19.33 7.73-26.29 14.3-41.88 26.6 8.48-.98 16.46-.73 23.95.76 13.83 2.75 27.08 7.97 40.49 12.43 6.02 2.13 11.76 3.03 17.58 2.86z" fill-rule="nonzero"/><path d="m4738.57 5313.06c-6.54 7.5-8.95 11.01-10.57 21.7l-7.85 51.68c-.81 5.32-2.03 9.09 3.27 3.01 27.13-31.12 54.26-62.24 81.4-93.36 6.54-7.51 8.95-11.01 10.58-21.7l7.85-51.68c.81-5.32 2.03-9.09-3.26-3.01-27.13 31.12-54.26 62.24-81.4 93.36zm190.81-198.05c13.57-14.02 37.06-34.14 61.55-35.98 16.19-1.22 30.33 2.98 34.95 21.2 2.98 11.74 3.75 32.06-6.78 65.18-5.43 17.1-12.24 22.75-25.21 33.18l-31.53 25.37c-12.08 9.72-19.47 7.26-9.79-8.49 9.6-15.62 19.01-31.52 26.66-47.26 13.61-28 21.2-56.27-8.27-51.2-12.04 2.07-24.71 5.06-37.17 7.93-12.12 2.79-13.96-.04-4.41-9.92z"/><path d="m2836.47 5238.38c-47.67 91.25-110.38 218.68-169.92 314.98-18.77 30.37-53.22 73.42-82.3 100.95-1.94 1.84-9.39 9.31-11.65 9.94-1.07.3-2.29.24-3.53-.57-2.66-1.74-6.45-4.25-7.34-4.8.92-2.04 4.14-7.52 9.44-16.36 57.13-95.34 145.29-257.43 177.86-362.03l87.44-42.12z" fill-rule="nonzero"/><path d="m3589.62 5568.69c18.04-3.99 47.1-7.61 67.41 3.73 13.42 7.49 22.4 18.19 16.53 35.01-3.77 10.82-13.79 27.28-39.41 47.94-13.22 10.66-21.55 11.57-37.24 13.03l-38.16 3.56c-14.62 1.37-19.17-4.43-3.3-11.82 15.75-7.32 31.48-14.97 45.75-23.4 25.38-15 46.14-33.36 20.22-44.76-10.59-4.65-22.16-8.91-33.5-13.16-11.03-4.12-11-7.33 1.7-10.14z"/><path d="m3396.27 4833.12c0 9.68-3.21 17.59-7.51 25.91-6.35 12.25-19.1 32.5-33.34 35.23-17.25 3.3-37.14-2.69-52.97-9.05-7.76 7-16.46 15.22-25.29 20.62-27.33 16.69-83.28 2.71-111.6-5.84-4.84-1.46-4.76-2.98-.06-4.71 13.7-5.06 27.61-10.1 40.88-15.97 15.33-6.77 31.86-14.43 46.62-22.72-9.66-9.48-15.94-20.42-13.62-34.38 2.64-15.99 13.4-33.54 22.87-46.04 0 0-3.42-2.56-5.18-4.12 1.06-8.72 2.49-17.02 5.05-25.46 3.51-11.57 10.85-29.36 25.25-29.36 13.74 3.32 43.51 29.46 54.67 39.66 17.22 15.75 54.23 52.29 54.23 76.24zm-82.58.29c4.94-3.1 9.56-8.74 13.13-13.55-5.14-11.4-28.6-42.01-41.48-39.64-7.39 1.36-17.72 20.91-16.29 29.15 1.94 11.16 35.65 21.9 44.64 24.03zm32.33-14.77c-4.41 6.88-10.53 15.22-16.66 20.57 13.52 9.47 23.96 14.29 39.76 17.74-4.44-13.46-14.1-27.51-23.1-38.31zm-300.71-140.01-20.83 31.81-36.29-31.68 24.97-36.01 35.17 31.29z" fill-rule="nonzero"/><path d="m3092.31 4675.84-21.2 31.7-36.21-31.6 24.7-35.98 35.83 31.23zm-195.44 283.73c-57.68-35.1-34.77-129.59 5.8-170.36 2.02-2.03 5.97.11 5.45 3.1-5.32 30.61-18.85 66.93-3.15 95.57 28.39 51.77 119.91 43.81 155.86-24.02h-23.61c-37.89 0-56.91-19.91-49.55-58.16 3.34-17.39 11.71-38.12 22.34-52.3 11.37-15.18 26.45-26.68 46.54-20.7 28.07 8.37 39.18 48.37 43.16 75.72 19.83 136.38-111.47 206.76-202.84 151.15zm163.66-147.55c-2.61-6.89-6.3-13.67-11.16-19.23-6.86-7.87-15.27-11.39-25.43-7.53-7.23 2.99-17.3 11.26-9.31 18.87 9.41 8.96 33.66 7.89 45.9 7.89zm641.27 136.99c-5.14 2.81-10.63 4.14-16.48 4.14-14.64 0-35.4-6.36-49.65-11.44-13.64-4.66-32.19-13.79-37.36-28.04-6.45-17.8 4.75-38.6 15.17-53.23 6.91-9.69 14.56-19.11 22.24-28.17-1.59-.74-8.98-4.44-15.51-7.95-15.79-8.5-29.24-20.47-27.94-39.89 1.35-20.15 18-40.54 31.53-54.02 20.95-20.89 46.97-37.23 71.67-52.69l-12.01 64.3c-11.87 6.05-27.44 13.16-37.41 21.24 8.91 6.93 23 11.95 33.34 16.43 7.74 3.01 18.39 8.66 21.38 17.05 2.88 8.06-1.04 13.57-5.53 19.85-13.88 18.84-33.53 37.2-48.48 56.59-.35.5-.93 1.46-1.29 1.85 16.9 10.68 48.93 14.46 68.88 17.93 14.3 2.48 28.66 4.66 43.39 6.47-16.69 16.62-36.53 39.1-55.94 49.59zm-181.13 21.21c-20.1-88.24-8.19-162.67-74.57-239.43 8.1-23.83 17.48-46.81 26.82-70.16 65.98 97.33 90.8 197.27 47.75 309.59zm313.8 0c-20.09-88.24-8.19-162.67-74.57-239.43 8.1-23.83 17.49-46.81 26.83-70.16 65.98 97.33 90.79 197.27 47.74 309.59zm470.86 0c-20.1-88.24-8.19-162.67-74.57-239.43 8.1-23.83 17.48-46.81 26.82-70.16 65.98 97.33 90.8 197.27 47.75 309.59zm93.88 11.79c7.8-9.98 12.43-20.5 15.25-30.9 9.06-33.49-.63-65.85 16.28-75.16 37.19-20.48 64.43 43.96 11.57 89.38-24.2 20.79-52.76 29.04-43.1 16.69zm-351.77-77.12c-15.54 15.54-47.73 23.42-68.98 23.42-22.71 0-45.85-6.61-60.15-25.32-27.58-36.05-2.46-95.65 17.5-131.83 15.75-28.55 42.77-78.53 81.82-66.9 17.56 5.23 33.33 17.59 44.48 31.93 16.69 20.77 22.41 47.39 23.59 73.41 1.5 32.9-14.66 71.7-38.25 95.29zm7-58.61c0-11.45-11.3-29.77-17.76-38.85-11.33-15.93-28.09-31.83-47.12-37.84-7.27-2.49-11.79-3.43-17.66 2.02-11.86 11.86-31.88 42.97-31.88 61.35 0 16.78 18.58 23.18 32.19 25.93 21.78 4.11 55.8 2.27 76.28-6.66 3.94-1.82 5.95-3.73 5.95-5.95zm533.69 123.94c-20.1-88.24-8.19-162.67-74.57-239.43 8.1-23.83 17.48-46.81 26.82-70.16 65.98 97.33 90.79 197.27 47.75 309.59zm212.96-65.33c-15.54 15.54-47.73 23.42-68.98 23.42-22.71 0-45.85-6.61-60.14-25.32-27.59-36.05-2.46-95.65 17.5-131.83 15.75-28.55 42.77-78.53 81.81-66.9 17.56 5.23 33.34 17.59 44.48 31.93 16.69 20.77 22.41 47.39 23.59 73.41 1.5 32.9-14.66 71.7-38.25 95.29zm7-58.61c0-11.45-11.3-29.77-17.76-38.85-11.34-15.93-28.09-31.83-47.12-37.84-7.27-2.49-11.79-3.43-17.66 2.02-11.86 11.86-31.88 42.97-31.88 61.35 0 16.78 18.58 23.18 32.19 25.93 21.78 4.11 55.8 2.27 76.28-6.66 3.94-1.82 5.96-3.73 5.96-5.95zm-691.68 135.73c7.8-9.98 12.43-20.5 15.25-30.9 9.06-33.49-.63-65.85 16.28-75.16 37.19-20.48 64.43 43.96 11.57 89.38-24.2 20.79-52.75 29.04-43.1 16.69z" fill-rule="nonzero"/><path d="m2178.29 4356.01c-.11.91-14.37 47.91 7.49 32.21 10.59-7.6 63.49-58.68 76.01-70.84 11.11-10.79 19.02-21.36 18.26-32.55-.2-3.03-2.71-15.17-4.87-15.43-2.58-.3-15.21 10.44-18.19 12.9-25.49 20.95-58.18 53.48-78.7 73.71zm71.71 12.89c-3.98 1.4-4.76 3.76-4.4 7.59.74 7.79 3.28 12.37-.22 19.75-11.51 24.25-22.69-1.46-30.07-10.64-3.42 1-3.23 2.31-2.9 7.2.72 10.95 4.82 27.81 12.97 37.8 21.79 26.73 34.99-19.06 37.47-22.02 2.21-2.62 10.3 1.47 18.91-7.66 4.6-4.89 3.59-22.12 1.51-29.95-1.57-5.89-12.48-29.48-17.96-18.99-.83 1.59-.18 2.88.52 5.34 4.49 15.66-1.33 25.66-15.83 11.59zm-149.62 310.77c-7.52-22.76-5.75-52.62-9.15-66.3-1.95-7.85-6.13-9.94-11.83-3.35-12.38 14.34-7.39 45.28-4.71 62.63 5.95 38.3 34.08 121.76 89.15 92.48 8.27-4.4 15.95-12.41 22.31-25.09 20.74-41.34 8.43-122.72 31.33-137.75 7.74 12.01 14.88 34.91 24.03 53.58 33.66 68.73 99.6 69.05 122.72-10.63 4.86 2.04 10.72 6.04 19.31 8.22 54.46 13.79 58.28-52 53.34-89.29-5.04-38.02-20.02-79.01-34.78-106.4-8.28-15.36-32.46-47.81-48.45-53.21-9.41 13.5-14.74 43.54-8.21 59.09 7.39 17.58 22.84 33.12 35.38 50.53 10.06 13.95 29.67 51.47 12.24 65.56-10.28 8.3-26.93 4.73-37.86-16.47-13.9-26.92-29.19-55.55-46.07-81.68-4.85-7.51-23.19-37.64-32.72-33.23-12.21 5.65-14.99 49.47-12.6 55.61 9.17 23.64 44.68 53.68 53.12 78.29 7.74 18.09 8.46 53.62-17.89 53.68-31.99.07-47.03-46.57-56.48-70.02-8.16-20.25-18.1-39.38-32.82-38.91-18.8.6-33.45 21.5-41.25 39.72-5.55 12.98-8.59 30.57-10.63 47.9-2.9 24.7-3.09 49.1-10.89 73-3.94 12.09-9.59 22.35-17.34 22.63-15.08.54-25.53-19.37-29.25-30.61zm431.95-249.55c11.72 28.69 21.58 64.17 22.23 97.49.72 36.91-11.65 71.43-39.23 93.32-6.16 4.9-37.06 21.21-41.22 13.16-3.63-7.04 15.21-26.35 18.58-30.97 57.33-78.64 4.04-137.6-36.06-221.44 0 0-3.1 9.09-.42 30.06 2.38 18.57 1.45 38.38-12.01 20.04-11.08-15.1-16.87-34.72-18.5-52.74-2.72-30.03 10.98-61.71 20.87-88.89 2.19-6.01 6.08-13.12 12.29-.92 8.15 15.88 16.99 31.4 25.83 46.91 17.6 30.87 34.2 61.11 47.63 93.99zm153.78-71.33c-41.89 47.91-49.23 101.21-37.11 141.89 17.02 57.11 81.2 79.17 129.37 48.31 128.99-82.65 37.88-315.8-6.16-427.5-4.17-10.67-7.7-4.48-9.81.76-9.53 23.7-22.36 51.31-22.07 77.55.18 15.74 3.55 32.9 11.41 46.13 9.54 16.06 11.51-1.23 10.77-17.46-.83-18.32 2.19-26.24 2.19-26.24 12.81 35.29 32.23 81.14 43.33 126.85 11.66 47.99 17.63 88.76-8.72 125.84-20.39 28.68-59.35 56.85-91.76 40.48-27.94-14.12-41.13-55.99-29.04-90.36 6.15-17.48 12.01-33.67 15.15-44.24 5.2-17.56-1.04-9.44-7.55-1.99zm388.66-120.25c-.97-5.67.6-31.28-12.12-25.53-3.36 1.52-6.5 6.08-8.95 11.03-8.21 16.54-4.3 20.52-19.07 38.22-4.67 5.6-11.35 13.27-18.74 20.33-10.01 9.57-21.35 18.03-30.83 18.72-11.92-10.79-16.55-31.45-34.78-33.86-26.48-3.51-36.53 9.95-38.48 30.66-1.89 20.13-5.91 43.08 5.68 58.25 15.52 20.3 24.89 13.79 54.77 10.5 1.07 13.18-8.84 30.36-20.52 45.45-13.23 17.1-33.05 35.69-52.43 50.86-2.81 2.2-68.59 47.7-34.38 42.47 18.09-2.77 43.57-11.31 60.53-17.98 61.31-24.09 80.6-72.22 75.75-134.43 5.44-3.71 18.18-8.83 30.84-19.06 11.42-9.23 15.31-16.44 23.22-27.69 2.09-2.97 4.06-5.03 6.56-5.65 12.06-2.95 23.4 19.63 56.37-31.24 4.28-6.6 2.64-7.02 10.85-7.01 8.24.01 14.08 1.55 20.07-1.92 9.45-5.48 17.7-19.17 24.41-45.66 6.26-24.69 4.91-51-.62-75.6-2.37-10.53-6.27-20.77-15.06-5.53-3.62 6.28-7.04 16.31-10.48 23.62-2.18 4.63-2.14 8.69.18 15.11 2.27 6.31 9.78 17.61-3.05 29.55-3.87 3.61-11.15 8.58-16.12 4.47-3.44-2.84-.77-17.09-10.38-21.32-6.43-2.83-13.43 4.03-14.9 21.55-.72 8.61-4.61 26.08-12.05 34.31-5.44 6.01-14.78 5.93-16.26-2.66zm202.87 72.58c.56-14.05 1.13-31.99 2.24-34.95 6.88 2.68 12.49 18.72 18.5 17.77 4.95-.78 3.02-18.78 1.73-24.32-2.74-11.75-8.73-33.04-19.56-43.83-33.38-33.27-31.35 37.88-32.12 51.86-3.86 69.65-28.59 99.31-87.42 147.71-16.41 13.5-5.32 16.46 10.9 12.44 23.44-5.82 51.45-15.03 69.89-31.85 8.03-7.32 14.26-15.5 19.12-24.29 11.98-21.66 15.75-46.16 16.72-70.53zm-625.09-111.43c-3.95 9.95-17.85 21.5-24.53 26.86-4.49 3.6-18.43 12.38-25.69 20.03-5.46 5.75-5.96 12.06.92 11.59 33.08-2.27 73.73-36.55 79.87-68.24.57-2.93 1.14-4.51 3.2-5.82.92-.59 13.51 6.78 17.92-10.48 3.01-11.77-3.24-13.66-11.2-16.54-10.65-3.86-4.65-8.8-14.61-20.5-16.35-18.9-42.4-3-47.07 18.61-5.29 24.49 7.57 33.84 19.14 36.39 4.73 1.04 4.07 3.01 2.04 8.11zm6.28-44.11c5.38-1.98 10.67-1.04 11.82 2.09 1.15 3.14-2.27 7.28-7.65 9.26s-10.67 1.04-11.82-2.09c-1.15-3.14 2.27-7.28 7.65-9.26zm583.92-29.62c-.18.72-16.16 37.24 2.96 26.67 9.26-5.11 56.78-41.22 68.03-49.83 9.98-7.64 17.37-15.4 17.83-24.49.12-2.46-.73-12.49-2.45-12.9-2.05-.49-13.25 6.97-15.89 8.66-22.55 14.45-52.01 37.54-70.47 51.89zm-166.15-23.1c-6.28 8.67-22.6 16.43-30.4 19.97-5.24 2.38-20.91 7.45-29.84 13.07-6.71 4.22-8.75 10.22-1.97 11.46 32.62 5.97 80.47-17.22 94.24-46.41 1.28-2.7 2.21-4.09 4.54-4.86 1.03-.34 11.42 9.91 19.96-5.73 5.82-10.66.22-14.03-6.78-18.8-9.37-6.38-2.33-9.67-9.09-23.47-11.18-22.35-40.35-13.38-50.2 6.41-11.18 22.43-1.02 34.66 9.57 40 4.33 2.18 3.19 3.92-.03 8.36zm16.97-41.19c5.7-.59 10.59 1.63 10.94 4.95.34 3.32-4 6.49-9.7 7.08s-10.59-1.63-10.94-4.95 4-6.49 9.7-7.08z"/><path d="m3633.91 4332.54c-24.64 15.88-65 40.27-105.11-18.27-8.24-12.03-11.91-38.13-21.64-39.5-8.26-1.16-41.51 74.39-57.66 92.47-15.72 17.6-34.52 30.66-72.12 54.33-3.81 2.4-7.29 5.4-7.46 8.41-.1 1.79 1.18 3.09 3.55 3.58 1.89.39 4.58-.06 7.68-.84 65.59-16.52 100.67-9.64 124.76-78.23 11.28 46.01 56.24 79.21 120.04 30.94 31.11-29.27 48.37.32 66.23-13.67 9.02-7.06 24.08-35.99 16.43-47.72-7.37-11.31-43.32-16.82-48.4-22.82 2.13-10.9 25.19-25.75 46.52-38.98 20.44-12.67 40.75-24.63 53.68-45.81 6.47-10.59 23.29-59.35 14.36-72.02-13.32-18.91-54.27-.3-73.91-.12 1.21-9.55 4.23-8.78 9.82-13.54 4.24-3.61 5.65-5.96 11.09-9.7 12.07-8.3 44.6-25.74 59.44-27.59 24.21-3.02 36.89 10.53 51.21-10.16 3.02-4.36 7.74-14.05 10-22.33 3.91-14.39-2.65-23.67-15.34-29.09-12.34-5.27-25.1-4.09-31.79-19.57-4.73-10.95-9.78-16.91-17.45-1.56-8.81 17.61-6.61 19.97-8.55 38.65-5.95 4.31-20.43 11.44-34.58 20.08-36.78 22.44-63.91 54.11-70.6 98.5-3.63 24.08-.42 27.09 21.32 23.8 20.2-3.06 39.04-10.7 63.61-10.37-3.85 32.12-117.99 42.43-115.12 151.12zm-152.14-112.77c-22.07 6.62-8.65-35.15-43.78-23.41-6.41 2.14-28.62 13.25-36.87 23.06-5.78 6.88-.17 14.17 9.2 9.15 12.29-6.58 16.33-10.7 29.91-14.02 2.44-.6 4.35-.81 5.87.14 8.8 5.5 7.69 19.71 19.1 24.8 6.72 3 18.96.33 26.21-3.56 5.1-2.74 14.63-14.14 17.68-19.18 1.26-2.08 2.13-3.13 4.08-3.55.87-.19 8.43 8.98 16.65-2.97 5.61-8.15 1.36-11.35-3.92-15.8-7.06-5.95-1.08-8.04-5.4-19.78-7.19-19.05-31.59-14.22-41.23.99-10.94 17.24-3.73 28.01 4.41 33.22 4.52 2.89.97 8.58-1.92 10.92zm18.39-36.11c4.67 0 8.45 2.2 8.45 4.92s-3.78 4.93-8.45 4.93-8.45-2.21-8.45-4.93 3.79-4.92 8.45-4.92z"/><path d="m3598.71 4195.75c-3.72-.54-5.31 1-6.6 4.18-2.63 6.45-2.52 11.12-8.33 15.49-19.09 14.39-17.3-10.51-19.34-20.8-3.11-.62-3.49.49-5.26 4.48-3.94 8.94-7.67 23.94-5.36 35.19 6.17 30.09 35.48-.61 38.65-1.92 2.83-1.16 7.53 5.42 18.08 1.76 5.65-1.96 11.96-15.98 13.55-23.01 1.2-5.29 2.31-28.42-6.33-22.4-1.31.91-1.33 2.2-1.79 4.42-2.92 14.21-11.64 19.7-17.27 2.61zm-31.13-44.04c-.31.46-21.21 21.73-5.03 19.44 7.84-1.11 50.67-13.71 60.82-16.73 9.01-2.68 16.24-6.15 18.98-12.38.74-1.68 2.81-8.93 1.72-9.67-1.3-.89-11.12 1.35-13.42 1.83-19.61 4.1-46.35 12.41-63.08 17.52zm138.78-161.22c-7.51 4.45-22.25 4.97-29.23 5.1-4.69.08-18.07-1.2-26.57.11-6.39.98-9.87 4.81-5.19 7.94 22.48 15.04 65.82 13.2 85.6-4.19 1.83-1.61 2.98-2.35 4.97-2.16.88.08 5.34 11.12 16.79 2.18 7.81-6.1 4.72-10.43 1.02-16.27-4.94-7.81 1.39-8 .8-20.52-1.12-20.35-25.86-23.09-39.66-11.48-15.64 13.17-12 25.62-5.8 33.04 2.53 3.03 1.12 3.97-2.73 6.25zm26.06-25.34c4.46 1.41 7.41 4.66 6.59 7.25s-5.1 3.56-9.56 2.15c-4.45-1.4-7.41-4.65-6.58-7.25.82-2.6 5.1-3.56 9.55-2.16zm-133.14 102.35c-.25.5-18.23 24.29-2.48 19.92 7.62-2.11 48.48-20.13 58.16-24.44 8.59-3.83 15.31-8.19 17.23-14.72.52-1.77 1.64-9.21.46-9.81-1.4-.72-10.85 2.77-13.07 3.54-18.92 6.6-44.36 18.28-60.29 25.51z"/><path d="m3908.36 4258.6c4.93-23.45 21.48-48.38 25.41-61.92 2.26-7.76-.3-11.68-8.54-8.84-17.91 6.18-29.16 35.43-35.55 51.78-14.12 36.1-31.75 122.39 30.58 124.77 9.36.35 20.03-2.71 31.9-10.48 38.71-25.3 68.98-101.84 96.32-103.33.65 14.28-4.68 37.66-6.16 58.4-5.45 76.34 51.39 109.76 111.43 52.51 3.17 4.21 6.23 10.61 12.56 16.81 40.14 39.31 76.52-15.65 90.99-50.37 14.75-35.4 22.41-78.37 23.42-109.46.57-17.44-4.03-57.64-15.14-70.35-14.92 6.94-34.63 30.24-36.8 46.96-2.44 18.92 3.09 40.11 5.19 61.46 1.68 17.12-.23 59.41-22.37 62.82-13.06 2.01-25.65-9.44-24.45-33.27 1.52-30.26 2.69-62.7 1.23-93.77-.42-8.93-1.13-44.19-11.59-45.17-13.39-1.25-37.82 35.23-38.85 41.74-3.96 25.05 11.64 68.86 6.56 94.39-2.4 19.52-19.64 50.6-42.44 37.41-27.69-16.01-17.24-63.9-13.63-88.92 3.12-21.61 4.14-43.14-8.82-50.14-16.56-8.93-39.73 1.77-55.63 13.6-11.33 8.43-22.8 22.11-33.27 36.06-14.92 19.89-27.35 40.89-46.11 57.64-9.48 8.46-19.53 14.49-26.37 10.84-13.31-7.12-12.34-29.57-9.9-41.17zm87.04-169.6c-8.59 5.08-25.42 5.68-33.4 5.82-5.37.09-20.65-1.37-30.37.12-7.3 1.13-11.27 5.5-5.93 9.07 25.69 17.19 75.21 15.08 97.81-4.79 2.09-1.84 3.41-2.68 5.68-2.47 1.01.09 6.1 12.71 19.19 2.5 8.93-6.97 5.39-11.92 1.17-18.59-5.65-8.92 1.59-9.14.91-23.44-1.28-23.26-29.55-26.39-45.32-13.12-17.87 15.05-13.71 29.28-6.63 37.76 2.89 3.47 1.28 4.54-3.12 7.15zm29.78-28.95c5.09 1.61 8.46 5.32 7.52 8.28-.94 2.97-5.82 4.07-10.92 2.46s-8.46-5.32-7.53-8.28c.94-2.97 5.82-4.07 10.92-2.46zm144.27-19.2c-4.25-.61-6.07 1.15-7.55 4.77-3.01 7.37-2.88 12.7-9.51 17.71-21.81 16.44-19.78-12.01-22.1-23.77-3.56-.71-4 .56-6.01 5.12-4.51 10.22-8.76 27.36-6.12 40.21 7.05 34.38 40.54-.7 44.17-2.19 3.23-1.33 8.6 6.18 20.66 2 6.46-2.24 13.67-18.26 15.48-26.3 1.37-6.05 2.64-32.47-7.24-25.6-1.5 1.04-1.53 2.51-2.05 5.06-3.34 16.23-13.3 22.51-19.74 2.98zm-35.56-50.31c-.36.52-24.24 24.83-5.75 22.21 8.95-1.27 57.9-15.67 69.5-19.12 10.3-3.07 18.56-7.02 21.69-14.14.85-1.92 3.22-10.2 1.96-11.05-1.49-1.02-12.71 1.53-15.33 2.08-22.41 4.69-52.97 14.18-72.08 20.02zm285.74 246.52c-2.51 30.89-9.75 67-24.23 97.01-16.04 33.25-42.67 58.46-77.16 65.52-7.71 1.58-42.65 2.17-42.72-6.89-.06-7.91 25.47-16.63 30.57-19.23 86.68-44.24 65.79-120.92 67.9-213.83 0 0-6.88 6.7-13.95 26.62-6.27 17.65-16.06 34.89-19.77 12.46-3.06-18.48.64-38.6 7.33-55.41 11.15-28.02 37.69-50.09 58.79-69.86 4.67-4.38 11.35-8.95 11.38 4.73.09 17.85.96 35.69 1.84 53.53 1.75 35.49 2.9 69.97.02 105.37z"/><path d="m4622.01 4173.95c.41-11.13 1.58-18.87 1.68-23.74.17-8-7.65-4.82-16.4 1.07-6.93 4.67-22.29 16.28-27.97 23.05-3.9 4.66-6.47 10.59-7.33 19.74-1.15 12.22 1.53 27.66 2.58 40.19 2.53 30.06 3.39 64.07-4.05 94.67-7.98 32.86-14.99 60.21 21.84 7.87 31.89-45.32 27.68-110.19 29.63-162.85z"/><path d="m4502.39 4337.51c1.69-9.65 13.7-47.04 22.26-21.56 34.71 103.33 116.32 97.91 141.65.13 4.73-18.28 7.44-37.52 8.78-52.96 1.78-20.57 2.79-42.6 5.59-65.58 0 0-7.44 5.57-16.25 23.21-7.81 15.62-19.08 30.59-20.79 9.78-1.41-17.13 4.05-35.23 12.2-50.05 13.58-24.71 41.97-42.73 64.74-59.1 5.04-3.62 12.11-7.26 10.92 5.25-1.49 16.33-2.2 32.71-2.9 49.08-.68 15.86-1.48 31.48-2.81 47.05-3.43 40.01-12.23 73.19-26.85 106.7-76.32 174.99-214.69 111.58-196.54 8.06zm326.77-29.99c-5.23 30.55-15.64 65.87-32.71 94.48-18.91 31.7-47.68 54.46-82.66 58.44-7.82.89-42.67-1.61-41.94-10.65.64-7.89 26.85-14.31 32.15-16.45 90.25-36.4 76.23-114.63 86.54-206.99 0 0-7.44 6.07-16.25 25.28-7.81 17.02-19.08 33.34-20.79 10.66-1.41-18.67 4.05-38.39 12.2-54.54 13.58-26.92 41.97-46.56 64.74-64.39 5.03-3.95 12.1-7.91 10.92 5.72-1.49 17.79-2.2 35.63-2.9 53.48-1.4 35.5-3.31 69.95-9.3 104.96zm3.64 180.71c4.74 8.58-19.85 16.37-25.12 16.84-12.86 1.17-28.17-6.54-44.07-3.84-23.62 4.02-25.28-2.1-15.24-7.43 4.84-2.57 10.65-3.24 14.6-5.55 2.6-1.52 4.24-4 3.18-8.61 0 0-5.68-9.11-1.12-17.18 2.98-5.27 13.44-11.15 19.11-12.83 12.1-3.6 23.55 1.19 32.62 12.38 3.55 4.38 4.85 9.47-3.38 12.8 0 0-16.41-14.25-26.83-2.38 0 0-9.12 6.74 8.88 11.29 10.47 2.65 12.81 1.52 22.84.94 6.17-.35 12.62.08 14.54 3.56zm-86.41 30.32c-.43.35-26.44 14.94-10.26 17.26 7.83 1.13 52.48 1 63.08.93 9.41-.06 17.31-1.36 21.68-6.58 1.18-1.41 5.19-7.78 4.35-8.81-1-1.22-11.05-1.82-13.39-2-19.98-1.54-47.97-1.04-65.46-.8zm-66.76-428.29c-2.99-.44-4.27.81-5.31 3.36-2.12 5.19-2.03 8.94-6.69 12.46-15.35 11.57-13.92-8.45-15.56-16.73-2.5-.5-2.81.39-4.23 3.61-3.17 7.19-6.17 19.25-4.31 28.3 4.96 24.19 28.53-.49 31.09-1.54 2.27-.93 6.05 4.35 14.55 1.41 4.55-1.57 9.62-12.85 10.9-18.51.96-4.25 1.86-22.86-5.1-18.01-1.05.73-1.07 1.76-1.44 3.56-2.35 11.42-9.36 15.85-13.89 2.1zm-34.19-27.57c-.25.37-17.06 17.48-4.04 15.64 6.3-.89 40.75-11.03 48.92-13.46 7.24-2.16 13.06-4.94 15.27-9.95.59-1.36 2.26-7.18 1.38-7.78-1.05-.72-8.94 1.08-10.79 1.47-15.77 3.3-37.28 9.98-50.74 14.09z"/><path d="m4978.27 4361.01c2.19 6.69-11.06 23.12-15.29 28.22-9.6 11.59-16.15 18.9-9.89 46.67 2.24 9.94 6.35 18.24 11.98 20.19 7.71 2.67 20.86-12.36 32.26-26.1 12.88-15.52 23.88-29.43 44.81-34.47 10.1-2.43 46.94-2.97 51.24 8.36.79 2.08-.56 6.05-2.25 9.89-11.34 25.68-19.69 53.58 3.25 76.81 18.11 18.34 49.6 17.75 74.79-4.92 18.96-17.06 32.43-53.94 39.22-79.17 4.59-17.08 8.75-35.5 14.56-54.45 0 0-7.11 3.58-17.19 17.12-8.93 12-20.68 22.93-19 5.12 1.39-14.66 8.71-29.1 17.81-40.37 15.17-18.79 41.81-29.72 63.47-40.1 4.79-2.3 11.29-4.31 8.42 6.06-3.71 13.54-6.77 27.24-9.82 40.95-2.96 13.27-5.98 26.32-9.44 39.25-14.24 53.12-52.81 123.59-101.3 153.33-30.12 18.47-77.94 28.9-102.08-4.01-17.54-23.92-16.43-58.24-8.5-85.55 0 0-12.65.52-28 11.45-19.4 13.82-25.66 34.06-46.97 46.01-30.97 17.37-48.31-4.84-51.4-36.22-3.03-30.77 2.28-58.26 22.3-82.81 15.8-19.37 34.53-28.93 37.03-21.27zm74.38-79.5c-.32.46-21.21 21.73-5.03 19.44 7.84-1.11 50.67-13.71 60.82-16.73 9.01-2.68 16.24-6.14 18.98-12.37.74-1.68 2.81-8.93 1.72-9.67-1.3-.89-11.12 1.34-13.42 1.82-19.61 4.1-46.35 12.41-63.08 17.52zm134.2-39.17c-.32.46-21.21 21.73-5.03 19.44 7.84-1.11 50.67-13.71 60.82-16.73 9.01-2.69 16.24-6.15 18.98-12.38.74-1.68 2.81-8.93 1.72-9.67-1.3-.89-11.12 1.34-13.42 1.82-19.61 4.1-46.35 12.41-63.08 17.52zm79.09 396.12c4.74 8.58-19.85 16.36-25.13 16.84-12.86 1.17-28.17-6.54-44.06-3.84-23.62 4.01-25.28-2.1-15.24-7.43 4.84-2.57 10.65-3.25 14.59-5.55 2.6-1.52 4.25-4 3.18-8.61 0 0-5.68-9.1-1.12-17.18 2.98-5.27 13.44-11.15 19.11-12.83 12.1-3.6 23.55 1.19 32.62 12.38 3.55 4.37 4.84 9.47-3.38 12.8 0 0-16.41-14.25-26.83-2.38 0 0-9.12 6.73 8.88 11.29 10.47 2.65 12.81 1.52 22.84.94 6.17-.35 12.62.08 14.54 3.56zm-85.52 34.65c-.43.35-26.44 14.94-10.26 17.26 7.83 1.13 52.48 1 63.08.93 9.4-.06 17.31-1.36 21.68-6.58 1.18-1.41 5.19-7.78 4.36-8.8-1-1.22-11.05-1.82-13.39-2-19.98-1.54-47.97-1.03-65.46-.8zm179.33-210.13c-12.85 28.2-31.91 59.71-55.72 83.02-26.37 25.83-59.98 40.51-94.82 35.44-7.79-1.13-40.85-12.43-37.84-20.98 2.63-7.47 29.61-6.99 35.28-7.71 96.55-12.19 102.93-91.41 136.45-178.09 0 0-8.74 3.97-22.16 20.31-11.89 14.47-26.95 27.37-22.83 5.01 3.39-18.42 13.71-36.09 25.71-49.63 20-22.57 52.45-34.32 79.01-45.76 5.88-2.53 13.72-4.56 9.1 8.32-5.97 16.82-11.21 33.9-16.43 50.97-10.4 33.97-21.03 66.79-35.75 99.12z"/><path d="m5562.43 4521.33c4.5-10.19 8.45-16.95 10.35-21.44 3.11-7.36-5.32-7.31-15.63-5.07-8.17 1.77-26.73 6.88-34.51 11.07-5.35 2.88-9.93 7.44-14.11 15.62-5.58 10.92-8.82 26.26-12.47 38.29-8.77 28.86-20.55 60.78-38.77 86.46-19.58 27.58-36.19 50.39 17.38 15.4 46.39-30.32 66.47-92.14 87.77-140.34zm69.19-86.15c-.41.39-25.19 16.97-8.87 18.01 7.9.5 52.4-3.13 62.96-4.03 9.37-.8 17.15-2.72 21.1-8.26 1.07-1.5 4.57-8.17 3.65-9.12-1.09-1.14-11.16-.94-13.51-.94-20.03.03-47.91 2.74-65.32 4.34z"/><path d="m5388.92 4629.99c5.88-8.85 33.77-41.06 30.41-12.82-13.62 114.55 65.05 139.85 132.29 53.29 12.57-16.18 23.68-34.07 31.8-48.73 10.83-19.54 21.59-40.8 34.45-62.33 0 0-9.43 2.68-25.53 16.69-14.26 12.42-31.46 22.9-23.79 1.81 6.32-17.37 19.49-33.09 33.71-44.6 23.71-19.18 58.26-26.23 86.82-33.76 6.32-1.67 14.55-2.59 7.87 9.25-8.67 15.48-16.63 31.31-24.58 47.13-7.7 15.32-15.41 30.37-23.6 45.17-21.03 38.02-44.04 67.31-72.63 94.75-149.29 143.27-250.32 29.04-187.22-65.85z"/></g><path d="m3296.26 1398.88c-4.48-.61-12.01 5.92-15.33 6.92-2.18.66-2.7.09-3.71-1.95-1.19-2.48-2.35-5.04-3.62-7.46-2.86-5.46-6.78-10.46-13.54-6.77-5.03 3.02-23.43 11.79-23.01 16.54.27 3.14 6.39 12.84 9.19 14.94 7.94 5.93 16.95-6.97 22.18-1.19 6.27 6.93 5.23 20.44 27.87 6.99 5.98-3.55 10.67-5.44 9.81-13.8-.44-4.25-3.7-13.38-9.83-14.21z" fill="#020201"/><path d="m3240.93 1347.6c-9.98-2.27-19.09-4.34-31.7-.48-8.99 2.75-16.45 8.82-22.69 15.67-10.92 12.03-17.86 25.69-24.97 39.69-4.28 8.46-8.61 20.49-17.39 24.83-7.11 2.65-9.07-3.77-7.66-9.42 2.89-11.56 11.85-26.47 17.79-36.58 8.98-15.28 18.54-29.86 20.52-32.35 18.39-23.19 38.82-28.08 65.76-34.51 2.93-1.46 7.44-4.32 12.78-7.7 20.02-12.67 50.59-32.01 63.91-19.85 14.23 13.01 31.62 22.89 50.27 29.94 20.88 7.89 43.32 12.22 64.71 13.38 20.18 1.1 73.41-4.08 93.41-9.91-6.26-5.7-8.58-10.42-17.61-12.97-3.09-.87-8.1-.78-10.31-.15-3.64 1.03-7.01 1.53-7.19-.79-.45-5.9 10.14-12.9 14.82-14.71 14.45-5.61 23.36 2.67 31.78 10.4 5.7 5.23 10.67 9.73 18.6 10.83 4.71.66 10.75 1.5 12.75 6.65 1.83 4.7-1.64 8.53-8.52 11.67-4.54 2.07-10.9 4.19-18.04 6.24-13.77 3.96-28.77 7.8-43.93 11.21-14.18 3.18-28.44 5.96-41.88 8.04-17.23 2.68-32.9 3.76-47.79 3.22-15.03-.54-29.23-2.73-43.41-6.58-9.9-2.69-24.49-7.79-37.99-13.77-10.79-4.78-20.97-10.17-27.71-15.44-4.88-3.82-8.84-8.45-11.07-14.29-4.26-.87-9.04.55-13.03 2.01 2.91 3.04 6.12 6.18 8.3 9.78 2.94 4.86 3.67 10.23-2.36 15.8l-.01-.01-.4.37c-6.43 5.94-14.96 13.83-25.54 12.48-5.26-.67-9.82-1.71-14.23-2.71zm321.64 38.69c-4.17 4.36-12.96 7.2-14.08-1.77-.43-3.47.51-7.65.33-9.91-4.73-1.71-13.3 12.56-9.71 20.37 5.1 11.07 18.29 1.52 24.32 1.31 2.07-.07 2.65 5.92 10.32 5.95 4.11.01 11.81-7.98 13.6-10.82 4.29-6.8-.07-15.55-3.86-9.16-2.58 4.36-5.64 8.75-7.96 8.53-10.28-.97-1.45-16.56-12.96-4.49zm97.14-31.15c10.13.14 7.68 9.78 4.73 15.87-6.86 14.19-13.57 26.52-19.07 41.44-9.56 25.97-19.77 53.67-37.71 67.91-5.2 4.13-11.19 7.31-17.81 9.68-6.52 2.33-13.58 3.88-21.06 4.77-14.6 1.74-21.3 7.97-28.64 14.79-4.19 3.89-8.57 7.97-14.61 11.76-6.12 3.85-19.59 5.27-32.89 5.1-16.07-.2-32.67-2.93-36.32-6.56-5.24-5.21-.99-10.74 4.41-13.55 9.55-4.99 23.31-5.94 33.88-6.93 16.06-1.51 30.07-2.82 41.15-15.42 2.47-2.8 5.54-6.01 9.02-8.99 3.54-3.04 7.48-5.82 11.59-7.66 7.25-3.25 15.16-4.13 22.53-4.95 7.5-.83 16.66-.75 19.68-8.72 5.3-11.83 8.42-21.52 11.25-30.31 6.56-20.4 11.6-36.09 37.27-62 3.44-3.47 7.53-6.31 12.62-6.23zm43.9 100.1c4.07-12.96 7.9-25.84 12.12-38.76 3.02-9.23 5.88-17.29 9.78-26.15.64-1.46 5.69-12.87-.87-12.26-4.77.44-12.51 10.78-16.06 14-4.48 4.08-7.63 7.35-11.6 11.81-3.97 4.47-5.29 6.22-7.97 11.62-6.69 14.47-12.01 31.15-17.03 46.45-6.26 19.25-10.15 34.06-21.7 51.05-1.98 2.9-12.9 18.42 1.43 11.88 9.25-4.22 16.25-13.64 22.76-20.45 6.38-6.67 11.09-11.77 15.94-19.57 5.97-9.92 9.68-18.52 13.19-29.63z" fill="#020201"/><path d="m3429.33 1118.9c-6.15 11.5-15.21 23.8-25.71 35.15-10.26 11.08-21.9 21.27-33.59 28.94-13.83 9.08-29.46 15.95-46.76 18.56-17.33 2.62-36.27.96-56.68-7.02-12.57-4.92-22.9-12.47-28.85-22.57-5.45-9.23-7.19-20.41-3.64-33.42 3.41-12.51 11.15-26.33 20.63-38.55 9.85-12.71 21.7-23.84 32.59-30.11 3.2-1.84 5.74-2.38 7.71-2.06 2.55.41 4.17 1.85 5.04 3.99.57 1.39.67 2.94.43 4.53-.47 3.12-2.61 7.24-4.68 9.35-21.76 22.35-28.28 40.03-25.2 52.71 2.38 9.83 10.82 16.93 22.4 20.94 12.35 4.28 28.11 5.05 44.16 2 36.2-6.88 69.04-33.12 74.1-71.27 1.96-14.71 14.33-14.51 25.97-11.57 17.98 4.37 26.54-.23 41.55-10.95 23.68-16.93 41.11-16.5 66.57-20.53-6.27-1.96-19.42-7.14-21.51-7.75-15.85-5.21-30.31 7.49-34.09 5.19-2.46-1.5 1.09-6.63 2.07-8.31 1.29-2.2 3.59-4.13 4.65-4.97 12.82-10.23 27.18-12.27 42.3-9.77 14.43 2.39 29.4 8.96 44.32 16.36l.11.06c4.66 2.46 7.15 4.55 7.85 7.45.92 3.75-.94 6.31-5.05 9.34-5.19 3.82-9.14 6.27-13.97 7.84-4.73 1.55-10.04 2.15-17.96 2.32-6.28.13-16.24.49-25.25 1.34-2.09.2-21.81 6.5-21.73 6.75 2.29 7.18 18.64 10.68 4.29 26.91-9.23 10.43-16.58 10.33-28.5 3.86-3.7-2.01-8.37-6.38-12.72-6.23-3.36.22-11.96 7.04-17.07 9.25-6.69 2.88-16.65 3.01-19.28 4.18-.06 0-4.08 7.29-4.5 8.08z" fill="#020201"/><path d="m3386.03 1034.25c-1.05-1.97-11.68-13.58-14.76-14.8-4.46-1.77-17.9 9.08-23.73 14.32-3.25 2.92-7.25 5-4.38 8.86 2.38 3.18 14.66 16.8 16.99 17.89 7.81 3.65 18.85-5.21 23.21-8.39 8.22-6.41 7.2-9.43 2.68-17.87zm291.65 38.25c2.23-1.31 4.7-2.13 7.47-2.09 5.76.08 7.65 3.27 7.28 8.07-.18 2.35-1.24 5.1-2.54 7.8-5.81 12.03-12.5 23.67-17.15 36.23l-1.92 5.21c-9.56 25.97-19.77 53.67-37.7 67.91-5.2 4.12-11.19 7.31-17.82 9.68-6.52 2.34-13.58 3.88-21.06 4.77-14.6 1.74-21.3 7.96-28.64 14.79-4.19 3.9-8.57 7.97-14.6 11.76-6.12 3.85-19.59 5.27-32.89 5.1-7.43-.09-34.54-.82-38.03-9.03-2.22-5.23 2.01-8.94 6.11-11.08 3.57-1.87 8.17-3.24 10.14-3.67 8.26-1.81 16.21-2.55 23.74-3.26 16.05-1.51 30.06-2.83 41.15-15.42 2.47-2.8 5.54-6.01 9.02-8.99 3.54-3.04 7.48-5.82 11.59-7.66 7.25-3.25 15.16-4.13 22.53-4.95 9.42-1.05 17.76-1.97 19.4-8 4.03-10.68 7.97-20 11.52-31.03 6.56-20.4 11.6-36.09 37.27-62 1.52-1.53 3.21-3 5.16-4.14zm-89.67 29.06c-4.17 4.37-12.96 7.21-14.08-1.77-.44-3.47.51-7.65.33-9.91-4.74-1.71-13.31 12.56-9.71 20.37 5.1 11.07 18.28 1.52 24.31 1.31 2.07-.07 2.65 5.92 10.33 5.95 4.1.02 11.81-7.97 13.6-10.82 4.29-6.81-.08-15.55-3.86-9.17-2.58 4.36-5.64 8.75-7.96 8.53-10.28-.98-1.45-16.56-12.96-4.49zm137.65 80.3c4.07-12.96 7.9-25.84 12.12-38.76 3.02-9.23 5.88-17.29 9.78-26.15.64-1.46 5.69-12.87-.87-12.25-4.77.44-12.51 10.77-16.06 14-4.49 4.08-7.63 7.35-11.6 11.81-3.97 4.47-5.3 6.22-7.97 11.62-6.69 14.47-12.01 31.15-17.03 46.45-6.27 19.25-10.15 34.06-21.7 51.05-1.98 2.9-12.9 18.42 1.43 11.88 9.24-4.22 16.25-13.64 22.76-20.45 6.38-6.67 11.09-11.77 15.94-19.57 5.97-9.92 9.68-18.52 13.19-29.63z" fill="#020201"/><path d="m4309.89 1281.64c-1.26-7.87-4.92 1.63-8.29 12.82-15.63 51.88 5.6 63.71 2.59 87.53-1.84 14.51-19.07 31.36-37.79 36.19-11.53 2.97-27.2.26-36.72-8.19-7.19-6.38-6.81-10.48-8.56-15.8-5.91-17.98-9.85 2.81-10.66 10.51-1.07 10.18-3.9 22.28-9.43 30.86-13.68 30.47-82.95 52.4-94.61 10.49-1.47-5.27-.89-10.57-2.67-14.61-6.35 1.72-98.7 139.03-101.97 152.33 23.95-9.55 52.53-57.97 73.08-73.46 4.6-3.47 7.33-5.56 11.95-1.59 18.11 15.55 39.1 20.63 62.39 16.97 21.49-3.37 37.63-14.69 51.05-31.25 3.54-4.37 12.02-19.86 16.65-20.63 2.38-.4 4.55.48 8.34 2.01 26.98 10.92 54.34 3.92 73.76-17.84 49.64-55.64 20.43-116.92 10.9-176.35zm-118.07 21.88c-4.38.78-5.9 2.4-6.76 5.12-1.74 5.53-.68 8.9-6.48 13.92-19.07 16.49-21.99-2.23-26.38-9.1-3.7.53-3.92 1.46-5.15 4.92-2.75 7.76-4.03 19.87.86 27.35 13.09 20.01 40.65-11.59 44.05-13.54 3.01-1.74 9.73 1.59 21.13-4.4 6.1-3.2 10.56-15.41 10.98-21.04.32-4.23-3.01-21.46-11.75-14.35-1.32 1.07-1.09 2.02-1.18 3.79-.53 11.28-9.45 18.03-19.33 7.33zm-23.37-69.82c-1.24-1.68-7.71-11.04-9.5-11.19-7.95-.65-8.93 12.44-9.26 16.15-.52 10.87 6.32 12.13 13.05 20.69 8.53 10.85 6.57 14.73 10.27 25.89.9 2.72 1.81 4.05 3.9 6.27 5.64-2.72 6.37-4.05 6.43-9.23.2-15.61-4.47-34.2-14.18-47.59l-.72-.98zm245.11 42.6c-4.4-19.55-9.03-38.83-13.22-58.46-2.99-14.03-5.35-26.44-7.06-40.67-.28-2.35-2.45-20.69-9.65-14.88-5.24 4.23-6.96 23.27-8.8 30.09-2.34 8.63-3.7 15.18-5.17 23.88-1.47 8.72-1.77 11.96-1.08 20.86 2.42 23.49 7.99 48.72 12.94 71.99 6.29 29.22 12.2 50.98 10.74 81.4-.25 5.2-2.01 33.26 10.04 13.95 7.78-12.46 9.29-29.79 12.07-43.41 2.72-13.36 4.6-23.45 4.74-37.06-.06-17.16-1.8-30.92-5.54-47.7z" fill="#020201"/><path d="m4342.13 1093.09c-1.85-1.25-16.68-6.53-19.98-6.17-4.77.52-11.57 16.4-14.27 23.76-1.5 4.1-4.07 7.82.28 9.87 3.59 1.7 20.83 7.98 23.38 7.85 8.61-.43 14.22-13.43 16.58-18.28 4.27-9.51 1.95-11.7-6-17.04zm-337.71 128.21c-11.9 3.66-22.77 7.01-33.38 17.76-7.56 7.65-11.35 17.44-13.33 27.24-3.7 18.33-1.51 39.73 1.05 58.22.68 4.87 1.42 10.22.76 15.3-.6 4.62-4.57 15.78-12.73 11.61-5.35-2.73-6.95-12.94-7.7-17.25-1.5-8.67-2.35-20.72-2.79-32.58-.7-19.03-.34-37.75.08-41.15 3.9-31.6 21.99-47.77 45.85-69.07 2.09-3.01 4.92-8.19 8.26-14.32 12.54-22.99 31.67-58.09 53.59-54.68 23.42 3.64 48.09 2.64 72.19-1.67 21.59-3.86 42.71-10.35 62.11-18.54 13.5-6.4 26.69-13.7 38.63-21.66 27.81-18.65 55.28-41.49 77.32-66.09 6.03-6.74 17.06-18.17 18.12-26.85 1.84-15.13 2.53-18.98 10.22-32.63 5.16-9.09 11.04-19.74 16.82-28.41 2.46-3.68 7.45-5.69 5.83 1.52-2.27 10.04-4.48 19.87-6.14 30.02-1.79 10.16-4.34 19.5-8.04 29.2-9.33 24.49-24.99 43.89-41.92 64.08-35.02 41.77-95.2 88.95-151.59 104.04-26.2 7.01-86.19 19.26-108.76 4.55-5.01 1.65-9.07 5.69-12.27 9.3 10.47 2.26 23.23 4.59 23.83 14.35.26 4.38-3.43 13.85-4.95 17.17-2.81 6.1-7.04 11.85-14.41 14.84-5.93 2.41-11.37 4.09-16.63 5.71z" fill="#020201"/></svg>