<?xml version="1.0" encoding="UTF-8" standalone="no"?>
<svg
   width="300"
   height="300"
   xml:space="preserve"
   version="1.1"
   id="svg998"
   sodipodi:docname="Seal_of_Madagascar (3).svg"
   inkscape:version="1.2.1 (9c6d41e410, 2022-07-14)"
   xmlns:inkscape="http://www.inkscape.org/namespaces/inkscape"
   xmlns:sodipodi="http://sodipodi.sourceforge.net/DTD/sodipodi-0.dtd"
   xmlns:xlink="http://www.w3.org/1999/xlink"
   xmlns="http://www.w3.org/2000/svg"
   xmlns:svg="http://www.w3.org/2000/svg"><sodipodi:namedview
   id="namedview1000"
   pagecolor="#ffffff"
   bordercolor="#000000"
   borderopacity="0.25"
   inkscape:showpageshadow="2"
   inkscape:pageopacity="0.0"
   inkscape:pagecheckerboard="0"
   inkscape:deskcolor="#d1d1d1"
   showgrid="false"
   inkscape:zoom="6.4"
   inkscape:cx="176.32812"
   inkscape:cy="280.625"
   inkscape:window-width="1920"
   inkscape:window-height="1017"
   inkscape:window-x="-8"
   inkscape:window-y="-8"
   inkscape:window-maximized="1"
   inkscape:current-layer="svg998" />
  <defs
   id="defs510">
    <path
   d="m120.4914 64.81278-.002-38.41717"
   id="a" />
    <path
   d="m118.477 64.81278-.0129-19.40733"
   id="b" />
    <path
   d="m122.5162 64.81278-.0129-19.40733"
   id="c" />
    <path
   d="M98.91949 22.4779h-5.30505l4.28048 40.53404 1.076127-.0391-.05156-40.49494z"
   id="d" />
    <path
   d="M101.0226 22.4779h5.30505l-4.28048 40.53404-1.07613-.0391.0516-40.49494z"
   id="e" />
    <path
   d="M60.42487 179.2603c1.155584-1.30763-1.702966-4.40946-3.071421-5.47382-.669022 1.67256.912303 5.96038 3.071421 5.47382z"
   id="f" />
    <path
   d="M58.69597 181.1184c-.660744 1.61515-4.707682.42562-6.267966-.33005 1.2034-1.34047 5.748154-1.8213 6.267966.33005z"
   id="g" />
    <path
   d="M12.44774 109.9015c-1.644409-.58413-.889585-4.16552-.208048-5.75958 1.39552 1.13911 2.332603 5.13928.208048 5.75958z"
   id="h" />
  </defs>
  <circle
   cx="150"
   cy="150"
   fill="#ff0"
   stroke="#000"
   stroke-linecap="round"
   stroke-linejoin="round"
   r="149.5"
   id="circle512" />
  <circle
   cx="150"
   cy="150"
   r="52.5"
   fill="#fff"
   id="circle514" />
  <g
   transform="matrix(1.494774 0 0 1.488827 .5194 1.7089)"
   fill="none"
   stroke="#de2919"
   stroke-width=".986036"
   id="g566">
    <path
   d="m160.1148 154.8353-24.02286-7.13909"
   id="path516" />
    <g
   id="g564">
      <path
   d="M65.03952 174.7933c-15.87089-4.04552-35.7873-29.87462-37.03207-35.16491 7.157459 0 142.838.31119 142.838.31119-7.15746 17.11567-30.18581 32.98655-35.47611 34.23133"
   id="path518" />
      <path
   d="M29.87461 143.3627h139.1037"
   id="path520" />
      <path
   d="M32.98655 147.7194h133.5022"
   id="path522" />
      <path
   d="M38.58804 154.8769h121.988"
   id="path524" />
      <g
   id="g530">
        <path
   d="M55.89356 170.4366h86.32204"
   id="path526" />
        <path
   d="M54.81789 169.7545h88.78176"
   id="path528" />
      </g>
      <g
   id="g536">
        <path
   d="M45.08529 161.7232h108.7888"
   id="path532" />
        <path
   d="M44.53825 161.1045h109.8605"
   id="path534" />
      </g>
      <path
   d="m37.96726 143.4165 11.35456-3.81795"
   id="path538" />
      <path
   d="m160.8446 143.4089-11.67004-3.66664"
   id="path540" />
      <path
   d="m38.95214 154.6834 23.72353-6.93614"
   id="path542" />
      <path
   d="m141.6103 143.3734 14.11064 4.37229"
   id="path544" />
      <path
   d="m51.87202 161.4316 11.35082-6.46874"
   id="path546" />
      <path
   d="m147.3165 161.4316-11.96107-6.5908"
   id="path548" />
      <path
   d="m58.09666 169.6091 10.3744-8.05542"
   id="path550" />
      <path
   d="m140.9698 170.2194-10.49645-8.54363"
   id="path552" />
      <path
   d="m107.5276 143.49-5.24823-3.66156"
   id="path554" />
      <path
   d="m85.80242 143.49 5.736434-3.78361"
   id="path556" />
      <path
   d="m111.4333 169.9753-3.41746-8.42158"
   id="path558" />
      <path
   d="m87.02294 170.0973 3.661554-8.42158"
   id="path560" />
      <path
   d="m44.07347 147.7198 12.35155-4.33724"
   id="path562" />
    </g>
  </g>
  <path
   d="m 92.065083,271.2221 c 27.424467,13.30276 70.983157,21.23827 115.981197,-0.1235"
   fill="none"
   stroke="#ffffff"
   stroke-width="29.3886"
   id="path568" />
  <g
   transform="matrix(1.494774 0 0 1.506309 .5194 -.0177)"
   id="g696">
    <g
   transform="rotate(11.12082 117.2637 -4.729133)"
   fill="none"
   stroke="#ef8410"
   stroke-width=".986924"
   id="g576">
      <use
   xlink:href="#a"
   id="use570" />
      <use
   xlink:href="#b"
   id="use572" />
      <use
   xlink:href="#c"
   id="use574" />
    </g>
    <g
   id="g694">
      <g
   id="g592">
        <g
   transform="translate(.0289498)"
   fill="#00943a"
   fill-rule="evenodd"
   stroke="#00943a"
   stroke-width=".980297"
   id="g582">
          <use
   xlink:href="#d"
   id="use578" />
          <use
   xlink:href="#e"
   id="use580" />
        </g>
        <g
   transform="scale(-1 1) rotate(11.12082 17.259483 -1031.9594325)"
   fill="none"
   stroke="#ef8410"
   stroke-width=".986924"
   id="g590">
          <use
   xlink:href="#a"
   id="use584" />
          <use
   xlink:href="#b"
   id="use586" />
          <use
   xlink:href="#c"
   id="use588" />
        </g>
      </g>
      <g
   transform="translate(0 .0476392)"
   id="g642">
        <g
   transform="rotate(-24.34078 100.4332 101.4631)"
   id="g608">
          <g
   transform="translate(.0289498)"
   fill="#00943a"
   fill-rule="evenodd"
   stroke="#00943a"
   stroke-width=".980297"
   id="g598">
            <use
   xlink:href="#d"
   id="use594" />
            <use
   xlink:href="#e"
   id="use596" />
          </g>
          <g
   transform="scale(-1 1) rotate(11.12082 17.259483 -1031.9594325)"
   fill="none"
   stroke="#ef8410"
   stroke-width=".986924"
   id="g606">
            <use
   xlink:href="#a"
   id="use600" />
            <use
   xlink:href="#b"
   id="use602" />
            <use
   xlink:href="#c"
   id="use604" />
          </g>
        </g>
        <g
   transform="rotate(-49.09801 99.81541 99.68198)"
   id="g624">
          <g
   transform="translate(.0289498)"
   fill="#00943a"
   fill-rule="evenodd"
   stroke="#00943a"
   stroke-width=".980297"
   id="g614">
            <use
   xlink:href="#d"
   id="use610" />
            <use
   xlink:href="#e"
   id="use612" />
          </g>
          <g
   transform="scale(-1 1) rotate(11.12082 17.259483 -1031.9594325)"
   fill="none"
   stroke="#ef8410"
   stroke-width=".986924"
   id="g622">
            <use
   xlink:href="#a"
   id="use616" />
            <use
   xlink:href="#b"
   id="use618" />
            <use
   xlink:href="#c"
   id="use620" />
          </g>
        </g>
        <g
   transform="rotate(-72.93796 100.0121 100.0262)"
   id="g640">
          <g
   transform="translate(.0289498)"
   fill="#00943a"
   fill-rule="evenodd"
   stroke="#00943a"
   stroke-width=".980297"
   id="g630">
            <use
   xlink:href="#d"
   id="use626" />
            <use
   xlink:href="#e"
   id="use628" />
          </g>
          <g
   transform="scale(-1 1) rotate(11.12082 17.259483 -1031.9594325)"
   fill="none"
   stroke="#ef8410"
   stroke-width=".986924"
   id="g638">
            <use
   xlink:href="#a"
   id="use632" />
            <use
   xlink:href="#b"
   id="use634" />
            <use
   xlink:href="#c"
   id="use636" />
          </g>
        </g>
      </g>
      <g
   transform="matrix(-1 0 0 1 199.9946 .0476392)"
   id="g692">
        <g
   transform="rotate(-24.34078 100.4332 101.4631)"
   id="g658">
          <g
   transform="translate(.0289498)"
   fill="#00943a"
   fill-rule="evenodd"
   stroke="#00943a"
   stroke-width=".980297"
   id="g648">
            <use
   xlink:href="#d"
   id="use644" />
            <use
   xlink:href="#e"
   id="use646" />
          </g>
          <g
   transform="scale(-1 1) rotate(11.12082 17.259483 -1031.9594325)"
   fill="none"
   stroke="#ef8410"
   stroke-width=".986924"
   id="g656">
            <use
   xlink:href="#a"
   id="use650" />
            <use
   xlink:href="#b"
   id="use652" />
            <use
   xlink:href="#c"
   id="use654" />
          </g>
        </g>
        <g
   transform="rotate(-49.09801 99.81541 99.68198)"
   id="g674">
          <g
   transform="translate(.0289498)"
   fill="#00943a"
   fill-rule="evenodd"
   stroke="#00943a"
   stroke-width=".980297"
   id="g664">
            <use
   xlink:href="#d"
   id="use660" />
            <use
   xlink:href="#e"
   id="use662" />
          </g>
          <g
   transform="scale(-1 1) rotate(11.12082 17.259483 -1031.9594325)"
   fill="none"
   stroke="#ef8410"
   stroke-width=".986924"
   id="g672">
            <use
   xlink:href="#a"
   id="use666" />
            <use
   xlink:href="#b"
   id="use668" />
            <use
   xlink:href="#c"
   id="use670" />
          </g>
        </g>
        <g
   transform="rotate(-72.93796 100.0121 100.0262)"
   id="g690">
          <g
   transform="translate(.0289498)"
   fill="#00943a"
   fill-rule="evenodd"
   stroke="#00943a"
   stroke-width=".980297"
   id="g680">
            <use
   xlink:href="#d"
   id="use676" />
            <use
   xlink:href="#e"
   id="use678" />
          </g>
          <g
   transform="scale(-1 1) rotate(11.12082 17.259483 -1031.9594325)"
   fill="none"
   stroke="#ef8410"
   stroke-width=".986924"
   id="g688">
            <use
   xlink:href="#a"
   id="use682" />
            <use
   xlink:href="#b"
   id="use684" />
            <use
   xlink:href="#c"
   id="use686" />
          </g>
        </g>
      </g>
    </g>
  </g>
  <g
   transform="matrix(1.494774 0 0 1.488827 .2093 1.7089)"
   fill="#60bc24"
   fill-rule="evenodd"
   stroke="#60bc24"
   stroke-width=".493018"
   id="g874">
    <g
   transform="rotate(-1.09884 34.28059 143.0327)"
   id="g784">
      <g
   id="g702">
        <use
   xlink:href="#f"
   id="use698" />
        <use
   xlink:href="#g"
   id="use700" />
      </g>
      <g
   transform="translate(-5.228673 -3.338656)"
   id="g708">
        <use
   xlink:href="#f"
   id="use704" />
        <use
   xlink:href="#g"
   id="use706" />
      </g>
      <g
   transform="translate(-11.37151 -7.139919)"
   id="g714">
        <use
   xlink:href="#f"
   id="use710" />
        <use
   xlink:href="#g"
   id="use712" />
      </g>
      <g
   transform="rotate(11.43778 103.5844 90.3455)"
   id="g720">
        <use
   xlink:href="#f"
   id="use716" />
        <use
   xlink:href="#g"
   id="use718" />
      </g>
      <g
   transform="rotate(17.06823 97.09868 99.51572)"
   id="g726">
        <use
   xlink:href="#f"
   id="use722" />
        <use
   xlink:href="#g"
   id="use724" />
      </g>
      <g
   transform="rotate(23.21328 93.33039 105.8615)"
   id="g732">
        <use
   xlink:href="#f"
   id="use728" />
        <use
   xlink:href="#g"
   id="use730" />
      </g>
      <g
   transform="rotate(26.86244 96.19585 103.3856)"
   id="g738">
        <use
   xlink:href="#f"
   id="use734" />
        <use
   xlink:href="#g"
   id="use736" />
      </g>
      <g
   transform="rotate(26.86244 106.3203 93.40102)"
   id="g744">
        <use
   xlink:href="#f"
   id="use740" />
        <use
   xlink:href="#g"
   id="use742" />
      </g>
      <g
   transform="rotate(36.54876 94.85386 104.3787)"
   id="g750">
        <use
   xlink:href="#f"
   id="use746" />
        <use
   xlink:href="#g"
   id="use748" />
      </g>
      <g
   transform="rotate(40.81023 94.81317 104.2784)"
   id="g756">
        <use
   xlink:href="#f"
   id="use752" />
        <use
   xlink:href="#g"
   id="use754" />
      </g>
      <g
   transform="rotate(43.4559 97.26005 101.594)"
   id="g762">
        <use
   xlink:href="#f"
   id="use758" />
        <use
   xlink:href="#g"
   id="use760" />
      </g>
      <g
   transform="rotate(50.82412 93.03144 105.3976)"
   id="g768">
        <use
   xlink:href="#f"
   id="use764" />
        <use
   xlink:href="#g"
   id="use766" />
      </g>
      <g
   transform="rotate(50.82412 98.97574 101.5394)"
   id="g774">
        <use
   xlink:href="#f"
   id="use770" />
        <use
   xlink:href="#g"
   id="use772" />
      </g>
      <g
   transform="rotate(57.08531 96.09908 103.9535)"
   id="g780">
        <use
   xlink:href="#f"
   id="use776" />
        <use
   xlink:href="#g"
   id="use778" />
      </g>
      <use
   xlink:href="#h"
   id="use782" />
    </g>
    <g
   transform="scale(-1 1) rotate(-1.09884 -65.9268816 10592.7212787)"
   id="g872">
      <g
   id="g790">
        <use
   xlink:href="#f"
   id="use786" />
        <use
   xlink:href="#g"
   id="use788" />
      </g>
      <g
   transform="translate(-5.228673 -3.338656)"
   id="g796">
        <use
   xlink:href="#f"
   id="use792" />
        <use
   xlink:href="#g"
   id="use794" />
      </g>
      <g
   transform="translate(-11.37151 -7.139919)"
   id="g802">
        <use
   xlink:href="#f"
   id="use798" />
        <use
   xlink:href="#g"
   id="use800" />
      </g>
      <g
   transform="rotate(11.43778 103.5844 90.3455)"
   id="g808">
        <use
   xlink:href="#f"
   id="use804" />
        <use
   xlink:href="#g"
   id="use806" />
      </g>
      <g
   transform="rotate(17.06823 97.09868 99.51572)"
   id="g814">
        <use
   xlink:href="#f"
   id="use810" />
        <use
   xlink:href="#g"
   id="use812" />
      </g>
      <g
   transform="rotate(23.21328 93.33039 105.8615)"
   id="g820">
        <use
   xlink:href="#f"
   id="use816" />
        <use
   xlink:href="#g"
   id="use818" />
      </g>
      <g
   transform="rotate(26.86244 96.19585 103.3856)"
   id="g826">
        <use
   xlink:href="#f"
   id="use822" />
        <use
   xlink:href="#g"
   id="use824" />
      </g>
      <g
   transform="rotate(26.86244 106.3203 93.40102)"
   id="g832">
        <use
   xlink:href="#f"
   id="use828" />
        <use
   xlink:href="#g"
   id="use830" />
      </g>
      <g
   transform="rotate(36.54876 94.85386 104.3787)"
   id="g838">
        <use
   xlink:href="#f"
   id="use834" />
        <use
   xlink:href="#g"
   id="use836" />
      </g>
      <g
   transform="rotate(40.81023 94.81317 104.2784)"
   id="g844">
        <use
   xlink:href="#f"
   id="use840" />
        <use
   xlink:href="#g"
   id="use842" />
      </g>
      <g
   transform="rotate(43.4559 97.26005 101.594)"
   id="g850">
        <use
   xlink:href="#f"
   id="use846" />
        <use
   xlink:href="#g"
   id="use848" />
      </g>
      <g
   transform="rotate(50.82412 93.03144 105.3976)"
   id="g856">
        <use
   xlink:href="#f"
   id="use852" />
        <use
   xlink:href="#g"
   id="use854" />
      </g>
      <g
   transform="rotate(50.82412 98.97574 101.5394)"
   id="g862">
        <use
   xlink:href="#f"
   id="use858" />
        <use
   xlink:href="#g"
   id="use860" />
      </g>
      <g
   transform="rotate(57.08531 96.09908 103.9535)"
   id="g868">
        <use
   xlink:href="#f"
   id="use864" />
        <use
   xlink:href="#g"
   id="use866" />
      </g>
      <use
   xlink:href="#h"
   id="use870" />
    </g>
  </g>
  <path
   d="M83.8386 156.4995c-1.73243 35.61932 25.5453 61.97766 43.73573 65.6036v-9.91977c-21.5005-7.29146-36.58949-25.39674-43.73573-55.68383Zm132.3164 0c-7.14624 30.28709-22.26693 48.39237-43.76742 55.68383v9.91977c18.19043-3.62594 45.49985-29.98428 43.76742-65.6036zm-86.99608 56.06414v9.72962c6.33469 1.77887 10.34767 5.56441 13.12072 11.25086 2.43138 4.9858 3.10101 10.60324 3.96157 14.38842.11669.51327-.0557.87592-.25354.88739-.28626.0166-.42054-.48186-.47539-.69724-1.67626-6.58268-4.44042-12.40667-7.03575-16.6069-1.446-2.34019-3.11238-4.64542-5.19758-6.30682-.71422-.56907-1.44541-.65794-2.28186-.38031.32517 2.94182.90335 5.77594 2.21848 8.43022 1.36837 2.76175 2.93795 4.28482 4.2468 6.30682 1.30885 2.02201 2.50961 4.51838 3.51788 9.25423.7835 3.68013.73822 8.55807 1.48955 12.51856.79515 4.19149 3.21106 6.78221 7.51113 6.78221 4.30008 0 6.71599-2.59072 7.51114-6.78221.75133-3.96049.70605-8.83843 1.48955-12.51856 1.00827-4.73585 2.20903-7.23222 3.51788-9.25423 1.30884-2.022 2.87843-3.54507 4.2468-6.30682 1.31512-2.65428 1.89331-5.4884 2.21848-8.43022-.83645-.27763-1.56764-.18876-2.28187.38031-2.08519 1.6614-3.75157 3.96663-5.19758 6.30682-2.59532 4.20023-5.35948 10.02422-7.03574 16.6069-.0549.21538-.18914.71387-.47539.69724-.19786-.0115-.37023-.37412-.25354-.88739.86055-3.78518 1.53018-9.40262 3.96157-14.38842 2.77305-5.68645 6.78603-9.47199 13.12072-11.25086v-9.72962c-6.48501 2.5486-13.88786 3.51787-20.82202 3.51787-6.93416 0-14.337-.96927-20.82201-3.51787zm-6.65544 10.80716c-6.97332.24552-14.21962 2.1961-15.94136 7.32098 5.35308 1.93463 15.84885.0388 20.66355-7.2259-1.5074-.10517-3.11296-.15179-4.72219-.095zm51.78565 0c-.51908.0185-1.01878.0601-1.52124.095 4.8147 7.26464 15.31048 9.16053 20.66355 7.2259-1.98662-5.91332-11.35612-7.59754-19.14231-7.32098z"
   fill="#de2919"
   fill-rule="evenodd"
   id="path876" />
  <g
   transform="matrix(1.064458 0 0 1.076737 -2.7016 -4.0438)"
   id="g926">
    <path
   d="M23.40945 112.615q.369461-.5591 1.201141-.95603.834168-.40638 2.178281-.67841l4.362912-.92091-.539842 2.04923-4.091996.85089q-1.60061.32565-2.23748.86479-.634384.5297-.932913 1.66291l-.547305 2.07756 5.958809 1.56977-.502526 1.90757-14.09905-3.71421 1.134415-4.30621q.636864-2.41752 1.960769-3.34121 1.323902-.92367 3.363685-.38632 1.331525.35078 2.045573 1.2054.716538.84518.745531 2.11518zm-7.179836 3.21855 5.005023 1.31851.631888-2.39864q.363212-1.37874-.08541-2.24422-.45557-.87744-1.692661-1.20333-1.23709-.3259-2.04694.21818-.816803.53213-1.180014 1.91087z"
   id="path878" />
    <path
   d="m18.52836 102 3.255008-8.624981 1.553227.586177-2.558492 6.779384 4.038391 1.52406 2.451601-6.496147 1.553227.586177-2.451601 6.49614 4.942917 1.86543 2.620558-6.943842 1.553228.586178-3.317074 8.789434z"
   id="path880" />
    <path
   d="m26.40708 86.99548 4.876638 2.496504 1.130325-2.207961q.627463-1.225679.33555-2.219878-.291914-.9942-1.465437-1.594963-1.16483-.596313-2.142059-.251828-.977228.344486-1.604692 1.570165zm-2.341917 1.017221 2.029244-3.963898q1.116975-2.181883 2.677561-2.787245 1.556345-.618505 3.460059.356067 1.9211.983471 2.32932 2.607698.412669 1.615534-.704306 3.797416l-1.130325 2.207962 5.215656 2.670058-.89892 1.755937z"
   id="path882" />
    <path
   d="M35.57443 70.59934q-1.180296 1.795184-.539515 3.735832.646145 1.932487 2.955405 3.450776 2.3011 1.512924 4.331411 1.34015 2.035675-.180934 3.215971-1.976118 1.180295-1.795184.528784-3.719511-.646146-1.932488-2.947245-3.445412-2.30926-1.51829-4.33957-1.345515-2.024946.164614-3.205241 1.959798zm-1.338228-.879857q1.684603-2.562217 4.414964-2.964272 2.722201-.407422 5.610816 1.491781 2.880454 1.893838 3.593583 4.559916.704969 2.660711-.979635 5.222929-1.689969 2.570377-4.417534 2.985958-2.722202.40742-5.610817-1.491782-2.888614-1.899203-3.593582-4.559915-.707764-2.674237.982205-5.244615z"
   id="path884" />
    <path
   d="m48.23797 64.06423 4.03614 3.499195 2.07265-2.390694q1.042721-1.202725 1.04732-2.206866.0036-1.017917-1.022019-1.907109-1.033016-.895589-2.025377-.734879-.993344.146934-2.036065 1.349659zm-4.530513-3.927798 3.320408 2.878679 1.912723-2.206226q.946765-1.092045 1.001526-1.975149.05378-.89688-.78739-1.626145-.833791-.722869-1.713984-.54246-.873795.173029-1.82056 1.265074zm-2.517069.428581 3.300886-3.807401q1.477722-1.704476 2.985709-2.012694 1.507987-.308217 2.814014.824064 1.01088.876398 1.199141 1.866796.188262.990398-.457401 2.033297 1.189281-.894719 2.466466-.84727 1.276203.03367 2.397763 1.006027 1.475737 1.279413 1.410013 2.980194-.06572 1.700781-1.671388 3.552831l-3.428827 3.954975z"
   id="path886" />
    <path
   d="m51.22196 49.50366 1.44514-1.342737 8.794261 9.464953 5.201074-4.832523 1.130026 1.216208-6.646214 6.17526z"
   id="path888" />
    <path
   d="m60.31124 41.46244 1.537843-1.235482 9.131555 11.36633-1.537843 1.235482z"
   id="path890" />
    <path
   d="m65.68196 37.183 1.640093-1.096117 3.424005 5.123258 2.015904-8.758889 2.11101-1.410843-2.239661 9.671911 10.77147 2.162562-2.159725 1.4434-9.723037-1.947085 3.901521 5.837754-1.640093 1.096116z"
   id="path892" />
    <path
   d="m83.61061 28.6267.924143 7.678102 4.772472-2.442815zm-1.876471-1.222662 1.990704-1.018952 11.58954 10.44688-1.825536.93441-2.886438-2.724287-5.850407 2.994563.521935 3.934571-1.851616.947759z"
   id="path894" />
    <path
   d="m91.99544 22.49478 2.493707-.914926 10.270503 9.224114-4.20126-11.45088 1.79694-.659285 5.022 13.68788-2.4937.914926-10.270513-9.224113 4.20126 11.45088-1.796936.659285z"
   id="path896" />
    <path
   d="m114.3877 15.58655 1.2097 5.283197-1.61827.370538-1.2097-5.283197z"
   id="path898" />
    <path
   d="m117.0861 15.02881 1.9364-.376434 2.78227 14.31215-1.9364.376434z"
   id="path900" />
    <path
   d="m148.5956 12.35622 2.92901.247466 2.8722 10.19989 4.56225-9.571769 2.92902.247467-1.22747 14.52832-1.91699-.161963 1.07784-12.75728-4.58831 9.647972-1.97538-.166896-2.90454-10.28103-1.07784 12.75728-1.90726-.161141z"
   id="path902" />
    <path
   d="m171.4957 17.30648-4.18577 6.502825 5.23372 1.162774zm-.66532-2.138556 2.18311.485019 2.26223 15.43818-2.00197-.444776-.48532-3.939254-6.41584-1.425404-2.10769 3.363164-2.03057-.451132z"
   id="path904" />
    <path
   d="m183.0964 20.10574-3.69322 10.71951 2.25285.776179q2.853.98295 4.61866.145221 1.7749-.834546 2.73558-3.622911.95432-2.7699.0669-4.51136-.87497-1.747511-3.72796-2.730461zm-1.33702-2.175255 3.8317 1.320145q4.00712 1.380582 5.30565 3.69751 1.3017 2.307696.0802 5.853167-1.22789 3.563937-3.6872 4.586172-2.45929 1.022237-6.44795-.351984l-3.8317-1.320144z"
   id="path906" />
    <path
   d="m200.4525 27.48676-5.59129 5.342734 4.81629 2.355255zm-.14638-2.234863 2.00898.98243-1.41335 15.5389-1.84229-.900916.44999-3.94345-5.90411-2.887222-2.83621 2.776543-1.86862-.913788z"
   id="path908" />
    <path
   d="m211.9514 46.35622 2.14044-3.279286-2.69867-1.761458.88607-1.35751 4.33422 2.829005-3.4215 5.24195q-1.39983.05424-2.78242-.346739-1.37725-.409154-2.68569-1.263194-2.86222-1.868212-3.39252-4.593348-.51678-2.72798 1.4315-5.712865 1.95361-2.993063 4.65354-3.609791 2.71343-.619571 5.57565 1.248641 1.19395.77931 2.07308 1.772956.88731.998981 1.42139 2.163912l-1.14761 1.75822q-.40883-1.374715-1.18301-2.439804-.77418-1.065085-1.9109-1.807036-2.24071-1.462541-4.18591-.947949-1.93703.519928-3.55437 2.997792-1.612 2.469686-1.30832 4.452156.31186 1.987803 2.55256 3.450345.87503.571143 1.65804.872313.78835.292992 1.54443.33169z"
   id="path910" />
    <path
   d="m227.1678 44.85403-6.68564 3.887082 4.13196 3.416227zm.38031-2.207127 1.72353 1.424981-5.00792 14.77754-1.58053-1.306755 1.35969-3.728871-5.06525-4.187844-3.40685 2.036318-1.60312-1.325425z"
   id="path912" />
    <path
   d="m241.7478 56.69824-1.38994 1.330102q-.3884-1.18274-.88658-2.084701-.49819-.901968-1.13961-1.572242-1.11404-1.164169-2.17325-1.36705-1.05247-.19583-1.88502.600877-.6985.668429-.65999 1.429048.0523.760916.95441 2.141446l.64732 1.029567q1.22253 1.884887 1.1759 3.37578-.0328 1.491196-1.31691 2.720017-1.53106 1.465136-3.30705 1.191218-1.76922-.266852-3.66647-2.249463-.71569-.747892-1.35657-1.756601-.63413-1.001651-1.16675-2.222093l1.46756-1.40437q.34364 1.333699.8934 2.402566.54976 1.068875 1.31947 1.873208 1.16805 1.220609 2.2825 1.424706 1.11445.204104 2.00345-.646622.77611-.742697.75443-1.641077-.0149-.891336-.83598-2.187203l-.66113-1.029872q-1.2084-1.89839-1.213-3.259173-.005-1.360784 1.2019-2.515337 1.397-1.33685 3.13984-1.125824 1.74957.21807 3.40376 1.946683.70894.740833 1.31083 1.638165.60189.897347 1.10348 1.958245z"
   id="path914" />
    <path
   d="m245.8276 60.73355 1.24365 1.531248-11.31757 9.191917-1.24365-1.531248z"
   id="path916" />
    <path
   d="m250.0418 66.0152 1.12536 1.620175-5.06103 3.515332 8.79363 1.858505 1.44847 2.085368-9.71052-2.065852-1.96905 10.80852-1.4819-2.133496 1.77241-9.756386-5.76685 4.005582-1.12535-1.620175z"
   id="path918" />
    <path
   d="m258.9246 83.67917-7.65777 1.079741 2.53914 4.721919zm1.18434-1.900891 1.05913 1.969612-10.20958 11.79913-.97126-1.806208 2.66516-2.941113-3.11265-5.788448-3.92317.601661-.98513-1.832005z"
   id="path920" />
    <path
   d="M260.5045 101.2425q.0323.66936-.40421 1.48099-.43289.82072-1.35658 1.83435l-2.97585 3.32075-.77522-1.97225 2.79864-3.10421q1.09895-1.20842 1.29422-2.01969.19885-.802165-.22985-1.892817l-.78594-1.999522-5.73499 2.254223-.72163-1.835916 13.56947-5.333687 1.62904 4.144455q.91455 2.326714.39219 3.854147-.52236 1.527437-2.48553 2.299087-1.28151.50372-2.36255.2361-1.07746-.25853-1.85121-1.26601zm3.89097-6.838834-4.81704 1.893408.90741 2.308537q.52158 1.326953 1.39489 1.760169.88596.43872 2.07659-.0293 1.19063-.467994 1.52255-1.385428.34458-.911926-.177-2.238879z"
   id="path922" />
    <path
   d="m270.022 112.4612-7.69077-.81199 1.31661 5.19716zm1.61046-1.55643.54919 2.16784-12.76904 8.96699-.50362-1.98799 3.29955-2.20596-1.61398-6.37101-3.95186-.36894-.51082-2.01638z"
   id="path924" />
  </g>
  
  
  
  
  
  
  
  
  
  
  
  
  
  
  
  
  
  
  
  
  
  
  
  
  
  
  
  
  
  
  
  
  
  <g
   transform="translate(137.72635 53.371627) scale(.4750002)"
   fill="#de2919"
   stroke="#de2919"
   id="g996">
    <path
   fill-rule="evenodd"
   clip-rule="evenodd"
   stroke-width=".821529"
   stroke-linecap="round"
   stroke-linejoin="round"
   stroke-miterlimit="22.9256"
   d="M21.663134 295.51546c-.746795-.0392-1.141416-.0671-1.65571-.0671-.514568 0-1.14881.0282-1.902999.19005-.753915.16212-1.628052.45816-2.586534.87386-.958483.41571-2.001586.95137-2.931862 1.51495-.930276.56414-1.747999 1.15621-2.276534 1.6423-.5285356.48636-.7681562.86674-1.0077769.98668-.2396207.11995-.4792414-.0211-.7470689.0564-.2681013.0775-.5638617.37353-.8670161.50033-.3031544.12679-.6131551.0846-1.0499494.0846-.4370682 0-1.0009299.0422-1.5434311.12706-.5427751.0846-1.0641897.21114-1.5012579.35218-.4370681.14103-.7892421.29603-.9866895.21141-.1974475-.0846-.2396207-.40859-.2609812-.66929-.021361-.26071-.021087-.45816-.1478802-.57098-.1267936-.11283-.3806546-.14104-.7613091-.27495-.3806546-.13392-.8881028-.37354-1.254517-.71886-.3664143-.34533-.5920686-.79637-.9442425-1.12061-.352174-.32424-.8316892-.52141-1.3320172-.70462-.5006019-.18348-1.0220165-.35245-1.5294646-.43707-.5074482-.0846-1.000656-.0846-1.5645178-.11995-.5638617-.0353-1.1981034-.1057-1.688025-.18676-.4899216-.0811-.8352493-.1728-1.0220165-.28207-.1867672-.10899-.214974-.23579-.214974-.40503 0-.16896.028207-.38065.024647-.55345-.00356-.17253-.038613-.30644-.214974-.419-.1763608-.11282-.4934817-.20456-.7328285-.34888-.2396207-.14432-.4017412-.34177-.5603017-.48609-.1585604-.1446-.3138346-.23606-.5320949-.27851-.218534-.0422-.500328-.0353-.740223-.0707-.23962-.0353-.436794-.11256-.655328-.33465-.218534-.22237-.458155-.58851-.588509-.88126-.130353-.2922-.15144-.51073-.15144-.73611 0-.22566.02109-.45843-.116387-.74022-.137474-.2818-.433508-.61289-.662449-.91631-.22894-.30288-.391334-.57756-.479241-.86319-.08818-.28535-.102421-.58138-.09859-.78951.0036-.20786.02465-.32726.0775-.42639.05285-.0983.1372-.17609.133914-.32725-.0036-.15172-.0953-.37737-.320681-.71202-.225654-.33492-.584948-.77911-.986689-1.20878-.401742-.42968-.845656-.84566-1.268484-1.16278-.422828-.31712-.824569-.53565-1.028863-.9059-.204293-.36998-.211414-.89139-.232774-1.48346-.02136-.59207-.05641-1.25452-.0775-1.83591-.02136-.58138-.02848-1.08171-.03177-1.59628-.0033-.51457-.0036-1.0431-.01068-1.54343-.0068-.50033-.02136-.97272-.137474-1.36735-.116113-.39434-.334648-.71174-.387501-.92315-.05285-.21114.0597-.31712.123234-.57427.06353-.25715.0775-.66628.06709-1.05734-.01068-.39106-.04601-.76432.07038-1.00422.116114-.23935.383941-.34533.581389-.41899.197173-.0742.324241-.11639.345327-.27495.02109-.15856-.06353-.43351-.01068-.62028.05285-.18704.243181-.28535.348888-.4335.105707-.14788.126793-.34533-.0036-.58495-.130354-.23962-.412148-.52142-.722423-.76104-.310274-.23962-.648482-.43707-.884542-.69065-.236061-.25359-.369975-.56386-.422828-.97273-.05285-.40858-.02465-.91631-.03505-1.33913-.01041-.42283-.05997-.76104-.116387-1.00778-.05641-.24674-.119948-.40201-.285354-.63123-.165407-.22894-.433508-.53182-.782122-.84565-.348888-.31357-.778836-.63781-1.127724-1.01846-.348887-.38066-.616715-.81745-.817448-1.16278-.201008-.34532-.334922-.59919-.426388-.9059-.09174-.30644-.141034-.66601-.127068-.9374.01424-.27111.09147-.45432.08818-.67997-.0036-.22538-.08818-.49321-.236061-.78568-.14788-.29248-.359294-.6096-.458155-.92672-.09859-.31712-.08462-.63424-.155-.93028-.07038-.29603-.22538-.57098-.260707-.8106-.03533-.23962.04929-.44391-.02821-.71886-.0775-.27467-.317121-.62028-.452678-.98313-.135557-.36285-.167324-.74351-.05285-1.00066.11447-.25714.375451-.39133.600831-.39133.225381 0 .415982.13391.501972-.0104.08626-.14459.06874-.56742-.01397-.82457-.08298-.25714-.230857-.34888-.414338-.41625-.183208-.0665-.401742-.10899-.511009-.40503-.109267-.29603-.109267-.84565-.102146-1.2526.0071-.40694.02136-.67148.03177-.86701.01068-.19554.0178-.3226.02656-.52525.0088-.20238.01944-.48089.06709-.70654.04738-.22538.131997-.39791.253587-.47212.12159-.0742.279877-.0496.396264.0652.116387.11447.190327.31877.336565.41927.146237.10023.364771.0969.479241-.0548.11447-.15144.12515-.45076.130354-.6797.0055-.22921.0055-.38778-.02109-.60987-.02656-.22209-.07942-.50772-.03177-.79828.04765-.29056.195531-.58686.357651-.79116.162121-.20429.338208-.31712.507448-.37353.169241-.0561.331088-.0561.415708-.19718.08462-.1413.09174-.4231.08489-1.09979-.0071-.67668-.02848-1.74772-.01424-2.41346.01424-.66628.06353-.92699.338207-1.24055.274948-.31356.775276-.67997 1.169897-.89139.394621-.21141.683535-.2681.940956-.24674.257147.0214.482802.11995.673129.15172.190327.0318.345327-.004.507448-.11639.162121-.11283.331087-.30288.532095-.54606.200734-.24318.433508-.53922.567422-.96916.133913-.42968.16924-.99381.278507-1.7124.109267-.71914.292475-1.59273.468562-2.26941.176086-.67669.345327-1.15593.592068-1.48702.246741-.33136.570982-.51484.84593-.6274.274673-.11282.500328-.155.669294-.45815.168967-.30316.282068-.86674.387775-1.38843.105707-.52142.204294-1.00066.387775-1.32134.183207-.32068.451034-.4828.588508-.64821.137474-.16568.144594-.33492.271388-.48636.126793-.15171.37326-.28535.570708-.41598.197447-.13036.345328-.25715.444188-.50389.09886-.24674.14788-.61315.257147-.94096.1092677-.3278.2785084-.61671.4828022-1.00065.2045676-.38422.4439144-.86346.679975-1.30053.2360606-.43679.4685612-.83141.7363886-1.24027.2678275-.40859.5709819-.83142.8034824-1.13101.2325006-.2996.3946211-.47541.4650011-.65177.07038-.17636.049567-.35245-.028207-.52525s-.2114139-.34177-.253861-.54962c-.042447-.20813.00712-.4546-.1128271-.52498-.1199473-.0707-.4088613.0351-.6273954-.004-.2185341-.0389-.3664143-.22209-.3488877-.68353.017526-.46172.2007336-1.20167.3171208-1.78306.1161134-.58138.1656806-1.00449.3382075-1.26519.1725269-.26071.4685612-.35957.5353811-.46856.067094-.10927-.095027-.22922-.1585604-.40887-.063534-.17964-.028207-.41926-.028207-.64464 0-.22566-.035053-.43707-.2571472-.73995-.2220942-.30288-.6306817-.69778-1.0324229-1.26137-.4017412-.56386-.7963623-1.29696-1.1559302-1.91696-.3592938-.62028-.6835348-1.12772-.8667418-1.59273-.183208-.46527-.225655-.88782-.246741-1.2756-.02136-.38777-.02136-.73995.08462-1.14169.105707-.40201.317121-.85278.387775-1.24055.07038-.3875 0-.71174-.246741-1.36707-.246741-.6556-.669295-1.64229-1.155656-2.45262-.486362-.8106-1.036257-1.44485-1.282724-1.87479-.246741-.42995-.190327-.65561-.162121-1.21235.02821-.55674.02821-1.44457-.07394-2.00158-.102421-.55674-.306714-.78267-.426388-1.16661-.119947-.38422-.155-.92672-.172527-1.44485-.01753-.51813-.01753-1.01133.02109-1.4202.03861-.40886.116113-.7331.207854-1.04666.09174-.31356.197447-.61671.218534-.90563.02109-.28919-.04245-.56386-.236061-.87742-.193887-.31383-.518128-.66601-.775275-.97957-.257148-.31356-.447475-.58851-.518129-.9478-.07065-.35957-.02136-.80348.05641-1.27917.0775-.47568.183207-.98313.352448-1.4484.16924-.46527.401741-.8881.662448-1.25096.260707-.36285.549622-.66601.792802-.97601.243181-.31.440355-.62739.584949-1.00065.144594-.37354.23606-.80348.384214-1.07843.147881-.27495.352448-.39462.581389-.66245.22894-.26783.483075-.68354.722696-1.08144.23962-.39791.465275-.77884.609595-1.13457.144594-.35574.207853-.6871.3595675-1.0149.1514403-.3278.391061-.65177.6235615-.92316.2325006-.27138.4581548-.49019.6342418-.67312.1760869-.18321.3028805-.33109.3770945-.52142.07394-.19033.095027-.42283-.024647-.72571-.1199473-.30315-.3806546-.67669-.4474746-.88454-.067094-.20813.059974-.2503.2749477-.38421.214974-.13392.5178545-.35957.6202752-.57455.1021469-.21497.00356-.41926-.1692406-.70133-.1728008-.2818-.4195416-.64136-.5849484-.98669-.1656806-.34533-.2503009-.67669-.1585604-1.26848.091741-.5918.359568-1.44485.6306817-1.82167.2713875-.37709.5463351-.27851.8138887-.27851.2678275 0 .5288087-.0986.9373962-.0739.4088614.0246.9656029.17253 1.4941377.25715.5285348.0846 1.0288628.10571 1.3355773.19745.3064406.0915.4192677.25358.7435087.22538.3242411-.0282.859896-.24674 1.3813106-.58495s1.0288628-.79636 1.427044-1.23316c.398181-.43707.6870951-.85277 1.0923964-1.19098.4053013-.33821.9267159-.59919 1.2723174-.77172.3453277-.1728.5142945-.25742.6517683-.20812.1374738.0493.2431808.23277.3067145.4828.06326.2503.08462.56742.038887.97601-.045733.40886-.1585604.90919-.08106 1.1206.0775.21141.3453276.13391.6306816-.0422.2856279-.17636.5885084-.45104.7435088-.63424.1550003-.18349.1621205-.27495.096944-.40887-.065177-.13391-.2026507-.31027-.2500271-.47212-.04765-.16212-.0052-.31027.1232335-.38421.1287105-.0742.3434107-.0742.5742681-.0882.2308574-.0142.4773244-.0425.7769187-.10571.2995944-.0635.6517683-.16212.891389-.14815.2396207.014.3664143.14103.3981811.37709.031767.23606-.031767.58139-.02273.81416.00876.2325.089824.35245.2555041.29083.1656806-.0616.4159815-.30479.5515384-.47924.1358307-.17444.1566435-.28015.2026506-.50032.045733-.22046.1163872-.5551.1481541-.86702.031493-.31192.024373-.60083-.084894-.78404-.109267-.18321-.320681-.26098-.3453277-.46856-.024647-.20785.1372-.54634.3560079-.78568.2182602-.23962.4932079-.38066.715302-.33848.2220942.0424.391061.2681.6342418.38777.2431818.11995.5603024.13391.8949504.0425.334921-.0915.687095-.28919.997369-.37162.310275-.0827.578103-.0509.710373.20457.131997.2555.128711.73474.179647 1.02366.05094.28891.156918.3875.465001.41406.308358.0263.819366-.0194 1.106637-.15883.286997-.13939.350531-.37189.255504-.50937-.09503-.13747-.348888-.17964-.539215-.25358-.190327-.0742-.317121-.17965-.246741-.35601s.338208-.42283.560302-.62028c.222094-.19745.398181-.34533.618632-.46692.220177-.12131.484719-.21661.733103-.26755.248383-.0512.480884-.0581.759392.0389.278507.0969.602748.29768.706538.57071.104064.2733-.01232.61835-.142677.82456-.130627.20622-.274947.27304-.251944.37518.023.10242.213331.23962.386132.44583.172527.20621.327527.48089.419268.74023.09147.25906.119673.50197.211414.62876.09147.12679.246467.13747.41735.0457.170884-.0917.357651-.28535.602475-.39845.245098-.11283.547979-.14432.713659-.23606.165681-.0915.193888-.24318.06709-.39627-.126794-.15335-.408861-.30835-.679975-.47924-.271388-.17088-.532095-.35765-.615072-.52689-.08298-.16924.01205-.32068.102147-.49156.08982-.17116.174444-.36121.207854-.48445.03341-.12351.01588-.17964-.110911-.23962-.126793-.06-.362854-.12323-.479241-.26071-.116387-.13747-.112827-.34888-.05641-.54441.05641-.19553.165407-.37518.595355-.7646.429948-.38942 1.180577-.98833 1.569721-1.30052.389144-.3122.417625-.33657.602749-.4776.18485-.14104.526892-.39818.972449-.77856.445558-.38066.995179-.88455 1.477981-1.32326.482801-.43871.898509-.81224 1.38487-1.17537.486362-.36313 1.043377-.7153 1.459085-.89851.415707-.18321.690655-.19745.785956-.0457.0953.15171.01041.46856.02465.70818.01424.23962.126794.40174.359568.50745.232775.1057.584949.155.814163.23962.22894.0846.334921.20429.310001.35573-.02465.15171-.179647.33492-.465001.60987-.285354.27467-.701336.64136-.866743.9478-.16568.30644-.08106.55318.158287.61316.239894.06.634242-.0671.976009-.20074.342042-.13391.630956-.27494.877697-.2785.246467-.004.45076.13035.693941.14103.243181.0104.525249-.10242.560302-.30315.03533-.20074-.176087-.48993-.352174-.68354-.176361-.19389-.317121-.29247-.317121-.51457 0-.22209.141034-.56742.03505-.78212-.105707-.21497-.457881-.29959-.704622-.41927-.246467-.11994-.387501-.27495-.514568-.51101-.126794-.23606-.239621-.55318-.204294-.82456.03533-.27139.218534-.49677.542501-.75419.324515-.25715.789516-.54634 1.053784-.90563.264541-.35957.327801-.78925.528535-1.08884.201007-.29959.539488-.46856.898783-.6378.359294-.16924.739948-.33821.908915-.54278.169241-.20456.126794-.44391-.06682-.51785-.193887-.0742-.539215.0175-.754189 0-.214974-.0178-.299594-.1446-.236061-.43707.06326-.29247.274948-.75063.648483-1.18742.373534-.4368.908915-.85278 1.345983-.94096.437068-.0879.775276.15144.97957.4724.204567.32068.274947.72242.296034.99737.02109.27467-.0068.42282.0038.58138.01041.15856.05997.32753-.09886.56031-.158286.2325-.524975.52853-.778562.89851-.253861.36997-.394621.81416-.461988 1.22631-.06682.41214-.05997.79307.08489.94451.14432.15144.426388.0739.577828-.13035.15144-.20457.172527-.53593.331087-.76131.158561-.22538.454595-.34533.718862-.64492.264542-.29932.496768-.77856.666009-1.19811.169241-.41926.274948-.77883.451856-1.16195.176909-.38312.42584-.79034.652042-1.12772.226476-.33712.43077-.60522.649304-.78487.218534-.17964.451034-.27138.683535-.28891.232774-.0175.465275.0386.623835.18677.158287.14815.243181.38777.407766.38668.164585-.001.409409-.24209.581389-.2043.171705.0378.270292.35492.362032.47459.09147.11995.176087.0422.257147-.14432.08106-.18677.158561-.4828.285354-.57783.126794-.0953.302881.0107.472395.26783.168967.25715.331088.66601.55236.70736.221273.0413.501424-.28453.487183-.68628-.01424-.40174-.322597-.87906-.610416-1.17071-.287819-.29166-.55592-.39736-.964508-.3656-.408861.0318-.958756.20074-1.293404.17965-.334921-.0211-.454594-.2325-.599188-.27495-.144594-.0422-.313835.0846-.507722.0882-.193888.004-.412148-.11638-.531821-.44774-.119948-.33109-.141034-.87387-.272209-1.29943-.131176-.42557-.372713-.73365-.391335-.97218-.01862-.23852.185672-.40776.393799-.61918.208128-.21141.419268-.46527.539215-.75775.119948-.29247.14788-.62356.292474-.78924.144321-.16568.405028-.16568.644649-.0422.23962.12323.458154.36997.736388.41598.278508.0457.616715-.10927.768429-.33492.151441-.22538.116114-.52169.0036-.78596-.112828-.26427-.303155-.49677-.260982-.67997.04245-.18321.317121-.31712.577829-.23606.260981.0811.507722.37682.668747.76733.161299.39024.236882.87468.267827 1.2756.03094.40065.01698.71804.176909.89577.160477.17801.495398.21689.655602.0214.160477-.19553.146237-.62547.118304-.99216-.02848-.36642-.07065-.66957-.113649-1.06145-.04327-.39216-.08709-.87304-.179647-1.17346-.09256-.30042-.233596-.42036-.540036-.56852-.306715-.14788-.77911-.32396-.87085-.53565-.09147-.21142.197721-.45816.109267-.78212-.08791-.32425-.553182-.72599-.871398-1.04557-.317942-.31986-.488826-.55757-.620549-.8599-.131175-.30206-.222642-.66847-.208676-.93986.01397-.27139.133914-.44747.292201-.54277.15856-.095.356008-.10927.327801-.26071-.02848-.15144-.281794-.44036-.366688-.69778-.08462-.25714 0-.4828.155-.60959.155-.1268.380655-.155.542501-.20786.162121-.0528.260708-.13035.320681-.42282.06025-.29248.08106-.79993.246741-1.08884.165407-.28919.475681-.35957.612881-.10927.137474.2503.102421.82101.165681 1.0746s.22538.19033.313835.0107c.08791-.17965.102147-.47568.2325-.59563.130628-.11995.377095-.0635.518129.0986.141033.16212.17636.42995.31.57454.134188.14432.366688.16541.511009.28179.144594.11612.200733.32753.246467.75392.04601.42639.08133 1.06775.415981 1.55055.335195.48253.969163.80677 1.314491.8421.345601.0351.402015-.21854.402015-.64137 0-.42282-.05641-1.01489-.0038-1.47661.05285-.46171.214974-.79307.306714-1.05022.09147-.25715.112554-.44035.288914-.57783.176361-.13747.507722-.22921.888103-.26427.380655-.0353.810329-.0142 1.039543-.1057.229214-.0917.257147-.29604.102147-.51813-.155-.2221-.493482-.46172-.585222-.85278-.09147-.39106.06353-.93383.285628-1.09239.222094-.15884.511008.0668.658888.30671.14788.23962.155001.49321.366414.66957.211414.17609.627396.27467 1.018457.28179.391335.007.758023-.0775 1.062546-.14815.304798-.0704.547705-.12679.732829-.24647.18485-.11995.311918-.30315.315204-.52169.0033-.21853-.116387-.47212-.102421-.69777.01424-.22566.162395-.42283.327801-.58495.165407-.16212.348888-.28891.377095-.45815.02821-.16925-.09859-.38066-.165407-.63781-.06709-.25714-.07421-.5603.02821-.89851.102421-.3382.313834-.71201.666282-1.28984.352174-.57783.845656-1.35995 1.109923-1.92053.264268-.56002.299321-.8985.193614-1.14141-.105707-.24291-.352448-.39106-.503888-.5321-.151714-.14103-.208128-.27494-.204568-.54962.0038-.27467.06682-.69065-.01753-.90919-.08435-.21853-.316847-.23962-.408588-.39462-.09174-.155-.04217-.44419-.01424-.70489.02848-.26071.03533-.49321-.06326-.60248-.09859-.10927-.302881-.095-.394621-.19033-.09147-.0953-.07038-.29959-.243181-.50032-.172801-.20074-.539215-.39818-.810602-.69778-.271114-.29959-.447475-.70133-.377095-.95492.07065-.25386.387775-.3593.740223-.34889.352174.0107.739948.13747 1.004216.35957.264541.22209.405301.53894.574542.74351.16924.20456.366414.29603.535655.19388.168966-.10242.31-.39818.380654-.7153.07038-.31712.07038-.6556.162121-.9478.09147-.29247.274673-.53922.524974-.73995.250027-.20073.567148-.35601.778836-.44391.211414-.0882.317121-.10927.437068-.17636.119947-.0671.253587-.17965.405028-.26783.15144-.0882.320681-.15144.412421-.32068.09147-.16924.105707-.44392.2147-.67669.109267-.2325.313835-.42283.204568-.54278-.109267-.11967-.532095-.16924-.83881-.24318-.306714-.0739-.496767-.17252-.483075-.41214.01424-.23963.232775-.62028.489922-.71531.257147-.0953.553455.095.799922.25003.246467.155.443915.27495.443915.17992 0-.0953-.197448-.4053-.214701-.72242-.01753-.31712.144321-.64136.362855-.87742.218534-.23606.493207-.38422.771441-.3278.278782.0564.560576.31712.733103.64136.1728.32424.23606.71174.31.99737.07421.28535.158835.46856.271388.73995.112827.27138.253861.63068.232774.84921-.02109.21826-.204293.29604-.486087.2325-.282068-.0633-.662723-.26783-.933836-.23606-.271388.0318-.433509.2996-.447749.47568-.01397.17609.119947.26071.183481.41215.06326.15171.05614.37025.14076.55674.08489.18677.260981.34204.451035.26098.190327-.0811.394621-.39818.602749-.54633.207853-.14816.419267-.1268.595628-.004.176087.12323.316847.34889.408314.59919.09174.2503.134187.52497.285628.63807.151714.11283.412421.0633.725708.1372.313835.0739.680249.27139.979843.5603.299321.28892.531821.66957.672855.99737s.190327.60275.03889.88455c-.15144.28179-.503888.5707-.644648.95848-.141034.3875-.07038.87386.137474 1.1028.207854.22894.553181.20101.810329.27495.257147.0739.426387.25003.489647.5603.06353.31.02136.75419.08133.89851.05997.14432.222095-.0107.465002-.0564.242906-.0457.567147.0175.806768.155.239621.13747.394621.34888.454595.54962.05997.20073.02492.39106.197447.57071.172801.17964.553456.34888.697776.57454.14432.22538.05258.50745.126793.73283.07421.22538.313835.39462.560302.62383.246741.22894.500602.51786.560302.8599.05997.34177-.07421.73639-.109267 1.16633-.03505.42995.02821.89495.179647 1.3145.151714.41926.391334.7928.679975 1.23315.289188.44063.627395.9478.743782 1.37775.116114.42995.01041.7824-.04245 1.08528-.05258.30288-.05258.55674.04217.82457.0953.26783.285628.54962.391335.77883.105981.22894.126794.4053.116387.63425-.01041.22894-.05285.511.06326.79992.116388.28891.391335.58495.549896.89522.15856.31028.200733.63424.22894 1.18386.02848.54963.04217 1.3249.03889 2.3083-.0036.98313-.02465 2.17412.0068 2.79795.03177.62356.116388.67998.218534.82813.102147.14816.222095.3875.299595.6556.0775.26783.112827.56387.105707.80349-.0068.23962-.05614.42282-.13364.57782-.0775.155-.183207.2818-.218534.69066-.03533.40886 0 1.09952.07421 1.56452.07394.465.186767.70462.31356.92315.127068.21854.268102.41598.363129.6378.09503.2221.14432.46857.186767.88811.04245.41954.0775 1.01133.16212 1.53275.08489.52141.218534.97272.362854 1.2159.144321.24318.299595.27824.359568.40859.06025.13035.02492.35601.04217.59919.0178.24318.08818.50389.278781.82101.190054.31712.500328.69065.806769.97957.30644.28891.609869.4932.761035.84921.151714.35601.151714.86318.158561 1.26137.0068.39845.02109.68709.03533 1.01845.01397.33109.02821.7049-.02136 1.16661-.04929.46172-.16212 1.01134-.352174 1.60697-.190053.59535-.458155 1.23671-.739949 1.69843-.282067.46171-.578102.74351-.761309 1.10636-.183207.36286-.253861.80704-.299594 1.14169-.04573.33492-.06682.5603-.169241.70134-.101873.14103-.285354.19744-.507448.42283-.222094.22538-.482801.62027-.658888.9478-.176361.32752-.267828.58823-.422828.73639-.155001.14815-.373535.1832-.539215.10926-.165681-.0739-.278508-.25714-.503888-.50032-.225655-.24319-.564136-.54634-.881257-.71887-.316847-.17252-.612881-.21497-.771441-.38065-.158561-.16568-.179647-.4546-.183481-.72242-.0036-.26783.01068-.5143-.09831-.74351-.109267-.22894-.342042-.44063-.525249-.64136-.183207-.20101-.317121-.39134-.359568-.59563-.04245-.2043.0071-.42283.07065-.58166.06353-.15884.141034-.25715.162121-.38751.02109-.13035-.01424-.29247-.158561-.39818-.144594-.1057-.398455-.155-.525248-.29247-.126794-.13747-.126794-.36313-.112828-.72954.01424-.36642.04245-.87387-.02821-1.14142-.07038-.26783-.239621-.29603-.616716-.26098-.377094.0353-.962042.13391-1.38843.30671-.426388.1728-.693942.41927-.891389.68381-.197448.26427-.324241.54606-.334922.79637-.01041.2503.0953.46856.141034.68709.04601.21853.03177.43707.06682.69422.03533.25714.119948.55318.250301.91959.130628.36642.306441.80348.419268 1.15566.112827.35245.16212.62027.208128.87057.04573.2503.08791.48281.07394.71887-.01397.23606-.08462.47568-.229215.6556-.14432.17965-.362854.29932-.468561.46856s-.09859.38777.01753.51813c.116113.13035.341767.1728.454595.33492.112827.16212.112827.44391.197447.6378.08462.19389.253861.29932.567148.50033.313835.20073.771715.49677 1.021743.73639.2503.23962.292474.42283.218534.61315-.07394.19033-.264268.38778-.380655.68381-.116387.29604-.15856.69066-.130354 1.00778.02821.31712.126794.55674.239621.70462.112827.14815.239621.20457.267828.50745.02848.30315-.04217.85277-.133914 1.24739-.09147.39463-.204294.63452-.342042.85661-.1372.2221-.29932.42639-.391061.66245-.09147.23606-.112827.50389-.126793.67669-.01424.17253-.02109.2503-.187041.33465-.165407.0846-.489648.17636-.669569.36997-.179373.19389-.2147.48993.0071.7824.221821.29247.701336.58139 1.021743.75775.320407.17636.483075.23962.356008.34861-.126794.10927-.542501.26454-.965329.38066-.423102.11611-.852776.19388-1.159491.2607-.30644.0671-.489647.12324-.771441.36286-.281794.23962-.662449.66245-.948077 1.05734-.285354.39462-.475681.76104-.577828 1.08528-.102147.32424-.116387.60603-.2922 1.01489-.176361.40887-.514568.94425-.747343 1.45909-.232774.51429-.359568 1.00778-.408861 1.4799-.04929.47212-.02081.92343.162394 1.2756.183207.35245.521415.60603.662449.8599.141034.25386.08462.50744.05641.8106-.02848.30288-.02848.65533.105707.9656.133914.31.401741.57783.458155.90919.05641.33136-.09859.72571-.366414 1.51523-.268102.78924-.648482 1.97337-.880983 2.72756-.232774.75392-.317121 1.07843-.296034 1.4024.02109.32424.14788.64848.197173.91631.04957.26783.02136.47924-.141033.69778-.161847.21853-.457881.44418-.644649.75062-.186767.30644-.264267.69395-.296034 1.09213-.03177.39818-.01753.80704-.02465 1.07487-.0071.26782-.03533.39462-.16212.67641-.126794.28207-.352448.71886-.613155 1.16305-.260707.44392-.556742.89495-.817449 1.50811-.260707.61315-.486088 1.38843-.669569 2.02979-.183207.64136-.324241 1.14881-.521414 1.7899-.197448.64163-.450761 1.41691-.725709 1.88876-.274947.47239-.570982.64136-.761035.97957-.190327.3382-.274948.84592-.373534 1.28984-.09859.44391-.211414.82457-.232775 1.28272-.02136.45816.04957.99381-.08462 1.44485-.134188.45103-.472121.81745-.824569 1.44457-.352448.62739-.718862 1.51522-.965603 2.22724-.246467.71201-.373261 1.24739-.514568 1.90984-.14076.66273-.295761 1.45197-.345328 2.07197-.04929.62055.0071 1.07131-.126794 1.55055-.133913.47924-.458154.98696-.803756 1.52947-.345328.5425-.711742 1.1206-1.000656 1.77593s-.500328 1.38815-.796362 2.29762c-.295761.90919-.676415 1.99446-.98669 3.02333-.310274 1.02913-.549895 2.00185-.697775 2.73468-.148154.73283-.204294 1.22631-.278508 1.52235-.07421.29603-.16568.39435-.317395.53894-.15144.14432-.362854.33492-.327527.44391.03505.10927.317121.13748.397907.38394.08133.24675-.03861.71202-.204293 1.1877-.165407.47568-.377095.96232-.581389 1.49414-.204293.53182-.401741 1.1102-.521414 1.61737-.119674.50717-.162121.94424-.345328 1.5856-.183207.64137-.507722 1.4873-1.08199 3.05893-.574268 1.57137-1.398837 3.86926-1.959139 5.25057-.560301 1.38131-.856336 1.84604-1.046663 2.34637-.190327.50033-.274948 1.03598-.443914 1.64229-.169241.60604-.423102 1.28272-.648482 1.93093-.225381.64848-.422828 1.26876-.627122 1.79729-.204568.52881-.415982.96561-.465275 1.53632-.04929.57098.06326 1.27587.0775 1.96653.01424.69065-.07065 1.36707-.232774 1.95914-.162121.59207-.401467 1.09979-.612881 1.63517-.211414.53565-.394621 1.09951-.458155 1.62805-.06326.52853-.0068 1.02174-.155001 1.57876-.14788.55674-.500328 1.17701-.817448 1.80414-.317121.62739-.599189 1.26163-.739949 1.80441-.14076.54277-.141034.99381-.211414 1.83946-.07038.84593-.21114 2.08621-.535655 3.36893-.324241 1.28273-.831415 2.60762-1.29669 3.46725-.465001.86017-.887829 1.25479-1.085277 1.79017-.197447.53565-.168966 1.21234-.366688 1.76196-.197173.5499-.620001.97273-.930002 1.64914-.31.67642-.507448 1.60697-.747069 2.39621-.239894.78951-.521414 1.43772-.620549 1.9312-.09859.49349-.01397.83169-.141034 1.04311-.126793.21141-.465001.29603-.634241.52169-.168967.22538-.168967.59179-.310001.90207-.141034.31-.422828.56386-.563862.85989-.141034.29576-.141034.63424-.268101.81745-.126794.18321-.380655.21114-.602475.3875-.22182.17636-.412421.50033-.599189.61316-.186767.11255-.369974.0142-.609595-.0633-.23962-.0775-.535655-.13392-.852776.14432-.31712.27823-.655602.89166-1.373916 1.17318-.718314.28152-1.817283.23332-2.563805.19416zm46.813394-119.46064c-.306441.66957-.722422 1.51523-1.08555 2.06156-.362854.54634-.672855.79281-1.000382.84566-.327801.0529-.673129-.0879-.553456-.65533.119674-.56742.704622-1.56123 1.13813-2.4633.433508-.90207.715302-1.71267.926716-2.20232.211414-.48992.352448-.65889.553455-.47924.201008.17965.461715.70818.493482 1.21946.03149.51074-.165681 1.00395-.472395 1.67351zm-18.985353-59.38129c-.292474.0529-.673128.27139-.94123.55674-.267827.28536-.422828.6378-.383941.96917.03889.33136.271388.64136.560302.74706.289188.10571.634242.007.803756-.19388.168967-.20101.162121-.50416.172527-.75419.01068-.2503.03889-.44748.123234-.63068.08489-.18321.225654-.35245.193887-.49321-.03204-.14104-.236334-.25414-.528535-.20101zm-4.899764 8.92402c-.371891-.10762-.731185-.30123-.946159-.54606-.214974-.2451-.285628-.54113-.251944-.8054.03341-.26426.170884-.49677.301237-.60603.130628-.10927.253861-.095.343685-.18294.08982-.0882.146237-.2785.230857-.4828.08462-.20456.197448-.42282.442272-.52881.245097-.10543.621918-.0986.861539.0353.23962.13391.341767.39462.334921.61836-.0068.22374-.123233.41078-.08791.5833.03533.17253.222095.33137.310001.50061.08818.16896.0775.34861.05121.49485-.02629.14623-.06846.25906-.145964.43186-.0775.1728-.190327.40503-.438985.51101-.248658.10598-.633146.0841-1.004764-.0233zm1.152371.33301c-.266185-.0353-.667652.17636-.778836.43871-.11091.26262.06874.57618.304797.7153.236061.13912.528535.10379.704622-.0175.176087-.12131.236061-.32944.200734-.57454-.03505-.24482-.165133-.52689-.431317-.56194zm-8.321548 7.27324c-.193613.0493-.440354.23962-.479241.46171-.03889.2221.130627.47568.250301.72955.119947.25386.190053.50744.281794.71201.09174.2043.204293.35957.338207.33465.13364-.0247.288914-.22894.373535-.52142.08462-.29247.09859-.67312.03861-.95163-.05997-.27851-.193614-.4546-.331088-.58824-.1372-.13473-.278233-.2262-.472121-.17663zm-2.825881 7.75412c-.156643.19389-.290831.57071-.317121.92316-.02656.35245.05477.68025.370248.84593.315204.16541.8651.16897 1.134844-.0635.269744-.2325.25879-.70134.10023-1.06091-.15856-.35957-.465001-.60959-.708182-.72954-.243181-.11995-.423375-.10899-.580019.0849zm-49.860822 26.59735c-.350531.0477-.741592.28371-.768156.57975-.02629.29603.311918.65177.710099.75583.398181.10406.856062-.0441 1.0379-.26947.181564-.22565.08626-.52853-.116387-.75063-.202651-.22237-.512925-.36313-.863456-.31548zm.06162 32.23077c-.334922.0246-.595629.15171-.715302.42282-.119674.27112-.09859.6871.06709.99381.165407.30644.475682.50389.803483.46172.327801-.0425.673129-.32424.842369-.6556.169241-.33136.162121-.71175-.04573-.94096-.208128-.22894-.617263-.30644-.95191-.28179zm-2.096887-1.32161c-.246741.0846-.465275.2607-.524974.511-.0597.2503.03889.57427.31.75063.271114.17636.715302.2043.99025.0739.274674-.13035.380381-.41927.355734-.67997-.02465-.26071-.179647-.49348-.394621-.61316-.2147-.11994-.489648-.12706-.736389-.0424zm2.315421-1.4202c-.334922.004-.821283.24318-.933836.60275-.112827.35929.148154.83881.489921 1.01489.342042.17609.764596.0493.969163-.19388.204294-.24319.190328-.60275.09147-.89851-.09886-.29604-.282068-.52881-.616715-.52525z"
   id="path994" />
  </g>
<g
   aria-label="FITIAVANA TANINDRAZANA"
   transform="rotate(-6.8941154,137.72884,157.75051)"
   id="text5337"
   style="font-size:6.62685px;font-family:'DejaVu Sans';-inkscape-font-specification:'DejaVu Sans';stroke-width:1.1597"><path
     d="m 94.893728,267.12966 2.516981,1.17157 -0.232129,0.49871 -1.924405,-0.89575 -0.600806,1.29076 1.736658,0.80836 -0.23213,0.4987 -1.736658,-0.80836 -0.973579,2.09162 -0.592576,-0.27583 z"
     id="path5372" /><path
     d="m 98.256297,268.66688 0.59895,0.2617 -1.934215,4.42689 -0.59895,-0.2617 z"
     id="path5374" /><path
     d="m 99.32199,269.14799 3.78307,1.546 -0.2081,0.50921 -1.58751,-0.64876 -1.619445,3.96278 -0.608046,-0.24849 1.619451,-3.96278 -1.587512,-0.64876 z"
     id="path5376" /><path
     d="m 103.59407,270.8653 0.61069,0.23297 -1.72191,4.51371 -0.6107,-0.23298 z"
     id="path5378" /><path
     d="m 106.6221,272.66766 -1.63989,1.96898 1.67405,0.59436 z m -0.13217,-0.73022 0.69828,0.24792 0.11868,5.16859 -0.64035,-0.22735 -6e-5,-1.31512 -2.05216,-0.7286 -0.82935,1.02063 -0.6495,-0.2306 z"
     id="path5380" /><path
     d="m 108.76517,277.8089 -0.28232,-5.16339 0.65018,0.20833 0.21644,4.34039 2.7017,-3.40538 0.6471,0.20734 -3.22744,4.03881 z"
     id="path5382" /><path
     d="m 114.19997,275.0825 -1.51203,2.06879 1.70831,0.48725 z m -0.17811,-0.7204 0.71257,0.20324 0.44547,5.15072 -0.65346,-0.18638 -0.0833,-1.31247 -2.09415,-0.5973 -0.76311,1.07106 -0.66279,-0.18904 z"
     id="path5384" /><path
     d="m 117.02503,275.20175 0.85431,0.2116 1.1076,4.43793 0.97165,-3.92293 0.61561,0.15247 -1.16147,4.6893 -0.85432,-0.2116 -1.10759,-4.43793 -0.97165,3.92293 -0.61561,-0.15247 z"
     id="path5386" /><path
     d="m 123.12641,277.29373 -1.36384,2.16935 1.73817,0.36674 z m -0.228,-0.7062 0.72503,0.15298 0.80414,5.10702 -0.66487,-0.14028 -0.17474,-1.30345 -2.13076,-0.44957 -0.68643,1.12175 -0.67437,-0.14229 z"
     id="path5388" /><path
     d="m 127.3188,277.46613 4.03265,0.66291 -0.0892,0.54279 -1.69224,-0.27818 -0.6944,4.22423 -0.64816,-0.10655 0.6944,-4.22423 -1.69225,-0.27818 z"
     id="path5390" /><path
     d="m 132.84139,278.96798 -1.19833,2.26498 1.76068,0.23614 z m -0.28001,-0.68724 0.73442,0.0985 1.18261,5.03287 -0.67348,-0.0903 -0.27141,-1.28679 -2.15835,-0.28949 -0.6009,1.1698 -0.6831,-0.0916 z"
     id="path5392" /><path
     d="m 135.65499,278.67952 0.87587,0.0865 1.73463,4.23237 0.39708,-4.02191 0.63114,0.0623 -0.47465,4.80762 -0.87587,-0.0865 -1.73463,-4.23238 -0.39708,4.02192 -0.63114,-0.0623 z"
     id="path5394" /><path
     d="m 140.46857,279.12047 0.65189,0.0476 -0.35188,4.81817 -0.65189,-0.0476 z"
     id="path5396" /><path
     d="m 142.29446,279.25801 0.87915,0.0416 1.94859,4.13823 0.19109,-4.03695 0.6335,0.03 -0.22842,4.82559 -0.87914,-0.0416 -1.9486,-4.13824 -0.19109,4.03696 -0.6335,-0.03 z"
     id="path5398" /><path
     d="m 147.71491,280.00798 -0.0372,3.75654 0.78949,0.008 q 0.9998,0.01 1.46697,-0.43852 0.47041,-0.44837 0.48008,-1.42553 0.01,-0.97068 -0.45187,-1.42504 -0.45821,-0.45756 -1.45802,-0.46745 z m -0.64827,-0.54358 1.34277,0.0133 q 1.40426,0.0139 2.05529,0.60604 0.65107,0.58891 0.63877,1.83138 -0.0123,1.24895 -0.67821,1.82806 -0.66586,0.57911 -2.06364,0.56529 l -1.34278,-0.0133 z"
     id="path5400" /><path
     d="m 154.35442,281.99367 q 0.21206,0.0658 0.41529,0.29373 0.20646,0.22781 0.41735,0.6303 l 0.69659,1.30295 -0.70194,0.0178 -0.64925,-1.22323 q -0.25168,-0.47914 -0.48213,-0.6319 -0.22721,-0.15284 -0.61538,-0.14299 l -0.71164,0.0181 0.0518,2.04111 -0.65342,0.0166 -0.12248,-4.82945 1.47503,-0.0374 q 0.82809,-0.021 1.24445,0.31478 0.41635,0.33578 0.43407,1.03448 0.0116,0.4561 -0.19429,0.76234 -0.20263,0.30616 -0.60402,0.43287 z m -1.68821,-1.98666 0.0435,1.7144 0.82162,-0.0208 q 0.47227,-0.012 0.70614,-0.23477 0.23703,-0.22612 0.22628,-0.64987 -0.0107,-0.42374 -0.25876,-0.63108 -0.24487,-0.21066 -0.71714,-0.19868 z"
     id="path5402" /><path
     d="m 157.82274,279.91172 -0.74427,2.45197 1.77339,-0.10404 z m -0.40596,-0.62121 0.73972,-0.0434 2.12094,4.71488 -0.67835,0.0398 -0.51189,-1.21139 -2.17393,0.12754 -0.36673,1.26295 -0.68803,0.0404 z"
     id="path5404" /><path
     d="m 160.2558,279.11416 3.77925,-0.35136 0.0461,0.49617 -2.69129,4.04913 3.11555,-0.28965 0.0509,0.54772 -3.92746,0.36514 -0.0461,-0.49617 2.69129,-4.04913 -2.96734,0.27587 z"
     id="path5406" /><path
     d="m 166.57048,279.09851 -0.57531,2.49703 1.76216,-0.22475 z m -0.44738,-0.59207 0.73503,-0.0937 2.43756,4.55924 -0.67405,0.086 -0.59332,-1.17366 -2.16017,0.27551 -0.27974,1.28502 -0.68368,0.0872 z"
     id="path5408" /><path
     d="m 169.21109,278.09606 0.86852,-0.14247 2.76803,3.64143 -0.6542,-3.98817 0.62584,-0.10266 0.78201,4.76728 -0.86852,0.14247 -2.76803,-3.64143 0.65421,3.98818 -0.62585,0.10266 z"
     id="path5410" /><path
     d="m 175.63866,277.61115 -0.39567,2.53171 1.74163,-0.34991 z m -0.48848,-0.55864 0.72647,-0.14596 2.75665,4.37371 -0.66619,0.13384 -0.67555,-1.12834 -2.13501,0.42894 -0.18734,1.3017 -0.67572,0.13576 z"
     id="path5412" /></g><g
   aria-label="FANDROSOANA"
   transform="rotate(-15.26216,172.50511,156.49999)"
   id="text5337-3"
   style="font-size:6.38727px;font-family:'DejaVu Sans';-inkscape-font-specification:'DejaVu Sans';stroke-width:1.11777"><path
     d="m 94.813935,267.28158 2.422585,1.13649 -0.225178,0.48 -1.852234,-0.86892 -0.582815,1.24235 1.671527,0.78415 -0.225179,0.48 -1.671527,-0.78415 -0.944427,2.01317 -0.570352,-0.26756 z"
     id="path5415" /><path
     d="m 98.664673,269.71223 -1.703939,1.78788 1.571626,0.67946 z m -0.08006,-0.71077 0.655559,0.28342 -0.218897,4.97823 -0.601169,-0.2599 0.08468,-1.26474 -1.926601,-0.83292 -0.86334,0.9281 -0.609757,-0.26362 z"
     id="path5417" /><path
     d="m 101.34517,270.1768 0.79034,0.3082 0.5083,4.37929 1.41525,-3.62917 0.56951,0.22208 -1.69173,4.33816 -0.79034,-0.3082 -0.5083,-4.37929 -1.41525,3.62917 -0.569507,-0.22209 z"
     id="path5419" /><path
     d="m 106.06756,272.52766 -1.18887,3.42017 0.7188,0.24985 q 0.91027,0.31642 1.4749,0.0504 0.56756,-0.26497 0.87681,-1.15462 0.3072,-0.88377 0.0253,-1.4407 -0.2779,-0.55886 -1.18818,-0.87528 z m -0.42509,-0.69587 1.22255,0.42496 q 1.27851,0.44442 1.69118,1.1855 0.41369,0.73813 0.0205,1.86935 -0.39527,1.13711 -1.18157,1.46142 -0.78631,0.32431 -2.05893,-0.11806 l -1.22254,-0.42497 z"
     id="path5421" /><path
     d="m 111.52157,276.3846 q 0.17348,0.12533 0.28906,0.396 0.11856,0.27158 0.18746,0.70409 l 0.23574,1.40441 -0.64669,-0.19955 -0.217,-1.31703 q -0.0826,-0.51507 -0.24615,-0.72547 -0.16057,-0.20947 -0.51818,-0.31982 l -0.65563,-0.20231 -0.58026,1.88047 -0.60198,-0.18576 1.37292,-4.44934 1.35894,0.41933 q 0.76292,0.23541 1.04002,0.67015 0.2771,0.43474 0.0785,1.07845 -0.12966,0.4202 -0.41187,0.63666 -0.27922,0.21738 -0.68485,0.20972 z m -0.93137,-2.33385 -0.48737,1.57947 0.75695,0.23357 q 0.4351,0.13426 0.71724,0.003 0.28604,-0.13368 0.40651,-0.52408 0.12046,-0.3904 -0.0424,-0.65605 -0.15892,-0.26772 -0.59402,-0.40198 z"
     id="path5423" /><path
     d="m 115.94401,275.52341 q -0.66233,-0.17914 -1.18725,0.20875 -0.52191,0.3887 -0.75234,1.24071 -0.22962,0.84899 0.0252,1.44777 0.25784,0.59959 0.92018,0.77873 0.66233,0.17914 1.18123,-0.21038 0.52191,-0.3887 0.75153,-1.2377 0.23043,-0.852 -0.0244,-1.45078 -0.25182,-0.59796 -0.91416,-0.7771 z m 0.13354,-0.49374 q 0.94533,0.25567 1.33952,1.04399 0.395,0.78531 0.10676,1.85107 -0.28743,1.06275 -1.02524,1.54491 -0.73699,0.47915 -1.68232,0.22347 -0.94834,-0.25649 -1.34636,-1.04261 -0.395,-0.78531 -0.10675,-1.85107 0.28824,-1.06576 1.02523,-1.54491 0.74082,-0.48134 1.68916,-0.22485 z"
     id="path5425" /><path
     d="m 121.62285,276.65061 -0.14048,0.59813 q -0.30994,-0.249 -0.60037,-0.40371 -0.29044,-0.15471 -0.57887,-0.22245 -0.50097,-0.11766 -0.81987,0.0125 -0.31585,0.13085 -0.4,0.48912 -0.0706,0.30058 0.0722,0.4975 0.14652,0.19459 0.62842,0.40709 l 0.35258,0.1629 q 0.65551,0.29171 0.90266,0.69895 0.25089,0.40492 0.12111,0.95751 -0.15474,0.65885 -0.67789,0.89479 -0.52011,0.23665 -1.37327,0.0363 -0.32184,-0.0756 -0.66906,-0.23403 -0.34419,-0.15772 -0.69931,-0.3917 l 0.14833,-0.63152 q 0.32424,0.29721 0.65755,0.48762 0.33331,0.19041 0.67944,0.2717 0.52525,0.12336 0.85914,-0.0161 0.33389,-0.13942 0.42374,-0.52198 0.0784,-0.33398 -0.0838,-0.57071 -0.15921,-0.23602 -0.60467,-0.43996 l -0.35634,-0.16058 q -0.65408,-0.29778 -0.89228,-0.66128 -0.2382,-0.36349 -0.11626,-0.88268 0.14119,-0.60116 0.64451,-0.84816 0.50636,-0.24629 1.25022,-0.0716 0.3188,0.0749 0.63619,0.21029 0.31739,0.13542 0.63642,0.33208 z"
     id="path5427" /><path
     d="m 124.51021,277.53519 q -0.67275,-0.13481 -1.17079,0.28703 -0.49498,0.42246 -0.66841,1.28787 -0.17281,0.86235 0.12117,1.44291 0.29704,0.58118 0.96979,0.71599 0.67276,0.13482 1.16468,-0.28825 0.49498,-0.42246 0.6678,-1.28481 0.17342,-0.86541 -0.12056,-1.44597 -0.29092,-0.57995 -0.96368,-0.71477 z m 0.1005,-0.50151 q 0.96021,0.19243 1.40581,0.95287 0.44621,0.75738 0.22928,1.83991 -0.21632,1.07947 -0.92053,1.6095 -0.70359,0.52697 -1.6638,0.33454 -0.96326,-0.19303 -1.41253,-0.95103 -0.44621,-0.75738 -0.22928,-1.83991 0.21693,-1.08253 0.92052,-1.6095 0.70727,-0.52941 1.67053,-0.33638 z"
     id="path5429" /><path
     d="m 128.84417,278.52281 -1.22087,2.14696 1.68931,0.27912 z m -0.24961,-0.67029 0.70464,0.11642 0.9918,4.88335 -0.64618,-0.10677 -0.22376,-1.24766 -2.07087,-0.34216 -0.6132,1.10938 -0.65542,-0.10829 z"
     id="path5431" /><path
     d="m 131.56937,278.32887 0.84113,0.11011 1.54152,4.13041 0.50565,-3.8624 0.60611,0.0793 -0.60443,4.61695 -0.84113,-0.11012 -1.54152,-4.13041 -0.50565,3.8624 -0.60611,-0.0794 z"
     id="path5433" /><path
     d="m 137.64356,279.67477 -1.07387,2.22413 1.70425,0.16499 z m -0.29408,-0.65201 0.71088,0.0688 1.31763,4.80568 -0.6519,-0.0631 -0.30707,-1.22981 -2.08918,-0.20226 -0.53728,1.14807 -0.66121,-0.064 z"
     id="path5435" /></g></svg>
