<svg clip-rule="evenodd" fill-rule="evenodd" version="1.1" viewBox="0 0 399 501" xml:space="preserve" xmlns="http://www.w3.org/2000/svg" xmlns:serif="http://www.serif.com/">
    <g transform="translate(-175.7 -282.3)" serif:id="Layer 1">
        <g transform="matrix(1.006 0 0 1.006 175.4 280.5)">
            <g transform="matrix(1 0 0 1.008 0 11.04)" fill-rule="nonzero">
                <path d="m281.3 342.2c15.04-17.36 23.9-39.54 23.9-63.53 0-54.76-45.4-102.4-105.9-102.4-78.63 0-115.6 46.08-113.5 98.13 2.245 54.57 53.89 80.26 95.74 78.63 69.88-2.715 86.75-57.29 91.58-86.07 1.909-11.37 2.522-30.57 5.472-36.34 7.05 9.629 8.172 24.53 8.341 37.36.716 54.38-22.17 113.4-105.4 116.3-89.91 3.093-132.8-61.03-134.4-109.3-2.802-86.67 67.93-140.6 151.2-140.6 83.32 0 150.9 64.61 150.9 144.3 0 37.02-14.57 70.79-38.53 96.34l-29.57-32.8z" fill="#d0b990" stroke="#000" stroke-width="1.19px"/>
            
            
                <path d="m198.6 137.6c-40.97 0-78.73 13.26-105.8 37s-43.59 57.87-42.22 100.3c1.501 46.45 42.65 109.2 131 106.2 45-1.548 71.18-20.38 86-45.97 14.81-25.58 17.99-58.27 15.19-86.91-.525-5.367-1.661-9.792-3.5-13.69-.712 3.523-.666 7.154-1.281 12 .01-.082-.107 2.433-.344 5.657-.237 3.223-.667 7.569-1.437 12.66-1.542 10.17-4.501 23.33-10.47 36.53-11.94 26.41-36.41 53.06-83.94 54.91-21.63.841-45.63-5.335-64.72-18.84-19.09-13.51-33.21-34.6-34.38-62.88-1.104-26.82 7.938-52.34 27.44-71.03 19.5-18.69 49.31-30.44 89.25-30.44 62.17 0 109.1 49.09 109.1 105.6 0 23.79-9.563 46.86-23.97 64.43l25.31 28.06c22.02-24.66 36.41-57.55 36.41-92.5 0-77.89-65.97-141.1-147.6-141.1z" fill="#e1d2b5"/>
            
            
                <path d="m198.6 141.1c-40.22 0-77.14 13.05-103.5 36.16-26.36 23.11-42.4 56.09-41.06 97.56 1.439 44.49 40.78 105.8 127.4 102.8 44.07-1.516 68.81-19.55 83.09-44.22 12.14-20.96 16.22-47.22 15.5-71.91-.176 1.413-.202 2.315-.438 3.875-1.574 10.39-4.603 23.84-10.75 37.44-12.29 27.2-38.22 55.04-86.97 56.94-22.4.87-47.03-5.451-66.84-19.47-19.81-14.02-34.64-36.22-35.84-65.56-1.139-27.68 8.251-54.28 28.5-73.69 20.25-19.41 51.03-31.41 91.66-31.41 63.99 0 112.6 50.64 112.6 109.1 0 23.56-10.17 47.88-23.92 65.65l20.69 22.97c19.97-23.63 34.04-55.92 34.04-88.62 0-75.93-64.29-137.6-144.2-137.6z" fill="#f0e9d5"/>
            
            
                <path d="m198.6 145.5c-39.26 0-75.17 12.75-100.6 35.06-25.45 22.31-40.83 53.88-39.53 94.12 1.358 42.02 38.35 101.4 122.9 98.53 42.88-1.475 65.83-18.53 79.44-42.03 3.553-6.137 6.376-12.8 8.594-19.78-13.98 25.94-40.98 50.95-87.25 52.75-23.36.908-48.84-5.617-69.56-20.28-20.72-14.66-36.46-38.26-37.72-68.97-1.184-28.78 8.675-56.74 29.88-77.06 21.2-20.32 53.2-32.62 94.69-32.62 66.31 0 117 52.61 117 113.5 0 23.26-12.2 49.86-25.16 67.83l14.88 16.5c17.4-22.23 32.28-54.48 32.28-84.33 0-73.44-62.16-133.2-139.8-133.2z" fill="#f7f5e7"/>
            </g>
        </g>
        <g transform="matrix(1.006 0 0 1.006 -16.16 28.07)">
            <g transform="translate(188.7 250.8)" fill-rule="nonzero">
                <path d="m45.28 419s9.442-9.728 15.02-12.5c2.822-1.4 8.67-3.727 11.78-3.211 3.784.628 7.137 3.568 7.137 3.568s3.274-1.018 4.639-2.855c2.127-2.86 6.14-5.339 9.636-4.639 2.809.563 5.709 4.282 5.709 4.282s2.789-5.551 6.067-7.137c2.998-1.45 10.71-1.427 10.71-1.427s-2.329-4.855 6.423-9.279c2.189-1.106 5.171.314 7.138-.356 4.642-1.584 8.061-8.242 12.49-10.35 3.115-1.483 7.137-1.071 7.137-1.071s.838-.826 1.354-3.438c.548-2.773 3.321-6.665 5.069-7.982 2.852-2.148 8.208-1.07 8.208-1.07s2.043-5.156 4.283-6.424c2.176-1.232 7.494-.357 7.494-.357s3.03-5.534 5.709-6.78c2.912-1.355 6.718-1.342 9.636 0 1.992.917 4.282 4.996 4.282 4.996s7.477.702 11.42 3.212c4.479 2.851 4.825 8.682 8.921 11.06 3.855 2.24 9.076.455 13.2 2.141 4.583 1.871 9.092 4.659 12.13 8.564 1.018 1.308.333 3.841 1.785 4.64 1.594.877 5.34-.643 7.137-.357 4.313.685 6.757 2.425 9.635 5.71 1.689 1.927 2.855 7.137 2.855 7.137s5.152-1.614 7.494-.714c1.808.695 3.926 4.282 3.926 4.282s5.668-3.173 8.564-2.498c3.772.88 4.734 4.782 8.565 5.353 2.999.447 5.182-1.218 8.208-1.427 2.739-.19 7.851 2.498 7.851 2.498s8.406-4.501 12.85-3.926c2.913.378 4.614 4.059 7.494 4.64 4.486.904 9.113-3.221 13.56-2.142 4.301 1.044 10.71 7.851 10.71 7.851l3.212 8.922c-37.21 48.87-212.1 103.5-309.4 1.08z" fill="#75482a" stroke="#000" stroke-width="1.19px"/>
            
            
                <path d="m186.1 353.4c-.719-.001-1.316.173-1.781.344-.134.208-1.057.969-1.657 1.813-.854 1.2-1.437 2.281-1.437 2.281-1.305 2.395-3.995 3.715-6.688 3.281 0 0-.971-.175-2.125-.219-.364-.014-.652.066-.968.125-.233.263-.46.516-.657.875-.578 1.055-.968 2-.968 2-1.149 2.891-4.234 4.559-7.282 3.938 0 0-.764-.123-1.781-.125s-1.825.44-1.281.031c.269-.203-.789.809-1.469 1.844-.68 1.034-1.171 2.322-1.156 2.25-.365 1.846-.877 3.307-1.469 4.437-.592 1.131-1.75 2.406-1.75 2.406-1.368 1.307-3.244 1.947-5.125 1.75 0 0-2.938.113-3.687.469-.421.2-2.194 1.775-4.25 3.969-2.057 2.194-4.465 5.131-8.938 6.656-3.221 1.099-5.149.453-6.219.344-.35-.036-.413-.038-.531-.031-2.001 1.101-2.551 1.701-2.625 1.875.097.448.146.906.146 1.364 0 3.538-2.911 6.448-6.448 6.448h-.01s-1.707.007-3.719.157c-2.012.149-4.594.851-4.125.625.381-.185-.958.847-1.781 2.031-.824 1.184-1.313 2.187-1.313 2.187-1.09 2.182-3.329 3.566-5.768 3.566-1.98 0-3.854-.913-5.076-2.472 0 0-.447-.528-1.125-1.156-.339-.314-.747-.555-.968-.688-.085.164-2.188.97-3 2.063-1.826 2.455-3.763 3.356-5.219 4.062-1.457.706-2.75 1.094-2.75 1.094-2.129.65-4.449.152-6.125-1.312 0 0-2.748-1.834-3.938-2.032.643.107-1.22.096-3 .657-.276.087-.468.213-.75.312.939.505 1.871 1.118 2.813 1.594.477.118.949.241 1.5.375 2.874.705 4.912 3.302 4.912 6.262 0 1.34-.417 2.646-1.193 3.738l-1.782 2.469c8.602 4.658 18.39 9.004 29.47 12.12.032.009.061.022.094.031 1.006.17 1.949.302 3 .468 3.122.491 5.447 3.209 5.447 6.37 0 .941-.206 1.871-.604 2.724l-.437.938c32.6 11.79 62.15 16.72 89.5 16.72s56.9-4.932 89.5-16.72l-.438-.938c-.397-.853-.603-1.783-.603-2.724 0-3.161 2.324-5.879 5.447-6.37 1.05-.166 1.994-.298 3-.468.033-.005.062-.026.094-.031 11.07-3.121 20.87-7.467 29.47-12.12l-1.782-2.469c-.776-1.092-1.193-2.398-1.193-3.738 0-2.96 2.038-5.557 4.912-6.262.562-.137 1.044-.254 1.531-.375 2.747-1.388 5.47-2.862 8.188-4.5-.464.083-.58.045-2 .531-2.242.768-5.638 2.254-10.16 1.344-3.776-.761-5.675-2.91-6.782-3.906-.389-.351-.506-.427-.656-.532-.085.098-2.397.389-4.5 1.219-2.277.899-4.094 1.875-4.094 1.875-1.871.996-4.118 1.008-6 .031 0 0-1.034-.525-2.312-1.031-.959-.38-2.213-.561-2.375-.656-.471.06-1.102.215-2.5.625-1.538.45-3.978 1.083-6.844.656-3.951-.589-6.592-3.099-7.844-4.313-.938-.91-.89-.81-.937-.843-.425.062-1.166.179-1.813.437-1.335.533-2.437 1.125-2.437 1.125-3.034 1.692-6.917.644-8.688-2.344 0 0-.382-.58-.875-1.218-.327-.012-.638-.036-1 .031-1.151.213-2.093.5-2.093.5-.624.195-1.273.294-1.926.294-3.009 0-5.638-2.107-6.293-5.044 0 0-.259-1.052-.656-2.281-.397-1.23-1.33-2.693-.75-2.031-2.425-2.768-2.746-3.081-5.781-3.563 1.525.242.013.108-1.563.375-1.575.267-3.646 1.474-7.687-.75-1.806-.994-3.056-2.754-3.594-4.031-.539-1.278-.659-2.186-.75-2.781-.004-.023.004-.009 0-.032-2.113-2.43-5.322-4.598-8.906-6.062-.437-.178-1.938-.332-4.375-.375-2.438-.043-5.984-.022-9.657-2.156-3.96-2.302-5.576-5.723-6.718-7.813-1.143-2.09-1.786-2.98-2.407-3.375-.642-.409-3.025-1.271-5.031-1.687-2.006-.417-3.531-.563-3.531-.563-2.107-.191-3.991-1.408-5.031-3.25 0 0-.421-.731-1-1.531-.271-.374-.66-.69-.875-.875-.468-.147-.959-.312-1.594-.313z" fill="#84512f"/>
            
            
                <path d="m176.1 358.7c-2.19.1-4.657 1.56-5.281 3.438-.819 2.46 5.264 4.459 3.937 6.687-1.403 2.356-6-1.923-8.219-.312-1.196.868-1.425 2.818-1.218 4.281.401 2.844 5.104 4.461 4.562 7.281-.356 1.854-2.706 3.715-4.562 3.375-2.382-.435-1.842-4.939-3.969-6.093-2.855-1.549-6.957-1.708-9.719 0-1.544.954-1.052 3.701-2.437 4.875-2.107 1.784-5.923.55-7.938 2.437-1.665 1.559-.545 5.057-2.406 6.375-3.231 2.288-8.911-2.312-11.88.313-2.074 1.836.878 6.409-1.219 8.218-2.382 2.055-6.706-1.561-9.437 0-1.446.826-3.358 2.868-2.532 4.313 1.715 3 7.077 1.126 10.34 0 2.726-.94 4.086-4.404 6.813-5.344 2.146-.74 4.866 1.171 6.812 0 1.627-.98 1.192-3.86 2.688-5.031 1.923-1.506 5.168-3.285 7.093-1.781 1.09.85.63 2.925 0 4.156-.998 1.952-3.361 2.844-5.312 3.844-.556.284-1.285.214-1.781.593-1.132.865-1.159 2.822-2.375 3.563-1.528.929-3.664-.019-5.344.594-2.676.974-7.919 1.992-7.094 4.718 1.001 3.308 6.9-.294 10.34 0 2.895.248 5.824 2.379 8.594 1.5 2.129-.676 2.696-3.87 4.75-4.75 3.813-1.633 8.935 1.942 12.44-.281.932-.592.568-2.376 1.5-2.969 3.251-2.067 7.822-1.35 11.53-.312 1.583.443 2.525 2.888 4.157 2.687 2.287-.281 3.121-3.431 4.75-5.062 1.727-1.73 3.04-4.128 5.312-5.031 2.936-1.168 6.783-1.613 9.5 0 1.064.631.888 2.393 1.75 3.281.956.984 2.426 1.294 3.563 2.062.932.631 2.161 1.051 2.656 2.063.39.798-.623 2.053 0 2.687 3.805 3.876 11.16 1.997 16.31.282 2.137-.712 3.061-4.195 5.313-4.157 1.542.026 2.121 2.421 3.562 2.969 2.863 1.089 6.44-1.039 9.188.313 1.951.959 3.422 2.984 4.156 5.031.5 1.394-.794 3.187 0 4.437 1.988 3.133 8.074 1.618 10.06 4.75.687 1.084-.64 2.731 0 3.844 1.366 2.379 4.376 3.777 7.093 4.156 3.938.549 7.699-3.905 11.56-2.968 2.311.56 3.136 3.835 5.344 4.718 2.66 1.064 6.125-1.142 8.593.313.992.584.745 2.467 1.782 2.969 2.777 1.345 6.288-.047 9.156-1.188 3.743-1.489 7.842-3.593 9.781-7.125.762-1.387-.709-3.509.313-4.719 2.224-2.635 8.969.896 10.06-2.375.244-.731-.759-1.479-1.469-1.781-2.55-1.085-5.791-.558-8.312.594-1.397.638-1.855 2.608-3.25 3.25-4.679 2.152-10.36.168-15.41 1.187-.613.124-1.165.494-1.782.594-2.924.474-6.526 1.805-8.875 0-1.215-.934-.045-3.416-1.187-4.437-1.489-1.331-4.031-1.501-5.938-.907-2.067.645-2.568 4.212-4.718 4.469-3.381.404-9.325-1.684-8.907-5.062.365-2.948 6.966.141 8.594-2.344.765-1.168.085-2.936-.594-4.156-1.941-3.492-7.498-4.099-9.187-7.719-.668-1.432.518-3.227 0-4.719-.784-2.258-2.056-5.428-4.438-5.625-2.926-.241-3.671 6.691-6.5 5.906-.993-.275-.91-1.938-.906-2.968.005-1.343 1.716-2.61 1.188-3.844-1.216-2.842-5.221-4.554-8.282-4.125-1.592.223-1.958 3.149-3.562 3.25-2.899.182-5.791-2.452-7.125-5.031-.59-1.141.753-2.836 0-3.875-2.989-4.12-9.62-3.273-14.5-4.719-4.409-1.307-8.87-4.625-13.34-3.563-1.157.275-1.791 1.56-2.656 2.375-1.524 1.437-6.215 4.438-4.438 4.438 1.778 0-7.626 4.721-9.468 2.062-1.139-1.643 3.957-3.161 3.25-5.031-.908-2.398-6.066.123-7.407-2.062-.526-.859.325-1.999.594-2.969.392-1.415 1.791-2.724 1.469-4.156-.276-1.227-2.048-1.557-2.656-2.657-.6-1.083.257-3.058-.844-3.625-.587-.302-1.27-.408-2-.375zm-72.31 45.81c-1.811.138-3.703.949-5.218 1.812-1.351.769-1.426 3.264-2.938 3.625-1.778.425-3.212-1.867-5-2.25-2.082-.445-4.651-1.204-6.406 0-2.238 1.535-.367 6.724-2.938 7.594-3.131 1.06-5.554-6.803-8.437-5.187-1.757.984-.642 4.153 0 6.062.758 2.258 3.641 3.402 4.312 5.688.423 1.439-1.135 3.225-.343 4.5 3.992 6.424 16.81 14.69 21.06 8.437 1.738-2.558-7.202-3.73-6.406-6.719.463-1.741 4.611.145 5.187-1.562.5-1.483-3.006-2.238-2.75-3.781.311-1.874 2.757-3.24 4.657-3.282 1.707-.037 2.611 2.599 4.312 2.75 1.799.16 3.229-1.71 5-2.062 2.483-.494 5.33 1.132 7.594 0 2.315-1.158 4.956-3.647 4.656-6.219-.209-1.785-2.328-3.503-4.125-3.469-1.548.03-2.023 2.571-3.469 3.125-.053.021-.099.004-.156 0-2.321-.173-6.148 1.169-6.906-1.031-.491-1.424 2.821-1.8 3.094-3.281.27-1.471-.418-3.419-1.719-4.156-.911-.517-1.976-.677-3.063-.594zm70.81 8.875c-1.858-.066-3.602.232-4.844 1.437-1.636 1.588 1.069 5.254-.594 6.813-3.242 3.039-9.08-1.045-13.31.312-2.504.803-3.907 4.283-6.531 4.438-2.558.15-4.293-3.102-6.813-3.563-2.446-.447-5.17-.18-7.406.907-3.266 1.587-4.068 7.964-7.688 7.687-1.831-.14-1.479-4.085-3.281-4.437-1.479-.29-2.907 1.194-3.844 2.375-.776.978-.063 3.019-1.187 3.562-2.081 1.006-4.224-1.974-6.5-2.375-1.167-.206-2.431-.351-3.563 0-1.831.569-4.418 1.362-4.75 3.25-.441 2.51 2.098 5.209 4.438 6.219 2.013.869 4.516-1.739 6.531-.875 2.015.863 1.892 4.314 3.844 5.312 2.11 1.079 4.857-.686 7.125 0 2.726.826 4.25 4.91 7.094 4.75 4.897-.274 6.366-9.005 11.25-9.468 2.816-.268 4.668 3.41 7.406 4.125 2.866.747 7.704-2.708 8.906 0 1.134 2.555-6.386 3.528-5.625 6.218.672 2.375 4.644 1.789 7.094 2.094 2.745.342 5.553-.774 8.281-.312 3.761.636 6.892 3.782 10.69 4.156 5.088.501 9.994-3.032 15.09-2.656 2.491.183 4.643 2.094 7.125 2.375 3.056.345 6.869 1.114 9.188-.907 1.607-1.4-.204-4.897 1.469-6.218 4.184-3.305 11.32 2.555 16 0 1.442-.788 1.349-3.161 2.656-4.157 2.633-2.006 6.17-2.659 9.469-2.937 3.673-.311 7.332 2.073 10.97 1.469 1.525-.254 2.638-1.773 4.157-2.063 4.478-.854 9.441 2.97 13.62 1.156 1.612-.699 1.668-3.356 3.25-4.125 3.108-1.51 7.154 1.253 10.38 0 1.498-.582 4.212-1.78 3.562-3.25-1.764-3.99-8.676 1.411-13.03 1.157-3.828-.224-7.448-2.416-11.28-2.344-2.443.046-4.894 2.811-7.094 1.75-1.075-.519-.497-2.604-1.5-3.25-2.325-1.497-5.77 1.155-8.281 0-3.309-1.522-3.687-6.998-7.094-8.281-1.307-.493-2.92 1.241-4.156.593-2.152-1.127-.877-7.047-3.25-6.531-2.704.587-1.051 5.646-.313 8.313 1.161 4.197 8.758 6.9 7.125 10.94-.988 2.443-5.224 2.63-7.719 1.781-5.446-1.852-5.701-11-10.97-13.31-3.26-1.431-7.202-.266-10.66.594-2.743.682-4.883 3.892-7.687 3.531-2.157-.278-3.908-2.263-5.031-4.125-1.511-2.504.486-6.748-1.782-8.594-2.603-2.12-6.826.771-10.09 0-1.934-.457-3.367-2.286-5.313-2.687-1.695-.35-3.674-.778-5.531-.844z" fill="#896c5a"/>
            </g>
        </g>
        <g transform="matrix(1.006 0 0 1.006 175.2 282.5)" fill-rule="nonzero">
            <g fill="#1c5136" stroke="#000" stroke-width=".99px">
                <path d="m250.4 371.4c4.234-18.45 6.59-40.01 2.582-49.29-1.861 8.027-2.797 26.2-5.868 39.67l3.286 9.623z"/>
                <path d="m247.6 362.3c2.966-18.69 3.846-40.36-.785-49.35-1.31 8.134-1.005 26.33-3.15 39.97l3.935 9.377z"/>
                <path d="m243.5 353.6c2.402-18.77 2.631-40.46-2.268-49.3-1.065 8.17-.213 26.35-1.947 40.05l4.215 9.254z"/>
                <path d="m239.2 346.3c1.85-18.84 1.442-40.52-3.715-49.22-.824 8.198.561 26.34-.769 40.09l4.484 9.127z"/>
                <path d="m234.4 336.8c1.279-18.88.215-40.54-5.203-49.08-.576 8.219 1.358 26.31.444 40.1l4.759 8.986z"/>
                <path d="m230 330.2c.402-18.92-1.665-40.51-7.473-48.79-.194 8.237 2.577 26.22 2.303 40.03l5.17 8.756z"/>
                <path d="m225.4 324.8c-.53-18.92-3.657-40.38-9.865-48.36.212 8.237 3.864 26.06 4.27 39.87l5.595 8.491z"/>
                <path d="m219.6 317.3c-.766-18.91-4.161-40.33-10.47-48.23.315 8.233 4.189 26.01 4.768 39.81l5.701 8.42z"/>
                <path d="m134.3 258.7c-7.595-11.46-13.02-20.3-19.6-23.33 1.296 4.458 5.445 11.33 11.04 19.46l8.56 3.865z"/>
                <path d="m142 262.8c-6.511-12.11-12.12-22.48-18.4-26.1.882 4.559 5.404 12.85 10.23 21.47l8.17 4.635z"/>
                <path d="m147.5 265.6c-4.107-13.12-8.967-22.74-14.45-27.48.005 4.643 4.615 14.25 7.728 23.62l6.722 3.859z"/>
                <path d="m153 268.7c-2.537-13.52-6.235-23.63-11.12-28.98-.54 4.612 2.911 14.69 4.902 24.36l6.222 4.622z"/>
                <path d="m159.7 272.3c-2.538-13.52-6.873-26.93-11.76-32.28-.541 4.611 3.761 18.74 5.752 28.4l6.01 3.877z"/>
                <path d="m165.6 275.4c-1.926-13.62-5.652-27.21-10.3-32.78-.748 4.583 2.913 18.89 4.466 28.64l5.829 4.144z"/>
                <path d="m171.4 279.3c-1.926-13.62-5.652-27.21-10.3-32.78-.747 4.582 2.913 18.89 4.466 28.63l5.829 4.144z"/>
                <path d="m177.2 281.9c-1.926-13.62-5.652-27.21-10.3-32.78-.747 4.583 2.913 18.89 4.466 28.64l5.829 4.144z"/>
                <path d="m183.4 286.5c-1.926-13.62-5.451-30.02-10.09-35.59-.748 4.582 3.515 23.5 4.265 31.44l5.829 4.145z"/>
                <path d="m189.6 290.7c-1.925-13.62-5.451-30.02-10.09-35.59-.747 4.582 3.515 23.5 4.265 31.44l5.829 4.144z"/>
                <path d="m195.7 294.9c-1.926-13.62-5.183-31.36-9.826-36.93-.747 4.582 3.246 24.84 3.997 32.78l5.829 4.144z"/>
                <path d="m201.9 298.9c-1.925-13.62-5.719-33.9-10.36-39.47-.748 4.582 3.783 27.38 4.533 35.33l5.829 4.144z"/>
                <path d="m213.4 312.9c-.766-18.91-4.161-39.53-10.47-47.43.314 8.233 4.189 25.21 4.768 39.01l5.7 8.42z"/>
                <path d="m208.4 307.1c-.766-18.91-4.362-35.52-10.67-43.42.315 8.233 3.588 23.61 4.167 37.41l6.503 6.013z"/>
                <path d="m125.9 254.9c-7.595-11.46-13.82-17.35-20.4-20.38 1.296 4.458 6.25 8.38 11.84 16.51l8.56 3.866z"/>
                <path d="m120 252.3c-9.741-11.46-16.5-13.33-23.09-16.36 1.328 3.394 7.735 8.645 14.53 13.29l8.56 3.061z"/>
                <path d="m248.4 364.7c-17.81-6.414-36.77-14.08-42.41-22.47 7.758 2.775 23.1 9.799 36.09 14.5l6.318 7.968z"/>
                <path d="m125.4 255.3c-14.79-.005-21.87-3.599-27.18-7.224 4.418-1.427 11.38 1.51 20.11 3.756l7.069 3.468z"/>
                <path d="m245.5 356.5c-18.2-5.197-36.87-12.87-43.07-20.86 7.928 2.245 24.3 9.301 37.57 13.11l5.498 7.746z"/>
                <path d="m241 348.4c-18.25-5.007-38.36-12.02-44.64-19.95 7.95 2.162 24.4 8.823 37.72 12.5l6.92 7.451z"/>
                <path d="m236.1 340.4c-18.37-4.552-36.66-10.39-43.13-18.16 8.002 1.964 22.62 7.542 36.03 10.88l7.103 7.277z"/>
                <path d="m231.5 332.7c-18.56-3.721-37.09-8.734-43.9-16.2 8.083 1.601 22.72 5.845 36.26 8.58l7.646 7.622z"/>
                <path d="m226.3 324.3c-18.79-2.249-36.76-5.339-44.15-12.25 8.183.961 22.49 4.243 36.2 5.904l7.947 6.344z"/>
                <path d="m219.8 317.8c-18.79-2.249-37.66-4.667-45.04-11.58 8.184.96 23.16 3.571 36.87 3.888l8.171 7.688z"/>
                <path d="m213.3 309.3c-18.93.131-38.23-2.119-46.42-8.045 8.239-.076 23.93 2.825 37.74 2.749l8.681 5.296z"/>
                <path d="m198.8 297.9c-13.75.318-34.38-.119-40.63-3.793 4.399-1.484 27.63-.729 35.59-1.283l5.038 5.076z"/>
                <path d="m207 302.8c-18.9 1.048-38.28-.263-46.76-5.785 8.225-.475 24.04 1.662 37.83.917l8.927 4.868z"/>
                <path d="m191.6 292.4c-13.67 1.474-31.36 1.653-37.9-1.482 4.259-1.849 24.56-1.931 32.45-3.152l5.448 4.634z"/>
                <path d="m185.1 288.4c-13.67 1.474-31.36 1.653-37.9-1.482 4.259-1.848 24.56-1.93 32.45-3.151l5.447 4.633z"/>
                <path d="m177.7 283.9c-13.67 1.474-31.36 1.653-37.9-1.482 4.258-1.849 24.56-1.931 32.45-3.152l5.447 4.634z"/>
                <path d="m171 279.2c-13.67 1.474-31.36 1.653-37.9-1.482 4.259-1.849 24.56-1.931 32.45-3.152l5.448 4.634z"/>
                <path d="m161.8 274.5c-13.67 1.474-31.36 1.653-37.9-1.482 4.259-1.849 24.56-1.931 32.45-3.152l5.447 4.634z"/>
                <path d="m152.9 270.2c-13.67 1.474-28.67 1.429-35.21-1.705 4.259-1.849 21.88-1.707 29.76-2.928l5.448 4.633z"/>
                <path d="m145.9 264.9c-13.73.705-26.62 2.172-32.98-1.324 4.355-1.607 14.91-2.931 24.78-3.264l8.196 4.588z"/>
                <path d="m135.1 260c-13.73.704-24.61 1.276-30.96-2.22 4.356-1.607 12.9-2.035 22.76-2.368l8.196 4.588z"/>
                </g><path d="m111.2 248.8-.147-.226c39.32 20.11 136.5 57.8 141.4 156.8-.144 7.207 6.792 4.39 5.613.072-5.038-102.2-111.6-144-146.9-156.6z" fill="#215f2f" stroke="#000" stroke-width=".99px"/>
                <path d="m143 263.2c16.89 8.711 35.84 19.5 53.53 34.09 29.54 24.38 54.76 58.68 57.19 108 .001.031.001.062 0 .093-.033 1.612.354 2.474.687 2.844s.623.409 1.063.312c.879-.193 1.946-1.29 1.531-2.812-.019-.082-.03-.166-.031-.25-2.475-50.2-29.53-85.64-60.59-110.2-17.92-14.2-36.82-24.41-53.38-32.06v.001z" fill="#24682c"/>
            
            <g transform="matrix(-1 0 0 1 373.2 -8)"><g fill="#1c5136" stroke="#000" stroke-width=".99px">
                <path d="m250.4 371.4c4.234-18.45 6.59-40.01 2.582-49.29-1.861 8.027-2.797 26.2-5.868 39.67l3.286 9.623z" serif:id="path5131"/>
                <path d="m247.6 362.3c2.966-18.69 3.846-40.36-.785-49.35-1.31 8.134-1.005 26.33-3.15 39.97l3.935 9.377z" serif:id="path5135"/>
                <path d="m243.5 353.6c2.402-18.77 2.631-40.46-2.268-49.3-1.065 8.17-.213 26.35-1.947 40.05l4.215 9.254z" serif:id="path5137"/>
                <path d="m239.2 346.3c1.85-18.84 1.442-40.52-3.715-49.22-.824 8.198.561 26.34-.769 40.09l4.484 9.127z" serif:id="path5139"/>
                <path d="m234.4 336.8c1.279-18.88.215-40.54-5.203-49.08-.576 8.219 1.358 26.31.444 40.1l4.759 8.986z" serif:id="path5141"/>
                <path d="m230 330.2c.402-18.92-1.665-40.51-7.473-48.79-.194 8.237 2.577 26.22 2.303 40.03l5.17 8.756z" serif:id="path3109"/>
                <path d="m225.4 324.8c-.53-18.92-3.657-40.38-9.865-48.36.212 8.237 3.864 26.06 4.27 39.87l5.595 8.491z" serif:id="path3111"/>
                <path d="m219.6 317.3c-.766-18.91-4.161-40.33-10.47-48.23.315 8.233 4.189 26.01 4.768 39.81l5.701 8.42z" serif:id="path3113"/>
                <path d="m134.3 258.7c-7.595-11.46-13.02-20.3-19.6-23.33 1.296 4.458 5.445 11.33 11.04 19.46l8.56 3.865z" serif:id="path3115"/>
                <path d="m142 262.8c-6.511-12.11-12.12-22.48-18.4-26.1.882 4.559 5.404 12.85 10.23 21.47l8.17 4.635z" serif:id="path3117"/>
                <path d="m147.5 265.6c-4.107-13.12-8.967-22.74-14.45-27.48.005 4.643 4.615 14.25 7.728 23.62l6.722 3.859z" serif:id="path3119"/>
                <path d="m153 268.7c-2.537-13.52-6.235-23.63-11.12-28.98-.54 4.612 2.911 14.69 4.902 24.36l6.222 4.622z" serif:id="path3121"/>
                <path d="m159.7 272.3c-2.538-13.52-6.873-26.93-11.76-32.28-.541 4.611 3.761 18.74 5.752 28.4l6.01 3.877z" serif:id="path3123"/>
                <path d="m165.6 275.4c-1.926-13.62-5.652-27.21-10.3-32.78-.748 4.583 2.913 18.89 4.466 28.64l5.829 4.144z" serif:id="path3125"/>
                <path d="m171.4 279.3c-1.926-13.62-5.652-27.21-10.3-32.78-.747 4.582 2.913 18.89 4.466 28.63l5.829 4.144z" serif:id="path3127"/>
                <path d="m177.2 281.9c-1.926-13.62-5.652-27.21-10.3-32.78-.747 4.583 2.913 18.89 4.466 28.64l5.829 4.144z" serif:id="path3129"/>
                <path d="m183.4 286.5c-1.926-13.62-5.451-30.02-10.09-35.59-.748 4.582 3.515 23.5 4.265 31.44l5.829 4.145z" serif:id="path3131"/>
                <path d="m189.6 290.7c-1.925-13.62-5.451-30.02-10.09-35.59-.747 4.582 3.515 23.5 4.265 31.44l5.829 4.144z" serif:id="path3133"/>
                <path d="m195.7 294.9c-1.926-13.62-5.183-31.36-9.826-36.93-.747 4.582 3.246 24.84 3.997 32.78l5.829 4.144z" serif:id="path3135"/>
                <path d="m201.9 298.9c-1.925-13.62-5.719-33.9-10.36-39.47-.748 4.582 3.783 27.38 4.533 35.33l5.829 4.144z" serif:id="path3137"/>
                <path d="m213.4 312.9c-.766-18.91-4.161-39.53-10.47-47.43.314 8.233 4.189 25.21 4.768 39.01l5.7 8.42z" serif:id="path3139"/>
                <path d="m208.4 307.1c-.766-18.91-4.362-35.52-10.67-43.42.315 8.233 3.588 23.61 4.167 37.41l6.503 6.013z" serif:id="path3141"/>
                <path d="m125.9 254.9c-7.595-11.46-13.82-17.35-20.4-20.38 1.296 4.458 6.25 8.38 11.84 16.51l8.56 3.866z" serif:id="path3167"/>
                <path d="m120 252.3c-9.741-11.46-16.5-13.33-23.09-16.36 1.328 3.394 7.735 8.645 14.53 13.29l8.56 3.061z" serif:id="path3169"/>
                <path d="m248.4 364.7c-17.81-6.414-36.77-14.08-42.41-22.47 7.758 2.775 23.1 9.799 36.09 14.5l6.318 7.968z" serif:id="path5133"/>
                <path d="m125.4 255.3c-14.79-.005-21.87-3.599-27.18-7.224 4.418-1.427 11.38 1.51 20.11 3.756l7.069 3.468z" serif:id="path3171"/>
                <path d="m245.5 356.5c-18.2-5.197-36.87-12.87-43.07-20.86 7.928 2.245 24.3 9.301 37.57 13.11l5.498 7.746z" serif:id="path3198"/>
                <path d="m241 348.4c-18.25-5.007-38.36-12.02-44.64-19.95 7.95 2.162 24.4 8.823 37.72 12.5l6.92 7.451z" serif:id="path3202"/>
                <path d="m236.1 340.4c-18.37-4.552-36.66-10.39-43.13-18.16 8.002 1.964 22.62 7.542 36.03 10.88l7.103 7.277z" serif:id="path3215"/>
                <path d="m231.5 332.7c-18.56-3.721-37.09-8.734-43.9-16.2 8.083 1.601 22.72 5.845 36.26 8.58l7.646 7.622z" serif:id="path3217"/>
                <path d="m226.3 324.3c-18.79-2.249-36.76-5.339-44.15-12.25 8.183.961 22.49 4.243 36.2 5.904l7.947 6.344z" serif:id="path3219"/>
                <path d="m219.8 317.8c-18.79-2.249-37.66-4.667-45.04-11.58 8.184.96 23.16 3.571 36.87 3.888l8.171 7.688z" serif:id="path3221"/>
                <path d="m213.3 309.3c-18.93.131-38.23-2.119-46.42-8.045 8.239-.076 23.93 2.825 37.74 2.749l8.681 5.296z" serif:id="path3223"/>
                <path d="m198.8 297.9c-13.75.318-34.38-.119-40.63-3.793 4.399-1.484 27.63-.729 35.59-1.283l5.038 5.076z" serif:id="path3238"/>
                <path d="m207 302.8c-18.9 1.048-38.28-.263-46.76-5.785 8.225-.475 24.04 1.662 37.83.917l8.927 4.868z" serif:id="path3240"/>
                <path d="m191.6 292.4c-13.67 1.474-31.36 1.653-37.9-1.482 4.259-1.849 24.56-1.931 32.45-3.152l5.448 4.634z" serif:id="path3242"/>
                <path d="m185.1 288.4c-13.67 1.474-31.36 1.653-37.9-1.482 4.259-1.848 24.56-1.93 32.45-3.151l5.447 4.633z" serif:id="path3244"/>
                <path d="m177.7 283.9c-13.67 1.474-31.36 1.653-37.9-1.482 4.258-1.849 24.56-1.931 32.45-3.152l5.447 4.634z" serif:id="path3246"/>
                <path d="m171 279.2c-13.67 1.474-31.36 1.653-37.9-1.482 4.259-1.849 24.56-1.931 32.45-3.152l5.448 4.634z" serif:id="path3248"/>
                <path d="m161.8 274.5c-13.67 1.474-31.36 1.653-37.9-1.482 4.259-1.849 24.56-1.931 32.45-3.152l5.447 4.634z" serif:id="path3250"/>
                <path d="m152.9 270.2c-13.67 1.474-28.67 1.429-35.21-1.705 4.259-1.849 21.88-1.707 29.76-2.928l5.448 4.633z" serif:id="path3252"/>
                <path d="m145.9 264.9c-13.73.705-26.62 2.172-32.98-1.324 4.355-1.607 14.91-2.931 24.78-3.264l8.196 4.588z" serif:id="path3254"/>
                <path d="m135.1 260c-13.73.704-24.61 1.276-30.96-2.22 4.356-1.607 12.9-2.035 22.76-2.368l8.196 4.588z" serif:id="path3256"/>
                </g><path d="m111.2 248.8-.147-.226c39.32 20.11 136.5 57.8 141.4 156.8-.144 7.207 6.792 4.39 5.613.072-5.038-102.2-111.6-144-146.9-156.6z" fill="#215f2f" stroke="#000" stroke-width=".99px" serif:id="path5125"/>
                <path d="m143 263.2c16.89 8.711 35.84 19.5 53.53 34.09 29.54 24.38 54.76 58.68 57.19 108 .001.031.001.062 0 .093-.033 1.612.354 2.474.687 2.844s.623.409 1.063.312c.879-.193 1.946-1.29 1.531-2.812-.019-.082-.03-.166-.031-.25-2.475-50.2-29.53-85.64-60.59-110.2-17.92-14.2-36.82-24.41-53.38-32.06v.001z" fill="#24682c" serif:id="path3306"/>
            </g>
        </g>
        <g transform="matrix(1.006 0 0 1.006 173.7 280.5)" fill-rule="nonzero">
            <g transform="translate(.1071)">
                <g transform="matrix(-1 0 0 1 399.8 0)"><g fill="#e7b93c" stroke="#000" stroke-width=".99px">
                    <path d="m2.286 394.4c7.31 8.414 20.93 23.44 43.43 35.2l23.54-10.52c-18.29-8.804-35.65-22.59-52.12-41.14l-14.86 16.46z"/>
                    <path d="m35.34 407.1c9.143 3.543 13.02 6.477 34.61 11.72l-13.72 19.2-25.83-20.8 4.936-10.12z"/>
                    <path d="m18.36 429.1c16.5 12.75 36.1 27.49 71.15 41.02l15.2-25.82c-34.65-8.773-58.19-29.06-69.43-37.3l-16.93 22.09z"/>
                    <path d="m65.01 434.8c7.49 2.409 16.63 5.51 39.99 9.215l-9.18 19.8-30.7-16.07-.111-12.94z"/>
                    </g><path d="m51.92 446.6 9.395-15.08c-15.17-7.737-19.26-12.31-25.71-17.55l-10.63 14.34c8.072 6.706 16.9 12.91 26.95 18.3z" fill="#f8ce5c"/>
                    <path d="m26.95 411.2 8.159-9.148c-8.506-5.686-13.9-11.37-17.8-17.06l-8.406 8.653c5.161 6.99 10.92 13.19 18.05 17.55z" fill="#f8ce5c"/>
                </g>
                <g fill="#e7b93c" stroke="#000" stroke-width=".99px">
                    <path d="m2.286 394.4c7.31 8.414 20.93 23.44 43.43 35.2l23.54-10.52c-18.29-8.804-35.65-22.59-52.12-41.14l-14.86 16.46z" serif:id="path5036"/>
                    <path d="m35.34 407.1c9.143 3.543 13.02 6.477 34.61 11.72l-13.72 19.2-25.83-20.8 4.936-10.12z" serif:id="path5034"/>
                    <path d="m18.36 429.1c16.5 12.75 36.1 27.49 71.15 41.02l15.2-25.82c-34.65-8.773-58.19-29.06-69.43-37.3l-16.93 22.09z" serif:id="path5032"/>
                    <path d="m65.01 434.8c7.49 2.409 16.63 5.51 39.99 9.215l-9.18 19.8-30.7-16.07-.111-12.94z" serif:id="path5030"/>
                    </g><path d="m51.92 446.6 9.395-15.08c-15.17-7.737-19.26-12.31-25.71-17.55l-10.63 14.34c8.072 6.706 16.9 12.91 26.95 18.3z" fill="#f8ce5c" serif:id="path5038"/>
                    <path d="m26.95 411.2 8.159-9.148c-8.506-5.686-13.9-11.37-17.8-17.06l-8.406 8.653c5.161 6.99 10.92 13.19 18.05 17.55z" fill="#f8ce5c" serif:id="path5040"/>
                
            </g>
            <path d="m51.36 458.6 13.3-23.81c51.02 26.08 95.39 36.09 135.3 36.09s84.33-10.01 135.3-36.09l13.3 23.81c-52.49 29.25-101.7 39.67-148.6 39.67s-96.15-10.42-148.6-39.67z" fill="#e7b93c" stroke="#000" stroke-width=".99px"/>
            <path d="m66.69 441.2-8.594 15.34c50.13 27.03 96.96 36.81 141.9 36.81s91.78-9.786 141.9-36.81l-8.593-15.34c-49.79 24.75-93.68 34.56-133.3 34.56s-83.52-9.809-133.3-34.56z" fill="#f8ce5c"/>
            <path d="m79.9 451.6-.25.562.438.281c.228.156.539.408.687.563.475.496.603.071-1.562 5.094-2.11 4.898-1.971 4.627-2.5 4.656-.208.011-.44-.048-.875-.188l-.594-.187-.125.281-.094.281 5.219 2.25 5.25 2.282.031-.125c.026-.058.434-.772.875-1.594s.788-1.505.782-1.531c-.006-.027-.146-.116-.313-.188-.279-.12-.302-.128-.406-.031-.391.365-1.683 1.174-2.281 1.437-.423.186-.617.194-1.219.063-.402-.088-.725-.197-1.719-.625-.831-.358-1.297-.579-1.437-.688-.259-.2-.398-.52-.375-.781.011-.13.655-1.702 1.875-4.531 1.778-4.124 1.885-4.327 2.062-4.469.244-.194.556-.212 1.344 0l.594.156.125-.25.125-.281-2.844-1.219-2.813-1.218zm241.6.187c-.235.019-.496.044-.75.094-.474.093-.578.142-4.031 1.687l-3.531 1.563.25.562.562-.156c.714-.215 1.14-.228 1.375-.063.156.113.301.403 2.156 4.5 1.957 4.321 2.027 4.427 2 4.657-.038.326-.261.535-.906.906l-.562.312.25.563 2.906-1.313 2.844-1.281-.25-.562-.657.218c-.767.268-1.148.307-1.406.125-.153-.108-.266-.278-1.031-1.968l-.844-1.907 1.281-.562c1.132-.537 1.329-.683 1.75-1 1.772-1.335 2.454-2.97 1.875-4.594-.455-1.277-1.632-1.914-3.281-1.781zm-1.344 1.313c.711-.002 1.351.284 1.844.843.289.327.693 1.159.75 1.563.136.962-.321 1.895-1.25 2.562-.204.147-.601.356-1.125.594l-.812.375-1.125-2.5-1.125-2.469.906-.406c.498-.225 1.045-.425 1.219-.469.252-.064.481-.093.718-.093zm-13.81 4.593c-.068.001-.141.024-.313.094l-.343.156-.032.25c-.012.135-.079 1.736-.156 3.531-.215 5.063-.369 7.8-.437 8.188-.113.635-.552 1.21-1.25 1.625l-.344.219.125.281.094.281 2.562-1.031 2.531-1.031-.25-.563-.5.156c-.642.178-1.18.221-1.468.125-.207-.068-.237-.082-.313-.375-.091-.352-.148-1.247-.125-2.187l.031-.656 2.375-.969 2.375-1 .25.219c1.23 1.182 2.078 2.009 2.125 2.125.104.256-.195.52-1.062 1l-.469.281.125.25.094.312 2.844-1.156 2.812-1.156-.25-.563-.281.094c-.714.2-1.448.068-1.906-.281-.159-.121-8.166-7.605-8.688-8.125-.051-.051-.088-.094-.156-.094zm-211.1.25c-1.149 0-2.294.249-3.312.813-.565.313-1.469 1.08-1.813 1.531-.636.834-1.166 2.113-1.312 3.125-.409 2.832 1.051 5.482 3.812 6.813 1.302.627 2.882.96 4.188.843 1.341-.12 2.711-.674 3.656-1.468 1.914-1.608 2.732-4.516 1.938-6.907-.742-2.23-2.822-3.842-5.125-4.468-.672-.183-1.342-.282-2.032-.282zm.844.875c.181-.001.349.038.531.063.247.033.652.142 1.032.281.379.139.745.309.937.438.581.387.948.779 1.313 1.406.29.499.37.666.468 1.187.19 1.007.121 2.004-.218 3.188-.916 3.185-2.753 4.926-5.094 4.781-.606-.038-1.543-.313-2.094-.625-1.267-.717-1.994-1.99-2.062-3.594-.042-.978.172-1.851.687-3.187.411-1.064.639-1.532 1.156-2.188.878-1.112 2.077-1.743 3.344-1.75zm204.4 1.407-2.812.906-2.813.875.188.562.656-.062c.903-.094 1.377-.049 1.625.156.491.407.483.394 1.687 4.125l1.094 3.438-.844-.532c-.465-.282-2.851-1.746-5.312-3.25l-4.469-2.718-2 .625-1.969.625.188.562.343-.031c.471-.057 1.167-.027 1.532.062.363.089.652.252.906.563.17.213.267.503 1.375 4 1.3 4.104 1.31 4.156 1.125 4.687-.117.337-.412.597-1.156 1l-.532.282.188.562 5.687-1.812-.062-.282-.094-.281-.406.063c-.61.093-1.294.104-1.563.031-.333-.092-.641-.368-.906-.844-.187-.339-.397-.944-1.312-3.875l-1.094-3.5 5.719 3.5 5.718 3.469.407-.156.406-.125-1.531-4.969c-1.614-5.214-1.622-5.254-1.5-5.781.077-.336.394-.626 1.156-1.032l.562-.281-.187-.562zm5.938.406c.028-.014 3.617 3.336 3.75 3.5l.062.093-1.969.813c-1.091.443-2.009.788-2.031.781-.043-.014.144-5.167.188-5.187zm-201.2 1.125-.094.312c-.087.263-.107.277 0 .313.254.084 1.134.727 1.407 1.031.327.365.452.723.437 1.25-.008.296-.178.752-1.281 4-1.127 3.322-1.26 3.704-1.438 3.938-.419.549-.762.647-1.875.5l-.593-.094-.188.562 2.844.969 2.844.938.062-.282.094-.281-.594-.344c-.958-.557-1.204-.819-1.281-1.343-.083-.564-.006-.826 1.187-4.5.629-1.938 1.162-3.512 1.188-3.5.026.01 1.206 2.788 2.625 6.187l2.562 6.188.438.125.406.125 1.688-4.969c1.541-4.532 1.694-4.954 1.875-5.188.417-.541.712-.627 1.843-.468l.594.093.188-.562-2.782-.938-2.812-.937-.188.562.563.344c.822.475 1.124.706 1.219 1.031.176.607.158.649-1.063 4.375-.896 2.733-1.119 3.394-1.156 3.313-.025-.056-1.115-2.641-2.406-5.75l-2.344-5.656-1.969-.657-2-.687zm173.1 5.094c-.068-.005-.166.008-.344.062l-.375.125-.031.25c-.024.133-.235 1.718-.469 3.5-.691 5.268-1.016 7.673-1.125 8.094-.172.669-.618 1.167-1.375 1.531l-.375.188.094.281.094.312 2.594-.812 2.625-.813-.094-.312-.094-.281-.156.031c-.299.091-1.087.211-1.438.187-.183-.012-.422-.07-.5-.125-.126-.089-.146-.152-.187-.5-.041-.349.065-1.991.156-2.531l.031-.219 2.438-.75 2.469-.75.187.25c1.12 1.286 1.87 2.193 1.906 2.313.081.264-.188.473-1.093.875l-.469.218.062.282.063.312 2.937-.906 2.907-.875-.094-.313-.094-.281-.281.063c-.728.136-1.481-.051-1.906-.438-.146-.133-7.405-8.28-7.907-8.875-.046-.055-.088-.088-.156-.093zm-152.9 1.187c-.251-.001-.512.009-.781.031-2.294.19-4.271 1.487-5.281 3.438-.31.597-.678 1.83-.719 2.5-.084 1.359.292 2.667 1.094 3.812.83 1.186 1.936 2.044 3.437 2.656.486.199 1.817.53 2.531.625 1.004.135 2.329.147 3.438.063l.312-.031.407-1.5c.448-1.705.534-1.872.906-2.031.257-.111.505-.118 1.156-.032l.438.063.062-.313.094-.312-3.063-.844-3.031-.844-.094.313-.093.281.687.281c.877.356 1.207.618 1.313.969.077.246.08.256-.282 1.563-.433 1.567-.384 1.469-1.218 1.562-1.232.138-2.494-.147-3.532-.812-1.554-.997-2.327-2.786-2.125-4.875.062-.633.385-1.911.657-2.532.422-.966 1.113-1.858 1.812-2.375.426-.315 1.202-.69 1.688-.781.845-.159 2.041-.003 2.906.375.929.406 1.718 1.314 2.062 2.313.155.448.315 1.367.344 2l.031.312.407.094.406.125.281-1.219c.161-.662.429-1.578.563-2.062l.218-.907-.406-.093-.406-.125-.219.187c-.131.103-.264.198-.281.219s-.227-.094-.469-.281c-.951-.738-1.725-1.134-2.937-1.469-.864-.239-1.561-.341-2.313-.344zm145.8 1.188-6.187 1.437-6.157 1.469.375 1.594.375 1.625.344-.063.344-.094.094-.468c.196-.95.774-2.068 1.25-2.407.202-.144.37-.212 1.343-.468l1.125-.282 1.157 4.969c1.104 4.732 1.183 5.005 1.125 5.219-.118.431-.368.604-1.375.937l-.657.219.125.563 6.688-1.563-.125-.562-.344.031c-.19.025-.602.053-.906.062-.468.016-.596-.014-.813-.125-.141-.072-.282-.211-.343-.312-.078-.128-.485-1.651-1.282-5.063l-1.125-4.875 1.125-.25c1.279-.262 1.373-.252 1.907 0 .584.277 1.665 1.207 1.937 1.688.069.121.077.139.406.062l.344-.093-.75-3.25zm6.969.531c.035-.012 3.413 3.796 3.437 3.875.013.042-.49.224-2 .687-1.122.344-2.072.603-2.093.594-.042-.018.61-5.14.656-5.156zm-20.66 2.656-.375.063-.407.062-.125.313c-.08.171-.176.31-.187.312-.012.002-.241-.027-.5-.094-.893-.228-1.488-.29-2.313-.218-2.238.194-4.092 1.648-4.312 3.375-.02.167.008.505.062.812.171.961.622 1.606 1.407 2.063.757.44 1.389.62 3.687.937.657.091 1.383.198 1.594.25.737.18 1.431.736 1.719 1.344.167.354.253.931.187 1.312-.115.665-.494 1.166-1.187 1.5-.448.216-1.827.457-2.313.407-1.434-.147-2.704-1.027-3.594-2.532l-.218-.406-.407.063-.437.093.25 1.125c.134.628.357 1.56.469 2.063l.187.906.813-.125.312-.687.5.125c.636.144 1.499.233 2.125.218 1.047-.031 2.295-.366 3.125-.812 1.253-.674 2.134-1.843 2.25-2.969.05-.485-.103-1.375-.312-1.781-.322-.624-.856-1.114-1.563-1.406-.537-.223-1.659-.476-2.531-.594-1.126-.153-2.283-.355-2.656-.469-.673-.206-1.137-.545-1.407-1-.57-.962-.28-1.971.719-2.594.601-.374 1.619-.554 2.375-.406 1.093.214 1.837.807 2.688 2.188l.406.687.406-.062.375-.032-.187-1.125c-.109-.607-.295-1.5-.407-2l-.218-.906zm-113.6.188c-.556.043-1.091.145-1.657.312-2.368.701-4.04 2.482-4.5 4.781-.432 2.161.12 4.099 1.594 5.594.974.988 2.281 1.698 3.781 2.031.542.121 1.846.206 2.563.188 1.046-.027 2.203-.163 3.25-.406l.469-.125.375-3.375.187-.188c.229-.234.507-.312 1.219-.344l.562-.031.032-.312.031-.282-3.156-.375-3.188-.375-.031.313-.031.344.593.125c.814.177 1.301.381 1.469.593.223.281.24.592.063 1.938-.186 1.415-.142 1.351-.844 1.562-.719.217-1.268.253-2.125.157-.899-.101-1.295-.217-2.031-.625-1.33-.738-2.157-2.072-2.407-3.875-.067-.482-.055-.703.063-1.75.115-1.049.138-1.266.312-1.75.718-1.991 1.974-3.114 3.75-3.375.392-.058.596-.048 1.282.031.685.079.868.114 1.187.25 1.314.558 2.059 1.585 2.5 3.375l.156.656.438.031.406.063.125-1.532c.073-.847.15-1.824.188-2.156l.093-.594-.437-.062-.406-.031-.219.25c-.122.135-.238.241-.25.25-.011.008-.235-.105-.5-.25-1.048-.575-1.878-.829-3.125-.969-.645-.072-1.226-.106-1.781-.062zm15.91 2.093c-2.456-.028-4.732 1.053-5.969 2.907-.695 1.041-.943 1.921-1 3.281-.084 2.016.591 3.666 2.031 4.969 1.036.936 2.176 1.465 3.907 1.75.772.126 2.086.055 2.968-.157 1.092-.261 1.968-.694 2.844-1.406 1.412-1.147 2.107-2.626 2.188-4.562.039-.949-.043-1.576-.313-2.375-.784-2.321-2.865-3.928-5.594-4.313-.356-.05-.711-.09-1.062-.094zm83.75.469-3.281.375-3.25.375.031.281.062.282.563.062c1.25.089 1.591.22 1.719.719.036.146.288 2.316.562 4.844.496 4.568.484 4.593.375 4.75-.2.289-.512.437-1.281.593l-.688.157v.281l.032.312 3.25-.375 3.281-.375-.031-.281-.032-.312h-.5c-.967-.005-1.439-.131-1.656-.469-.083-.129-.196-1.001-.625-4.813-.326-2.905-.492-4.726-.469-4.843.083-.4.42-.614 1.438-.844l.562-.125-.031-.281-.031-.313zm-83.47.313c.615.028.808.058 1.188.187.684.232.99.436 1.531.938.423.392.535.531.781 1 .629 1.195.847 2.736.656 4.437-.216 1.937-.82 3.226-1.968 4.063-.475.345-.843.504-1.469.656-.57.138-1.54.167-2.156.031-1.754-.387-2.899-1.763-3.282-3.906-.119-.671-.091-2.506.063-3.282.154-.78.397-1.458.719-2.031.614-1.094 1.673-1.862 2.875-2.062.196-.033.638-.052 1.062-.031zm75.38.718-4.75.375-.031.125c-.133.737-.443 1.634-1.75 5.188-.83 2.254-1.509 4.133-1.531 4.156-.022.024-1.134-1.965-2.469-4.406l-2.438-4.438-2.468.219-2.5.188.031.281.031.312h.438c.865.049 1.351.263 1.687.75l.219.344.312 3.938c.395 4.77.405 4.927-.093 5.437-.278.284-.568.396-1.344.563l-.438.093.032.281.031.313 2.906-.219 2.938-.25-.032-.281-.031-.313h-.25c-.48-.028-1.397-.256-1.594-.375-.22-.132-.426-.383-.593-.75-.098-.214-.157-.847-.469-4.625-.222-2.676-.347-4.373-.313-4.375.031-.002 1.312 2.306 2.844 5.157l2.781 5.187.282-.031.25-.031 1.031-2.719c2.465-6.507 3.107-8.119 3.187-8.125.07-.005.139.7.438 4.531.259 3.321.321 4.633.281 4.782-.032.121-.141.277-.281.406-.266.244-.508.314-1.344.437l-.531.094.031.313.031.281 6.438-.5-.031-.281-.032-.313-.593-.031c-.704-.041-1.11-.196-1.313-.469-.125-.161-.146-.373-.5-4.906l-.375-4.75.125-.25c.154-.308.363-.421 1.156-.594l.657-.125-.032-.312-.031-.282zm-66.12.125-.031.282-.031.343.437.063c.245.062.562.237.75.344.275.154.388.217.469.406.099.232.084.278-.469 5.062l-.531 4.813-.188.156c-.227.203-.617.286-1.343.25l-.5-.031-.031.281-.032.313 3.657.375c3.515.377 3.646.384 4.281.343 1.714-.111 3.186-.513 4.281-1.25 1.123-.755 1.87-1.805 2.219-3.031.169-.595.246-2.015.156-2.594-.375-2.403-2.096-4.122-5.094-5.062-.497-.156-.769-.213-4.281-.625l-3.719-.438zm4 1.188 1.406.156c1.557.2 1.833.274 2.625.719 1.528.858 2.408 2.287 2.594 4.125.061.643-.095 2.093-.312 2.781-.668 2.112-2.081 3.237-4.219 3.344-.543.027-1.713-.085-2.125-.219-.505-.165-.838-.399-.969-.719l-.094-.281.563-4.969.531-4.937zm28.94.156v.594l.5.093c.661.114 1.075.303 1.25.594l.125.25v3.906c-.008 4.345-.016 4.373.375 5.063.623 1.101 2.018 1.847 3.843 2.094 1.32.178 2.724.026 3.844-.407 1.015-.392 1.78-1.007 2.219-1.781.144-.254.302-.578.344-.719.053-.182.088-1.294.125-3.906.052-3.784.067-4.032.312-4.437.213-.353.682-.544 1.563-.657l.468-.062v-.594h-5.968v.594l.281.031c.516.063 1.19.255 1.5.406.23.113.34.197.437.375.315.57.324.671.344 4.157.018 2.847.025 3.322-.062 3.687-.28 1.179-1.184 2.01-2.5 2.313-.553.127-1.638.128-2.282.031-1.027-.155-1.791-.633-2.218-1.375-.402-.697-.402-.719-.375-5.094.023-3.853.002-3.92.125-4.062.181-.21.491-.307 1.187-.407l.594-.093v-.563l-3-.031h-3.031zm-14.19.031v.594l.281.031c.73.093 1.332.461 1.813 1.063.435.543 2.942 4.47 3.406 5.343l.219.438v1.75c0 1.641-.014 1.752-.125 1.937-.208.346-.576.489-1.656.563l-.5.031v.594h6.812v-.594l-.344-.031c-.529-.053-1.27-.223-1.5-.344-.113-.059-.276-.2-.343-.312-.117-.195-.113-.299-.094-2l.031-1.782.156-.281c.086-.169.583-.978 1.125-1.781 1.595-2.364 2.64-3.715 3.157-4.063.333-.224.816-.413 1.218-.5l.282-.062v-.594h-5.063v.594l.594.062c.904.088 1.344.281 1.344.594 0 .277-.595 1.163-2.438 3.719-.464.643-.879 1.148-.906 1.125-.148-.127-2.773-4.195-3.063-4.75-.118-.227-.111-.315-.062-.406.084-.157.538-.272 1.281-.313l.594-.031v-.594h-6.219z" fill="#34201f"/>
        </g>
        
            <path d="m339.1 336.6-5.032.094 1.132 52.26c.476-.462.978-.933 1.51-1.415.418-.379.966-.669 1.572-.723s1.244.118 1.792.755c.055.063.115.143.158.22l-1.132-51.19v.001z" fill="#d6b14d" fill-rule="nonzero" stroke="#000" stroke-width="1px"/>
            <path d="m330.4 378.8c-.808-6.351 1.116-11.54 1.774-15.28 1.938-.254 2.979.91 2.532 4.429l-4.306 10.85z" fill="#492728" fill-rule="nonzero" stroke="#000" stroke-width="1px"/>
            <g transform="matrix(1.006 0 0 1.006 -14.5 28.07)">
                
                    <g transform="translate(188.7 250.8)" fill-rule="nonzero">
                        <path d="m220.1 424c-.857-25.88 16.06-53.07 5.674-76.79 0 0 2.352-6.196 2.648-9.456.24-2.636-.728-7.905-.728-7.905.931-4.063 2.081-7.038 3.509-13.26 2.14-9.331 5.705-21.32 6.295-33.7.757-15.87-2.309-30.97-4.963-47.21l-55.89-3.302c-9.162 7.391-15.16 35.13-19.23 55.07-3.347 16.41-3.073 34.06-3.51 49.41-2.594 3.551-4.329 6.349-4.438 11.58-2.324 4.987-4.228 10.29-4.97 15.74-1.664 12.22-.14 26.92.738 40.18.683 10.3 1.333 18.63 1.333 18.63s-3.936 2.424-5.888 4.261c-4.083 3.842-6.488 10.35-11.09 13.55-2.26 1.568-5.662 1.936-8.165 3.076-2.626 1.196-3.018 3.197-3.018 3.197-.596 2.859 4.252 4.762 10.15 5.767 4.694.8 4.727-1.593 6.714-1.746 1.988-.154 4.454.211 6.242-.707 7.076-3.634 5.766-6.808 9.613-8.759 1.974-1 4.122-.262 5.888-1.596 1.986-1.5 2.997-3.38 3.224-5.859.242-2.644-.504-7.869-.504-7.869s1.401-2.522 1.865-4.142c.723-2.525-.285-5.248-.119-7.869.931-14.7 6.92-28.79 7.87-43.49.356-5.517-.829-16.57-.829-16.57 5.864-4.88 7.083-9.738 6.627-17.4 10.23-17.12 17.63-37.95 17.4-50.53l3.414-16.57 2.995 1.331s-.993 39.5 2.662 58.57c.827 4.309 1.749 7.772 2.995 11.98.742 2.504 1.121 4.498.957 7.104-.79 12.52-7.167 17.44-5.283 33.5.456 3.883 1.941 8.063 2.91 13.18 1.858 9.812 3.746 23.42 3.746 23.42-3.547 4.544-.111 8.202.68 9.327 0 0 .235 1.551 0 2.269-.73 2.229-2.792 2.362-3.208 4.959-.839 5.244 4.893 4.951 6.773 7.623 1.645 2.338.985 3.424 1.969 4.938 1.131 1.739 1.825 2.54 4.777 3.143 1.228.784 2.436 2.283 3.783 2.432 5.052.56 10.54-1.577 13.52-5.694 1.603-5.439-1.674-5.193-4.723-8.283-3.173-2.88-4.74-5.239-6.641-8.897-.694-1.335-3.2-5.317-3.767-6.651z" fill="#492728" stroke="#000" stroke-width=".99px"/>
                    
                    
                        <path d="m172 248c-14.1 33.16-15.29 50.86-9.889 80.44-1.845.918-3.686-5.607-5.531-10.41-.569 4.636-.253 18.35 1.375 20.53 0 0-3.497 2.538-3.875 4.282-.371 1.713-.189 4.256 1.188 6.281 1.404 2.066 3.723 2.335 6.187 2.75 2.441.411 5.2-.422 7.156-1.938 2.076-1.607 3.15-4.33 3.907-6.843.989-3.286-.229-6.925.687-10.28 1.07-3.92 5.5-8.154 5.5-15.97v-17.72c3.533 5.428 3.344 11.58 2.938 17.94 1.953-6.651 3.717-8.944 5.671-20.29l-4.563-.313-.312-1.625h-3.594l-5.289-2.593s-.121-15.43-.244-22.4c-.133-7.603.451-20.57.451-20.57l-1.763-1.281zm49.48 28.2.344 3.531-2.125 1.032-.344 12s-.037 1.954-.719 2.469c-.842.635-5.572 1.035-5.572 1.035s-1.335 1.146-2.762 1.59c-2.316.719-7.281-.157-7.281-.157.261 9.309-.115 24.24 6.875 35.09 2.357 3.66 1.506 8.821 4.937 11.5 1.11.866 2.745.76 4.031.188 1.442-.643 2.591-2.027 3.157-3.5.672-1.753.458-3.805 0-5.625-.424-1.68-1.999-2.927-2.469-4.594-.574-2.036-.344-6.344-.344-6.344l2.469 2.438c5.768 5.676 7.477-13.03 10.19-20.72-2.343 3.884-4.454 8.051-8.781 10.56 7.332-13.83 10.48-25.48 10.91-40.5 0 0-3.724.852-6.384.813-2.064-.031-6.125-.813-6.125-.813zm-17.83 49.28s.086 2.656 1.468 8.312c1.135 4.646 4.164 10.14 4.563 14.91.22 2.629-.419 5.264-.969 7.844-1.17 5.486-4.133 9.315-4.594 14.91-.287 3.487.197 7.005.688 10.47 1.289 9.108 3.21 17.58 4.5 26.69.49 3.463.12 7.286-.375 10.75-.163 1.139-1.667 1.884-.906 4.531.209.73 1.122 1.047 1.531 1.687.566.888 1.256 1.854 1.25 2.907-.007 1.28-.811 2.472-1.531 3.531-.692 1.015-2.597 1.703-2.844 2.906-.221 1.078.196 2.745 1.25 3.063 1.546.465 2.609-2.689 4.187-2.344 1.566.342 2.036 1.885 2.438 3.437.448 1.732-.571 3.604-.156 5.344.323 1.356.985 2.732 2 3.688.615.579 1.607.595 2.312 1.062 1.146.759 1.779 2.258 3.063 2.75.715.274 1.753.555 2.281 0 .705-.741.268-2.132-.156-3.062-.764-1.677-3.969-3.813-3.969-3.813s4.144 1.287 5.375 2.906c.825 1.085.906 3.969.906 3.969 1.073.069 1.47.372 2.542-1.219 0 0 .075-2.151-.542-3.062-.83-1.227-3.219-3.063-3.219-3.063s2.735.776 3.876 1.865c.958.915 1.573 3.531 1.573 3.531 1.181-.045 1.562-.358 1.594-1.552 0 0-.899-2.204-1.687-3.062-.872-.95-2.137-2.157-2.137-2.157s1.971.958 3.193 1.76c1.102.723 2.521 3.583 2.521 3.583s.438-2.452 0-3.374c-1.385-2.919-4.54-4.586-6.651-7.031-2.8-3.242-4.072-7.547-6.563-11.03-.772-1.08-2.594-3.031-2.594-3.031s.376-8.16.969-12.19c1.269-8.609 3.802-16.97 5.5-25.5 1.35-6.785 2.923-13.9 3.156-20.81.098-2.896-.375-5.826-1-8.656-.803-3.637-2.937-10.19-2.937-10.19s2.924-6.384 3.156-9.812c.152-2.254-1.187-6.688-1.187-6.688l-1.188-.406s-.578 2.614-.562 3.938c.017 1.527.883 3.007.781 4.531-.174 2.602-3.156 8.437-3.156 8.437s1.608 14.19 1.562 21.78c-.034 5.633.265 11.64-1.156 17.09-.406 1.558-1.781 4.094-1.781 4.094.388-22.87-.906-29.18-1.969-41.41 0 0-4.365-1.047-5.875-2.563-1.055-1.059-1.378-2.685-1.781-4.125-.5-1.782-.1-2.392-.75-4.125-.549-1.461-1.09-2.428-1.969-3.718-1.586-2.326-4.031-8.282-4.031-8.282zm-51.38 22.59c-8.306 9.533-5.609 50.09-3.063 75.47 0 0-5.332 3.1-7.594 5.156-3.405 3.095-5.639 7.98-8.812 11.31-1.246 1.309-2.417 2.098-4 2.969-2.422 1.332-6.001.887-8.125 2.656-.813.676-1.25 2.375-1.25 2.375s1.447-1.495 2.437-1.813c1.11-.356 3.532-.531 3.532-.531s-2.464.812-3.438 1.563c-.528.406-1.2 1.073-1.031 1.718.155.595 1.008 1.092 1.594.907.601-.191.35-1.289.812-1.719 1.015-.946 4.094-1.781 4.094-1.781s-2.61 1.424-3.313 2.468c-.284.422-.592 1.057-.343 1.5.412.736 1.664 1.183 2.406.782.658-.357.123-1.551.562-2.157.826-1.138 3.344-1.781 3.344-1.781s-1.657 1.126-2.187 2.219c-.272.558-.215 1.324.125 1.844.556.85 1.498.861 2.5.687 1.874-.326 2.948-2.366 4.812-2.75 1.589-.327 3.345.269 4.844-.312 4.125-1.601 4.077-7.632 7.594-9.813 1.996-1.238 5.114-.186 6.906-1.406 1.442-.983 2.426-2.754 2.75-4.469.517-2.74-.719-7.219-.719-7.219 3.257-4.562 1.814-8.904 2.344-13.97.513-4.396 1.317-10.87 2.125-15.22 2.004-10.79 4.789-19.35 5.375-30.31.218-4.075-.344-12.25-.344-12.25l-3.406 1.375s-.285 3.385-1.156 4.844c-.858 1.436-2.361 1.581-3.282 2.625-2.098 2.379-4.127 15.51-3.781 23.5.273 6.287 1.157 12.68 1.75 19.16-3.496-6.231-4.756-14.17-4.687-21.94.113-12.87 3.863-25.24 7.062-28.53 0 0-3.539-1.617-4.75-3.063-.946-1.129-1.687-4.094-1.687-4.094z" fill="#5b3132"/>
                    </g>
                <g fill="#e4be58" fill-rule="nonzero" stroke="#000" stroke-width=".99px">
                <path d="m348.8 603.4c.16.59.236 1.409.313 2.312.152 1.808.196 3.945.25 5.563.147 4.474-.857 9.126-.813 14 .011 1.142.25 3.031.25 3.031-.005 1.735 2.679 2.155 2.469-.281 0 0-.211-1.977-.219-2.781-.041-4.497.974-9.172.813-14.06-.053-1.589-.087-3.758-.25-5.687-.082-.965-.172-1.843-.344-2.625-.552.635-2.724-.271-2.469.531z"/>
                <path d="m337.9 598.1c-.99.343-1.542 1.125-1.25 2.75 5.761 2.642 13.47 6.977 24.78 3 .953-.699.912-2.811-.969-2.844-10.3 3.621-16.58-.164-22.56-2.906z"/>
                <path d="m407.5 601.3c-.16.59-.236 1.409-.312 2.313-.153 1.807-.197 3.944-.25 5.562-.148 4.475.857 9.126.812 14-.01 1.142-.25 3.031-.25 3.031-.436 1.814-2.844 1.208-2.469-.281 0 0 .212-1.977.219-2.781.041-4.497-.974-9.172-.812-14.06.052-1.589.087-3.758.25-5.687.081-.965.172-1.843.343-2.625.532.653 2.724-.271 2.469.531z"/>
                <path d="m415.1 597.3c-4.854 2.754-9.655 4.067-20.59.25-1.183.518-1.744 1.767-.969 2.844 11.44 3.992 17.75 2.512 23.06-.5.327-1.324.055-2.315-1.5-2.594z"/>
                <path d="m351.1 602.4c-.171-.782-.165-.989-.847-1.624-.652-.607-1.528-.96-2.344-.781-.815.178-1.351.709-1.719 1.218-.734 1.019-1.028 2.189-1.187 2.875-1.58 6.803.615 13.66-.031 20.31-.049.496-.31 1.526-.563 2.344-.253.817-.5 1.437-.5 1.437-.327 2.076 1.945 1.62 2.344.875 0 0 .259-.712.531-1.594.273-.881.567-1.896.656-2.812.712-7.32-1.401-14.1-.031-20 .11-.471.839-2.33 1.417-2.314l2.274.063z"/>
                <path d="m405.3 599.7c.143-.35.351-.682.695-1.003.653-.607 1.529-.96 2.344-.781.816.178 1.352.709 1.719 1.219.734 1.018 1.028 2.189 1.188 2.875 1.58 6.803-.616 13.66.031 20.31.048.496.309 1.526.562 2.344s.5 1.437.5 1.437c.485 1.563-1.19 2.261-2.343.875 0 0-.259-.712-.532-1.593-.272-.882-.567-1.897-.656-2.813-.711-7.319 1.401-14.1.031-20-.473-2.05-1.588-2.492-3.539-2.872z"/>
                </g><g transform="translate(188.7 250.8)" fill-rule="nonzero">
                    <path d="m230.3 442.8c3.165 1.53 4.015 4.849 2.719 7l.719.063c1.639-2.207.77-7.048-3.438-7.063zm-2.218 1.625c3.164 1.53 4.015 4.849 2.718 7h.907c1.639-2.207.583-6.985-3.625-7zm-105.6.969c-1.512.02-2.497.909-2.906 1.594-.418.698-.712 1.668-.438 2.562.143.468.755.592 1.282.969l.343-.438c-.836-.736-.831-1.9-.406-2.625s1.334-1.724 2.813-2c-.238-.035-.472-.065-.688-.062zm102.7.187c3.165 1.531 4.015 4.849 2.719 7l.844.125c1.639-2.206.645-7.11-3.563-7.125zm-4.062.594c3.165 1.53 4.015 4.849 2.719 7l.843.531c1.64-2.206.646-7.516-3.562-7.531zm-96.47.031c-1.512.02-2.497.91-2.906 1.594-.418.698-.712 1.668-.438 2.562.143.468.755.593 1.282.969l.343-.437c-.836-.737-.831-1.9-.406-2.625.425-.726 1.334-1.724 2.813-2-.238-.036-.472-.066-.688-.063zm2.563.813c-1.922-.026-2.985 1.162-3.344 2-.235.545-.398 1.216-.313 1.875.092.716.601.791 1.469 1.25l.438-.219c-.928-.618-1.075-1.756-.75-2.531.324-.776 1.071-1.905 2.5-2.375zm3.187.406c-1.922-.026-2.984 1.163-3.344 2-.489 1.139-.635 2.869 1.032 3.75l.562-.844c-.927-.618-1.075-1.756-.75-2.531.325-.776 1.072-1.904 2.5-2.375z"/>
                
            
            
                
                    <path d="m178.5 240.1s-.852 4.049-1.017 6.105c-1.091 13.59.203 40.9.203 40.9.364 1.66-.388 3.294 6.105 1.831v2.035s.399.767 1.425.611c2.079-.316 6.308 0 6.308 0s2.258.97 3.459 1.017c1.317.052 3.867-.814 3.867-.814s2.609 1.585 4.07 1.628c1.286.038 3.663-1.221 3.663-1.221s4.203 1.063 6.308.814c2.146-.253 2.646-1.831 2.646-1.831l.203-13.63c1.66-.58 1.523-1.519 1.742-2.386l1.107-19.18 5.494-1.628-.203-12.62-45.38-1.628z" fill="#961f06" stroke="#000" stroke-width=".99px"/>
                
                
                    <path d="m179.3 240.8-.625 5.688.219 38.66s.02 1.731.594 2.25c.306.276.837.226 1.25.219 1.037-.017 2.006-.786 3.031-.625.69.107 1.844 1.031 1.844 1.031v-40.09l.812-4.687-2.437-1.032-1.031 5.094v37.44c.06.855-1.679.449-1.625-.188l-.407-36.03.813-6.906-2.438-.813zm9.157 2.844-.625 4.469.187 38.69c-.328 1.975-.054 2.023.156 2.563 1.158-.049 1.87-.424 3.532.687l-.188-41.94.188-3.657-3.25-.812zm5.218.375v5.5l.157 40.31 2.312 1.219 2.281-1.062-.125-44.91 1.969.313.313 44.91 2.312.594 3.063-.906 1.75.781.375-15.81c.236-1.579.353-3.445 1.375-3.062l.312 19.31 2.313-.468.156-10.09 1.687-1.219-.156-7.969 2.125-2.468v-16.25l2.469-6.282-2.906.157-1.25.312v7.813l-1.969 3.843-.156 18.69c.213 1.36-.115 2.299-1.532 2.437l-.156-21.75 2-5.062-.312-7.656-3.844-.157v18.56l-1.844 1.969.156 3.843-.281 16.09s-.34 2.002-1.094 1.969c-1.165-.052-.593-2.75-.593-2.75l.125-20.53 1.093-3.657.313-16.56h-12.44z" fill="#ad2407"/>
                
                
                    <path d="m179.9 241.7-.531 4.75h.031l.219 38.66s-.006.371.062.812c.068.442.281.906.281.907-.026-.025.322.039.782.031.348-.006.764-.133 1.281-.313s1.128-.393 1.844-.281c.415.065.717.281 1.031.469v-38.84c.007-.043.017-.084.031-.125l.719-4.125-1.156-.469-.813 4.094v37.44h-.031c.002.431-.285.903-.625 1.063-.356.167-.69.148-1 .094-.31-.055-.607-.146-.875-.344-.255-.189-.509-.552-.5-1h-.031l-.406-36.03c.008-.032.018-.064.031-.094l.75-6.344-1.094-.344v.001zm9.313 3.062-.438 3.313.188 38.69c-.006.053-.017.105-.032.156-.154.926-.148 1.31-.125 1.469.322-.035.609-.094 1.032-.062.271.02.634.249.937.343l-.187-40.59c.009-.022.02-.043.031-.063l.156-2.875-1.562-.375zm5.531.281v4.438l.156 39.66 1.281.688 1.188-.563-.125-44.22h-2.5zm6.562 0c.026.102.036.208.031.313l.313 44.06 1.219.313 2.781-.813c.249-.07.516-.048.75.063l.281.125.031-1.656c-.068.127-.089.245-.187.375-.247.328-.741.748-1.406.718-.708-.031-1.293-.603-1.5-1.093-.208-.491-.249-.927-.25-1.344-.003-.834.156-1.594.156-1.594l.125-20.31c-.005-.106.006-.211.031-.313l1.063-3.562.281-15.28h-3.719zm8 1.094v17.47c-.001.266-.101.522-.281.719l-1.531 1.656.125 3.406v.063l-.063 2.718c.112-.337.219-.683.563-1 .311-.286.844-.286 1.312-.25l-.093-13c-.006-.138.015-.276.062-.406l1.938-4.875-.282-6.406-1.75-.094zm7.438 1.438-1.125.062h-.094l-.25.063v3.625l1.469-3.75zm-1.906 8.281-1.532 3-.093 11.59 1.625-1.907v-12.69zm-3.657 24.72c-.17.045-.322.137-.5.156l.125 9.125.219-.063.156-9.218z" fill="#c32807"/>
                </g>
            </g>
            <path d="m353 482.8c-1.428.982-4.152 15.05.304 18.06-3.579 4.239-5.844 10.29-4.857 17.6.585 2.349 1.545 2.973 2.544 3.693 9.153 6.6 34.32 8.583 50.58 6.779 7.527-5.581 12.75-14.04 7.588-22.46 3.183-3.093 3.137-15.42-.455-15.78l-55.7-7.892z" fill="#961f06" fill-rule="nonzero" stroke="#000" stroke-width="1px"/>
            <g transform="matrix(1.006 0 0 1.006 -14.5 28.07)">
                <g transform="translate(188.7 250.8)" fill-rule="nonzero">
                    <path d="m220.5 250.4c-4.479 4.519-6.1 9.775-7.843 13.12 1.374 1.372 2.899 1.085 4.675-1.961l3.168-11.16z" fill="#492728" stroke="#000" stroke-width=".99px"/>
                
                
                    <path d="m232.6 214.2c.121-3.686 1.919-6.381 3.513-9.06 1.909-3.209 3.01-7.816 3.603-11.84 1.96 3.926 4.117 10.52 10.46 18.56 0 0-3.405 3.493-4.186 4.604-6.784 9.653-21.07 26.09-21.07 26.09-6.748 6.382-9.978 14.36-8.79 25.25.239 2.732 1.945 4.467 4.186 2.791.702 2.991 3.6 3.426 5.162 1.256 1.7 1.812 4.131 1.644 4.967-.962 2.888 2.293 6.95-.736 5.721-4.432 0 0-1.844.908-2.545.599-1.614-.71-1.269-3.397-1.231-4.752.088-3.124 3.136-6.08 3.407-9.193.146-1.688-.764-4.211-.764-4.211s13.69-7.792 20.01-12.84c5.754-4.593 14.89-10.29 15.29-19.26.066-1.477-.924-4.175-.924-4.175-2.219-5.433-12.52-33.13-11.86-39.81.888-9.082-2.683-16.22-11.85-19.97-6.774-1.433-17.14.277-23.34-8.1-1.999-2.699.195-13.61.823-18.08l-30.48 5.231c-4.037.692-.539 8.88-2.289 11.56-.83 1.272-3.289 1.532-4.803 1.413-4.152-.327-8.498-1.474-13.52-.805-3.124.416-6.164 1.735-8.801 4.76-3.674-2.34-9.387-2.753-13.5.256 0 0 .914-3.75 1.161-5.574.702-5.176-1.04-11.79-2.028-18.28-.988-6.485-.294-12.37-.294-12.37 5.266.765 7.38-2.669 11.61-6.503.832-.753 2.282-1.226 3.372.04.723.84.347 3.016.347 3.016-.041.39 3.711-.213 3.813-4.251.034-1.381-1.238-2.609-1.238-2.609 2.447-1.266 3.017-3.246.058-5.756 2.192-1.372 2.373-3.913-.314-5.528 2.381-2.467-.339-4.992-3.957-4.588-1.951.218-8.516 2.564-9.341 3.448l-9.56 10.25c-1.656 1.776-5.807 7.893-6.201 10.31-1.777 10.88-4.622 21.76-5.406 32.64-.366 5.092-.282 10.18.575 15.28 1.406 2.838 4.291 5.3 8.032 7.205 7.58 3.859 21.98 5.431 28.37 3.214.992 5.639 2.511 9.515 6.484 13.26-1.885 9.345.943 17.54 1.941 22.57 9.001 6.614 29.72 13.05 55.39 9.347z" fill="#492728" stroke="#000" stroke-width=".99px"/>
                
                
                    <path d="m162.7 87.62c-2.336.149-8.181 2.593-8.938 3.438l-9.468 10.59c-1.621 1.808-4.919 7.867-5.313 10.28-1.777 10.88-3.529 20.31-4.312 31.19-.367 5.092.424 7.002 1.281 12.09 3.628 7.19 22.09 13.53 29.66 6.469.988-1.224 1.765-2.693 3.406-2 1.026.433 2.441 2.155 2.469 2.468-.151 5.186 2.308 16.35 13.75 21.16-1.487 2.386-6.51 2.264-6.844 2.812-.905 6.862.912 11.92 1.75 16.15 8.854 5.287 21.14 10.85 47.03 10.1-.022-3.793 2.007-5.01 3.906-9.094 1.243-2.675 2.173-4.277 2.562-6.625-2.911-.121-3.453 4.278-7.843 3.594.883-1.472 1.735-2.971 1.718-5.344-7.031-2.141-11.14-6.112-8.062-6.125 13.08-.054 16.67-5.953 18.03-18 .101-.889 1.859-2.226 2.781-2.406 1.646-.321 2.926 1.417 2.782 4.25-.772 15.12-2.725 16 9.5 39.81 0 0-4.532 3.482-5.313 4.593-6.784 9.653-21.47 26.81-21.47 26.81-6.748 6.382-9.313 10.89-8.125 21.78.24 2.732 1.114 4.278 2.844.219 1.205 4.324 2.562 4.793 4.125.75 1.359 4.536 3.953 3.516 3.938-.281 2.014 5.335 7.917 4.335 7.046.998 0 0-1.831.565-2.531.257-1.614-.711-2.929-4.057-2.89-5.412.087-3.123 3.135-6.074 3.406-9.187.147-1.688-2.469-6.094-2.469-6.094s14.02-7.909 20.25-13.06c6.866-5.678 15.1-10.85 15.5-19.81.066-1.476-.25-2.969-.25-2.969-2.219-5.433-11.28-31.69-10.62-38.38.888-9.081-3.499-15.79-13.19-17.84-3.321-.703-12.21 4.438-14.81 3.687-.049-2.667 6.876-5.815 6.25-5.812-1.762.008-11.22 1.869-14.19-7.532 0 0-3.608 2.175-5.532 4.688-2.1 2.743-4.819 8.524-8 8.969-2.665.372-3.723-.733-6.182-2.203-2.484-1.486-6.564-2.558-8.813-4.38-1.778-1.442-3.156-5.36-3.156-5.36-.875.471-2.062-.719-2.786-.776-4.152-.327-8.481-1.481-13.5-.813-3.124.416-7.233 3.551-8.031 7.188-2.287-3.477-9.049-4.964-13.19-2.188-2.133 1.431-3.016 4.826-4.031 6.782-.591 1.138-1.821 1.252-2.5 1.75 0 0-.298-2.141.562-4.969 1.201-3.95 3.669-9.063 3.813-10.12.701-5.176-1.418-13.61-2.406-20.09-.989-6.486-1.282-13.59-1.282-13.59 5.266.765 10.58-2.697 14.81-6.531.831-.754 2.667-.41 4.187.281 1.131.515 2.125 3.844 2.125 3.844s1.297-1.36.055-3.834c-.966-1.924-4.575-3.12-4.575-3.12 4.687.747 5.562-.62 5.764-1.505s-2.726-2.125-5.811-2.8c3.259-.128 5.652-1.136 5.456-2.15-.373-1.92-2.794-1.971-5.603-2.778 3.569-1.156 3.955-1.927 3.892-2.584s-.743-1.088-2.209-1.229c-.122-.012-.251-.01-.406 0zm55.91 59.38c.518 2.077.898 4.212 1.938 6 .771 1.326 2.92 1.746 3.718 3.219 0 0-1.178 1.269-1.812 1.344-1.103.128-3.312.187-4.25-.407-.993-.629-1.6-1.353-1.969-2.468-.35-1.057-.361-3.038-.125-4.125.247-1.143 2.5-3.563 2.5-3.563zm-31.59.563s1.101-.036 1.063.812c-.114 2.54 4.457 6.421 5.781 6.344 1.323-.078 2.795 1.158 3.031 1.312 0 0-1.793 1.022-2.375 1.188-1.074.307-3.721-.372-4.718-.875-.98-.494-1.688-1.478-2.157-2.469-.387-.82-1.466-4.557-1.25-5.437.087-.353.625-.875.625-.875z" fill="#5b3132"/>
                
                
                    <path d="m218.2 147.2c-.222 1.389-.589 3.67.221 5.808.404 1.069 1.037 2.042 2.031 2.687.993.645 2.32.93 3.969.657.361-.334.517-.667-.157-1-1.462.242-2.482-.002-3.25-.5-.768-.499-1.303-1.256-1.656-2.188-.706-1.864-.635-4.299-.437-5.531-.453-.887-.513-.146-.721.067zm-66.69.37c-1.697.627-6.729 5.113-5.031 8.75.564-3.882 2.423-6.453 5.438-7.843l-.407-.907zm37.66 6.75c1.129 1.01 2.663 1.447 4.093 1.563 1.376.105 1.985-.713.688-1.094-.235.003-.529.099-.594.094-1.28-.104-2.599-.551-3.531-1.313-.845-.69-1.591-2.262-1.82-2.58-.553.752.136 2.411 1.164 3.33zm53.06-2.312c-.702-.006-1.383.043-2.062.125-2.717.325-5.148 1.265-6.625 2.375l.593.812c1.262-.948 3.598-1.881 6.157-2.187 2.558-.307 5.339.004 7.593 1.344l.5-.875c-1.88-1.118-4.05-1.576-6.156-1.594zm-74.66 9.187.687 7.938v.031c1.001 5.685 2.605 9.709 6.657 13.53v.031l.031.032c1.407 1.07 2.338 1.357 4.093 1.343-.886-1.093-2.567-1.449-3.468-2.125-.012-.011-.02-.02-.031-.031-3.861-3.656-5.3-7.35-6.282-12.91v-.031c-.77-1.899.008-8.377-1.687-7.813zm73.25 10.16c-1.472-.413-.544 6.813-2.031 11.5h-.125c.005.153-.001.272 0 .406-.343.994-.752 1.902-1.25 2.719-4.274 6.267-11.03 4.088-11.19 5.781 5.788.543 9.751-1.515 12.03-5.25.111-.182.209-.373.313-.563.033 1.366.285 3.603 1.187 8.594l1-.156c-1.608-8.898-1.113-8.861-1.093-10.97 1.129-3.357 1.438-7.482 1.156-12.06z"/>
                </g>
                
                    <path d="m391.4 417.5c-.385.342-.489.667-.569 1.505-.079.838.157 1.367.841 1.938.584.253 1.182.13.842-.59-.175-.369-.727-.607-.666-1.254.061-.648.177-.789.367-1.178.446-.908-.633-.584-.815-.421z" fill="#34201f" fill-rule="nonzero"/>
                    <g transform="translate(4.166 6.387)">
                        <path d="m391.4 417.5c-.385.342-.489.667-.569 1.505-.079.838.157 1.367.841 1.938.584.253 1.182.13.842-.59-.175-.369-.727-.607-.666-1.254.061-.648.177-.789.367-1.178.446-.908-.633-.584-.815-.421z" fill="#34201f" fill-rule="nonzero"/>
                    </g>
                    <g transform="translate(-5.971 1.944)">
                        <path d="m391.4 417.5c-.385.342-.489.667-.569 1.505-.079.838.157 1.367.841 1.938.584.253 1.182.13.842-.59-.175-.369-.727-.607-.666-1.254.061-.648.177-.789.367-1.178.446-.908-.633-.584-.815-.421z" fill="#34201f" fill-rule="nonzero"/>
                    </g>
                    <g transform="translate(-3.888 -4.305)">
                        <path d="m391.4 417.5c-.385.342-.489.667-.569 1.505-.079.838.157 1.367.841 1.938.584.253 1.182.13.842-.59-.175-.369-.727-.607-.666-1.254.061-.648.177-.789.367-1.178.446-.908-.633-.584-.815-.421z" fill="#34201f" fill-rule="nonzero"/>
                    </g>
                    <g transform="translate(13.05 -4.582)">
                        <path d="m391.4 417.5c-.385.342-.489.667-.569 1.505-.079.838.157 1.367.841 1.938.584.253 1.182.13.842-.59-.175-.369-.727-.607-.666-1.254.061-.648.177-.789.367-1.178.446-.908-.633-.584-.815-.421z" fill="#34201f" fill-rule="nonzero"/>
                    </g>
                    <g transform="translate(-.972 12.36)">
                        <path d="m391.4 417.5c-.385.342-.489.667-.569 1.505-.079.838.157 1.367.841 1.938.584.253 1.182.13.842-.59-.175-.369-.727-.607-.666-1.254.061-.648.177-.789.367-1.178.446-.908-.633-.584-.815-.421z" fill="#34201f" fill-rule="nonzero"/>
                    </g>
                    <g transform="translate(-6.249 3.61)">
                        <path d="m391.4 417.5c-.385.342-.489.667-.569 1.505-.079.838.157 1.367.841 1.938.584.253 1.182.13.842-.59-.175-.369-.727-.607-.666-1.254.061-.648.177-.789.367-1.178.446-.908-.633-.584-.815-.421z" fill="#34201f" fill-rule="nonzero"/>
                    </g>
                    <g transform="translate(-6.11 -1.25)">
                        <path d="m391.4 417.5c-.385.342-.489.667-.569 1.505-.079.838.157 1.367.841 1.938.584.253 1.182.13.842-.59-.175-.369-.727-.607-.666-1.254.061-.648.177-.789.367-1.178.446-.908-.633-.584-.815-.421z" fill="#34201f" fill-rule="nonzero"/>
                    </g>
                    <g transform="translate(-5.971 .5554)">
                        <path d="m391.4 417.5c-.385.342-.489.667-.569 1.505-.079.838.157 1.367.841 1.938.584.253 1.182.13.842-.59-.175-.369-.727-.607-.666-1.254.061-.648.177-.789.367-1.178.446-.908-.633-.584-.815-.421z" fill="#34201f" fill-rule="nonzero"/>
                    </g>
                    <g transform="translate(11.53 .8331)">
                        <path d="m391.4 417.5c-.385.342-.489.667-.569 1.505-.079.838.157 1.367.841 1.938.584.253 1.182.13.842-.59-.175-.369-.727-.607-.666-1.254.061-.648.177-.789.367-1.178.446-.908-.633-.584-.815-.421z" fill="#34201f" fill-rule="nonzero"/>
                    </g>
                    <g transform="translate(-13.19 4.582)">
                        <path d="m391.4 417.5c-.385.342-.489.667-.569 1.505-.079.838.157 1.367.841 1.938.584.253 1.182.13.842-.59-.175-.369-.727-.607-.666-1.254.061-.648.177-.789.367-1.178.446-.908-.633-.584-.815-.421z" fill="#34201f" fill-rule="nonzero"/>
                    </g>
                
                <path d="m389.7 459.1c.386.343.748 1.146.827 1.984.08.838-.083 1.773-.767 2.344-.583.252-1.182.129-.842-.591.175-.369.654-1.012.592-1.659-.061-.647-.434-1.268-.625-1.656-.445-.909.633-.584.815-.422z" fill-rule="nonzero"/>
                <path d="m416.3 436.1c-.127.369-.921 1.343-2.017 1.341-.94-.002-1.808-.666-2.311-1.282-.253-.583-.13-1.182.59-.841.369.174.657 1.138 1.628 1.106 1.259-.041 1.3-.949 1.688-1.14.908-.445.501.585.422.816z" fill-rule="nonzero"/>
                <g transform="matrix(.9305 .3662 -.3662 .9305 142 -127.5)">
                    <path d="m416.3 436.1c-.127.369-.921 1.343-2.017 1.341-.94-.002-1.808-.666-2.311-1.282-.253-.583-.13-1.182.59-.841.369.174.657 1.138 1.628 1.106 1.259-.041 1.3-.949 1.688-1.14.908-.445.501.585.422.816z" fill-rule="nonzero"/>
                </g>
            
            
                <g transform="translate(188.7 250.8)" fill-rule="nonzero">
                    <path d="m242.4 200.2c6.127-.255 17.38-3.864 19.24-9.815 7.177 2.499 8.421 10.57 4.8 14.04-4.939 4.73-9.966 6.851-16.57 7.545-6.347.666-11.19-7.337-7.47-11.77z" fill="#d6b14d" stroke="#000" stroke-width=".99px"/>
                
                
                    <path d="m262.2 192.3c-1.616 2.849-4.676 4.917-8.063 6.407-3.684 1.62-7.657 2.523-10.88 2.781-1.006 1.562-.853 3.626.313 5.5 1.269 2.04 3.276 2.596 5.747 2.336 6.35-.666 10.94-2.604 15.66-7.125 2.408-2.306 2.244-7.316-2.779-9.899z" fill="#e4be58"/>
                
                
                    <path d="m262.6 194c-1.955 2.526-4.886 4.266-7.906 5.594-3.507 1.542-7.149 2.383-10.38 2.75-.361.962-.33 2.122.468 3.406 1.019 1.638 2.331 1.714 4.153 1.523 6.113-.642 10.26-2.392 14.78-6.719 1.364-1.306 1.858-4.165-1.121-6.554z" fill="#f6cd5e"/>
                </g>
            </g><g fill-rule="nonzero">
            <path d="m338.2 386.8c-.606.054-1.154.344-1.572.723-.532.482-1.034.953-1.51 1.415l7.296 332c.829 1.19 3.93 1.678 5.031-.094l-7.295-333c-.043-.077-.103-.157-.158-.22-.548-.637-1.186-.809-1.792-.755z" fill="#d6b14d" stroke="#000" stroke-width="1px"/>
            <path d="m389.6 505.5c-3.947.845-26.84 1.222-35.73-7.485-3.282-4.024-1.259-9.271-1.159-9.521 11.21 7.288 32.1 11.66 55.56 10.4 1.248 3.466-.248 4.647-1.409 6.107-2.478 1.826-8.131 1.228-12.56.814-1.252.227-2.346.513.626 2.349 0 0 4.72-.41 6.577 0s3.961.49 5 1.727c1.039 1.238 1.248 1.816.021 6.084-1.228 4.269-13.09 7.609-24.44 3.933-.256.507-.333 1.467 2.035 2.662 5.397 1.444 10.72 1.418 16.44.783l-4.289 3.758c-8.327.267-18.86.545-28.5-1-6.848-1.098-12.95-3.314-16.88-7.863-1.369-4.513-.158-4.618.188-5.7 7.066 6.099 14.54 7.491 23.64 7.83 1.421-.049 2.845-.405 2.662-1.41-9.48-.8-18.06-2.19-25.37-7.986-.98-1.479-.867-2.473 0-3.131 16.01 8.366 31.29 8.483 49.48 8.299 2.634-.68 2.656-2.44 2.035-2.819-19.66 2.085-34.91-.25-50.73-6.733-.286-1.712.054-2.391 1.566-3.288 7.157 3.076 36.13 7.227 35.23 2.192z" fill="#ad2407"/>
            <path d="m354.2 490.8c-.051.384-.105.752-.094 1.258.03 1.43.422 3.195 1.792 4.937 5.211 3.572 12.84 5.613 19.56 6.603 3.394.5 6.563.751 9.056.849 2.494.098 4.385.019 4.969-.063.591-.085 1.209.357 1.32.944.103.576-.026 1.221-.345 1.698-.32.476-.779.796-1.258 1.037-.959.482-2.129.738-3.554.881-2.849.285-6.667.119-10.72-.283-7.765-.77-16.06-2.405-20.22-4.025-.288.215-.631.44-.692.566-.04.083.012.402 0 .566 15.45 6.083 31.47 7.241 49.5 6.446.23-.014.462.042.661.157 1.005.613 1.122 1.784.692 2.768-.431.984-1.463 1.799-3.019 2.201-.093.022-.188.032-.283.031-17.78.18-33.03.036-48.9-7.893.036.178.093.384.315.755 6.992 5.453 15.22 6.821 24.56 7.61.51.036.97.442 1.07.943.096.53-.073 2.103-.378 2.512s-.691.623-1.069.786c-.756.327-1.562.413-2.358.44-.021.001-.042.001-.063 0-8.665-.322-18.2-2.713-23.08-8.14-.041.306.055 1.178.566 2.956 3.663 4.095 9.381 6.238 15.97 7.295 9.377 1.503 19.45 1.604 27.67 1.352l1.447-1.258c-4.547.289-8.996.22-13.46-.974-.076-.024-.15-.056-.22-.095-1.303-.657-2.091-1.291-2.516-2.075s-.276-1.685-.031-2.17c.228-.461.785-.733 1.289-.629 5.504 1.164 11.16 1.089 15.53.283 2.188-.403 4.055-.98 5.377-1.635s2.037-1.403 2.17-1.792c.594-1.732.803-2.824.786-3.491-.017-.666-.181-.95-.597-1.446-.277-.33-.788-.586-1.573-.786-.784-.2-1.763-.345-2.767-.566-.643-.143-2.301-.176-3.679-.126s-2.547.157-2.547.157c-.249.027-.507-.029-.723-.157-.783-.483-1.322-.891-1.73-1.289-.407-.399-.831-.898-.691-1.699.069-.4.311-.726.534-.911.223-.186.438-.274.629-.346.382-.146.71-.224 1.038-.283.073-.007.147-.007.22 0 3.109-.001 5.692.093 10.79-.598.474-.576.96-1.098 1.163-1.604.195-.485.185-1.164-.031-2.106-21.54 2.47-43.55-3.319-52.07-9.591z" fill="#c32807"/>
            </g><g transform="matrix(1.006 0 0 1.006 -431.4 9.674)" fill-rule="nonzero">
                <path d="m797.5 408.2-3 .219c.415 6.328 1.129 10.65 2.875 14.34 1.642 3.47 4.271 6.261 8.031 9.469-.977.867-1.868 1.775-2.468 2.813-.893 1.541-1.169 3.447-.469 5.25.821 2.117 2.68 3.381 4.562 3.468 1.883.088 3.74-.871 4.875-2.593 1.217-1.846.942-4.134.063-6.032-.467-1.007-1.136-1.936-1.906-2.781 3.521-2.598 6.745-4.953 9.375-8 2.494-2.89 5.08-5.767 6.244-10.55.375-2.591.176-4.501-1.041-5.494-.952 5.895-4.8 11-7.453 14.07-2.451 2.84-5.707 5.177-9.438 7.938-3.892-3.27-6.228-5.761-7.687-8.844-1.489-3.145-2.157-7.087-2.563-13.28zm10.28 26.12c.606.652 1.134 1.371 1.469 2.094.607 1.309.62 2.39.156 3.093-.584.886-1.479 1.286-2.25 1.25-.771-.035-1.452-.393-1.906-1.562-.376-.97-.247-1.689.313-2.656.395-.684 1.345-1.454 2.218-2.219z" fill="#e4be58" stroke="#000" stroke-width=".99px"/>
                <path d="m808.1 429.9-.656.75c.823.701 1.591 1.379 2.312 2.031l.657-.75c-.728-.657-1.482-1.323-2.313-2.031zm-2.312 1.937-.75.688c.26.293.644.492 1.093.843s.937.782 1.282 1.219l.781-.625c-.434-.549-.995-1.005-1.469-1.375s-.916-.726-.937-.75z"/>
            </g>
            <g transform="matrix(1.006 -.03103 .03103 1.006 -54.64 38.7)">
                
                    
                        <path d="m375.8 316.3-1.415-2.099 1.415-2.72c-2.517-3.978-3.72-11.25-3.967-16.21-.755-15.19 7.401-40.84 7.401-40.84s8.157 25.66 7.402 40.84c-.247 4.956-1.45 12.23-3.967 16.21l1.415 2.72-1.415 2.099h-6.869z" fill="#d3c6b0" fill-rule="nonzero" stroke="#000" stroke-width=".99px"/>
                    
                
            </g>
            <path d="m334.7 287.3c-3.259 15.64-9.414 43.07.619 50.4l-.619-50.4z" fill="#ece6dc" fill-rule="nonzero"/>
            
                <g transform="translate(-12.82 29.46)">
                    <path d="m407.7 338.7c.543-5.491 8.745-24.23 15.57-28.4 0 0-3.242-.703-6.023 1.215-4.744 3.272-11.18 23.72-9.543 27.19z" fill="#f6cd5e" fill-rule="nonzero" stroke="#000" stroke-width="1px"/>
                    <path d="m402.2 334c3.065-8.598 1.782-32.52-2.602-38.52 0 0 4.749.509 7.088 4.774 3.989 7.273.051 29.27-4.486 33.74z" fill="#f6cd5e" fill-rule="nonzero" stroke="#000" stroke-width="1px"/>
                    <g transform="translate(188.7 250.8)">
                        <path d="m213.7 81.37c-.14-1.271-.842-1.718-.83-2.837.141-13-4.99-15.24-11.5-17.12 0 0 5.401-2.411 9.168.666 6.844 5.592 3.905 13.32 3.161 19.29z" fill="#f6cd5e" fill-rule="nonzero" stroke="#000" stroke-width="1px"/>
                    </g><g fill="#f6cd5e" fill-rule="nonzero" stroke="#000" stroke-width="1px">
                    <path d="m403.4 333.3c3.236-5.068 4.544-25.7 1.759-32.58 0 0 3.928 1.043 5.456 5.173 2.605 7.043-2.959 23.94-7.215 27.41z"/>
                    <path d="m403.8 334.7c4.22-5.971 8.533-24.26 6.407-31.99 0 0 2.771 1.353 3.692 5.659 1.57 7.344-5.389 23.51-10.1 26.34z"/>
                    <path d="m410.8 335.8c-.496-5.751 7.07-14.15 11.8-16.59 0 0-3.241-.703-6.023 1.216-4.744 3.272-7.409 11.9-5.777 15.38z"/>
                </g></g>
                <path d="m377.9 371.1s-2.691-1.768-2.66-3.869c.04-2.727 1.637-5.202 3.869-6.771 2.927-2.056 7.062-3.63 10.64-3.627 5.493.005 11.21.493 15.72 3.627 4.517 3.139 7.885 6.263 9.189 11.61.443 1.816-.094 6.238-1.209 7.738-1.529 2.055-6.287 2.901-6.287 2.901l-29.26-11.61z" fill="#1a1a1a" fill-rule="nonzero" stroke="#000" stroke-width="1px"/>
                <g transform="translate(-11.79 30.59)">
                    <path d="m402.1 343.8c-7.864-2.118-16.87.673-21.43 8.392-2.273 3.846-3.087 7.831-3.16 12.3-.049 2.939 1.711 2.998 1.742 4.547.034 1.698-1.386 3.254-1.882 4.878-.487 1.6-1.08 3.57.675 6.164.28 1.908.122 4.968.594 6.689 1.113 4.062 1.516 7.748 5.032 10.06 2.402 1.583 5.835 1.426 8.604.65 6.348-1.78 10.36-5.056 14.45-10.23 1.415-1.789 2.076-7.308 2.076-7.308 1.392 1.787 2.063 2.278 3.198 1.775 1.631-.724 5.121-6.757 6.262-11.64.491-2.684-.054-4.748-1.075-5.175-1.399-.585-1.691-.46-3.443.828 4.218-11.58-3.291-19.68-11.64-21.93z" fill="#492728" fill-rule="nonzero" stroke="#000" stroke-width="1px"/>
                    <g transform="translate(188.7 250.8)">
                        <path d="m203.9 119.1c.548 5.643 10.83 3.457 7.032-1.897l-7.032 1.897z" fill="#613335" fill-rule="nonzero"/>
                    </g>
                    <path d="m381.8 366c-1.018.119-1.968.744-2.225 2.442l5.907 1.562c.002-2.681-1.986-4.202-3.682-4.004zm14.33.276c-1.855-.09-3.746 1.272-3.687 3.761l7.912-1.158c-.493-1.786-2.782-2.533-4.225-2.603zm-9.055 16.5-3.5 1.687s.662 1.495 1.344 1.781c.59.248 1.267-.276 1.906-.25.995.041 1.986 1.004 2.907.625.862-.355 1.531-2.343 1.531-2.343l-4.188-1.5z" fill="#713b3d" fill-rule="nonzero"/>
                    <g transform="translate(188.7 250.8)">
                        <path d="m196.5 119.2c-1.981 3.112-5.77 2.892-5.168-.834l5.168.834z" fill="#613335" fill-rule="nonzero"/>
                    </g>
                    <path d="m380 368.4c.044-2.325 4.391-2.195 5.353 1.506-2.846 1.416-5.386.739-5.353-1.506z" fill="#ece6dc" fill-rule="nonzero" stroke="#34201f" stroke-width=".8px"/>
                    <path d="m399.9 369c-2.556-3.027-6.759-1.502-6.966.81-.269 1.415 5.024 2.942 6.966-.81z" fill="#ece6dc" fill-rule="nonzero" stroke="#34201f" stroke-width=".8px"/>
                    <g transform="translate(188.7 250.8)">
                        <path d="m206.1 87.19c-1.173.007-2.348.081-3.563.218-10.08 1.135-15.74 9.821-13.28 21.06 0 0 .231-1.174 1.688-2.063 2.948-1.797 3.827.657 7.812.907 6.11.382 8.399-1.831 11.41-1.688 2.646.126 3.77 1.06 4.198 2.356.338 1.021-.287 2.838.552 4.207 1.648 2.685 2.27 4.343 2.969 6.781.773 2.213.907 3.676-.125 5.781-.502 1.024-5.406 4.573-6.156 6.063-1.144 2.27-.67 4.842-3.219 5.125-2.288.253-2.231-4.437-3.062-2.969-1.649 2.909-.601 2.775-1.688 3.625-.43.336-1.118.543-1.844.562-1.155.031-2.571-.606-3.875-.75-1.209-.133-2.337.109-3.062.031-1.47-.156-2.649-3.143-4-4.5-.807-.81-2.094-3.906-2.094-3.906-.318 1.956.72 5.405.781 7.438-.234 1.446-1.343 3.832-1.218 5 .332 3.103.656 3.218 2.031 5.343.75 1.161 3.305 2.792 4.844 4.032 1.553 1.252 4.625 2.531 4.625 2.531s3.149-.276 5.218-1.063c1.458-.554 2.83-1.871 4.25-2.531 3.281-1.525 5.523-1.391 7.719-4.437 2.036-2.824 2.587-3.84 4.125-7.5.86-2.047.885-3.693.844-5.219-.843-1.639-1.086-3.31-.813-4.75.449-2.364 2.107-4.213 3.469-5.063 1.357 1.213 4.031.532 4.031.532 3.957-3.012 5.907-6.656 6.563-10.28 1.273-7.035-2.199-14.22-5.563-16.47-8.045-5.371-15.35-8.458-23.56-8.407v.001z" fill="#1a1a1a" fill-rule="nonzero" stroke="#000" stroke-width="1px"/>
                    </g>
                    <path d="m383 380.8c-3.362.282-5.477 2.966-5.366 4.234.196 2.26 1.867 1.632 3.109.329.491-.515 3.203.211 4.993-.676l1.406-.099c2.529 1.43 3.499 1.087 5.059 1.4 1.245.25 1.432.894 3.19 1.318 2.422.582 2.475-2.366.415-4.599-1.367-1.482-4.481-1.834-4.631-2.734-.606 1.159.134.689-.975.828-1.324.007-4.757.922-6.08.887-.568-.015-1.12-.888-1.12-.888z" fill="#1a1a1a" fill-rule="nonzero" stroke="#000" stroke-width="1px"/>
                    <g transform="translate(188.7 250.8)">
                        <path d="m190.8 109.1c-.888.956-.44 2.8-.44 2.8 3.412-1.595 5.611.354 7.969 3.125l-.563 1.594-.531 2.844-.281 3.844-3.125 4.437c.225 2.033 3.62 1.452 4.187.625.33-1.274 2.736-1.305 3.75-.687-.043-1.086-.577-1.787-1.25-2.125-.297-.066-1.529-.338-2.594-.063 1.698-2.669 1.8-8.355 2.063-10.66 0-.002.031.002.031 0 5.203-4.757 9.131-3.308 14.09-.844 0 0-.415-1.122-.719-1.625-1.045-1.726-1.508-2.339-3.179-3.47-1.211-.82-.848-.753-2.298-.954-1.331-.184-7.765 1.885-9.391 1.756-2.236-.178-4.301-2.597-6.214-1.868-.925.353-.836.542-1.509 1.267zm22.6 10.53c-.596 1.359-1.221 3.157-4.552 3.616-1.874.258-4.067-.138-6.074-2.188-1.877 4.182 2.644 6.46 6.279 6.625 5.342.242 7.919-7.027 4.347-8.053zm-22.57 1.656c-1.446 2.104-2.136 4.436.031 6.146.669.211 1.246.362 1.437-.313.661-1.941 2.905-3.714 3.188-5.344-2.025.234-2.941.802-4.656-.489z" fill="#613335" fill-rule="nonzero"/>
                    </g>
                    <g transform="matrix(2.433 0 0 2.231 -89.91 105.5)">
                        <path d="m194.5 118c0 .335-.248.606-.554.606-.307 0-.555-.271-.555-.606 0-.334.248-.605.555-.605.306 0 .554.271.554.605z" fill-rule="nonzero"/>
                    </g>
                    <g transform="matrix(2.794 0 0 2.561 -145.9 67.07)">
                        <path d="m194.5 118c0 .335-.248.606-.554.606-.307 0-.555-.271-.555-.606 0-.334.248-.605.555-.605.306 0 .554.271.554.605z" fill-rule="nonzero"/>
                    </g><g fill-rule="nonzero">
                    <path d="m386.6 367.1-1 .032c.124 2.602-.214 5.719-1.313 7.468-.205.328-.633.825-1.062 1.313s-.866.986-1.125 1.5c-.45.891-.463 2.011 0 2.906.556 1.076 1.739 1.397 2.75 1.531 1.948.259 3.486-.948 5-1.375.123-.034.387-.049.687-.062.301-.013.788.022 1-.375.623-1.164-.383-3.597-1.357-3.398 0 0 .41 1.312.514 1.492.103.179.183.409.187.437.053.35.004.713-.062.781-.035.036-.116.053-.344.063s-.548-.007-.906.094c-1.775.5-3.156 1.534-4.594 1.343-.897-.119-1.641-.366-1.969-1-.289-.558-.287-1.43 0-2 .162-.322.548-.802.969-1.281s.864-.973 1.156-1.437c1.323-2.106 1.598-5.318 1.469-8.032z" fill="#2d1919"/>
                    <path d="m379.1 364.1c-.756.077-1.032.317-1.554.781l.617 1.125c.331-.295 2.245-.815 3.681-.663 2.164.23 4.518 3.215 4.759 2.152l.148-.652c-1.089-1.632-2.892-2.548-4.594-2.937-.851-.195-2.3.117-3.057.194z"/>
                    <path d="m396.4 364.1c-2.434 0-4.983.683-6.657 2.594l.261.583c.575 1.288 2.735-1.273 6.396-1.583 3.352-.285 5.868.911 6.375.093-1.596-1.025-3.942-1.688-6.375-1.687z"/>
                </g></g>
            
        
    </g>
</svg>
