<svg xmlns="http://www.w3.org/2000/svg" width="279.257" height="196.753" viewBox="0 0 223.406 157.402" fill-rule="evenodd" xmlns:v="https://vecta.io/nano"><style><![CDATA[.B{fill:#2c2c2b}]]></style><path d="M33.199 110.723s-11.569-.746-15.178-.286-6.801 6.756-6.801 6.756l.918 10.842s1.785 2.335 13.514 2.208 28.321-3.52 36.255-3.538l9.248.045-1.301 2.344s1.693 3.072.999 6.347-1.676 6.905-1.676 6.905 23.19 17.88 50.613 14.146 40.566-13.085 40.432-14.958l-1.004-13.955-.741-1.864s9.492-3.088 31.624 1.402 27.509-1.893 27.509-1.893-.385-4.689.018-7.379-1.003-5.461-1.003-5.461l-4.913-1.474-6.188-2.488-14.216-.917s-2.232 1.244-2.083 2.57.904 2.638.904 2.638l-8.745-1.589c-3.056-.528-6.378-.107-6.378-.107s-27.656-1.248-33.276 4.167-5.938 13.179-5.938 13.179l1.367 4.422 7.115 3.051s-15.288 4.884-19.886 5.55-17.075 1.585-28.576-1.891-11.163-1.851-11.163-1.851l8.07-4.064.485-7.478s-6.449-8.774-6.997-10.587-1.55-1.559-1.55-1.559l-12.563-1.919s-17.203-.411-24.352 1.048-14.622 4.422-15.686 3.787-6.395-.103-6.395-.103l.058-.77 8.855-2.318-1.375-2.958z" fill="#fff"/><path d="M84.908 61.779h57.643v38.705c.662 17.218-8.619 29.444-28.706 40.993-15.189-9.34-26.92-20.078-27.684-33.076l-1.253-46.622z" fill="#3c85b1"/><path d="M186.114 111.99l-1.592-.294-1.577-.289-1.561-.283-1.54-.271-1.516-.257-1.49-.238-1.459-.215-1.426-.19-1.39-.159-1.351-.125-1.302-.087-1.039-.046-1.023-.031-1.014-.015h-1.004l-.993.013-.984.028-.975.041-.965.055-.955.068-.946.08-.938.091-.928.104-.919.115-.91.126-.902.137-.893.147-.885.156-.876.166-.868.175-.86.184-.852.191-.844.2-.837.207-.828.214-.822.221-.813.227-.807.233-.8.239-.792.244-.786.248-.779.253-.176.059-.23-.22-.532-.226-.168-.006-.488 1.424c.909-.458.306 1.003 1.251.5 8.11-2.729 17.237-4.823 28.105-4.26 13.286.687 35.378 8.448 46.907 2.874 0 4.094-1.544 5.296-.502 11.37-8.067 3.182-16.373 2.077-24.947.77-19.93-3.037-24.563-2.867-34.383-1.343l-.251-.119-.334-.141-.348-.133-.361-.126-.376-.119-.388-.114-.401-.108-.414-.103-.427-.099-.438-.095-.451-.091-.461-.087-.472-.085-.482-.08-.492-.079-.501-.075-.509-.073-.454-.062-.296-.067-.341-.082-.336-.086-.329-.087-.325-.091-.318-.093-.313-.097-.307-.098-.301-.102-.296-.105-.29-.107-.284-.11-.279-.112-.273-.115-.267-.118-.261-.12-.256-.123-.251-.126-.244-.128-.24-.13-.233-.133-.228-.135-.223-.139-.216-.139-.212-.143-.206-.145-.2-.148-.195-.149-.19-.153-.185-.154-.174-.153-.043-.081-.058-.104-.066-.114-.076-.121-.085-.127-.097-.132-.11-.137-.125-.14-.146-.141-.172-.143-.206-.138-.249-.125-.298-.096-.255-.034a34.83 34.83 0 0 1-2.923 4.979l-.035.198-.062.378-.06.373-.055.369-.052.365-.048.361-.045.357-.04.354-.037.348-.033.345-.029.341-.024.336-.021.332-.016.328-.012.324-.008.319-.004.315.002.311.006.307.01.302.015.298.021.294.025.289.031.286.035.28.041.276.047.273.118.601.38.441.173.185.18.178.187.174.193.167.199.162.204.157.21.153.216.148.22.144.225.141.23.137.233.133.238.13.243.127.247.125.25.122.254.119.257.117.261.115.264.112.267.111.269.109.274.107.274.106.278.104.279.102.282.102.283.1.087.03-.781.331-2.664.999-2.711.893-2.753.786-2.79.68-2.821.576-2.846.472-2.868.369-2.883.267-2.894.165-2.897.064-2.897-.036-2.892-.134-2.88-.233-2.863-.33-2.842-.427-2.814-.521-2.782-.616-2.743-.71-2.7-.802-2.109-.71.004-.002.278-.104.274-.105.274-.108.269-.109.267-.11.264-.113.261-.115.257-.117.254-.119.25-.121.247-.125.243-.127.238-.131.233-.133.23-.136.225-.141.22-.144.215-.149.211-.152.204-.157.199-.163.193-.167.187-.173.18-.179.173-.185.38-.44.118-.602.047-.273.041-.276.035-.28.031-.285.025-.29.021-.294.015-.297.01-.302.006-.307.002-.311-.004-.316-.008-.319-.012-.324-.016-.328-.021-.332-.024-.336-.029-.341-.033-.344-.037-.349-.04-.353-.045-.357-.048-.362-.052-.364-.055-.37-.06-.373-.036-.219c-.655-.797-1.271-1.605-1.843-2.424.046.179.092.375.137.592.85 4.16 1.145 7.641.627 10.128-1.326 1.597-3.993 2.706-6.958 3.707l-1.164-.441-2.539-1.073-2.473-1.162-2.404-1.248-2.329-1.335c-1.854-1.134-2.918-2.137-2.243-2.848.05-.052.071-.106.07-.161 1.139-1.198 4.364-1.9 8.321-2.428 3.887-.865 6.861-2.263 8.924-4.193 0 0 .45-1.061.995-1.111a29.43 29.43 0 0 1-.699-1.187l-.208.104-.206.138-.172.142-.146.142-.125.14-.11.136-.097.133-.085.126-.076.122-.066.113-.058.105-.043.081-.174.152-.185.155-.19.152-.195.15-.2.147-.206.145-.212.143-.216.14-.223.138-.228.136-.233.132-.24.131-.245.128-.25.125-.256.123-.261.12-.267.118-.273.115-.279.113-.284.11-.29.107-.296.104-.301.102-.307.099-.313.096-.318.093-.325.091-.329.088-.336.085-.341.082-.296.068-.454.062-.509.073-.501.075-.492.078-.482.081-.472.084-.462.087-.45.091-.438.095-.427.099-.414.103-.401.109-.388.113-.376.12-.18.062h-.001c-12.75-.995-24.012.748-36.327 3.246-8.501 1.724-16.911 2.416-24.979-.765v-12.281c10.763 6.534 33.025-2.003 46.567-3.011 10.853-.808 18.046.922 26.522 2.25l1.96 1.044-.752-1.923-.038-.021-.18-.095-.18-.096-.378-.201-1.01-.16-.78-.127-.775-.128-.772-.129-.769-.13-.768-.129-.766-.129-.767-.127-.767-.126-.769-.123-.771-.121-.776-.117-.779-.113-.786-.109-.791-.103-.798-.098-.806-.091-.815-.085-.824-.077-.835-.069-.846-.061-.858-.052-.871-.042-.884-.031-.899-.022-.915-.009-.931.002-.947.014-.966.028-.984.041-1.004.055-1.03.07-1.327.119-1.374.159-1.412.196-1.447.226-1.479.254-1.508.277-1.533.296-1.556.31-1.573.321-1.59.327-1.6.329-1.608.327-1.612.321-1.613.311-1.609.297-1.601.279-1.59.255-1.576.23-1.555.199-1.533.165-1.506.126-1.474.084-1.438.039-1.398-.011-1.354-.065-1.305-.12-1.252-.179-1.195-.241-1.135-.306-1.07-.372-1.004-.44-2.978-1.626v15.472l1.642.622.792.277.795.253.797.232.798.21.799.19.801.168.801.149.803.129.804.11.804.092.805.074.806.058.806.04.807.025.807.009.808-.005.807-.02.808-.034.808-.046.808-.059.808-.072.808-.082.808-.094.808-.103.808-.114.808-.122.807-.132.808-.139.807-.147.807-.154.803-.16 1.151-.232 1.141-.226 1.136-.221 1.131-.216 1.125-.209 1.121-.203 1.117-.197 1.114-.189 1.111-.182 1.108-.175 1.106-.166 1.104-.158 1.104-.149 1.102-.14 1.103-.13 1.102-.121 1.104-.11 1.105-.1 1.107-.089 1.108-.078 1.112-.067 1.114-.054 1.119-.042 1.122-.029 1.128-.017 1.132-.003 1.139.01 1.144.025 1.151.038 1.158.054.155.009-.042.033-.249.234c-.788.551-1.185 1.224-1.01 2.077.587 5.448-.29 7.575-1.569 11.43l-.096.363-.099.364-.101.365-.375 1.333 3.632 2.274 2.838 1.634 2.872 1.514 2.904 1.395 2.931 1.277 2.955 1.158 2.977 1.04 2.996.924 3.01.807 3.023.69 3.032.576 3.037.46 3.04.346 3.04.233 3.036.118 3.03.007 3.019-.106 3.007-.218 2.991-.329 2.973-.439 2.949-.549 2.925-.658 2.897-.768 2.865-.875 2.83-.984 2.792-1.09 2.752-1.197 2.708-1.304 2.66-1.409 2.611-1.513 2.557-1.618 3.277-2.257-.381-1.307-.107-.374-.106-.374-.102-.374-.102-.374-.098-.375-.097-.376-.094-.375-.092-.376-.089-.377-.086-.376-.083-.377-.081-.378-.078-.378-.075-.379-.071-.379-.069-.381-.065-.38-.062-.381-.058-.382-.055-.383-.051-.383-.048-.384-.043-.385-.04-.386-.036-.386-.032-.388-.028-.388-.024-.39-.019-.39-.014-.392a21.1 21.1 0 0 0-.178-1.761l.002-.02-.025-.381-.08-.372-.13-.35-.171-.323-.205-.29-.13-.148.902-.131.909-.125.887-.115.871-.102.859-.091.851-.079.85-.067.853-.053.862-.041.876-.026.895-.013.92.002.948.016.984.033 1.023.048 1.068.064 1.117.082 1.171.099 1.231.117 1.296.135 1.363.154 1.438.173 1.516.193 1.599.214 1.687.234 1.78.255 1.877.277 1.982.299.804.121.804.121.805.117.804.115.804.111.804.105.803.101.804.094.803.086.802.079.803.07.802.061.803.05.802.039.802.028.802.015.802.001.802-.013.802-.029.801-.044.802-.061.801-.079.8-.097.801-.117.8-.136.8-.158.799-.179.798-.202.797-.225.796-.249.795-.274 1.804-.68-.265-1.628-.072-.504-.059-.476-.047-.45-.035-.427-.024-.403-.014-.384-.005-.364.004-.347.011-.331.018-.317.024-.306.03-.297.034-.288.04-.282.043-.279.047-.277.049-.275.052-.278.054-.28.054-.286.054-.291.054-.298.052-.306.05-.316.046-.326.041-.337.036-.349.029-.363.022-.377.014-.39.031-2.469-2.972 1.294-1.08.378-1.142.317-1.201.256-1.256.198-1.307.143-1.355.09-1.397.041-1.437-.007-1.471-.049-1.503-.09-1.529-.126-1.552-.16-1.572-.189-1.587-.215-1.598-.237-1.607-.256-1.61-.27-1.611-.283-1.609-.289-1.601-.293zm-28.26 15.357l-2.902 2.24-2.351 1.545-2.425 1.434-2.492 1.325-2.237 1.064-.948-.081c-3.025-1.014-5.761-2.134-7.109-3.758-.518-2.487-.223-5.967.627-10.127s2.168-1.054 2.168-1.054c2.063 1.93 5.037 3.327 8.924 4.193 4.757.635 8.458 1.52 8.745 3.219zm.632 6.652l-.054-.358-.002-.021-.001-.006-.005-.029-.096-.725-.005-.038-.007-.057-.012-.096-.005-.046-.059-.527-.008-.071-.002-.025-.018-.175-.002-.017-.052-.577v-.007l-.015-.186-.001-.015-.029-.403-.004-.065-.006-.097-.003-.04-.001-.022a36.36 36.36 0 0 1-.052-1.197v-.008l-.004-.196-.955.716-.001.001-.947.681-.04.029c-.627.441-1.262.87-1.906 1.287l-.11.072-.922.583-.056.035-.972.59-.029.017-.98.57-.09.051-.916.509-.164.089-.937.498-.051.027-.976.496-.143.071-.947.459-.116.056-.975.451-.08.037-.009.004h0c-18.893 8.538-42.132 8.507-61.072 1.32h0l-.043-.016-1.039-.405-.305-.122h-.002l-.043-.018-.004-.002-.83-.341c-3.886-1.623-7.569-3.557-10.97-5.788l-.002-.002-.008-.005-.008-.005-.002-.002-.013-.008-.028-.018-.003-.002-.008-.005-.007-.005-.002-.001-.006-.004-.006-.004-.003-.001-.009-.007h-.001l-.03-.02-.011-.006-.002-.002-.006-.004-.006-.004-.006-.004-.002-.001-.01-.007-.044-.028.01.353v.003l.001.021.001.502v.011.052l-.002.122v.004l-.001.063-.008.283-.001.01-.003.084-.004.093v.001l-.004.095-.005.083-.03.483-.004.051-.001.006-.027.32-.002.03-.031.311-.009.084-.016.14v.002l-.019.168-.001.008-.002.013-.042.331-.002.013-.005.034-.101.682-.012.076-.016.094-.001.008a35.53 35.53 0 0 1-.265 1.409c-.376 1.807-.885 3.634-1.411 5.496 29.227 19.065 65.138 17.779 91.045-.812-.62-2.105-1.16-4.233-1.548-6.404l-.017-.094-.008-.045-.009-.049-.016-.095-.001-.006-.02-.114-.021-.128-.006-.034-.016-.094-.002-.018-.013-.076-.015-.095-.012-.076-.003-.018-.015-.095-.013-.084-.001-.01zm-8.802.37l-.413.219.413-.219zm-.938.493l-.62.315.62-.315z" class="B"/><path d="M117.748 125.389h.317c.349 0 .634.324.634.721v9.38c0 .396-.285.72-.634.72h-.317c-.349 0-.634-.324-.634-.72v-9.38c0-.397.285-.721.634-.721zm-5.41-62.103h.317c.348 0 .634.324.634.721v2.743c-.159.102-.345.121-.542-.061-.404-.373-.676-.59-1.043-.573v-2.109c0-.397.285-.721.634-.721zm.951 11.205v2.078c0 .396-.286.721-.634.721h-.317c-.349 0-.634-.325-.634-.721v-1.908l.913-.102c.175 0 .403-.017.672-.068zm7.406-9.836h.317l1.052 2.819.097 4.608-.412.416v8.551c0 .396-.286.721-.634.721h-.317c-.349 0-.634-.325-.634-.721V72.73l-.567-.699.012-4.898 1.086-2.478zm-3.946-.229h.317l1.052 2.819.096 4.609-.411.415v8.551c0 .397-.286.721-.634.721h-.317c-.349 0-.634-.324-.634-.721v-8.319l-.567-.699.011-4.898 1.087-2.478zm4.792 58.531h.317c.349 0 .634.325.634.721v9.379c0 .397-.285.721-.634.721h-.317c-.348 0-.634-.324-.634-.721v-9.379c0-.396.286-.721.634-.721z" fill="#ef7e20"/><path d="M82.472 59.991h62.362v40.755c.45 11.411-3.23 20.491-11.439 28.686-4.833 4.826-13.062 11.747-19.29 13.851-16.433-9.835-29.451-20.513-30.278-34.2l-1.355-49.092zm2.436 1.788h.875.025.85.051.825.076.799.101.775.126.749.152.724.176.699.202.673.227.649.252.623.278.598.303.572.328.548.353.522.379.497.403.472.429.446.454.422.479.396.505.371.53.345.555.321.58.295.606.269.631.245.656.219.682.194.706.169.732.144.757.118.782.094.807.068.833.042.858.018.875.008.867.034.842.058.817.084.792.109.766.135.741.159.716.185.691.209.666.235.64.261.615.285.59.311.565.336.539.361.515.386.489.412.463.437.439.462.413.488.388.512.363.538.338.563.312.589.287.613.262.639.236.665.211.689.186 1.616v38.705c.662 17.218-8.317 28.848-28.404 40.396l-.403-.248c-.139.082-.352-.823-.416.248-16.553-12.92-26.783-20.128-27.202-32.479l-1.218-46.622z" class="B"/><path d="M126.199 3.467l-2.433 5.538-2.979 5.971-5.127 9.956-1.644-3.038-1.505-1.727.038-5.264-.264-4.717-2.838 4.539.429-4.539-1.521-2.023-1.946 7.498-4.732-6.08-3.96-4.388.694 4.162 4.071 9.637-1.479-1.772-3.152-3.248-1.771-.415.345 2.454 4.811 7.301 1.246 5.566-3.413-4.456s-1.452-1.621-2.23-1.983-2.001-.716-2.001-.716l-2.897.37-.069.518s3.898 2.074 5.174 4.113 1.53 3.739 1.53 3.739-4.393-1.977-5.6-2.184-2.572-.075-2.572-.075l-.918.935s-2.245-.241-3.212-.031-1.28.969-1.28.969 6.467 1.679 8.393 4.246 1.629 2.419 1.629 2.419l-.543.031-3.403-.362c-.889.007-2.632.188-2.632.188l-.581.588s5.777 1.777 7.406 2.962 3.851 4.789 3.851 4.789-.669 1.073-1.07.917-1.679-1.198-2.428-.86-2.8 1.754-2.8 1.754 3.928.114 6.002 1.349 3.752 3.801 3.752 3.801l10.23.048 12.789.791s5.481-4.202 7.795-5.054 4.232-1.04 4.232-1.04-3.317-.723-4.219-.569-3.383.223-3.383.223.081-2.116 3.37-2.39 5.191-1.676 5.191-1.676l-3.466-.318-4.709.045 1.65-3.693 2.877-3.903 3.092-2.828-4.539 2.232-3.349 2.389 1.476-2.118.696-1.126 2.011-3.052-3.487 1.643c-.282.258-.563.235-.563.235l.445-1.409 4.948-4.143-2.201.42-1.726.245-4.171 2.616-.843-.787 4.031-7.078-2.113.281s-1.357.956-1.531 1.245-1.418 1.476-1.418 1.476l-.184-1.197 2.507-5.672c.678-.975 5.337-6.803 5.337-6.803l.787-1.13s-1.231.347-2.965 2.136-3.433 3.154-3.433 3.154l-3.7 3.993-.698-3.796 3.888-11.588-.166-1.066-.859.832z" fill="#8fb09c"/><path d="M112.549 14.903l.311 5.516s-.845-.712-1.067-.356-1.869 4.982-2.047 5.649-2.19 7.646-2.049 9.755.632 2.531.632 2.531l-2.32 3.023s-.351-.492-.281-.984.281-3.375 0-3.796-1.195.492-1.195.492l.071-3.023s1.265 2.109 1.687 1.335-.071-5.834-1.195-8.084l-3.234-6.537-1.195-2.531s.703-.914.281-1.758-3.169-5.934-4.19-9.22S95.79.558 95.79.558l2.15 5.171-.215.97s4.678 8.08 6.237 12.282 2.473 9.535 2.957 9.643 1.505-2.478 1.182-4.364-2.096-4.794-2.096-4.794l-.538-3.178-.914-1.778.807.162.914 1.454s.752-2.478.752-3.394.299-10.071.299-10.071l3.128 6.673v4.17l-.261 7.819s1.355-2.554 1.616-4.118.741-2.302.741-2.302zm16.225 44.315s.34-3.595-.181-4.481-1.564-1.564-1.564-1.564 2.346-1.563 3.128-2.762 3.075-2.555 4.639-2.763 3.284-.365 3.18-.73-1.929-.782-3.128-.782-2.345-.313-2.71.469-.939 2.033-1.72 2.398-1.408.834-1.669.834-.521-1.147.261-1.668.834-1.72 1.199-2.294 1.408-1.094 1.929-1.355 3.336-.521 4.535-.886 2.502-.573 2.398-1.095-1.564-.312-1.877-.052-1.512.521-1.929.521-5.629 1.564-6.672 3.18l-2.502 3.858c-.313.573-.834 1.147-1.043 1.147s.782-2.242 1.147-2.868.991-2.971 1.877-3.753 3.232-2.241 4.222-2.345l2.815-.313s-4.483-.209-4.431-.522 1.773-3.596 4.066-5.786 3.545-4.222 3.545-4.222-4.796 2.658-5.213 3.336-.208 1.303-.208 1.303l-2.45 4.275c-.678 1.251-2.503 3.232-2.763 3.232s-1.043-1.46-1.043-2.085.469-4.014.574-5.161 0-2.763.677-3.545 1.356-1.251 1.877-1.199 1.355-.834 1.772-1.303 4.754-3.104 5.634-3.713 2.639-2.097 2.639-2.097-1.827 1.421-4.128 1.759-2.445.257-2.201.42.609.895 0 .956-1.178 0-.934-.325.528-.468.182-.57-2.355.61-3.005 1.038-1.747.936-2.153.915 0-.997.243-1.383 2.081-4.049 4.404-5.874 4.936-3.442 5.06-3.899-3.11 1.618-4.562 2.116-4.272 2.281-4.397 2.654 1.701-.332 1.162.415-1.784 2.613-2.572 4.272-2.24 4.065-2.779 3.982-.995-1.369-.29-2.116 2.986-5.018 2.986-5.018-.871.29-.746-.539 1.037-3.65 1.783-4.646l7.051-9.291c.042-.166-1.244.871-1.617 1.286s-6.451 7.708-7.233 9.858-2.02 6.321-2.867 6.451-1.629 1.499-1.629 2.671.115 2.049.115 2.049.539.249.29.664.498 3.027-.248 4.147-1.286.208-1.328-.58-.497-4.024-.456-5.309.415-3.402.124-3.941-.587-1.502-.389-2.099.318-1.672.358-2.708-.04-3.902.437-4.499c.085-.106.124-.272.132-.477l.561-.05.158-1.793-1.02.026-.308-1.369c0-.557-.914-1.115-.914-1.115s.477 4.619.318 5.535-.835 7.166-1.47 7.565-2.106 0-2.106 0-.438-2.469-1.034-3.186-1.47-.756-1.152 0 1.073 2.111 1.232 3.106 1.877 5.117 1.792 6.565-.298 1.661-.638 1.533-.978-.553-.595.128 1.063.98 1.615 2.471.851 2.427.553 2.811-.723.426-.978.213.085-1.023-.637-1.747-2.764-.042-1.786.384 1.233.639 1.573.979.595 2.386.595 2.386-1.658-.938-1.955-.725 0 1.534-.383 1.704-1.403-.042-1.403-.042-.425-6.176-.127-6.73.425-.895.255-1.065-1.233.681-1.573.724-1.318.426-1.233.724.468.724.17 1.235-1.785 2.343-1.955 2.556-1.913 3.62-1.956 3.876-1.176.504-1.808-.287-.586-2.94-.79-4.116-.849-4.998-3.175-6.83-8.586-4.107-9.638-4.107-1.884.999-1.884.999l2.216 1.11s.942-.832 1.496-.388 3.822 5.05 3.822 5.05-.222-.388.276-.499 1.385.444 1.718 1.165 1.831 5.034 2.203 4.811.484-.67.93-.112.708 1.154.708 1.898.335 1.563.335 1.563.446 2.829-.261 2.978-1.451-1.824-1.935-2.568-2.643-4.689-2.829-5.434-3.438-5.859-5.481-6.775-6.344-1.939-6.344-1.939l.538-.916s-3.656.755-4.086 1.132 1.344.808 1.344.808 6.129.161 8.71 2.909 3.655 5.225 3.064 5.225-5.968-1.886-5.968-1.886 3.172.324 2.635-.592-7.097.539-7.097.539 4.086.43 7.258 1.993 5.753 4.579 6.129 5.225l.376.646s-1.821-.303-3.023-.112c.011.003 3.515 1.075 4.713 2.033s2.448 2.688 2.208 3.12-1.354-1.647-2.4-2.112-3.503-1.535-4.223-1.535c-.292 0-1.042-.111-1.831-.242-.067.139-.067.195-.067.195s-1.559.323-2.366.7-1.129 1.132-1.129 1.132 2.043-.485 4.032-.593 4.133.273 5.445 2.315 1.058 2.844 1.058 2.844-2.224 1.313-2.516 2.152-.661 2.667-.661 2.667l-.602 4.016 31.434-.606.063-1.863zm5.54-29.358s.391.739.131 1.044-2.305 2.478-2.305 2.478c-.435.044-.826 1.479-.826 1.479s.348.913.043 1.478-.391 1.652-.826 2.044-1.304.521-1.304.521-.957.261-.957-.869-.304-2.261-.043-2.827.695-1.304 1.043-1.391.739.87.739.87l2.131-1.305-.217-1.174s1.608-1.913 2-2.13l.391-.218zm-2.756-18.363l-5.822 5.551c-.674.761-1.097 1.494-1.349.902s-.029-2.761.562-5.269 2.653-7.297 2.696-10.236-.17-2.408-.17-2.408l-1.276 3.43.085.724.511-.298-.851 3.237c-.127.341-.17-1.15-.467-1.278s-.595.596-.595.852.935.937.935.937-2.976 7.071-2.976 9.115-.17 3.919-.17 3.919l-.68.894s-.935-.085-.893 1.406.468 1.491 1.105 1.491.553-1.023.766-1.96.765-2.172 1.02-2.683 2.295-2.385 2.295-2.385l5.274-5.941zm-7.782-2.961l-1.998 4.089c-.255.425.043.894.043.894l.893-.128s.977-3.535 1.02-3.918.042-.937.042-.937zm6.684 19.537l-2.901 1.394s.079.995-.557 1.035-1.39-.239-1.39.557-.239 1.633.198 1.434 3.179-2.827 3.179-2.827l1.789-1.155-.318-.438zm-7.272 8.76s-1.312 3.623-1.471 3.504-.874-2.111-1.43-2.23-.874.637-.676.876 1.232 3.344 1.232 3.344l-.04 6.849s-.039 1.274.676.915.795-1.99.755-2.468-.238-4.539 0-5.216.834-2.389.874-3.066.08-2.508.08-2.508zm.834 5.017s-.477.438-.516 1.513.039 5.136-.159 5.255-.239.837-.239 1.354-.198 1.513.239 1.274 1.231-1.553 1.271-2.03.437-1.593.557-2.589.317-2.627.119-2.906-.994-.319-.795-.757.715-.955.119-1.035l-.596-.079zm1.629-5.455s-.437.597-.635 1.234 0 2.986 0 2.986l.318.239s.039 1.274.357 1.553.477-.119.477-.119l.04-4.221-.437-.358-.12-1.314zm-10.888 6.609s-1.867 2.23-1.47 2.787 1.47.797 1.47.797 2.027 2.389 2.265 2.07.08-.716-.119-.836-1.716-1.976-1.716-1.976-1.185-.731-.867-1.13 1.908 0 1.788-.358-.397-1.195-.874-1.274l-.477-.08zm2.947 2.921s-.831-.785-1.164-.785-.403.238-.261.5 2.54 2.759 2.683 2.307.095-.643-.143-.857-.261-.642-.379-.808-.736-.357-.736-.357zm-3.158 3.092s-.83-.809-1.804-.809-1.424.31-1.519.476-1.116 1.404-1.116 1.404l.024.951 5.412-.048-.095-1.165-.902-.809zm-5.184-4.985l-1.625 1.628v1.323l.372.271-.846 1.018-.304-.17-1.118 1.323 1.253.441.474-.644 1.692-.814 1.083-.204.474-.441-.474-.576-.676.305-.542-.712 1.049-1.154.508-.949-.745-.78-.575.135zm2.132-6.376s-2.437 2.849-2.471 3.324.339 1.153.542 1.289.677.034.677.034l1.015-.747-.914-.814.542-1.662.576.611.372-.271.034-1.391-.373-.373zm-5.121 7.352s.9-.584.662-.929-.715-.053-.927.319-1.457 1.327-2.014 2.468-.582 2.256-.397 2.734.874-.026.901-.451.477-2.07.795-2.548.98-1.593.98-1.593zm1.976-36.845l1.348 3.478-.608 8.131c0 1.044-.572 2.557-.707 2.625s-.609-1.759-.609-1.759l.576-12.475zM96.06 22.076l-.51.875s-2.516-.984-2.99-.875-.183.474-.183.474 4.85 2.662 5.908 4.631 1.458 2.844 1.458 2.844l-1.167.438s-1.276-3.756-3.245-5.214-6.892-3.683-6.892-3.683l4.011-.11c1.896-.036 3.61.62 3.61.62zm4.353-13.869l-.322 1.078 1.29 2.424.538-.269 1.344 1.023-.323-1.508-2.527-2.748zm-2.419 5.872s-3.441-2.639-5.806-3.017-2.42-.161-2.42-.161 4.14 2.047 6.667 5.871 4.301 6.95 4.57 8.242-.269 1.509-.269 1.509l-1.667-2.101-.322 1.4.86 1.401 1.021.054 1.183 2.586-.752 1.454.914.916 1.075-.216 1.398.755s-2.527-10.235-3.764-12.283-3.656-5.009-3.656-5.009l.968-1.401zm16.245 13.522l-2.27 1.95-.472-.295-.059-1.832-.501.473s-.825 2.156-.619 2.156.619.65.619.65v.857l.501.413 1.268-1.329.973.089 1.091-3.013-.531-.119zm-1.959-6.489l-.432 1.728.767.96.192-2.496-.527-.192zm-2.946 15.085s-.338.984-.034.95.305-.475.305-.475l-.271-.475z" class="B"/><path d="M51.866 67.896s-1.333.148-3.95 1.135-11.394 1.272-13.27 1.173-6.603-.118-13.499 1.045-10.385 2.908-13.791 2.243-4.818-3.988-3.572-5.899 3.157-3.323 5.649-4.237 3.597-.831 5.563-1.142 3.828-.518 6.139-.587 4.656-.104 6.932-.553 3.966-1.175 4.484-1.486 2-1.935 2.517-2.143 1.451-.871 1.932-2.626-.311-2.35-.552-2.592-1-.242-1-.242-.759-1.002-.966-1.002-.517.484-.655.933-.241.657-.414 1.21-.173 1.244-.173 1.244-.758-.381-.758-.795-.414-.795-.483.034.31 1.521.448 2.177.345 2.212-.517 2.938-2.552 1.175-3.553 1.209-7.38.519-8.691.484-7.449-.138-11.071 1.348-5.898 2.73-6.967 4.596-.827 2.903-.827 2.903-.221 4.113 3.378 5.6a21.42 21.42 0 0 0 8.015 1.584c1.152 0 .96-.384.96-.384s-1.248-.576-.336-.912l2.688-.96c.624-.24.24.528.192 1.104s-.096 1.776-.24 2.64-1.008 5.087-.336 7.439 1.51 4.948 1.099 6.392-.695 2.606-1.339 3.508-1.236 1.909-.67 2.064 1.751-1.419 1.88-1.135-.129 1.135-.412 1.625-1.57 2.064-2.214 2.528-1.107.826-1.262 1.574-.334 1.315.026 1.934.695 1.264.695 2.064-.566 1.367-.566 1.367-.412-1.186-.773-1.625-1.21-1.651-1.184-2.528.052-1.419-.154-1.548-1.159.49-.85 1.264 1.313 2.709 1.674 3.689.756 2.509.926 4 .765 2.47 1.998 3.748 1.063 2.13 2.296 2.428 1.658 1.107 2.04.979.34-1.235 1.233-1.448 2.295-.639 1.828-1.618-.723.127-1.998-1.661-1.828-3.621-2.338-5.282-.553-3.833-.128-4.515 2.593-2.385 2.848-2.598 2.806-2.045 3.019-2.513.977-1.747 1.615-1.874 3.103-1.193 3.571-1.661 1.488-1.789 1.913-2.982.68-2.343 1.105-3.535.978-2.173 1.53-2.428.553-.128.553.298-.723.979-.723 1.789.085 1.022.68.979 1.021-.766.978-1.661.213-1.789.85-1.576.765.597.893.98.85 1.32.085 1.363-1.233.341-1.318 1.022.34 1.704.808 1.704-.085-.383.383-.383 1.445.298 1.827.724.766.766.766.341-.255-.597.425-.554 1.275.426 1.658.383 1.147.597 1.147.937.681.937.681.937.085 1.193 1.02 1.278 2.04-.852 1.743-1.533-.511-.937-.255-1.235.51-.427.297-.639-.595-.128-.85-.895-.298-1.107.17-1.32.978.298 1.02.639.298.553.298.553.425-.468.425-.937.68-.213.808-.042.34.681.51 1.107.425.682.425 1.065.17.79.565.79.445-.668.84-.396.494.446.79.396.173.05.198.668-.05 1.312.321 1.288.42-.496.963-.496.321-.519.593-.742.173-.52.519-.371.049.321.518.371.569-.025.791-.396.445-.619.716-.396-.024.396.272.668.618-.346.618-.346.988-.594.988-.966 0-.569.321-.693.543-.148.568.322-.099 1.658.346 1.485.543-.42.543-.841.173-1.263 0-1.56-.469-.594-.864-.396-.272.223-.618.223-.79.223-1.013.074.148-.297-.321-.297-.593.001-.593-.346.025-1.114.247-1.139.223-.247.223-.247.12-.503-.124-.808-.345-.387-.345-.651.061-1.181.061-1.181.65-.409.371-.968-.279-.621-.526-.807-.527-.776-.31-.993.433-.466.433-.466-.126-1.485.115-2.068.281-.504.281-.806.16-.201.562-.623.643-.926.964-.926.563.121.623.302-.221-.021-.321.503.08.925-.101 1.147-.402.262-.361.503-.362.262-.442.604-.02.825.301.664.141-.402.442-.402.502-.121.462.483-.562.442-.522.825.201.503.341.503.422.161.06.342-.301.382-.14.463.402-.141.622-.403.442-.422.603-.322.201.443.201.805-.261 3.019.04 3.201.402.241.402.503.02.362.221.483.462.362.562.161-.301-1.228.02-1.288.884 0 .964 0 1.487 1.127 1.507 1.489.201.563.341.724.02.604.201.685.302.121.302.523 0 1.087.16 1.087.221.201.221.523-.08 1.308.161 1.349.341.141.321.342-.06.684.141.926-.06.261.241.624.502.804.382 1.247-.041.765-.342.383-.1-.665-.462-.846-1.768-1.63-1.788-1.952-.341-.382-.582-.765-.04-.946-.241-1.247-.442-.483-.462-.061-.201 1.49.02 1.812.362 1.187.362 1.59-.196.506.139.75.274.885.457 1.282.61 1.313.823 2.015.457 1.709.518 2.381a46.13 46.13 0 0 0 .213 1.862c.061.458.101 3.356.437 3.972s1.159 2.671 1.781 3.275.758.721 1.361.721.778-.175.836-.545.078-.604.35-.585.389.429.428.624.164.822.888 1.401.637 1.158 1.071.579.637-1.1.753-1.332.521-.695.81-.724.782-.26.492-.463.029.145-.955-.405-2.547-1.853-2.634-2.981-.116-3.677-.116-3.677.782-.55.405-1.128-.376-.666-.376-.666-.011-1.999-.31-2.365-.599-.966-.299-1.199.565-.433.265-.599-.55-.23-.487-.732.774-.586.46-.984-.314-.649-.105-.67.168-.439.168-.439.146-5.713.021-5.838-.461-.147-.482-.419-.084-.823.17-1.046.242-.235.281-.484-.078-.902.091-1.105.294-.19.307-.465-.117-1.046.039-1.229.503-.406.457-.936-.437-.497-.502-.83.098-.347-.17-.753-.222-.601-.117-.935.176-.229-.262-.504-.692-.34-.979-.59-.308-.721-.396-.934-.345-.111-.455-.456.382-.596-.132-.721-.639.014-.984.323-.705.243-.91.125-.162-.36-.162-.463-.286-.36-.374-.463.081-.214.073-.545-.308-.537-.55-.22-.844 1.051-1.305 1.129-.531-.039-.773.344-.203.517-.578.407-.531-.258-.531-.258-.206-.406-.135-.94.285-.311.356-.578.053-1.156.053-1.156-.006-.276-.28-.459-.039-.588-.3-.654-.274.105-.679.353-1.018.183-1.084-.222.183-1.897-.091-2.276-.17-.733-.353-.89-.326-.144-.326-.327a.94.94 0 0 0-.379-.706c-.261-.17-.326-.079-.574-.144s-.097-.22-.404-.352-.819-.234-.995.088-.292.22-.424.249-.687-.014-.731.161-.249.337-.483.352-1.447-.015-1.608-.161-.176-.659.044-.85.292-.19.248-.454-.466-.422-.466-.422zm-5.923 22.282s.141.487-.228.625-.53.53-.461.692.669.599.784.899.139.438.346.438.6-.208.6.115.276.899.553.83.23-.83.369-.991.415-.392.323-.623-.485 0-.761-.161-.853-.761-.853-1.015.046-.322-.208-.622-.464-.187-.464-.187z" fill="#a80"/><path d="M158.062 41.257s-4.819-1.911-8.474.499-4.509 6.49-4.806 7.527-.247 4.147-.247 4.147l.445.494s0 2.814.197 3.011.247.445.247.445l-.684.629s-4.892-5.198-8.897-4.175-5.86 4.229-5.86 4.229l-1.197.798-.075 2.22s1.709-.08 2.583.398 3.815 1.393 4.769 1.035 1.152-1.712 2.066-1.234 2.186 2.309 2.186 2.747.259 11.193.259 11.193l-3.925 4.148s.212.608.664.627 1.489-.076 1.564-.227 1.847 0 1.847 0l5.226-3.309c.377-.162.753-.377.753-.377s2.527 1.4 3.494 1.4 1.452.27 1.452.27-2.957 3.016-4.409 3.986-2.795 1.778-1.451 1.778 5.591.107 7.903-1.239 4.892-3.448 4.892-3.448.406-.269.473.485.065 4.13.388 5.782.788 4.13.752 5.566.153 2.224-.201 3.09-.539 1.903-.44 2.556.255.852.241 1.249-.226.753-.226.753.085.709.085 1.348.127 1.179.396 1.449.099.88.057 1.533-.028 1.108-.028 1.108-.734 2.055-.901 2.333-.504 1.256-.504 1.256-1.191 1.138-1.579 1.776-.526 1.36-.554 1.831 1.662 1.36 2.382 1.36 1.385-.305 1.966.111 1.219.139 1.8.611 1.552.527 1.552.527 2.404.61 4.072.662 5.16-.417 5.16-.417 3.337-1.094 3.649-2.658-.73-8.653-.365-9.54 2.503-10.634 3.493-11.624 2.189-3.806 3.336-4.014 4.431.938 5.369.886 1.929.782 2.138 2.242 1.251 4.378 2.137 5.317 1.042 1.616.99 1.928-.208 7.82-.208 7.82-.448.549-1.164 1.195-.897 1.221-1.04 1.509-.502.646-.502.646-2.142-.066-2.142 1.237.208 2.658.208 2.658l-.26 1.043s.469 1.564 1.668 1.825 6.724 1.251 8.757 1.407 9.175.104 10.53-.104 5.578-1.147 6.673-1.773 1.459-1.668 1.355-2.137-.99-.156-.052-1.095 2.346-1.042 2.241-2.919-1.616-8.236-1.616-8.236-1.094-5.995-.938-9.748-.089-10.505-.089-10.505 2.311 1.196 3.48.245 1.857-2.067 2.04-3.454-.818-6.029-.127-6.967.247-2.814 0-3.851-1.158-3.528-2.16-4.746-1.204-1.11-1.204-1.11-.122 1.11-.393 1.177-.798.122-.757.853.108 1.516-.203 1.786-.528.636-.528.839.06 1.19.189 1.5-.078.464-.206.645.387 1.287.037 1.693-.941-.077-.952-.57-.022-.735-.198-.922-.197-.844-.197-1.009.461-3.657-2.297-7.953-5.252-6.427-5.252-6.427-4.985-5.394-9.97-6.726-8.674-1.366-8.807-1.366-8.226.3-8.78.05-5.179-1.526-8.502-1.887-4.431-.666-4.431-.666-1.185.075-4.572-.033-4.462 0-4.785.377-1.006.621-1.006.621zm51.583 69.989s-.471.118-.53 1.06-.058 1.767-.058 1.767 2.238.177 3.357.059 3.828-1.295 3.828-1.943-5.595-.413-5.713-.648-.884-.295-.884-.295zm-4.121-2.824s-4.689 2.906-8.425 1.752-6.358-2.071-6.159-1.314 2.583 1.672 4.729 2.15 5.642 1.154 7.51.876 4.411-.797 4.411-.797l-1.788-1.752-.278-.915zm2.178 4.473s-6.95.825-11.131-.176-5.477-2.12-5.713-1.473-.648 1.944 1.472 2.415 12.781 1.237 14.017 1.119 1.591-.883 1.591-.883l-.236-1.002zM148.755 54.1s.173 1.274.347 1.534.058 3.271-.203 3.879-.231 1.216-.434 1.534-.231 1.042-.231 1.042-1.068 1.891-1.182-.083.038-2.013.342-2.468.417-1.633.417-2.051.342-1.291.38-1.67-.184-2.005.19-1.861l.374.144zm.447-2.794s-.543-.157-.606.502-.146 1.581.251 1.486.104-.879.282-.994.292-.314.292-.638-.219-.356-.219-.356zm18.339 7.954s-.265.435 0 .511.322-.379.303-.492-.303-.019-.303-.019zm15.163-9.442s-2.164-.57-4.784.417-2.582 1.102-2.657 2.43-1.329 2.544-1.481 3.152-.19 1.367.379 1.67 2.734.874 3.418 2.013.303 1.253-.076 1.139-.722-.874-2.734-.836-3.114.38-3.227 1.709 1.064 2.039 1.032 4.097-.211 3.242-.728 3.826-.793.227-.793-.243.388-2.383-.048-3.566-1.747-.892-1.747-.892l-.809 1.702c-.453.956-1.469 5.433-.933 6.41s.877.879 1.292.756 1.218-.61 1.413.074.878 2.022 2.62 1.151 2.115-1.659 2.115-1.659.581.829 1.037.705 1.12-1.867 1.12-1.867.29 1.245 1.12.996 1.99-1.244 2.032-1.784.415-1.078.829-.871 1.328.332 1.867-.58-.042-1.452.29-2.074.996.622 1.867.249 2.281-1.784 1.949-3.318-.936-3.83-1.515-5.814-1.493-3.022-2.224-3.968.426-.977 1.036-.611 1.95 2.808 2.254 4.182 1.798 5.311 2.194 3.297.152-2.748.761-2.839 1.067-.824 1.006-1.954-1.327-3.281-.801-3.837 1.111-.469.878-1.422-.742-3.669-3.639-4.955-6.259-2.754-8.477-3.323-5.801-.738-9.251-1.082-7.355-1.425-10.605 0-5.063 2.66-4.95 3.875-.189 2.126-1.215 3.303-2.316 4.139-2.24 4.822 1.026.797 1.063.38-.075-1.329.38-2.126.76-.646 1.025.683.176 1.057-.144 1.538-.822 1.602-.205 1.602 2.947-.297 4.273.321 1.987 1.373 1.805 1.877-.32-.229-1.714-.664-3.542-.961-4.661-.343-1.782 1.534-1.554 2.655.663.664.777.344.365-.527.914-.618 2.445-.023 3.199.435 1.119.778.891 1.236-.8-.504-2.057-.641-3.016 0-3.381 1.03-.447 1.522-.371 1.964.617.316 1.563.493 2.255.346 2.59 1.174.175.827.175.827-.366-.398-1.178-.525-1.369-.43-1.544.032.303.445.478.891.239.513.239.513-.241.022-.658-.022-.723 0-.789.11.395.767-.022.921-.79-.636-1.382-.79-.614 0-.657.373-.11.439-.307.417-.066-1.031-.439-1.623-3.833-7.394-6.5-9.464-6.701-3.123-8.947-1.158-2.14 3.649-2.14 3.649 2.14.245 2.877.807 1.684.701 1.965.315.491-.808.238-1.077-.663-.584-.41-.947.6-1.184 1.137-1.105.616.473.616.473.236-.426.426-.442.852.316.884.616.158.568.158.568.931-.126 1.137.127.158.537.158.537-.979 1.073-.095 1.247 1.5-.032 1.879.284l.379.316s-1.216.631-.963 1.105a2.34 2.34 0 0 0 1.31 1.011c.442.11.126.347.553.426s.457.095.457.095.106.625-.097.828-.622.323-.292.57.36.188.36.406.06.352.194.36.6.007.6.007.276.536.539.718.252.303.141.364-.303.122-.313.263-.063.437.309.903.48.388.744.404.557-.047.542.388l-.031 1.039s-.108.15.896.799 1.528.46 1.507 1.046-.377.921.23 1.109 1.235.377 1.486.105.481-.105.544.125-.544.21-.084.67.524.649.733.46.356-.125 1.004-.481-.042-.439.67-.335.272.481.774.544 1.426-.797 1.882-1.285 1.336-1.401 2.509-1.825 2.541.945 3.062.521 1.857-4.756 1.955-6.451.033-2.736.424-2.964.879.977.879 1.107.684-.553.684.522-.391 3.681.098 3.518 1.694-2.117 1.694-3.127.163-1.401-.195-1.401-1.694.097-1.369-.294 1.13-.91 1.431-1.315.271-1.037.088-1.191-.25-.096-.734.456-.052.779-.764.632-1.314-.22-1.475.037-.764.839-.859.846-.331-.412-.477-.493-.044-.89-.14-.875-.462-.074-.374-.361.389-.588.389-.588-.061-1.899.014-2.049.3-.225.3-.225-.21-.466.09-.495.434.06.434.06l1.325-1.622s1.266-.181 1.346.04.321.383.522.363.623.08.663.402.02.544.241.544.643.08.643.08l.482-.563s-.201-1.168.02-1.45.663.302.663.403-.141.302.14.483.322 1.047.262 1.449-.904 1.027-.703 1.932.763.544.964.262.884-1.188.864-2.395.2-2.274.401-2.697 1.833-1.836 1.86-3.549.217-2.774-.952-3.508-2.121-2.366-1.659-2.665 1.55.517 2.42 1.441.789 2.04 1.686 2.094 2.284-.381 3.318-.435 1.767-.163 1.767-.163 2.04-.191 2.665-.136 1.06.544.68.571-1.387.326-.898.516 1.877.435 2.72.707 2.882 1.795 2.828 2.502-1.632-.217-1.904-.408-1.577-1.006-2.284-1.196-1.085-.381-1.085-.381zm35.874 21.005s1.636.629 1.793 1.635 0 3.145-.377 3.145-1.29-.692-1.29-1.289.126-.849-.157-1.353.031-2.138.031-2.138zm-13.432 22.951s-1.152 1.919-1.392 3.839.192 4.607.288 5.135.672 4.272 1.584 4.272 2.879-.816 2.735-1.92-.336-1.632-.576-2.928.096-4.223-.528-5.567-.863-2.064-1.487-2.448l-.624-.383z" class="B"/><path d="M186.776 44.826s2.04-.98 6.972-.213 7.481 1.064 11.392 4.94 7.482 7.241 8.502 10.479 1.02 4.088 1.233 5.707.51 4.217-.085 4.6-1.275.043-1.275.043.297-1.15-.341-.81.085 2.215.085 2.215 2.211 5.964 2.509 9.967-.426 6.73-.426 6.73.638 6.261 1.616 10.18 1.615 7.113 1.063 8.476-1.106 2.002-1.786 1.619-.893.681-1.275.553-.68-1.916-1.658-2.342-2.211.298-2.466.426-1.275.511-1.445-.852.34-1.406.34-1.406l.085-2.641s.34-.894 1.36-.894 1.871 0 1.743-.426-2.125-.469-2.338-.17-1.487.213-1.275-.298 1.063-.767 1.7-.767 2.211.042 1.913-.469-.595-.426-1.105-.468-2.635.128-2.635-.298.212-1.449 0-1.576-.17-.767.637-1.321 1.275-.383 2.126 0 2.508 1.576 2.423.81-1.148-1.065-1.616-1.363-1.232-.852-2.04-.852-1.785 1.192-2.126.937-1.743-2.471-1.955-3.28-.307-1.861-1.205-2.917-1.457-1.427-1.457-1.024.992 1.397.31 1.552-1.177-.434-1.177-.869-2.603-2.67-2.974-2.856-.961-.931-1.89-1.273-1.952-.652-2.82-.652-.929.187-.96.621.062.466-.774.466-3.625-.218-3.811.124-1.487.28-2.045.217-4.431-.683-4.431-1.459-.186-2.017.465-2.297 4.368.776 5.452 1.149 3.532.62 5.143.248 2.324-.404 3.408.031 3.764 1.285 4.344 1.7 1.493.788.913-.083-2.489-2.779-4.936-3.028-3.65.415-4.894.207-2.779 0-4.148-.954-2.572-1.119-3.94-1.534-1.659-.539-1.245-1.825 1.991-2.447 3.318-2.738 3.639-2.291 4.858-2.576 3.29-1.14 3.29-1.14-.731-.366-2.031-.04-5.93 2.197-6.012 2.442-.731.732-1.421.732-.163-.732.324-1.099.894-2.035.854-2.32-.366.326-.975.937-.813 1.505-1.463 1.505-.406-.773-.487-1.058-.731.367-.934.774-1.016 2.808-1.097 4.151-.366 2.89-.366 4.07-.525 3.995-1.975 5.76-2.143 3.025-2.143 2.458-.126-6.492-.126-6.492-.631.441-.883 1.513.126 3.907.126 5.105-.252 5.042-.252 6.051-.378 4.538-.945 5.799-.378 3.094-.378 3.094.609 4.829.332 5.717-1.883 1.72-2.326 1.11-.041-1.172-.213-1.275-.788.32-.697.538.069.607-.171.916-.4.492-.686.24-.388-.504-.559-.836-.48-1.247-.903-1.442-.8-.252-.663-.526.926-.184.846-.745-.937-.721-1.394-.48.08.675.069.881-.252.527-.457.607-.834.171-.949.481-.811.644-1.151.175-.27-.511-.511-.894-.17-.838.128-1.335.354-.71.822-1.107.17-.441 1.105-.426.709.482 1.616.468 1.346-.085 1.232-.369-.425-.596-.765-.539-.451-.075-.73-.224-2.132.13-2.466-.111.037-.519.408-.519 2.67.259 2.819.055.204-.296.612-.296.816-.52.445-.631-2.893.093-3.394-.111-.668-.26-.056-.39 3.505.075 3.153-.445-2.3-.333-2.615-.333-.705.37-.927-.167-.469-.892-.732-1.221-.373-.351-.263-.57.019-3.122.669-4.832 1.625-2.36 2.194-1.994 1.909 1.994 2.152 1.669-.65-1.628-1.178-2.239-2.356-.285-2.356-.285-.162-.895.122-2.198l.61-2.645s.487-4.355.65-5.088.446-1.099 1.137-1.913.162-.773-.285-.529-.812.896-1.096.367.243-1.059.893-1.547.569-.692 1.585-.692 2.112 1.343 2.477.977-.743-1.324-1.116-1.647-.863-.645-1.339-.451-1.326.606-1.892.606-.68-.301-.68-.901-.286-.685-.471-.585-.5 1.1-.772 1.6-.571.614-.971.328-.529-.9-.629-1.314-.1-1.4-.485-1.357-.358 2.1-.358 2.4.515.885.429 1.214.314.843.729 1.229.657 1.199.357 1.399-.9-.942-1.072-.528-.269.834.058 1.239.058.81.481 1.195.603-.235.603 1.357-.058 3.155-.058 3.155-.579.231-.26.376.492.579.376.84-.376.058-.376.694.116 1.534.029 1.65-.319.898-.637.898-.55.173-.579.463-.286 1.141.036 1.587.477.708.292.862-.675 1.632-.733 2.327.347 1.505.26 2.287-.665.81-.318 1.476.666 2.431.318 2.692-.3 1.218-.781 1.238-1.809-.174-1.847.405 1.404.694.943 1.233-1.751.058-1.963.482-.442.868-.731.56-.52-.348-.52-.868.251-1.253.655-1.697.865-.597.846-1.311.578-.79.308-1.234-.365-.694-.346-.925-.018-2.008-.018-2.008 1.65.227 1.195-.285-1.223-.085-1.195-.597-.057-1.422.569-1.707 1.877-.341 1.251-.881-1.848.17-1.82-.768.329-.824.431-1.407.038-1.23.038-1.23-1.011-7.982-1.076-9.839-.163-7.167.065-7.656 2.304-2.753 3.175-3.707 1.535-.622 2.157.83 3.816 3.152 6.097 3.027a12.19 12.19 0 0 0 5.35-1.617c1.12-.664 5.392-2.981 7.876-5.45s3.1-2.609 3.06-3.584.239-1.215.477-1.355.219.458.477.618.577.199.577-.14-.12-.736.079-.916.259.159.239-.557.099-.737.278-.777.139-.637.139-.637.003-.504.148-.561.29.103.286-.318-.019-.608.137-.692.199-.613.085-.875-.384-.425-.384-.523-.108-1.695.347-1.763.671-.046.614.728-.103 2.528.443 2.118.295-2.63.295-2.63-.312-1.032-.368-1.481-.206-.824-.374-1.311 0-.449-.299-.711-.851-4.132-.955-4.97-.471-1.555-1.313-2.433-2.122-1.427-2.305-1.5-.559-.364-.559-.364zM148.755 54.1s.173 1.274.347 1.534.058 3.271-.203 3.879-.231 1.216-.434 1.534-.231 1.042-.231 1.042-1.068 1.891-1.182-.083.038-2.013.342-2.468.417-1.633.417-2.051.342-1.291.38-1.67-.184-2.005.19-1.861l.374.144zm.447-2.794s-.543-.157-.606.502-.146 1.581.251 1.486.104-.879.282-.994.292-.314.292-.638-.219-.356-.219-.356zm18.339 7.954s-.265.435 0 .511.322-.379.303-.492-.303-.019-.303-.019zm33.92 30.387s-1.848-2.177-2.608-2.557-1.493-.025-1.012.405 1.772 1.873 1.544 2.481-1.215-.127-1.316-.279-1.848-2.202-2.101-2.632-.709-.886-1.494-.912-2.278.076-2.252.608.632 4.581 1.873 5.999 1.569 2.126 1.569 2.405-.405 1.037-.076 1.291.987.911.835 1.214-.582.557-.506 1.038-.43.608-.379.962-.026 2.86-.026 2.86.532.254.405 1.038-.405.861-.658 1.494-.101 1.012.051 1.063.379.202.607-.101.608-.507.608-.507l1.544-.025s1.164 1.519 1.417 1.519h.962s.304-.81.608-.582.86 1.392 1.215 1.341.961-1.392.961-1.392.102-1.392-.101-1.468-.228-.987-.405-1.443-.076-2.557-.43-2.835.076-.506.126-.835.178-1.089-.05-1.266-.228-.886-.355-1.063-.405-.683-.405-.683-1.113-2.506-.582-3.114.582.506 1.013.709.683-.304.531-.582-.379-.912-.379-1.367.227-.253.531-.025.582.405.532-.026-.633-1.24-.861-1.518c.228.278-.936-1.215-.936-1.215zm18.488-27.238s-.531.733-.531.899v2.165c0 .333-.034.499-.167.499s-.531-.4-.531.366 1.429 1.066 1.229 1.366-1.429 1.232-.498 1.898 1.961.633 1.994 2.464.166 4.196-.964 4.462-2.459-.199-2.592-1.298-.399-2.997-.798-3.464-.665.7-.665 1.199.3 1.366.3 2.298.531 2.165 1.628 2.597 3.723.034 3.889-1.665.199-4.195-.133-5.228-.532-2.164-.1-2.63.365-2.398.299-2.964-.798-.5-.798-.5-.5-1.934-.887-2.357-.675-.107-.675-.107zm-5.202 9.627s-.251.215-.12.538.43.515.586.348.322-.228.191-.455-.478-.431-.478-.431h-.179zm-32.043-22.218s-2.164-.57-4.784.417-2.582 1.102-2.657 2.43-1.329 2.544-1.481 3.152-.19 1.367.379 1.67 2.734.874 3.418 2.013.303 1.253-.076 1.139-.722-.874-2.734-.836-3.114.38-3.227 1.709 1.064 2.039 1.032 4.097-.211 3.242-.728 3.826-.793.227-.793-.243.388-2.383-.048-3.566-1.747-.892-1.747-.892l-.809 1.702c-.453.956-1.469 5.433-.933 6.41s.877.879 1.292.756 1.218-.61 1.413.074.878 2.022 2.62 1.151 2.115-1.659 2.115-1.659.581.829 1.037.705 1.12-1.867 1.12-1.867.29 1.245 1.12.996 1.99-1.244 2.032-1.784.415-1.078.829-.871 1.328.332 1.867-.58-.042-1.452.29-2.074.996.622 1.867.249 2.281-1.784 1.949-3.318-.936-3.83-1.515-5.814-1.493-3.022-2.224-3.968.426-.977 1.036-.611 1.95 2.808 2.254 4.182 1.798 5.311 2.194 3.297.152-2.748.761-2.839 1.067-.824 1.006-1.954-1.327-3.281-.801-3.837 1.111-.469.878-1.422-.742-3.669-3.639-4.955-6.259-2.754-8.477-3.323-5.801-.738-9.251-1.082-7.355-1.425-10.605 0-5.063 2.66-4.95 3.875-.189 2.126-1.215 3.303-2.316 4.139-2.24 4.822 1.026.797 1.063.38-.075-1.329.38-2.126.76-.646 1.025.683.176 1.057-.144 1.538-.822 1.602-.205 1.602 2.947-.297 4.273.321 1.987 1.373 1.805 1.877-.32-.229-1.714-.664-3.542-.961-4.661-.343-1.782 1.534-1.554 2.655.663.664.777.344.365-.527.914-.618 2.445-.023 3.199.435 1.119.778.891 1.236-.8-.504-2.057-.641-3.016 0-3.381 1.03-.447 1.522-.371 1.964.617.316 1.563.493 2.255.346 2.59 1.174.175.827.175.827-.366-.398-1.178-.525-1.369-.43-1.544.032.303.445.478.891.239.513.239.513-.241.022-.658-.022-.723 0-.789.11.395.767-.022.921-.79-.636-1.382-.79-.614 0-.657.373-.11.439-.307.417-.066-1.031-.439-1.623-3.833-7.394-6.5-9.464-6.701-3.123-8.947-1.158-2.14 3.649-2.14 3.649 2.14.245 2.877.807 1.684.701 1.965.315.491-.808.238-1.077-.663-.584-.41-.947.6-1.184 1.137-1.105.616.473.616.473.236-.426.426-.442.852.316.884.616.158.568.158.568.931-.126 1.137.127.158.537.158.537-.979 1.073-.095 1.247 1.5-.032 1.879.284l.379.316s-1.216.631-.963 1.105a2.34 2.34 0 0 0 1.31 1.011c.442.11.126.347.553.426s.457.095.457.095.106.625-.097.828-.622.323-.292.57.36.188.36.406.06.352.194.36.6.007.6.007.276.536.539.718.252.303.141.364-.303.122-.313.263-.063.437.309.903.48.388.744.404.557-.047.542.388l-.031 1.039s-.108.15.896.799 1.528.46 1.507 1.046-.377.921.23 1.109 1.235.377 1.486.105.481-.105.544.125-.544.21-.084.67.524.649.733.46.356-.125 1.004-.481-.042-.439.67-.335.272.481.774.544 1.426-.797 1.882-1.285 1.336-1.401 2.509-1.825 2.541.945 3.062.521 1.857-4.756 1.955-6.451.033-2.736.424-2.964.879.977.879 1.107.684-.553.684.522-.391 3.681.098 3.518 1.694-2.117 1.694-3.127.163-1.401-.195-1.401-1.694.097-1.369-.294 1.13-.91 1.431-1.315.271-1.037.088-1.191-.25-.096-.734.456-.052.779-.764.632-1.314-.22-1.475.037-.764.839-.859.846-.331-.412-.477-.493-.044-.89-.14-.875-.462-.074-.374-.361.389-.588.389-.588-.061-1.899.014-2.049.3-.225.3-.225-.21-.466.09-.495.434.06.434.06l1.325-1.622s1.266-.181 1.346.04.321.383.522.363.623.08.663.402.02.544.241.544.643.08.643.08l.482-.563s-.201-1.168.02-1.45.663.302.663.403-.141.302.14.483.322 1.047.262 1.449-.904 1.027-.703 1.932.763.544.964.262.884-1.188.864-2.395.2-2.274.401-2.697 1.833-1.836 1.86-3.549.217-2.774-.952-3.508-2.121-2.366-1.659-2.665 1.55.517 2.42 1.441.789 2.04 1.686 2.094 2.284-.381 3.318-.435 1.767-.163 1.767-.163 2.04-.191 2.665-.136 1.06.544.68.571-1.387.326-.898.516 1.877.435 2.72.707 2.882 1.795 2.828 2.502-1.632-.217-1.904-.408-1.577-1.006-2.284-1.196-1.085-.381-1.085-.381zm-33.807-.691s-1.016.598-1.041 1.145.051 1.056-.127 1.336-.191.394-.191.865-.037.699-.19.839-.241.14-.254.433-.025.356-.139.292-.089-.547-.165-.61-.343-.115-.356-.395.089-1.068-.152-1.297-.343-.445-.33-.98.317-.47.444-.674-.038-.763.114-.954.241-.674.483-.864.306-2.672 2.347-4.148 2.437-1.832 3.259-1.988 2.593-.284 2.82.199-.539 1.107-.78 1.292-1.119.781-1.275 1.122-.601 1.773-1.398 1.959-.853-.909-1.094-1.113-1.039-.278-1.057.352.13 1.929-.019 2.226-.899.963-.899.963z" fill="#999"/><path d="M198.702 101.974s-.684-.76-1.215-.709-.583.582-.279.709.886.405 1.114.784.557.557.607.304.051-.734.051-.734l-.278-.354zm15.767 1.234s-.341-.528-1.456-.528-1.084 1.087-.62 1.211 1.116-.062 1.673-.062.403-.621.403-.621zm-1.084 2.204s-.341-.497-.496-.248-.248.279-.496.31-.34.031-.093.341.682.311.806.125.279-.528.279-.528zm1.549-10.958s-.527-.838-1.146-1.118-.806.249-.558.342.681 1.148 1.146 1.241.682-.155.682-.155l-.124-.31zm-11.195-19.615s-1.671 1.898-4.746 2.772-7.48 2.088-6.759 2.278 2.886-.266 5.164-.152 5.809.228 7.328 4.442 1.708 4.708 2.202 4.708-.228-4.86-1.746-6.986-3.721-2.658-2.582-4.025 1.898-2.544 1.67-3.075-.531.038-.531.038z" class="B"/><path d="M212.804 107.989s-1.118-.128-1.214.895.16 1.342.895 1.406 1.374-.831 1.086-1.502-.767-.799-.767-.799zM145.273 74.95s-.782 1.042-2.122 1.786-2.195 1.452-2.679 1.452-.521.074-.075-.67 3.201-3.461 3.499-3.573.93.112.93.298.447.707.447.707zm12.914-2.084l-6.364 6.587c-1.712 1.303-3.61 2.828-2.866 2.977s6.327-1.898 8.821-4.54 3.498-4.094 3.014-4.727-1.489-.595-1.824-.558-.781.261-.781.261zm.595 35.963s-.909.682-.496.827 1.303-.02 1.075-.372-.579-.455-.579-.455zm9.925 1.096s-.91.124-.993 1.22.641 1.881 1.324 1.675 1.281-1.138 1.054-1.551-.455-.993-.744-1.199-.641-.145-.641-.145zm-4.239-.352s-.806.476-.703 1.303 1.53.786 1.675.703.207-.6.103-.951-.496-.724-.661-.848-.414-.207-.414-.207zm-1.881-.454s-1.303-.104-1.365.785.538 1.055 1.055.889.599-.847.599-1.137.083-.331-.103-.434l-.186-.103zm31.51-2.895s.413.062.186.662-.207 1.116-.6 1.013-.599-.703-.517-1.117.496-.703.62-.703.311.145.311.145zm3.473.227s-1.447 0-1.613 1.034.724.91.89 1.055.578.393.765.227.144-.248.434-.248.827-.186.599-.744-.496-1.2-.785-1.262l-.29-.062zm11.017 1.218s-1.726.544-1.119 1.406 1.087 1.31 1.438.927.448-.671.352-1.278-.671-1.055-.671-1.055z" fill="#fff"/><path d="M208.675 65.625s-.76 1.772-1.544 2.481-1.165.886-1.342 1.493-.456 1.646-.456 2.329.76 1.038 1.19.304 1.088-2.759 1.418-3.266.944-3.174.944-3.351-.21.01-.21.01zm.556-1.265s-.43.126-.253.43.329.127.329.127l-.076-.557zm-12.48-18.227s-5.033-.535-5.693-.252-.409.849.031.849l3.743.126c1.51-.032 2.61-.126 2.548-.378s-.629-.345-.629-.345zm3.241 53.765s-1.012-1.62-1.721-2.152-1.291-.708-1.291-.101.886 2.05.886 2.05 1.038 1.089 1.367 1.595.861 1.569 1.215 1.19.152-1.721-.152-2.152l-.304-.43zm-34.068-54.159s1.006-1.522 1.768-1.223.435 1.223.244 1.468-.87.816-.38 2.094.842 2.529.299 2.61-1.469-.516-2.013-1.359-.679-2.339-.299-2.964l.381-.626zm6.008 2.663s-.087 1.129.161 1.389.497.422.497-.024.062-.782-.112-1.005-.546-.36-.546-.36zm-10.458-2.446s-1.774-1.331-3.193-1.309-1.398.644-1.109.799 1.996.377 2.461.621 1.22.798 1.708.643.133-.754.133-.754zm-1.33 4.968s-.932.022-1.043 1.553.976 3.016 1.397 2.905.488-.732.156-1.375-.577-1.286-.111-1.863.577-.865.355-1.109-.754-.111-.754-.111zm-3.351 2.317s-2.327-.188-2.372.167.244 1.087.71 1.087 2.196.133 2.329-.466-.067-.687-.222-.732-.445-.056-.445-.056zm-1.692 9.947s-1.162-1.097-2.061-.746-.614.351-.417.57 1.009.066 1.535.439.855.307.921.219.022-.482.022-.482zm5.074 2.362s-.695 1.737-.473 2.621.378.426.521.379.205-.995.378-1.311.6-1.168.348-1.579-.774-.11-.774-.11zm21.439-2.995s-3.248 2.522-3.684 3.818-.496 2.311-.15 2.559.42-1.312 1.185-2.401 2.248-2.673 2.668-3.217.463-.974.222-.867l-.241.108zm-6.958 43.45s-.334-.568-.674-.625-.411.057-.539.142.454.171.425.299-.241.198.071.312.454.057.397.426.297.568.411.411.396-.354.255-.553-.346-.412-.346-.412zm-2.942-6.304s-.85-.071-.694.241.907 1.008 1.219 1.335.595.341.708.213.269-.369.099-.511-1.332-1.278-1.332-1.278zm2.29-3.543s-1.168-1.567-1.715-2.058-.621.321-.603.547.528 1.02.98 1.794.566 1.699.905 1.756.678-.548.678-.831-.245-1.208-.245-1.208zm1.677-9.721s-.074-2.638-.542-3.459-.821-.638-.877-.213.424 1.445.651 2.025.198 1.048.297 1.303.255.538.312.51.159-.166.159-.166zm-5.318 12.547s-.958-.177-1.398-.121.142.398.241.384.936.056 1.148 0 .009-.263.009-.263zM85.314 59.952s.067-1.557.473-1.624-.203-1.218.203-1.354-1.421-1.285-1.827-2.639-.473-2.165-1.015-3.18-1.421-2.368-2.571-3.18-2.436-.948-2.436-.948-.541-2.436-4.128-2.706-5.819.473-5.819.473l-2.03.948s-2.165-.406-3.518.406l-3.113 1.962-2.571 1.895s-2.233 1.962-2.572 2.774-1.488 4.94-2.165 5.887-1.624 2.03-1.624 2.03.88.406.541 1.15-2.3 2.639-2.909 2.707-1.218.406-1.218.406.609 1.083.676 1.421-.473 1.15-.473 1.15-9.135 1.421-14.007 1.151-12.857 1.217-17.187 1.827-9.081 3.376-10.907.308 1.461-5.041 4.164-6.137 6.867-1.753 9.716-1.899c6.63-.34 10.972.259 15.903-4.169.744-.668 1.747-1.066 2.183-1.485 1.485-1.428 1.753-3.364.56-4.421-.614-.544.244-1.819-.498-1.97-.691-.14-.614-1.178-.614-1.178l-.56.143s-.86-1.163-.943-1.558-.084-.682-.084-.682-1.35 1.185-1.661 2.023-.143.742-.358.993-2.117 1.934-2.077 2.809.082 1.974.285 2.198.587 2.255-.325 2.979-3.365.818-4.749.943-11.998-.671-17.343 1.494S-.541 65.23.061 70.981s6.963 6.158 7.437 6.225 4.601.271 5.278.677 1.082 1.218.812 2.301-1.06 5.319.641 8.683-1.701 6.773-1.701 6.773-.676 1.041-.676 1.351v.714s-1.407 1.426-2.319 2.247-2.144 1.961-1.551 3.147 2.417 5.61 2.691 7.8.547 3.74.274 4.378.273 1.916.273 1.916 1.186-.365 2.509.365 5.291 2.281 5.701 2.098.411 0 1.095.32a16.78 16.78 0 0 0 1.323.547l.866-1.004s.821.411 1.05.411.592-.593.592-.593l.593-.73h.867l.684-.593.639-.958s-1.688-2.235-1.688-2.508-.365-.958-1.049-1.323-2.417-.411-3.056-.456-1.003-.548-1.323-1.688-1.55-2.965-1.55-2.965-.137-1.915-.092-3.056.821-1.824.821-1.824 3.558-2.737 4.288-3.74 1.277-1.095 1.688-1.323 3.147-1.323 3.147-1.323.958.274.684 1.414-.912 3.284-1.368 3.375-1.551.821-1.414 1.734.821 2.463 1.368 2.828 1.323 1.414 1.916 2.143 2.782 3.604 3.01 4.014 1.733 1.004 2.053 1.323.593 1.14 1.003 1.596.912.639 1.642.639 1.46 0 1.505.182.684.229 1.049.274 1.28.419 1.635.739.941.107.941.107.177-.765.408-1.138.426-.925.692-.907 1.065.658 1.065.658l.391.241s.076-.405.329-.405.253-1.037.253-1.037.43-.81.278-1.241-.582-1.873-1.746-2.303-2.405-.456-2.405-.456-2.598-3.333-3.265-4.045l-1.246-1.335s.045-2.402.312-2.624 3.069-2.669 3.648-3.559.889-2.091 1.512-2.091 1.803-.554 2.41-1.225.894-.959.894-.959.799.352.767.831-.16.927.256 1.278 1.086.511 1.086.511-.383-.767.032-.958.703-.48.703-.735.128-.384.384-.416.894-.191 1.15.32 1.086.927 1.086.927-.159-.576.224-.863.511-1.055.799-1.055 1.566.863 1.566.863 0-.383.223-.607.607-.415.607-.415.288.447.671.511.512.064.512.064-.198-.33.001-.604.524-.424.798-.224.399.324.748.324a1.77 1.77 0 0 1 .499.05s-.125-.524.125-.599.124-.623.299-.623.349.174.673.873.374 1.022.374 1.521.075.997.524 1.745.873 1.397.922 2.12.898 3.491.898 5.212.698 3.266 1.272 4.264 1.197 1.197 1.147 1.77.174 1.347.673 1.521 2.294.075 2.668.449 3.281 1.443 3.816 1.663 1.195 1.006 1.195 1.006.849-.943 1.006-1.415.724-.975.724-.975 1.178-.917 1.178-1.556.935-1.235.425-2.172-3.571-1.406-4.038-1.874-.723-1.576-.553-3.195-.425-5.58-.425-5.58-.638-3.067-.297-5.409.425-3.237.892-3.45.596.383 1.148.383 1.19.043 1.19.043-.297-.554-.212-1.321.17-.979.51-.979 1.573.979 2.423.894 1.275-.468 1.233-.894 0-.639.212-.767 1.233.767 2.041.767 1.743-.554 1.87-.767.68-.724.85-.724a5.91 5.91 0 0 1 .511.042l2.34-1.444-.697-23.344 3.451.067s.43.539.864.626.522 1.043.522 1.043.566.261 1.087-.174 1-.869 1-.869.566.608.827.478-.261.826.739.826 1.391-1.218 1.869-1.218.74.696.74.696l.913.478s.956-.695 1.261-1.434.612-4.018-.302-4.627-2.253.305-2.253.305h-.67s-.213-.494-1.472-.494-1.108.511-1.348.541-1.439-.06-1.439-.06-.599-.511-1.558-.301-1.888.661-2.037 1.111-.869 1.141-.869 1.141l-.919.038zM72.217 48.295l-1.384 1.476c-.444.445-.391 1.405.177 1.174s1.793-1.619 1.881-2.028.338-.426.266-.711-.443-.231-.55-.196-.39.285-.39.285zm.317 63.18s-.81.837-.601 1.23.366.994.366 1.151.836.262.862-.262.261-1.517-.027-1.857-.6-.262-.6-.262zm-8.765-12.132l.289 2.982c.116 1.418.145 2.605.463 3.444s.956 1.708 1.187 1.65-.289-1.274-.289-2.084-.406-2.171-.406-3.329-.492-2.142-.752-2.547-.492-.116-.492-.116zm-3.527-17.041s-.352 1.365.02 2.357.848 1.385 1.406 1.447 1.013-.454.869-.785-.559-.703-.807-1.448-.434-1.013-.723-1.323-.765-.248-.765-.248zm-14.299 7.876s.141.487-.228.625-.53.53-.461.692.669.599.784.899.139.438.346.438.6-.208.6.115.276.899.553.83.23-.83.369-.991.415-.392.323-.623-.485 0-.761-.161-.853-.761-.853-1.015.046-.322-.208-.622-.464-.187-.464-.187zm8.359-2.591s-.218.3-.463.218-.843.19-.843.707-.299.816.028 1.033.707.136.87-.054.054-.462.245-.734.489-.626.489-.979-.326-.191-.326-.191zm-1.849-.489s-1.55-.272-1.958 0-.435.272-.68.299-1.033.462-1.06 1.142.163 1.414.707 1.414.842-.217.842-.462.055-.734.3-.707.19.571.19.843.245.598.598.68.354-.245.68-.245-.027-.897.19-1.033.381-.408.191-.68-.164-.626.054-.653.544-.217.245-.408l-.299-.19zm-13.189-.085s.149 1.172-.125 1.372-.175.449-.449.548-.374.05-.374-.199.1-.723-.125-.948-.423-.274-.448-.673-.125-.898.149-.898.15.2.449.424.923.374.923.374zm2.02 1.521s-.2-.449-.574-.374-.324.798-.324.798-.624.075-.349.349.349.125.374.424.374.349.598.324.05-.523.299-.623.275-.274.25-.474-.274-.424-.274-.424zm2.069.225s-.474-.798-1.097-.674-.374.898-.349 1.123-.075 1.221.249 1.371.275.374.349.648.823.175.873-.174-.025-2.294-.025-2.294zM27.148 77.034s-1.135.332-.914 1.553 1.358 2.359 1.69 2.776.582 1.082.969 1.082.056-.666 0-1.138-.443-1.027-.831-1.526-.609-.971-.692-1.332-.332-.611-.139-.86-.083-.555-.083-.555zm-9.995 2.998s-.681-.574-.645.934.395 3.017.395 3.95.215 1.293.286 2.011.681 2.658.681 3.34-.896 1.58-.43 2.047 1.326-.79 1.326-1.329.108-1.795.108-2.729-.574-3.735-.789-4.345-.573-1.832-.609-2.478-.323-1.401-.323-1.401zm29.716 6.433l-3.815-1.696c-1.022-.474-2.743-1.322-3.416-1.945s-1.347-.848-2.519-.898-1.496.25-1.247.549.898.548 1.322.873 1.322 1.147 2.469 1.795 3.665 1.546 4.588 1.696 2.419.249 2.568.124.05-.498.05-.498zm23.743-29.224s1.584-.049 1.584.635-.365.757-.56.781-2.852.196-3.193.049-1.438-1.148-1.487-1.465.439-.342.731-.025.805.66 1.463.538.706-.098.609-.342-.439-.464-.414-.806.268-.61.828-.513.585.366.585.562-.146.586-.146.586zm5.865-7.491s-3.114.094-2.768-.346 2.202-1.259 2.17-2.076-1.446-.189-1.667-.158-.817.158-.817-.314.377-.566-.378-.881-2.044-.22-2.547.472-.566 1.856-.944 1.887-1.635-1.132-2.107-1.226-.566.754-1.195.691-.567-.377-1.353-.377-1.352-.157-1.887.126-1.573.535-1.321 1.006.283.975-.094 1.133-1.353.094-.912.408.943.441 1.446.158 1.416-.409 1.73-.409-.283-.661.503-.975 1.321-.157 1.699.094 1.73 1.321 1.038 1.699-.535-.032-1.447-.032-1.698.472-1.981.472-1.259.566-.504.66.944.032.504.661-1.259 1.415-1.447 2.39.126.566.031 1.133-.755.692-.22 1.195.566.597.692.849.177 1.888.339 2.194.183 1.444.792 1.566.67-.101.406-.468-.142-.61-.142-1.607.203-1.058-.02-1.303-.508-.671-.488-1.18.244-1.323.021-1.567-.488-.651-.345-.875.418-.745.759-.683.527.497.899.186.155-.527.464-.807.682-.528.961-.497.402.839.495 1.118.372 1.18.775 1.18 1.053-.187 1.332.093 1.054.372 1.301.31.372-.869.744-1.117 1.27.093 1.363-.342.434-1.179 1.023-1.21.309.62 1.053.931 1.487.59 1.332.962-.743 0-.712.714.898 1.583.681 2.018-.867.59-.403 1.273.248 2.887.62 2.949.465-.776.898-.776.403.527.775.496.712-.807.682-1.335-.372-.838-.372-1.21-.682-.807-.403-1.49.496-.807.403-1.583-.527-.839-.589-1.273a2.05 2.05 0 0 0-.403-1.087c-.31-.466-.433-.776-.093-.962s2.138.59 2.138.217-.434-.807-1.022-1.086-1.549-.528-1.549-.869.558-.494.31-.807l-.249-.313zm-12.49 17.761s-.06 1.64.275 1.891.896.551.968 1.329.179 1.58-.287 1.676-.8-.563-1.063-.323-.203.538-.263.586-.374.029-.374.517.122 1.018-.142 1.201-.04.326-.365.753-.752.59-.894.427-.284-3.195-.02-3.418.934-.407.67-.998-.691-.549-.752-1.363-.101-2.259.203-2.401 1.411-.583 1.381-1.394-.315-1.036-.51-1.201-.629.195-.689-.135.185-1.193-.277-1.475-1.286.181-1.245 1.006.1 1.349-.181 1.349-.141 1.308-.141 1.751-.462.382-.502.745-.02 1.247.161 1.247.281.222.281.544 0 .644.261.704.29.646-.122.891-.515.445-.515.058.064-.451-.103-.535-.316.129-.309-.232.103-1.316-.032-1.484-.336-.524-.29-1.066.127-1.141-.046-1.256-.207.299-.553.288-.496-.127-.715-.346-.367-2.784-.172-3.134.467-.273.214-.682-.914.292-.972.506-.253.331-.409.507-.525.721-.525.994-.214.428-.214.896.136.468-.078.74-.486.507-.583.507-.194-4.189-.194-4.189.68-.604.408-.974-.797-.254-1.05.097-.758 1.13-.817 1.578.175.565-.058.916-.175.663-.253.916-.797.448-.797.448-.389.019-.486.195-.373.466-1.357.205-1.795-.578-1.303-.81.897-.753 1.824-1.216 2.084-2.286 2.431-3.155.579-1.302.29-1.534-.84.087-.348-.579 1.365-1.743 1.669-2.655.38-2.012.873-2.088 1.177.721 1.595.797.645 1.063.531 1.671-.531.683-.379.911.114.608.683.494 1.177-.228.76.266-.266.607-.076.873 1.025.873.949 1.405-.152.987.417.607.76-.607.912.038 1.426 2.106 1.887 2.613.415.623.923.507.576-.115.461.692-.577.853-.577 1.038l.011 1.263zm-12.121.385s-1.333.148-3.95 1.135-11.394 1.272-13.27 1.173-6.603-.118-13.499 1.045-10.385 2.908-13.791 2.243-4.818-3.988-3.572-5.899 3.157-3.323 5.649-4.237 3.597-.831 5.563-1.142 3.828-.518 6.139-.587 4.656-.104 6.932-.553 3.966-1.175 4.484-1.486 2-1.935 2.517-2.143 1.451-.871 1.932-2.626-.311-2.35-.552-2.592-1-.242-1-.242-.759-1.002-.966-1.002-.517.484-.655.933-.241.657-.414 1.21-.173 1.244-.173 1.244-.758-.381-.758-.795-.414-.795-.483.034.31 1.521.448 2.177.345 2.212-.517 2.938-2.552 1.175-3.553 1.209-7.38.519-8.691.484-7.449-.138-11.071 1.348-5.898 2.73-6.967 4.596-.827 2.903-.827 2.903-.221 4.113 3.378 5.6a21.42 21.42 0 0 0 8.015 1.584c1.152 0 .96-.384.96-.384s-1.248-.576-.336-.912l2.688-.96c.624-.24.24.528.192 1.104s-.096 1.776-.24 2.64-1.008 5.087-.336 7.439 1.51 4.948 1.099 6.392-.695 2.606-1.339 3.508-1.236 1.909-.67 2.064 1.751-1.419 1.88-1.135-.129 1.135-.412 1.625-1.57 2.064-2.214 2.528-1.107.826-1.262 1.574-.334 1.315.026 1.934.695 1.264.695 2.064-.566 1.367-.566 1.367-.412-1.186-.773-1.625-1.21-1.651-1.184-2.528.052-1.419-.154-1.548-1.159.49-.85 1.264 1.313 2.709 1.674 3.689.756 2.509.926 4 .765 2.47 1.998 3.748 1.063 2.13 2.296 2.428 1.658 1.107 2.04.979.34-1.235 1.233-1.448 2.295-.639 1.828-1.618-.723.127-1.998-1.661-1.828-3.621-2.338-5.282-.553-3.833-.128-4.515 2.593-2.385 2.848-2.598 2.806-2.045 3.019-2.513.977-1.747 1.615-1.874 3.103-1.193 3.571-1.661 1.488-1.789 1.913-2.982.68-2.343 1.105-3.535.978-2.173 1.53-2.428.553-.128.553.298-.723.979-.723 1.789.085 1.022.68.979 1.021-.766.978-1.661.213-1.789.85-1.576.765.597.893.98.85 1.32.085 1.363-1.233.341-1.318 1.022.34 1.704.808 1.704-.085-.383.383-.383 1.445.298 1.827.724.766.766.766.341-.255-.597.425-.554 1.275.426 1.658.383 1.147.597 1.147.937.681.937.681.937.085 1.193 1.02 1.278 2.04-.852 1.743-1.533-.511-.937-.255-1.235.51-.427.297-.639-.595-.128-.85-.895-.298-1.107.17-1.32.978.298 1.02.639.298.553.298.553.425-.468.425-.937.68-.213.808-.042.34.681.51 1.107.425.682.425 1.065.17.79.565.79.445-.668.84-.396.494.446.79.396.173.05.198.668-.05 1.312.321 1.288.42-.496.963-.496.321-.519.593-.742.173-.52.519-.371.049.321.518.371.569-.025.791-.396.445-.619.716-.396-.024.396.272.668.618-.346.618-.346.988-.594.988-.966 0-.569.321-.693.543-.148.568.322-.099 1.658.346 1.485.543-.42.543-.841.173-1.263 0-1.56-.469-.594-.864-.396-.272.223-.618.223-.79.223-1.013.074.148-.297-.321-.297-.593.001-.593-.346.025-1.114.247-1.139.223-.247.223-.247.12-.503-.124-.808-.345-.387-.345-.651.061-1.181.061-1.181.65-.409.371-.968-.279-.621-.526-.807-.527-.776-.31-.993.433-.466.433-.466-.126-1.485.115-2.068.281-.504.281-.806.16-.201.562-.623.643-.926.964-.926.563.121.623.302-.221-.021-.321.503.08.925-.101 1.147-.402.262-.361.503-.362.262-.442.604-.02.825.301.664.141-.402.442-.402.502-.121.462.483-.562.442-.522.825.201.503.341.503.422.161.06.342-.301.382-.14.463.402-.141.622-.403.442-.422.603-.322.201.443.201.805-.261 3.019.04 3.201.402.241.402.503.02.362.221.483.462.362.562.161-.301-1.228.02-1.288.884 0 .964 0 1.487 1.127 1.507 1.489.201.563.341.724.02.604.201.685.302.121.302.523 0 1.087.16 1.087.221.201.221.523-.08 1.308.161 1.349.341.141.321.342-.06.684.141.926-.06.261.241.624.502.804.382 1.247-.041.765-.342.383-.1-.665-.462-.846-1.768-1.63-1.788-1.952-.341-.382-.582-.765-.04-.946-.241-1.247-.442-.483-.462-.061-.201 1.49.02 1.812.362 1.187.362 1.59-.196.506.139.75.274.885.457 1.282.61 1.313.823 2.015.457 1.709.518 2.381a46.13 46.13 0 0 0 .213 1.862c.061.458.101 3.356.437 3.972s1.159 2.671 1.781 3.275.758.721 1.361.721.778-.175.836-.545.078-.604.35-.585.389.429.428.624.164.822.888 1.401.637 1.158 1.071.579.637-1.1.753-1.332.521-.695.81-.724.782-.26.492-.463.029.145-.955-.405-2.547-1.853-2.634-2.981-.116-3.677-.116-3.677.782-.55.405-1.128-.376-.666-.376-.666-.011-1.999-.31-2.365-.599-.966-.299-1.199.565-.433.265-.599-.55-.23-.487-.732.774-.586.46-.984-.314-.649-.105-.67.168-.439.168-.439.146-5.713.021-5.838-.461-.147-.482-.419-.084-.823.17-1.046.242-.235.281-.484-.078-.902.091-1.105.294-.19.307-.465-.117-1.046.039-1.229.503-.406.457-.936-.437-.497-.502-.83.098-.347-.17-.753-.222-.601-.117-.935.176-.229-.262-.504-.692-.34-.979-.59-.308-.721-.396-.934-.345-.111-.455-.456.382-.596-.132-.721-.639.014-.984.323-.705.243-.91.125-.162-.36-.162-.463-.286-.36-.374-.463.081-.214.073-.545-.308-.537-.55-.22-.844 1.051-1.305 1.129-.531-.039-.773.344-.203.517-.578.407-.531-.258-.531-.258-.206-.406-.135-.94.285-.311.356-.578.053-1.156.053-1.156-.006-.276-.28-.459-.039-.588-.3-.654-.274.105-.679.353-1.018.183-1.084-.222.183-1.897-.091-2.276-.17-.733-.353-.89-.326-.144-.326-.327a.94.94 0 0 0-.379-.706c-.261-.17-.326-.079-.574-.144s-.097-.22-.404-.352-.819-.234-.995.088-.292.22-.424.249-.687-.014-.731.161-.249.337-.483.352-1.447-.015-1.608-.161-.176-.659.044-.85.292-.19.248-.454-.466-.422-.466-.422zm3.012 4.334c-.053-.072-.834-.961-1.26-.961s-.55.605-.23.836.692.96.887.96.248-.018.231.32.088.623.301.623.213.088.213.32.355.231.391.64-.267.444.195.444.568-.551.461-.96-.514-.409-.479-.747.036-.391-.231-.658-.372-.302-.372-.462-.107-.355-.107-.355zm-2.43 8.801s.55.303.479.623-.266.266-.639.266-.674-.017-.781-.177-.319-.196-.958-.196-1.757.178-1.757-.071-.018-.284-.319-.302-.657-.427-.657-.427-.355.018-.55-.249-.691-.512-.795-.698-.33-.02-.558-.206-.269-.311-.351-.311-.613-.025-.663-.249-.399-.025-.573-.25-.2.025-.698-.474-.624-.623-.2-.623.923.449 1.546.474.499.374 1.347.573 1.321.275 1.745.474.723.349 1.073.449.149.474.773.524 1.246.324 1.546.374.99.476.99.476z" class="B"/><path d="M72.196 63.493l-3.12.122s-.633 1.562.537 2.026 2.218.196 2.437-.146.268-.733.268-1.123-.122-.879-.122-.879z" fill="#520"/><path d="M76.477 49.75s-3.114.094-2.768-.346 2.202-1.259 2.17-2.076-1.446-.189-1.667-.158-.817.158-.817-.314.377-.566-.378-.881-2.044-.22-2.547.472-.566 1.856-.944 1.887-1.635-1.132-2.107-1.226-.566.754-1.195.691-.567-.377-1.353-.377-1.352-.157-1.887.126-1.573.535-1.321 1.006.283.975-.094 1.133-1.353.094-.912.408.943.441 1.446.158 1.416-.409 1.73-.409-.283-.661.503-.975 1.321-.157 1.699.094 1.73 1.321 1.038 1.699-.535-.032-1.447-.032-1.698.472-1.981.472-1.259.566-.504.66.944.032.504.661-1.259 1.415-1.447 2.39.126.566.031 1.133-.755.692-.22 1.195.566.597.692.849.177 1.888.339 2.194.183 1.444.792 1.566.67-.101.406-.468-.142-.61-.142-1.607.203-1.058-.02-1.303-.508-.671-.488-1.18.244-1.323.021-1.567-.488-.651-.345-.875.418-.745.759-.683.527.497.899.186.155-.527.464-.807.682-.528.961-.497.402.839.495 1.118.372 1.18.775 1.18 1.053-.187 1.332.093 1.054.372 1.301.31.372-.869.744-1.117 1.27.093 1.363-.342.434-1.179 1.023-1.21.309.62 1.053.931 1.487.59 1.332.962-.743 0-.712.714.898 1.583.681 2.018-.867.59-.403 1.273.248 2.887.62 2.949.465-.776.898-.776.403.527.775.496.712-.807.682-1.335-.372-.838-.372-1.21-.682-.807-.403-1.49.496-.807.403-1.583-.527-.839-.589-1.273-.093-.621-.403-1.087-.433-.776-.093-.962 2.138.59 2.138.217-.434-.807-1.022-1.086-1.549-.528-1.549-.869.558-.494.31-.807l-.249-.313zm13.78 9.098s-1.122-.29-1.756.435-.343 1.197.055.961.416-.435.633-.435.29-.109.453-.272.778.037.778-.272-.163-.417-.163-.417zm3.421-.2s-.67.019-.29.254.525.164.525.055-.235-.309-.235-.309zm3.734.359s-.996-.333-1.186.072-.024.547.593.476.593-.548.593-.548zm-31.554 8.465s-.691.148-.724.726.032.891.444.825.873-.446.758-.957-.478-.594-.478-.594zm5.507 16.856s-.682.435-.475.869.372.372.392.827-.103.661.228.62 1.013-.827.848-1.406-.786-.889-.786-.889l-.207-.021zm11.199-9.072s-1.326.862-1.397 2.334.394 1.58.25 2.299-.466-.001-1.039.395-.789.79-1.075 1.005.143.503-.251.862-.359.575 0 .898.358 1.041.215 1.364-.968.396-.86.647.537-.144.932.323 1.505.359 1.792-.036.573-1.688 1.075-1.975.968-.287.968-2.119v-5.746c-.144-.179-.61-.251-.61-.251zm-7.728-6.009l-1.983 2.856-1.332 1.956c-.465.589-.62.341-.898.031s-2.944-2.453-3.037-3.26.124-1.086-.248-1.521-.371-.527-.526-.434-.651.496-.558.807-.062 2.545.155 2.918.372 2.328 1.177 2.421.899-.404 1.147-.279.247 1.49.247 1.49l.408.616c.154.24-.393.941.222.924s.376-.428.786-.068.427.77.444.993.291.017.308.65.376 1.661.752 1.609.717-.428.58-1.13-.375-.633-.393-1.318.086-1.232.257-1.489.171-.719.273-1.061.342-1.113.444-1.147.779-1.242 1.061-1.102.2.846.522.624 1.346-1.348 1.326-2.113.141-.935-.256-1.868-.294-1.071-.586-1.088l-.292-.017zm-1.092-2.409s-1.097.489-1.859.397-1.919-.122-2.467 0-2.133.336-1.31 1.007 1.828.702 2.467.702 2.163-.061 2.742-.427.914-.641.67-1.16l-.243-.519zm8.492-3.977s-.301-.543-1.004.503l-1.467 2.134c-.18.261-.04.603-.261 1.066s-.522.363-.763 0-.522-.704-1.065-.704-.823-.443-1.004-.322.181 1.067-.261 1.187-.844-.825-1.225-.422-.201 1.67-.02 1.57 1.838 1.316 2.264 2.811-.578 3.389-.822 4.091-2.254 2.808-2.254 4.151.335 1.618.03 2.045-.487 1.221.122 1.862.305 4.335 1.066 3.999.274-2.228.579-3.358 1.341-1.587.823-2.716-1.067-2.412-.549-3.145 1.234-1.198 1.744-2.827.693-2.148.907-2.179.304 1.008.792.886.609-.397.914-.245.914.367 1.127-.061.958-1.118 1.003-1.703.024-1.752-.232-2.016-.08-1.16-.338-1.246-.507.106-.66.298.143 1.668-.173 2.1-1.1.767-1.272.201-.115-.757-.345-1.026-.326-1.18-.077-1.448.383-.69.397-1.073.198-.821.51-.934.34.481.651.198.184-.368.553-.651.813-.79.794-1.583-.484-1.443-.484-1.443zm-.424 4.088s-.75.538-.368.75.68-.028.68-.269.056-.538-.128-.51l-.184.029zm2.985-9.261s-1.546-1.745-1.92-1.745-.199.399.1.922.598 1.297.823 1.671.997.499.997-.175v-.673zm-5.462 1.688s.047 1.914-.095 2.259-.783.952-.795 1.606-.214 1.332.308 1.166.855-1.404 1.175-1.927a2.5 2.5 0 0 0 .368-1.451c-.023-.393-.451-1.082-.534-1.38s-.13-.428-.249-.428-.178.155-.178.155zm2.37-1.788s-.848-1.221-1.546-1.895-1.546-1.122-1.621-.798.449.873.549 1.621.648 1.746 1.396 2.045.873 1.147 1.272.798.349-.549.274-1.023-.324-.748-.324-.748zm-.523-5.81s-.848-.773-.798-.324.598.923.773.773.025-.449.025-.449zm-12.444-5.984s-.349.099-.124.448.573.075.498-.224-.374-.224-.374-.224zm-4.751 21.717s-.06 1.64.275 1.891.896.551.968 1.329.179 1.58-.287 1.676-.8-.563-1.063-.323-.203.538-.263.586-.374.029-.374.517.122 1.018-.142 1.201-.04.326-.365.753-.752.59-.894.427-.284-3.195-.02-3.418.934-.407.67-.998-.691-.549-.752-1.363-.101-2.259.203-2.401 1.411-.583 1.381-1.394-.315-1.036-.51-1.201-.629.195-.689-.135.185-1.193-.277-1.475-1.286.181-1.245 1.006.1 1.349-.181 1.349-.141 1.308-.141 1.751-.462.382-.502.745-.02 1.247.161 1.247.281.222.281.544 0 .644.261.704.29.646-.122.891-.515.445-.515.058.064-.451-.103-.535-.316.129-.309-.232.103-1.316-.032-1.484-.336-.524-.29-1.066.127-1.141-.046-1.256-.207.299-.553.288-.496-.127-.715-.346-.367-2.784-.172-3.134.467-.273.214-.682-.914.292-.972.506-.253.331-.409.507-.525.721-.525.994-.214.428-.214.896.136.468-.078.74-.486.507-.583.507-.194-4.189-.194-4.189.68-.604.408-.974-.797-.254-1.05.097-.758 1.13-.817 1.578.175.565-.058.916-.175.663-.253.916-.797.448-.797.448-.389.019-.486.195-.373.466-1.357.205-1.795-.578-1.303-.81.897-.753 1.824-1.216 2.084-2.286 2.431-3.155.579-1.302.29-1.534-.84.087-.348-.579 1.365-1.743 1.669-2.655.38-2.012.873-2.088 1.177.721 1.595.797.645 1.063.531 1.671-.531.683-.379.911.114.608.683.494 1.177-.228.76.266-.266.607-.076.873 1.025.873.949 1.405-.152.987.417.607.76-.607.912.038 1.426 2.106 1.887 2.613.415.623.923.507.576-.115.461.692-.577.853-.577 1.038l.011 1.263zm-4.099-15.344s-.866-.482-1.52 0-1.174 1.137-.578 1.619.924-.038 1.232-.077.481-.231.5-.482.52-.173.443-.617l-.077-.443zm2.463-.521s-.789.521-.501.752.481.019.578-.231-.077-.521-.077-.521zm6.985 8.547s-1.746-.071-2.039-.486-.487-.415-.536.171-.365 1.563.39 1.661 1.731-.073 1.999-.22.341-.415.341-.659-.155-.467-.155-.467zm1.276-2.952s1.584-.049 1.584.635-.365.757-.56.781-2.852.196-3.193.049-1.438-1.148-1.487-1.465.439-.342.731-.025.805.66 1.463.538.706-.098.609-.342-.439-.464-.414-.806.268-.61.828-.513.585.366.585.562-.146.586-.146.586zm2.688 1.377s-.188.89-.889 1.13-1.434.411-1.195 1.061 1.042.668 1.691.633 1.879-.684 1.845-1.061-.718-.667-.786-1.147-.666-.616-.666-.616z" fill="#a80"/><path d="M21.618 117.746s-.586-.927-1.23-.851-.794.832-.473 1.211.644.757 1.098.794.568-.132.643-.283-.038-.871-.038-.871zm1.741-.832s-.34.17-.17.681.719.681.813.624.133-.53.114-.681-.227-.454-.397-.624-.36 0-.36 0zm50.933-53.69s-.439 0-.439.366-.097 1.197.244 1.246.439-.367.439-.733-.244-.879-.244-.879zm16.327-2.254s-.416-.055-.561-.254-.507-.381-.525-.018.38.616.453.798-.145.888.253.616.652-.326.67-.689-.29-.453-.29-.453zm3.095-.399s-.416-.109-.398.362.163.943.452.853.181-.961.163-1.07-.217-.145-.217-.145zm3.319.006s-.404.381-.404.714.285 1.213.475.928.214-.809.19-1.095-.261-.547-.261-.547zm-24.499 50.898s-.81.837-.601 1.23.366.994.366 1.151.836.262.862-.262.261-1.517-.027-1.857-.6-.262-.6-.262zm-28.671.921s-.867-.32-.83.057.264.264.283.585.32.642.528.567.301-.623.301-.812-.282-.397-.282-.397zm-2.067 1.594s-1.097-.676-1.337-.012-.08 1.03.263 1.259.948.378 1.211.229.217-.824.183-1.03-.32-.446-.32-.446zm-16.847 2.053s-.455.265-.152.644.644.113.644-.095-.303-.568-.303-.568l-.189.019z" fill="#fff"/><path d="M40.282 111.887s.81-.038.603.283-.547.623-.829.661-.584.056-.678.396-.151.755-.472.888-.414.226-.64-.095-.226-.585-.584-.585-.83.34-1.338-.264-1.678-.775-1.772-2.096-.943-3.71-1.441-4.321-2.212-1.915-2.305-2.694-.167-1.002.112-1.465.445-1.076.556-1.354.674-1.322.191-1.498-1.031.833-1.031.833-.285.505-.504.285.044-.657.219-1.096.557-2.028.395-2.809-1.129-.97-.672-2.128.565-1.185.753-2.074.188-1.212.484-1.939.618-.674 1.075-.593.807-.107 1.21.593 1.156 2.316 1.398 2.289.726-1.562 1.263-1.508 1.478 1.239 1.694 1.589.806 1.428 1.532 1.374.699-1.643 1.102-1.212.296 1.751.081 2.451-1.507 2.856-2.642 3.646-3.456 3.061-3.012 4.937 2.715 4.048 2.715 4.048l1.373 2.022c.44.706.797 1.084.981 1.26l.183.176zm-9.505-5.408s-.341-.51-.56-.328.183.62.183.62.426.224.426.503.264.482.264.482.604.434.604.714a.67.67 0 0 0 .201.543c.14.155.775.885.883.621s-.248-.668-.294-.869-.372-.42-.418-.684.046-.325-.171-.512-1.118-1.09-1.118-1.09zm-.973-4.231s-.243-.703-.589-.312-.156.625-.598.972-.901.885-.494 1.276.347.625.425.764.719.833 1.091.616.278-.46.096-.607-.356-.452-.33-.816-.06-1.033.061-1.19.372-.408.355-.555c.017.147-.017-.148-.017-.148z" fill="#a80"/><path d="M56.76 86.972s-.893.426-.723 1.001 1.063.021 1.063-.213-.34-.788-.34-.788z" fill="#fcd4a7"/><path d="M123.958 58.909s-1.719.084-1.996.361-6.552.255-7.345.208-.968-.397-.932.513.186.513 2.611.513 7.416-.56 7.649-.793.013-.802.013-.802zm-21.305 0s1.718.083 1.995.361 6.552.254 7.345.208.968-.397.933.513-.187.513-2.612.513-7.416-.56-7.649-.793-.012-.802-.012-.802z" fill="#d9dbdc"/><path d="M125.575 59.681s1.286-1.895 1.015-3.789-2.639-2.504-5.481-2.842-13.465-.474-16.443.541-4.263 1.692-4.601 2.571.474 3.181.474 3.181.27-1.76 3.383-2.098 11.03-.474 15.293-.474 6.564.659 6.462 1.785l-.102 1.125z" fill="#ff0"/><path d="M18.96 112.289s5.064-1.514 9.599-1.306 3.858.574 3.858.574l1.102 1.5s-2.164.93-5.116 1.211-6.099.208-6.099.208l3.857 1.72s5.246-.925 6.829-1.72 2.502-.678 2.502-.678l-2.293-3.075-2.763-1.981s-.73.938-1.981.886-8.132.678-8.132.678h-1.512l.149 1.983zm93.779-37.299l.55.239v-.738c-.269.051-.497.068-.672.068-.232 0-.601.061-.913.102v.792l1.035-.463zm-1.102 55.07l.067.656s-1.041.423-1.491 1.015l-.534.732.056 2.621s-.028.479.169.62.169.141.253.591.562.226.619.592.45.846.59.846.45-.339.591 0 1.281 1.709 1.62 1.788.395.023.665-.158.226-.351.429-.351.316.056.542-.181.654-.52.62-.769.091-.362.203-.486.283-.328.283-.497-.113-.283.09-.294.5.034.699-.068a.71.71 0 0 0 .164-.119c.145.072.306.113.476.113h.317c.624 0 1.135-.55 1.135-1.221v-8.355l.683-.502.523-.408v6.804c0 .672.511 1.222 1.135 1.222h.317c.625 0 1.135-.55 1.135-1.222v-9.079l.589-.595.671-.732.645-.759.619-.789.592-.819.563-.852.534-.883.502-.917.472-.951.44-.988.407-1.022.373-1.06.339-1.098.305-1.137.269-1.177.234-1.218.198-1.26.162-1.304.124-1.349.087-1.394.052-1.478-.053-1.393-.09-1.321-.13-1.282-.166-1.245-.205-1.208-.242-1.172-.279-1.137-.314-1.101-.35-1.067-.385-1.032-.42-.998-.452-.965-.486-.932-.518-.898-.549-.866-.579-.834-.608-.803-.637-.77-.664-.741-.69-.709-.716-.681-.387-.34v-7.969l.416-.42-.103-4.906-1.709-4.454-1.746 4.103-.012 5.181.567.7v5.751l-.122-.086-.828-.543-.409-.251v-5.304l.416-.419-.103-4.906-1.709-4.455-1.738 4.083-.684-.219-.696-.478v-2.075c0-.671-.511-1.221-1.135-1.221h-.317c-.625 0-1.136.549-1.136 1.221v2.248c-.672.305-1.716 1.479-1.716 2.088s-.217 3.043-.043 3.348.347.348.347.913-.261.782.392 1.174.78.869 1.02.913v.986l-.086.039-.977.471-.952.495-.928.52-.902.545-.877.571-.849.597-.823.624-.794.65-.766.677-.737.704-.707.732-.677.76-.646.787-.614.816-.582.844-.549.871-.516.9-.481.928-.448.956-.412.983-.378 1.012-.341 1.04-.307 1.068-.27 1.096-.234 1.123-.198 1.153-.161 1.181-.124 1.209-.087 1.238-.05 1.267-.012 1.33.061 1.013.076.969.095.97.115.968.137.966.16.964.184.961.212.958.239.954.269.948.3.943.333.937.366.929.403.921.439.913.478.903.518.891.559.88.601.867.645.854.69.839.736.824.782.807.831.791.879.772.93.755.98.735 1.033.716 1.086.695 1.141.675 1.195.653.447.226zm5.898 6.108a1.26 1.26 0 0 0 .04-.147c.074-.351.259-3.552.148-3.792s-.278-.296-.443-.518l-.166-.233v-2.934l.308-.195.839-.555.438-.305v8.001c0 .396-.285.72-.634.72h-.317c-.075 0-.146-.015-.213-.042zm-.922-4.995c-.314.043-.769.26-.769.26l-.412-.499.017-1.378.245-.142.872-.525.047-.03v2.314zm-2.823-55.725l.51.222.917.428.499.249v-3.668l-.187-.231-.129.72s-.174.609-.957.957a5.69 5.69 0 0 1-.653.243v1.08zm1.872-8.544c.501.106.433.785.477 1.351s-.478 1.094-.482 1.098l-.005 2.126v.019.018l-.001.286.567.699V76.6l.783.417.802.458v-5.206l.411-.415-.096-4.609-1.052-2.819h-.317l-1.087 2.478zm-3.324-3.618h.317c.348 0 .634.324.634.721v2.743c-.159.102-.345.121-.542-.061-.404-.373-.676-.59-1.043-.573v-2.109c0-.397.285-.721.634-.721zm7.826 15.727l.184.13.785.595.616.503v-7.743l.412-.416-.097-4.608-1.052-2.819h-.317l-1.086 2.478-.012 4.898.567.699v6.283zm2.328 45.418l-.324.306-.74.654-.762.632.241-.2v7.206c0 .397.286.721.634.721h.317c.349 0 .634-.324.634-.721v-8.598z" class="B"/><path d="M112.747 76.732c9.391 3.962 16.117 10.837 16.784 24.262-.093.079-.19.159-.258.234-.215.236.149.366.285.41l.011.357c-.016.018-.296.315-.296.461s-.581.711-.645.991-.495.173-1.097.151a7.07 7.07 0 0 1-1.355-.151c-.58-.108-.344-.064-.473.129a.78.78 0 0 1-.645.345c-.279 0-.604.311-.604.311s-.235.126-.235.298-.157.078-.345-.047-.438-.266-.72-.548-.408-.298-.799-.298-.126.094-.376.313-.376-.062-.58-.062-.501.61-.814.924-.752.532-.83.752-.047.563.125.767.313.627-.047.658-.204-.313-.407-.407-.395-.101-.59-.231-.13-.216-.13-.325-.065-.542-.282-.542c-.171 0-.383-.339-.636-.566v1.036h-3.945v-.556c-.05.013-.109.024-.18.031-.584.057-.716-.264-.753-.359-.025-.062-.374-.043-.664.021v.863h-.158c.007.022.011.049.011.079 0 .246-.697.17-.942.189s-.151.302-.32.396a.65.65 0 0 1-.66-.075c-.169-.151-.396-.264-.584-.264-.172 0-.312-.142-.321-.325h-.972v-1.125h2.566l.007-.045c.083-.611-.305-.638-.305-.833s.277-.249.637-.249.609.111.609-.056c0-.077.096-.125.209-.184h.223v-.141c.052-.047.096-.103.122-.174.074-.202.062-.478-.122-.633v-.176h-1.436c-.079-.124-.087-.309-.289-.471-.359-.287-.287.431-.789.431-.32 0-.479-.015-.599.04h-.833v1.124h.183a.63.63 0 0 0-.041.165c0 .143-1.29-.072-1.613-.072s-.107-.862-.107-1.149-.036-.611-.323-.898-.43-.323-1.111-.108-.394-.503-.753-.539-.645.144-.717.539-.358.718-.358 1.185-.251 1.15-.287.79-.717-.826-.717-1.293-.286-.466-.286-.897.573-.359.86-.97-1.629-.645-1.629-.645.051-.609-.253-1.116-.406-1.421-1.32-1.421-1.319.862-2.334 1.268c-.31.124-.62-.089-.902-.443 1.309-10.576 7.124-17.245 16.155-21.126zM96.442 99.331l.024-.281-.024.281zm.052-.583l.03-.299-.03.299zm.05-.48l.048-.407-.048.407zm17.299 4.07h3.945v1.124h-3.945v-1.124zm-5.543 17.441h3.946v1.125H108.3v-1.125zm5.543 0h3.945v1.125h-3.945v-1.125zm-5.543-2.491h3.946v1.124H108.3v-1.124zm5.543 0h3.945v1.124h-3.945v-1.124zm-5.543-2.492h3.946v1.125H108.3v-1.125zm5.543 0h3.945v1.125h-3.945v-1.125zm-5.543-2.492h3.946v1.125H108.3v-1.125zm5.543 0h3.945v1.125h-3.945v-1.125zm-5.543-2.491h3.946v1.124H108.3v-1.124zm5.543 0h3.945v1.124h-3.945v-1.124zm-5.543-2.492h3.946v1.124H108.3v-1.124zm5.543 0h3.945v1.124h-3.945v-1.124zm3.327-2.492c.113-.083.256-.136.408-.06a.81.81 0 0 1 .101.06h-.509z" fill="#fff"/><path d="M108.3 82.216h3.946v1.096H108.3v-1.096zm0 17.003h3.946v1.097H108.3v-1.097zm5.543 0h3.945v1.097h-3.945v-1.097zM108.3 96.79h3.946v1.097H108.3V96.79zm5.543 0h3.945v1.097h-3.945V96.79zm-5.543-2.429h3.946v1.096H108.3v-1.096zm5.543 0h3.945v1.096h-3.945v-1.096zm-5.543-2.429h3.946v1.096H108.3v-1.096zm5.543 0h3.945v1.096h-3.945v-1.096zm-5.543-2.429h3.946v1.096H108.3v-1.096zm5.543 0h3.945v1.096h-3.945v-1.096zm-5.543-2.429h3.946v1.096H108.3v-1.096zm5.543 0h3.945v1.096h-3.945v-1.096zm-5.543-2.429h3.946v1.096H108.3v-1.096zm5.543 0h3.945v1.096h-3.945v-1.096zm0-2.429h3.945v1.096h-3.945v-1.096z" class="B"/><path d="M114.052 67.689s-1.847-.13-2.348.261-.87-.13-.914.435-.043 1.652-.043 1.826.911.392.455.696-.716.826-.672 1.044.739.347.434.565.238 1.13.238 1.13.545-.521.849-.478.329.696.783.348.737-.348.956-.348.783-.696.566-.957-.566-.304-.566-.782V69.95s.566-.739.696-1.13-.434-1.131-.434-1.131zm.535 63.679l-1.691.195s-.477.325-.65.585-.217.889-.347.868-.846-.196-.932 0-.174.195-.131.78-.173.91.196 1.236.26.542.585.412.802-.499.802-.499-.13-.108.108.282.022.954.456.889.173-.369.585-.304.715-.108.802.217.412.52.412.195-.217-.672.043-.715.369-.196.369-.391.065-.346.26-.238.499.13.499-.087.26-1.886-.022-2.103-1.344-1.322-1.344-1.322z" fill="#fff"/><path d="M84.92 138.731l-1.092 2.504-.226-.105c.184-.67.157-1.29-.081-1.863s-.598-.969-1.08-1.194c-.372-.173-.713-.212-1.024-.113s-.527.276-.648.535c-.076.163-.105.329-.088.492.025.221.115.47.272.746.115.201.412.599.89 1.195.669.834 1.066 1.511 1.192 2.031a2.25 2.25 0 0 1-.157 1.514c-.29.62-.782 1.041-1.472 1.264s-1.413.158-2.157-.189c-.234-.109-.445-.237-.631-.38s-.404-.357-.657-.635c-.142-.155-.269-.257-.382-.31-.095-.044-.212-.056-.351-.032s-.279.096-.414.215l-.202-.095 1.308-2.804.202.094c-.208.864-.179 1.608.087 2.238s.662 1.066 1.191 1.313c.409.191.787.23 1.134.121s.589-.312.727-.608c.082-.176.114-.368.098-.575s-.085-.429-.207-.666-.366-.585-.738-1.047c-.52-.648-.875-1.157-1.061-1.528s-.292-.74-.317-1.102a2.14 2.14 0 0 1 .206-1.065 2.23 2.23 0 0 1 1.357-1.208c.629-.212 1.274-.164 1.934.144.241.112.462.249.661.413.151.125.323.303.512.536s.338.374.435.42.184.049.265.016.199-.148.35-.349l.164.077zm2.756 10.021l-.08.208-4-1.535.08-.208.254.097c.221.085.416.113.581.086a.54.54 0 0 0 .33-.185c.076-.072.188-.301.336-.686l1.932-5.032c.15-.391.222-.644.218-.758s-.053-.231-.152-.353-.255-.223-.468-.305l-.255-.098.081-.21 4 1.536-.081.21-.254-.098c-.222-.085-.415-.115-.581-.088-.118.016-.229.075-.335.183-.075.075-.187.304-.334.687l-1.932 5.032c-.15.391-.223.644-.218.758s.059.232.156.354.254.225.468.307l.254.098zm11.893-4.888l-.055.218c-.27-.031-.491-.005-.661.078-.237.115-.657.487-1.261 1.112l-2.441 2.449-.48 1.923c-.102.41-.146.671-.127.783s.082.217.189.325.267.19.479.243l.445.111-.054.216-4.462-1.112.054-.217.417.104c.234.059.431.063.587.015.116-.029.219-.103.31-.222.068-.082.151-.322.251-.723l.397-1.595-1.022-3.873c-.204-.765-.366-1.225-.49-1.383s-.31-.268-.563-.336l.055-.218 3.81.95-.054.218-.17-.042c-.23-.058-.4-.066-.509-.021s-.17.102-.189.176c-.035.14.033.534.204 1.178l.78 2.992 2.03-2.043c.5-.498.775-.842.823-1.034.026-.104-.002-.205-.086-.3-.108-.131-.34-.251-.689-.359l.054-.218 2.428.605zm3.785 8.866l-.039.22-4.219-.744.039-.22.268.047c.234.042.43.032.587-.026.113-.036.209-.118.288-.244.061-.086.127-.332.199-.738l.936-5.309c.073-.412.096-.674.069-.785s-.095-.216-.216-.317-.292-.171-.518-.211l-.268-.047.039-.221 4.22.744-.039.221-.269-.047c-.233-.042-.429-.034-.586.024a.58.58 0 0 0-.295.243c-.059.089-.126.334-.197.739l-.936 5.308c-.072.412-.096.674-.069.786a.63.63 0 0 0 .22.317c.12.103.292.173.518.213l.268.047zm5.198-7.538l3.679 5.353.246-3.515c.034-.49-.013-.826-.14-1.009-.178-.246-.493-.381-.948-.405l.016-.224 2.699.188-.015.225c-.349.019-.584.06-.708.122s-.225.17-.301.324-.13.426-.157.81l-.476 6.807-.205-.014-5.052-7.194-.363 5.198c-.033.469.052.794.257.974a1.17 1.17 0 0 0 .719.3l.193.013-.015.223-2.9-.203.016-.222c.451.027.77-.044.96-.212s.299-.469.33-.904l.403-5.77-.16-.23c-.157-.228-.299-.381-.428-.46s-.316-.128-.564-.153l.015-.224 2.899.202zm12.437 8.363c.223.522.539.903.947 1.145s.906.342 1.493.301a2.82 2.82 0 0 0 .509-.083l.026.368c-.597.195-1.135.309-1.612.343a3.72 3.72 0 0 1-2.043-.41c-.614-.323-1.096-.829-1.442-1.516-1.004-.138-1.834-.569-2.492-1.285s-1.024-1.602-1.098-2.655c-.085-1.223.255-2.268 1.018-3.134s1.775-1.344 3.038-1.432c1.258-.088 2.323.244 3.195.999s1.352 1.741 1.437 2.959c.074 1.06-.18 2.006-.765 2.835s-1.32 1.349-2.211 1.565zm-1.63-7.901c-.724.05-1.255.466-1.598 1.245-.285.654-.387 1.563-.306 2.73.098 1.397.418 2.417.959 3.058.378.447.872.648 1.479.605.612-.042 1.071-.306 1.38-.793.447-.697.625-1.711.532-3.042-.092-1.31-.312-2.248-.662-2.813-.439-.712-1.033-1.043-1.784-.99zm11.016 4.023l-2.831.602-.171.852c-.056.284-.065.509-.029.679.048.226.174.372.378.438.119.042.391.033.815-.023l.047.217-2.665.567-.047-.218c.277-.105.49-.275.632-.51s.288-.685.429-1.354l1.508-7.006.113-.024 4.286 5.96c.41.565.719.908.931 1.032.161.094.365.124.614.093l.046.218-3.878.824-.046-.218.159-.034c.311-.066.521-.157.628-.27.074-.081.099-.182.074-.301-.015-.07-.043-.14-.083-.21-.016-.034-.106-.169-.272-.406l-.638-.908zm-.295-.395l-1.779-2.507-.645 3.022 2.424-.515zm9.565-4.314c.795-.07 1.384-.029 1.761.12.544.209.904.591 1.084 1.146.191.587.113 1.148-.233 1.684-.428.653-1.195 1.158-2.297 1.516l-3.961 1.287-.069-.212c.361-.117.593-.23.701-.34s.167-.224.184-.349-.042-.396-.179-.818l-1.644-5.057c-.137-.422-.248-.679-.337-.772s-.207-.149-.358-.172-.404.023-.761.139l-.07-.213 3.736-1.214c.892-.29 1.552-.416 1.975-.377a2.06 2.06 0 0 1 1.11.426 1.85 1.85 0 0 1 .649.904c.123.377.095.754-.081 1.137s-.579.769-1.21 1.165zm-2.142.523c.544-.177.924-.368 1.143-.573a1.46 1.46 0 0 0 .428-.712c.066-.266.042-.573-.07-.919s-.272-.603-.479-.781-.456-.279-.747-.313-.714.044-1.272.23l.997 3.068zm.146.449l.812 2.5.088.29c.067.206.169.346.309.418s.312.072.52.004c.306-.099.567-.258.782-.479s.348-.482.401-.786.031-.613-.072-.931c-.119-.364-.31-.665-.572-.898s-.56-.361-.893-.38-.791.068-1.375.262zm10.781-2.647l-2.623 1.223.025.869c.01.289.052.511.125.668.098.209.253.324.467.342.125.015.388-.056.789-.206l.094.202-2.469 1.151-.095-.202a1.21 1.21 0 0 0 .501-.638c.089-.26.127-.733.114-1.417l-.107-7.165.105-.049 5.517 4.843c.526.458.904.723 1.138.796.179.056.385.039.62-.048l.094.202-3.593 1.676-.094-.202.148-.069c.287-.134.472-.27.55-.405.054-.095.056-.199.004-.309a.71.71 0 0 0-.128-.186 5.27 5.27 0 0 0-.356-.335l-.826-.741zm-.376-.319l-2.298-2.042.052 3.089 2.246-1.047z" class="B"/><g stroke="#000"><path d="M103.687 57.855l3.234-4.906" fill="#333" stroke-width=".799"/><g fill="none"><path d="M109.06 57.499l3.637-5.086" stroke-width=".842"/><path d="M115.783 57.13l4.125-4.459" stroke-width=".912"/><path d="M121.747 57.074c2.23-3.344 2.23-3.79 2.23-3.79" stroke-width=".8"/></g></g><path d="M100.475 58.892l-.174-.546c-.069-.214-.155-.743-.192-1.176-.107-1.263.216-1.67 1.977-2.491 1.045-.488 2.94-1.165 3.595-1.285.519-.095.597-.261-1.004 2.109-1.109 1.641-1.236 1.789-1.595 1.847-.862.141-1.825.705-2.299 1.349-.178.241-.274.301-.307.193zm9.689-2.118c.177-.297 1.648-2.388 2.207-3.139l.561-.752 2.795.002 2.946.097c.113.071-.284.566-1.561 1.948l-1.712 1.852-2.13.002-2.665.075c-.442.061-.518.046-.441-.084h0zm15.557 1.945c-.008-.508-.053-.612-.389-.907-.411-.361-1.06-.605-2.156-.813l-.697-.161c0-.016.297-.502.66-1.079l.905-1.52c.276-.53.359-.533 1.196-.048 1.119.649 1.51 1.65 1.213 3.103-.093.457-.294 1.094-.446 1.415l-.276.585-.009-.574z" fill="#80b3ff" stroke="#80b3ff" stroke-width=".111"/></svg>