<?xml version="1.0" encoding="utf-8"?>
<!-- Generator: Adobe Illustrator 25.2.3, SVG Export Plug-In . SVG Version: 6.00 Build 0)  -->
<svg version="1.1" id="Capa_1" xmlns="http://www.w3.org/2000/svg" xmlns:xlink="http://www.w3.org/1999/xlink" x="0px" y="0px"
	 viewBox="0 0 2400 1600" style="enable-background:new 0 0 2400 1600;" xml:space="preserve">
<style type="text/css">
	.st0{fill:#FEFEFE;}
	.st1{fill:#0C4556;}
	.st2{fill:#F19121;}
	.st3{fill:#FFFFFF;}
	.st4{fill:#0D4556;}
</style>
<path id="Rectángulo-2" class="st0" d="M0,0h2400v1600H0V0z"/>
<path id="Head-1" class="st1" d="M1081,685c-22.9-59.4-46.5-119.3-76-172.8c63.1-12.4,62.8-80.1,98.2-109.9
	c39.4-28,108.2-2,113.8,51.9c54.2-1,108.5,5.4,161,19C1226.1,476,1083.1,512.6,1081,685z"/>
<path id="Wing-Blue-1-1" class="st1" d="M459,191c375.6,30,620.7,419.5,595.9,777c-42.2-37.9-106.8-49.7-152-54
	c-131.1-22.6-280.6-97.9-293-213c67.1-12.8,135.1-19.6,203-27c-68.2-13.1-138.6-13.4-207-1c-5.7-76-9.4-151.8-11-228
	c56.6,32.4,109.5,70.5,158,114c-43.3-56.2-98.3-102.7-158-141C580,317.7,545,238.6,459,191z"/>
<path id="Wing-Blue-2-1" class="st1" d="M1050.8,1019.3c95.5,97.1,99.5,268.8,32,388.2c4.6-111.4-121.9-166-224.3-168.1
	c21.1-47.8,45.5-98.5,70.1-149.1C946.1,1045.4,991.1,995.1,1050.8,1019.3z"/>
<path id="Wing-Orange-2-1" class="st2" d="M304,1339c95.1-248.9,385.1-341.8,639-350c-9.8,10.5-19.2,21.5-28,33
	c-67.6,69.6-83.7,237.4-166,277C615.8,1346.5,463.3,1123.9,304,1339z"/>
<path id="Wing-Orange-1-1" class="st2" d="M546.9,391c-45.9-18.6-89.8-31.5-138-37c48.3,22.2,96.3,43.8,145,65
	c2.3,87.4,3.9,174.6,5,262c-50.7,14.4-97.8,38.9-139,72c46.5-18.5,94.2-33.2,143-44c18,118.2,161,217.3,304.1,237
	C406.9,1072.6,2.6,552.7,384.9,209C462.3,241.1,527.5,307.9,546.9,391z"/>
<path id="CTM" class="st3" d="M998.4,840.2v-64.9l-33.1,38h-2.5l-32.9-38.1v64.9h-7.5v-70.1h-23.7v70.1h-7.5v-70.1h-26.2
	c2.4,1.5,4.7,3.2,6.8,5.1l-4.8,4.3c-3.6-3.5-7.8-6.2-12.7-8.1c-4.9-1.9-10.2-2.9-15.8-2.9c-5.3,0-10.3,0.9-14.9,2.6
	c-4.7,1.7-8.7,4.1-12.2,7.1c-3.5,3-6.2,6.6-8.2,10.7c-2,4.1-3,8.5-3,13.2c0,4.7,1,9.1,3,13.2c2,4.1,4.7,7.6,8.2,10.7
	c3.5,3,7.5,5.4,12.2,7.1c4.7,1.7,9.7,2.6,14.9,2.6c5.6,0,10.9-1,15.8-2.9c4.9-2,9.2-4.6,12.7-8.1l4.8,4.3c-2.1,1.9-4.3,3.6-6.8,5.1
	c-2.5,1.5-5.1,2.9-7.9,4c-2.8,1.1-5.8,2-8.9,2.6c-3.1,0.6-6.3,0.9-9.7,0.9c-4.2,0-8.3-0.5-12.2-1.4c-3.9-0.9-7.5-2.2-10.9-3.9
	c-3.4-1.7-6.5-3.7-9.3-6.1c-2.8-2.4-5.2-5.1-7.1-8c-2-2.9-3.5-6.1-4.6-9.4c-1.1-3.4-1.6-6.9-1.6-10.5c0-3.7,0.5-7.2,1.6-10.6
	c1.1-3.4,2.6-6.5,4.6-9.5c2-2.9,4.3-5.6,7.1-8c2.8-2.4,5.9-4.4,9.3-6.1c3.4-1.7,7.1-3,10.9-3.9c3.9-0.9,8-1.4,12.2-1.4
	c6.7,0,12.8,1.1,18.5,3.4c1.9,0.8,3.7,1.6,5.4,2.6v-4.3h59.9h5h1.4l35.3,40.6l35.2-40.6h6.5v75.9H998.4z"/>
<path id="Rectángulo-1" class="st1" d="M1199,1223h956v8h-956V1223z"/>
<g id="TEXT-copia">
	<path id="Territoriale" class="st1" d="M2153.7,922.1c-1.1,3.5-2.9,6.5-5.2,9.1c-2.4,2.6-5.4,4.6-9,6.1c-3.7,1.5-8,2.2-13.1,2.2
		h-48.7c0.5,5.7,1.9,10.9,4.1,15.8c2.2,4.8,5,9,8.3,12.6c3.4,3.6,7.2,6.4,11.6,8.3c4.3,2,9,3,13.8,3c6.5,0,12.2-1.4,17.1-4.1
		c4.9-2.8,9.2-6.5,12.9-11.3l6.2,7.2c-2,2.7-4.3,5.3-7,7.6c-2.6,2.3-5.5,4.3-8.5,6c-3.1,1.7-6.4,3-9.9,4c-3.5,1-7.2,1.5-11,1.5
		c-6.8,0-13.1-1.5-18.9-4.4c-5.8-2.9-10.9-7-15.3-12.1c-4.3-5.1-7.8-11-10.2-17.8c-2.5-6.8-3.7-14-3.7-21.7c0-7.7,1.2-15,3.7-21.8
		s5.9-12.8,10.2-17.9c4.3-5.1,9.4-9.1,15.3-12.1c5.8-3,12.1-4.5,18.9-4.5c6.7,0,12.5,0.9,17.5,2.8c5,1.9,9.2,4.4,12.5,7.5
		c3.3,3.1,5.8,6.6,7.5,10.6c1.7,4,2.5,8,2.5,12.1C2155.4,914.8,2154.8,918.6,2153.7,922.1z M2143.7,902.8c-1.2-2.7-3.1-5.1-5.6-7.2
		c-2.5-2.1-5.6-3.9-9.3-5.2c-3.7-1.3-8.1-2-13.1-2c-4.9,0-9.6,1-14,3.1c-4.4,2.1-8.3,4.9-11.7,8.6c-3.4,3.7-6.2,8-8.3,13
		c-2.2,5-3.5,10.4-4.1,16.2h47.7c3.4-0.1,6.5-0.6,9-1.5c2.6-0.9,4.7-2.2,6.3-3.9c1.7-1.6,2.9-3.6,3.7-5.8c0.8-2.2,1.2-4.7,1.2-7.4
		C2145.5,908.1,2144.9,905.4,2143.7,902.8z M2037.2,985.4c-3.1-1.1-5.5-2.9-7.2-5.3c-1.7-2.4-2.9-5.5-3.5-9.2
		c-0.6-3.8-0.9-8.3-0.9-13.5V839.2h10.3v118.1c0,3.5,0.2,6.5,0.5,8.9c0.4,2.4,1,4.4,2,5.8c1,1.5,2.4,2.5,4.2,3.2
		c1.8,0.6,4.2,0.9,7.1,0.9h3.7v10.9h-4.1C2044.3,987.1,2040.2,986.5,2037.2,985.4z M1985.7,969c-2.3,3.1-5,6-8.1,8.5
		c-3.1,2.5-6.5,4.7-10.1,6.4c-3.6,1.8-7.4,3.1-11.3,4s-7.8,1.4-11.6,1.4c-4.3,0-8.4-0.6-12.3-1.8c-3.8-1.2-7.2-3.1-10-5.7
		c-2.9-2.6-5.1-6-6.7-10.1c-1.6-4.2-2.5-9.2-2.5-15.1c0-5.7,1.2-10.5,3.7-14.2c2.5-3.7,5.8-6.7,9.9-8.8c4.1-2.1,8.7-3.6,13.9-4.5
		c5.2-0.8,10.4-1.3,15.7-1.3c1.8,0,4,0,6.5,0.1c2.5,0.1,5.1,0.2,7.8,0.3c2.7,0.1,5.3,0.2,7.8,0.3c2.5,0.1,4.7,0.2,6.6,0.2v-15
		c0-3.2-0.6-6.4-1.8-9.4c-1.2-3-3.1-5.8-5.6-8.1c-2.5-2.4-5.7-4.3-9.6-5.7c-3.9-1.4-8.6-2.2-14-2.2c-3.9,0-7.7,0.6-11.2,1.8
		c-3.5,1.2-6.6,2.8-9.3,4.8c-2.7,2-4.8,4.3-6.4,6.9c-1.6,2.6-2.4,5.4-2.4,8.2h-10.5c0.1-4.7,1.2-9,3.4-13c2.2-4,5.1-7.4,8.8-10.2
		c3.7-2.8,7.9-5,12.6-6.6c4.8-1.6,9.7-2.4,14.9-2.4c7.3,0,13.5,1,18.7,3c5.2,2,9.5,4.6,12.9,7.9c3.4,3.3,5.8,6.9,7.5,11
		c1.6,4.1,2.4,8.3,2.4,12.5v74.8h-8.7L1985.7,969z M1985.1,938c-1.8,0-4-0.1-6.5-0.2c-2.5-0.1-5-0.2-7.6-0.3
		c-2.6-0.1-5.1-0.2-7.5-0.3c-2.4-0.1-4.4-0.1-6.1-0.1c-3.7,0-7.6,0.3-11.6,0.8c-4,0.5-7.6,1.5-10.9,2.9c-3.3,1.4-6,3.4-8.1,6
		c-2.1,2.6-3.2,5.9-3.2,10c0,4.2,0.6,7.7,1.8,10.6c1.2,2.9,2.9,5.2,5,7c2.1,1.8,4.7,3.1,7.6,3.8c2.9,0.8,6.1,1.1,9.5,1.1
		c3.9,0,7.9-0.6,11.9-1.8c4-1.2,7.8-2.9,11.2-5.1c3.5-2.2,6.5-4.8,9.1-7.8c2.6-3,4.3-6.3,5.4-10V938z M1877.2,856.4
		c-2.3,0-4.1-0.8-5.6-2.5c-1.5-1.7-2.2-3.7-2.2-6.1c0-2.3,0.7-4.3,2.2-6c1.5-1.7,3.4-2.6,5.7-2.6c2.3,0,4.2,0.9,5.7,2.6
		c1.5,1.7,2.3,3.7,2.3,6c0,2.5-0.8,4.5-2.3,6.1C1881.4,855.5,1879.5,856.4,1877.2,856.4z M1827.6,894.4c-4.2,1.8-7.8,4.4-10.8,7.9
		c-3,3.5-5.4,7.8-7.1,13c-1.7,5.2-2.5,11.2-2.5,18v53.8H1797V880.7h8.7l1.1,20.5c1.5-2.9,3.4-5.7,5.7-8.2c2.2-2.5,4.8-4.7,7.7-6.5
		c2.9-1.8,6.1-3.2,9.6-4.3c3.5-1,7.2-1.5,11.3-1.5h9.5v11h-9.2C1836.4,891.7,1831.8,892.6,1827.6,894.4z M1755.9,973.7
		c-4.4,5-9.6,9-15.5,11.9c-6,2.9-12.4,4.4-19.3,4.4c-6.8,0-13.2-1.5-19.2-4.4c-6-2.9-11.1-6.9-15.5-11.9c-4.4-5-7.8-11-10.4-17.8
		c-2.5-6.8-3.8-14.2-3.8-22c0-7.8,1.2-15.1,3.7-21.9c2.5-6.8,5.9-12.8,10.4-17.8c4.4-5,9.6-9,15.5-11.9c5.9-2.9,12.3-4.4,19.2-4.4
		c6.9,0,13.3,1.5,19.3,4.4c5.9,2.9,11.1,6.9,15.5,11.9c4.4,5,7.9,11,10.4,17.8s3.7,14.1,3.7,21.9c0,7.8-1.2,15.2-3.7,22
		C1763.8,962.7,1760.3,968.6,1755.9,973.7z M1756.8,916c-2-5.5-4.8-10.3-8.3-14.3c-3.5-4-7.6-7.2-12.3-9.5c-4.7-2.3-9.7-3.5-15-3.5
		s-10.4,1.2-15,3.5c-4.7,2.3-8.7,5.5-12.2,9.5c-3.5,4-6.2,8.8-8.3,14.3c-2,5.5-3,11.5-3,17.9c0,6.4,1,12.4,3,18
		c2,5.5,4.8,10.3,8.3,14.3c3.5,4,7.6,7.2,12.3,9.5c4.7,2.3,9.7,3.4,15.1,3.4s10.4-1.1,15-3.4c4.7-2.3,8.7-5.4,12.2-9.5
		c3.5-4,6.2-8.8,8.3-14.3c2-5.5,3-11.5,3-18C1759.8,927.5,1758.8,921.5,1756.8,916z M1616.5,962.8c1.2,4,2.8,7.2,4.9,9.6
		c2,2.3,4.3,4,7,4.9c2.6,0.9,5.3,1.4,8.1,1.4h16.2l-0.1,10.4h-17c-4.5,0-8.6-0.7-12.4-2.2c-3.8-1.4-7.1-3.8-9.9-7
		c-2.8-3.3-5-7.5-6.6-12.9c-1.6-5.3-2.4-11.9-2.4-19.6v-55.9h-16.6v-10l16.4-1.8l2.4-30.8l8-0.1v31.8h34.2v10.8h-34.2v55.9
		C1614.7,953.6,1615.3,958.8,1616.5,962.8z M1558.7,856.4c-2.3,0-4.1-0.8-5.6-2.5c-1.5-1.7-2.2-3.7-2.2-6.1c0-2.3,0.7-4.3,2.2-6
		c1.5-1.7,3.4-2.6,5.7-2.6c2.3,0,4.2,0.9,5.7,2.6c1.5,1.7,2.3,3.7,2.3,6c0,2.5-0.8,4.5-2.3,6.1
		C1562.9,855.5,1561,856.4,1558.7,856.4z M1509.1,894.4c-4.2,1.8-7.8,4.4-10.8,7.9c-3,3.5-5.4,7.8-7.1,13c-1.7,5.2-2.5,11.2-2.5,18
		v53.8h-10.3V880.7h8.7l1.1,20.5c1.5-2.9,3.4-5.7,5.7-8.2c2.2-2.5,4.8-4.7,7.7-6.5c2.9-1.8,6.1-3.2,9.6-4.3c3.5-1,7.2-1.5,11.3-1.5
		h9.5v11h-9.2C1517.9,891.7,1513.3,892.6,1509.1,894.4z M1434.1,894.4c-4.2,1.8-7.8,4.4-10.8,7.9c-3,3.5-5.4,7.8-7.1,13
		c-1.7,5.2-2.5,11.2-2.5,18v53.8h-10.3V880.7h8.7l1.1,20.5c1.5-2.9,3.4-5.7,5.7-8.2c2.2-2.5,4.8-4.7,7.7-6.5
		c2.9-1.8,6.1-3.2,9.6-4.3c3.5-1,7.2-1.5,11.3-1.5h9.5v11h-9.2C1442.9,891.7,1438.3,892.6,1434.1,894.4z M1372.3,931.2
		c-2.4,2.6-5.4,4.6-9,6.1c-3.7,1.5-8,2.2-13.1,2.2h-48.7c0.5,5.7,1.9,10.9,4.1,15.8c2.2,4.8,5,9,8.3,12.6c3.4,3.6,7.2,6.4,11.6,8.3
		c4.3,2,9,3,13.8,3c6.5,0,12.2-1.4,17.1-4.1c4.9-2.8,9.2-6.5,12.9-11.3l6.2,7.2c-2,2.7-4.3,5.3-7,7.6c-2.6,2.3-5.5,4.3-8.5,6
		c-3.1,1.7-6.4,3-9.9,4c-3.5,1-7.2,1.5-11,1.5c-6.8,0-13.1-1.5-18.9-4.4c-5.8-2.9-10.9-7-15.3-12.1c-4.3-5.1-7.8-11-10.2-17.8
		c-2.5-6.8-3.7-14-3.7-21.7c0-7.7,1.2-15,3.7-21.8c2.5-6.8,5.9-12.8,10.2-17.9c4.3-5.1,9.4-9.1,15.3-12.1c5.8-3,12.1-4.5,18.9-4.5
		c6.7,0,12.5,0.9,17.5,2.8c5,1.9,9.2,4.4,12.5,7.5c3.3,3.1,5.8,6.6,7.5,10.6c1.7,4,2.5,8,2.5,12.1c0,4-0.6,7.7-1.7,11.2
		C1376.4,925.6,1374.6,928.6,1372.3,931.2z M1367.5,902.8c-1.2-2.7-3.1-5.1-5.6-7.2c-2.5-2.1-5.6-3.9-9.3-5.2c-3.7-1.3-8.1-2-13.1-2
		c-4.9,0-9.6,1-14,3.1c-4.4,2.1-8.3,4.9-11.7,8.6c-3.4,3.7-6.2,8-8.3,13c-2.2,5-3.5,10.4-4.1,16.2h47.7c3.4-0.1,6.5-0.6,9-1.5
		c2.6-0.9,4.7-2.2,6.3-3.9c1.7-1.6,2.9-3.6,3.7-5.8c0.8-2.2,1.2-4.7,1.2-7.4C1369.3,908.1,1368.7,905.4,1367.5,902.8z M1248.1,987.1
		h-10.5V855.2h-40.3v-10.9h91.3v10.9h-40.4V987.1z M1563.8,987.1h-10.4V880.7h10.4V987.1z M1882.4,987.1H1872V880.7h10.4V987.1z"/>
	<g id="Grupo-2">
		<path id="de" class="st1" d="M1397.1,1080.3c-1.1,3.5-2.9,6.5-5.2,9.1c-2.4,2.6-5.4,4.6-9,6.1c-3.7,1.5-8,2.2-13.1,2.2h-48.7
			c0.5,5.7,1.9,10.9,4.1,15.8c2.2,4.8,5,9,8.3,12.6c3.4,3.6,7.2,6.4,11.6,8.3c4.3,2,9,3,13.8,3c6.5,0,12.2-1.4,17.1-4.1
			c4.9-2.8,9.2-6.5,12.9-11.3l6.2,7.2c-2,2.7-4.3,5.2-7,7.6c-2.6,2.3-5.5,4.3-8.5,6c-3.1,1.7-6.4,3-9.9,4c-3.5,1-7.2,1.5-11,1.5
			c-6.8,0-13.1-1.5-18.9-4.4c-5.8-2.9-10.9-7-15.3-12.1c-4.3-5.1-7.8-11-10.2-17.8c-2.5-6.8-3.7-14-3.7-21.7c0-7.7,1.2-15,3.7-21.8
			c2.5-6.8,5.9-12.8,10.2-17.9c4.3-5.1,9.4-9.1,15.3-12.1c5.8-3,12.1-4.5,18.9-4.5c6.7,0,12.5,0.9,17.5,2.8c5,1.9,9.2,4.4,12.5,7.5
			c3.3,3.1,5.8,6.6,7.5,10.6c1.7,4,2.5,8,2.5,12.1C1398.8,1073,1398.2,1076.8,1397.1,1080.3z M1387.1,1061c-1.2-2.7-3.1-5.1-5.6-7.2
			c-2.5-2.1-5.6-3.9-9.3-5.2c-3.7-1.3-8.1-2-13.1-2c-4.9,0-9.6,1-14,3.1c-4.4,2.1-8.3,4.9-11.7,8.6c-3.4,3.7-6.2,8-8.3,13
			c-2.2,5-3.5,10.4-4.1,16.2h47.7c3.4-0.1,6.5-0.6,9-1.5c2.6-0.9,4.7-2.2,6.3-3.9c1.7-1.6,2.9-3.6,3.7-5.8c0.8-2.2,1.2-4.7,1.2-7.4
			C1388.9,1066.2,1388.3,1063.6,1387.1,1061z M1273.3,1123c-1.9,3.6-4.2,7-7,10c-2.7,3-5.8,5.7-9.2,7.9c-3.4,2.2-7.1,4-11,5.2
			c-3.9,1.3-8.1,1.9-12.4,1.9c-6.8,0-13.2-1.5-19.1-4.4c-5.9-2.9-11-6.9-15.3-11.9c-4.3-5-7.7-11-10.2-17.8
			c-2.5-6.8-3.7-14.2-3.7-22c0-7.8,1.2-15.1,3.7-21.9c2.4-6.8,5.8-12.8,10.1-17.8c4.3-5,9.4-9,15.3-11.9c5.9-2.9,12.2-4.4,19.1-4.4
			c4.3,0,8.4,0.6,12.3,1.8c3.9,1.2,7.5,2.9,10.8,5c3.3,2.1,6.4,4.7,9.1,7.7c2.7,3,5.1,6.3,7.1,9.9v-63.1h10.3v147.9h-9.1
			L1273.3,1123z M1270.3,1074.2c-2-5.5-4.8-10.3-8.3-14.3c-3.5-4-7.6-7.2-12.3-9.5c-4.7-2.3-9.7-3.5-15.1-3.5s-10.4,1.2-15.1,3.5
			c-4.7,2.3-8.8,5.5-12.3,9.5c-3.5,4-6.2,8.8-8.3,14.3c-2,5.5-3,11.5-3,17.9c0,6.4,1,12.4,3,18c2,5.5,4.8,10.3,8.3,14.4
			c3.5,4.1,7.6,7.2,12.3,9.5c4.7,2.3,9.7,3.4,15.1,3.4s10.4-1.1,15.1-3.4c4.7-2.3,8.8-5.4,12.3-9.5c3.5-4.1,6.3-8.8,8.3-14.3
			c2-5.5,3-11.5,3-18C1273.3,1085.7,1272.3,1079.7,1270.3,1074.2z"/>
		<path id="Martinique" class="st4" d="M2117.9,1112.8c0,9.7,5.1,14.9,15.1,14.9c5.2,0,8.8-1.7,11.5-6.2h23.1
			c-3.8,15.9-19,23.1-34.5,23.1c-22.5,0-39.2-12.6-39.2-35.8c0-22.4,15.5-35.9,37.5-35.9c23.5,0,37.1,14.4,37.1,37.3v2.5H2117.9z
			 M2132.6,1088.4c-7,0-12.8,3.7-14.3,10.6h27.9C2145,1092.6,2139,1088.4,2132.6,1088.4z M2047.5,1144.6c-20.3,0-36.1-6.8-36.1-29
			v-40.5h24v35.9c0,8.5,2.1,14.5,12,14.5c9.9,0,12-6,12-14.5v-35.9h24v40.5C2083.6,1137.8,2067.9,1144.6,2047.5,1144.6z
			 M1972.8,1136c-5,5.9-13.2,8.6-21,8.6c-20.2,0-33.9-16.2-33.9-35.6c0-19.1,14.1-36,34.2-36c7.9,0,16.2,3.1,20.5,9.8h0.3v-7.6h24
			v100.8h-24V1136z M1958.1,1093.7c-9.8,0-15.5,6.9-15.5,15.2c0,8.5,5.7,15.1,15.5,15.1c9.8,0,15.5-6.6,15.5-15.1
			C1973.6,1100.6,1967.9,1093.7,1958.1,1093.7z M1893.9,1062.7c-7.4,0-13.5-6-13.5-13.4s6.1-13.4,13.5-13.4c7.4,0,13.5,6,13.5,13.4
			S1901.3,1062.7,1893.9,1062.7z M1842,1109.6c0-6.4,1.1-17.7-10.8-17.7c-9.8,0-12.5,7.2-12.5,15.6v34.9h-24v-67.2h24v8.6h0.3
			c5.5-8.1,12.3-10.9,21.7-10.9c18.2,0,25.5,11.4,25.5,27.9v41.5h-24V1109.6z M1766.7,1062.7c-7.4,0-13.5-6-13.5-13.4
			s6.1-13.4,13.5-13.4s13.5,6,13.5,13.4S1774.1,1062.7,1766.7,1062.7z M1733.4,1142.4h-24v-47.6h-7.8v-19.7h7.8V1055h24v20.2h13.6
			v19.7h-13.6V1142.4z M1685.6,1095c-13.3,0-16.6,8.8-16.6,20.3v27.1h-24v-67.2h24v11h0.3c4.6-8.3,12.5-11.9,21.9-11.9h4.6v22.9
			C1692.5,1095.4,1689.3,1095,1685.6,1095z M1604.9,1134.9h-0.3c-4.2,6.7-12.5,9.7-20.5,9.7c-20.1,0-34.2-16.6-34.2-35.9
			c0-19.3,13.9-35.8,33.9-35.8c7.8,0,16,2.9,21,8.8v-6.6h24v67.2h-24V1134.9z M1590.3,1093.7c-9.8,0-15.5,6.9-15.5,15.2
			c0,8.5,5.7,15.1,15.5,15.1c9.8,0,15.5-6.6,15.5-15.1C1605.7,1100.6,1600,1093.7,1590.3,1093.7z M1511.3,1085.5h-0.3l-23.9,56.9
			h-10.3l-22.8-56.9h-0.3l-8.3,56.9h-25.8l16.9-98.8h25.5l20.2,52.8l21.4-52.8h25.8l15.1,98.8h-25.9L1511.3,1085.5z M1778.7,1142.4
			h-24v-67.2h24V1142.4z M1905.9,1142.4h-24v-67.2h24V1142.4z"/>
	</g>
	<path id="Collectivité" class="st1" d="M2173.4,743.1c-1.1,3.5-2.9,6.5-5.2,9.1c-2.4,2.6-5.4,4.6-9,6.1c-3.7,1.5-8,2.2-13.1,2.2
		h-48.7c0.5,5.7,1.9,10.9,4.1,15.8c2.2,4.8,5,9,8.3,12.6c3.4,3.6,7.2,6.4,11.6,8.3c4.3,2,9,3,13.8,3c6.5,0,12.2-1.4,17.1-4.1
		c4.9-2.8,9.2-6.5,12.9-11.3l6.2,7.2c-2,2.7-4.3,5.3-7,7.6c-2.6,2.3-5.5,4.3-8.5,6c-3.1,1.7-6.4,3-9.9,4c-3.5,1-7.2,1.5-11,1.5
		c-6.8,0-13.1-1.5-18.9-4.4c-5.8-2.9-10.9-7-15.3-12.1c-4.3-5.1-7.8-11-10.2-17.8c-2.5-6.8-3.7-14-3.7-21.7c0-7.7,1.2-15,3.7-21.8
		c2.5-6.8,5.9-12.8,10.2-17.9c4.3-5.1,9.4-9.1,15.3-12.1c5.8-3,12.1-4.5,18.9-4.5c6.7,0,12.5,0.9,17.5,2.8c5,1.9,9.2,4.4,12.5,7.5
		c3.3,3.1,5.8,6.6,7.5,10.6c1.7,4,2.5,8,2.5,12.1C2175,735.9,2174.5,739.6,2173.4,743.1z M2163.3,723.8c-1.2-2.7-3.1-5.1-5.6-7.2
		c-2.5-2.1-5.6-3.9-9.3-5.2c-3.7-1.3-8.1-2-13.1-2c-4.9,0-9.6,1-14,3.1c-4.4,2.1-8.3,4.9-11.7,8.6c-3.4,3.7-6.2,8-8.3,13
		c-2.2,5-3.5,10.4-4.1,16.2h47.7c3.5-0.1,6.5-0.6,9-1.5c2.6-0.9,4.7-2.2,6.3-3.9c1.7-1.6,2.9-3.6,3.7-5.8c0.8-2.2,1.2-4.7,1.2-7.4
		C2165.1,729.1,2164.5,726.5,2163.3,723.8z M2134,687.6l14.9-28.2l8.2,3.4l-15.1,24.9H2134z M2031.2,783.8c1.2,4,2.8,7.2,4.9,9.6
		c2,2.3,4.3,4,7,4.9c2.6,0.9,5.3,1.4,8.1,1.4h16.2l-0.1,10.4h-17c-4.5,0-8.6-0.7-12.4-2.2c-3.8-1.4-7.1-3.8-9.9-7
		c-2.8-3.3-5-7.5-6.6-12.9c-1.6-5.3-2.4-11.9-2.4-19.6v-55.9h-16.6v-10l16.4-1.8l2.4-30.8l8-0.1v31.8h34.2v10.8h-34.2v55.9
		C2029.4,774.7,2030,779.8,2031.2,783.8z M1973.3,677.4c-2.3,0-4.1-0.8-5.6-2.5c-1.5-1.7-2.2-3.7-2.2-6.1c0-2.3,0.7-4.3,2.2-6
		c1.5-1.7,3.4-2.6,5.7-2.6c2.3,0,4.2,0.9,5.7,2.6c1.5,1.7,2.3,3.7,2.3,6c0,2.5-0.8,4.5-2.3,6.1
		C1977.6,676.5,1975.7,677.4,1973.3,677.4z M1896.1,808.1l-39.4-106.4h11.1l33.2,90.8l33.3-90.8h11.1L1906,808.1H1896.1z
		 M1827.3,677.4c-2.3,0-4.1-0.8-5.6-2.5c-1.5-1.7-2.2-3.7-2.2-6.1c0-2.3,0.7-4.3,2.2-6c1.5-1.7,3.4-2.6,5.7-2.6
		c2.3,0,4.1,0.9,5.7,2.6c1.5,1.7,2.3,3.7,2.3,6c0,2.5-0.8,4.5-2.3,6.1C1831.6,676.5,1829.7,677.4,1827.3,677.4z M1759.5,783.8
		c1.2,4,2.8,7.2,4.9,9.6c2,2.3,4.3,4,7,4.9c2.6,0.9,5.3,1.4,8.1,1.4h16.2l-0.1,10.4h-17c-4.5,0-8.6-0.7-12.4-2.2
		c-3.8-1.4-7.1-3.8-9.9-7c-2.8-3.3-5-7.5-6.6-12.9c-1.6-5.3-2.4-11.9-2.4-19.6v-55.9h-16.6v-10l16.4-1.8l2.4-30.8l8-0.1v31.8h34.2
		v10.8h-34.2v55.9C1757.7,774.7,1758.3,779.8,1759.5,783.8z M1659.1,787.8c3.6,3.9,7.7,6.9,12.3,9c4.6,2.1,9.5,3.1,14.5,3.1
		c11.1,0,20.1-3.9,27-11.7l6.5,7.9c-5.1,5.4-10.6,9.2-16.5,11.5c-5.9,2.3-11.6,3.3-17.2,3.2c-6.9-0.2-13.3-1.8-19.2-4.7
		c-5.9-2.9-11.1-6.9-15.5-11.9c-4.4-5-7.9-10.9-10.4-17.6c-2.5-6.8-3.7-14-3.7-21.8c0-7.8,1.2-15.1,3.7-21.9
		c2.5-6.8,5.9-12.8,10.4-17.8c4.4-5,9.6-9,15.5-11.9c5.9-2.9,12.3-4.4,19.2-4.4c5.5,0,11.2,1.2,17.1,3.5c5.9,2.3,11.3,6.1,16.5,11.3
		l-6.5,7.9c-3.5-3.8-7.5-6.7-12.1-8.8c-4.6-2.1-9.6-3.1-14.9-3.1c-5,0-9.8,1.1-14.5,3.2c-4.6,2.1-8.7,5.2-12.3,9.1
		c-3.6,3.9-6.4,8.7-8.6,14.2c-2.1,5.6-3.2,11.8-3.2,18.6c0,6.9,1.1,13.2,3.2,18.7C1652.7,779.2,1655.5,783.9,1659.1,787.8z
		 M1612.2,752.2c-2.4,2.6-5.4,4.6-9,6.1c-3.7,1.5-8,2.2-13.1,2.2h-48.7c0.5,5.7,1.9,10.9,4.1,15.8c2.2,4.8,5,9,8.3,12.6
		c3.4,3.6,7.2,6.4,11.6,8.3c4.3,2,9,3,13.8,3c6.5,0,12.2-1.4,17.1-4.1c4.9-2.8,9.2-6.5,12.9-11.3l6.2,7.2c-2,2.7-4.3,5.3-7,7.6
		c-2.6,2.3-5.5,4.3-8.5,6c-3.1,1.7-6.4,3-9.9,4c-3.5,1-7.2,1.5-11,1.5c-6.8,0-13.1-1.5-18.9-4.4c-5.8-2.9-10.9-7-15.3-12.1
		c-4.3-5.1-7.8-11-10.2-17.8c-2.5-6.8-3.7-14-3.7-21.7c0-7.7,1.2-15,3.7-21.8c2.5-6.8,5.9-12.8,10.2-17.9c4.3-5.1,9.4-9.1,15.3-12.1
		c5.8-3,12.1-4.5,18.9-4.5c6.7,0,12.5,0.9,17.5,2.8c5,1.9,9.2,4.4,12.5,7.5c3.3,3.1,5.8,6.6,7.5,10.6c1.7,4,2.5,8,2.5,12.1
		c0,4-0.6,7.7-1.7,11.2C1616.3,746.6,1614.5,749.7,1612.2,752.2z M1607.4,723.8c-1.2-2.7-3.1-5.1-5.6-7.2c-2.5-2.1-5.6-3.9-9.3-5.2
		c-3.7-1.3-8.1-2-13.1-2c-4.9,0-9.6,1-14,3.1c-4.4,2.1-8.3,4.9-11.7,8.6c-3.4,3.7-6.2,8-8.3,13c-2.2,5-3.5,10.4-4.1,16.2h47.7
		c3.4-0.1,6.5-0.6,9-1.5c2.6-0.9,4.7-2.2,6.3-3.9c1.7-1.6,2.9-3.6,3.7-5.8c0.8-2.2,1.2-4.7,1.2-7.4
		C1609.2,729.1,1608.6,726.5,1607.4,723.8z M1500.9,806.4c-3.1-1.1-5.5-2.9-7.2-5.3c-1.7-2.4-2.9-5.5-3.5-9.2
		c-0.6-3.8-0.9-8.3-0.9-13.5V660.3h10.3v118.1c0,3.5,0.2,6.5,0.5,8.9c0.4,2.4,1,4.4,2,5.8c1,1.5,2.4,2.5,4.2,3.1
		c1.8,0.6,4.2,0.9,7.1,0.9h3.7v10.9h-4.1C1508,808.1,1504,807.6,1500.9,806.4z M1452.1,806.4c-3.1-1.1-5.5-2.9-7.2-5.3
		c-1.7-2.4-2.9-5.5-3.5-9.2c-0.6-3.8-0.9-8.3-0.9-13.5V660.3h10.3v118.1c0,3.5,0.2,6.5,0.5,8.9c0.4,2.4,1,4.4,2,5.8
		c1,1.5,2.4,2.5,4.2,3.1c1.8,0.6,4.2,0.9,7.1,0.9h3.7v10.9h-4.1C1459.2,808.1,1455.1,807.6,1452.1,806.4z M1399.1,794.7
		c-4.4,5-9.6,9-15.5,11.9c-6,2.9-12.4,4.4-19.3,4.4c-6.8,0-13.2-1.5-19.2-4.4c-5.9-2.9-11.1-6.9-15.5-11.9c-4.4-5-7.8-11-10.4-17.8
		c-2.5-6.8-3.8-14.2-3.8-22c0-7.8,1.2-15.1,3.7-21.9c2.5-6.8,5.9-12.8,10.4-17.8c4.4-5,9.6-9,15.5-11.9c5.9-2.9,12.3-4.4,19.2-4.4
		c6.9,0,13.3,1.5,19.3,4.4c5.9,2.9,11.1,6.9,15.5,11.9c4.4,5,7.9,11,10.4,17.8c2.5,6.8,3.7,14.1,3.7,21.9c0,7.8-1.2,15.2-3.7,22
		C1407,783.7,1403.5,789.6,1399.1,794.7z M1400,737c-2-5.5-4.8-10.3-8.3-14.3c-3.5-4-7.6-7.2-12.3-9.5c-4.7-2.3-9.7-3.5-15-3.5
		s-10.4,1.2-15,3.5c-4.7,2.3-8.7,5.5-12.2,9.5c-3.5,4-6.2,8.8-8.3,14.3c-2,5.5-3,11.5-3,17.9c0,6.4,1,12.4,3,18
		c2,5.5,4.8,10.3,8.3,14.3c3.5,4,7.6,7.2,12.3,9.5c4.7,2.3,9.7,3.4,15.1,3.4s10.4-1.1,15-3.4c4.7-2.3,8.7-5.4,12.2-9.5
		c3.5-4,6.2-8.8,8.3-14.3c2-5.5,3-11.5,3-18C1403,748.5,1402,742.6,1400,737z M1204.3,781.4c4.9,5.7,10.6,10.1,17.2,13.4
		c6.6,3.3,13.6,4.9,21,4.9c7.9,0,15.3-1.8,22.3-5.5c6.9-3.7,12.9-8.7,17.9-15.2l6.7,8.1c-2.9,3.5-6.1,6.7-9.6,9.6
		c-3.5,2.9-7.2,5.4-11.2,7.5c-4,2.1-8.1,3.7-12.5,4.8c-4.4,1.2-8.9,1.7-13.6,1.7c-6,0-11.7-0.9-17.1-2.6c-5.5-1.7-10.6-4.2-15.4-7.4
		c-4.8-3.2-9.1-7-13.1-11.6c-3.9-4.5-7.3-9.5-10-15c-2.8-5.5-4.9-11.4-6.5-17.7c-1.5-6.3-2.3-12.9-2.3-19.8c0-6.9,0.8-13.6,2.3-20
		c1.5-6.4,3.7-12.3,6.5-17.8c2.8-5.5,6.1-10.5,10-15c3.9-4.5,8.3-8.4,13.1-11.6c4.8-3.2,9.9-5.7,15.4-7.4c5.5-1.7,11.2-2.6,17.1-2.6
		c9.4,0,18.1,2.1,26,6.4c7.9,4.3,14.9,10,20.8,17.2l-6.7,8.1c-5-6.5-10.9-11.6-17.8-15.2c-6.9-3.6-14.3-5.5-22.3-5.5
		c-7.4,0-14.4,1.6-21,4.9c-6.6,3.3-12.3,7.7-17.2,13.4c-4.9,5.7-8.7,12.4-11.6,20.1c-2.8,7.7-4.2,16-4.2,24.9
		c0,8.8,1.4,17.1,4.2,24.8C1195.5,769.1,1199.4,775.8,1204.3,781.4z M1832.5,808.1h-10.4V701.7h10.4V808.1z M1978.5,808.1h-10.4
		V701.7h10.4V808.1z"/>
</g>
</svg>
