<?xml version="1.0" encoding="UTF-8" standalone="no"?>
<svg
   xmlns:dc="http://purl.org/dc/elements/1.1/"
   xmlns:cc="http://creativecommons.org/ns#"
   xmlns:rdf="http://www.w3.org/1999/02/22-rdf-syntax-ns#"
   xmlns:svg="http://www.w3.org/2000/svg"
   xmlns="http://www.w3.org/2000/svg"
   xmlns:sodipodi="http://sodipodi.sourceforge.net/DTD/sodipodi-0.dtd"
   xmlns:inkscape="http://www.inkscape.org/namespaces/inkscape"
   version="1.0"
   width="811.47394"
   height="1400"
   id="svg2"
   inkscape:version="0.91 r13725"
   sodipodi:docname="Flag_of_Sao_Tome_and_Principe.svg">
  <metadata
     id="metadata29">
    <rdf:RDF>
      <cc:Work
         rdf:about="">
        <dc:format>image/svg+xml</dc:format>
        <dc:type
           rdf:resource="http://purl.org/dc/dcmitype/StillImage" />
        <dc:title></dc:title>
      </cc:Work>
    </rdf:RDF>
  </metadata>
  <defs
     id="defs27">
    <clipPath
       clipPathUnits="userSpaceOnUse"
       id="clipPath4286">
      <path
         inkscape:connector-curvature="0"
         id="path4288"
         d="m 864.17448,6e-5 c -3.20253,0 -3.20308,3.69585 -0.73959,4.43491 2.46348,0.73904 3.69578,-4.43491 0.73959,-4.43491 z m -8.13021,2.46355 -2.46354,0.73959 -0.2474,5.66666 -2.95573,5.17187 -5.91145,1.97135 -8.6224,-2.46355 -1.47916,0.98437 0,6.15887 -2.46355,4.68229 1.97136,5.66406 -0.49219,4.43491 3.94271,6.65104 -5.17448,5.91406 -0.73959,4.67969 2.46355,7.88281 -1.23177,3.94271 -3.94011,4.6797 -1.23177,5.66667 -5.17448,2.46352 -5.41927,0.49219 -2.21615,0.2474 -3.45052,-4.92707 -4.43489,-0.4948 -3.69532,2.71093 -1.72396,4.1875 1.23177,5.91146 4.4349,0.49479 -0.98438,6.40366 4.18751,10.10156 -1.23177,11.82293 2.95573,5.17447 4.18749,0 2.46355,-5.41927 2.95573,-1.47918 3.69531,1.97135 0.2474,0.49219 7.14323,8.86979 8.6224,0.98437 2.71093,4.43489 2.46353,3.69533 11.57814,-1.97137 2.21614,2.46354 -0.73958,4.4349 0.73958,2.46354 2.21875,0 1.96875,-2.71094 -2.46354,-12.07031 1.23176,-3.20312 8.13022,-7.88282 4.92708,4.1875 2.95573,0.49219 1.23177,-1.23177 0.73959,-2.46354 -1.97136,-3.20052 2.95573,-7.14584 1.47916,-14.04166 -3.20312,-6.65104 0,-3.44792 1.72396,-3.45052 11.33334,-9.11458 3.20312,1.23178 3.20052,1.23177 1.97136,-0.49219 3.9427,-5.17448 3.69531,-9.11458 -2.71093,-2.46354 -3.69531,0.98697 0.98697,-6.40625 -0.73958,-1.97135 -8.1302,1.23177 -2.95574,-5.66406 -1.97136,-0.24741 -3.20312,3.69532 -8.1276,2.21614 -0.98698,-0.98438 -0.24479,-1.23176 7.14323,-5.91146 1.97136,-5.17448 7.88281,-2.70835 3.20312,-7.63801 0.73697,-0.24739 2.46355,-1.47657 3.69531,0.49219 3.94272,3.20313 0.24738,0 1.96876,-0.24741 0.49479,-8.62239 -0.98699,-2.46355 -6.65104,-1.97134 -6.40624,-6.89583 -3.20052,-0.2474 -5.91406,5.17448 -1.23178,0.98438 -7.88281,-0.98438 -5.17188,-4.1875 -11.57812,1.23177 -6.40625,-5.17449 z m 28.45052,145.60416 c -0.24779,0.0236 -0.458,0.17384 -0.61198,0.48177 -1.23174,2.46349 1.23183,8.62027 3.69531,6.89583 2.15556,-1.50888 -1.34879,-7.54263 -3.08333,-7.3776 z m -120.58594,107.64322 -2.21614,0.49219 -1.23178,1.23177 0,2.95574 1.72396,2.21614 2.95574,0.98698 1.47916,-0.98698 0.73958,-1.96874 -0.98697,-3.45054 -2.46355,-1.47656 z m 7.14584,31.28648 -2.95573,1.96875 -0.4948,2.95833 1.23177,2.95573 2.71095,1.23176 2.46353,-0.49218 1.47918,-1.97135 -0.4948,-3.45052 -1.96875,-2.70833 -1.97135,-0.49219 z m -508.46356,762.69533 -5.17448,2.2161 -8.375,0.2475 -8.13022,3.2031 -2.95572,-0.4948 -3.20313,-3.2005 -0.98437,0 -2.46354,0.4922 -2.21875,2.7083 -7.39063,-0.9844 -5.66406,5.9115 -3.69531,5.6666 -1.47917,2.4636 -19.46094,16.7526 -3.69531,3.2005 -3.94271,4.4349 -4.43229,0.987 -6.40625,-0.7396 -11.08594,8.8672 -8.86719,6.4062 -5.42187,6.4037 -7.14323,2.7109 -5.66667,5.6667 -9.11458,5.9114 -2.46354,3.9428 -3.94011,18.7213 -3.94271,8.375 -4.67968,4.9271 -4.1875,1.7266 -2.21875,6.1588 -0.49219,8.8671 -3.4479,5.9115 1.47655,6.8984 -1.23176,4.6797 1.47915,6.4063 -1.97133,7.1432 2.71091,7.638 -1.97133,6.8984 5.17186,8.375 5.42187,9.1146 2.46094,14.534 -0.24479,9.3619 0.98437,0.7395 4.1875,3.2032 0.73958,2.2161 -1.23177,3.6953 5.41927,3.9427 0.98698,3.448 0.98438,3.2031 -1.72396,6.1588 7.88281,4.9271 6.15886,0 3.69531,2.4636 1.47917,4.6796 -1.97136,6.6511 1.47656,18.4766 -1.47656,9.3619 -4.43489,2.2162 -0.73959,2.7111 3.20313,7.143 0,1.2319 -0.2474,7.638 1.23177,4.1874 4.19011,1.9688 9.60677,-6.1562 4.1875,-2.711 0.24739,-8.3749 2.70834,-2.2189 2.21875,0.2475 1.72396,2.9556 0.98437,5.4193 3.69531,1.9714 6.65104,-1.4792 1.97136,-8.8671 5.66666,-6.1589 0.49219,-3.9426 -1.97135,-9.8542 1.47916,-5.6642 2.70834,-3.6953 3.20312,-1.7265 5.91407,0.4949 0.73697,0.9842 5.66667,6.6512 6.40626,-2.9558 2.70833,-3.9427 2.46354,-0.4921 3.20313,1.9713 3.9427,-0.4922 6.15886,-10.1015 4.67968,-4.4324 2.46354,-0.7396 5.91147,-1.724 2.71093,-3.9427 9.11459,2.4636 1.97135,-2.9558 0,-8.375 -0.49219,-3.6953 0,-0.2474 -4.19011,-1.7239 0.2474,-4.6823 5.66667,-1.4766 4.43229,-4.6823 5.17448,-1.7239 4.67968,-9.6068 1.97136,-0.7395 -0.24478,-4.9271 1.47656,-1.2318 4.43489,1.2318 1.23177,-2.2161 -2.46354,-4.4349 0.98437,-2.2162 5.66667,0.2448 1.47917,-1.4765 -0.2474,-5.4193 1.72396,-2.2188 7.14584,-9.3619 2.70832,-5.1719 2.95573,-1.2318 5.4193,-0.2474 3.94271,-2.4635 10.59375,-11.8229 2.95573,-6.6537 5.66667,-5.664 3.6953,-5.1745 1.47656,-4.4349 -3.20312,-7.6354 1.97135,-6.4062 3.69532,-3.6953 -3.94011,-7.8828 2.46355,-6.8985 2.46353,-2.2161 5.41928,-0.4922 0.49219,-0.7396 1.72396,-2.4635 -0.73959,-2.2162 -6.40365,-5.914 -3.20312,-10.8386 -5.41927,-2.2161 -1.72396,-3.9427 1.47656,-7.3907 0.2474,-11.8255 -1.72396,-1.9687 -2.95573,0.4921 -2.21875,3.2032 -2.95573,1.2318 -3.20312,-1.7266 -1.72396,-3.6927 1.97135,-5.9141 0.73958,-2.2161 -2.21874,-3.6953 -6.89844,2.4635 -2.95574,-3.2031 0.73959,-2.711 6.40625,-9.1146 0,-0.2447 -0.49478,-1.724 -4.6797,-1.9713 -8.62242,-1.724 -4.43489,-4.6823 -2.95573,-6.4037 -1.23176,-2.7109 -3.44792,-1.9713 -8.6224,0 -8.86979,-5.9115 -4.43229,-0.4922 z m 41.06512,1.8776 c -2.60286,-0.2439 -7.59275,4.6349 -5.59116,7.237 2.46348,3.2025 8.12759,-2.4636 6.89584,-6.1589 -0.23094,-0.6928 -0.70402,-1.0218 -1.30468,-1.0781 z m -158.57554,336.8516 -6.65105,2.9556 0.73959,2.9557 2.71093,1.724 0.49219,1.7266 0.49219,2.2161 2.95573,-1.7239 3.20312,-0.7397 2.71094,-5.1744 -2.21875,-2.4637 1.23177,-1.4765 -5.66666,0 z"
         style="opacity:0.38200001;fill:#fefee9" />
    </clipPath>
    <clipPath
       clipPathUnits="userSpaceOnUse"
       id="clipPath4290">
      <path
         inkscape:connector-curvature="0"
         id="path4292"
         d="m 794.17448,-350.00008 c -3.20253,0 -3.20308,3.69585 -0.73959,4.43491 2.46348,0.73904 3.69578,-4.43491 0.73959,-4.43491 z m -8.13021,2.46355 -2.46354,0.73959 -0.2474,5.66666 -2.95573,5.17187 -5.91145,1.97135 -8.6224,-2.46355 -1.47916,0.98437 0,6.15887 -2.46355,4.68229 1.97136,5.66406 -0.49219,4.43491 3.94271,6.65104 -5.17448,5.91406 -0.73959,4.67969 2.46355,7.88281 -1.23177,3.94271 -3.94011,4.6797 -1.23177,5.66667 -5.17448,2.46352 -5.41927,0.49219 -2.21615,0.2474 -3.45052,-4.92707 -4.43489,-0.4948 -3.69532,2.71093 -1.72396,4.1875 1.23177,5.91146 4.4349,0.49479 -0.98438,6.40366 4.18751,10.10156 -1.23177,11.82293 2.95573,5.17447 4.18749,0 2.46355,-5.41927 2.95573,-1.47918 3.69531,1.97135 0.2474,0.49219 7.14323,8.86979 8.6224,0.98437 2.71093,4.43489 2.46353,3.69533 11.57814,-1.97137 2.21614,2.46354 -0.73958,4.4349 0.73958,2.46354 2.21875,0 1.96875,-2.71094 -2.46354,-12.07031 1.23176,-3.20312 8.13022,-7.88282 4.92708,4.1875 2.95573,0.49219 1.23177,-1.23177 0.73959,-2.46354 -1.97136,-3.20052 2.95573,-7.14584 1.47916,-14.04166 -3.20312,-6.65104 0,-3.44792 1.72396,-3.45052 11.33334,-9.11458 3.20312,1.23178 3.20052,1.23177 1.97136,-0.49219 3.9427,-5.17448 3.69531,-9.11458 -2.71093,-2.46354 -3.69531,0.98697 0.98697,-6.40625 -0.73958,-1.97135 -8.1302,1.23177 -2.95574,-5.66406 -1.97136,-0.24741 -3.20312,3.69532 -8.1276,2.21614 -0.98698,-0.98438 -0.24479,-1.23176 7.14323,-5.91146 1.97136,-5.17448 7.88281,-2.70835 3.20312,-7.63801 0.73697,-0.24739 2.46355,-1.47657 3.69531,0.49219 3.94272,3.20313 0.24738,0 1.96876,-0.24741 0.49479,-8.62239 -0.98699,-2.46355 -6.65104,-1.97134 -6.40624,-6.89583 -3.20052,-0.2474 -5.91406,5.17448 -1.23178,0.98438 -7.88281,-0.98438 -5.17188,-4.1875 -11.57812,1.23177 -6.40625,-5.17449 z m 28.45052,145.60416 c -0.24779,0.0236 -0.458,0.17384 -0.61198,0.48177 -1.23174,2.46349 1.23183,8.62027 3.69531,6.89583 2.15556,-1.50888 -1.34879,-7.54263 -3.08333,-7.3776 z m -120.58594,107.64322 -2.21614,0.49219 -1.23178,1.23177 0,2.95574 1.72396,2.21614 2.95574,0.98698 1.47916,-0.98698 0.73958,-1.96874 -0.98697,-3.45054 -2.46355,-1.47656 z m 7.14584,31.28648 -2.95573,1.96875 -0.4948,2.95833 1.23177,2.95573 2.71095,1.23176 2.46353,-0.49218 1.47918,-1.97135 -0.4948,-3.45052 -1.96875,-2.70833 -1.97135,-0.49219 z m -508.46356,762.69529 -5.17448,2.2161 -8.375,0.2475 -8.13022,3.2031 -2.95572,-0.4948 -3.20313,-3.2005 -0.98437,0 -2.46354,0.4922 -2.21875,2.7083 -7.39063,-0.9844 -5.66406,5.9115 -3.69531,5.6666 -1.47917,2.4636 -19.46094,16.7526 -3.69531,3.2005 -3.94271,4.4349 -4.43229,0.987 -6.40625,-0.7396 -11.085941,8.8672 -8.867188,6.4062 -5.421874,6.4037 -7.14323,2.7109 -5.666666,5.6667 -9.114583,5.9114 -2.463541,3.9428 -3.940106,18.7213 -3.942708,8.375 -4.679687,4.9271 -4.1875,1.7266 -2.21875,6.1588 -0.492187,8.8671 -3.447899,5.9115 1.476545,6.8984 -1.231755,4.6797 1.47915,6.4063 -1.97133,7.1432 2.710914,7.638 -1.971334,6.8984 5.171855,8.375 5.421874,9.1146 2.460938,14.534 -0.244792,9.3619 0.984376,0.7395 4.1875,3.2032 0.739582,2.2161 -1.23177,3.6953 5.41927,3.9427 0.986979,3.448 0.984376,3.2031 -1.723959,6.1588 7.882812,4.9271 6.158855,0 3.695312,2.4636 1.479167,4.6796 -1.971354,6.6511 1.476563,18.4766 -1.476563,9.3619 -4.434896,2.2162 -0.739584,2.7111 3.203126,7.14298 0,1.2319 -0.247396,7.638 1.23177,4.1874 4.190104,1.9688 9.606772,-6.1562 4.1875,-2.711 0.247395,-8.3749 2.708333,-2.21888 2.218751,0.2475 1.723959,2.95558 0.984374,5.4193 3.695312,1.9714 6.651039,-1.4792 1.97136,-8.86708 5.66666,-6.1589 0.49219,-3.9426 -1.97135,-9.8542 1.47916,-5.6642 2.70834,-3.6953 3.20312,-1.7265 5.91407,0.4949 0.73697,0.9842 5.66667,6.6512 6.40626,-2.9558 2.70833,-3.9427 2.46354,-0.4921 3.20313,1.9713 3.9427,-0.4922 6.15886,-10.1015 4.67968,-4.4324 2.46354,-0.7396 5.91147,-1.724 2.71093,-3.9427 9.11459,2.4636 1.97135,-2.9558 0,-8.375 -0.49219,-3.6953 0,-0.2474 -4.19011,-1.7239 0.2474,-4.6823 5.66667,-1.4766 4.43229,-4.6823 5.17448,-1.7239 4.67968,-9.6068 1.97136,-0.7395 -0.24478,-4.9271 1.47656,-1.2318 4.43489,1.2318 1.23177,-2.2161 -2.46354,-4.4349 0.98437,-2.2162 5.66667,0.2448 1.47917,-1.4765 -0.2474,-5.4193 1.72396,-2.2188 7.14584,-9.3619 2.70832,-5.1719 2.95573,-1.2318 5.4193,-0.2474 3.94271,-2.4635 10.59375,-11.8229 2.95573,-6.6537 5.66667,-5.664 3.6953,-5.1745 1.47656,-4.4349 -3.20312,-7.6354 1.97135,-6.4062 3.69532,-3.6953 -3.94011,-7.8828 2.46355,-6.8985 2.46353,-2.2161 5.41928,-0.4922 0.49219,-0.7396 1.72396,-2.4635 -0.73959,-2.2162 -6.40365,-5.914 -3.20312,-10.8386 -5.41927,-2.2161 -1.72396,-3.9427 1.47656,-7.3907 0.2474,-11.8255 -1.72396,-1.9687 -2.95573,0.4921 -2.21875,3.2032 -2.95573,1.2318 -3.20312,-1.7266 -1.72396,-3.6927 1.97135,-5.9141 0.73958,-2.2161 -2.21874,-3.6953 -6.89844,2.4635 -2.95574,-3.2031 0.73959,-2.711 6.40625,-9.1146 0,-0.2447 -0.49478,-1.724 -4.6797,-1.9713 -8.62242,-1.724 -4.43489,-4.6823 -2.95573,-6.4037 -1.23176,-2.7109 -3.44792,-1.9713 -8.6224,0 -8.86979,-5.9115 -4.43229,-0.4922 z m 41.06512,1.8776 c -2.60286,-0.2439 -7.59275,4.6349 -5.59116,7.237 2.46348,3.2025 8.12759,-2.4636 6.89584,-6.1589 -0.23094,-0.6928 -0.70402,-1.0218 -1.30468,-1.0781 z m -158.575545,336.85158 -6.651041,2.9556 0.739583,2.9557 2.710937,1.724 0.492188,1.7266 0.492188,2.2161 2.955728,-1.7239 3.203125,-0.7397 2.710938,-5.1744 -2.21875,-2.4637 1.231771,-1.4765 -5.666667,0 z"
         style="opacity:0.38200001;fill:#fefee9" />
    </clipPath>
  </defs>
  <sodipodi:namedview
     pagecolor="#ffffff"
     bordercolor="#666666"
     borderopacity="1"
     objecttolerance="10"
     gridtolerance="10"
     guidetolerance="10"
     inkscape:pageopacity="0"
     inkscape:pageshadow="2"
     inkscape:window-width="1366"
     inkscape:window-height="716"
     id="namedview25"
     showgrid="false"
     inkscape:zoom="0.29"
     inkscape:cx="798.27586"
     inkscape:cy="606.64473"
     inkscape:window-x="-8"
     inkscape:window-y="-8"
     inkscape:window-maximized="1"
     inkscape:current-layer="svg2"
     fit-margin-top="0"
     fit-margin-left="0"
     fit-margin-right="0"
     fit-margin-bottom="0" />
  <path
     style="fill:#12ad2b"
     clip-path="url(#clipPath4290)"
     d="m -75,-350 700,700 -700,700 2800,0 0,-1400 -2800,0 z"
     id="rect4"
     inkscape:connector-curvature="0"
     transform="translate(-30,350.00008)" />
  <path
     d="M 0,0 0,1400 700,700"
     id="path8"
     clip-path="url(#clipPath4286)"
     inkscape:connector-curvature="0"
     style="fill:#d21034"
     transform="translate(-100,-6e-5)" />
</svg>
