<svg width="1024" height="1024" version="1.1" xmlns:xlink="http://www.w3.org/1999/xlink" xmlns="http://www.w3.org/2000/svg">
  <title>日本全図 静岡県</title>
  <desc>Author: Lincun</desc>
  <rect fill="powderblue" x="0" y="0" width="1024" height="1024"/>
  <defs>
    <g id="ground">
      <path fill="none" stroke="dodgerblue" stroke-width="0.5" d="M-192,-301A3584,863 -78 0,0 -517,1520M-115,-286A3584,768 -80 0,0 -405,1541M-37,-274A3584,673 -81 0,0 -291,1559M40,-263A3584,577 -82 0,0 -176,1575M119,-253A3584,480 -83 0,0 -61,1589M199,-246A3584,383 -85 0,0 54,1600M279,-240A3584,285 -86 0,0 171,1608M359,-236A3584,187 -87 0,0 288,1614M439,-233A3584,88 -88 0,0 406,1618M520,-233A3584,9 -90 0,1 523,1619M600,-234A3584,108 -91 0,1 641,1617M680,-236A3584,206 -92 0,1 758,1613M760,-241A3584,305 -93 0,1 875,1607M840,-247A3584,402 -95 0,1 992,1598M919,-255A3584,500 -96 0,1 1108,1586M998,-265A3584,596 -97 0,1 1223,1572M-517,1520A3367,2073 -180 0,0 1223,1572M-503,1401A3323,2045 -180 0,0 1214,1453M-488,1282A3274,2015 -180 0,0 1203,1333M-472,1162A3221,1983 -180 0,0 1192,1212M-455,1041A3164,1948 -180 0,0 1180,1090M-436,919A3103,1910 -180 0,0 1167,967M-417,797A3039,1871 -180 0,0 1154,844M-396,674A2971,1829 -180 0,0 1139,720M-374,551A2899,1785 -180 0,0 1124,596M-351,428A2824,1738 -180 0,0 1108,472M-327,306A2745,1690 -180 0,0 1092,348M-302,183A2663,1639 -180 0,0 1074,224M-276,61A2578,1587 -180 0,0 1056,101M-249,-60A2489,1532 -180 0,0 1038,-21M-221,-181A2398,1476 -180 0,0 1018,-143M-192,-301A2303,1418 -180 0,0 998,-265"/>
      <g fill="limegreen" stroke="gray" stroke-width="0.5" stroke-linejoin="round">
        <path d="M591 250l-1 6h-3v-9l6 -2zM620 271l-1 -11 -4 -7 -5 -1 -2 -5 -4 -1 -2 -5 4 -8 -1 -11 2 -3 8 -2 6 -9 3 4 2 -1 4 -9 6 -5 -9 -13v-7l7 -3 14 11 10 -3v3l7 2 6 -2 5 -10 -5 -24 2 -5 8 -4 4 -5 -1 -23 4 -8 1 -11 -3 -17 -8 -19 3 -10 -1 -6 2 3h5l6 -8 26 28 8 13 16 17 29 18 28 6 1 4 6 5h19l22 -27 2 5 -11 24v9l4 6 9 3 -2 2 2 -3h-6l4 13 6 6 5 1 6 -8 8 -1 -11 8 -1 7 -17 3 -2 6 -5 5h-5l-2 -2 1 -2 -2 -1 -4 6 3 2 -15 1 -8 -3 -15 8 -14 16 -8 14 -3 8v16l-2 8 -14 -12 -23 -8 -28 -18 -13 -2 4 -2 -16 8 -15 15 -4 -2 4 -1 -5 -1 -2 -6 -8 -7h-10l-6 8 -3 9 1 5 12 8 10 -1 10 12 8 4 2 3 -6 5 -4 1 -9 -4 -3 3v-5h-3l-2 5 -7 4v9l-8 3 -3 6 -8 -3 -2 -7 1 -9zM659 58l2 -2 4 1 2 5 -4 4 -4 -4zM653 45v-1l2 2 -1 9 -4 -10zM957 29l-2 -5h-2l-2 4 2 7 -1 3 -5 1 -2 8 -7 -2 1 7 -10 10 -1 4 -5 -1v3l4 1v4l-4 4 -4 -1 1 5 -3 -4 1 5 -3 7 4 1 4 -9 6 -1 4 -9 10 -9 3 -10 5 2 6 -1 15 -18 13 -9 9 -1 1 -4 -2 -3 2 -4 -5 -2 -6 2 -12 17 -11 3zM878 110l5 -6 8 -2 5 -6 3 1 3 -7 -11 3 -7 -5 -4 2 -3 11 -10 14v3l-13 15 2 7 5 -1v5l1 -14 8 -4 1 -6h3v-7zM910 136l11 -9 -4 -3 -4 3 1 2 -7 1v4l2 -1zM888 154l3 -5 -6 1zM878 157l2 -2h-4z"/>
        <path d="M613 358v-7l-4 -4 7 -8h5l7 -4 2 -16 -3 -5 3 -1 1 -7 6 5 4 -3 4 2 2 15 3 7 6 -3 -1 -4 2 -4 11 8 3 -2 4 -16 -4 -7 -6 6 -14 3 6 -26 17 12 9 -5 -3 31 3 14 4 11 4 -1 5 5 -6 7 -5 -1 -4 2 -2 -2 -14 10 -3 -2 1 -11 -5 1v-6l-11 7 -3 -2 -2 2 -7 -5 -3 3 -13 -1 -2 3z"/>
        <path d="M698 447l-7 -1 -2 13 -7 -2 -3 5 -7 -5 2 -3h-7l-11 -5 2 -6 -3 -5 2 -3 -8 -13 4 -11 4 -5 -2 -5 3 -4 -3 -5h4l-1 -19 4 -5 3 2 14 -10 2 2 4 -2 5 1 6 -7 7 12 -1 4 4 3 -2 5 7 5 2 14 -2 11 4 -5v5l2 2 -5 5 1 2 4 -3 -1 4h-3l-1 4 -2 1 4 -1 -5 3 2 3 -2 1h4l-6 7 4 2h-5l3 3h-3l2 2 -6 1v-3l1 4h-2v4l-1 -4z"/>
        <path d="M666 515l-4 1 1 5h-5l1 2 -5 -1 -1 -6h-9l-4 -5h-6l-1 -5 7 -1 3 -7v-5l7 -12 -5 -11 3 -1 2 -8 -5 -7h5l6 -5 11 5h7l-2 3 7 5 3 -5 7 2 2 -13 7 1 2 7 -5 -3 2 5 -4 4 2 5 -2 -2 -4 3 5 2 -4 6h4v3l-3 -2 2 5h-3l1 3h4l-3 1 3 3 -1 4 -4 -3 1 -2h-2l2 -1 -2 -2 -17 2 -2 4 3 1 -4 2h2l-5 10zM676 487l1 1h-2z"/>
        <path d="M656 449l-6 5h-5l-4 -2 -2 -4 -13 -4 -5 -5 -9 1 2 -9 5 -9 1 -23 -7 -7 -8 2 -3 -8 6 2 6 -8 4 -8v-8l-5 -6 4 1 2 -3 13 1 3 -3 7 5 2 -2 3 2 11 -7v6l5 -1 -1 11 -4 5 1 19h-4l3 5 -3 4 2 5 -4 5 -4 11 8 13 -2 3 3 5z"/>
        <path d="M612 440l9 -1 5 5 13 4 2 4 4 2 5 7 -2 8 -3 1 5 11 -7 12v5l-3 7 -7 1 1 5 -1 9 2 2 -3 4 -6 1 -3 -3 -3 1 -3 -4 -6 2 -7 -3 -2 -4 3 -9 -1 -7 9 -4 2 -4 -10 -6 1 -7 -9 -3 13 -22z"/>
        <path d="M661 580l-10 -5v5l-6 5 -10 -8 -1 -6 -6 -5 -12 -3 -25 16 -8 -2 1 -14 -5 -4 4 -7 -2 -4 1 -3h9l1 -4h8l-2 -8 9 -11 -3 -2 7 3 6 -2 3 4 3 -1 3 3 6 -1 3 -4 -2 -2 1 -9h6l4 5h9l1 6 5 1 -1 -2h5l-1 -5 4 -1 6 15v26l-2 17z"/>
        <path d="M611 630v0h-2l-2 -7 6 -3 2 -4 3 1 3 -5 11 -2 3 -7 -2 -11 3 -2 -2 -3 1 -10 10 8 6 -5v-5l10 5 -8 24 1 7 -3 6 2 11 5 8 -2 3 2 3 1 -5 7 13 -17 -13 -1 3 -17 5 -11 -6z"/>
        <path d="M607 623h-1l-2 -4h-9l-5 -7 6 -13 -8 -2 1 -9 3 -4 -3 -1 2 -4 25 -16 12 3 6 5 1 6 -1 10 2 3 -3 2 2 11 -3 7 -11 2 -3 5 -3 -1 -2 4z"/>
        <path d="M606 623l-11 1 -5 -4 -11 -2 -5 10 -16 9 -4 -2v-6l-3 -3h3l-2 -7 3 -2 -1 -6h-9l-3 -5 1 -7 5 -4 -1 -2 9 -3 12 -6v-3l3 -1 -1 -5 4 -1 2 -4 7 7 8 2 -2 4 3 1 -3 4 -1 9 8 2 -6 13 5 7h9z"/>
        <path d="M606 623h1l2 7h2v0l7 13v6l-7 -2 -1 2 -4 -1 -6 3v-3l-8 3 -4 -5 -15 -3 -4 2 -10 -3 -1 -5 16 -9 5 -10 11 2 5 4z"/>
        <path d="M617 658l2 -4 -1 -5v-6l-7 -13 9 9 11 6 17 -5 1 -3 17 13 1 3 -10 1 -11 10 -3 22 -13 4 -11 14 -7 -4 5 -2 -3 -2 2 -3 -1 -6 2 -4 -4 -5 3 -4 3 1v-4l6 -2 5 -7 -7 -7 -5 4z"/>
        <path d="M756 1183l2 4h-2zM618 815v5l-5 -6zM603 756l-2 2 -3 -2 3 -3zM581 746l2 2 -3 1zM588 740l-2 -2 2 -4zM592 717v-6l4 2v5zM618 649l1 5 -2 4 -6 -1 2 5h-4h4v3l-14 -7 -4 2 3 2h-1l-1 5 -3 -5 -14 -5 -5 -3 -5 -9 4 -2 15 3 4 5 8 -3v3l6 -3 4 1 1 -2z"/>
        <path d="M579 657l14 5 3 5 1 -5h1l-3 -2 4 -2 14 7 -4 4h-4l3 4 -3 -1v8l6 2 -5 5 2 2h-4l1 -4 -3 -5 -7 -2 -12 3 -3 3 1 6h-2l-7 -4 1 -12h-5l10 -9z"/>
        <path d="M510 589l-3 -11 -4 -3 14 -5 9 -7h7l15 -12 10 -15 5 -13 19 -13 1 3 -1 -2 7 -6 8 -29 9 3 -1 7 10 6 -2 4 -9 4 1 7 -3 9 2 4 3 2 -9 11 2 8h-8l-1 4h-9l-1 3 2 4 -4 7 5 4 -1 14 -7 -7 -2 4 -4 1 1 5 -3 1v3l-12 6v-7l-5 -4v-4l-3 -3 -7 2 -5 6v4l-4 -2 -8 5 -2 -2v-5l-7 -1v3zM539 522l-8 1 7 -9 -2 -3 -3 2v-5l4 -9 10 -8 -4 15 7 1 -4 9z"/>
        <path d="M501 612l-10 -4 -4 2v-2l-5 2 -3 -2 -9 11 -1 -4 -4 -2 -4 5 -1 -9 2 -7 -2 -4 3 -4 -2 -3 3 -2 2 -10 8 -3 -3 7 12 7 8 -4 2 -8 10 -3 4 3 3 11 -1 11 -3 1 1 3z"/>
        <path d="M470 567l-3 -3h7zM461 618l3 3 -5 10 -5 1 -5 -5 -10 -1 -6 -9 14 -14 12 -18 1 -11 -2 -4v-5l-3 -1 5 -13 25 -10 4 1 1 4 -6 1 -1 9 -4 -1 -7 7 -2 -3 -3 1 -2 9 6 2 3 -4v9l-8 3 -2 10 -3 2 2 3 -3 4 2 4 -2 7z"/>
        <path d="M433 617l6 9 10 1 5 5 5 -1 -2 6 5 8 -2 4h-13l-1 3 -7 -3 -5 8 -6 -2 1 8 -3 -1 -1 3 -5 3 -3 -2 -3 7 -4 -1 -2 4 -12 -2 -4 -6 2 -5 2 4 7 -3 -4 3 6 1 3 -3h-2l-1 -3 6 3 -1 -3 3 -1 -2 -3 8 1 -1 -6 3 -3v6l3 1 1 -7 -7 -13 9 -13v-4z"/>
        <path d="M533 659l-2 -5 3 -2 -3 -3 9 -11 6 5 6 -2 4 4 3 -3 10 3 5 9 5 3 -1 8 -10 9 -12 3 -5 -6 -3 8 1 7 -5 2 -4 -9 -6 -1 1 -11z"/>
        <path d="M556 590l-9 3 1 2 -5 4 -1 7 3 5h9l1 6 -3 2 2 7h-3l3 3v6l4 2 1 5 -3 3 -4 -4 -6 2 -6 -5 -9 11 3 3 -3 2 2 5 -4 5v12l-16 10 -8 -2 -5 3 -1 -6 2 -3 -1 -4h3l-2 -3 2 -4 -6 -6 2 -3 -5 -7 -7 -3 3 -5h5l6 -7 1 -4 -3 -4 5 -10 -3 -6 6 -8 -1 -3 3 -1 1 -11 5 -7v-3l7 1v5l2 2 8 -5 4 2v-4l5 -6 7 -2 3 3v4l5 4z"/>
        <path d="M501 612l3 6 -5 10 3 4 -1 4 -6 7h-5l-3 5 7 3 5 7 -2 3 6 6 -2 4 2 3h-3l1 4 -2 3 -6 4 -7 -4 -6 2 -5 -2 -6 -8 -10 3 -5 8v6l-7 -7 -6 2 -2 -2 3 -9v-3l-3 -7h-3l-2 -7 5 -8 7 3 1 -3h13l2 -4 -5 -8 2 -6 5 -10 -3 -3 4 -5 4 2 1 4 9 -11 3 2 5 -2v2l4 -2z"/>
        <path d="M568 674h5l-1 12 7 4 -3 5 5 6 -1 4 -7 10v5l-8 4 -5 -6 2 -14 -1 -3 1 -4 6 -1 -11 -6 -7 3 -3 4 1 3 -8 4 -3 9 -5 7 1 4 -13 -4 -25 -1v-8l8 -5 10 -20 16 -10v-12l4 -5 2 8 -1 11 6 1 4 9 5 -2 -1 -7 3 -8 5 6z" fill="red"/>
        <path d="M495 719l-24 6 3 -5 2 2 9 -6 1 3 3 -3 -1 -3 -6 -3 -2 4 -8 -1 -4 -3 2 -8 -4 11 3 4h-2l-5 -3 2 -5 -3 -3v-5l4 -7 -6 3 -5 -7v-6l5 -8 10 -3 6 8 5 2 6 -2 7 4 6 -4 1 6 5 -3 8 2 -10 20 -8 5z"/>
        <path d="M418 778l-5 -3 -2 -7 1 1v-3h1l6 -3 -1 -3 6 -1v-3l-1 -7 2 -4 -2 -3 2 -1 -3 -5 9 -6 -10 -6 2 -3 -2 -2h2l-1 -4 -2 -4 4 -1 1 -6 7 3 6 -3 4 -10 -1 -9 6 -2 7 7 5 7 -6 2v4l-7 12v8l16 7 2 5 2 -2v5h-5h5l-1 6h-3l1 -1 -3 -2v2h-6l2 -3h-3l-3 5 -1 -2 -2 2 -2 -1v3l-2 -2 -8 3 -2 3 1 4h-3l1 -2 -3 3 4 3 -2 1 1 3 -3 -2 1 3 -7 4z"/>
        <path d="M434 657l2 7h3l3 7v3l-3 9 2 2 1 9 -4 10 -6 3 -7 -3 -1 6 -4 1 -4 -6h-4l-2 -10 2 -15 -4 -4 2 -4 4 1 3 -7 3 2 5 -3 1 -3 3 1 -1 -8z"/>
        <path d="M405 712l-2 -8 -4 -2v-2l-3 3 -9 -8 1 -6 -9 -2 -2 -6 -5 1 -7 -5v-6l6 1v-7v-2l-6 2 -3 -5 1 -4 2 3 -1 -3 17 -7 4 7 -8 6 2 2 3 -4 -1 4 5 1 -1 4 2 -2 2 1 -3 -5 7 -3 1 3 -2 5 4 6 12 2 4 4 -2 15 2 10h4l4 6 2 4 -2 1 -5 -3 -4 3z"/>
        <path d="M387 695l9 8 3 -3v2l4 2 2 8 -4 10 2 10 -2 4 -26 6 -3 -2 6 -2 7 -6 3 -10 3 3 -3 -9 3 -2 -2 -11 3 -1 -6 -2 -1 -5z"/>
        <path d="M360 744l-7 3 -1 -4 -3 1v-4l19 -19 1 3 -7 9 2 9zM333 713l1 -3 -4 -5 2 -3 -2 -7 8 -9v-5l6 -2v-5l-7 -17 9 -3 17 2 -1 4 3 5 6 -2v2v7l-6 -1v6l7 5 5 -1 2 6 9 2 -1 6h-2l1 5 6 2 -3 1 2 11 -3 2 -5 -1 -13 5 -15 -9h-14l-1 -3 -2 5 -3 -2z"/>
        <path d="M418 760l-4 2 -1 4h-1v3l-1 -1 -14 -2 2 -5 -4 -7 5 -7 4 -1 -3 -10 2 -4 -2 -10 4 -10 6 4 4 -3 5 3 2 -1 1 4h-2l2 2 -2 3 10 6 -9 6 3 5 -2 1 2 3 -2 4 1 7v3z"/>
        <path d="M411 768l2 7 5 3 -4 5 2 4 -9 5 -1 3h-1v-2l-16 -5 -6 -8 4 -3 -9 -4 -5 -6h-4l3 -5 -2 -1 5 -3 -4 -3 3 -2 -1 -2 5 -1 -8 -7 2 -3 3 2 26 -6 3 10 -4 1 -5 7 4 7 -2 5zM418 760l1 3 -6 3 1 -4z"/>
        <path d="M280 690l-7 -2 3 -5 -2 -4 8 -2 1 -9 -6 -8 3 -1 2 4 6 2 8 -4 11 2 21 -1 9 -5 7 17v5l-6 2 -12 4 -1 -7 -7 -2 1 -3 -10 6 -4 -4 -8 -2 -2 6 -3 1 1 3 -6 -1v4l-6 1z"/>
        <path d="M269 624l5 -2 -3 5 -3 -2 1 3 -3 -3zM275 626l-3 2v-4l3 -1 2 3zM279 615l5 -6 5 5 -1 4 -3 1 2 2h-5zM198 709l8 -2 14 -14 11 -6 6 -8 11 -5 2 -6 -2 -3 18 -5 6 -5 3 3h8l-3 1 -3 1 6 8 -1 9 -8 2 2 4 -3 5 -13 -2 -7 9 -6 3 3 4 -8 2 -6 -2 -2 3 -8 -2 -6 5 2 2 -2 6 -5 5 1 2 -3 2v4l-3 4 -2 -2 -5 2 -3 -4 2 -5h-5l-1 -4 3 -5z"/>
        <path d="M338 681v5l-8 9 2 7 -2 3 4 5 -1 3 -7 -1 3 2 -7 7 -9 -1 5 2 -2 4 -2 -1 -2 4 -5 -2 -2 3 -3 -6v4l-3 -5 -4 4 -6 -3 2 4 -4 -2 -4 -16 2 -4 -4 -6 1 -7 -2 -3 1 -3 6 -1v-4l6 1 -1 -3 3 -1 2 -6 8 2 4 4 10 -6 -1 3 7 2 1 7z"/>
        <path d="M287 726v2l-3 -2 3 3h-2l-2 4 -6 -2v-3l-9 2 -2 5h-13l-2 4 -6 3 -2 -2 -3 2 1 -3 -3 -6 1 -2h-8l-7 6 1 3 -6 -2v-6l-3 -2v-7l-1 -2 5 -5 2 -6 -2 -2 6 -5 8 2 2 -3 6 2 8 -2 -3 -4 6 -3 7 -9 13 2 7 2 2 3 -1 7 4 6 -2 4zM260 740l-3 2 -2 -2 5 -3zM236 740l-1 -4 3 1 -1 8h-3l1 -3 -4 -5zM229 734l1 2 -4 3zM249 744l-2 -2h4zM239 744h2l-2 3h3l-2 2 -5 -1 3 -6h2zM273 735l1 3 -3 -3zM271 736l-4 3 1 -3zM275 730l1 1 -3 2z"/>
        <path d="M198 709l1 6 -3 5 1 4h5l-2 5 3 4 5 -2 2 2 3 -4v-4l3 -2v7l3 2v6l6 2 -1 5h-2v8l-5 3 1 7 -4 -6h-5l-5 -6 -4 2 2 -3 -4 -3 -10 4 -4 -3 -2 3v-2l-2 2v-4l-2 5 -5 2 -2 -2 -2 2 -2 -5 -5 -4 -7 7v-7l-2 -4 4 -6 -3 -5 2 -4h7l-5 -2 2 -3 8 2 1 3h8l6 -2 -1 -3 11 -11 3 1zM217 763l-5 2 2 -4zM228 759l7 -2 -5 2v3l-4 -3 -5 3 -1 -5 2 -2zM171 724l-1 -2 5 1zM204 755h-3l3 -3z"/>
        <path d="M346 745l2 -1 -1 3zM338 745l7 -1v2l3 1 -4 9 7 7 -4 5 6 1 -19 11 -5 6 -5 -1 -3 -4 2 -3 -6 -1 -1 -9 -6 2 -13 -6 1 -8 10 -5 6 2 10 -6 12 2z"/>
        <path d="M298 756l-4 -2 3 -9 -5 -5 6 3 14 -10 7 3 4 -3 1 4 2 -2 3 2v3l9 5 -2 4 -12 -2 -10 6 -6 -2zM319 728l-1 -1h3zM333 723h2l-2 8 -3 -1 1 -2 -4 4 1 -4 -4 -2z"/>
        <path d="M243 757l-2 -1 4 -3zM264 742h-4l4 -6 3 3zM269 741l2 1 -2 1 -3 -1zM267 746l-3 2 1 -5 4 1zM242 821l-8 -2 1 3h-3l1 -5 4 1 -6 -5 2 -1 -2 -4h4l-4 -1 2 -2 -3 -2 4 3 4 -4 -1 -3h-3l2 -3h-8l3 -2 -2 -2 2 -5 -6 -1 -8 6 -7 1 34 -20 7 -18 8 -4 -1 -4 2 -1 9 14 10 -4 10 2 5 -4 4 2 -1 8 -25 4 -6 9 -4 10 -11 1 5 9 -6 3 -5 8 -4 -3 3 13z"/>
        <path d="M297 764l13 6 6 -2 1 9 6 1 -2 3 3 4 5 1 -7 19 -12 -16 -10 -3 -9 2 -1 -3 1 3 -12 4h6l-6 1 -1 3 -2 -3 -3 5 1 4 -2 6h-3l-4 8 -5 1v8l-3 3 3 7 -4 -5 -7 3 -5 -4 -4 2 2 -6 3 -1v-3h-3l2 -3 -3 -13 4 3 5 -8 6 -3 -5 -9 11 -1 4 -10 6 -9zM237 833l-2 2v-4z"/>
        <path d="M148 804l-8 -5 -2 4 -4 -1 -4 4v3l-5 -1v-5l-2 -3 1 -7 9 -5v-6l-6 2 -7 -6h-12l6 -4 -3 -3 6 -5 3 6 7 -1 2 -5 -4 2 -3 -3 5 1 4 -3 1 -8 10 -1 1 -3 6 1 -3 3 3 1 1 -3 4 2 7 -4 -4 8 2 2 -1 1 5 10 5 1 -1 7 -8 -1 -7 4 -4 6 2 5 -2 1 3 4z"/>
        <path d="M108 778h12l7 6 6 -2v6l-9 5 -1 7 -6 -5 -5 5 2 10 -7 -2 -7 -7 1 -5 -6 -2 -3 -6 2 -3 4 4 -2 -4 3 -4 -5 -3 2 -2 2 2v-6l1 2h5v4z"/>
        <path d="M81 700l3 -2 2 3 -4 3 2 4 -6 6 -1 4 3 -2 -3 4 3 -1 -3 4v-5l-2 3v-4l-2 3 -3 -1 3 -1v-4l2 -1 -2 -1 4 -3 -2 -3 2 -5 4 1zM75 727l-3 6 -6 1 3 -14 1 3 3 1 -1 -3 2 3 2 -1zM95 758l1 2 -4 2 -3 -5 2 1 -2 -3 3 -3 4 1 -2 3 3 1zM56 809l-3 5 2 -6 -4 -2 3 -1v-4h2l2 -9 -2 11 5 1 -2 3 -2 -2zM52 810h-3v-2l2 1 -1 -3zM47 812l1 -3v5l-4 -4zM35 817l3 -2 1 2 2 -3 3 10 -6 -1v4l-9 -3 1 -2 1 3 1 -2h-1l2 -2 -1 -7zM94 778l-3 2 2 -4zM96 781l2 2 -3 1zM58 786l2 -2 1 2zM83 775h-3l3 -2zM94 785l-2 3 3 6 6 2 -1 5 7 7 7 2 -7 6 13 1 2 5 -2 6 -10 5 -1 -6 4 -4 -1 -3h-5l-7 1 -3 6 -9 5 4 -5 -1 -2h3l2 -3 -3 1 -2 -6 -4 -1 -3 -6 3 -11 4 4 -1 3 1 -2 3 3 -2 7 11 3 -3 -6 1 -5 -4 -4 -3 2v-7l-4 1v-3l-3 4 2 -2 -4 -2 1 -4 -1 2 -4 -2 4 -5 -3 -1 1 -4 5 -1 1 3h5zM78 786l-1 5 -6 1 4 -2 -1 -2 2 -6 5 1 1 -4 1 4zM43 814l1 -3 2 3 -3 2zM92 799v4l-2 -4 2 -2z"/>
        <path d="M108 836h4v11l-8 9 -4 1v-6l4 -1 -5 -2 5 -9 -2 -3zM119 846h-6l-1 -4 6 -4h8l-4 8zM123 832l3 1 -1 4 -2 -1zM137 866l-5 -6 -9 4 -4 -4 12 -16 -2 -5 2 1 -1 -2 6 -6 -10 1 8 -6 1 -5 -9 -8 -1 -6 5 1v-3l4 -4 4 1 2 -4 8 5 7 5 2 -4 -1 -6 6 1 7 13v6l3 3 -3 1 -9 14 -5 2 -1 7 5 7 -4 5 3 5z"/>
        <path d="M148 804l3 -5 -3 -4 2 -1 -2 -5 4 -6 7 -4 8 1 1 -7 12 4 5 -7 9 4 2 6 -2 8 -4 -1 1 3 -8 2v4l4 2 17 -1 -6 9h5l-3 2 3 2 5 -2 1 3h-5l-2 4 10 4h-6l2 2 -4 3 4 1 -7 1v4h-2l1 -5 -5 -1 -3 4h-8l-4 -5 -6 1 -2 -2 -3 -3v-6l-7 -13 -6 -1 1 6 -2 4z"/>
        <path d="M172 822l2 2 6 -1 4 5h8l3 -4 5 1 -1 5h2l-11 10 -1 4 3 1 -4 1 -1 2 2 1 -5 8 -6 17 -3 23 -5 5 -2 12 -5 -2 -5 -5 2 -3v-7l-7 -1 -3 -9 -5 -2 2 -5 -6 -5 -5 -7 1 -2 21 -3 -3 -5 4 -5 -5 -7 1 -7 5 -2 9 -14z"/>
        <path d="M4 1148l-4 2v-5l9 -1zM21 1126v-8l4 -1v5l3 3 -1 3 -5 3 -2 -4zM82 1097l-2 2 -1 -3 6 -3zM64 1089l-13 9 3 2 -4 4 -3 -2 1 4 -5 -5 1 -2 -8 -3h7l2 -1 -5 -2 14 -5 2 2 3 -5h4l-2 3 2 -2 2 2 2 -6 1 6zM43 1107l-1 -2 -3 2 -1 -7 5 2 -2 3 6 1 -2 3v-2zM103 965l3 2h-3zM113 976l-1 -6 7 -4 9 6 -1 5 -6 4 -6 -1zM144 969v5l-6 1v-8l3 -3 2 -9 7 -10 1 9zM119 860l4 4 9 -4 5 6 -1 2 5 7 6 5 -2 5 5 2 3 9 7 1v7l-2 3 -3 -1 -5 6 5 3 -2 3h3l-6 3 -4 5 -16 8v-5l5 -3 4 -13 -5 -8v-6l-6 -2 5 -2 1 4h3l4 -6 -7 -5 -4 2 -6 13 2 11 5 3 -2 5 -6 1 -3 -6 -13 -1 1 -3 -3 -2 2 -1 -5 -5 9 1 4 -11 -3 -8 -5 -5 3 -7 -2 -11 4 -2 3 2zM112 853l2 -1 -1 2zM107 863l-2 -5 4 -3 2 5zM85 884l2 -3 1 2 -6 8 -2 -1zM93 880l-4 -3h6zM75 1012l-3 4v-3zM81 1001l2 -2 2 4z"/>
        <path d="M-321 1283l3 1 -2 1 -5 -1zM-276 1295l6 3 -4 6 -11 -5 2 -2 3 2 1 -7zM-198 1281l-1 -4 3 2zM-192 1287l-3 -2h2l-1 -3 2 -2 -1 -5 3 8 7 6zM-100 1198v5l-5 -5 3 -2zM143 1255l-1 -3h2zM-45 1183v-2l3 2zM-31 1187v2l-2 -2zM-252 1292l5 -6 1 2 -6 6v7h-6l-2 -2 2 -2 -3 -3 8 1zM-37 1195l3 -3 -5 -2v-6l6 1 1 4 6 -1 -1 -2 10 -10 3 4 -1 5 -5 6 -5 -1 -1 5 -5 -1 1 2 -7 5 -6 -1 4 9 -4 -2 -5 7 4 3 -10 4 -1 -8 7 -6 -2 -8 5 1z"/>
      </g>
    </g>
  </defs>
  <g>
    <clipPath id="main">
      <path d="M512 0L1024 0L1024 1024L0 1024L0 512A512 512 0 0 0 512 0z"/>
    </clipPath>
    <use clip-path="url(#main)" x="0" y="0" xlink:href="#ground"/>
    <clipPath id="sub">
      <path d="M-384 1024L128 1024A512 512 0 0 1 -384 1536z"/>
    </clipPath>
    <use clip-path="url(#sub)" x="384" y="-1024" xlink:href="#ground"/>
  </g>
  <path d="M512 0A512 512 0 0 1 0 512" fill="none" stroke="white" stroke-width="16"/>
  <g>
    <rect x="438" y="936" width="578" height="80" fill="white" opacity="0.5"/>
    <rect x="446" y="992" width="562" height="16" fill="gray"/>
    <text x="723" y="976" font-family="Helvetica" font-size="40" fill="gray" text-anchor="middle">1000km</text>
  </g>
</svg>